<?xml version="1.0" encoding="utf-8"?>
<!-- Generator: Adobe Illustrator 18.1.0, SVG Export Plug-In . SVG Version: 6.00 Build 0)  -->
<!DOCTYPE svg PUBLIC "-//W3C//DTD SVG 1.1//EN" "http://www.w3.org/Graphics/SVG/1.1/DTD/svg11.dtd">
<svg version="1.1" id="Layer_1" xmlns="http://www.w3.org/2000/svg" xmlns:xlink="http://www.w3.org/1999/xlink" x="0px" y="0px"
	 viewBox="0 0 68 68" enable-background="new 0 0 68 68" xml:space="preserve">
<g>
	<path fill="#E12185" d="M43.8,9.7c0.5,0,0.9,0.1,1.3,0.2c4.2,1.7,4.3,12.7,2.4,23.8c-3.1,0.4-6.3,1-9.4,1.7
		c-1.9-4.6-4.9-9.9-8.3-14.9C35,14.3,40.3,9.7,43.8,9.7z"/>
	<path fill="#E12185" d="M32.8,63.2c-0.4,0.2-0.8,0.4-1.2,0.6c-1.5,0.6-3.1,0.9-4.7,0.9c-0.5,0-1.1,0-1.6-0.1c-0.1,0-0.3,0-0.4-0.1
		c0,0,0,0-0.1,0c-0.3,0-0.5-0.1-0.8-0.2c0,0-0.1,0-0.1,0c-0.2-0.1-0.5-0.1-0.7-0.2c0,0-0.1,0-0.1,0c-0.2-0.1-0.4-0.1-0.6-0.2
		c-3.4-1.5-5.6-4.2-6.5-7.9c-0.9-6,4.1-12,13.3-15.8c2.3-1,4.9-1.8,7.7-2.5c4,10.4,3.3,19.2-1.8,23.8C34.5,62.2,33.7,62.7,32.8,63.2
		z"/>
	<path fill="#E12185" d="M15.8,48.5c0.4-2.7,1.2-5.7,2.5-8.9c2.4-5.7,6.2-12.1,10.4-17.5c3,4.5,5.8,9.3,7.7,13.8
		c-2.8,0.7-5.4,1.6-7.7,2.6C22.5,41,18.1,44.6,15.8,48.5z"/>
	<path fill="#E12185" d="M38.9,37.2c2.7-0.7,5.6-1.2,8.3-1.5c-1,5.2-2.4,10.2-4.1,14.2c-0.6,1.4-1.2,2.7-1.9,3.9
		C42,49.1,41.3,43.4,38.9,37.2z"/>
	<path fill="#E12185" d="M2.8,21.2C2,11.3,3.5,4.9,6.7,3.5c0.4-0.2,0.9-0.3,1.4-0.3c4.9,0,12.8,7.8,19.4,17.2
		c-4.6,5.9-8.7,12.8-11,18.4c-2.8,6.7-3.5,12.8-2.3,17.6c0.1,0.5,0.2,0.9,0.3,1.4c-2.1-2.6-4.1-5.9-5.7-9.8
		C5.8,40.7,3.4,30.2,2.8,21.2z"/>
	<path fill="#E12185" d="M38.5,62.4c-0.8,0.3-1.6,0.6-2.4,0.9c0.2-0.2,0.5-0.4,0.7-0.6c3.1-2.7,5.8-6.8,8-12
		c1.7-4.1,3.3-9.6,4.3-15.2c2-0.2,3.9-0.3,5.7-0.3c5.7,0,9.5,1.2,10.3,3.2C67.4,43.7,51.5,57,38.5,62.4z"/>
</g>
</svg>
