<?xml version="1.0" encoding="utf-8"?>
<!-- Generator: Adobe Illustrator 18.1.0, SVG Export Plug-In . SVG Version: 6.00 Build 0)  -->
<!DOCTYPE svg PUBLIC "-//W3C//DTD SVG 1.1//EN" "http://www.w3.org/Graphics/SVG/1.1/DTD/svg11.dtd">
<svg version="1.1" id="Layer_1" xmlns="http://www.w3.org/2000/svg" xmlns:xlink="http://www.w3.org/1999/xlink" x="0px" y="0px"
	 viewBox="0 0 268 268" enable-background="new 0 0 268 268" xml:space="preserve">
<g>
	<g>
		<path d="M29.4,163l-4.7,1.3l-1-3.8l7.1-2.3H34v26.6h-4.6V163z"/>
		<path d="M40.5,165h4.6v1.7c1.1-1.1,3.5-2.2,6.7-2.2c4.7,0,9.3,3.7,9.3,10.3v0.1c0,6.6-4.5,10.3-9.3,10.3c-3.3,0-5.5-0.8-6.7-1.9
			v4.4l-4.6,3.1V165z M56.4,175L56.4,175c0-3.9-2.6-6.4-5.7-6.4c-3.1,0-5.8,2.6-5.8,6.4v0.1c0,3.8,2.7,6.4,5.8,6.4
			C53.9,181.3,56.4,178.9,56.4,175z"/>
		<path d="M76.2,184.9V184c-1.4,0.7-3.4,1.3-6.4,1.3c-3.8,0-7.1-2.1-7.1-6.1v-0.1c0-4.4,3.4-6.5,8.1-6.5c2.4,0,4,0.3,5.5,0.8V173
			c0-2.7-1.7-4.3-4.9-4.3c-1.3,0-2.5,0.2-3.6,0.5c-0.7-0.5-3.4-2.9-3.4-2.9c2.2-1,4.3-1.7,7.6-1.7c5.9,0,8.7,3.1,8.7,8.4v11.8H76.2z
			 M76.3,176.5c-1.2-0.5-2.8-0.8-4.6-0.8c-2.9,0-4.6,1.2-4.6,3.1v0.1c0,1.9,1.7,2.9,3.8,2.9c3,0,5.3-1.7,5.3-4.2V176.5z"/>
		<path d="M156.1,184.9V184c-1.4,0.7-3.4,1.3-6.4,1.3c-3.8,0-7.1-2.1-7.1-6.1v-0.1c0-4.4,3.4-6.5,8.1-6.5c2.4,0,4,0.3,5.5,0.8V173
			c0-2.7-1.7-4.3-4.9-4.3c-1.3,0-2.5,0.2-3.6,0.5c-0.7-0.5-3.4-2.9-3.4-2.9c2.2-1,4.3-1.7,7.6-1.7c5.9,0,8.7,3.1,8.7,8.4v11.8H156.1
			z M156.2,176.5c-1.2-0.5-2.8-0.8-4.6-0.8c-2.9,0-4.6,1.2-4.6,3.1v0.1c0,1.9,1.7,2.9,3.8,2.9c3,0,5.3-1.7,5.3-4.2V176.5z"/>
		<path d="M84.6,165h4.6v2.1c1-1.1,3.5-2.7,7-2.5v4.8h-0.3c-4,0-6.8,2.6-6.8,7.9v7.6h-4.6V165z"/>
		<path d="M165.2,165h4.6v2.1c1-1.1,3.5-2.7,7-2.5v4.8h-0.3c-4,0-6.8,2.6-6.8,7.9v7.6h-4.6V165z"/>
		<path d="M101,179.4v-10.5h-2.5V165h2.5v-2.3l4.6-3.1v5.5h5.3l-2.4,3.9h-3v9.8c0,1.5,0.7,2.4,1.8,2.4c1.1,0,1.9-0.6,1.9-0.6
			l1.6,3.7c-1.1,0.6-2.4,1-4.1,1C103.4,185.2,101,183.7,101,179.4z"/>
		<path d="M117.3,171.8L117.3,171.8c0-7.6,5.6-13.7,13.6-13.7c4.9,0,7.8,1.7,10.3,4.1l-3,3.4c-2.1-2-4.4-3.3-7.4-3.3
			c-5,0-8.7,4.1-8.7,9.3v0.1c0,5.2,3.7,9.4,8.7,9.4c3.2,0,5.3-1.3,7.6-3.4l3,3c-2.7,2.9-5.8,4.7-10.7,4.7
			C123,185.3,117.3,179.3,117.3,171.8z"/>
		<path d="M184.5,183.3v1.5h-4.6v-24.4l4.6-3.1v9.4c0.9-1.1,3.5-2.2,6.7-2.2c4.7,0,9.3,3.7,9.3,10.3v0.1c0,6.6-4.5,10.3-9.3,10.3
			C187.9,185.3,185.4,184.7,184.5,183.3z M195.8,175L195.8,175c0-3.9-2.6-6.4-5.7-6.4c-3.1,0-5.8,2.6-5.8,6.4v0.1
			c0,3.8,2.7,6.4,5.8,6.4C193.3,181.3,195.8,178.9,195.8,175z"/>
		<path d="M202.3,175L202.3,175c0-5.8,4.5-10.5,10.6-10.5c6.1,0,10.6,4.6,10.6,10.3v0.1c0,5.7-4.5,10.4-10.7,10.4
			C206.8,185.3,202.3,180.7,202.3,175z M219,175L219,175c0-3.6-2.5-6.5-6.1-6.5c-3.7,0-6,2.9-6,6.3v0.1c0,3.5,2.5,6.4,6.1,6.4
			C216.6,181.4,219,178.5,219,175z"/>
		<path d="M226.4,165h4.6v1.5c0.7-0.8,3.1-1.9,6.2-1.9c4.5,0,7.1,3,7.1,7.6v12.7h-4.6v-11.3c0-3.1-1.5-4.9-4.3-4.9
			c-2.6,0-4.5,1.8-4.5,4.9v11.2l-4.6-3.1V165z"/>
	</g>
	<g>
		<path d="M134,91.9c-4.5,0-8.8,1.4-12.3,3.7c-1.8-1.2-4.2-1-5.8,0.6c-1.6,1.6-1.8,4-0.6,5.8c-2.3,3.5-3.7,7.7-3.7,12.3
			c0,12.3,10,22.3,22.3,22.3c4.5,0,8.8-1.4,12.3-3.7c1.8,1.1,4.1,0.9,5.7-0.6c1.5-1.5,1.7-3.9,0.7-5.6c2.4-3.5,3.7-7.8,3.7-12.3
			C156.4,101.9,146.4,91.9,134,91.9z M150.4,124.7c-1.6-0.6-3.5-0.3-4.8,1c-1.3,1.3-1.7,3.2-1,4.8c-3,1.9-6.6,3.1-10.4,3.1
			c-10.7,0-19.4-8.7-19.4-19.4c0-3.9,1.1-7.5,3.1-10.5c1.6,0.6,3.5,0.2,4.7-1.1c1.3-1.3,1.6-3.1,1.1-4.7c3-2,6.6-3.1,10.5-3.1
			c10.7,0,19.4,8.7,19.4,19.4C153.4,118.1,152.3,121.7,150.4,124.7z"/>
		<path d="M167.4,108.8c-2.3-14.3-13.6-25.6-27.9-27.9c-0.8-2.2-2.9-3.8-5.4-3.8c-2.5,0-4.6,1.6-5.4,3.8
			c-14.3,2.3-25.5,13.6-27.9,27.8c-2.3,0.8-3.9,2.9-3.9,5.5c0,2.5,1.6,4.7,3.9,5.5c2.3,14.3,13.7,25.6,28,27.9
			c0.8,2.3,2.9,3.9,5.5,3.9c2.5,0,4.7-1.6,5.5-3.9c14.2-2.4,25.4-13.7,27.7-27.9c2.2-0.8,3.8-2.9,3.8-5.4
			C171.2,111.7,169.6,109.6,167.4,108.8z M139.1,142.7c-1-1.7-2.8-2.8-4.9-2.8c-2.1,0-4,1.1-5,2.8c-12-2-21.5-11.5-23.6-23.5
			c1.7-1,2.8-2.9,2.8-5c0-2.1-1.1-3.9-2.8-5c2.1-11.9,11.5-21.4,23.4-23.5c1,1.7,2.9,2.9,5,2.9c2.1,0,4-1.2,5-2.9
			c11.9,2.1,21.3,11.5,23.4,23.4c-1.7,1-2.9,2.9-2.9,5c0,2.2,1.2,4,2.9,5C160.4,131.2,151,140.6,139.1,142.7z"/>
		<path d="M134,102.7c-1.1,0-2.1,0.9-2.1,2.1c0,1.1,0.9,2.1,2.1,2.1c1.1,0,2.1-0.9,2.1-2.1C136.1,103.6,135.2,102.7,134,102.7z"/>
		<path d="M134,121.6c-1.1,0-2.1,0.9-2.1,2.1c0,1.1,0.9,2.1,2.1,2.1c1.1,0,2.1-0.9,2.1-2.1C136.1,122.5,135.2,121.6,134,121.6z"/>
		<circle cx="143.5" cy="114.2" r="2.1"/>
		<path d="M126.7,114.2c0-1.1-0.9-2.1-2.1-2.1c-1.1,0-2.1,0.9-2.1,2.1c0,1.1,0.9,2.1,2.1,2.1C125.7,116.3,126.7,115.4,126.7,114.2z"
			/>
		<circle cx="138.9" cy="122.3" r="2.1"/>
		<path d="M130.2,107.9c1-0.6,1.3-1.9,0.7-2.8c-0.6-1-1.9-1.3-2.8-0.7c-1,0.6-1.3,1.9-0.7,2.8C128,108.2,129.3,108.5,130.2,107.9z"
			/>
		<path d="M143.3,117c-1-0.6-2.3-0.2-2.8,0.8c-0.6,1-0.2,2.3,0.8,2.8c1,0.6,2.3,0.2,2.8-0.8C144.7,118.9,144.3,117.6,143.3,117z"/>
		<path d="M124.8,111.4c1,0.6,2.3,0.2,2.8-0.8c0.6-1,0.2-2.3-0.8-2.8c-1-0.6-2.3-0.2-2.8,0.8C123.4,109.6,123.8,110.8,124.8,111.4z"
			/>
		<path d="M127.7,117.9c-0.6-1-1.8-1.3-2.8-0.8c-1,0.6-1.3,1.8-0.8,2.8c0.6,1,1.8,1.3,2.8,0.8C127.9,120.2,128.2,118.9,127.7,117.9z
			"/>
		<path d="M140.4,110.5c0.6,1,1.8,1.3,2.8,0.8c1-0.6,1.3-1.8,0.8-2.8c-0.6-1-1.8-1.3-2.8-0.8C140.2,108.3,139.9,109.5,140.4,110.5z"
			/>
		<circle cx="129.3" cy="122.4" r="2.1"/>
		<path d="M137.8,107.9c1,0.6,2.3,0.2,2.8-0.7c0.6-1,0.2-2.3-0.7-2.8c-1-0.6-2.3-0.2-2.8,0.7C136.5,106,136.8,107.3,137.8,107.9z"/>
		<polygon points="163.1,138.6 163.6,141.1 165.7,140.5 165.7,148.7 168.7,148.7 168.7,137.6 166.4,137.6 		"/>
	</g>
</g>
</svg>
