<svg xmlns="http://www.w3.org/2000/svg" viewBox="0 0 268 268" enable-background="new 0 0 268 268"><path d="M29.4 163l-4.7 1.3-1-3.8 7.1-2.3h3.2v26.6h-4.6v-21.8zM40.5 165h4.6v1.7c1.1-1.1 3.5-2.2 6.7-2.2 4.7 0 9.3 3.7 9.3 10.3v.1c0 6.6-4.5 10.3-9.3 10.3-3.3 0-5.5-.8-6.7-1.9v4.4l-4.6 3.1v-25.8zm15.9 10c0-3.9-2.6-6.4-5.7-6.4s-5.8 2.6-5.8 6.4v.1c0 3.8 2.7 6.4 5.8 6.4 3.2-.2 5.7-2.6 5.7-6.5zM76.2 184.9v-.9c-1.4.7-3.4 1.3-6.4 1.3-3.8 0-7.1-2.1-7.1-6.1v-.1c0-4.4 3.4-6.5 8.1-6.5 2.4 0 4 .3 5.5.8v-.4c0-2.7-1.7-4.3-4.9-4.3-1.3 0-2.5.2-3.6.5-.7-.5-3.4-2.9-3.4-2.9 2.2-1 4.3-1.7 7.6-1.7 5.9 0 8.7 3.1 8.7 8.4v11.8h-4.5zm.1-8.4c-1.2-.5-2.8-.8-4.6-.8-2.9 0-4.6 1.2-4.6 3.1v.1c0 1.9 1.7 2.9 3.8 2.9 3 0 5.3-1.7 5.3-4.2v-1.1zM156.1 184.9v-.9c-1.4.7-3.4 1.3-6.4 1.3-3.8 0-7.1-2.1-7.1-6.1v-.1c0-4.4 3.4-6.5 8.1-6.5 2.4 0 4 .3 5.5.8v-.4c0-2.7-1.7-4.3-4.9-4.3-1.3 0-2.5.2-3.6.5-.7-.5-3.4-2.9-3.4-2.9 2.2-1 4.3-1.7 7.6-1.7 5.9 0 8.7 3.1 8.7 8.4v11.8h-4.5zm.1-8.4c-1.2-.5-2.8-.8-4.6-.8-2.9 0-4.6 1.2-4.6 3.1v.1c0 1.9 1.7 2.9 3.8 2.9 3 0 5.3-1.7 5.3-4.2v-1.1zM84.6 165h4.6v2.1c1-1.1 3.5-2.7 7-2.5v4.8h-.3c-4 0-6.8 2.6-6.8 7.9v7.6h-4.6v-19.9zM165.2 165h4.6v2.1c1-1.1 3.5-2.7 7-2.5v4.8h-.3c-4 0-6.8 2.6-6.8 7.9v7.6h-4.6v-19.9zM101 179.4v-10.5h-2.5v-3.9h2.5v-2.3l4.6-3.1v5.5h5.3l-2.4 3.9h-3v9.8c0 1.5.7 2.4 1.8 2.4s1.9-.6 1.9-.6l1.6 3.7c-1.1.6-2.4 1-4.1 1-3.3-.1-5.7-1.6-5.7-5.9zM117.3 171.8c0-7.6 5.6-13.7 13.6-13.7 4.9 0 7.8 1.7 10.3 4.1l-3 3.4c-2.1-2-4.4-3.3-7.4-3.3-5 0-8.7 4.1-8.7 9.3v.1c0 5.2 3.7 9.4 8.7 9.4 3.2 0 5.3-1.3 7.6-3.4l3 3c-2.7 2.9-5.8 4.7-10.7 4.7-7.7-.1-13.4-6.1-13.4-13.6zM184.5 183.3v1.5h-4.6v-24.4l4.6-3.1v9.4c.9-1.1 3.5-2.2 6.7-2.2 4.7 0 9.3 3.7 9.3 10.3v.1c0 6.6-4.5 10.3-9.3 10.3-3.3.1-5.8-.5-6.7-1.9zm11.3-8.3c0-3.9-2.6-6.4-5.7-6.4s-5.8 2.6-5.8 6.4v.1c0 3.8 2.7 6.4 5.8 6.4 3.2-.2 5.7-2.6 5.7-6.5zM202.3 175c0-5.8 4.5-10.5 10.6-10.5s10.6 4.6 10.6 10.3v.1c0 5.7-4.5 10.4-10.7 10.4-6 0-10.5-4.6-10.5-10.3zm16.7 0c0-3.6-2.5-6.5-6.1-6.5-3.7 0-6 2.9-6 6.3v.1c0 3.5 2.5 6.4 6.1 6.4 3.6.1 6-2.8 6-6.3zM226.4 165h4.6v1.5c.7-.8 3.1-1.9 6.2-1.9 4.5 0 7.1 3 7.1 7.6v12.7h-4.6v-11.3c0-3.1-1.5-4.9-4.3-4.9-2.6 0-4.5 1.8-4.5 4.9v11.2l-4.6-3.1v-16.7zM134 91.9c-4.5 0-8.8 1.4-12.3 3.7-1.8-1.2-4.2-1-5.8.6-1.6 1.6-1.8 4-.6 5.8-2.3 3.5-3.7 7.7-3.7 12.3 0 12.3 10 22.3 22.3 22.3 4.5 0 8.8-1.4 12.3-3.7 1.8 1.1 4.1.9 5.7-.6 1.5-1.5 1.7-3.9.7-5.6 2.4-3.5 3.7-7.8 3.7-12.3.1-12.5-9.9-22.5-22.3-22.5zm16.4 32.8c-1.6-.6-3.5-.3-4.8 1-1.3 1.3-1.7 3.2-1 4.8-3 1.9-6.6 3.1-10.4 3.1-10.7 0-19.4-8.7-19.4-19.4 0-3.9 1.1-7.5 3.1-10.5 1.6.6 3.5.2 4.7-1.1 1.3-1.3 1.6-3.1 1.1-4.7 3-2 6.6-3.1 10.5-3.1 10.7 0 19.4 8.7 19.4 19.4-.2 3.9-1.3 7.5-3.2 10.5zM167.4 108.8c-2.3-14.3-13.6-25.6-27.9-27.9-.8-2.2-2.9-3.8-5.4-3.8-2.5 0-4.6 1.6-5.4 3.8-14.3 2.3-25.5 13.6-27.9 27.8-2.3.8-3.9 2.9-3.9 5.5 0 2.5 1.6 4.7 3.9 5.5 2.3 14.3 13.7 25.6 28 27.9.8 2.3 2.9 3.9 5.5 3.9 2.5 0 4.7-1.6 5.5-3.9 14.2-2.4 25.4-13.7 27.7-27.9 2.2-.8 3.8-2.9 3.8-5.4-.1-2.6-1.7-4.7-3.9-5.5zm-28.3 33.9c-1-1.7-2.8-2.8-4.9-2.8-2.1 0-4 1.1-5 2.8-12-2-21.5-11.5-23.6-23.5 1.7-1 2.8-2.9 2.8-5s-1.1-3.9-2.8-5c2.1-11.9 11.5-21.4 23.4-23.5 1 1.7 2.9 2.9 5 2.9s4-1.2 5-2.9c11.9 2.1 21.3 11.5 23.4 23.4-1.7 1-2.9 2.9-2.9 5 0 2.2 1.2 4 2.9 5-2 12.1-11.4 21.5-23.3 23.6zM134 102.7c-1.1 0-2.1.9-2.1 2.1 0 1.1.9 2.1 2.1 2.1 1.1 0 2.1-.9 2.1-2.1 0-1.2-.9-2.1-2.1-2.1zM134 121.6c-1.1 0-2.1.9-2.1 2.1 0 1.1.9 2.1 2.1 2.1 1.1 0 2.1-.9 2.1-2.1 0-1.2-.9-2.1-2.1-2.1z"/><circle cx="143.5" cy="114.2" r="2.1"/><path d="M126.7 114.2c0-1.1-.9-2.1-2.1-2.1-1.1 0-2.1.9-2.1 2.1 0 1.1.9 2.1 2.1 2.1 1.1 0 2.1-.9 2.1-2.1z"/><circle cx="138.9" cy="122.3" r="2.1"/><path d="M130.2 107.9c1-.6 1.3-1.9.7-2.8-.6-1-1.9-1.3-2.8-.7-1 .6-1.3 1.9-.7 2.8.6 1 1.9 1.3 2.8.7zM143.3 117c-1-.6-2.3-.2-2.8.8-.6 1-.2 2.3.8 2.8 1 .6 2.3.2 2.8-.8.6-.9.2-2.2-.8-2.8zM124.8 111.4c1 .6 2.3.2 2.8-.8.6-1 .2-2.3-.8-2.8-1-.6-2.3-.2-2.8.8-.6 1-.2 2.2.8 2.8zM127.7 117.9c-.6-1-1.8-1.3-2.8-.8-1 .6-1.3 1.8-.8 2.8.6 1 1.8 1.3 2.8.8 1-.5 1.3-1.8.8-2.8zM140.4 110.5c.6 1 1.8 1.3 2.8.8 1-.6 1.3-1.8.8-2.8-.6-1-1.8-1.3-2.8-.8-1 .6-1.3 1.8-.8 2.8z"/><circle cx="129.3" cy="122.4" r="2.1"/><path d="M137.8 107.9c1 .6 2.3.2 2.8-.7.6-1 .2-2.3-.7-2.8-1-.6-2.3-.2-2.8.7-.6.9-.3 2.2.7 2.8zM163.1 138.6l.5 2.5 2.1-.6v8.2h3v-11.1h-2.3z"/></svg>