<svg  xmlns="http://www.w3.org/2000/svg" viewBox="0 0 380 380">
<path d="M126.2,193v-36H142c11.6,0,18.8,5.4,18.8,17.2c0,13.5-7.6,18.8-19.1,18.8H126.2z M138,184.6h2.5c5.5,0,8.5-2.9,8.5-9.7
	c0-7.5-2.4-9.5-8.8-9.5H138C138,165.4,138,184.6,138,184.6z M165.7,193v-36H195v8.4h-17.6v5.1h14.9v8.4h-14.9v5.6h18.2v8.4
	L165.7,193L165.7,193z M235.4,193.1h-7.6l-0.4-3.6c-2,2.3-5.2,4.4-10.9,4.4c-9.2,0-17.4-6-17.4-18.5c0-11.5,7.2-19.4,18.9-19.4
	c8.6,0,15.6,4.5,17.1,13.4h-11.2c-0.6-2.8-3.2-4.7-6.1-4.6c-4.6,0-6.9,4.2-6.9,10.6c0,5.1,1.6,9.8,7.6,9.8c2.4,0,5.4-1.7,6-4.2h-5.2
	v-7.8h16.1L235.4,193.1L235.4,193.1z M253.4,180.5V193h-11.8v-36h17c12,0,16,3.2,16,10.2c0,4.1-1.9,7.6-6,8.8
	c3.8,1.4,6.1,2.3,6.1,9.6c0,4.7-0.1,6.3,1.2,6.3v1.1h-12c-0.5-2.1-0.7-4.2-0.6-6.3c0-4.7-0.8-6.2-6.3-6.2L253.4,180.5L253.4,180.5z
	 M253.4,172.6h4.6c3.6,0,5.6-0.9,5.6-3.4s-2-3.8-4.8-3.8h-5.5L253.4,172.6L253.4,172.6z M279.8,193v-36h29.4v8.4h-17.5v5.1h14.9v8.4
	h-14.9v5.6h18.2v8.4L279.8,193L279.8,193z M315.2,193v-36h29.4v8.4H327v5.1h14.9v8.4H327v5.6h18.2v8.4L315.2,193L315.2,193z
	 M367.2,167.5c-0.1-1-0.8-2-1.7-2.4c-0.9-0.5-2-0.7-3-0.7c-2.6,0-3.8,0.8-3.8,2c0,5.4,20.7,2.1,20.7,15.1c0,8.4-7,12.4-16.9,12.4
	c-9.5,0-15.7-5.6-16-12.1h11.3c0.2,1.2,0.9,2.2,2,2.9c1,0.6,2.2,0.9,3.4,0.9c3,0,4.9-0.9,4.9-2.6c0-5.4-20.7-1.7-20.7-15.4
	c0-7.7,6.6-11.5,15.6-11.5c10,0,14.5,5.1,15.4,11.4L367.2,167.5L367.2,167.5z M18,200.3c-0.2,2.5,0.6,5.1,2.3,7
	c1.8,1.8,4.3,2.7,6.9,2.6c5.6,0,8.6-3.8,8.6-7.5c0-7.4-7.4-7.2-12-7.2v-11.3c4.5,0.4,11.4-0.6,11.4-6.6c0-4.2-3.8-5.8-7.5-5.8
	c-4.5,0-7.8,2.3-8.4,6.9H2c0.6-15,12.7-21.4,26.2-21.4c15.4,0,24.9,7.1,24.9,18.1c0,5.9-2.3,10.2-7.5,12.8c5.7,2,9.5,7.5,9.3,13.5
	c0,15.1-11.3,22.7-28.7,22.7c-15.1,0-26.5-7.8-26.2-23.9L18,200.3L18,200.3z M62.5,175.4c0-12.5,12.6-18.3,26.6-18.3
	c14.7,0,24.9,7.5,24.9,17.9c0,6.3-2.5,11-8.6,13.4c6.9,2.7,10.9,7.5,10.9,15.2c0,13.1-11.6,20.6-27.9,20.6
	c-15.2,0-28.1-6.3-28.1-20.6c0-7.7,4-11.6,10.5-14.7C65.9,186.1,62.5,183.4,62.5,175.4z M97.2,202.7c0-5.2-3.6-8.4-8.7-8.4
	c-5.3,0-9,2.8-9,8.5c0,6.3,5.9,8.6,11.3,7.6C95.2,209.8,97.2,206.9,97.2,202.7z M96.4,177c0-4.4-3.5-7-7.9-7c-4.7,0-8.4,2.4-8.3,7.2
	s3.8,6.7,8.1,6.7S96.4,181.6,96.4,177z M136.5,204.9c1.1,1.3,1.6,3,1.5,4.7c0.1,1.8-0.4,3.6-1.5,5c-0.9,1.1-2.4,1.8-3.8,1.7
	c-0.9,0-1.8-0.2-2.5-0.7c-0.4-0.3-0.8-0.7-1.1-1.2v6.5h-3.2v-17.3h3.1v1.9c0.3-0.5,0.7-0.9,1.1-1.3c0.7-0.6,1.7-0.9,2.6-0.8
	C134.2,203.3,135.6,203.9,136.5,204.9L136.5,204.9z M134,207.3c-0.5-0.7-1.3-1.2-2.1-1.1c-1.1-0.1-2.1,0.6-2.5,1.7
	c-0.3,0.7-0.4,1.5-0.4,2.3c-0.1,1.1,0.3,2.2,1.2,3c0.5,0.3,1.1,0.5,1.6,0.5c0.8,0,1.6-0.4,2.1-1C134.9,210.9,134.9,208.9,134,207.3z
	 M148.6,203.8c0.9,0.4,1.6,1,2.1,1.8s0.9,1.6,1,2.6c0.1,0.8,0.1,1.6,0.1,2.5h-9.1c-0.1,1,0.4,2,1.3,2.6c0.5,0.3,1.2,0.5,1.8,0.5
	c1,0.1,2-0.5,2.5-1.4h3.3c-0.2,0.9-0.6,1.6-1.2,2.2c-1.2,1.3-2.9,1.9-4.7,1.8c-1.6,0-3.2-0.5-4.4-1.5c-1.3-1-1.9-2.7-1.9-5
	c-0.1-1.8,0.5-3.6,1.7-5c1.2-1.2,2.8-1.8,4.4-1.7C146.7,203.2,147.7,203.4,148.6,203.8L148.6,203.8z M143.7,206.6
	c-0.5,0.5-0.8,1.2-0.9,1.9h5.6c0-0.8-0.3-1.5-0.9-2c-0.5-0.5-1.2-0.7-1.9-0.7C144.9,205.9,144.2,206.1,143.7,206.6L143.7,206.6z
	 M164.2,214.5c-2.7,2.6-6.9,2.6-9.6,0c-2.1-2.8-2.1-6.6,0-9.4c2.6-2.6,6.9-2.6,9.6,0C166.3,207.9,166.3,211.7,164.2,214.5
	L164.2,214.5z M161.6,212.7c1-1.8,1-4,0-5.8c-1-1.2-2.9-1.4-4.1-0.3c-0.1,0.1-0.2,0.2-0.3,0.3c-1,1.8-1,4,0,5.8
	c1,1.2,2.9,1.4,4.1,0.3C161.3,212.9,161.5,212.8,161.6,212.7L161.6,212.7z M178.4,204.9c1.1,1.3,1.6,3,1.5,4.7
	c0.1,1.8-0.4,3.6-1.5,5c-0.9,1.1-2.4,1.8-3.8,1.7c-0.9,0-1.8-0.2-2.5-0.7c-0.4-0.3-0.8-0.7-1.1-1.2v6.5h-3.2v-17.3h3.1v1.9
	c0.3-0.5,0.7-0.9,1.1-1.3c0.7-0.6,1.7-0.9,2.6-0.8C176.1,203.3,177.5,203.9,178.4,204.9L178.4,204.9z M175.9,207.3
	c-0.5-0.7-1.3-1.2-2.1-1.1c-1.1-0.1-2.1,0.6-2.5,1.7c-0.3,0.7-0.4,1.5-0.4,2.3c-0.1,1.1,0.3,2.2,1.2,3c0.5,0.3,1.1,0.5,1.6,0.5
	c0.8,0,1.6-0.4,2.1-1.1C176.8,210.9,176.8,208.9,175.9,207.3z M185.5,216h-3.3v-16.8h3.3V216z M196.8,203.8c0.9,0.4,1.6,1,2.1,1.8
	s0.9,1.6,1,2.6c0.1,0.8,0.1,1.6,0.1,2.5h-9.1c-0.1,1,0.4,2,1.3,2.6c0.5,0.3,1.2,0.5,1.8,0.5c1,0.1,2-0.5,2.5-1.4h3.3
	c-0.2,0.9-0.6,1.6-1.2,2.2c-1.2,1.3-2.9,1.9-4.7,1.8c-1.6,0-3.2-0.5-4.4-1.5c-1.3-1-1.9-2.7-1.9-5c-0.1-1.8,0.5-3.6,1.7-5
	c1.2-1.2,2.8-1.8,4.4-1.7C194.8,203.2,195.8,203.4,196.8,203.8L196.8,203.8z M191.9,206.6c-0.5,0.5-0.8,1.2-0.9,1.9h5.6
	c0-0.8-0.3-1.5-0.9-2c-0.5-0.5-1.2-0.7-1.9-0.7C193.1,205.9,192.4,206.1,191.9,206.6L191.9,206.6z M201.8,212.6h3.5v3.4h-3.5V212.6z
	 M225.3,204.9c1.1,1.3,1.6,3,1.5,4.7c0.1,1.8-0.4,3.6-1.5,5c-0.9,1.1-2.4,1.8-3.8,1.7c-0.9,0-1.8-0.2-2.5-0.7
	c-0.4-0.3-0.8-0.7-1.1-1.2v6.5h-3.2v-17.3h3.1v1.9c0.3-0.5,0.7-0.9,1.1-1.3c0.7-0.6,1.7-0.9,2.6-0.8
	C223,203.3,224.4,203.9,225.3,204.9L225.3,204.9z M222.8,207.3c-0.4-0.7-1.3-1.2-2.1-1.1c-1.1-0.1-2.1,0.6-2.5,1.7
	c-0.3,0.7-0.4,1.5-0.4,2.3c-0.1,1.1,0.3,2.2,1.2,3c0.5,0.3,1.1,0.5,1.6,0.5c0.8,0,1.6-0.4,2.1-1.1
	C223.7,210.9,223.7,208.9,222.8,207.3L222.8,207.3z M239.5,214.5c-2.7,2.6-6.9,2.6-9.6,0c-2.1-2.8-2.1-6.6,0-9.4
	c2.6-2.6,6.9-2.6,9.6,0C241.6,207.9,241.6,211.7,239.5,214.5z M236.9,212.7c1-1.8,1-4,0-5.8c-1-1.2-2.9-1.4-4.1-0.3
	c-0.1,0.1-0.2,0.2-0.3,0.3c-1,1.8-1,4,0,5.8c1,1.2,2.8,1.4,4.1,0.3C236.7,212.9,236.8,212.8,236.9,212.7z M248.9,203.6h3.3l1.9,9
	l1.9-9h3.4l-3.6,12.4h-3.4l-2-9.1l-2,9.1H245l-3.4-12.4h3.5l1.9,8.9L248.9,203.6z M269.1,203.8c0.9,0.4,1.6,1,2.1,1.8s0.9,1.6,1,2.6
	c0.1,0.8,0.1,1.6,0.1,2.5h-9.1c-0.1,1,0.4,2,1.3,2.6c0.5,0.3,1.2,0.5,1.8,0.5c1,0.1,2-0.5,2.5-1.4h3.3c-0.2,0.9-0.6,1.6-1.2,2.2
	c-1.2,1.3-2.9,1.9-4.7,1.8c-1.6,0-3.2-0.5-4.4-1.5c-1.3-1-1.9-2.7-1.9-5c-0.1-1.8,0.5-3.6,1.7-5c1.2-1.2,2.8-1.8,4.5-1.7
	C267.1,203.2,268.1,203.4,269.1,203.8z M264.2,206.6c-0.5,0.5-0.8,1.2-0.9,1.9h5.6c0-0.8-0.3-1.5-0.9-2c-0.5-0.5-1.2-0.7-1.9-0.7
	C265.4,205.9,264.7,206.1,264.2,206.6z M281.1,203.3h0.3v3.3h-0.9c-1.1-0.1-2.1,0.4-2.6,1.3c-0.3,0.7-0.4,1.5-0.4,2.2v6h-3.3v-12.5
	h3.1v2.2c0.3-0.6,0.8-1.2,1.3-1.7c0.7-0.5,1.5-0.8,2.4-0.8H281.1L281.1,203.3z M281.8,212.6h3.5v3.4h-3.5V212.6z M302.3,208
	c-0.1-0.5-0.2-0.9-0.5-1.3c-0.4-0.5-1.1-0.8-1.7-0.8c-1,0-2,0.6-2.3,1.6c-0.2,0.7-0.3,1.5-0.3,2.3c0,0.7,0.1,1.5,0.3,2.2
	c0.3,1,1.2,1.6,2.2,1.6c0.6,0.1,1.2-0.2,1.6-0.6c0.3-0.5,0.5-1,0.6-1.6h3.3c-0.1,1-0.5,2-1.1,2.8c-1,1.4-2.8,2.2-4.5,2.1
	c-1.7,0.1-3.3-0.5-4.4-1.8c-1-1.3-1.5-3-1.4-4.6c-0.1-1.8,0.4-3.6,1.6-5c1.1-1.2,2.7-1.9,4.3-1.8c1.4-0.1,2.7,0.3,3.8,1.1
	c1.1,0.9,1.8,2.3,1.8,3.7L302.3,208L302.3,208z M316.7,203.6c0.6,0.3,1.1,0.7,1.5,1.2c0.3,0.4,0.5,0.9,0.6,1.4
	c0.1,0.8,0.1,1.6,0.1,2.4v7.3h-3.3v-7.6c0-0.6-0.1-1.1-0.3-1.6c-0.3-0.6-1-0.9-1.7-0.9s-1.5,0.3-1.9,0.9c-0.5,0.7-0.7,1.6-0.7,2.5
	v6.8h-3.3v-16.8h3.3v5.9c0.4-0.6,1-1.2,1.6-1.5s1.3-0.4,2-0.4C315.3,203.2,316,203.4,316.7,203.6z M326.9,208.5
	c0.4,0,0.9-0.1,1.3-0.3c0.4-0.1,0.7-0.5,0.7-0.9s-0.2-0.8-0.5-1.1c-0.5-0.2-1-0.3-1.6-0.3c-0.6-0.1-1.2,0.1-1.7,0.6
	c-0.3,0.3-0.4,0.7-0.5,1.1h-3.1c0-1,0.3-1.9,0.9-2.7c0.9-1.1,2.4-1.6,4.5-1.6c1.3,0,2.5,0.3,3.6,0.8c1.1,0.6,1.7,1.8,1.6,3.1v7.2
	c0,0.3,0.1,0.6,0.2,0.9c0.1,0.2,0.3,0.3,0.5,0.4v0.5h-3.5c-0.1-0.2-0.2-0.5-0.2-0.7s-0.1-0.5-0.1-0.8c-0.5,0.5-1,0.9-1.6,1.2
	c-0.7,0.4-1.6,0.6-2.4,0.6c-1,0-2-0.3-2.8-1s-1.2-1.7-1.1-2.7c-0.1-1.4,0.6-2.6,1.8-3.3c0.9-0.4,1.9-0.7,2.9-0.8L326.9,208.5z
	 M328.9,210c-0.2,0.1-0.4,0.2-0.6,0.3c-0.3,0.1-0.6,0.2-0.9,0.2l-0.7,0.1c-0.5,0.1-1,0.2-1.5,0.4c-0.5,0.3-0.8,0.8-0.8,1.4
	c0,0.5,0.1,0.9,0.5,1.2c0.3,0.3,0.7,0.4,1.1,0.4c0.7,0,1.4-0.2,2-0.6c0.7-0.6,1-1.4,0.9-2.2V210L328.9,210z M344.9,204.3
	c0.9,0.9,1.3,2.1,1.2,3.4v8.4h-3.3v-7.6c0-0.5-0.1-1-0.3-1.5c-0.3-0.7-1.1-1.1-1.8-1c-1-0.1-1.9,0.5-2.3,1.4
	c-0.2,0.6-0.3,1.3-0.3,1.9v6.7h-3.3v-12.4h3.1v1.8c0.3-0.5,0.7-1,1.2-1.4c0.7-0.5,1.6-0.8,2.5-0.8
	C342.8,203.3,344,203.6,344.9,204.3L344.9,204.3z M355.2,203.6c0.8,0.4,1.5,1,1.9,1.8v-1.8h3.2v11.8c0.1,1.3-0.2,2.5-0.8,3.6
	c-0.9,1.4-2.7,2.1-5.4,2.1c-1.4,0.1-2.7-0.3-3.9-0.9c-1-0.6-1.6-1.6-1.7-2.8h3.5c0.1,0.3,0.2,0.6,0.5,0.8c0.5,0.3,1.1,0.5,1.8,0.4
	c1,0.1,1.9-0.3,2.4-1.2c0.3-0.8,0.4-1.7,0.4-2.5v-0.8c-0.3,0.5-0.6,0.9-1,1.2c-0.7,0.5-1.6,0.8-2.5,0.7c-1.5,0.1-2.9-0.6-3.8-1.7
	c-1-1.3-1.5-2.9-1.4-4.6c-0.1-1.7,0.4-3.3,1.4-4.7c0.9-1.3,2.4-2,3.9-1.9C354.1,203.3,354.7,203.4,355.2,203.6L355.2,203.6z
	 M356.3,212.5c0.6-0.8,0.9-1.8,0.8-2.8c0.1-1-0.2-1.9-0.8-2.7c-0.5-0.6-1.2-1-2-0.9c-1.1-0.1-2,0.6-2.4,1.6
	c-0.2,0.7-0.4,1.4-0.3,2.1c0,0.7,0.1,1.3,0.4,1.9c0.4,1,1.3,1.6,2.4,1.6C355.1,213.4,355.8,213,356.3,212.5L356.3,212.5z
	 M371.4,203.8c0.9,0.4,1.6,1,2.1,1.8s0.9,1.6,1,2.6c0.1,0.8,0.1,1.6,0.1,2.5h-9.1c-0.1,1,0.4,2,1.3,2.6c0.5,0.3,1.2,0.5,1.8,0.5
	c1,0.1,2-0.5,2.5-1.4h3.3c-0.2,0.9-0.6,1.6-1.2,2.2c-1.2,1.3-2.9,1.9-4.7,1.8c-1.6,0-3.2-0.5-4.4-1.5c-1.3-1-1.9-2.7-1.9-5
	c-0.1-1.8,0.5-3.6,1.7-5c1.2-1.2,2.8-1.8,4.5-1.7C369.5,203.2,370.5,203.4,371.4,203.8L371.4,203.8z M366.5,206.6
	c-0.5,0.5-0.8,1.2-0.9,1.9h5.6c0-0.8-0.3-1.5-0.9-2c-0.5-0.5-1.2-0.7-1.9-0.7C367.8,205.9,367.1,206.1,366.5,206.6z M376.4,212.6
	h3.5v3.4h-3.5V212.6z"/>
</svg>
