<svg xmlns="http://www.w3.org/2000/svg" width="537.2" height="47.3" viewBox="0 0 537.2 47.3"><style type="text/css">.st0{fill:#010101;stroke:#010101;stroke-miterlimit:10;}</style><path class="st0" d="M41 46l-4.9-11h-26.8l-4.8 11h-3.7l20.1-44.8h3.8l20 44.8h-3.7zm-6.2-14.2l-12-27.3-12 27.3h24zM95.6 23.7c0 11.7-7.5 23.1-22.6 23.1s-22.6-11.4-22.6-23.3c0-12 7.5-23 22.6-23s22.7 11.1 22.6 23.2zm-41.8-.1c.1 10.1 6.5 20 19.2 20 12.8 0 19.3-9.9 19.3-20 0-10.4-6.4-19.9-19.3-19.9-12.8 0-19.2 9.3-19.2 19.9zM142.8 1.2v27.8c0 23.4-34.3 23.5-34.3 0v-27.8h3.4v27.8c0 19.3 27.5 19.2 27.5 0v-27.8h3.4zM158 46v-44.8h3.4v44.8h-3.4zM180.2 1.2v41.5h25.2v3.3h-28.7v-44.8h3.5zM254.5 46l-4.9-11h-26.8l-4.8 11h-3.7l20.1-44.8h3.8l20.1 44.8h-3.8zm-6.2-14.2l-12-27.3-12 27.3h24zM268.6 46v-44.8h3.4v44.8h-3.4zM288.8 1.2l30.1 37.1v-37.1h3.4v44.8h-1.3l-30.2-37v37h-3.5v-44.8h1.5zM366.6 9.8c-3.3-5.2-8.5-6-13.6-6.1-5.2 0-13.6 1.9-13.6 9.1 0 5.7 6.1 7 13.7 8.4 8.6 1.7 17.6 3.2 17.6 12.9-.1 10.1-10.2 12.5-17.7 12.5-7 0-14.9-2.9-18.4-9.7l3.1-1.5c2.8 5.4 9.8 8.1 15.3 8.1s14.3-1.5 14.3-9.5c.1-6.7-7.4-8.2-14.7-9.6-8.2-1.5-16.6-3.2-16.6-11.4-.2-9.5 9.7-12.4 17-12.4 6.4 0 12 1 16.4 7.6l-2.8 1.6zM383.5 46v-44.8h3.4v44.8h-3.4zM437.3 9.5c-3.9-3.8-9.3-5.8-14.4-5.8-13.1 0-19.8 9.6-19.8 20 0 10.6 6.7 19.6 19.8 19.6 4.8 0 9.8-1.7 13.6-5.2v-12.5h-15.6v-3h18.9v16.8c-4.7 4.7-10.2 7.2-16.9 7.2-15.2 0-23.1-10.6-23.1-22.8-.1-14 9.5-23.2 23.1-23.2 5.9 0 11.8 2.2 16.4 6.7l-2 2.2zM486.5 46v-20.4h-28.5v20.4h-3.5v-44.8h3.5v21.3h28.5v-21.3h3.5v44.8h-3.5zM517.1 4.3h-16.2v-3h35.8v3.1h-16.2v41.6h-3.5v-41.7zM80.6 30.557l2.546-2.546 15.415 15.415-2.546 2.546z"/></svg>