<?xml version="1.0" encoding="utf-8"?>
<!-- Generator: Adobe Illustrator 19.2.0, SVG Export Plug-In . SVG Version: 6.00 Build 0)  -->
<!DOCTYPE svg PUBLIC "-//W3C//DTD SVG 1.1//EN" "http://www.w3.org/Graphics/SVG/1.1/DTD/svg11.dtd">
<svg version="1.1" id="Layer_1" xmlns="http://www.w3.org/2000/svg" xmlns:xlink="http://www.w3.org/1999/xlink" x="0px" y="0px"
	 width="540px" height="540px" viewBox="0 0 540 540" style="enable-background:new 0 0 540 540;" xml:space="preserve">
<style type="text/css">
	.st0{fill:#010101;stroke:#010101;stroke-miterlimit:10;}
</style>
<path class="st0" d="M42.4,292.4l-4.9-11H10.7l-4.8,11H2.2l20.1-44.8h3.8l20,44.8C46.1,292.4,42.4,292.4,42.4,292.4z M36.2,278.1
	l-12-27.3l-12,27.3H36.2z M97,270c0,11.7-7.5,23.1-22.6,23.1s-22.6-11.4-22.6-23.3c0-12,7.5-23,22.6-23S97.1,258,97,270z M55.2,270
	c0.1,10.1,6.5,20,19.2,20c12.8,0,19.3-9.9,19.3-20c0-10.4-6.4-19.9-19.3-19.9C61.6,250.1,55.2,259.4,55.2,270z M144.2,247.6v27.8
	c0,23.4-34.3,23.5-34.3,0v-27.8h3.4v27.8c0,19.3,27.5,19.2,27.5,0v-27.8H144.2L144.2,247.6z M159.4,292.4v-44.8h3.4v44.8H159.4z
	 M181.6,247.6V289h25.2v3.3h-28.7v-44.8C178.1,247.6,181.6,247.6,181.6,247.6z M255.9,292.4l-4.9-11h-26.8l-4.8,11h-3.7l20.1-44.8
	h3.8l20.1,44.8H255.9L255.9,292.4z M249.7,278.1l-12-27.3l-12,27.3H249.7z M270,292.4v-44.8h3.4v44.8H270z M290.2,247.6l30.1,37.1
	v-37.1h3.4v44.8h-1.3l-30.2-37v37h-3.5v-44.8C288.7,247.6,290.2,247.6,290.2,247.6z M368,256.1c-3.3-5.2-8.5-6-13.6-6.1
	c-5.2,0-13.6,1.9-13.6,9.1c0,5.7,6.1,7,13.7,8.4c8.6,1.7,17.6,3.2,17.6,12.9c-0.1,10.1-10.2,12.5-17.7,12.5c-7,0-14.9-2.9-18.4-9.7
	l3.1-1.5c2.8,5.4,9.8,8.1,15.3,8.1s14.3-1.5,14.3-9.5c0.1-6.7-7.4-8.2-14.7-9.6c-8.2-1.5-16.6-3.2-16.6-11.4
	c-0.2-9.5,9.7-12.4,17-12.4c6.4,0,12,1,16.4,7.6L368,256.1L368,256.1z M384.9,292.4v-44.8h3.4v44.8H384.9z M438.7,255.9
	c-3.9-3.8-9.3-5.8-14.4-5.8c-13.1,0-19.8,9.6-19.8,20c0,10.6,6.7,19.6,19.8,19.6c4.8,0,9.8-1.7,13.6-5.2V272h-15.6v-3h18.9v16.8
	c-4.7,4.7-10.2,7.2-16.9,7.2c-15.2,0-23.1-10.6-23.1-22.8c-0.1-14,9.5-23.2,23.1-23.2c5.9,0,11.8,2.2,16.4,6.7
	C440.7,253.7,438.7,255.9,438.7,255.9z M487.9,292.4V272h-28.5v20.4h-3.5v-44.8h3.5v21.3h28.5v-21.3h3.5v44.8H487.9z M518.5,250.6
	h-16.2v-3h35.8v3.1h-16.2v41.6h-3.5v-41.7H518.5z M82,276.9l2.5-2.5l15.4,15.4l-2.5,2.5L82,276.9z"/>
</svg>
