<svg xmlns="http://www.w3.org/2000/svg" viewBox="0 0 268 268" enable-background="new 0 0 268 268"><g fill="#1D1D1B"><path d="M37.5 126.6h-8.1v4.7h7.7v4.7h-7.7v5.4h8.1v4.7h-13.8v-24.3h13.8v4.8zM38.3 146.2l3.9-24.3h4.7l6.1 14.6 6.1-14.6h4.7l3.9 24.3h-5.7l-2-14.6-6.1 14.5h-2l-6.1-14.5-1.9 14.5h-5.6zM82.9 126.6h-8.1v4.7h7.7v4.7h-7.7v5.4h8.1v4.7h-13.8v-24.3h13.8v4.8zM93.7 121.8c3.1 0 5 1 6.2 2.1 1 1 2.1 2.7 2.1 5.4 0 1.5-.3 3.4-1.9 5-.8.8-2 1.5-3.4 1.9l7.5 10h-6.9l-6.6-9.6v9.6h-5.6v-24.3h8.6zm-2.9 11.1h1.3c1 0 2.4-.1 3.4-1.1.4-.4.9-1.2.9-2.4 0-1.4-.7-2.1-1.1-2.5-.9-.7-2.4-.8-3.1-.8h-1.3v6.8zM115.8 132.9h12.1v.3c0 3-1.1 7.4-3.8 10.3-2.7 2.8-5.8 3.3-8.7 3.3-2.9 0-6.1-.5-8.9-3.4-1.4-1.5-3.6-4.4-3.6-9.3 0-4 1.5-7.1 3.5-9.2 3-3.1 6.7-3.5 9.6-3.5 2 0 4.6.3 6.8 1.8 1.6 1.1 3.1 2.8 3.9 4.3l-5.1 2.7c-.5-.9-1.2-1.9-2.2-2.6-1.1-.8-2.3-1.2-3.7-1.2-2.2 0-3.9.7-5 2-1.3 1.4-2.1 3.5-2.1 5.8 0 2.8 1 4.6 2 5.6 1.4 1.5 3.1 1.9 4.9 1.9 2.4 0 3.7-.8 4.2-1.3.2-.1 1.3-1.1 1.8-2.9h-5.9v-4.6zM143.1 126.6h-8.1v4.7h7.7v4.7h-7.7v5.4h8.1v4.7h-13.8v-24.3h13.8v4.8zM158 141.6h-9.2l-2.3 4.6h-6.1l12.8-24.3h5.2l6.5 24.3h-5.8l-1.1-4.6zm-1-4.3l-2-8.6-4.1 8.6h6.1zM175.2 121.8c2.5 0 6.6.4 9.3 3.1 1.6 1.6 2.9 4.3 2.9 8.1 0 5.6-2.6 8.6-3.8 9.8-2.8 2.7-6.6 3.4-11.1 3.4h-7.5l3-24.3h7.2zm-3.9 19.6h1.7c1.6 0 4.2-.1 6.2-1.9 1.4-1.2 2.4-3.5 2.4-6.4 0-2.2-.7-3.9-1.8-4.9-1.2-1.1-3.2-1.7-5.1-1.7h-1.7l-1.7 14.9zM201.6 141.6h-9.2l-2.3 4.6h-6.1l12.8-24.3h5.2l6.5 24.3h-5.8l-1.1-4.6zm-1-4.3l-2-8.6-4.1 8.6h6.1zM219.9 121.8c1.7 0 4.3.1 6.3 2 1.1 1.1 2 2.7 2 5.2 0 2.7-.9 5-2.4 6.4-1.1 1-3.2 2.2-7.2 2.2h-3.2l-1.1 8.5h-5.6l3-24.3h8.2zm-4 11.2h2c1.2 0 2.6-.1 3.5-1.1.8-.8.9-1.9.9-2.5 0-.7-.1-1.5-.8-2.1-.9-.8-2.3-.9-3.2-.9h-1.7l-.7 6.6zM238.4 126.6l-2.4 19.6h-5.6l2.4-19.6h-5.3l.6-4.7h16.2l-.6 4.7h-5.3z"/></g></svg>