<?xml version="1.0" encoding="utf-8"?>
<!-- Generator: Adobe Illustrator 18.1.0, SVG Export Plug-In . SVG Version: 6.00 Build 0)  -->
<!DOCTYPE svg PUBLIC "-//W3C//DTD SVG 1.1//EN" "http://www.w3.org/Graphics/SVG/1.1/DTD/svg11.dtd">
<svg version="1.1" id="Layer_1" xmlns="http://www.w3.org/2000/svg" xmlns:xlink="http://www.w3.org/1999/xlink" x="0px" y="0px"
	 viewBox="0 0 268 268" enable-background="new 0 0 268 268" xml:space="preserve">
<g>
	<path fill="#1D1D1B" d="M117.5,183.7c-0.4-3.2-2.5-5.4-5.3-5.6c-2.9-0.2-5.2,1.5-6,4.6c-0.5,2-0.5,4,0.2,6c0.8,2.5,2.8,4,5.3,4
		c2.6,0,4.5-1.4,5.4-3.9c0.3-1,0.4-2.1,0.6-3.2c0,0-0.1,0-0.1,0C117.6,184.9,117.6,184.3,117.5,183.7z"/>
	<path d="M24,23.7v220.1h220.1V23.7H24z M182,94c3.4,0.1,6.1,2.9,6.1,6.3c0,3.4-2.8,6.2-6.2,6.1c-3.4-0.1-6.1-2.9-6.1-6.3
		C175.8,96.7,178.6,94,182,94z M167.8,85.8c3.4,0,6.2,2.7,6.2,6.1c0,3.4-2.7,6.2-6.2,6.2c-3.5,0-6.2-2.7-6.2-6.1
		C161.7,88.6,164.4,85.8,167.8,85.8z M152.2,90.8c3.4,0,6.2,2.8,6.2,6.2c0,3.4-2.8,6.2-6.2,6.2c-3.4,0-6.2-2.8-6.2-6.2
		C146,93.5,148.8,90.7,152.2,90.8z M122.9,85c0-1.8,0-3.7,0-5.8c1.4,0.4,2.7,0.8,3.9,1.2c1,0.3,2,0.7,3,0.9c0.4,0.1,1,0.1,1.2-0.1
		c0.2-0.3,0.3-0.9,0.2-1.3c-0.8-2.8-1.7-5.5-2.6-8.3c-0.1-0.2-0.1-0.4-0.2-0.7c3.7,0,7.4,0,11.2,0c-1,3-1.9,5.9-2.8,8.8
		c-0.1,0.4-0.2,1.2,0.1,1.4c0.2,0.3,1,0.3,1.4,0.1c2.2-0.6,4.4-1.3,6.7-2.1c0,3.9,0,7.6,0,11.5c-2.6-1.4-5.1-2.7-8.1-4.2
		c-0.1,0.8-0.3,1.5-0.1,2c1.3,4.1,2.7,8.2,4,12.3c1.4,4.3-0.9,8.4-5.2,9.5c-5.3,1.4-10.3-3.5-8.8-8.8c1.2-4.4,2.8-8.6,4.2-13
		c0.2-0.5,0-1.2-0.1-2c-2.9,1.5-5.4,2.8-8.1,4.3C122.9,88.7,122.9,86.9,122.9,85z M115.9,90.8c3.4,0,6.2,2.8,6.2,6.2
		c0,3.4-2.9,6.2-6.2,6.2c-3.4,0-6.2-2.8-6.2-6.2C109.7,93.5,112.5,90.8,115.9,90.8z M100.2,85.8c3.4,0,6.2,2.7,6.2,6.2
		c0,3.4-2.7,6.2-6.2,6.2c-3.4,0-6.2-2.8-6.2-6.2C94,88.6,96.8,85.9,100.2,85.8z M96.4,138.9c-2.2-1.1-3.9-2.6-6.5-2.6
		c2,4,4.1,7.6,8.3,9.4c4.6,1.9,9.2-1.6,8.6-6.3c-0.3-1.8-1.4-3.4-2.9-3.7c-1.3-0.3-2.6,0.4-3.7,2.2c-0.1,0.2-0.3,0.4-0.5,0.8
		c-1-2.3-1.7-4.4-0.4-6.5c1.5-2.4,3.9-2.2,6.8-1.5c-5.8-5.9-6.6-11.9-1.5-18.3c2.7,2.2,5,4.5,5.8,7.9c0.8,3.4-0.4,6.5-1.5,9.9
		c2.3-1.6,4.5-2.8,6.9-0.8c1.6,1.3,2,4,0.9,6.8c-0.4-0.5-0.8-1-1.2-1.4c-1.7-1.5-3.7-1-4.7,1c-1.1,2.3-0.4,5,1.8,6.8
		c2.6,2.2,5.8,2.8,9.1,2.7c0.8,0,1.5-0.1,2.3-0.3c5-1,7.5-4,7.9-9.2c0.1-0.9,0.1-1.8,0.2-2.9c-4.4,0.3-6.9,3.3-9.6,6.4
		c-0.4-4.8-0.8-9.3-1.2-13.9c1.7,1.1,3.2,2.3,5,3.1c1.7,0.7,3.7,1,5.6,1.2c-1.4-4-4-6.9-6.6-10.2c6,0,11.7,0,17.7,0
		c-1.3,1.7-2.6,3.2-3.7,4.9c-1.1,1.6-2.1,3.3-3.3,5.2c4.5,0.1,7.9-1.5,11-4.6c-0.4,5-0.8,9.5-1.2,14.3c-2.7-3.1-5.2-6.1-9.5-6.4
		c-0.3,8.9,3.8,12.6,12,12.4c2.3-0.1,4.5-0.7,6.5-2c2.1-1.4,3.4-3.3,3.1-5.9c-0.2-1.5-0.7-2.8-2.2-3.3c-1.5-0.6-2.6,0.3-3.5,1.4
		c-0.1,0.2-0.3,0.3-0.5,0.5c-1.2-2-0.8-5.2,0.8-6.6c1.7-1.6,4-1.3,7.2,1.1c-3.2-7.3-2.5-13.4,4.1-18c4,5,5.5,10.9-1.4,18.3
		c2.6-0.7,5-0.9,6.6,1.5c1.4,2.1,0.7,4.3-0.3,6.6c-0.5-0.6-0.8-1.2-1.2-1.6c-1.7-2-4-1.8-5.3,0.5c-1.1,1.9-0.9,4.6,0.4,6.4
		c1.5,2,4.2,2.9,6.7,2.2c2.3-0.7,4.1-2.1,5.5-4c1.3-1.7,2.4-3.6,3.5-5.5c-2.5-0.2-4.3,1.2-6.4,2.5c1.4-4.5,2.6-8.8,3.9-13.1
		c1.2,2.4,2.3,4.8,3.4,7.1c0.2-0.1,0.3-0.1,0.5-0.2c1.2-2.8,0.4-5.7,0-8.7c2.8,1,5.5,2,8.3,2.9c-0.3,0.4-0.4,0.7-0.6,1
		c-5.2,7.4-8.2,15.8-10.6,24.4c-0.3,1-0.6,2-0.8,3c-0.1,1.1-0.7,1.2-1.7,1.1c-14.9-2.1-29.8-2.9-44.9-2.6
		c-11.8,0.2-23.6,0.9-35.4,2.6c-1.1,0.2-1.6,0-1.9-1.2c-1.9-7.9-4.4-15.6-8.5-22.7c-1-1.8-2.2-3.6-3.4-5.6c2.7-1,5.4-1.9,8.3-3
		c-0.4,3-1.1,5.9,0.1,8.9c1.9-2.1,2.8-4.6,3.8-7.1C93.7,130.1,95,134.4,96.4,138.9z M86.2,94c3.4,0,6.1,2.8,6.1,6.2
		c0,3.4-2.8,6.2-6.2,6.2c-3.4,0-6.2-2.8-6.2-6.2C80,96.8,82.8,94,86.2,94z M75.8,115.8c0-3.4,2.8-6.2,6.2-6.2c3.4,0,6.2,2.7,6.2,6.2
		c0,3.4-2.7,6.1-6.2,6.1C78.6,122,75.8,119.2,75.8,115.8z M98.8,196.1c-1.2,0-2.4,0-3.7,0c0-0.6-0.1-1.3-0.1-2.1
		c-2.2,2.2-4.7,2.8-7.5,2.4c-4.4-0.7-7.5-3.9-8.2-8.5c-0.4-2.6-0.2-5.1,0.8-7.6c1.7-3.7,4.6-5.7,8.6-6c4.4-0.3,7.8,1.5,9.7,4.9
		c-1.3,0.7-2.5,1.4-3.6,2c-0.9-0.9-1.6-1.8-2.6-2.4c-2.7-1.6-6.2-0.6-7.6,2.2c-1.4,2.9-1.4,5.9,0,8.7c1.4,2.7,4.7,3.7,7.4,2.4
		c1.6-0.8,2.4-2.1,2.4-4.3c-1.8,0-3.6,0-5.4,0c0-1.2,0-2.3,0-3.5c3.2,0,6.4,0,9.7,0C98.8,188.2,98.8,192.1,98.8,196.1z M116.8,195.3
		c-3.7,1.9-7.4,1.7-10.9-0.6c-3.1-2.1-4.3-5.2-4.5-8.8c-0.3-5.2,2.5-9.7,7-11.2c7.3-2.4,13.9,2.6,13.8,11.8
		C122.1,189.6,120.7,193.3,116.8,195.3z M129.8,196.2c-0.3,0-0.8-0.3-0.8-0.6c-2-7-4-13.9-6-21.1c1.5,0,2.9-0.1,4.3,0
		c0.3,0,0.8,0.6,0.9,1c1.3,4.7,2.5,9.4,3.7,14.1c0.1,0.2,0.1,0.5,0.5,0.8c1.3-5.2,2.7-10.5,4-15.8c1.6,0,3.1,0,4.9,0
		c-2.1,7.3-4.1,14.4-6.1,21.6C133.3,196.2,131.5,196.2,129.8,196.2z M143.8,196.5c-1.6,0-2.8-1.3-2.8-2.9c0-1.6,1.3-2.9,2.8-2.8
		c1.5,0,2.8,1.4,2.7,2.9C146.5,195.2,145.3,196.5,143.8,196.5z M166.6,176.8c0,3.7,0,7.4,0,11.1c0,4.9-2.8,8.1-7.6,8.4
		c-1.9,0.1-3.9-0.2-5.7-0.9c-2.6-1-4.3-3.1-4.4-6c-0.2-4.6-0.1-9.3-0.1-13.9c0-0.3,0-0.6,0.1-1c1.4,0,2.8,0,4.4,0c0,0.5,0,1,0,1.5
		c0,4,0,7.9,0,11.9c0,3.6,2.7,5.5,6.1,4.4c1.8-0.6,2.8-2.1,2.8-4.3c0-4,0-7.9,0-11.9c0-0.5,0-1,0-1.6c1.5,0,2.8,0,4.4,0
		C166.6,175.3,166.6,176.1,166.6,176.8z M183.5,196.2c-0.4,0-0.8-0.5-1-0.8c-1.7-2.9-3.4-5.7-5.2-8.8c-1.3,1.6-3.2,2.6-2.8,5.1
		c0.2,1.5,0,3,0,4.5c-1.5,0-2.9,0-4.4,0c0-7.1,0-14.3,0-21.6c1.5,0,2.8,0,4.3,0c0,3,0,5.9,0,8.9c0.1,0,0.2,0.1,0.3,0.1
		c1.7-2,3.6-3.9,5-6.1c1.6-2.4,3.5-3.4,6.3-2.9c0.4,0.1,0.9,0,1.6,0c-2.1,2.4-4,4.6-6,6.8c-1.6,1.8-1.6,1.8-0.3,3.9
		c2.2,3.6,4.4,7.2,6.8,11C186.4,196.2,184.9,196.3,183.5,196.2z M186.1,122c-3.5,0-6.2-2.6-6.2-6.1c0-3.5,2.7-6.2,6.1-6.2
		c3.5,0,6.2,2.7,6.3,6.1C192.3,119.2,189.5,122,186.1,122z"/>
</g>
</svg>
