<svg xmlns="http://www.w3.org/2000/svg" width="286.1" height="107.5" viewBox="0 0 286.1 107.5"><style type="text/css">.st0{fill:#B4B4B4;} .st1{fill:#C3C3C3;} .st2{fill:#646464;} .st3{fill:#696969;} .st4{fill:#323232;} .st5{fill:#212121;} .st6{fill:#7D7D7D;} .st7{fill:#262626;} .st8{fill:#888888;} .st9{fill:#4D4D4D;} .st10{fill:#4B4B4B;} .st11{fill:#454545;}</style><path class="st0" d="M283.8 12.3c-6.5-9.8-24.8-16.9-32.8-8.7-.9.9-1.7 1.9-2.4 2.9 2.3.5 4.4 1.7 5.5 4 1.3 2.6 1.5 9.6-.8 13.4.8.8 1.4 1.7 1.8 2.8.8 1.8 1.8 4.2 1.9 6.6 1.8 1 3.7 1.7 4.9 2 3.1.7 6.3.7 9.3.3 3.8-.4 7.2-2 9.9-4.4 4.7-4.6 7.1-12.2 2.7-18.9"/><path class="st1" d="M241.4 24c1.5-1.1 3.4-2 5.3-2.3-2.4-5.6-1.4-10.8 1.9-15.4-2.7-.6-5.7-.2-8.1.3-5.3 1.2-6.7 3.7-6.6 9 .1 4.1 2.1 8.1 5.4 10.3.6-.6 1.3-1.3 2.1-1.9"/><path class="st2" d="M246.7 21.8c1.6-.3 3.3-.1 4.8.7.7.4 1.2.8 1.7 1.4 2.3-3.8 2.1-10.8.8-13.4-1.1-2.3-3.2-3.5-5.5-4-3.1 4.5-4.1 9.7-1.8 15.3"/><path class="st3" d="M249.6 26.7c-1.7.7-2.7.7-4.4.9-2.3.2-4.3-.4-6-1.5-2.5 2.9-3.9 7.1-3 10.7 1.7-.1 3.4.3 4.2 1.9.4.8.6 2.4.4 3.9 4.9 2.7 9.6 1.5 14.6-4.5 1.3-1.4 1.6-3.1 1.6-4.9-1.7-.9-3.3-2-4.1-2.9-1.3-1.2-2.3-2.4-3.3-3.6"/><path class="st4" d="M253.3 23.9c-.5.8-1.1 1.4-1.8 1.9-.7.4-1.3.7-1.9.9.9 1.2 2 2.4 3.2 3.6.8.9 2.4 2 4.1 2.9-.1-2.4-1.1-4.8-1.9-6.6-.3-1-.9-1.9-1.7-2.7"/><path class="st5" d="M245.3 27.6c1.6-.2 2.6-.1 4.3-.9-1.3-1.7-2.2-3.3-2.9-4.9-1.9.3-3.8 1.2-5.3 2.3-.8.6-1.5 1.2-2.1 2 1.7 1.1 3.7 1.7 6 1.5"/><path class="st6" d="M248.2 21.7c-.5 0-1 0-1.5.1.7 1.6 1.6 3.2 2.9 4.9.5-.2 1.2-.5 1.9-.9s1.3-1.1 1.8-1.9c-.5-.5-1.1-1-1.7-1.4-1.1-.6-2.2-.8-3.4-.8"/><path class="st7" d="M248.2 21.7m0 0c-.5 0-1 0-1.4.1.4-.1.9-.1 1.4-.1m3.3.8.1 0c.7.4 1.2.8 1.7 1.4-.5-.6-1.1-1.1-1.7-1.4"/><path d="M251.6 22.5c-1.5-.8-3.2-1-4.8-.7.7 1.6 1.6 3.2 2.9 4.9.5-.2 1.2-.5 1.9-.9s1.3-1.1 1.8-1.9c-.6-.6-1.2-1.1-1.8-1.4"/><path class="st8" d="M236.3 36.7c-.7 0-1.2.1-1.8.3-2.3.5-2.9 1.6-2.9 3.9.1 2.7 2.1 5.4 5 5.2.9-.1 2.1-.3 2.7-.8 1-.8 1.4-1.4 1.5-2.8l-.6-.3c-2.1-1.4-3.4-3.4-3.9-5.5"/><path class="st9" d="M236.8 36.7h-.4c.5 2.1 1.8 4.1 4 5.4l.6.3c.1-.4.1-.9.1-1.3 0-1.1-.2-2-.5-2.6v-.1c-.8-1.3-2.3-1.7-3.8-1.7"/><path class="st10" d="M236.8 36.7m0 0h-.4.4m-.5 0 4.2 1.8c.3.6.5 1.6.5 2.7 0-1.1-.2-2.1-.5-2.7"/><path class="st11" d="M240.5 38.6c-.8-1.6-2.6-2-4.2-1.9.5 2.1 1.8 4.1 4 5.4l.6.3c.2-1.4 0-3.1-.4-3.8"/><path d="M15 56.8c0-1.6 1.2-2.9 2.8-2.9 1.6 0 2.8 1.3 2.8 2.9v29c0 1.6-1.2 2.8-2.8 2.8-1.6 0-2.8-1.3-2.8-2.8v-29zm43.6 0c0-1.6 1.2-2.9 2.8-2.9 1.6 0 2.8 1.3 2.8 2.9v29c0 1.6-1.2 2.8-2.8 2.8-1.6 0-2.8-1.3-2.8-2.8v-29zm69.9 16.2c0 5.1-3.2 10.3-7.9 10.3-8.2 0-8.4-8.2-8.4-12.3 0-8.4 4-12.8 9.8-12.8 3.1 0 4.7.4 6.6 1v13.8zm-.1 17.3c0 7.5-1.8 13.1-8.2 13.1-3.5 0-5.9-1.6-5.9-5.1 0-3.1 3.1-5.7 6.5-8.6l7.5-6.4v7zm1.8-35.6c-2.6-.6-5.2-1.1-7.6-1.1-8.4 0-16 5.8-16 16.8 0 11.9 5.1 16.1 11.2 16.7l-1.2.8c-3.5 2.4-7.3 5.1-7.3 10.3 0 5.4 3.6 9.3 10.6 9.3 13.3 0 13.8-12.4 13.8-19.8v-28.2c-.1-3.7-1.1-4.2-3.5-4.8m150.3-11.6c0-1.6 1.2-2.9 2.8-2.9 1.6 0 2.8 1.3 2.8 2.9v43.1c0 1.6-1.2 2.8-2.8 2.8-1.6 0-2.8-1.3-2.8-2.8v-43.1zm-280.5 0c0-1.6 1.2-2.9 2.8-2.9 1.6 0 2.8 1.3 2.8 2.9v43.1c0 1.6-1.2 2.8-2.8 2.8-1.6 0-2.8-1.3-2.8-2.8v-43.1zm47 12.6c.4-1 1.3-1.7 2.5-1.7 2 0 3.4 1.6 2.5 3.8l-10.5 28.5c-.5 1.3-1.1 2.3-2.5 2.3s-1.9-1-2.4-2.3l-10.5-28.3c-.8-2.1.2-4 2.4-4 1.2 0 2.1.7 2.5 1.8l8 21.8 8-21.9zm46.9 11c0-4.6-1.6-8.4-6.9-8.4-4.9 0-8.7 5-8.7 10.9v16.7c0 1.6-1.2 2.8-2.8 2.8-1.6 0-2.8-1.3-2.8-2.8v-29c0-1.6 1.1-2.9 2.7-2.9s2.7 1.3 2.7 2.9v2.3c2.4-3.9 6-5.4 9.9-5.4 7.2 0 11.5 3.9 11.5 11.6v20.5c0 1.6-1.2 2.8-2.8 2.8-1.6 0-2.8-1.3-2.8-2.8v-19.2zm47.2 15.1c.7 0 1.2.3 1.7.5 2 1.1 4.4 2.1 7.6 2.1 3.6 0 6.3-1.7 6.3-5.4s-3.5-4.9-7.2-6.1c-4.6-1.5-9.5-3.2-9.5-9.5 0-6.8 5.4-9.8 11.3-9.8 3.7 0 6.6 1 8.8 2.4.6.3 1.4 1.1 1.4 2.2 0 1.3-.9 2.3-2.1 2.3-.6 0-1.3-.3-1.9-.7-1.9-1.2-4.1-1.7-6.5-1.7-2.7 0-5.8 1-5.8 4.7 0 3.4 3.5 4.7 7.1 5.8 4.5 1.5 9.7 3.7 9.7 10 0 6.7-4.7 10.1-11.6 10.1-4.9 0-7.8-1.4-10-2.5-.9-.5-1.6-1.2-1.6-2.2.2-1.2 1.1-2.2 2.3-2.2m40.2 2.7c-7.4 0-9-7.6-9-14.1 0-7.1 3.2-12.2 9.3-12.2 6.2 0 8.9 5.4 8.9 13.2-.1 7.2-3.1 13.1-9.2 13.1m.6-30.8c-6.7 0-15.3 3.5-15.3 17.4 0 12.1 5.6 17.8 14.2 17.8 8.4 0 15.3-5.4 15.3-18.5 0-15.3-9.6-16.7-14.2-16.7m40.3 28.8c.8-.5 1.8-1 2.7-1 1.1 0 2.1.7 2.1 2.2 0 .9-.4 1.6-1.3 2.1-2.3 1.6-6.1 3-10.3 3-9.5 0-14.7-6.1-14.7-17.6 0-13.6 8.3-17.6 14.6-17.6 3.5 0 7.1.8 10.4 3.6.6.5.9 1.2.9 2 0 1.3-.9 2.5-2.3 2.5-.7 0-1.6-.5-2.2-.9-2.2-1.9-4.1-2.4-6.8-2.4-5.2 0-9.1 3.9-9.1 12.7 0 7.7 2.7 13.1 9.6 13.1 2.2 0 4.2-.4 6.4-1.7m9.4-25.7c0-1.6 1.2-2.9 2.8-2.9 1.6 0 2.8 1.3 2.8 2.9v29c0 1.6-1.2 2.8-2.8 2.8-1.6 0-2.8-1.3-2.8-2.8v-29zm34.7 16.1c0 4.5-3.1 11.6-9.9 11.6-5.2 0-6.8-6-6.8-11.7 0-8.3 2.7-14.7 10.4-14.7 2.5 0 5.1.5 6.4 1v13.8zm2.8-17.9c-2.9-.8-6.5-1.3-8.3-1.3-11.2 0-16.8 7.2-16.8 19 0 9.7 3.9 16.1 12.1 16.1 5.6 0 8.6-3 10.4-6.3v3.2c0 1.6 1.1 2.8 2.7 2.8s2.7-1.3 2.7-2.8v-26.3c0-2.5-.3-3.7-2.8-4.4"/></svg>