<svg xmlns="http://www.w3.org/2000/svg" viewBox="0 0 268 268" enable-background="new 0 0 268 268"><g fill-rule="evenodd" clip-rule="evenodd" fill="#1D1D1B"><path d="M111.5 122.3h2.2v-9.6h.1l3.1 9.6h2.2l3.2-9.6v9.6h2.2v-11.7h-3.7l-2.8 8.9-2.8-8.9h-3.7v11.7zM132.7 122.3v-11.7h-2.4v11.7h2.4zM138.5 122.3h2.2v-8.7l4.5 8.7h2.8v-11.7h-2.2v8.7l-4.5-8.7h-2.8v11.7zM156.2 122.3v-11.7h-2.3v11.7h2.3zM167.9 110.8c-.9-.3-1.8-.4-2.8-.4-2.1 0-4.1 1-4.1 3.6 0 3.9 5.1 2.9 5.1 5.2 0 1.1-1.2 1.5-2.1 1.5-.9 0-1.8-.3-2.6-.7l-.2 2.1c1.2.3 1.7.5 3 .5 2.4 0 4.4-1 4.4-3.5 0-3.9-5.1-3.1-5.1-5.1 0-1.3 1-1.6 1.8-1.6s1.6.2 2.4.5l.2-2.1zM174.7 122.3h2.4v-9.8h3.3v-1.9h-9v1.9h3.3v9.8zM186.3 112.5h.8c1.2 0 2.5.1 2.5 1.5 0 1.5-1.3 1.6-2.5 1.6h-.8v-3.1zm-2.3 9.8h2.3v-4.8h.8c1 0 1.3.3 1.6 1.2l1.4 3.6h2.6l-1.9-4.6c-.2-.5-.6-1.2-1.2-1.2 1.5-.2 2.4-1.3 2.4-2.7 0-3.2-3-3.2-5.5-3.2h-2.5v11.7zM199.1 122.3h2.3v-4.6l4.2-7.1h-2.5l-2.8 4.9-2.8-4.9h-2.7l4.3 7.1v4.6zM220.1 116.4c0 3.6 2 6.1 5.7 6.1s5.7-2.5 5.7-6.1c0-3.5-2-6-5.7-6s-5.7 2.4-5.7 6zm2.4 0c0-2.1 1-4.2 3.3-4.2s3.3 2.1 3.3 4.2-.9 4.2-3.3 4.2-3.3-2.1-3.3-4.2zM235.7 122.3h2.3v-5.1h4v-1.9h-4v-2.8h4.2v-1.9h-6.5v11.7zM111.5 145.4h3v-12.799999999999999l4.2 12.8h3l4.1-12.8h.1v12.8h3v-15.5h-5l-3.7 11.8-3.7-11.8h-5v15.5zM141.3 139.4h-4.5l2.2-6.4 2.3 6.4zm-10 6h3.2l1.4-3.6h6.3l1.3 3.6h3.4l-6.1-15.5h-3.5l-6 15.5zM149.1 145.4h3v-11.6l6 11.6h3.8v-15.5h-3v11.6h-.1l-5.9-11.6h-3.8v15.5zM168.9 132.4h1.1c1.6 0 3 .6 3 2.4 0 1.8-1.4 2.3-3 2.3h-1.1v-4.7zm-3.1 13h3.1v-5.9h1.3c3.3 0 6-1.3 6-4.9 0-3.7-3.1-4.7-6.5-4.7h-3.9v15.5zM178 137.6c0 4.8 2.6 8.1 7.6 8.1 4.9 0 7.6-3.4 7.6-8.1 0-4.7-2.7-8-7.6-8-4.9 0-7.6 3.3-7.6 8zm3.3 0c0-2.7 1.3-5.5 4.4-5.5 3.1 0 4.4 2.8 4.4 5.5 0 2.8-1.2 5.6-4.4 5.6-3.3.1-4.4-2.8-4.4-5.6zM198.5 145.4h4l2.8-12.4 2.8 12.4h4l4.1-15.5h-3l-2.9 12.4h-.1l-2.7-12.4h-4.2l-2.7 12.4-2.9-12.4h-3.3l4.1 15.5zM218.6 145.4h9.2v-2.4h-6.1v-4.4h5.6v-2.4h-5.6v-3.8h6.1v-2.5h-9.2v15.5zM234.1 132.4h1c1.6 0 3.3.2 3.3 2 0 1.9-1.8 2.2-3.3 2.2h-1v-4.2zm-3.1 13h3.1v-6.4h1c1.3 0 1.7.4 2.2 1.6l1.9 4.9h3.5l-2.5-6.1c-.3-.7-.8-1.5-1.6-1.6 2-.3 3.2-1.8 3.2-3.6 0-4.3-4-4.2-7.3-4.2h-3.5v15.4zM54.8 92.4c-16.4 21.3-19.4 51.7-3.8 69.9-10-24-.8-49.6 11-65.5 1.7-2.2 1.5-4.7-.5-6.1-3.4-2.4-6 .8-6.7 1.7zM71.9 112.7c-13.8 21.2-15.4 48.7.1 65.9 1.9 2.1 4.2 3.9 6.9 5.7.4.3 2.4 1.2 4.2 1.8 3.9 1.2 7.2.4 8.9-1-3 .4-6.7.6-11.1-2.9-16.6-13.3-15.5-44.4-1.3-65.5.2-.2 1.9-3.7-1.2-5.8-2.8-1.7-5.2-.1-6.5 1.8zM69.4 93.5c-17.4 20.2-28.9 55.6-5.4 81.5-11.2-20.4-10.8-46.9 13-76 1.4-2 1.5-4.6-.8-6.5-2.5-1.8-5.2-.7-6.8 1zM42.1 109.4s-1.6 4.5-1.8 5.4c-14.8-6.7-14.6 2.3-10.4 12-5.3-4.7-12.3-25 12.2-17.4zM77 86.2c0-3.2 2.6-5.9 5.9-5.9 3.2 0 5.9 2.6 5.9 5.9 0 3.2-2.6 5.9-5.9 5.9-3.3 0-5.9-2.6-5.9-5.9zM79.6 123.4c40.8 26.6 23.3 64.1 7.1 58.7-3.4-1.1-5.5-3.9-5.5-4.7 1.8 1.7 3.8 2.9 5.4 3.3 17.7 4.8 21.4-33.9-9.7-51.3.9-2.6 2.2-4.9 2.7-6z"/></g></svg>