<svg xmlns="http://www.w3.org/2000/svg" xmlns:xlink="http://www.w3.org/1999/xlink" viewBox="0 0 268 268" enable-background="new 0 0 268 268"><path fill="#1D1D1B" d="M166.2 61.2c-42.2 0-76.6 34.3-76.6 76.6h5.6c0-39.1 31.8-71 71-71 39.1 0 71 31.8 71 71h5.6c-.1-42.2-34.4-76.6-76.6-76.6M166.2 71.6c-36.5 0-66.2 29.7-66.2 66.2h5.6c0-33.4 27.2-60.6 60.6-60.6 33.4 0 60.6 27.2 60.6 60.6h5.6c-.1-36.5-29.8-66.2-66.2-66.2M166.2 82c-30.8 0-55.8 25-55.8 55.8h5.6c0-27.7 22.5-50.2 50.2-50.2 27.7 0 50.2 22.5 50.2 50.2h5.6c-.1-30.7-25.1-55.8-55.8-55.8M166.2 92.4c-25 0-45.4 20.4-45.4 45.4h5.6c0-21.9 17.8-39.8 39.8-39.8 21.9 0 39.8 17.8 39.8 39.8h5.6c-.1-25-20.4-45.4-45.4-45.4M166.2 102.8c-19.3 0-35 15.7-35 35h5.6c0-16.2 13.2-29.4 29.4-29.4s29.4 13.2 29.4 29.4h5.6c-.1-19.3-15.8-35-35-35"/><path d="M28 169.5c0 5.4 4.1 6 6.2 6 .7 0 1.1-.1 1.1-.1v-2.7s-.3.1-.7.1c-1.2 0-3.4-.4-3.4-3.6v-7.4h3.8v-2.5h-3.9v-4.4h-3v4.4h-2.2v2.5h2.1v7.7zM37.8 156.2v19.2h3.1v-7.6c0-.8.1-1.5.3-2.1.7-2.3 2.6-4 5.1-4 2.6 0 3.1 1.8 3.1 4.1v7.6c0 1.4.6 2 2 2h3v-2.6h-1.3c-.4 0-.7-.2-.7-.7v-7c0-4.1-1.7-6.2-5.5-6.2-3.2 0-5.3 2-6 3.6h-.1s.1-.6.1-1.3v-6.3c0-1.4-.6-2-2-2h-3.1v2.7h1.3c.4-.1.7.1.7.6M64.2 175.8c3.8 0 6.2-2.4 6.2-2.4l-1.3-2.2s-1.9 1.9-4.7 1.9c-2.9 0-5.4-1.9-5.6-5.4h11.8s.1-.9.1-1.3c0-4.2-2.4-7.6-7-7.6s-8.1 3.3-8.1 8.5c0 4.8 3.5 8.5 8.6 8.5m-.5-14.5c2 0 3.7 1.4 3.8 4.1h-8.6c.5-2.7 2.4-4.1 4.8-4.1"/><path d="M99.2 163.2c.3-.6.5-1.3.7-1.9 0 .6 0 1.3.1 1.8l.8 10.1c.1 1.5.6 2.4 2.4 2.4h3.9v-4.1h-1.3c-.2 0-.4-.1-.4-.4l-1.5-18.7h-4.8l-4.7 11c-.3.8-.7 1.7-.9 2.4-.2-.6-.6-1.6-.9-2.4l-4.7-11h-4.8l-1.5 18.7c0 .4-.2.4-.4.4h-1.3v4.1h3.9c1.6 0 2.3-.7 2.4-2.4l.7-10.1.1-1.9c.2.7.5 1.4.7 1.9l3.8 8.5h3.7l4-8.4zM116.9 158.4c-5.2 0-9.2 3.8-9.2 8.8 0 5 3.9 8.8 9.2 8.8 5.3 0 9.2-3.8 9.2-8.8 0-5-3.9-8.8-9.2-8.8m0 13.6c-2.6 0-4.5-2.1-4.5-4.8s2-4.8 4.5-4.8c2.6 0 4.6 2.1 4.6 4.8s-2 4.8-4.6 4.8M137.6 162.7c1.6 0 2.3.9 2.3 3v7.5c0 1.7.8 2.5 2.4 2.5h4.1v-4h-1.4c-.3 0-.4-.1-.4-.4v-6.4c0-4.3-2-6.5-6-6.5-3 0-4.6 1.6-5.5 2.7v-.2c0-1.3-.9-2.1-2.4-2.1h-4v4h1.6c.3 0 .4.1.4.4v12.4h4.6v-7.7c0-.8.1-1.5.3-2.1.5-1.9 2.1-3.1 4-3.1"/><path d="M155.9 176c4.1 0 6.6-2.4 6.7-2.5l.2-.2-2-3.3-.3.2s-1.9 1.7-4.4 1.7c-2.4 0-4.2-1.5-4.6-3.8h11.2v-.3s.1-1 .1-1.5c0-4.8-3-8-7.5-8-5 0-8.5 3.6-8.5 8.8.1 5.2 3.9 8.9 9.1 8.9m-4.1-11.2c.5-1.7 1.8-2.7 3.6-2.7 1.5 0 2.6 1.1 2.8 2.7h-6.4zM167.3 178.4c-1.2 0-2.1-1-2.1-1l-.3-.3-1.9 3.4.1.1c.1.1 1.7 1.7 4.3 1.7 2.8 0 5-1.6 6.1-4.4l5.8-14.7c.1-.3.2-.4.7-.4h.8v-4h-3c-1.3 0-2 .5-2.4 1.7l-2.8 8.1c-.1.3-.2.7-.3 1.1-.1-.4-.2-.8-.3-1.1l-3.2-8.1c-.5-1.2-1.1-1.7-2.4-1.7h-3v4h.8c.4 0 .5 0 .6.4l5.4 12.1-.5 1.1c-.5 1.3-1.3 2-2.4 2M45.1 199.8l-6.8-18.6h-4.8l-6.8 18.6c-.1.4-.3.5-.7.5h-.8v4.1h2.8c1.7 0 2.4-.5 2.9-2l1.3-3.8h7.3l1.3 3.8c.6 1.6 1.2 2 2.9 2h2.8v-4.1h-.8c-.3 0-.4-.1-.6-.5m-9.1-12.9c.2.7.4 1.7.7 2.4l1.8 5.3h-5l1.8-5.3c.2-.8.5-1.7.7-2.4M63.7 200v-16.4c0-1.6-.8-2.4-2.4-2.4h-4.1v4h1.6c.3 0 .4.1.4.4v3.1c-.6-.6-2-1.5-4.4-1.5-4.5 0-7.7 3.6-7.7 8.8 0 5.3 3 8.8 7.5 8.8 2.7 0 4.2-1.3 4.9-2.1.1.7.5 1.8 2.3 1.8h4v-4h-1.5c-.4-.1-.6-.2-.6-.5m-8.3.8c-2.3 0-3.7-1.9-3.7-4.8s1.5-4.8 3.8-4.8c2.6 0 3.7 2.4 3.7 4.7 0 3.6-2 4.9-3.8 4.9M77.4 189.3l-3.1 8.6-.3 1.2c-.1-.4-.2-.9-.4-1.3l-3.1-8.6c-.5-1.2-1.2-1.7-2.7-1.7h-2.6v4h.6c.4 0 .5.1.6.4l4.7 12.4h5.2l4.7-12.4c.1-.3.3-.4.6-.4h.7v-4h-2.3c-1.4 0-2.2.5-2.6 1.8M90.2 200v-10c0-1.7-.8-2.5-2.4-2.5h-4.1v4h1.6c.3 0 .4.1.4.4v10c0 1.7.8 2.4 2.4 2.4h4.1v-4h-1.6c-.3.1-.4 0-.4-.3"/><path d="M85.8 181.2h4.1v4.3h-4.1zM106.7 198.5s-2 2.1-4.6 2.1c-2.4 0-4.8-1.5-4.8-4.7 0-2.8 1.9-4.8 4.5-4.8.8 0 2.1.3 2.1 1v1.2h4.1v-2.2c0-2.9-3.7-4-6.2-4-6 0-9.2 4.4-9.2 8.8 0 5.1 3.8 8.8 9.1 8.8 4.5 0 7-2.9 7.1-3l.1-.2-2-3.3-.2.3zM117.9 187.2c-5 0-8.5 3.6-8.5 8.8 0 5.1 3.8 8.8 9 8.8 4.1 0 6.6-2.4 6.7-2.5l.2-.2-2-3.3-.3.2s-1.9 1.7-4.4 1.7c-2.4 0-4.2-1.5-4.6-3.8h11.2v-.3s.1-1 .1-1.5c.1-4.7-2.9-7.9-7.4-7.9m0 3.6c1.5 0 2.6 1.1 2.8 2.7h-6.4c.4-1.7 1.7-2.7 3.6-2.7M144.3 190.4c-2.1-.9-3.9-1.7-3.9-3.1 0-1.3 1.3-2.1 3-2.1 1.3 0 2.7.6 2.7 1.5v1.3h4.3v-2.4c0-3.5-4.3-4.7-7-4.7-4.5 0-7.8 2.8-7.8 6.7 0 4.2 3.7 5.9 6.7 7.3 2.1 1 4 1.8 4 3.3 0 1.7-1.5 2.4-3 2.4-3 0-5.3-2.6-5.3-2.6l-.2-.3-2.7 3.4.1.2c.1.1 2.9 3.6 8 3.6 4.6 0 7.8-2.9 7.8-7 .1-4.6-3.6-6.2-6.7-7.5M160.9 187.2c-5 0-8.5 3.6-8.5 8.8 0 5.1 3.8 8.8 9 8.8 4.1 0 6.6-2.4 6.7-2.5l.2-.2-2-3.3-.3.2s-1.9 1.7-4.4 1.7c-2.4 0-4.2-1.5-4.6-3.8h11.2v-.3s.1-1 .1-1.5c.1-4.7-2.9-7.9-7.4-7.9m0 3.6c1.5 0 2.6 1.1 2.8 2.7h-6.4c.5-1.7 1.8-2.7 3.6-2.7M180.6 187.3c-2 0-3.8 1.2-4.9 3.1v-.6c0-1.5-.8-2.3-2.5-2.3h-4v4h1.6c.3 0 .4.1.4.4v12.4h4.6v-6.7c0-.9.1-1.8.3-2.6.7-2.4 2.6-3.2 4.2-3.2.5 0 .9.1.9.1h.3v-4.6h-.2c0 .1-.4 0-.7 0M194.8 189.3l-3.1 8.6-.3 1.2c-.1-.4-.2-.9-.4-1.3l-3.1-8.6c-.5-1.2-1.2-1.7-2.7-1.7h-2.6v4h.6c.4 0 .5.1.6.4l4.7 12.4h5.2l4.7-12.4c.1-.3.3-.4.6-.4h.7v-4h-2.4c-1.3 0-2.1.5-2.5 1.8"/><path d="M203.1 181.2h4.1v4.3h-4.1zM207.5 200v-10c0-1.7-.8-2.5-2.4-2.5h-4.1v4h1.6c.3 0 .4.1.4.4v10c0 1.7.8 2.4 2.4 2.4h4.1v-4h-1.6c-.2.1-.4 0-.4-.3"/><path d="M224.1 198.5s-2 2.1-4.6 2.1c-2.4 0-4.8-1.5-4.8-4.7 0-2.8 1.9-4.8 4.5-4.8.8 0 2.1.3 2.1 1v1.2h4.1v-2.2c0-2.9-3.7-4-6.2-4-6 0-9.2 4.4-9.2 8.8 0 5.1 3.8 8.8 9.1 8.8 4.5 0 7-2.9 7.1-3l.1-.2-2-3.3-.2.3zM242.6 196.7s.1-1 .1-1.5c0-4.8-3-8-7.5-8-5 0-8.5 3.6-8.5 8.8 0 5.1 3.8 8.8 9 8.8 4.1 0 6.6-2.4 6.7-2.5l.2-.2-2-3.3-.3.2s-1.9 1.7-4.4 1.7c-2.4 0-4.2-1.5-4.6-3.8h11.2l.1-.2zm-7.4-5.9c1.5 0 2.6 1.1 2.8 2.7h-6.4c.5-1.7 1.8-2.7 3.6-2.7"/><defs><path id="a" d="M25.3 137.8h5.6c0-27.7 22.5-50.2 50.2-50.2 8.3 0 16 2 22.9 5.6 1.1-1.5 2.3-3 3.5-4.5-7.9-4.2-16.9-6.7-26.5-6.7-30.7 0-55.7 25.1-55.7 55.8"/></defs><clipPath id="b"><use xlink:href="#a" overflow="visible"/></clipPath><path clip-path="url(#b)" fill="#1D1D1B" d="M25.3 82h82.2v55.8h-82.2z"/><defs><path id="c" d="M35.7 137.8h5.6c0-21.9 17.8-39.8 39.7-39.8 6.2 0 12.2 1.5 17.4 4 .9-1.7 1.8-3.3 2.8-4.9-6.1-3.1-13-4.8-20.2-4.8-25 .1-45.3 20.5-45.3 45.5"/></defs><clipPath id="d"><use xlink:href="#c" overflow="visible"/></clipPath><path clip-path="url(#d)" fill="#1D1D1B" d="M35.7 92.4h65.6v45.4h-65.6z"/><defs><path id="e" d="M46.1 137.8h5.6c0-16.2 13.2-29.4 29.4-29.4 4.7 0 9.2 1.1 13.2 3.1.6-1.8 1.4-3.5 2.1-5.2-4.6-2.3-9.8-3.5-15.3-3.5-19.3 0-35 15.7-35 35"/></defs><clipPath id="f"><use xlink:href="#e" overflow="visible"/></clipPath><path clip-path="url(#f)" fill="#1D1D1B" d="M46.1 102.8h50.3v35h-50.3z"/><defs><path id="g" d="M56.5 137.8h5.6c0-10.4 8.5-19 19-19 3.8 0 7.3 1.1 10.2 3 .4-1.9.9-3.8 1.4-5.7-3.5-1.9-7.4-3-11.7-3-13.5.1-24.5 11.2-24.5 24.7"/></defs><clipPath id="h"><use xlink:href="#g" overflow="visible"/></clipPath><path clip-path="url(#h)" fill="#1D1D1B" d="M56.5 113.2h36.2v24.6h-36.2z"/><defs><path id="i" d="M66.9 137.8h5.6c0-4.7 3.8-8.6 8.6-8.6 4.7 0 8.6 3.8 8.6 8.6 0-3.6.3-7.2.7-10.7-2.5-2.2-5.7-3.5-9.3-3.5-7.9 0-14.2 6.4-14.2 14.2"/></defs><clipPath id="j"><use xlink:href="#i" overflow="visible"/></clipPath><path clip-path="url(#j)" fill="#1D1D1B" d="M66.9 123.6h23.5v14.2h-23.5z"/></svg>