<svg xmlns="http://www.w3.org/2000/svg" width="296.1" height="68.5" viewBox="0 0 296.1 68.5"><path d="M0 67.4v-67.4h14l17.4 28.9c4.5 7.5 8.4 15.3 11.5 22.6h.2c-.8-9-1.1-17.7-1.1-28v-23.5h11.4v67.4h-12.7l-17.6-29.6c-4.3-7.4-8.8-15.7-12.1-23.3l-.3.1c.5 8.7.6 17.6.6 28.7v24.1h-11.3zM74 46.5c.3 8.8 7.2 12.6 15 12.6 5.7 0 9.8-.8 13.5-2.2l1.8 8.5c-4.2 1.7-10 3-17 3-15.8 0-25.1-9.7-25.1-24.6 0-13.5 8.2-26.2 23.8-26.2 15.8 0 21 13 21 23.7 0 2.3-.2 4.1-.4 5.2h-32.6zm21.5-8.6c.1-4.5-1.9-11.9-10.1-11.9-7.6 0-10.8 6.9-11.3 11.9h21.4zM114.3 56.1c2.8 1.7 8.1 3.5 12.5 3.5 5.4 0 7.8-2.2 7.8-5.4 0-3.3-2-5-8-7.1-9.5-3.3-13.5-8.5-13.4-14.2 0-8.6 7.1-15.3 18.4-15.3 5.4 0 10.1 1.4 12.9 2.9l-2.4 8.7c-2.1-1.2-6-2.8-10.3-2.8-4.4 0-6.8 2.1-6.8 5.1 0 3.1 2.3 4.6 8.5 6.8 8.8 3.2 12.9 7.7 13 14.9 0 8.8-6.9 15.2-19.8 15.2-5.9 0-11.2-1.4-14.8-3.4l2.4-8.9zM168.9 4.8v13.9h11.7v9.2h-11.7v21.5c0 5.9 1.6 9 6.3 9 2.1 0 3.7-.3 4.8-.6l.2 9.4c-1.8.7-5 1.2-8.9 1.2-4.5 0-8.3-1.5-10.6-4-2.6-2.8-3.8-7.2-3.8-13.6v-22.9h-7v-9.2h7v-11l12-2.9zM215.8 67.4l-.8-5.4h-.3c-3 3.8-8.1 6.5-14.4 6.5-9.8 0-15.3-7.1-15.3-14.5 0-12.3 10.9-18.5 28.9-18.4v-.8c0-3.2-1.3-8.5-9.9-8.5-4.8 0-9.8 1.5-13.1 3.6l-2.4-8c3.6-2.2 9.9-4.3 17.6-4.3 15.6 0 20.1 9.9 20.1 20.5v17.6c0 4.4.2 8.7.7 11.7h-11.1zm-1.6-23.8c-8.7-.2-17 1.7-17 9.1 0 4.8 3.1 7 7 7 4.9 0 8.5-3.2 9.6-6.7.3-.9.4-1.9.4-2.7v-6.7zM235.9 60.6c0-4.6 3.2-7.9 7.6-7.9 4.5 0 7.6 3.2 7.6 7.9 0 4.5-3 7.9-7.6 7.9-4.5 0-7.6-3.4-7.6-7.9zM258.4 60.6c0-4.6 3.2-7.9 7.6-7.9 4.5 0 7.6 3.2 7.6 7.9 0 4.5-3 7.9-7.6 7.9-4.5 0-7.6-3.4-7.6-7.9zM280.9 60.6c0-4.6 3.2-7.9 7.6-7.9 4.5 0 7.6 3.2 7.6 7.9 0 4.5-3 7.9-7.6 7.9-4.5 0-7.6-3.4-7.6-7.9z"/></svg>