<svg xmlns="http://www.w3.org/2000/svg" width="104.7" height="35.2" viewBox="0 0 104.7 35.2"><path d="M9.7 12.2l5.7 5.8-5.7 5.8v-3c-5.4-.1-9.7-4.5-9.7-9.9 0-5.5 4.4-9.9 9.8-9.9 2.3 0 4.3.8 6 2.1-1.1 1.2-2 2.7-2.5 4.3-.9-.9-2.1-1.4-3.5-1.4-2.7 0-5 2.3-5 5s2.1 4.9 4.8 5v-3.8h.1zM22.7 10.6l-5.7 5.8-5.7-5.8h3c.1-5.4 4.4-9.8 9.8-9.8s9.8 4.5 9.8 9.9c0 2.3-.8 4.4-2 6.1-1.2-1.1-2.6-2-4.2-2.5.9-.9 1.4-2.1 1.4-3.5 0-2.8-2.2-5-5-5-2.7 0-4.9 2.2-5 4.9h3.6v-.1zM24.3 23.8l-5.7-5.8 5.7-5.8v3c5.4.1 9.7 4.5 9.7 9.9 0 5.5-4.4 9.9-9.8 9.9-2.3 0-4.3-.8-6-2.1 1.1-1.2 2-2.7 2.5-4.3.9.9 2.1 1.4 3.5 1.4 2.7 0 5-2.3 5-5s-2.1-4.9-4.8-5v3.8h-.1zM11.3 25.4l5.7-5.8 5.7 5.8h-3c-.1 5.4-4.4 9.8-9.8 9.8s-9.8-4.5-9.8-9.9c0-2.3.8-4.4 2-6.1 1.2 1.1 2.6 2 4.2 2.5-.8 1-1.3 2.2-1.3 3.6 0 2.8 2.2 5 5 5 2.7 0 4.9-2.2 5-4.9h-3.7zM43.5.6c1.4 0 2.3.2 2.9.8.4.4.6 1 .6 1.8 0 1.1-.5 2-1.5 2.5l.3.5c.7 1.3 1.3 2.2 1.9 2.9.1.1 0 .2-.5.2h-.7c-.4 0-.6 0-.8-.2-.3-.3-.7-1-1.5-2.4l-.4-.7h-.8v3.2c0 .1-.2.2-.8.2h-.1c-.7 0-.8 0-.8-.2v-8.4c0-.2.1-.2.5-.2h1.7zm-.4 4h.6c.6 0 1-.1 1.2-.4.2-.2.3-.6.3-1s-.1-.7-.3-.9c-.2-.2-.6-.3-1.3-.3h-.6v2.6zM49.9 6.8c.1.9.7 1.3 1.6 1.3.6 0 1.2-.2 1.7-.4.1-.1.2 0 .3.4l.1.3c.1.4.1.5 0 .6-.6.3-1.5.6-2.4.6-1.9 0-3.1-1.2-3.1-3.3 0-2 1.1-3.4 3-3.4 1.9-.1 2.9 1.3 2.9 3.2 0 .5 0 .6-.1.6h-4zm2.4-1.2c-.1-.8-.5-1.3-1.1-1.3-.7 0-1.1.5-1.3 1.3h2.4zM60 3c.5 0 .6 0 .6.1.1.3.1 1.5.1 2.6v3.2c0 1.2-.3 2-.7 2.6-.5.5-1.2.8-2.2.8-.7 0-1.5-.2-2-.5-.1-.1-.2-.2 0-.6l.1-.2c.2-.4.2-.5.4-.4.4.2 1 .4 1.4.4.9 0 1.4-.5 1.4-1.8v-.3c-.4.4-1 .5-1.6.5-1.6 0-2.6-1.2-2.6-3.2 0-2.2 1.1-3.4 2.7-3.4.7 0 1.2.3 1.6.8l.1-.5c0-.1 0-.1.6-.1h.1zm-.9 2c-.3-.5-.7-.7-1.1-.7-.8 0-1.3.6-1.3 1.9 0 1.2.4 1.8 1.3 1.8.3 0 .7-.1.9-.3.1-.1.2-.3.2-.7v-2zM63.2 0c.6 0 1 .5 1 1s-.4 1-1 1-1-.5-1-1 .4-1 1-1zm.1 3c.7 0 .8 0 .8.2v6.1c0 .1-.1.2-.8.2h-.1c-.8 0-.8 0-.8-.2v-6.1c0-.2 0-.2.9-.2zM65.7 8c.2-.4.3-.5.5-.4.5.3 1 .5 1.6.5.6 0 1-.2 1-.6 0-.9-3.1-.4-3.1-2.7 0-1.3 1.1-2.1 2.5-2.1.8 0 1.5.2 2 .6.1.1.1.2-.1.6l-.1.2c-.2.4-.3.4-.4.4-.4-.2-.8-.4-1.2-.4-.4 0-.6.1-.8.2-.1.1-.2.2-.2.4 0 .9 3.1.4 3.1 2.6 0 .6-.2 1.1-.6 1.5-.5.4-1.1.7-2 .7-.9 0-1.8-.3-2.3-.7-.1-.1-.1-.2.1-.5v-.3zM72.8 1.2c.7 0 .8 0 .8.2v1.6h1.4c.1 0 .2 0 .2.6v.1c0 .6 0 .6-.2.6h-1.4v3c0 .4.1.5.2.7.1.1.3.2.5.2s.4 0 .6-.1c.1 0 .2 0 .3.5v.1c.1.5.1.5 0 .6-.4.2-.9.3-1.4.3-.7 0-1.2-.2-1.5-.5-.3-.3-.5-.9-.5-1.6v-3.2h-.8c-.1 0-.2 0-.2-.6v-.1c.1-.6.2-.6.3-.6h.8v-1.6c0-.1 0-.2.9-.2zM77.9 6.8c.1.9.7 1.3 1.6 1.3.6 0 1.2-.2 1.7-.4.1-.1.2 0 .3.4l.1.3c.1.4.1.5 0 .6-.6.3-1.5.6-2.4.6-1.9 0-3.1-1.2-3.1-3.3 0-2 1.1-3.4 3-3.4 1.8 0 2.8 1.4 2.8 3.3 0 .5 0 .6-.1.6h-3.9zm2.4-1.2c-.1-.8-.5-1.3-1.1-1.3-.7 0-1.1.5-1.3 1.3h2.4zM84 3c.6 0 .7 0 .7.2 0 .1.1.8.1 1.3.4-1 .9-1.5 1.7-1.5h.3c.2-.1.2 0 .2.5v.2c0 .6 0 .6-.2.7-.7.1-1.1.4-1.4.8-.3.5-.5 1.2-.5 2.3v1.8c0 .1-.1.2-.8.2h-.1c-.8 0-.8 0-.8-.2v-3.4c0-.9 0-2-.1-2.7.1-.2.1-.2.9-.2zM88 8c.2-.4.3-.5.5-.4.5.3 1 .5 1.6.5.6 0 1-.2 1-.6 0-.9-3.1-.4-3.1-2.7 0-1.3 1.1-2.1 2.5-2.1.8 0 1.5.2 2 .6.1.1.1.2-.1.6l-.1.2c-.2.4-.3.4-.4.4-.4-.2-.8-.4-1.2-.4-.4 0-.6.1-.8.2-.1.1-.2.2-.2.4 0 .9 3.1.4 3.1 2.6 0 .6-.2 1.1-.6 1.5-.5.4-1.1.7-2 .7-.9 0-1.8-.3-2.3-.7-.1-.1-.1-.2.1-.5v-.3zM47.3 19.1c0 2.2-1.1 3.5-3.1 3.5-1.8 0-2.9-1.1-2.9-3.2 0-2.2 1.1-3.5 3.1-3.5 1.8 0 2.9 1.1 2.9 3.2zm-4.3.1c0 1.2.4 1.8 1.2 1.8 1 0 1.4-.7 1.4-1.9s-.4-1.8-1.2-1.8c-1 0-1.4.7-1.4 1.9zM49 16v-.3c0-.9.2-1.6.7-2 .4-.4 1-.6 1.8-.6.5 0 .9.1 1.3.2.1 0 .1.1 0 .6v.2c-.1.4-.2.5-.3.5-.3-.1-.5-.1-.8-.1-.4 0-.7.1-.8.3-.2.2-.2.6-.2 1v.2h1.4c.1 0 .2 0 .2.6v.1c0 .6 0 .6-.2.6h-1.4v4.9c0 .1-.1.2-.8.2h-.1c-.8 0-.8 0-.8-.2v-4.9h-.9c-.1 0-.2 0-.2-.6v-.1c0-.6 0-.6.2-.6h.9zM61.2 15.1c-.2.5-.3.5-.4.4-.5-.3-.9-.5-1.5-.5-.7 0-1.1.4-1.1 1s.7.9 1.4 1.3c1 .5 2.2 1.1 2.2 2.7 0 1.5-1 2.6-3 2.6-1.1 0-2-.4-2.6-.8-.2-.1-.2-.3 0-.7l.1-.3c.2-.4.3-.5.5-.4.6.4 1.2.7 1.8.7.8 0 1.3-.4 1.3-1 0-.8-.7-1-1.4-1.4-1-.5-2.1-1.1-2.1-2.5 0-1.6 1.3-2.6 2.8-2.6.8 0 1.6.2 2.2.6.2.1.2.3 0 .7l-.2.2zM67.7 17.4c-.2.4-.3.4-.4.4-.4-.3-.8-.5-1.3-.5-.8 0-1.5.5-1.5 1.8 0 1.2.5 1.9 1.6 1.9.5 0 .9-.1 1.4-.4.1-.1.2 0 .4.4l.1.2c.2.4.2.5.1.6-.5.3-1.3.6-2.1.6-.9 0-1.6-.3-2.1-.7-.6-.6-1-1.5-1-2.6 0-1 .3-1.9.9-2.5.5-.5 1.3-.9 2.3-.9.8 0 1.5.3 2.1.7.1.1.1.2-.1.6l-.4.4zM74.8 19.1c0 2.2-1.1 3.5-3.1 3.5-1.8 0-2.9-1.1-2.9-3.2 0-2.2 1.1-3.5 3.1-3.5 1.8 0 2.9 1.1 2.9 3.2zm-4.3.1c0 1.2.4 1.8 1.2 1.8 1 0 1.4-.7 1.4-1.9s-.4-1.8-1.2-1.8c-1 0-1.4.7-1.4 1.9zM77.3 14.2c.7 0 .8 0 .8.2v1.6h1.4c.1 0 .2 0 .2.6v.1c0 .6 0 .6-.2.6h-1.4v3c0 .4.1.5.2.7.1.1.3.2.5.2s.4 0 .6-.1c.1 0 .2 0 .3.5v.1c.1.5.1.5 0 .6-.4.2-.9.3-1.4.3-.7 0-1.2-.2-1.5-.5-.3-.3-.5-.9-.5-1.6v-3.1h-.8c-.1 0-.2 0-.2-.6v-.1c0-.6 0-.6.2-.6h.8v-1.6c.1-.2.1-.3 1-.3zM81.8 13.2c.7 0 .8 0 .8.2.1.4.1 1.9.1 3.5v3.9c0 .3.1.4.4.4h.1c.1 0 .1.1.1.5v.1c0 .4 0 .5-.1.5-.2.1-.5.1-.8.1-.4 0-.8-.1-1-.4-.3-.3-.4-.7-.4-1.3v-4.2c0-1.2-.1-2.8-.1-3.3h.9zM88.5 16.1c0-.1.1-.2.7-.2h.1c.6 0 .7 0 .7.2v3.3c0 .9 0 2 .1 2.7 0 .2 0 .2-.7.2h-.1c-.6 0-.7 0-.7-.2l-.1-.4c-.4.4-1 .7-1.7.7-1.6 0-2.6-1.2-2.6-3.2 0-2.2 1.2-3.5 2.7-3.5.7 0 1.3.3 1.5.7l.1-.3zm-.2 1.8c-.2-.4-.6-.6-1.1-.6-.9 0-1.3.7-1.3 2 0 1.1.3 1.9 1.3 1.9.4 0 .7-.1.9-.4.1-.2.2-.4.2-.7v-2.2zM92.3 16c.6 0 .7 0 .8.2 0 .1.1.3.1.5.4-.5 1-.8 1.8-.8.7 0 1.3.2 1.7.7.4.5.6 1 .6 2v3.7c0 .1-.1.2-.8.2h-.1c-.8 0-.8 0-.8-.2v-3.3c0-.8 0-1.1-.2-1.3-.2-.2-.5-.3-.8-.3-.3 0-.6.1-.8.2-.3.2-.3.4-.3.6v4c0 .1-.1.2-.8.2h-.1c-.8 0-.8 0-.8-.2v-3.4c0-.9 0-2-.1-2.7-.2-.1-.1-.1.6-.1zM103.4 13.2c.7 0 .8 0 .8.2v7.4c0 .3.1.3.4.3.1 0 .2.1.2.5v.1c0 .4 0 .5-.1.6-.2.1-.5.1-.9.1-.5 0-.9-.2-1.1-.6-.4.4-1 .7-1.7.7-1.6 0-2.6-1.2-2.6-3.2 0-2.2 1.1-3.4 2.7-3.4.6 0 1 .2 1.4.5v-3.1c.1-.1.1-.1.9-.1zm-.8 4.7c-.3-.4-.7-.6-1.1-.6-.9 0-1.3.7-1.3 2 0 .7.2 1.2.4 1.5.2.3.6.4.9.4.3 0 .7-.1.9-.3.1-.1.2-.3.2-.7v-2.3z"/></svg>