<svg xmlns="http://www.w3.org/2000/svg" viewBox="0 0 268 268" enable-background="new 0 0 268 268"><g fill="#1D1D1B"><path d="M123.7 123.1c22 4 42.6-11.5 48.3-27.1-3.6 21.4-25.8 39.7-48.3 41.5v-14.4zM123.7 146.6c22 4 42.6-11.5 48.3-27.1-3.6 21.4-25.8 39.7-48.3 41.5v-14.4zM123.7 170.2c22 4 42.6-11.5 48.3-27.1-3.6 21.4-25.8 39.7-48.3 41.5v-14.4zM33 195.2h-.4c-.6-1.8-2.2-3.2-3.8-3.2-1.4 0-2.5.9-2.5 2.1 0 .6.3 1.2.8 1.6.8.8 4.3 2.6 5.2 3.6 1.1 1.2 1.7 2.2 1.7 3.5 0 3.4-3 4.4-4.9 4.4-1.8 0-2.9-.6-3.7-.6-.3 0-.6.2-.8.5h-.6v-4.6h.4c.4 2.3 1.9 3.8 4.1 3.8 1.6 0 2.8-.9 2.8-2.2 0-.5-.2-1.2-.8-1.7-1.2-1.2-3.9-2.3-5.1-3.6-.9-.9-1.4-2-1.4-3.2 0-2.6 2-4.5 4.8-4.5.6 0 1.1.1 1.6.2s.9.2 1.3.2c.2 0 .5-.1.8-.4h.5v4.1zM47.4 200.2h-.4c-1-2-2.1-3-3.6-3-2 0-3.2 1.7-3.2 4.4 0 2.8 1.4 4.5 3.6 4.5 1.5 0 2.3-.4 3.4-1.9h.5c-1 2.1-2.7 3.1-5.3 3.1-3.3 0-5.6-2.1-5.6-5.1 0-3.1 2.5-5.5 5.9-5.5.7 0 1.3.1 1.9.2.6.1 1 .2 1.4.2.4 0 .5 0 .8-.3h.4l.2 3.4zM59 201.9c0 2.9-1 4.6-2.9 4.6-1.8 0-2.9-1.8-2.9-4.5 0-2.8.8-4.8 2.9-4.8 2 .1 2.9 1.9 2.9 4.7zm3.3 0c0-2.4-1.9-5.3-6.2-5.3-4.7 0-6.2 3.3-6.2 5.3 0 2.6 2.1 5.3 6.2 5.3 4.1.1 6.2-2.7 6.2-5.3zM66.4 197.8h-1.8v-.5c1.2-.8 2.9-2.3 4.2-4.1h.5v3.8h3.2v.8h-3.2v5.7c0 1.6.4 2.5 1.8 2.5.5 0 1-.2 1.4-.8l.3.3c-.7 1.2-1.7 1.8-3.2 1.8-1.9 0-3.4-.9-3.4-3.1v-6.4zM76.3 197.8h-1.8v-.5c1.2-.8 2.8-2.3 4.2-4.1h.5v3.8h3.2v.8h-3.2v5.7c0 1.6.4 2.5 1.8 2.5.5 0 1-.2 1.4-.8l.3.3c-.7 1.2-1.7 1.8-3.2 1.8-1.9 0-3.4-.9-3.4-3.1v-6.4zM89.4 204.7c0 1 .5 1.5 1.6 1.7v.4h-6.2v-.4c1.3-.3 1.7-.6 1.7-1.9v-5.3c0-1.2-.3-1.5-1.8-1.8v-.4l4.3-.4h.5v8.1zm-1.5-14.2c.9 0 1.7.8 1.7 1.7 0 .9-.8 1.7-1.7 1.7-.9 0-1.7-.8-1.7-1.7 0-1 .8-1.7 1.7-1.7zM100.6 199.7h-.4c-.6-1.5-1.7-2.4-3-2.4-.9 0-1.6.4-1.6 1.1 0 2.1 5.7 1.4 5.7 5.4 0 2.1-2 3.4-3.6 3.4-.6 0-1.2-.1-1.6-.2-.5-.1-.8-.2-1.1-.2-.4 0-.7.1-.9.3h-.4v-3.8h.3c1 2.1 2.2 3.1 3.6 3.1.9 0 1.8-.7 1.8-1.4 0-2.6-5.8-1.8-5.8-5.5 0-1.6 1.3-3 3.5-3 .4 0 1 .1 1.5.1.5.1.9.2 1.1.2.2 0 .5-.2.6-.3h.4v3.2zM108.2 199c1.1-1.7 2.2-2.4 3.7-2.4 2.1 0 3.5 1.4 3.5 3.8v4.3c0 .9.2 1.5 1.5 1.8v.4h-6v-.4c1.1-.3 1.5-.7 1.5-1.9v-4c0-1.5-.6-2.4-1.8-2.4-1 0-1.7.7-2.5 1.6v4.9c0 1 .3 1.4 1.6 1.7v.4h-6v-.4c1.1-.3 1.5-.8 1.5-1.9v-11.7c0-.9-.4-1.3-1.5-1.6v-.5l4-.3h.4v8.6zM220.6 67.9c-22-4-42.6 11.5-48.3 27.1 3.6-21.4 25.8-39.7 48.3-41.5v14.4zM220.6 91.4c-22-4-42.6 11.5-48.3 27.1 3.6-21.4 25.8-39.7 48.3-41.5v14.4zM220.6 115c-22-4-42.6 11.5-48.3 27.1 3.6-21.4 25.8-39.7 48.3-41.5v14.4zM132.6 201.6h-.5c-.2-1.3-.9-2-2.1-2h-2.7v4.5c0 1.4.6 1.9 2.1 1.9h.9c1.9 0 2.7-1.4 3.2-2.8h.4l-.3 3.7h-11.6v-.4c1.7-.4 1.9-.9 1.9-2.5v-9.8c0-1.3-.3-1.8-1.9-2.1v-.4h11.5v3.4h-.5c-.5-2-1.1-2.5-2.8-2.5h-3v6.3h2.7c1.2 0 1.8-.5 2.1-1.9h.5v4.6zM144.9 200.6c0-1.5-.7-2.4-1.8-2.4-1 0-1.8.6-2.5 1.7v4.6c0 1 .2 1.5 1.5 1.9v.4h-6v-.4c1.1-.3 1.5-.7 1.5-1.7v-5.5c0-1.1-.5-1.6-1.8-1.7v-.5l4.3-.4h.5v2.4h.1c.8-1.4 2.1-2.4 3.7-2.4 1.5 0 3.5 1 3.5 3.6v4.3c0 1 .2 1.6 1.5 1.9v.4h-6.1v-.4c1.2-.3 1.6-.7 1.6-1.8v-4zM153.3 197.8h-1.8v-.5c1.2-.8 2.9-2.3 4.2-4.1h.5v3.8h3.2v.8h-3.2v5.7c0 1.6.4 2.5 1.8 2.5.5 0 1-.2 1.4-.8l.3.3c-.7 1.2-1.7 1.8-3.2 1.8-1.9 0-3.3-.9-3.3-3.1v-6.4zM165.1 200.5c.1-1.9.9-3.1 2.1-3.1 1.2 0 2.1 1.3 2.2 3.1h-4.3zm7.5.6c-.4-2.7-2.4-4.5-5.2-4.5-3.1 0-5.5 2.3-5.5 5.4 0 3 2.3 5.3 5.4 5.3 2.4 0 4.4-1.3 5.3-3.4h-.4c-.9 1.4-2.1 2.1-3.5 2.1-1.8 0-3.7-1.7-3.5-4.9h7.4zM183.8 200.4c-.9-.8-1.5-1.3-2.2-1.3-.9 0-1.4.4-2.2 1.4v4c0 1.2.2 1.5 1.7 1.8v.4h-6.3v-.4c1.3-.3 1.6-.7 1.6-1.8v-5.2c0-1.3-.5-1.8-1.8-1.9v-.4l4.3-.4h.4v3.1c1-2.1 2-3.1 3.3-3.1.6 0 1.3.3 1.7.8l-.5 3zM190.8 199.2c.8-.9 1.5-1.3 2.5-1.3 1.8 0 2.9 1.6 2.9 4.2 0 2.5-1.2 4.1-2.9 4.1-.9 0-1.6-.3-2.4-1.2v-5.8zm-3 12.4c0 1.8-.3 2.3-1.8 2.5v.4h6.6v-.4c-1.5-.3-1.8-.7-1.8-2.1v-6.2c1.5 1.2 2.2 1.4 3.5 1.4 3 0 5.2-2.3 5.2-5.4 0-3-2-5.2-4.7-5.2-1.5 0-2.9.7-4 1.9v-1.9h-.5l-4.3.4v.4c1.6.3 1.8.8 1.8 2.1v12.1zM211 200.4c-.9-.8-1.6-1.3-2.2-1.3-.9 0-1.4.4-2.2 1.4v4c0 1.2.2 1.5 1.7 1.8v.4h-6.3v-.4c1.3-.3 1.6-.7 1.6-1.8v-5.2c0-1.3-.5-1.8-1.8-1.9v-.4l4.3-.4h.4v3.1c1-2.1 2-3.1 3.3-3.1.7 0 1.3.3 1.8.8l-.6 3zM218.8 204.7c0 1 .5 1.5 1.6 1.7v.4h-6.2v-.4c1.3-.3 1.6-.6 1.6-1.9v-5.3c0-1.2-.3-1.5-1.8-1.8v-.4l4.3-.4h.5v8.1zm-1.5-14.2c.9 0 1.7.8 1.7 1.7 0 .9-.8 1.7-1.7 1.7-.9 0-1.7-.8-1.7-1.7 0-1 .8-1.7 1.7-1.7zM230 199.7h-.4c-.6-1.5-1.7-2.4-3-2.4-.9 0-1.6.4-1.6 1.1 0 2.1 5.7 1.4 5.7 5.4 0 2.1-2 3.4-3.6 3.4-.6 0-1.2-.1-1.6-.2-.5-.1-.8-.2-1.1-.2-.4 0-.7.1-.9.3h-.5v-3.8h.4c1 2.1 2.2 3.1 3.6 3.1.9 0 1.8-.7 1.8-1.4 0-2.6-5.8-1.8-5.8-5.5 0-1.6 1.3-3 3.5-3 .4 0 1 .1 1.5.1.5.1.9.2 1.1.2.2 0 .5-.2.6-.3h.4v3.2zM236.6 200.5c.1-1.9.9-3.1 2.1-3.1 1.2 0 2.1 1.3 2.2 3.1h-4.3zm7.4.6c-.4-2.7-2.4-4.5-5.2-4.5-3.1 0-5.5 2.3-5.5 5.4 0 3 2.3 5.3 5.4 5.3 2.4 0 4.4-1.3 5.3-3.4h-.4c-.9 1.4-2.1 2.1-3.5 2.1-1.8 0-3.7-1.7-3.5-4.9h7.4z"/></g></svg>