<?xml version="1.0" encoding="utf-8"?>
<!-- Generator: Adobe Illustrator 18.1.0, SVG Export Plug-In . SVG Version: 6.00 Build 0)  -->
<!DOCTYPE svg PUBLIC "-//W3C//DTD SVG 1.1//EN" "http://www.w3.org/Graphics/SVG/1.1/DTD/svg11.dtd">
<svg version="1.1" id="Layer_1" xmlns="http://www.w3.org/2000/svg" xmlns:xlink="http://www.w3.org/1999/xlink" x="0px" y="0px"
	 viewBox="0 0 268 268" enable-background="new 0 0 268 268" xml:space="preserve">
<g>
	<path fill="#1D1D1B" d="M123.7,123.1c22,4,42.6-11.5,48.3-27.1c-3.6,21.4-25.8,39.7-48.3,41.5V123.1z"/>
	<path fill="#1D1D1B" d="M123.7,146.6c22,4,42.6-11.5,48.3-27.1c-3.6,21.4-25.8,39.7-48.3,41.5V146.6z"/>
	<path fill="#1D1D1B" d="M123.7,170.2c22,4,42.6-11.5,48.3-27.1c-3.6,21.4-25.8,39.7-48.3,41.5V170.2z"/>
	<path fill="#1D1D1B" d="M33,195.2h-0.4c-0.6-1.8-2.2-3.2-3.8-3.2c-1.4,0-2.5,0.9-2.5,2.1c0,0.6,0.3,1.2,0.8,1.6
		c0.8,0.8,4.3,2.6,5.2,3.6c1.1,1.2,1.7,2.2,1.7,3.5c0,3.4-3,4.4-4.9,4.4c-1.8,0-2.9-0.6-3.7-0.6c-0.3,0-0.6,0.2-0.8,0.5H24v-4.6h0.4
		c0.4,2.3,1.9,3.8,4.1,3.8c1.6,0,2.8-0.9,2.8-2.2c0-0.5-0.2-1.2-0.8-1.7c-1.2-1.2-3.9-2.3-5.1-3.6c-0.9-0.9-1.4-2-1.4-3.2
		c0-2.6,2-4.5,4.8-4.5c0.6,0,1.1,0.1,1.6,0.2c0.5,0.1,0.9,0.2,1.3,0.2c0.2,0,0.5-0.1,0.8-0.4H33V195.2z"/>
	<path fill="#1D1D1B" d="M47.4,200.2H47c-1-2-2.1-3-3.6-3c-2,0-3.2,1.7-3.2,4.4c0,2.8,1.4,4.5,3.6,4.5c1.5,0,2.3-0.4,3.4-1.9h0.5
		c-1,2.1-2.7,3.1-5.3,3.1c-3.3,0-5.6-2.1-5.6-5.1c0-3.1,2.5-5.5,5.9-5.5c0.7,0,1.3,0.1,1.9,0.2c0.6,0.1,1,0.2,1.4,0.2
		c0.4,0,0.5,0,0.8-0.3h0.4L47.4,200.2z"/>
	<path fill="#1D1D1B" d="M59,201.9c0,2.9-1,4.6-2.9,4.6c-1.8,0-2.9-1.8-2.9-4.5c0-2.8,0.8-4.8,2.9-4.8C58.1,197.3,59,199.1,59,201.9
		z M62.3,201.9c0-2.4-1.9-5.3-6.2-5.3c-4.7,0-6.2,3.3-6.2,5.3c0,2.6,2.1,5.3,6.2,5.3C60.2,207.3,62.3,204.5,62.3,201.9z"/>
	<path fill="#1D1D1B" d="M66.4,197.8h-1.8v-0.5c1.2-0.8,2.9-2.3,4.2-4.1h0.5v3.8h3.2v0.8h-3.2v5.7c0,1.6,0.4,2.5,1.8,2.5
		c0.5,0,1-0.2,1.4-0.8l0.3,0.3c-0.7,1.2-1.7,1.8-3.2,1.8c-1.9,0-3.4-0.9-3.4-3.1V197.8z"/>
	<path fill="#1D1D1B" d="M76.3,197.8h-1.8v-0.5c1.2-0.8,2.8-2.3,4.2-4.1h0.5v3.8h3.2v0.8h-3.2v5.7c0,1.6,0.4,2.5,1.8,2.5
		c0.5,0,1-0.2,1.4-0.8l0.3,0.3c-0.7,1.2-1.7,1.8-3.2,1.8c-1.9,0-3.4-0.9-3.4-3.1V197.8z"/>
	<path fill="#1D1D1B" d="M89.4,204.7c0,1,0.5,1.5,1.6,1.7v0.4h-6.2v-0.4c1.3-0.3,1.7-0.6,1.7-1.9v-5.3c0-1.2-0.3-1.5-1.8-1.8V197
		l4.3-0.4h0.5V204.7z M87.9,190.5c0.9,0,1.7,0.8,1.7,1.7c0,0.9-0.8,1.7-1.7,1.7c-0.9,0-1.7-0.8-1.7-1.7
		C86.2,191.2,87,190.5,87.9,190.5z"/>
	<path fill="#1D1D1B" d="M100.6,199.7h-0.4c-0.6-1.5-1.7-2.4-3-2.4c-0.9,0-1.6,0.4-1.6,1.1c0,2.1,5.7,1.4,5.7,5.4
		c0,2.1-2,3.4-3.6,3.4c-0.6,0-1.2-0.1-1.6-0.2c-0.5-0.1-0.8-0.2-1.1-0.2c-0.4,0-0.7,0.1-0.9,0.3h-0.4v-3.8H94c1,2.1,2.2,3.1,3.6,3.1
		c0.9,0,1.8-0.7,1.8-1.4c0-2.6-5.8-1.8-5.8-5.5c0-1.6,1.3-3,3.5-3c0.4,0,1,0.1,1.5,0.1c0.5,0.1,0.9,0.2,1.1,0.2
		c0.2,0,0.5-0.2,0.6-0.3h0.4V199.7z"/>
	<path fill="#1D1D1B" d="M108.2,199L108.2,199c1.1-1.7,2.2-2.4,3.7-2.4c2.1,0,3.5,1.4,3.5,3.8v4.3c0,0.9,0.2,1.5,1.5,1.8v0.4h-6
		v-0.4c1.1-0.3,1.5-0.7,1.5-1.9v-4c0-1.5-0.6-2.4-1.8-2.4c-1,0-1.7,0.7-2.5,1.6v4.9c0,1,0.3,1.4,1.6,1.7v0.4h-6v-0.4
		c1.1-0.3,1.5-0.8,1.5-1.9v-11.7c0-0.9-0.4-1.3-1.5-1.6v-0.5l4-0.3h0.4V199z"/>
	<g>
		<path fill="#1D1D1B" d="M220.6,67.9c-22-4-42.6,11.5-48.3,27.1c3.6-21.4,25.8-39.7,48.3-41.5V67.9z"/>
		<path fill="#1D1D1B" d="M220.6,91.4c-22-4-42.6,11.5-48.3,27.1c3.6-21.4,25.8-39.7,48.3-41.5V91.4z"/>
		<path fill="#1D1D1B" d="M220.6,115c-22-4-42.6,11.5-48.3,27.1c3.6-21.4,25.8-39.7,48.3-41.5V115z"/>
		<path fill="#1D1D1B" d="M132.6,201.6h-0.5c-0.2-1.3-0.9-2-2.1-2h-2.7v4.5c0,1.4,0.6,1.9,2.1,1.9h0.9c1.9,0,2.7-1.4,3.2-2.8h0.4
			l-0.3,3.7H122v-0.4c1.7-0.4,1.9-0.9,1.9-2.5v-9.8c0-1.3-0.3-1.8-1.9-2.1v-0.4h11.5v3.4H133c-0.5-2-1.1-2.5-2.8-2.5h-3v6.3h2.7
			c1.2,0,1.8-0.5,2.1-1.9h0.5V201.6z"/>
		<path fill="#1D1D1B" d="M144.9,200.6c0-1.5-0.7-2.4-1.8-2.4c-1,0-1.8,0.6-2.5,1.7v4.6c0,1,0.2,1.5,1.5,1.9v0.4h-6v-0.4
			c1.1-0.3,1.5-0.7,1.5-1.7v-5.5c0-1.1-0.5-1.6-1.8-1.7V197l4.3-0.4h0.5v2.4h0.1c0.8-1.4,2.1-2.4,3.7-2.4c1.5,0,3.5,1,3.5,3.6v4.3
			c0,1,0.2,1.6,1.5,1.9v0.4h-6.1v-0.4c1.2-0.3,1.6-0.7,1.6-1.8V200.6z"/>
		<path fill="#1D1D1B" d="M153.3,197.8h-1.8v-0.5c1.2-0.8,2.9-2.3,4.2-4.1h0.5v3.8h3.2v0.8h-3.2v5.7c0,1.6,0.4,2.5,1.8,2.5
			c0.5,0,1-0.2,1.4-0.8l0.3,0.3c-0.7,1.2-1.7,1.8-3.2,1.8c-1.9,0-3.3-0.9-3.3-3.1V197.8z"/>
		<path fill="#1D1D1B" d="M165.1,200.5c0.1-1.9,0.9-3.1,2.1-3.1c1.2,0,2.1,1.3,2.2,3.1H165.1z M172.6,201.1
			c-0.4-2.7-2.4-4.5-5.2-4.5c-3.1,0-5.5,2.3-5.5,5.4c0,3,2.3,5.3,5.4,5.3c2.4,0,4.4-1.3,5.3-3.4h-0.4c-0.9,1.4-2.1,2.1-3.5,2.1
			c-1.8,0-3.7-1.7-3.5-4.9H172.6z"/>
		<path fill="#1D1D1B" d="M183.8,200.4c-0.9-0.8-1.5-1.3-2.2-1.3c-0.9,0-1.4,0.4-2.2,1.4v4c0,1.2,0.2,1.5,1.7,1.8v0.4h-6.3v-0.4
			c1.3-0.3,1.6-0.7,1.6-1.8v-5.2c0-1.3-0.5-1.8-1.8-1.9V197l4.3-0.4h0.4v3.1h0c1-2.1,2-3.1,3.3-3.1c0.6,0,1.3,0.3,1.7,0.8
			L183.8,200.4z"/>
		<path fill="#1D1D1B" d="M190.8,199.2c0.8-0.9,1.5-1.3,2.5-1.3c1.8,0,2.9,1.6,2.9,4.2c0,2.5-1.2,4.1-2.9,4.1
			c-0.9,0-1.6-0.3-2.4-1.2V199.2z M187.8,211.6c0,1.8-0.3,2.3-1.8,2.5v0.4h6.6v-0.4c-1.5-0.3-1.8-0.7-1.8-2.1v-6.2
			c1.5,1.2,2.2,1.4,3.5,1.4c3,0,5.2-2.3,5.2-5.4c0-3-2-5.2-4.7-5.2c-1.5,0-2.9,0.7-4,1.9v-1.9h-0.5L186,197v0.4
			c1.6,0.3,1.8,0.8,1.8,2.1V211.6z"/>
		<path fill="#1D1D1B" d="M211,200.4c-0.9-0.8-1.6-1.3-2.2-1.3c-0.9,0-1.4,0.4-2.2,1.4v4c0,1.2,0.2,1.5,1.7,1.8v0.4h-6.3v-0.4
			c1.3-0.3,1.6-0.7,1.6-1.8v-5.2c0-1.3-0.5-1.8-1.8-1.9V197l4.3-0.4h0.4v3.1h0c1-2.1,2-3.1,3.3-3.1c0.7,0,1.3,0.3,1.8,0.8L211,200.4
			z"/>
		<path fill="#1D1D1B" d="M218.8,204.7c0,1,0.5,1.5,1.6,1.7v0.4h-6.2v-0.4c1.3-0.3,1.6-0.6,1.6-1.9v-5.3c0-1.2-0.3-1.5-1.8-1.8V197
			l4.3-0.4h0.5V204.7z M217.3,190.5c0.9,0,1.7,0.8,1.7,1.7c0,0.9-0.8,1.7-1.7,1.7c-0.9,0-1.7-0.8-1.7-1.7
			C215.6,191.2,216.4,190.5,217.3,190.5z"/>
		<path fill="#1D1D1B" d="M230,199.7h-0.4c-0.6-1.5-1.7-2.4-3-2.4c-0.9,0-1.6,0.4-1.6,1.1c0,2.1,5.7,1.4,5.7,5.4
			c0,2.1-2,3.4-3.6,3.4c-0.6,0-1.2-0.1-1.6-0.2c-0.5-0.1-0.8-0.2-1.1-0.2c-0.4,0-0.7,0.1-0.9,0.3H223v-3.8h0.4
			c1,2.1,2.2,3.1,3.6,3.1c0.9,0,1.8-0.7,1.8-1.4c0-2.6-5.8-1.8-5.8-5.5c0-1.6,1.3-3,3.5-3c0.4,0,1,0.1,1.5,0.1
			c0.5,0.1,0.9,0.2,1.1,0.2c0.2,0,0.5-0.2,0.6-0.3h0.4V199.7z"/>
		<path fill="#1D1D1B" d="M236.6,200.5c0.1-1.9,0.9-3.1,2.1-3.1c1.2,0,2.1,1.3,2.2,3.1H236.6z M244,201.1c-0.4-2.7-2.4-4.5-5.2-4.5
			c-3.1,0-5.5,2.3-5.5,5.4c0,3,2.3,5.3,5.4,5.3c2.4,0,4.4-1.3,5.3-3.4h-0.4c-0.9,1.4-2.1,2.1-3.5,2.1c-1.8,0-3.7-1.7-3.5-4.9H244z"
			/>
	</g>
</g>
</svg>
