<svg xmlns="http://www.w3.org/2000/svg" viewBox="0 0 268 268" enable-background="new 0 0 268 268"><path d="M241.4 134.4h-6.9v8h-2.3v-17.1h2.3v6.9h6.9v-6.9h2.3v17.1h-2.3v-8zM35 129.3c-.6.2-1.3.4-2 .6-.1-.3-.2-.5-.3-.7-.7-1.8-2.5-2.6-4.3-1.9-.8.3-1.3.9-1.4 1.8-.1.9.2 1.7 1 2.2.3.2.6.4 1 .5l3.4 1.5c2.2 1 3.1 2.7 2.9 5-.3 2.2-1.8 3.8-4 4.2-3.6.7-6.3-1.2-7-4.9l1.9-.6c.2.6.4 1.1.6 1.6.9 1.9 3.2 2.6 5 1.6 1.6-.9 1.8-3.3.4-4.5-.5-.4-1.2-.7-1.8-1l-3.1-1.4c-1.8-.9-2.5-2.3-2.3-4.2.2-1.9 1.2-3.1 3-3.7 3.2-1.2 6.4.5 7 3.9zM72.1 137.8l1.8 1.2c-1.3 2-2.9 3.5-5.4 3.6-2.5.1-4.5-.8-5.5-3.1-1.8-3.7-1.8-7.6 0-11.3 1-2 2.8-3.1 5-3.2 1.6-.1 3.1.5 4.2 1.7.5.6.9 1.2 1.4 1.9-.7.4-1.3.7-2 1l-.8-1.2c-1.6-1.9-4.2-1.8-5.5.3-.5.9-.8 2.1-1 3.1-.3 2-.2 3.9.4 5.9.5 1.4 1.3 2.5 2.9 2.7 1.6.2 2.8-.4 3.8-1.6.1-.2.4-.6.7-1zM128.8 142.3h-2.1v-15h-4.7v-2h11.4v1.9h-4.5c-.1 5.1-.1 10.1-.1 15.1zM219.2 142.3h-2.1v-15h-4.7v-2h11.4v1.9h-4.5c-.1 5.1-.1 10.1-.1 15.1zM43.3 127.3v-1.9h10.7v1.9h-10.7zM54.1 140.4v1.9h-10.7v-1.9h10.7zM102 127.3v-1.9h10.7v1.9h-10.7zM102.1 142.3v-1.9h10.7v1.9h-10.7zM43.4 134.8v-1.9h10.7v1.9h-10.7zM152.9 127.3v-1.9h10.7v1.9h-10.7zM163.6 140.4v1.9h-10.7v-1.9h10.7zM152.9 134.8v-1.9h10.7v1.9h-10.7zM112.8 132.9v1.9h-10.7v-1.9h10.7zM89.9 134.7c.3-.1.5-.2.7-.3 1.9-.9 3-3.1 2.7-5.3-.3-2-1.5-3.5-3.5-3.7-2.4-.3-7.3-.2-7.3-.2v17h2.2v-7.2h3.1l.3.6c1.2 2.2 3.9 6.9 4 7.1.7-.4 1.3-.8 1.9-1.2-1.4-2.2-2.8-4.5-4.1-6.8zm-1.5-1.7c-1.2.1-2.5 0-3.7 0v-5.7h3.7c1.3 0 2.2.6 2.5 1.7.4 1.3 0 2.7-1 3.4-.5.3-1 .5-1.5.6zM201.2 134.7c.3-.1.5-.2.7-.3 1.9-.9 3-3.1 2.7-5.3-.3-2-1.5-3.5-3.5-3.7-2.4-.3-7.3-.2-7.3-.2v17h2.2v-7.2h3.1l.3.6c1.2 2.2 3.9 6.9 4 7.1.7-.4 1.3-.8 1.9-1.2-1.4-2.2-2.7-4.5-4.1-6.8zm-1.5-1.7c-1.2.1-2.5 0-3.7 0v-5.7h3.7c1.3 0 2.2.6 2.5 1.7.4 1.3 0 2.7-1 3.4-.5.3-1 .5-1.5.6zM180 125.3h-2.8l-5.5 16.9 2.2.8 1.6-5.3h6.2l1.7 5.3 2.2-.8-5.6-16.9zm-3.9 10.4c.8-2.6 1.6-5.2 2.5-8 .9 2.8 1.7 5.4 2.5 8h-5z"/></svg>