<svg xmlns="http://www.w3.org/2000/svg" viewBox="0 0 268 268" enable-background="new 0 0 268 268"><path d="M183.4 167.7c0-5.4-1.5-9.9-4.2-12.6-2.1-2.1-4.8-3.1-8.2-3.1h-4.8v33h17.3v-17.3zM210.7 184.9v-25.9c0-13.7-4-24.8-11.4-32.3-6.6-6.6-15.7-10.1-26.1-10.1h-7v32.7h4.8c4.1 0 7.5 1.3 10.1 3.9 3.2 3.2 5 8.4 5 14.5v17.2h24.6zM166.1 81.3v32.6h7c11 0 20.9 3.9 28 10.9 8 8 12.2 19.8 12.2 34.2v25.9h30.5v-23.1c.1-46.2-32.2-80.5-77.7-80.5zM100.7 113.3h-6.5v-25.4h-9.3v-5.5h25.1v5.5h-9.3zM118.4 99.5v13.8h-6.5v-30.9h6.5v11.7h12v-11.7h6.5v30.9h-6.5v-13.8zM161.7 87.9h-16.4v6.5h15v5.4h-15v8h17.1v5.5h-23.5v-30.9h22.8zM43.8 118.4h6v30.9h-6.5l-12.6-22.1h-.1v22.1h-6v-30.9h6.8l12.3 21.5h.1zM125.1 149.3h-6.4v-25.5h-9.4v-5.4h25.2v5.4h-9.4zM142.8 135.4v13.9h-6.5v-30.9h6.5v11.7h12.1v-11.7h6.4v30.9h-6.4v-13.9zM69 185.3h-6.5v-31h22v5.5h-15.5v7h13.6v5.5h-13.6zM130.1 164.5c-.5-1.9-1.5-5.3-6.8-5.3-3.1 0-7.7 2.1-7.7 10.8 0 5.6 2.2 10.6 7.7 10.6 3.6 0 6.1-2 6.8-5.8h6.5c-1.3 6.7-5.7 11.4-13.4 11.4-8.2 0-14.1-5.6-14.1-16.2 0-10.8 6.2-16.3 14.2-16.3 9.3 0 13 6.4 13.4 10.9h-6.6zM161.7 159.8h-16.4v6.5h15v5.5h-15v8h17.1v5.5h-23.5v-31h22.8zM66 117.6c-4.1 0-14.9 1.8-14.9 16.3s10.8 16.3 14.9 16.3 14.9-1.8 14.9-16.3c0-14.6-10.8-16.3-14.9-16.3zm0 27c-3.5 0-8.4-2.2-8.4-10.8 0-8.7 4.9-10.8 8.4-10.8s8.4 2.2 8.4 10.8c0 8.7-4.9 10.8-8.4 10.8zM107.1 142.3c0-5.8-1.4-6.7-3.9-7.8 3.1-1 4.8-4 4.8-7.4 0-2.7-1.5-8.7-9.7-8.7h-15.7v30.9h6.3v-12.1h6.7c4.8 0 5 1.6 5 5.9 0 3.2.3 4.8.7 6.2h7.1v-.8c-1.3-.5-1.3-1.7-1.3-6.2zm-10.6-10.3h-7.6v-8.3h8.1c3.8 0 4.5 2.4 4.5 4 0 3.1-1.6 4.3-5 4.3zM99.7 154.3h-7.5l-11 30.9h6.8l2.2-6.4h11.4l2 6.4h7l-10.9-30.9zm-7.8 19.3l4-12.2h.1l3.8 12.2h-7.9zM54.5 171.9c-3.5 0-6.6 2.4-6.6 6.6 0 4.2 3.1 6.6 6.6 6.6 3.5 0 6.6-2.4 6.6-6.6 0-4.2-3.1-6.6-6.6-6.6zm0 11.7c-2.6 0-4.7-2-4.7-5.1 0-3 2.1-5.1 4.7-5.1 2.5 0 4.7 2 4.7 5.1 0 3-2.2 5.1-4.7 5.1zM55.7 178.9c.9-.1 1.7-.5 1.7-1.8 0-1.6-1.1-2.1-2.9-2.1h-2.7v7.1h1.5v-3h.7l1.6 3h1.8l-1.7-3.2zm-1-1.1h-1.3v-1.7h1.1c.6 0 1.4.1 1.4.8-.1.8-.5.9-1.2.9zM47 248"/></svg>