<svg xmlns="http://www.w3.org/2000/svg" viewBox="0 0 268 268" enable-background="new 0 0 268 268"><g><path fill="#fff" d="M60.4 88.3c1.2 1.1 1.5 1.7 2 1.8 22.3 3.9 42 14.4 61.9 24.5 20.9 10.6 34.1 7.2 47-12 6.9-10.2 12.8-21 26.2-25.5-5.9-1.4-11-1.7-15.2-3.9-5.8-3-10.5-2.3-16.1.4-26.4 13.1-54 19.9-83.8 15.9-6.9-1-14-.8-22-1.2z"/><path d="M60.4 88.3c8 .4 15.1.2 22.1 1.2 29.7 4 57.4-2.8 83.8-15.9 5.6-2.8 10.3-3.5 16.1-.4 4.2 2.2 9.3 2.5 15.2 3.9-13.5 4.5-19.3 15.3-26.2 25.5-13 19.2-26.2 22.6-47 12-20-10.1-39.6-20.6-62-24.5-.4-.1-.8-.7-2-1.8z"/></g><g fill="#1D1D1B"><path d="M31.5 146.4h3.8v10.3h7v3.5h-7v17.5c0 1.4.4 2.6 1.2 3.4s1.8 1.2 3.1 1.2c.7 0 1.6-.1 2.7-.4v3.4c-1.3.2-2.4.2-3.3.2-2.7 0-4.6-.6-5.7-1.7-1.1-1.1-1.7-2.9-1.7-5.5v-18.2h-4.9v-3.5h4.9v-10.2zM44.7 156.7h3.8v18.5c0 2 .5 3.6 1.5 4.8 1 1.2 2.2 1.7 3.6 1.7 1.2 0 2.6-.3 4.1-1s3.3-1.9 5.6-3.8v-20.2h3.8v28.1h-3.8v-4.5c-2.1 1.7-4.1 3-5.8 3.8-1.8.9-3.4 1.3-4.8 1.3s-2.6-.3-3.8-.9c-1.2-.6-2.2-1.6-2.9-3.1-.8-1.4-1.2-3.3-1.2-5.6v-19.1zM76.5 163c1.6-2.4 3.2-4.2 4.9-5.3s3.7-1.7 5.9-1.7h1l-.5 4.2-1.4-.1c-1-.1-2.1.2-3.4.7-1.3.5-2.4 1.4-3.4 2.5-1 1.2-1.8 2.6-2.3 4.3-.6 1.7-.8 3.2-.8 4.5v12.5h-3.8v-28.1h3.8v6.5zM94.4 159.9c2.1-1.2 4.1-2.2 6-2.8 1.9-.7 3.5-1 4.7-1 1.3 0 2.6.3 3.7.9 1.1.6 2.1 1.5 3 2.9s1.3 3.1 1.3 5.2v19.8h-3.8v-19.5c0-1.9-.4-3.4-1.3-4.3-.9-.9-2-1.4-3.5-1.4-1.3 0-2.9.3-4.5.9-1.7.6-3.5 1.4-5.5 2.6v21.7h-3.8v-28.1h3.8v3.1zM118.6 168.5c-1.4-1.4-2.1-3.1-2.1-4.8 0-2.1.8-3.8 2.5-5.3s4-2.2 7.1-2.2c2 0 3.9.4 5.7 1.1 1.8.7 3.3 1.8 4.6 3.2l-2.9 2.4c-1.1-1.2-2.2-2.2-3.4-2.7-1.2-.6-2.5-.9-4-.9-1.9 0-3.4.4-4.3 1.2-1 .8-1.5 1.8-1.5 2.9 0 .9.4 1.8 1.2 2.5.8.7 2.5 1.5 5.3 2.2 4.3 1.1 7.2 2.4 8.6 4 1.5 1.6 2.2 3.3 2.2 5.2 0 2.2-.9 4.2-2.7 5.8-1.8 1.6-4.2 2.4-7.2 2.4-2.2 0-4.3-.4-6.2-1.3-1.9-.8-3.9-2.2-6-4.2l3.3-2.3c1.6 1.6 3 2.7 4.4 3.4s2.8 1 4.4 1c2 0 3.5-.5 4.5-1.4 1.1-.9 1.6-2 1.6-3.3 0-1-.4-1.9-1.2-2.7-1.1-1.1-3.4-2-6.8-2.9-2.1-.6-3.9-1.2-5.3-1.9-.5-.4-1.2-.8-1.8-1.4zM143.6 146.4h3.8v10.3h7v3.5h-7v17.5c0 1.4.4 2.6 1.2 3.4.8.8 1.8 1.2 3.1 1.2.7 0 1.6-.1 2.7-.4v3.4c-1.3.2-2.4.2-3.3.2-2.7 0-4.6-.6-5.7-1.7-1.1-1.1-1.7-2.9-1.7-5.5v-18.2h-4.9v-3.5h4.9v-10.2zM167.5 185.4c-3.6 0-6.6-1.3-9.1-4s-3.7-6.2-3.7-10.6c0-3 .5-5.6 1.6-7.9s2.6-4 4.6-5.1c2-1.1 4-1.7 6.2-1.7 2.1 0 4.2.6 6.1 1.7s3.5 2.9 4.6 5.3 1.7 5 1.7 7.9c0 4.4-1.2 7.9-3.6 10.5-2.3 2.6-5.1 3.9-8.4 3.9zm-.3-3.2c2.3 0 4.3-1 6-3 1.7-2 2.6-4.8 2.6-8.6 0-3.7-.8-6.5-2.5-8.4-1.7-1.9-3.7-2.9-6-2.9-2.5 0-4.6 1-6.2 2.9-1.7 2-2.5 4.7-2.5 8.4s.8 6.6 2.5 8.5c1.6 2.1 3.7 3.1 6.1 3.1zM187.3 159.9c2.1-1.2 4.1-2.2 6-2.8s3.5-1 4.7-1c1.3 0 2.6.3 3.7.9 1.1.6 2.1 1.5 3 2.9.8 1.4 1.3 3.1 1.3 5.2v19.8h-3.8v-19.5c0-1.9-.4-3.4-1.3-4.3-.9-.9-2-1.4-3.5-1.4-1.3 0-2.9.3-4.5.9s-3.5 1.4-5.5 2.6v21.7h-3.8v-28.1h3.8v3.1zM233.1 178.5c-1.7 2.3-3.6 4-5.5 5.2-2 1.1-4 1.7-6.1 1.7-3.3 0-6.2-1.3-8.5-3.9s-3.6-6.2-3.6-10.9c0-4.5 1.2-8 3.5-10.6s5.1-3.9 8.2-3.9c2.1 0 4.1.6 6 1.8 1.9 1.2 3.4 2.9 4.4 5 1 2.1 1.5 4.8 1.5 8.2h-19.9c.1 2.2.4 4.1 1 5.5.8 1.9 1.8 3.3 3.2 4.1 1.3.9 2.6 1.3 3.8 1.3 3.1 0 6-1.9 8.7-5.7l3.3 2.2zm-4-10.8c-.3-2.7-1.2-4.7-2.7-6.2s-3.3-2.3-5.2-2.3c-2.3 0-4.2.9-5.6 2.7s-2.2 3.7-2.2 5.8h15.7zM238.5 175.2c.8 0 1.6.2 2.3.6.8.4 1.3 1 1.8 1.7.4.8.6 1.5.6 2.4 0 .8-.2 1.6-.6 2.3-.4.7-1 1.3-1.7 1.7-.7.4-1.5.6-2.3.6s-1.6-.2-2.3-.6c-.7-.4-1.3-1-1.7-1.7-.4-.7-.6-1.5-.6-2.3 0-.8.2-1.6.6-2.4.4-.8 1-1.3 1.8-1.7s1.3-.6 2.1-.6zm0 .8c-.7 0-1.3.2-1.9.5-.6.3-1.1.8-1.5 1.5-.4.6-.5 1.3-.5 2s.2 1.3.5 1.9.8 1.1 1.5 1.5c.6.3 1.3.5 2 .5s1.3-.2 2-.5c.6-.3 1.1-.8 1.5-1.5.3-.6.5-1.3.5-1.9 0-.7-.2-1.3-.5-2-.4-.6-.8-1.1-1.5-1.5-.8-.4-1.4-.5-2.1-.5zm-2 6.5v-5.1h1.7c.6 0 1 0 1.3.1.3.1.5.3.6.5.2.2.2.5.2.7 0 .4-.1.7-.4 1-.3.3-.6.4-1 .5.2.1.3.2.4.3.2.2.5.5.7 1l.6 1h-1l-.4-.8c-.3-.6-.6-1-.8-1.1-.2-.2-.4-.2-.7-.2h-.5v2.2h-.7zm.8-2.8h1c.5 0 .8-.1 1-.2.2-.1.3-.3.3-.6s-.1-.5-.3-.6c-.2-.1-.5-.1-.9-.1h-.9v1.5z"/></g></svg>