<?xml version="1.0" encoding="utf-8"?>
<!-- Generator: Adobe Illustrator 18.1.0, SVG Export Plug-In . SVG Version: 6.00 Build 0)  -->
<!DOCTYPE svg PUBLIC "-//W3C//DTD SVG 1.1//EN" "http://www.w3.org/Graphics/SVG/1.1/DTD/svg11.dtd">
<svg version="1.1" id="Layer_1" xmlns="http://www.w3.org/2000/svg" xmlns:xlink="http://www.w3.org/1999/xlink" x="0px" y="0px"
	 viewBox="0 0 268 268" enable-background="new 0 0 268 268" xml:space="preserve">
<path fill-rule="evenodd" clip-rule="evenodd" d="M243.4,134.1c0-60.5-49.3-109.8-109.8-109.8C73,24.3,23.7,73.6,23.7,134.1
	c0,60.8,49.3,109.8,109.8,109.8C194.1,243.9,243.4,194.9,243.4,134.1L243.4,134.1L243.4,134.1z M238.1,134.1
	c0,57.8-46.8,104.6-104.6,104.6c-57.8,0-104.6-46.8-104.6-104.6c0-57.8,46.8-104.6,104.6-104.6C191.3,29.4,238.1,76.6,238.1,134.1
	L238.1,134.1L238.1,134.1z M231.5,134.1c0-34.7-17.7-70.6-55.7-82.1c-7.9-2.4-14.5-4-22.2-4c-17.6,0-18.2,10-26.4,10
	c-4.5,0-7.6-3.3-7.6-7.3c0-7,8.2-12.4,21.3-12.4c12.2,0,21.6,3.1,23.4,3.9l0.3-0.9c-3.3-1.3-14.9-5.2-31-5.2
	c-35,0-70.6,18-82.1,55.7c-2.4,7.9-4,14.6-4,22.2c0,17.7,10,18.5,10,26.7c0,4.3-3.3,7.4-7.3,7.4c-7,0-12.4-8-12.4-21.4
	c0-12.1,3.1-21.6,3.6-23.4l-0.9-0.3c-0.9,3.7-4.9,14.9-4.9,31.1c0,35.3,18,70.9,55.7,82.4c7.9,2.4,14.6,3.9,22.2,3.9
	c17.7,0,18.2-10.3,26.4-10.3c4.3,0,7.7,3.4,7.7,7.6c0,6.7-8,12.2-21.4,12.2c-12.1,0-21.9-3.1-23.4-3.7l-0.3,0.9
	c3.4,1.5,14.9,4.8,31,4.8c35,0,70.9-17.7,82.1-55.7c2.4-7.6,3.9-14.5,3.9-21.9c0-17.9-10-18.5-10-26.7c0-4.5,3-7.6,7.3-7.6
	c7,0,12.5,8.2,12.5,21.6c0,11.9-3.1,21.3-3.7,23.4l0.9,0.3C227.8,161.8,231.5,150.5,231.5,134.1L231.5,134.1L231.5,134.1z
	 M194.6,163.3c0,13.7-11.8,28-29.2,28c-21,0-31.6-17.7-31.6-33.5c0-22.2,15.2-31.6,21.6-35c-1.3-0.9-2.2-2.1-3.1-3.7
	c-7.4,5.2-14,9.8-28,17.7c-0.6,9.7-1.5,20.3-4,27.7c-5.2,15.5-15.8,26.7-29.8,26.7c-11.8,0-17.6-8.5-17.6-17.7
	c0-6.6,3.9-15.2,10.9-21.6c8.8-7.9,18.5-12.7,31.9-19.8c0.3-1.8,0.6-3.6,0.9-5.8c-3.4,3-8.2,4.3-12.2,4.3c-6.3,0-11.6-5.5-12.7-11.3
	c-8.5-0.6-14.9-6.7-15.3-16.4c0-7,2.7-13.1,7.4-13.1c1.8,0,2.4,1.5,2.4,2.7c0,1.2-1.6,5.2-1.6,9.1c0,4,1.9,9.2,6.7,9.2
	c0-15.8,11.6-36.2,25.3-36.2c9.1,0,10.3,6.7,10.3,9.8c0,14.3-14.3,30.1-25.9,34c0.3,1.3,1.6,4.6,5.2,4.6c4.5,0,10-4.3,12.7-7.7
	c1.2-6.3,5.8-15.5,11.9-15.5c2.4,0,3.6,1.8,3.6,4c0,4.5-4.8,10.3-8.5,14.2c-0.5,3-0.9,6.4-0.9,9.2c10.6-6.4,16.1-9.7,24-15.5
	c-0.6-2.1-0.6-4.6-0.6-7c0-14.2,9.5-30.1,21.9-30.1c7,0,10.6,4.9,10.6,10.4c0,10.3-8.8,19.4-21.3,28.9c0.9,2.4,2.4,4.5,4.8,5.8
	c0.3-0.6,4.3-1.3,7.6-1.3c3.7,0,8.8,0.9,8.8,4.6c0,4.2-5.8,5.2-10.3,5.2c-2.4,0.3-6.4-0.6-6.4-0.6c-6.6,1.8-19.5,9.5-19.5,28.9
	c0,13.1,8.2,25.3,21,25.3c9.7,0,17.6-7.3,17.9-18.5c0-7.3-3.1-14.9-10.3-14.9c-3.7,0-7,2.7-7,6.7c-0.3,6.1,4.2,6.7,4.2,10.6
	c0,2.7-2.1,4-4.2,4c-6.1,0-10.7-6.1-10.7-13.7c0-9.2,8-16.7,18.3-16.7C187.7,139.3,194.6,150.8,194.6,163.3L194.6,163.3L194.6,163.3
	z M172.2,86.6c0-1.5-0.3-3.4-2.2-3.4c-4.5,0-11.8,9.8-11.8,22.2C167.3,97.6,172.2,90.8,172.2,86.6L172.2,86.6L172.2,86.6z
	 M118.3,85.4c0-1.5-0.9-2.1-2.1-2.1c-6.4,0-15.5,16.7-15.5,26.7C110.7,104.5,118.3,92.1,118.3,85.4L118.3,85.4L118.3,85.4z
	 M114.7,142.3c-13.7,6.6-31.1,18.5-31.1,31.6c0,4.8,2.4,7.9,7,7.9C104,181.8,112.2,160.5,114.7,142.3L114.7,142.3L114.7,142.3z"/>
</svg>
