<?xml version="1.0" encoding="utf-8"?>
<!-- Generator: Adobe Illustrator 18.1.0, SVG Export Plug-In . SVG Version: 6.00 Build 0)  -->
<!DOCTYPE svg PUBLIC "-//W3C//DTD SVG 1.1//EN" "http://www.w3.org/Graphics/SVG/1.1/DTD/svg11.dtd">
<svg version="1.1" id="Layer_1" xmlns="http://www.w3.org/2000/svg" xmlns:xlink="http://www.w3.org/1999/xlink" x="0px" y="0px"
	 viewBox="0 0 268 268" enable-background="new 0 0 268 268" xml:space="preserve">
<g>
	<path d="M241.4,134.4h-6.9v8h-2.3v-17.1h2.3c0,0,0,4.9,0,6.9c2.3,0,4.6,0,6.9,0c0-0.3,0-6.9,0-6.9l2.3,0v17.1h-2.3V134.4z"/>
	<path d="M35,129.3c-0.6,0.2-1.3,0.4-2,0.6c-0.1-0.3-0.2-0.5-0.3-0.7c-0.7-1.8-2.5-2.6-4.3-1.9c-0.8,0.3-1.3,0.9-1.4,1.8
		c-0.1,0.9,0.2,1.7,1,2.2c0.3,0.2,0.6,0.4,1,0.5c1.1,0.5,2.3,1,3.4,1.5c2.2,1,3.1,2.7,2.9,5c-0.3,2.2-1.8,3.8-4,4.2
		c-3.6,0.7-6.3-1.2-7-4.9c0.6-0.2,1.3-0.4,1.9-0.6c0.2,0.6,0.4,1.1,0.6,1.6c0.9,1.9,3.2,2.6,5,1.6c1.6-0.9,1.8-3.3,0.4-4.5
		c-0.5-0.4-1.2-0.7-1.8-1c-1-0.5-2.1-0.9-3.1-1.4c-1.8-0.9-2.5-2.3-2.3-4.2c0.2-1.9,1.2-3.1,3-3.7C31.2,124.2,34.4,125.9,35,129.3z"
		/>
	<path d="M72.1,137.8c0.6,0.4,1.2,0.8,1.8,1.2c-1.3,2-2.9,3.5-5.4,3.6c-2.5,0.1-4.5-0.8-5.5-3.1c-1.8-3.7-1.8-7.6,0-11.3
		c1-2,2.8-3.1,5-3.2c1.6-0.1,3.1,0.5,4.2,1.7c0.5,0.6,0.9,1.2,1.4,1.9c-0.7,0.4-1.3,0.7-2,1c-0.3-0.4-0.5-0.8-0.8-1.2
		c-1.6-1.9-4.2-1.8-5.5,0.3c-0.5,0.9-0.8,2.1-1,3.1c-0.3,2-0.2,3.9,0.4,5.9c0.5,1.4,1.3,2.5,2.9,2.7c1.6,0.2,2.8-0.4,3.8-1.6
		C71.5,138.6,71.8,138.2,72.1,137.8z"/>
	<path d="M128.8,142.3c-0.7,0-1.4,0-2.1,0c0-5,0-9.9,0-15c-1.6,0-3.1,0-4.7,0c0-0.7,0-1.3,0-2c3.8,0,7.5,0,11.4,0c0,0.6,0,1.2,0,1.9
		c-1.5,0-3,0-4.5,0C128.8,132.3,128.8,137.3,128.8,142.3z"/>
	<path d="M219.2,142.3c-0.7,0-1.4,0-2.1,0c0-5,0-9.9,0-15c-1.6,0-3.1,0-4.7,0c0-0.7,0-1.3,0-2c3.8,0,7.5,0,11.4,0c0,0.6,0,1.2,0,1.9
		c-1.5,0-3,0-4.5,0C219.2,132.3,219.2,137.3,219.2,142.3z"/>
	<path d="M43.3,127.3c0-0.7,0-1.3,0-1.9c3.6,0,7.1,0,10.7,0c0,0.6,0,1.2,0,1.9C50.5,127.3,46.9,127.3,43.3,127.3z"/>
	<path d="M54.1,140.4c0,0.7,0,1.2,0,1.9c-3.6,0-7.1,0-10.7,0c0-0.6,0-1.2,0-1.9C46.9,140.4,50.4,140.4,54.1,140.4z"/>
	<path d="M102,127.3c0-0.7,0-1.3,0-1.9c3.5,0,7.1,0,10.7,0c0,0.6,0,1.2,0,1.9C109.2,127.3,105.7,127.3,102,127.3z"/>
	<path d="M102.1,142.3c0-0.7,0-1.3,0-1.9c3.5,0,7.1,0,10.7,0c0,0.6,0,1.2,0,1.9C109.2,142.3,105.7,142.3,102.1,142.3z"/>
	<path d="M43.4,134.8c0-0.6,0-1.2,0-1.9c3.6,0,7.1,0,10.7,0c0,0.6,0,1.2,0,1.9C50.5,134.8,46.9,134.8,43.4,134.8z"/>
	<path d="M152.9,127.3c0-0.7,0-1.3,0-1.9c3.6,0,7.1,0,10.7,0c0,0.6,0,1.2,0,1.9C160,127.3,156.5,127.3,152.9,127.3z"/>
	<path d="M163.6,140.4c0,0.7,0,1.2,0,1.9c-3.6,0-7.1,0-10.7,0c0-0.6,0-1.2,0-1.9C156.4,140.4,160,140.4,163.6,140.4z"/>
	<path d="M152.9,134.8c0-0.6,0-1.2,0-1.9c3.6,0,7.1,0,10.7,0c0,0.6,0,1.2,0,1.9C160,134.8,156.5,134.8,152.9,134.8z"/>
	<path d="M112.8,132.9c0,0.6,0,1.2,0,1.9c-3.6,0-7.1,0-10.7,0c0-0.6,0-1.2,0-1.9C105.6,132.9,109.2,132.9,112.8,132.9z"/>
	<path d="M89.9,134.7c0.3-0.1,0.5-0.2,0.7-0.3c1.9-0.9,3-3.1,2.7-5.3c-0.3-2-1.5-3.5-3.5-3.7c-2.4-0.3-7.3-0.2-7.3-0.2l0,17h2.2V135
		l3.1,0c0,0,0.1,0.2,0.3,0.6c1.2,2.2,3.9,6.9,4,7.1c0.7-0.4,1.3-0.8,1.9-1.2C92.6,139.3,91.2,137,89.9,134.7z M88.4,133
		c-1.2,0.1-2.5,0-3.7,0c0-1.8,0-3.7,0-5.7c1.3,0,2.5,0,3.7,0c1.3,0,2.2,0.6,2.5,1.7c0.4,1.3,0,2.7-1,3.4
		C89.4,132.7,88.9,132.9,88.4,133z"/>
	<path d="M201.2,134.7c0.3-0.1,0.5-0.2,0.7-0.3c1.9-0.9,3-3.1,2.7-5.3c-0.3-2-1.5-3.5-3.5-3.7c-2.4-0.3-7.3-0.2-7.3-0.2l0,17h2.2
		V135l3.1,0c0,0,0.1,0.2,0.3,0.6c1.2,2.2,3.9,6.9,4,7.1c0.7-0.4,1.3-0.8,1.9-1.2C203.9,139.3,202.6,137,201.2,134.7z M199.7,133
		c-1.2,0.1-2.5,0-3.7,0c0-1.8,0-3.7,0-5.7c1.3,0,2.5,0,3.7,0c1.3,0,2.2,0.6,2.5,1.7c0.4,1.3,0,2.7-1,3.4
		C200.7,132.7,200.2,132.9,199.7,133z"/>
	<path d="M180,125.3h-2.8l-5.5,16.9l2.2,0.8l1.6-5.3h6.2l1.7,5.3l2.2-0.8L180,125.3z M176.1,135.7c0.8-2.6,1.6-5.2,2.5-8
		c0.9,2.8,1.7,5.4,2.5,8C179.4,135.7,177.8,135.7,176.1,135.7z"/>
</g>
</svg>
