<?xml version="1.0" encoding="utf-8"?>
<!-- Generator: Adobe Illustrator 18.1.1, SVG Export Plug-In . SVG Version: 6.00 Build 0)  -->
<!DOCTYPE svg PUBLIC "-//W3C//DTD SVG 1.1//EN" "http://www.w3.org/Graphics/SVG/1.1/DTD/svg11.dtd">
<svg version="1.1" id="Layer_1" xmlns="http://www.w3.org/2000/svg" xmlns:xlink="http://www.w3.org/1999/xlink" x="0px" y="0px"
	 viewBox="0 0 268 268" enable-background="new 0 0 268 268" xml:space="preserve">
<g>
	<path d="M183.4,167.7c0-5.4-1.5-9.9-4.2-12.6c-2.1-2.1-4.8-3.1-8.2-3.1h-4.8v33h17.3V167.7z"/>
	<path d="M210.7,184.9V159c0-13.7-4-24.8-11.4-32.3c-6.6-6.6-15.7-10.1-26.1-10.1h-7v32.7h4.8c4.1,0,7.5,1.3,10.1,3.9
		c3.2,3.2,5,8.4,5,14.5v17.2H210.7z"/>
	<path d="M166.1,81.3v32.6h7c11,0,20.9,3.9,28,10.9c8,8,12.2,19.8,12.2,34.2v25.9h30.5v-23.1C243.9,115.6,211.6,81.3,166.1,81.3z"/>
</g>
<polygon points="100.7,113.3 94.2,113.3 94.2,87.9 84.9,87.9 84.9,82.4 110,82.4 110,87.9 100.7,87.9 "/>
<polygon points="118.4,99.5 118.4,113.3 111.9,113.3 111.9,82.4 118.4,82.4 118.4,94.1 130.4,94.1 130.4,82.4 136.9,82.4 
	136.9,113.3 130.4,113.3 130.4,99.5 "/>
<polygon points="161.7,87.9 145.3,87.9 145.3,94.4 160.3,94.4 160.3,99.8 145.3,99.8 145.3,107.8 162.4,107.8 162.4,113.3 
	138.9,113.3 138.9,82.4 161.7,82.4 "/>
<polygon points="43.8,118.4 49.8,118.4 49.8,149.3 43.3,149.3 30.7,127.2 30.6,127.2 30.6,149.3 24.6,149.3 24.6,118.4 31.4,118.4 
	43.7,139.9 43.8,139.9 "/>
<polygon points="125.1,149.3 118.7,149.3 118.7,123.8 109.3,123.8 109.3,118.4 134.5,118.4 134.5,123.8 125.1,123.8 "/>
<polygon points="142.8,135.4 142.8,149.3 136.3,149.3 136.3,118.4 142.8,118.4 142.8,130.1 154.9,130.1 154.9,118.4 161.3,118.4 
	161.3,149.3 154.9,149.3 154.9,135.4 "/>
<polygon points="69,185.3 62.5,185.3 62.5,154.3 84.5,154.3 84.5,159.8 69,159.8 69,166.8 82.6,166.8 82.6,172.3 69,172.3 "/>
<path d="M130.1,164.5c-0.5-1.9-1.5-5.3-6.8-5.3c-3.1,0-7.7,2.1-7.7,10.8c0,5.6,2.2,10.6,7.7,10.6c3.6,0,6.1-2,6.8-5.8h6.5
	c-1.3,6.7-5.7,11.4-13.4,11.4c-8.2,0-14.1-5.6-14.1-16.2c0-10.8,6.2-16.3,14.2-16.3c9.3,0,13,6.4,13.4,10.9H130.1z"/>
<polygon points="161.7,159.8 145.3,159.8 145.3,166.3 160.3,166.3 160.3,171.8 145.3,171.8 145.3,179.8 162.4,179.8 162.4,185.3 
	138.9,185.3 138.9,154.3 161.7,154.3 "/>
<path d="M66,117.6c-4.1,0-14.9,1.8-14.9,16.3c0,14.5,10.8,16.3,14.9,16.3c4.1,0,14.9-1.8,14.9-16.3C80.9,119.3,70.1,117.6,66,117.6z
	 M66,144.6c-3.5,0-8.4-2.2-8.4-10.8c0-8.7,4.9-10.8,8.4-10.8c3.5,0,8.4,2.2,8.4,10.8C74.4,142.5,69.5,144.6,66,144.6z"/>
<path d="M107.1,142.3c0-5.8-1.4-6.7-3.9-7.8c3.1-1,4.8-4,4.8-7.4c0-2.7-1.5-8.7-9.7-8.7H82.6v30.9h6.3v-12.1h6.7c4.8,0,5,1.6,5,5.9
	c0,3.2,0.3,4.8,0.7,6.2h7.1v-0.8C107.1,148,107.1,146.8,107.1,142.3z M96.5,132h-7.6v-8.3H97c3.8,0,4.5,2.4,4.5,4
	C101.5,130.8,99.9,132,96.5,132z"/>
<path d="M99.7,154.3h-7.5l-11,30.9H88l2.2-6.4h11.4l2,6.4h7L99.7,154.3z M91.9,173.6l4-12.2H96l3.8,12.2H91.9z"/>
<g>
	<path d="M54.5,171.9c-3.5,0-6.6,2.4-6.6,6.6c0,4.2,3.1,6.6,6.6,6.6c3.5,0,6.6-2.4,6.6-6.6C61.1,174.3,58,171.9,54.5,171.9z
		 M54.5,183.6L54.5,183.6c-2.6,0-4.7-2-4.7-5.1c0-3,2.1-5.1,4.7-5.1c2.5,0,4.7,2,4.7,5.1C59.2,181.5,57,183.6,54.5,183.6z"/>
	<path d="M55.7,178.9c0.9-0.1,1.7-0.5,1.7-1.8c0-1.6-1.1-2.1-2.9-2.1h-2.7v7.1h1.5v-3h0.7l1.6,3h1.8L55.7,178.9z M54.7,177.8h-1.3
		v-1.7h1.1c0.6,0,1.4,0.1,1.4,0.8C55.8,177.7,55.4,177.8,54.7,177.8z"/>
</g>
<path d="M47,248"/>
</svg>
