<?xml version="1.0" encoding="utf-8"?>
<!-- Generator: Adobe Illustrator 18.1.0, SVG Export Plug-In . SVG Version: 6.00 Build 0)  -->
<!DOCTYPE svg PUBLIC "-//W3C//DTD SVG 1.1//EN" "http://www.w3.org/Graphics/SVG/1.1/DTD/svg11.dtd">
<svg version="1.1" id="Layer_1" xmlns="http://www.w3.org/2000/svg" xmlns:xlink="http://www.w3.org/1999/xlink" x="0px" y="0px"
	 viewBox="0 0 268 268" enable-background="new 0 0 268 268" xml:space="preserve">
<g id="_x31_dhMyP.tif">
	<g>
		<path fill="#FFFFFF" d="M60.4,88.3c1.2,1.1,1.5,1.7,2,1.8c22.3,3.9,42,14.4,61.9,24.5c20.9,10.6,34.1,7.2,47-12
			c6.9-10.2,12.8-21,26.2-25.5c-5.9-1.4-11-1.7-15.2-3.9c-5.8-3-10.5-2.3-16.1,0.4c-26.4,13.1-54,19.9-83.8,15.9
			C75.5,88.5,68.4,88.7,60.4,88.3z"/>
		<path d="M60.4,88.3c8,0.4,15.1,0.2,22.1,1.2c29.7,4,57.4-2.8,83.8-15.9c5.6-2.8,10.3-3.5,16.1-0.4c4.2,2.2,9.3,2.5,15.2,3.9
			c-13.5,4.5-19.3,15.3-26.2,25.5c-13,19.2-26.2,22.6-47,12C104.4,104.5,84.8,94,62.4,90.1C62,90,61.6,89.4,60.4,88.3z"/>
	</g>
</g>
<g>
	<path fill="#1D1D1B" d="M31.5,146.4h3.8v10.3h7v3.5h-7v17.5c0,1.4,0.4,2.6,1.2,3.4s1.8,1.2,3.1,1.2c0.7,0,1.6-0.1,2.7-0.4v3.4
		c-1.3,0.2-2.4,0.2-3.3,0.2c-2.7,0-4.6-0.6-5.7-1.7c-1.1-1.1-1.7-2.9-1.7-5.5v-18.2h-4.9v-3.5h4.9V146.4z"/>
	<path fill="#1D1D1B" d="M44.7,156.7h3.8v18.5c0,2,0.5,3.6,1.5,4.8c1,1.2,2.2,1.7,3.6,1.7c1.2,0,2.6-0.3,4.1-1s3.3-1.9,5.6-3.8
		v-20.2h3.8v28.1h-3.8v-4.5c-2.1,1.7-4.1,3-5.8,3.8c-1.8,0.9-3.4,1.3-4.8,1.3c-1.4,0-2.6-0.3-3.8-0.9c-1.2-0.6-2.2-1.6-2.9-3.1
		c-0.8-1.4-1.2-3.3-1.2-5.6V156.7z"/>
	<path fill="#1D1D1B" d="M76.5,163c1.6-2.4,3.2-4.2,4.9-5.3s3.7-1.7,5.9-1.7c0.2,0,0.6,0,1,0l-0.5,4.2l-1.4-0.1
		c-1-0.1-2.1,0.2-3.4,0.7c-1.3,0.5-2.4,1.4-3.4,2.5c-1,1.2-1.8,2.6-2.3,4.3c-0.6,1.7-0.8,3.2-0.8,4.5v12.5h-3.8v-28.1h3.8V163z"/>
	<path fill="#1D1D1B" d="M94.4,159.9c2.1-1.2,4.1-2.2,6-2.8c1.9-0.7,3.5-1,4.7-1c1.3,0,2.6,0.3,3.7,0.9c1.1,0.6,2.1,1.5,3,2.9
		s1.3,3.1,1.3,5.2v19.8h-3.8v-19.5c0-1.9-0.4-3.4-1.3-4.3c-0.9-0.9-2-1.4-3.5-1.4c-1.3,0-2.9,0.3-4.5,0.9c-1.7,0.6-3.5,1.4-5.5,2.6
		v21.7h-3.8v-28.1h3.8V159.9z"/>
	<path fill="#1D1D1B" d="M118.6,168.5c-1.4-1.4-2.1-3.1-2.1-4.8c0-2.1,0.8-3.8,2.5-5.3c1.7-1.5,4-2.2,7.1-2.2c2,0,3.9,0.4,5.7,1.1
		c1.8,0.7,3.3,1.8,4.6,3.2l-2.9,2.4c-1.1-1.2-2.2-2.2-3.4-2.7c-1.2-0.6-2.5-0.9-4-0.9c-1.9,0-3.4,0.4-4.3,1.2
		c-1,0.8-1.5,1.8-1.5,2.9c0,0.9,0.4,1.8,1.2,2.5c0.8,0.7,2.5,1.5,5.3,2.2c4.3,1.1,7.2,2.4,8.6,4c1.5,1.6,2.2,3.3,2.2,5.2
		c0,2.2-0.9,4.2-2.7,5.8c-1.8,1.6-4.2,2.4-7.2,2.4c-2.2,0-4.3-0.4-6.2-1.3c-1.9-0.8-3.9-2.2-6-4.2l3.3-2.3c1.6,1.6,3,2.7,4.4,3.4
		s2.8,1,4.4,1c2,0,3.5-0.5,4.5-1.4c1.1-0.9,1.6-2,1.6-3.3c0-1-0.4-1.9-1.2-2.7c-1.1-1.1-3.4-2-6.8-2.9c-2.1-0.6-3.9-1.2-5.3-1.9
		C119.9,169.5,119.2,169.1,118.6,168.5z"/>
	<path fill="#1D1D1B" d="M143.6,146.4h3.8v10.3h7v3.5h-7v17.5c0,1.4,0.4,2.6,1.2,3.4c0.8,0.8,1.8,1.2,3.1,1.2c0.7,0,1.6-0.1,2.7-0.4
		v3.4c-1.3,0.2-2.4,0.2-3.3,0.2c-2.7,0-4.6-0.6-5.7-1.7c-1.1-1.1-1.7-2.9-1.7-5.5v-18.2h-4.9v-3.5h4.9V146.4z"/>
	<path fill="#1D1D1B" d="M167.5,185.4c-3.6,0-6.6-1.3-9.1-4s-3.7-6.2-3.7-10.6c0-3,0.5-5.6,1.6-7.9s2.6-4,4.6-5.1
		c2-1.1,4-1.7,6.2-1.7c2.1,0,4.2,0.6,6.1,1.7s3.5,2.9,4.6,5.3s1.7,5,1.7,7.9c0,4.4-1.2,7.9-3.6,10.5
		C173.6,184.1,170.8,185.4,167.5,185.4z M167.2,182.2c2.3,0,4.3-1,6-3c1.7-2,2.6-4.8,2.6-8.6c0-3.7-0.8-6.5-2.5-8.4
		c-1.7-1.9-3.7-2.9-6-2.9c-2.5,0-4.6,1-6.2,2.9c-1.7,2-2.5,4.7-2.5,8.4c0,3.7,0.8,6.6,2.5,8.5C162.7,181.2,164.8,182.2,167.2,182.2z
		"/>
	<path fill="#1D1D1B" d="M187.3,159.9c2.1-1.2,4.1-2.2,6-2.8s3.5-1,4.7-1c1.3,0,2.6,0.3,3.7,0.9c1.1,0.6,2.1,1.5,3,2.9
		c0.8,1.4,1.3,3.1,1.3,5.2v19.8h-3.8v-19.5c0-1.9-0.4-3.4-1.3-4.3c-0.9-0.9-2-1.4-3.5-1.4c-1.3,0-2.9,0.3-4.5,0.9s-3.5,1.4-5.5,2.6
		v21.7h-3.8v-28.1h3.8V159.9z"/>
	<path fill="#1D1D1B" d="M233.1,178.5c-1.7,2.3-3.6,4-5.5,5.2c-2,1.1-4,1.7-6.1,1.7c-3.3,0-6.2-1.3-8.5-3.9s-3.6-6.2-3.6-10.9
		c0-4.5,1.2-8,3.5-10.6s5.1-3.9,8.2-3.9c2.1,0,4.1,0.6,6,1.8c1.9,1.2,3.4,2.9,4.4,5c1,2.1,1.5,4.8,1.5,8.2h-19.9
		c0.1,2.2,0.4,4.1,1,5.5c0.8,1.9,1.8,3.3,3.2,4.1c1.3,0.9,2.6,1.3,3.8,1.3c3.1,0,6-1.9,8.7-5.7L233.1,178.5z M229.1,167.7
		c-0.3-2.7-1.2-4.7-2.7-6.2s-3.3-2.3-5.2-2.3c-2.3,0-4.2,0.9-5.6,2.7s-2.2,3.7-2.2,5.8H229.1z"/>
	<path fill="#1D1D1B" d="M238.5,175.2c0.8,0,1.6,0.2,2.3,0.6c0.8,0.4,1.3,1,1.8,1.7c0.4,0.8,0.6,1.5,0.6,2.4c0,0.8-0.2,1.6-0.6,2.3
		c-0.4,0.7-1,1.3-1.7,1.7c-0.7,0.4-1.5,0.6-2.3,0.6s-1.6-0.2-2.3-0.6c-0.7-0.4-1.3-1-1.7-1.7c-0.4-0.7-0.6-1.5-0.6-2.3
		c0-0.8,0.2-1.6,0.6-2.4c0.4-0.8,1-1.3,1.8-1.7S237.7,175.2,238.5,175.2z M238.5,176c-0.7,0-1.3,0.2-1.9,0.5
		c-0.6,0.3-1.1,0.8-1.5,1.5c-0.4,0.6-0.5,1.3-0.5,2c0,0.7,0.2,1.3,0.5,1.9s0.8,1.1,1.5,1.5c0.6,0.3,1.3,0.5,2,0.5
		c0.7,0,1.3-0.2,2-0.5c0.6-0.3,1.1-0.8,1.5-1.5c0.3-0.6,0.5-1.3,0.5-1.9c0-0.7-0.2-1.3-0.5-2c-0.4-0.6-0.8-1.1-1.5-1.5
		C239.8,176.1,239.2,176,238.5,176z M236.5,182.5v-5.1h1.7c0.6,0,1,0,1.3,0.1c0.3,0.1,0.5,0.3,0.6,0.5c0.2,0.2,0.2,0.5,0.2,0.7
		c0,0.4-0.1,0.7-0.4,1c-0.3,0.3-0.6,0.4-1,0.5c0.2,0.1,0.3,0.2,0.4,0.3c0.2,0.2,0.5,0.5,0.7,1l0.6,1h-1l-0.4-0.8
		c-0.3-0.6-0.6-1-0.8-1.1c-0.2-0.2-0.4-0.2-0.7-0.2h-0.5v2.2H236.5z M237.3,179.7h1c0.5,0,0.8-0.1,1-0.2c0.2-0.1,0.3-0.3,0.3-0.6
		c0-0.3-0.1-0.5-0.3-0.6c-0.2-0.1-0.5-0.1-0.9-0.1h-0.9V179.7z"/>
</g>
</svg>
