<?xml version="1.0" encoding="utf-8"?>
<!-- Generator: Adobe Illustrator 18.1.0, SVG Export Plug-In . SVG Version: 6.00 Build 0)  -->
<!DOCTYPE svg PUBLIC "-//W3C//DTD SVG 1.1//EN" "http://www.w3.org/Graphics/SVG/1.1/DTD/svg11.dtd">
<svg version="1.1" id="Layer_1" xmlns="http://www.w3.org/2000/svg" xmlns:xlink="http://www.w3.org/1999/xlink" x="0px" y="0px"
	 viewBox="0 0 268 268" enable-background="new 0 0 268 268" xml:space="preserve">
<g>
	<g>
		<polygon points="27.2,122.9 44.2,143.5 61.3,122.9 60.3,122.9 44.2,137.4 28.1,122.4 		"/>
		<path d="M59.6,148.6H28.9c-2.7,0-4.9-2.2-4.9-4.9v-19.4c0-2.7,2.2-4.9,4.9-4.9h30.7c2.7,0,4.9,2.2,4.9,4.9v19.4
			C64.5,146.4,62.3,148.6,59.6,148.6z M28.9,122.8c-0.8,0-1.5,0.7-1.5,1.5v19.4c0,0.8,0.7,1.5,1.5,1.5h30.7c0.8,0,1.5-0.7,1.5-1.5
			v-19.4c0-0.8-0.7-1.5-1.5-1.5H28.9z"/>
	</g>
	<g>
		<path d="M76.8,145.6l-6.9-22.8H77l2.3,8.4c0.5,1.9,1.1,4.6,1.4,6.4c0.8-3.7,0.8-3.7,1.5-6.4l2.2-8.4h6.9l-6.9,22.8H76.8z"/>
		<path d="M99.6,145.6h-7.1v-22.8h7.1V145.6z"/>
		<path d="M122.4,128.5H110v2.8h10.8v5.2H110v3h12.9v6h-19.7v-22.8h19.2V128.5z"/>
		<path d="M129.5,145.6l-6.2-22.8h7l2.2,10.7c0.2,0.7,0.4,2.3,0.5,3.3c0.1-0.9,0.3-2.4,0.5-3.3l2.2-10.7h6.2l2.2,10.6
			c0,0,0.1,0.5,0.2,1c0,0.2,0.1,0.5,0.1,0.8c0.1,0.8,0.1,0.9,0.2,1.6c0.1-0.8,0.1-0.8,0.2-1.6c0.1-0.2,0.1-0.5,0.1-0.8
			c0.1-0.4,0.2-0.9,0.2-1l2.1-10.6h6.9l-5.9,22.8h-6.9l-1.9-9.8c-0.2-1.2-0.5-2.9-0.6-4.4c-0.2,1.7-0.3,2.8-0.7,4.4l-1.9,9.8H129.5z
			"/>
		<path d="M157.1,138.5l-2.7,7.2h-2.3l8.8-22.8h2.4l9,22.8h-2.4l-2.8-7.2H157.1z M162,125.2l-4.2,11.4h8.6L162,125.2z"/>
		<path d="M174.2,122.8H186c3.1,0,4.6,0.4,5.9,1.7c1.1,1.1,1.7,2.6,1.7,4.3c0,1.9-0.8,3.2-2.6,4.4c2.4,1.1,3.7,3,3.7,5.7
			c0,1.9-0.7,3.8-2,5c-1.3,1.3-2.7,1.7-6,1.7h-12.6V122.8z M185.3,131.5c1.3,0,2-0.6,2-1.7c0-1.1-0.7-1.7-2-1.7H181v3.4H185.3z
			 M185.4,140.1c1.8,0,2.8-0.7,2.8-2c0-1.3-0.9-2-2.8-2H181v4H185.4z"/>
		<path d="M204.5,145.6h-7.1v-22.8h7.1V145.6z"/>
		<path d="M215.1,139.6h10.1v6h-17.2v-22.8h7.1V139.6z"/>
		<path d="M233.9,139.6H244v6h-17.2v-22.8h7.1V139.6z"/>
	</g>
</g>
</svg>
