<svg id="Layer_1" data-name="Layer 1" xmlns="http://www.w3.org/2000/svg" xmlns:xlink="http://www.w3.org/1999/xlink" viewBox="0 0 1024 512"><defs><style>.cls-1,.cls-18,.cls-19{fill:none;}.cls-2{fill:#f9b233;}.cls-3{fill:#e71d73;}.cls-4{clip-path:url(#clip-path);}.cls-5{fill:#363277;}.cls-6{fill:#9292c7;}.cls-7{clip-path:url(#clip-path-2);}.cls-8{fill:#e94e1b;}.cls-9{clip-path:url(#clip-path-3);}.cls-10{fill:#2fac66;stroke:#208f4c;stroke-width:3.95px;}.cls-10,.cls-18,.cls-19{stroke-miterlimit:10;}.cls-11{fill:#3c3c3b;}.cls-12{fill:#c6c6c6;}.cls-13{fill:#e5bf05;}.cls-14{fill:#dadada;}.cls-15{fill:#e5251b;}.cls-16{fill:#36a9e1;}.cls-17{fill:#888988;}.cls-18{stroke:#575756;}.cls-18,.cls-19{stroke-width:3.01px;}.cls-19{stroke:#c6c6c6;}</style><clipPath id="clip-path"><polygon class="cls-1" points="266.61 511.39 0 511.39 -1.91 0 356.78 0 266.61 511.39"/></clipPath><clipPath id="clip-path-2"><polygon class="cls-1" points="637.89 511.39 266.2 511.39 356.37 0 728.06 0 637.89 511.39"/></clipPath><clipPath id="clip-path-3"><polygon class="cls-1" points="1024 511.39 637.22 511.39 727.39 0 1024 0 1024 511.39"/></clipPath></defs><title>Artboard 1</title><polygon class="cls-2" points="637.89 511.39 266.2 511.39 356.37 0 728.06 0 637.89 511.39"/><polygon class="cls-3" points="1024 511.39 637.22 511.39 727.39 0 1024 0 1024 511.39"/><g class="cls-4"><polygon class="cls-5" points="296.61 511.39 0 511.39 -1.91 0 386.78 0 296.61 511.39"/><path class="cls-6" d="M116.75,286.88,27.33,356.56l-39-19.42V155.52l38.85-19.58L116,205.78,256.58,65l92.5,36.84V390l-92,37.46Zm137.06,24.51V181.12l-84.18,65.21,84.18,65.06ZM30.41,288l44.25-40.24L30.41,203.63Z"/></g><g class="cls-7"><path class="cls-8" d="M726.66,206.7l-21.32-8.51q-.74-2.76-1.53-5.5l13.8-18.32a6.73,6.73,0,0,0-4.14-10.65L691,159.55q-1.28-2.6-2.62-5.16l9.95-20.61a6.73,6.73,0,0,0-3.12-9,6.86,6.86,0,0,0-3-.67l-22.9.31c-1.16-1.54-2.36-3-3.56-4.53l5.74-22.18a6.72,6.72,0,0,0-7.9-8.26l-22.45,4.77q-2.15-1.87-4.33-3.69l1.31-22.93a6.73,6.73,0,0,0-9.36-6.56l-21.09,9.07q-2.46-1.44-5-2.8L599.46,44.6A6.72,6.72,0,0,0,589,40L570.13,53c-1.82-.62-3.64-1.22-5.48-1.8L557.1,29.56A6.7,6.7,0,0,0,546,27.09L530,43.48c-1.91-.25-3.81-.49-5.73-.69L512.62,23.07a6.72,6.72,0,0,0-11.42-.26L488.71,42.06c-1.9.12-3.8.26-5.69.44L467.73,25.37a6.72,6.72,0,0,0-9.48-.53,6.54,6.54,0,0,0-1.76,2.52L448,48.68q-2.76.72-5.51,1.53L424.15,36.4a6.7,6.7,0,0,0-10.64,4.14l-4.17,22.51c-1.74.85-3.45,1.72-5.16,2.61l-20.62-9.94a6.71,6.71,0,0,0-9.63,6.14l.29,22.9c-1.53,1.17-3,2.36-4.52,3.56l-22.18-5.74a6.72,6.72,0,0,0-8.25,7.9L344,112.94q-1.89,2.15-3.71,4.33L317.41,116a6.72,6.72,0,0,0-6.56,9.36l9.07,21.09c-.95,1.64-1.89,3.29-2.8,5l-22.73,3.2a6.71,6.71,0,0,0-4.6,10.45l13,18.89c-.62,1.81-1.23,3.63-1.8,5.47l-21.62,7.54a6.73,6.73,0,0,0-2.48,11.16l16.4,16c-.25,1.91-.49,3.82-.69,5.74l-19.73,11.62a6.73,6.73,0,0,0-.24,11.42l19.23,12.49c.12,1.89.27,3.8.44,5.69l-17.12,15.29a6.71,6.71,0,0,0,2,11.24l21.31,8.51c.49,1.84,1,3.68,1.53,5.5l-13.8,18.32a6.73,6.73,0,0,0,4.14,10.65l22.51,4.17c.84,1.73,1.72,3.45,2.61,5.15l-9.94,20.62a6.71,6.71,0,0,0,6.14,9.63l22.89-.3q1.75,2.29,3.57,4.53l-5.74,22.18a6.71,6.71,0,0,0,7.9,8.25L362.71,410c1.44,1.26,2.88,2.49,4.34,3.71l-1.31,22.92a6.71,6.71,0,0,0,9.36,6.54l21.09-9.06c1.65,1,3.3,1.89,5,2.8l3.2,22.73a6.71,6.71,0,0,0,10.45,4.6l18.88-13c1.81.62,3.64,1.22,5.47,1.79l7.56,21.62a6.72,6.72,0,0,0,11.15,2.48l16-16.41c1.91.26,3.82.5,5.74.7l11.62,19.72a6.71,6.71,0,0,0,11.41.24l12.5-19.23c1.9-.12,3.8-.27,5.7-.43l15.28,17.12a6.72,6.72,0,0,0,11.25-2l8.5-21.32c1.85-.5,3.68-1,5.5-1.55l18.32,13.8a6.71,6.71,0,0,0,10.64-4.13l4.18-22.5c1.73-.85,3.45-1.73,5.16-2.62l20.61,9.95a6.7,6.7,0,0,0,9.63-6.14l-.29-22.89c1.53-1.17,3-2.37,4.53-3.57l22.17,5.74a6.71,6.71,0,0,0,8.26-7.89l-4.78-22.46q1.89-2.15,3.71-4.33l22.92,1.3a6.71,6.71,0,0,0,6.55-9.34l-9.06-21.1c1-1.64,1.89-3.29,2.79-5l22.74-3.2A6.7,6.7,0,0,0,714,339.22l-13-18.88c.62-1.82,1.22-3.64,1.79-5.48l21.62-7.55a6.71,6.71,0,0,0,2.48-11.15l-16.4-16c.25-1.91.49-3.82.69-5.74l19.72-11.62a6.7,6.7,0,0,0,.25-11.41L712,238.92c-.13-1.89-.27-3.8-.44-5.69l17.12-15.29a6.71,6.71,0,0,0-2-11.24ZM626.15,388.8a13.83,13.83,0,1,1,14.29-13.31,13.84,13.84,0,0,1-14.29,13.31Zm-14.32-43a12.6,12.6,0,0,0-13,12.11v0l-1.2,33A170.38,170.38,0,0,1,457.9,414.89l-12.43-30.63a12.58,12.58,0,0,0-16.39-6.94l-27.05,11a169.62,169.62,0,0,1-17.55-14.56l136.77-24.12c1.55-.27,2.53-.73,2.28-2.14L515,299.11c-.25-1.41-1.33-1.51-2.88-1.24l-40,7.06-5.4-30.67L510,266.63c3.95-.7,21.31-2.6,30.67,18.38,2.91,6.45,10.55,27.73,14.38,34.3,4,7.43,17.2,21.33,28.36,19.36l68.15-12A12.74,12.74,0,0,0,654,326a169.23,169.23,0,0,1-12.29,20.92l-29.85-1.11ZM430.34,422.64a13.83,13.83,0,1,1,7.58-18,13.8,13.8,0,0,1-7.58,18Zm-89-201.24a13.8,13.8,0,1,1-19.15-3.77,13.83,13.83,0,0,1,19.15,3.77v0ZM332.07,262l27-18.18a12.59,12.59,0,0,0,3.41-17.48L354,213.78l23.72-4.19L396.61,316.5l-47.85,8.44A171.62,171.62,0,0,1,332.07,262Zm126.67-33-5.56-31.51,56.48-10c2.92-.52,21.19-.26,23.53,13,1.93,11-10.94,17.3-22.09,19.27L458.74,229ZM669,221.14q1.11,6.27,1.73,12.5l-17.17,3c-1.72.3-2.21,1.56-1.92,3.24l1.4,7.89c3.27,18.56-6.49,24.44-15.48,27.08-8.56,2.53-19.06-.41-21.19-5.54-10.27-28.07-19.94-32.74-35.39-41,14.95-13.65,29.67-32.5,25.95-53.6-4-22.78-22.16-34.37-34-39.53-16.67-7.21-33.55-6.27-38-5.49L357.29,161A169.63,169.63,0,0,1,441.6,91.64l24.8,18.26A12.57,12.57,0,0,0,484,107.24v0l19.47-26.53a170.06,170.06,0,0,1,129,61.39l-9.65,39a12.63,12.63,0,0,0,9.2,15.27l33.28,8.26q2.25,8.08,3.75,16.49ZM459.24,69.26a13.81,13.81,0,1,1,2.95,19.33,13.79,13.79,0,0,1-2.95-19.33Zm181.69,100a13.79,13.79,0,0,1,16.69-10.09h0A13.82,13.82,0,0,1,651,186h0a13.84,13.84,0,0,1-10.08-16.75Z"/></g><g class="cls-9"><rect class="cls-10" x="546.88" y="126.89" width="418.96" height="336.5" rx="5.67" ry="5.67" transform="matrix(0.98, -0.17, 0.17, 0.98, -39.76, 135.82)"/><polygon class="cls-11" points="929.53 113.98 930.14 117.43 864.75 128.96 875.8 191.65 941.19 180.12 941.72 183.14 961.62 179.63 949.42 110.47 929.53 113.98"/><rect class="cls-12" x="915.93" y="278.53" width="72.07" height="73.52" rx="13.18" ry="13.18" transform="translate(-40.29 170.1) rotate(-10)"/><path class="cls-11" d="M572.07,282.23l.69,4a15.11,15.11,0,0,0,17.45,12.21l41-7.22a15.11,15.11,0,0,0,12.22-17.45l-.7-4a15.1,15.1,0,0,0-17.45-12.22,15.11,15.11,0,0,0,12.22-17.45l-.69-3.95a15.11,15.11,0,0,0-17.45-12.22,15.11,15.11,0,0,0,12.21-17.45l-.69-3.95a15.11,15.11,0,0,0-17.45-12.22l-41,7.23A15.1,15.1,0,0,0,560.21,215l.7,4a15.11,15.11,0,0,0,17.45,12.22,15.11,15.11,0,0,0-12.22,17.45l.7,3.95a15.1,15.1,0,0,0,17.44,12.22A15.11,15.11,0,0,0,572.07,282.23Z"/><rect class="cls-13" x="617.22" y="268.15" width="13.28" height="13.28" transform="translate(1285.96 437.07) rotate(170)"/><rect class="cls-13" x="584.87" y="273.85" width="13.28" height="13.28" transform="translate(1222.74 454.01) rotate(170)"/><rect class="cls-13" x="611.35" y="234.86" width="13.28" height="13.28" transform="translate(1268.53 372.02) rotate(170)"/><rect class="cls-13" x="579" y="240.57" width="13.28" height="13.28" transform="translate(1205.31 388.97) rotate(170)"/><rect class="cls-13" x="605.8" y="203.36" width="13.28" height="13.28" transform="translate(1252.04 310.46) rotate(170)"/><rect class="cls-13" x="573.45" y="209.07" width="13.28" height="13.28" transform="translate(1188.81 327.4) rotate(170)"/><rect class="cls-11" x="595.21" y="443.6" width="291.7" height="30.3" rx="13.18" ry="13.18" transform="translate(-68.4 135.65) rotate(-10)"/><rect class="cls-14" x="608.88" y="475.13" width="11.61" height="11.61" transform="translate(-74.17 114.05) rotate(-10)"/><rect class="cls-14" x="637.33" y="470.11" width="11.61" height="11.61" transform="translate(-72.87 118.91) rotate(-10)"/><rect class="cls-14" x="665.78" y="465.09" width="11.61" height="11.61" transform="translate(-71.57 123.77) rotate(-10)"/><rect class="cls-14" x="694.23" y="460.08" width="11.61" height="11.61" transform="translate(-70.26 128.64) rotate(-10)"/><rect class="cls-14" x="722.68" y="455.06" width="11.61" height="11.61" transform="translate(-68.96 133.5) rotate(-10)"/><rect class="cls-14" x="751.13" y="450.04" width="11.61" height="11.61" transform="translate(-67.66 138.37) rotate(-10)"/><rect class="cls-14" x="778.31" y="445.25" width="11.61" height="11.61" transform="translate(-66.41 143.01) rotate(-10)"/><rect class="cls-14" x="806.76" y="440.23" width="11.61" height="11.61" transform="translate(-65.11 147.88) rotate(-10)"/><rect class="cls-14" x="834.65" y="435.32" width="11.61" height="11.61" transform="translate(-63.83 152.64) rotate(-10)"/><rect class="cls-14" x="863.1" y="430.3" width="11.61" height="11.61" transform="translate(-62.53 157.51) rotate(-10)"/><path class="cls-14" d="M773.38,147.65,748.73,152c-4.45.78-6.89,8-6.11,12.43s5.54,10.37,10,9.59l24.65-4.35c4.45-.78,6.89-8,6.11-12.43S777.82,146.86,773.38,147.65Z"/><rect class="cls-15" x="754.61" y="149.69" width="16.35" height="22.36" transform="translate(-16.35 134.9) rotate(-10)"/><path class="cls-14" d="M825.46,138.46l-24.65,4.35c-4.44.79-6.89,8-6.1,12.43s5.54,10.38,10,9.6l24.65-4.35c4.44-.79,6.89-8,6.1-12.43S829.91,137.68,825.46,138.46Z"/><rect class="cls-16" x="806.69" y="140.51" width="16.35" height="22.36" transform="translate(-13.96 143.8) rotate(-10)"/><path class="cls-14" d="M920.94,374l-37,6.52a12.26,12.26,0,1,0,4.26,24.14l37-6.52A12.26,12.26,0,1,0,920.94,374Z"/><rect class="cls-17" x="891.99" y="377.17" width="24.52" height="24.52" transform="translate(-53.89 162.94) rotate(-10)"/><circle class="cls-14" cx="603.74" cy="428.78" r="9.06"/><circle class="cls-14" cx="629.72" cy="424.2" r="9.06"/><circle class="cls-14" cx="655.7" cy="419.62" r="9.06"/><circle class="cls-14" cx="681.68" cy="415.04" r="9.06"/><circle class="cls-14" cx="595.14" cy="380.05" r="9.06"/><circle class="cls-14" cx="621.13" cy="375.47" r="9.06"/><circle class="cls-14" cx="647.11" cy="370.89" r="9.06"/><circle class="cls-14" cx="673.09" cy="366.31" r="9.06"/><rect class="cls-11" x="614.09" y="345.99" width="48.3" height="101.96" transform="translate(358.13 1094.45) rotate(-100)"/><line class="cls-18" x1="928.7" y1="116.87" x2="939.99" y2="180.89"/><rect class="cls-14" x="707.21" y="211.22" width="24.53" height="10.65" rx="0.78" ry="0.78" transform="translate(631.15 962.68) rotate(-100)"/><rect class="cls-14" x="722.92" y="208.45" width="24.53" height="10.65" rx="0.78" ry="0.78" transform="translate(652.32 974.91) rotate(-100)"/><rect class="cls-14" x="738.63" y="205.67" width="24.53" height="10.65" rx="0.78" ry="0.78" transform="translate(673.49 987.13) rotate(-100)"/><rect class="cls-14" x="754.35" y="202.9" width="24.53" height="10.65" rx="0.78" ry="0.78" transform="translate(694.66 999.35) rotate(-100)"/><rect class="cls-14" x="770.06" y="200.13" width="24.53" height="10.65" rx="0.78" ry="0.78" transform="translate(715.83 1011.58) rotate(-100)"/><rect class="cls-14" x="785.77" y="197.36" width="24.53" height="10.65" rx="0.78" ry="0.78" transform="matrix(-0.17, -0.98, 0.98, -0.17, 737, 1023.8)"/><rect class="cls-14" x="801.49" y="194.59" width="24.53" height="10.65" rx="0.78" ry="0.78" transform="translate(758.18 1036.02) rotate(-100)"/><rect class="cls-14" x="817.2" y="191.82" width="24.53" height="10.65" rx="0.78" ry="0.78" transform="translate(779.35 1048.25) rotate(-100)"/><rect class="cls-14" x="735.22" y="370.09" width="24.53" height="10.65" rx="0.78" ry="0.78" transform="translate(507.56 1176.74) rotate(-100)"/><rect class="cls-14" x="750.93" y="367.32" width="24.53" height="10.65" rx="0.78" ry="0.78" transform="translate(528.74 1188.96) rotate(-100)"/><rect class="cls-14" x="766.65" y="364.55" width="24.53" height="10.65" rx="0.78" ry="0.78" transform="translate(549.91 1201.19) rotate(-100)"/><rect class="cls-14" x="782.36" y="361.78" width="24.53" height="10.65" rx="0.78" ry="0.78" transform="translate(571.08 1213.41) rotate(-100)"/><rect class="cls-14" x="798.07" y="359.01" width="24.53" height="10.65" rx="0.78" ry="0.78" transform="translate(592.25 1225.63) rotate(-100)"/><rect class="cls-14" x="813.79" y="356.24" width="24.53" height="10.65" rx="0.78" ry="0.78" transform="translate(613.42 1237.85) rotate(-100)"/><rect class="cls-14" x="829.5" y="353.47" width="24.53" height="10.65" rx="0.78" ry="0.78" transform="translate(634.59 1250.08) rotate(-100)"/><rect class="cls-14" x="845.22" y="350.7" width="24.53" height="10.65" rx="0.78" ry="0.78" transform="translate(655.76 1262.3) rotate(-100)"/><rect class="cls-14" x="706.47" y="349.96" width="24.53" height="10.65" rx="0.78" ry="0.78" transform="translate(1488.24 580.37) rotate(170)"/><rect class="cls-14" x="703.7" y="334.25" width="24.53" height="10.65" rx="0.78" ry="0.78" transform="translate(1480.01 549.67) rotate(170)"/><rect class="cls-14" x="700.93" y="318.54" width="24.53" height="10.65" rx="0.78" ry="0.78" transform="translate(1471.78 518.96) rotate(170)"/><rect class="cls-14" x="698.16" y="302.82" width="24.53" height="10.65" rx="0.78" ry="0.78" transform="translate(1463.56 488.25) rotate(170)"/><rect class="cls-14" x="695.39" y="287.11" width="24.53" height="10.65" rx="0.78" ry="0.78" transform="translate(1455.33 457.54) rotate(170)"/><rect class="cls-14" x="692.62" y="271.39" width="24.53" height="10.65" rx="0.78" ry="0.78" transform="translate(1447.1 426.84) rotate(170)"/><rect class="cls-14" x="689.84" y="255.68" width="24.53" height="10.65" rx="0.78" ry="0.78" transform="matrix(-0.98, 0.17, -0.17, -0.98, 1438.87, 396.13)"/><rect class="cls-14" x="687.07" y="239.97" width="24.53" height="10.65" rx="0.78" ry="0.78" transform="translate(1430.64 365.42) rotate(170)"/><rect class="cls-14" x="865.35" y="321.95" width="24.53" height="10.65" rx="0.78" ry="0.78" transform="translate(1798.72 497.18) rotate(170)"/><rect class="cls-14" x="862.58" y="306.23" width="24.53" height="10.65" rx="0.78" ry="0.78" transform="translate(1790.49 466.48) rotate(170)"/><rect class="cls-14" x="859.81" y="290.52" width="24.53" height="10.65" rx="0.78" ry="0.78" transform="translate(1782.26 435.77) rotate(170)"/><rect class="cls-14" x="857.03" y="274.81" width="24.53" height="10.65" rx="0.78" ry="0.78" transform="translate(1774.03 405.06) rotate(170)"/><rect class="cls-14" x="854.26" y="259.09" width="24.53" height="10.65" rx="0.78" ry="0.78" transform="translate(1765.81 374.35) rotate(170)"/><rect class="cls-14" x="851.49" y="243.38" width="24.53" height="10.65" rx="0.78" ry="0.78" transform="translate(1757.58 343.65) rotate(170)"/><rect class="cls-14" x="848.72" y="227.67" width="24.53" height="10.65" rx="0.78" ry="0.78" transform="translate(1749.35 312.94) rotate(170)"/><rect class="cls-14" x="845.95" y="211.95" width="24.53" height="10.65" rx="0.78" ry="0.78" transform="translate(1741.12 282.23) rotate(170)"/><rect class="cls-11" x="709.52" y="207.53" width="159.31" height="159.31" rx="36.73" ry="36.73" transform="translate(-37.88 141.4) rotate(-10)"/><rect class="cls-14" x="971.71" y="263.21" width="36.27" height="90.59" transform="translate(-38.53 176.57) rotate(-10)"/><line class="cls-19" x1="964.21" y1="267.6" x2="979.85" y2="356.27"/></g></svg>