<svg id="Layer_1" data-name="Layer 1" xmlns="http://www.w3.org/2000/svg" viewBox="0 0 1024 366"><defs><style>.cls-1{fill:#e14164;}.cls-2{fill:#f089a7;stroke:#8fc78d;}.cls-10,.cls-2,.cls-8,.cls-9{stroke-miterlimit:10;}.cls-2,.cls-8{stroke-width:3px;}.cls-3{fill:#f9b233;}.cls-4{fill:#fff;}.cls-5,.cls-8{fill:#e94e1b;}.cls-6{fill:#90c78c;}.cls-7{fill:#45aedd;}.cls-10,.cls-8{stroke:#45aedd;}.cls-10,.cls-9{fill:none;stroke-width:3.17px;}.cls-9{stroke:#90c78c;}</style></defs><title>detail</title><rect class="cls-1" x="22.7" y="17.18" width="388.97" height="326.31" rx="5.67" ry="5.67"/><rect class="cls-2" x="255.66" y="-33.52" width="72.63" height="207.14" rx="5.67" ry="5.67" transform="translate(221.92 362.02) rotate(-90)"/><rect class="cls-3" x="717.42" y="17.18" width="282.58" height="326.31" rx="5.67" ry="5.67"/><path class="cls-4" d="M93.86,101.73,67.07,122.6l-11.68-5.81V62.38L67,56.52l26.6,20.92,42.12-42.17,27.71,11v86.32l-27.57,11.22Zm41.05,7.34v-39L109.7,89.58l25.21,19.49Zm-66.92-7L81.25,90,68,76.79Z"/><path class="cls-5" d="M986.46,259.42l-6.09-3.77c-.06-.6-.11-1.19-.18-1.78l5.24-4.88a2.07,2.07,0,0,0,.62-1.94,2.11,2.11,0,0,0-1.32-1.56L978,243c-.17-.57-.34-1.15-.52-1.72l4.17-5.8a2.08,2.08,0,0,0-.47-2.92,2,2,0,0,0-.89-.37L973.27,231c-.27-.54-.56-1.06-.85-1.59l3-6.5a2.09,2.09,0,0,0-2-3l-7.16.25c-.37-.46-.75-.92-1.13-1.37l1.65-7a2.1,2.1,0,0,0-2.53-2.53l-7,1.65c-.45-.39-.91-.76-1.37-1.13l.25-7.16a2.09,2.09,0,0,0-3-2l-6.5,3-1.59-.85-1.15-7.05a2.09,2.09,0,0,0-2.4-1.73,2.18,2.18,0,0,0-.89.36l-5.8,4.18c-.57-.18-1.14-.36-1.72-.52l-2.5-6.7a2.1,2.1,0,0,0-3.5-.69l-4.88,5.23-1.77-.17-3.77-6.09a2.1,2.1,0,0,0-3.57,0l-3.77,6.09-1.77.17-4.88-5.23a2.09,2.09,0,0,0-3-.11,2.06,2.06,0,0,0-.54.8l-2.5,6.7c-.58.16-1.15.34-1.73.52l-5.79-4.18a2.11,2.11,0,0,0-3.3,1.37l-1.15,7.05c-.53.28-1.06.56-1.58.85l-6.51-3a2.1,2.1,0,0,0-2,.16,2.07,2.07,0,0,0-.93,1.82l.25,7.16c-.47.37-.92.75-1.38,1.13l-7-1.64a2.09,2.09,0,0,0-2.52,2.52l1.64,7c-.38.45-.76.91-1.13,1.37l-7.16-.25a2.1,2.1,0,0,0-2,3l3,6.5c-.29.53-.58,1.05-.85,1.59l-7.06,1.15a2.09,2.09,0,0,0-1.73,2.4,2.19,2.19,0,0,0,.37.89l4.17,5.8c-.18.57-.35,1.14-.52,1.72l-6.69,2.5a2.11,2.11,0,0,0-1.23,2.71,2.14,2.14,0,0,0,.54.79l5.23,4.88c-.07.59-.12,1.18-.17,1.78l-6.09,3.77a2.08,2.08,0,0,0,0,3.56l6.09,3.77c0,.59.1,1.18.17,1.77l-5.24,4.88a2.11,2.11,0,0,0-.1,3,2.08,2.08,0,0,0,.8.53l6.69,2.5c.17.58.34,1.16.52,1.73l-4.17,5.8a2.09,2.09,0,0,0,1.37,3.29l7.05,1.15c.27.53.56,1.06.85,1.58l-3,6.51a2.1,2.1,0,0,0,2,3l7.16-.25c.37.47.75.92,1.13,1.38l-1.64,7A2.1,2.1,0,0,0,865.6,313l7-1.64c.46.38.91.75,1.38,1.12l-.25,7.16a2.09,2.09,0,0,0,3,2l6.51-3c.52.29,1.05.57,1.58.85l1.15,7.05a2.11,2.11,0,0,0,3.3,1.37l5.79-4.18,1.73.53,2.5,6.68a2.1,2.1,0,0,0,3.49.7l4.89-5.24,1.77.18,3.77,6.09a2.1,2.1,0,0,0,3.56,0l3.77-6.09c.6-.05,1.19-.11,1.78-.18l4.88,5.24a2.1,2.1,0,0,0,3.49-.7l2.51-6.68,1.72-.53,5.8,4.18a2.09,2.09,0,0,0,3.29-1.37l1.15-7.05,1.59-.85,6.5,3a2.1,2.1,0,0,0,2.78-1,2.18,2.18,0,0,0,.19-.95l-.25-7.16c.46-.37.92-.74,1.37-1.12l7,1.64a2.09,2.09,0,0,0,2-.56,2.06,2.06,0,0,0,.56-2l-1.64-7c.38-.46.76-.91,1.13-1.38l7.16.25a2.1,2.1,0,0,0,2-3l-3-6.51c.29-.52.58-1.05.85-1.58l7.06-1.15a2.1,2.1,0,0,0,1.36-3.29l-4.17-5.8c.18-.57.35-1.15.52-1.73l6.69-2.5a2.1,2.1,0,0,0,.69-3.5l-5.23-4.88c.06-.59.12-1.18.17-1.77l6.09-3.77a2.09,2.09,0,0,0,0-3.56ZM945.7,309.93a4.31,4.31,0,1,1,5.11-3.31,4.31,4.31,0,0,1-5.11,3.31Zm-2.07-14a3.91,3.91,0,0,0-4.66,3h0l-2.17,10.09a53.18,53.18,0,0,1-44.22-.21l-2.16-10.09a3.92,3.92,0,0,0-4.66-3l-8.91,1.91a51.86,51.86,0,0,1-4.61-5.43h43.34c.49,0,.82-.09.82-.53V276.35c0-.45-.33-.54-.82-.54H902.91v-9.72h13.71c1.25,0,6.69.36,8.43,7.31.54,2.14,1.74,9.1,2.56,11.32.81,2.5,4.13,7.49,7.66,7.49h21.6a4.3,4.3,0,0,0,.78-.08,54,54,0,0,1-4.91,5.77l-9.11-2Zm-59.94,13.78a4.31,4.31,0,1,1,3.3-5.12,4.31,4.31,0,0,1-3.3,5.12Zm-16.44-66.67a4.31,4.31,0,1,1-5.69-2.19,4.33,4.33,0,0,1,5.69,2.19Zm-5.06,12,9.28-4.12a3.94,3.94,0,0,0,2-5.19l-1.91-4.32h7.51v33.88H863.91A53.66,53.66,0,0,1,862.19,255Zm40.72-3.29v-10h17.9c.92,0,6.52,1.07,6.52,5.26,0,3.47-4.29,4.72-7.83,4.72Zm65,9c0,1.32-.05,2.64-.14,3.94h-5.44c-.55,0-.77.35-.77.89v2.5c0,5.88-3.31,7.16-6.22,7.48s-5.84-1.16-6.21-2.85c-1.64-9.18-4.36-11.14-8.65-14.53,5.33-3.39,10.88-8.38,10.88-15.07,0-7.22-4.95-11.76-8.33-14a23.62,23.62,0,0,0-11.38-3.75H875.42a53,53,0,0,1,29.66-16.74l6.64,7a3.93,3.93,0,0,0,5.54.13h0l7.42-7.09A53.08,53.08,0,0,1,961,234.45l-5.09,11.48a4,4,0,0,0,2,5.19l9.78,4.34c.17,1.74.26,3.49.26,5.27Zm-56.23-58a4.31,4.31,0,1,1-.14,6.1,4.3,4.3,0,0,1,.14-6.1Zm50.42,40.57a4.3,4.3,0,0,1,5.67-2.19h0a4.31,4.31,0,0,1-3.48,7.89h0a4.33,4.33,0,0,1-2.19-5.7Z"/><path class="cls-4" d="M36.2,146.57c0-4.91,2.19-10.27,8.43-10.27s8.45,5.36,8.45,10.27-2.19,10.26-8.45,10.26S36.2,151.47,36.2,146.57Zm14.3,0c0-3.89-1.51-8-5.87-8s-5.88,4.37-5.88,8c0,3.88,1.54,7.94,5.88,7.94S50.5,150.14,50.5,146.57Z"/><path class="cls-4" d="M66.12,155.1a4.22,4.22,0,0,1-3.66,1.73c-3.4,0-5.27-1.81-5.27-6.46V142h2.46v8.74c0,2.75,1.34,3.8,3.13,3.8s3.34-.91,3.34-3.75V142h2.47v14.49H66.12Z"/><path class="cls-4" d="M73.3,142h2.46v1.9a3.56,3.56,0,0,1,3.44-2.24,3.51,3.51,0,0,1,2.24.74l-.37,2.32A3.48,3.48,0,0,0,79,144.1c-1.39,0-3.24.93-3.24,4.22v8.17H73.3Z"/><path class="cls-4" d="M35.63,170.67h2.64L43,185c.17.57.4,1.28.59,2,.17-.74.4-1.45.57-2l4.6-14.35h2.64l-6.78,19.86H42.44Z"/><path class="cls-4" d="M53.61,186.44l2.33-.85a5,5,0,0,0,4.65,2.95c2.38,0,3.92-1.16,3.92-3.35S62.35,181.85,60,181c-2.78-1-5.81-2.29-5.81-5.75,0-2.67,2.24-4.91,6.1-4.91,3.15,0,5.22,1.5,5.81,3.54l-2.27.77a3.8,3.8,0,0,0-3.71-2c-2.1,0-3.38,1-3.38,2.61,0,1.84,2,2.66,4.29,3.49,2.78,1,6,2.49,6,6.41,0,3.65-2.78,5.73-6.53,5.73C57.07,190.87,54.49,189,53.61,186.44Z"/><path class="cls-4" d="M70.88,180.6c0-5,2.33-10.27,8.23-10.27,3.66,0,5.53,1.79,6.41,3.57L83.31,175a4.62,4.62,0,0,0-4.2-2.41c-4.25,0-5.67,4.34-5.67,8,0,3.94,1.7,7.94,5.67,7.94A4.65,4.65,0,0,0,83.42,186l2.27.85a6.78,6.78,0,0,1-6.58,4C73.1,190.87,70.88,185.65,70.88,180.6Z"/><path class="cls-4" d="M88.81,183.29c0-4.76,2.52-7.6,6.41-7.6s6.41,2.78,6.41,7.57-2.53,7.61-6.41,7.61S88.81,188.09,88.81,183.29Zm10.32,0c0-3.29-1.44-5.3-3.91-5.3s-3.92,2-3.92,5.33,1.45,5.28,3.92,5.28S99.13,186.58,99.13,183.26Z"/><path class="cls-4" d="M104.63,183.26c0-4.76,2.38-7.57,6-7.57a5.23,5.23,0,0,1,3.66,1.36v-5.84l2.46-1.17v20.49h-2.46v-1.14a4.79,4.79,0,0,1-3.66,1.48C106.93,190.87,104.63,187.94,104.63,183.26Zm9.65,3.35V179.8A3.92,3.92,0,0,0,111,178c-2.44,0-3.83,1.9-3.83,5.3,0,3,1.44,5.31,3.83,5.31A3.82,3.82,0,0,0,114.28,186.61Z"/><path class="cls-4" d="M120.57,183.26c0-4.79,2.58-7.57,6.44-7.57,3.26,0,6,2.13,6,6.89,0,.46,0,1.08-.08,1.65h-9.82c.2,2.66,1.79,4.39,4,4.39a4.34,4.34,0,0,0,3.12-1.3l1.5,1.67a6.6,6.6,0,0,1-4.68,1.88C123,190.87,120.57,187.69,120.57,183.26Zm9.93-1.13c0-3.29-2-4.26-3.49-4.26-2.1,0-3.8,1.28-3.94,4.26Z"/><path class="cls-4" d="M37.05,204.7h11.8V207H39.52v6.09h6.16v2.33H39.52v6.75h10v2.36H37.05Z"/><path class="cls-4" d="M57.19,217l-4.48-6.95h2.75l2.29,3.52c.32.51.6,1,.83,1.39.25-.43.51-.88.85-1.39l2.27-3.52h2.78L60,217l4.88,7.55H62.07l-2.67-4.12c-.31-.48-.57-.93-.82-1.39a13,13,0,0,1-.83,1.39l-2.66,4.12H52.34Z"/><path class="cls-4" d="M68.81,221.44v-9.22H66.46v-2.16h2.35v-4.79l2.47-1.19v6h3.58v2.16H71.28v8.39c0,1.11.23,2,1.51,2a4,4,0,0,0,2.15-.77l-.28,2.41a5.82,5.82,0,0,1-2.78.66C69.69,224.9,68.81,223.48,68.81,221.44Z"/><path class="cls-4" d="M77.44,217.29c0-4.79,2.58-7.57,6.43-7.57,3.27,0,6,2.13,6,6.89,0,.46,0,1.08-.09,1.65H80c.2,2.67,1.79,4.4,4,4.4a4.33,4.33,0,0,0,3.12-1.31L88.56,223a6.63,6.63,0,0,1-4.69,1.88C79.9,224.9,77.44,221.72,77.44,217.29Zm9.92-1.13c0-3.29-2-4.25-3.49-4.25-2.09,0-3.8,1.27-3.94,4.25Z"/><path class="cls-4" d="M102.48,215.79c0-2.75-1.33-3.8-3.12-3.8s-3.35.94-3.35,3.74v8.83H93.54v-14.5H96v1.48a4.38,4.38,0,0,1,3.75-1.82c3.29,0,5.19,1.82,5.19,6.5v8.34h-2.47Z"/><path class="cls-4" d="M108.55,222.46,110.3,221a5,5,0,0,0,3.55,1.73c1.53,0,2.69-.56,2.69-1.84,0-1.45-1.61-2.1-3.31-2.75-2.67-1-4.49-2.16-4.49-4.54s2.1-3.83,4.88-3.83a6.16,6.16,0,0,1,4.88,2.19l-1.7,1.41a4.32,4.32,0,0,0-3.21-1.39c-1.47,0-2.41.6-2.41,1.62,0,1.22,1.45,1.76,3.07,2.41,2.64.94,4.71,2.07,4.71,4.82s-2,4.12-5.17,4.12A6.78,6.78,0,0,1,108.55,222.46Z"/><path class="cls-4" d="M122.53,205.89a1.55,1.55,0,1,1,3.09,0,1.55,1.55,0,0,1-3.09,0Zm.31,4.17h2.47v14.5h-2.47Z"/><path class="cls-4" d="M129.16,217.32c0-4.76,2.53-7.6,6.41-7.6s6.41,2.78,6.41,7.57-2.52,7.61-6.41,7.61S129.16,222.12,129.16,217.32Zm10.33,0c0-3.29-1.45-5.3-3.92-5.3s-3.91,2-3.91,5.33,1.45,5.28,3.91,5.28S139.49,220.61,139.49,217.29Z"/><path class="cls-4" d="M154.77,215.79c0-2.75-1.33-3.8-3.12-3.8s-3.34.94-3.34,3.74v8.83h-2.47v-14.5h2.47v1.48a4.35,4.35,0,0,1,3.74-1.82c3.29,0,5.19,1.82,5.19,6.5v8.34h-2.47Z"/><path class="cls-4" d="M215.67,73.62l1.8-.66a3.84,3.84,0,0,0,3.61,2.29c1.85,0,3-.9,3-2.6s-1.67-2.6-3.48-3.26c-2.15-.79-4.51-1.78-4.51-4.47,0-2.07,1.74-3.8,4.73-3.8,2.45,0,4.06,1.16,4.52,2.75l-1.76.59a3,3,0,0,0-2.89-1.56c-1.63,0-2.62.77-2.62,2,0,1.44,1.59,2.07,3.33,2.71,2.15.82,4.66,1.94,4.66,5,0,2.84-2.15,4.45-5.06,4.45A5.42,5.42,0,0,1,215.67,73.62Z"/><path class="cls-4" d="M228.75,71.16c0-3.73,2-5.88,5-5.88,2.53,0,4.65,1.65,4.65,5.35,0,.35,0,.83-.07,1.27h-7.62c.16,2.07,1.39,3.42,3.08,3.42a3.38,3.38,0,0,0,2.43-1l1.16,1.3a5.1,5.1,0,0,1-3.63,1.46C230.67,77.06,228.75,74.59,228.75,71.16Zm7.71-.89c0-2.55-1.52-3.3-2.71-3.3-1.63,0-2.95,1-3.06,3.3Z"/><path class="cls-4" d="M248.2,70c0-2.14-1-2.95-2.42-2.95s-2.6.73-2.6,2.9v6.85h-1.92V65.54h1.92v1.15a3.37,3.37,0,0,1,2.9-1.41c2.56,0,4,1.41,4,5v6.47H248.2Z"/><path class="cls-4" d="M253,71.16c0-3.7,1.85-5.88,4.65-5.88a4.07,4.07,0,0,1,2.84,1V61.8l1.91-.9V76.79h-1.91v-.88a3.71,3.71,0,0,1-2.84,1.15C254.78,77.06,253,74.79,253,71.16Zm7.49,2.59V68.47A3,3,0,0,0,257.91,67c-1.89,0-3,1.47-3,4.12,0,2.33,1.12,4.11,3,4.11A3,3,0,0,0,260.49,73.75Z"/><path class="cls-4" d="M270.89,69.09c0-3.88,1.8-8,6.38-8a5.11,5.11,0,0,1,5,2.77l-1.72.88a3.57,3.57,0,0,0-3.26-1.87c-3.3,0-4.4,3.37-4.4,6.19,0,3.06,1.32,6.16,4.4,6.16a3.6,3.6,0,0,0,3.35-2l1.76.66a5.26,5.26,0,0,1-5.11,3.11C272.6,77.06,270.89,73,270.89,69.09Z"/><path class="cls-4" d="M284.81,71.18c0-3.7,1.95-5.9,5-5.9s5,2.15,5,5.88-2,5.9-5,5.9S284.81,74.9,284.81,71.18Zm8,0c0-2.56-1.12-4.12-3-4.12s-3,1.52-3,4.14,1.13,4.09,3,4.09S292.82,73.73,292.82,71.16Z"/><path class="cls-4" d="M310.94,70c0-1.54-.52-2.93-2.26-2.93-1.46,0-2.43,1.21-2.43,3v6.76h-1.91V70c0-1.54-.51-2.93-2.25-2.93-1.49,0-2.42,1.12-2.42,2.9v6.85h-1.91V65.54h1.91V66.6a3.57,3.57,0,0,1,2.95-1.32,3.42,3.42,0,0,1,3,1.65,4,4,0,0,1,7.22,2.49v7.37h-1.92Z"/><path class="cls-4" d="M329.58,70c0-1.54-.53-2.93-2.27-2.93-1.45,0-2.42,1.21-2.42,3v6.76H323V70c0-1.54-.5-2.93-2.24-2.93-1.5,0-2.43,1.12-2.43,2.9v6.85h-1.91V65.54h1.91V66.6a3.6,3.6,0,0,1,2.95-1.32,3.41,3.41,0,0,1,3,1.65,4,4,0,0,1,7.22,2.49v7.37h-1.91Z"/><path class="cls-4" d="M341.47,75.76a4.67,4.67,0,0,1-3.19,1.3c-2.29,0-3.92-1.28-3.92-3.79s2-3.72,4.21-3.72a5.8,5.8,0,0,1,2.9.72v-.79c0-2-1-2.53-2.44-2.53a5.89,5.89,0,0,0-3.28,1.12l-.55-1.6a7.59,7.59,0,0,1,4.07-1.19c1.76,0,4,.59,4,4v7.46h-1.81Zm0-1.87V72a5.4,5.4,0,0,0-2.64-.75c-1.45,0-2.66.64-2.66,2.07,0,1.25.86,2.09,2.4,2.09A3.91,3.91,0,0,0,341.47,73.89Z"/><path class="cls-4" d="M353.54,70c0-2.14-1-2.95-2.42-2.95s-2.6.73-2.6,2.9v6.85h-1.91V65.54h1.91v1.15a3.4,3.4,0,0,1,2.91-1.41c2.55,0,4,1.41,4,5v6.47h-1.92Z"/><path class="cls-4" d="M358.35,71.16c0-3.7,1.85-5.88,4.64-5.88a4.07,4.07,0,0,1,2.84,1V61.8l1.92-.9V76.79h-1.92v-.88A3.7,3.7,0,0,1,363,77.06C360.13,77.06,358.35,74.79,358.35,71.16Zm7.48,2.59V68.47A3,3,0,0,0,363.26,67c-1.9,0-3,1.47-3,4.12,0,2.33,1.13,4.11,3,4.11A3,3,0,0,0,365.83,73.75Z"/><path class="cls-6" d="M468,52.3c0-3.65,2.13-5.94,5.3-5.94a4.76,4.76,0,0,1,5,3.55l-3.06,1a2,2,0,0,0-1.86-1.47c-1.2,0-2.09,1.18-2.09,2.86s.89,2.84,2,2.84a2,2,0,0,0,1.91-1.64l3.08.89a4.78,4.78,0,0,1-5,3.83C470.15,58.22,468,56,468,52.3Z"/><path class="cls-6" d="M481.19,43.46,484.41,42V58h-3.22Z"/><path class="cls-6" d="M487.62,43.7a1.84,1.84,0,0,1,1.86-1.82,1.8,1.8,0,0,1,1.84,1.82,1.83,1.83,0,0,1-1.84,1.84A1.87,1.87,0,0,1,487.62,43.7Zm.25,2.93h3.21V58h-3.21Z"/><path class="cls-6" d="M499.37,56.07l2.06-1.75a4.24,4.24,0,0,0,2.69,1.27c.93,0,1.57-.25,1.57-.89s-.58-.82-1.93-1.33c-2.59-.87-4-1.73-4-3.79s1.93-3.22,4.21-3.22a5.52,5.52,0,0,1,4.26,1.89L506.13,50A2.91,2.91,0,0,0,504,49c-.8,0-1.33.25-1.33.73s1,1,2.22,1.24c1.68.56,3.72,1.36,3.72,3.73s-1.79,3.52-4.54,3.52A5.83,5.83,0,0,1,499.37,56.07Z"/><path class="cls-6" d="M510.61,52.28c0-3.63,2.09-5.92,5.39-5.92,2.86,0,5.1,1.73,5.1,5.37a11.3,11.3,0,0,1-.09,1.66h-7.25A2,2,0,0,0,516,55.5a3,3,0,0,0,2.55-1.2l1.86,1.86A5.42,5.42,0,0,1,516,58.22C512.65,58.22,510.61,56,510.61,52.28ZM518,51a1.94,1.94,0,0,0-2.15-1.88A2,2,0,0,0,513.78,51Z"/><path class="cls-6" d="M530.76,52.06c0-1.79-.46-2.59-1.79-2.59s-2,.84-2,2.55V58h-3.21V46.63H527v1a3.83,3.83,0,0,1,3.08-1.31c1.73,0,3.93.93,3.93,4.24V58h-3.22Z"/><path class="cls-6" d="M536.64,52.28c0-3.63,2-5.92,4.7-5.92a2.64,2.64,0,0,1,2.26,1.13v-4.1L546.81,42V58H543.6V57a2.37,2.37,0,0,1-2.31,1.19C538.48,58.22,536.64,56.18,536.64,52.28Zm7,2.13V50.22a2.22,2.22,0,0,0-1.75-.75c-1.27,0-2,1-2,2.81s.62,2.84,2,2.84A1.86,1.86,0,0,0,543.6,54.41Z"/><path class="cls-6" d="M550.14,49.89h6V53h-6Z"/><path class="cls-6" d="M558.94,52.3c0-3.65,2.13-5.94,5.3-5.94a4.76,4.76,0,0,1,5,3.55l-3.06,1a2,2,0,0,0-1.87-1.47c-1.19,0-2.08,1.18-2.08,2.86s.89,2.84,2,2.84a2,2,0,0,0,1.91-1.64l3.08.89a4.79,4.79,0,0,1-5,3.83C561.07,58.22,558.94,56,558.94,52.3Z"/><path class="cls-6" d="M585.3,52.11c0-2-.4-2.64-1.62-2.64-1.42,0-1.81.68-1.81,2.55V58h-3.22V52.11c0-2-.4-2.64-1.62-2.64-1.4,0-1.82.68-1.82,2.55V58H572V46.63h3.21v1a3.1,3.1,0,0,1,2.6-1.31,2.8,2.8,0,0,1,2.84,1.58,4.17,4.17,0,0,1,3.54-1.58c2.49,0,4.33,1,4.33,4.59v7H585.3Z"/><path class="cls-6" d="M591.18,52.28c0-3.63,2-5.92,4.7-5.92a2.64,2.64,0,0,1,2.26,1.13v-4.1L601.35,42V58h-3.21V57a2.37,2.37,0,0,1-2.31,1.19C593,58.22,591.18,56.18,591.18,52.28Zm7,2.13V50.22a2.22,2.22,0,0,0-1.75-.75c-1.27,0-2,1-2,2.81s.62,2.84,2,2.84A1.88,1.88,0,0,0,598.14,54.41Z"/><path class="cls-6" d="M478.54,154.85c0-3.66,2.13-5.94,5.3-5.94a4.76,4.76,0,0,1,5,3.55l-3.06,1a2,2,0,0,0-1.86-1.46c-1.2,0-2.09,1.18-2.09,2.86s.89,2.84,2,2.84a2,2,0,0,0,1.91-1.64l3.08.89a4.78,4.78,0,0,1-5,3.83C480.67,160.77,478.54,158.58,478.54,154.85Z"/><path class="cls-6" d="M491.71,146l3.22-1.5v16h-3.22Z"/><path class="cls-6" d="M498.14,146.25a1.84,1.84,0,0,1,1.86-1.82,1.8,1.8,0,0,1,1.84,1.82,1.83,1.83,0,0,1-1.84,1.84A1.87,1.87,0,0,1,498.14,146.25Zm.25,2.92h3.21V160.5h-3.21Z"/><path class="cls-6" d="M524,154.65c0-2-.4-2.64-1.62-2.64-1.42,0-1.82.69-1.82,2.55v5.94h-3.21v-5.85c0-2-.4-2.64-1.62-2.64-1.4,0-1.82.69-1.82,2.55v5.94h-3.21V149.17h3.21v1.05a3.1,3.1,0,0,1,2.6-1.31,2.79,2.79,0,0,1,2.83,1.57,4.22,4.22,0,0,1,3.55-1.57c2.48,0,4.33,1,4.33,4.59v7H524Z"/><path class="cls-6" d="M529.84,154.85c0-3.66,2-5.94,5.26-5.94s5.21,2.28,5.21,5.94-2,5.92-5.21,5.92S529.84,158.58,529.84,154.85Zm7.25,0c0-1.77-.73-2.84-2-2.84s-2,1.07-2,2.84.8,2.82,2,2.82S537.09,156.62,537.09,154.85Z"/><path class="cls-6" d="M550.09,154.61c0-1.8-.47-2.6-1.8-2.6s-2,.85-2,2.55v5.94h-3.21V149.17h3.21v1.05a3.84,3.84,0,0,1,3.09-1.31c1.73,0,3.92.93,3.92,4.23v7.36h-3.21Z"/><path class="cls-6" d="M556.29,146.25a1.84,1.84,0,0,1,1.87-1.82,1.81,1.81,0,0,1,1.84,1.82,1.84,1.84,0,0,1-1.84,1.84A1.87,1.87,0,0,1,556.29,146.25Zm.25,2.92h3.21V160.5h-3.21Z"/><path class="cls-6" d="M563.65,157.67V152H562.1v-2.82h1.55V146l3.2-1.53v4.67h2.46V152h-2.46v5.37a.61.61,0,0,0,.64.64,4.68,4.68,0,0,0,2-.44l-.36,2.7a5.7,5.7,0,0,1-2.57.51C564.5,160.77,563.65,159.66,563.65,157.67Z"/><path class="cls-6" d="M571.37,154.85c0-3.66,2-5.94,5.25-5.94s5.21,2.28,5.21,5.94-2,5.92-5.21,5.92S571.37,158.58,571.37,154.85Zm7.25,0c0-1.77-.73-2.84-2-2.84s-2,1.07-2,2.84.8,2.82,2,2.82S578.62,156.62,578.62,154.85Z"/><path class="cls-6" d="M584.6,149.17h3.22v1a2.5,2.5,0,0,1,2.15-1.28,3,3,0,0,1,2.24,1l-.42,2.93a3,3,0,0,0-2-.78c-1,0-1.95.53-1.95,2.35v6.14H584.6Z"/><path class="cls-7" d="M502.6,100.37l1.4-1.11a3.18,3.18,0,0,0,2.57,1.47c1.2,0,2.22-.58,2.22-1.71,0-2.17-5-1.91-5-5.28,0-2,1.71-3.24,3.93-3.24a4.13,4.13,0,0,1,3.65,1.76l-1.35,1a3,3,0,0,0-2.42-1.16c-1.15,0-2,.6-2,1.53,0,2,5,1.67,5,5.32,0,2.07-1.64,3.4-4.19,3.4A4.44,4.44,0,0,1,502.6,100.37Z"/><path class="cls-7" d="M513.69,100.33a5.35,5.35,0,0,1,.11-1L515,92.46h-1.84l.31-1.69h1.82l.71-4,2-.73-.82,4.68h2.66l-.29,1.69h-2.66l-1.15,6.45a6.2,6.2,0,0,0-.09.84c0,.55.2.89.88.89a3.38,3.38,0,0,0,1.73-.56l-.48,1.82a4.4,4.4,0,0,1-2.11.47A1.85,1.85,0,0,1,513.69,100.33Z"/><path class="cls-7" d="M520.6,97.51c0-4.3,2.46-7,5.7-7a3.13,3.13,0,0,1,2.57,1.11l.87-4.79,2-.73-2.81,16h-1.87l.16-1a3.71,3.71,0,0,1-2.91,1.25C522,102.37,520.6,100.44,520.6,97.51Zm7,1.57.93-5.38a2.35,2.35,0,0,0-2.24-1.47c-2.4,0-3.75,2.22-3.75,5.24,0,1.75.69,3.14,2.26,3.14A3.68,3.68,0,0,0,527.59,99.08Z"/><path class="cls-7" d="M532.57,97.67c0-3.46,2-7.17,5.81-7.17,2.86,0,4.1,2.24,4.1,4.66,0,3.48-2,7.21-5.76,7.21C533.82,102.37,532.57,100.26,532.57,97.67Zm8-2.38c0-1.59-.64-3.06-2.33-3.06-2.5,0-3.81,2.84-3.81,5.33,0,1.68.69,3,2.3,3C539.31,100.61,540.6,97.8,540.6,95.29Z"/><path class="cls-7" d="M551,101a3.67,3.67,0,0,1-3,1.36c-2,0-3.28-1.18-3.28-3.51a9.16,9.16,0,0,1,.15-1.48l1.15-6.61h1.89l-1.2,6.74a4.73,4.73,0,0,0-.11,1c0,1.49.82,2.08,1.91,2.08,1.39,0,2.7-.7,3.1-2.94l1.2-6.9h1.88l-2,11.33h-1.89Z"/><path class="cls-7" d="M557.23,100.33a5.35,5.35,0,0,1,.11-1l1.2-6.87h-1.85l.31-1.69h1.82l.71-4,2-.73-.82,4.68h2.66l-.29,1.69h-2.66l-1.15,6.45a6.2,6.2,0,0,0-.09.84c0,.55.2.89.88.89a3.38,3.38,0,0,0,1.73-.56l-.48,1.82a4.4,4.4,0,0,1-2.11.47A1.85,1.85,0,0,1,557.23,100.33Z"/><path class="cls-7" d="M502.6,327.08,504,326a3.17,3.17,0,0,0,2.57,1.46c1.2,0,2.22-.57,2.22-1.71,0-2.17-5-1.9-5-5.27,0-2,1.71-3.24,3.93-3.24A4.13,4.13,0,0,1,511.4,319l-1.35,1a3,3,0,0,0-2.42-1.15c-1.15,0-2,.6-2,1.53,0,2,5,1.66,5,5.32,0,2.06-1.64,3.39-4.19,3.39A4.43,4.43,0,0,1,502.6,327.08Z"/><path class="cls-7" d="M513.69,327a5.34,5.34,0,0,1,.11-1l1.19-6.88h-1.84l.31-1.68h1.82l.71-4,2-.73-.82,4.68h2.66l-.29,1.68h-2.66l-1.15,6.45a6.33,6.33,0,0,0-.09.85c0,.55.2.88.88.88a3.38,3.38,0,0,0,1.73-.55l-.48,1.82a4.4,4.4,0,0,1-2.11.46A1.84,1.84,0,0,1,513.69,327Z"/><path class="cls-7" d="M520.6,324.22c0-4.3,2.46-7,5.7-7a3.13,3.13,0,0,1,2.57,1.11l.87-4.79,2-.73-2.81,16h-1.87l.16-1a3.71,3.71,0,0,1-2.91,1.24C522,329.07,520.6,327.14,520.6,324.22Zm7,1.57.93-5.39a2.36,2.36,0,0,0-2.24-1.46c-2.4,0-3.75,2.22-3.75,5.23,0,1.75.69,3.15,2.26,3.15A3.68,3.68,0,0,0,527.59,325.79Z"/><path class="cls-7" d="M532.57,324.37c0-3.46,2-7.16,5.81-7.16,2.86,0,4.1,2.24,4.1,4.66,0,3.48-2,7.2-5.76,7.2C533.82,329.07,532.57,327,532.57,324.37Zm8-2.37c0-1.6-.64-3.06-2.33-3.06-2.5,0-3.81,2.84-3.81,5.32,0,1.69.69,3.06,2.3,3.06C539.31,327.32,540.6,324.51,540.6,322Z"/><path class="cls-7" d="M551,327.72a3.66,3.66,0,0,1-3,1.35c-2,0-3.28-1.17-3.28-3.5a9.27,9.27,0,0,1,.15-1.49l1.15-6.6h1.89l-1.2,6.74a4.73,4.73,0,0,0-.11,1c0,1.48.82,2.08,1.91,2.08,1.39,0,2.7-.71,3.1-2.95l1.2-6.89h1.88l-2,11.33h-1.89Z"/><path class="cls-7" d="M557.23,327a5.34,5.34,0,0,1,.11-1l1.2-6.88h-1.85l.31-1.68h1.82l.71-4,2-.73-.82,4.68h2.66l-.29,1.68h-2.66l-1.15,6.45a6.33,6.33,0,0,0-.09.85c0,.55.2.88.88.88a3.38,3.38,0,0,0,1.73-.55l-.48,1.82a4.4,4.4,0,0,1-2.11.46A1.84,1.84,0,0,1,557.23,327Z"/><path class="cls-7" d="M502.6,230.58l1.4-1.11a3.16,3.16,0,0,0,2.57,1.47c1.2,0,2.22-.58,2.22-1.71,0-2.17-5-1.91-5-5.28,0-2,1.71-3.23,3.93-3.23a4.13,4.13,0,0,1,3.65,1.75l-1.35,1a3,3,0,0,0-2.41-1.16c-1.16,0-2,.6-2,1.53,0,2,5,1.67,5,5.33,0,2.06-1.64,3.39-4.19,3.39A4.44,4.44,0,0,1,502.6,230.58Z"/><path class="cls-7" d="M513.69,230.54a5.44,5.44,0,0,1,.11-1l1.2-6.87h-1.84l.31-1.69h1.81L516,217l2-.74-.82,4.68h2.66l-.29,1.69h-2.66l-1.15,6.45a6.2,6.2,0,0,0-.09.84c0,.56.2.89.89.89a3.38,3.38,0,0,0,1.72-.56l-.48,1.82a4.4,4.4,0,0,1-2.11.47A1.85,1.85,0,0,1,513.69,230.54Z"/><path class="cls-7" d="M520.6,227.72c0-4.3,2.46-7,5.7-7a3.11,3.11,0,0,1,2.57,1.1l.87-4.78,2-.74-2.81,16h-1.87l.16-1a3.72,3.72,0,0,1-2.9,1.24C522,232.58,520.6,230.65,520.6,227.72Zm7,1.58.93-5.39a2.35,2.35,0,0,0-2.24-1.46c-2.4,0-3.75,2.21-3.75,5.23,0,1.75.69,3.15,2.26,3.15A3.71,3.71,0,0,0,527.59,229.3Z"/><path class="cls-7" d="M532.57,227.88c0-3.46,2-7.16,5.81-7.16,2.86,0,4.11,2.24,4.11,4.65,0,3.48-2,7.21-5.77,7.21C533.82,232.58,532.57,230.47,532.57,227.88Zm8-2.38c0-1.59-.64-3.05-2.33-3.05-2.5,0-3.81,2.83-3.81,5.32,0,1.68.69,3.06,2.3,3.06C539.31,230.83,540.6,228,540.6,225.5Z"/><path class="cls-7" d="M551,231.23a3.69,3.69,0,0,1-3,1.35c-2,0-3.28-1.18-3.28-3.51a9.16,9.16,0,0,1,.15-1.48l1.15-6.61h1.89l-1.2,6.74a4.79,4.79,0,0,0-.11,1c0,1.49.82,2.09,1.91,2.09,1.39,0,2.7-.71,3.1-3l1.2-6.9h1.88l-2,11.33h-1.89Z"/><path class="cls-7" d="M557.23,230.54a5.44,5.44,0,0,1,.11-1l1.2-6.87H556.7L557,221h1.81l.71-3.94,2-.74-.82,4.68h2.66l-.29,1.69h-2.66l-1.15,6.45a6.2,6.2,0,0,0-.09.84c0,.56.2.89.89.89a3.35,3.35,0,0,0,1.72-.56l-.48,1.82a4.4,4.4,0,0,1-2.11.47A1.85,1.85,0,0,1,557.23,230.54Z"/><path class="cls-7" d="M510,191.52l1.4-1.11a3.18,3.18,0,0,0,2.57,1.47c1.2,0,2.22-.58,2.22-1.71,0-2.17-5-1.91-5-5.28,0-2,1.71-3.23,3.93-3.23a4.16,4.16,0,0,1,3.66,1.75l-1.36,1a3,3,0,0,0-2.41-1.16c-1.15,0-2,.6-2,1.53,0,2,5,1.67,5,5.32,0,2.07-1.64,3.4-4.19,3.4A4.44,4.44,0,0,1,510,191.52Z"/><path class="cls-7" d="M521.12,191.48a5.35,5.35,0,0,1,.11-1l1.2-6.87h-1.84l.31-1.69h1.82l.7-3.95,2-.73-.82,4.68h2.66l-.29,1.69h-2.66l-1.15,6.45a6.2,6.2,0,0,0-.09.84c0,.55.2.89.89.89a3.42,3.42,0,0,0,1.73-.56l-.49,1.82a4.37,4.37,0,0,1-2.11.47A1.85,1.85,0,0,1,521.12,191.48Z"/><path class="cls-7" d="M528,188.66c0-4.3,2.46-7,5.69-7a3.14,3.14,0,0,1,2.58,1.1l.86-4.79,2-.73-2.82,16h-1.86l.15-1a3.68,3.68,0,0,1-2.9,1.25C529.41,193.52,528,191.59,528,188.66Zm7,1.58.93-5.39a2.34,2.34,0,0,0-2.24-1.47c-2.39,0-3.75,2.22-3.75,5.24,0,1.75.69,3.15,2.27,3.15A3.71,3.71,0,0,0,535,190.24Z"/><path class="cls-7" d="M541.89,181.92h1.86l-2,11.33H539.9Zm.31-3.08a1.41,1.41,0,0,1,1.33-1.4,1,1,0,0,1,1,1,1.41,1.41,0,0,1-1.35,1.4A1,1,0,0,1,542.2,178.84Z"/><path class="cls-7" d="M547.34,181.92h1.87l-.2,1.22a3.87,3.87,0,0,1,3-1.48c2,0,3.2,1.24,3.2,3.54a9.52,9.52,0,0,1-.16,1.73l-1.13,6.32h-1.86l1.17-6.7a5.7,5.7,0,0,0,.11-1.1c0-1.33-.66-2.07-1.86-2.07a3.34,3.34,0,0,0-3.08,3.09l-1.2,6.78h-1.86Z"/><path class="cls-6" d="M471.41,279.47c0-3.65,2.12-5.94,5.29-5.94a4.76,4.76,0,0,1,5,3.55l-3.06,1a2,2,0,0,0-1.86-1.47c-1.2,0-2.09,1.18-2.09,2.86s.89,2.84,2,2.84a2,2,0,0,0,1.91-1.64l3.08.89a4.77,4.77,0,0,1-5,3.83C473.53,285.39,471.41,283.2,471.41,279.47Z"/><path class="cls-6" d="M484.57,270.63l3.22-1.51v16h-3.22Z"/><path class="cls-6" d="M491,270.87a1.84,1.84,0,0,1,1.87-1.82,1.81,1.81,0,0,1,1.84,1.82,1.84,1.84,0,0,1-1.84,1.84A1.87,1.87,0,0,1,491,270.87Zm.25,2.93h3.21v11.33h-3.21Z"/><path class="cls-6" d="M503.64,270.63l3.21-1.51v16h-3.21Z"/><path class="cls-6" d="M510.07,270.87a1.84,1.84,0,0,1,1.86-1.82,1.81,1.81,0,0,1,1.84,1.82,1.84,1.84,0,0,1-1.84,1.84A1.87,1.87,0,0,1,510.07,270.87Zm.24,2.93h3.22v11.33h-3.22Z"/><path class="cls-6" d="M516.1,283.24l2.06-1.75a4.24,4.24,0,0,0,2.68,1.27c.94,0,1.58-.25,1.58-.89s-.58-.82-1.93-1.33c-2.59-.87-4-1.73-4-3.79s1.93-3.22,4.21-3.22a5.53,5.53,0,0,1,4.26,1.89l-2.09,1.7a2.91,2.91,0,0,0-2.17-.95c-.8,0-1.33.25-1.33.73s1,1,2.22,1.24c1.68.56,3.72,1.36,3.72,3.73s-1.8,3.52-4.54,3.52A5.83,5.83,0,0,1,516.1,283.24Z"/><path class="cls-6" d="M528.27,282.29v-5.68h-1.55V273.8h1.55v-3.15l3.19-1.53v4.68h2.46v2.81h-2.46V282a.62.62,0,0,0,.65.64,4.68,4.68,0,0,0,1.95-.44l-.36,2.7a5.7,5.7,0,0,1-2.57.51C529.11,285.39,528.27,284.29,528.27,282.29Z"/><path class="cls-6" d="M536.85,277.06h6v3.06h-6Z"/><path class="cls-6" d="M549.42,284.4v3.7l-3.21,1.44V273.8h3.21v.77a2.68,2.68,0,0,1,2.28-1c2.75,0,4.68,2,4.68,5.94,0,3.73-2.06,5.92-4.72,5.92A2.69,2.69,0,0,1,549.42,284.4Zm3.75-4.93c0-1.75-.65-2.83-2-2.83a2.13,2.13,0,0,0-1.73.68v4.24a1.89,1.89,0,0,0,1.73.73C552.43,282.29,553.17,281.25,553.17,279.47Z"/><path class="cls-6" d="M558.6,279.47c0-3.65,2-5.94,5.25-5.94s5.21,2.29,5.21,5.94-2,5.92-5.21,5.92S558.6,283.2,558.6,279.47Zm7.25,0c0-1.77-.73-2.83-2-2.83s-2,1.06-2,2.83.8,2.82,2,2.82S565.85,281.25,565.85,279.47Z"/><path class="cls-6" d="M571.83,273.8h3.22v1a2.5,2.5,0,0,1,2.15-1.29,3,3,0,0,1,2.24,1l-.42,2.92a3,3,0,0,0-2-.77c-1,0-2,.53-2,2.35v6.14h-3.22Z"/><path class="cls-6" d="M581.94,282.29v-5.68h-1.55V273.8h1.55v-3.15l3.2-1.53v4.68h2.46v2.81h-2.46V282a.61.61,0,0,0,.64.64,4.68,4.68,0,0,0,2-.44l-.35,2.7a5.77,5.77,0,0,1-2.58.51C582.79,285.39,581.94,284.29,581.94,282.29Z"/><path class="cls-6" d="M589.33,283.24l2.06-1.75a4.21,4.21,0,0,0,2.68,1.27c.93,0,1.57-.25,1.57-.89s-.57-.82-1.93-1.33c-2.59-.87-4-1.73-4-3.79s1.93-3.22,4.22-3.22a5.49,5.49,0,0,1,4.25,1.89l-2.08,1.7a2.91,2.91,0,0,0-2.17-.95c-.8,0-1.34.25-1.34.73s1,1,2.22,1.24c1.69.56,3.73,1.36,3.73,3.73s-1.8,3.52-4.55,3.52A5.83,5.83,0,0,1,589.33,283.24Z"/><rect class="cls-2" x="255.66" y="79.8" width="72.63" height="207.14" rx="5.67" ry="5.67" transform="translate(108.6 475.35) rotate(-90)"/><rect class="cls-2" x="255.66" y="193.12" width="72.63" height="207.14" rx="5.67" ry="5.67" transform="translate(-4.72 588.67) rotate(-90)"/><rect class="cls-8" x="695" y="7.87" width="72.63" height="124.36" rx="5.67" ry="5.67" transform="translate(661.26 801.36) rotate(-90)"/><rect class="cls-8" x="695" y="121.19" width="72.63" height="124.36" rx="5.67" ry="5.67" transform="translate(547.94 914.68) rotate(-90)"/><rect class="cls-8" x="695" y="234.52" width="72.63" height="124.36" rx="5.67" ry="5.67" transform="translate(434.61 1028.01) rotate(-90)"/><path class="cls-4" d="M202.58,176.38h6.08c3.7,0,4.87,2.21,4.87,4.39a4.23,4.23,0,0,1-3.59,4.29l3.3,6.74h-2.16l-3.17-6.61H204.5v6.61h-1.92Zm6.13,7c2.15,0,2.88-1.32,2.88-2.6a2.55,2.55,0,0,0-2.88-2.64H204.5v5.24Z"/><path class="cls-4" d="M223.73,190.72a3.29,3.29,0,0,1-2.84,1.34c-2.65,0-4.1-1.41-4.1-5v-6.49h1.92v6.78c0,2.13,1,2.95,2.42,2.95s2.6-.71,2.6-2.91v-6.82h1.91V191.8h-1.91Z"/><path class="cls-4" d="M236.24,185c0-2.13-1-3-2.43-3s-2.59.73-2.59,2.91v6.85H229.3V180.55h1.92v1.14a3.37,3.37,0,0,1,2.9-1.41c2.56,0,4,1.41,4,5v6.48h-1.91Z"/><path class="cls-4" d="M246.33,188.63l1.8-.66a3.86,3.86,0,0,0,3.61,2.29c1.85,0,3-.91,3-2.6s-1.67-2.6-3.48-3.26c-2.16-.79-4.51-1.78-4.51-4.47,0-2.07,1.74-3.81,4.73-3.81,2.45,0,4,1.17,4.52,2.75l-1.77.6a3,3,0,0,0-2.88-1.57c-1.63,0-2.62.77-2.62,2,0,1.43,1.59,2.07,3.33,2.71,2.15.81,4.66,1.94,4.66,5,0,2.84-2.15,4.45-5.06,4.45A5.41,5.41,0,0,1,246.33,188.63Z"/><path class="cls-4" d="M259.41,186.16c0-3.72,2-5.88,5-5.88,2.53,0,4.64,1.65,4.64,5.35,0,.35,0,.84-.06,1.28h-7.62c.15,2.07,1.39,3.41,3.08,3.41a3.37,3.37,0,0,0,2.42-1l1.17,1.3a5.11,5.11,0,0,1-3.63,1.45C261.33,192.06,259.41,189.6,259.41,186.16Zm7.71-.88c0-2.55-1.52-3.3-2.71-3.3-1.63,0-3,1-3.06,3.3Z"/><path class="cls-4" d="M271.92,180.55h1.92V182a2.92,2.92,0,0,1,4.4-1.17l-.29,1.81a2.66,2.66,0,0,0-1.6-.48c-1.08,0-2.51.72-2.51,3.28v6.34h-1.92Z"/><path class="cls-4" d="M280.16,177.31a1.2,1.2,0,1,1,2.4,0,1.2,1.2,0,0,1-2.4,0Zm.24,3.24h1.92V191.8H280.4Z"/><path class="cls-4" d="M292.42,190.76a4.64,4.64,0,0,1-3.19,1.3c-2.29,0-3.92-1.28-3.92-3.79s2-3.72,4.21-3.72a5.71,5.71,0,0,1,2.9.73v-.79c0-2-1-2.53-2.44-2.53a5.81,5.81,0,0,0-3.28,1.12l-.55-1.61a7.67,7.67,0,0,1,4.07-1.19c1.76,0,4,.6,4,4.05v7.47h-1.81Zm0-1.87V187a5.51,5.51,0,0,0-2.64-.75c-1.45,0-2.66.64-2.66,2.07,0,1.26.86,2.1,2.4,2.1A3.89,3.89,0,0,0,292.42,188.89Z"/><path class="cls-4" d="M297.67,176.8l1.91-.9v15.9h-1.91Z"/><path class="cls-4" d="M320.31,191.8v-9.47c0-.53,0-1.3,0-1.7-.18.51-.46,1.22-.68,1.74l-4.23,9.69-4.1-9.73c-.19-.48-.48-1.17-.66-1.67a16.63,16.63,0,0,1,.07,1.67v9.47h-1.92V176.38h1.81l4.47,10.38.4,1c.11-.33.26-.7.39-1l4.49-10.38h1.83V191.8Z"/><path class="cls-4" d="M325.53,186.18c0-3.7,2-5.9,5-5.9s5,2.16,5,5.88-2,5.9-5,5.9S325.53,189.9,325.53,186.18Zm8,0c0-2.55-1.12-4.12-3-4.12s-3,1.52-3,4.14,1.12,4.1,3,4.1S333.54,188.74,333.54,186.16Z"/><path class="cls-4" d="M345.42,185c0-2.13-1-3-2.43-3s-2.59.73-2.59,2.91v6.85h-1.92V180.55h1.92v1.14a3.37,3.37,0,0,1,2.9-1.41c2.56,0,4,1.41,4,5v6.48h-1.91Z"/><path class="cls-4" d="M350.66,177.31a1.2,1.2,0,1,1,2.4,0,1.2,1.2,0,0,1-2.4,0Zm.24,3.24h1.92V191.8H350.9Z"/><path class="cls-4" d="M357.13,189.38v-7.16h-1.82v-1.67h1.82v-3.73l1.92-.92v4.65h2.77v1.67h-2.77v6.52c0,.86.18,1.54,1.17,1.54a3.13,3.13,0,0,0,1.67-.6l-.22,1.88a4.62,4.62,0,0,1-2.16.5C357.82,192.06,357.13,191,357.13,189.38Z"/><path class="cls-4" d="M363.83,186.18c0-3.7,2-5.9,5-5.9s5,2.16,5,5.88-2,5.9-5,5.9S363.83,189.9,363.83,186.18Zm8,0c0-2.55-1.12-4.12-3-4.12s-3,1.52-3,4.14,1.12,4.1,3,4.1S371.84,188.74,371.84,186.16Z"/><path class="cls-4" d="M376.78,180.55h1.92V182a2.92,2.92,0,0,1,4.4-1.17l-.29,1.81a2.66,2.66,0,0,0-1.6-.48c-1.08,0-2.51.72-2.51,3.28v6.34h-1.92Z"/><path class="cls-4" d="M214.56,290.67h1.92v13.56h7.57v1.85h-9.49Z"/><path class="cls-4" d="M226.32,291.59a1.2,1.2,0,1,1,2.4,0,1.2,1.2,0,0,1-2.4,0Zm.25,3.24h1.91v11.25h-1.91Z"/><path class="cls-4" d="M231.39,304.45l1.36-1.17a3.91,3.91,0,0,0,2.76,1.34c1.19,0,2.09-.44,2.09-1.43s-1.26-1.63-2.58-2.13c-2.07-.77-3.48-1.68-3.48-3.52s1.63-3,3.79-3a4.8,4.8,0,0,1,3.79,1.7l-1.32,1.1a3.35,3.35,0,0,0-2.49-1.08c-1.15,0-1.87.46-1.87,1.26s1.12,1.36,2.37,1.87c2.05.72,3.66,1.6,3.66,3.74s-1.56,3.19-4,3.19A5.25,5.25,0,0,1,231.39,304.45Z"/><path class="cls-4" d="M243.13,303.66V296.5H241.3v-1.67h1.83v-3.72l1.91-.93v4.65h2.78v1.67H245V303c0,.86.18,1.54,1.17,1.54a3.1,3.1,0,0,0,1.67-.6l-.22,1.88a4.58,4.58,0,0,1-2.15.5C243.81,306.34,243.13,305.24,243.13,303.66Z"/><path class="cls-4" d="M255.33,302.91l1.81-.66a3.84,3.84,0,0,0,3.61,2.29c1.85,0,3-.91,3-2.6s-1.68-2.6-3.48-3.26c-2.16-.79-4.52-1.78-4.52-4.47,0-2.07,1.74-3.81,4.74-3.81,2.44,0,4.05,1.17,4.51,2.75l-1.76.6a3,3,0,0,0-2.89-1.57c-1.62,0-2.62.78-2.62,2,0,1.43,1.59,2.07,3.33,2.71,2.16.81,4.67,1.94,4.67,5,0,2.85-2.16,4.45-5.07,4.45A5.42,5.42,0,0,1,255.33,302.91Z"/><path class="cls-4" d="M268.41,300.44c0-3.72,2-5.88,5-5.88,2.53,0,4.65,1.65,4.65,5.35a12,12,0,0,1-.07,1.28h-7.62c.16,2.07,1.39,3.41,3.09,3.41a3.4,3.4,0,0,0,2.42-1l1.16,1.3a5.09,5.09,0,0,1-3.63,1.45C270.33,306.34,268.41,303.88,268.41,300.44Zm7.71-.88c0-2.55-1.52-3.3-2.71-3.3-1.63,0-3,1-3.06,3.3Z"/><path class="cls-4" d="M280.92,294.83h1.92v1.47a2.76,2.76,0,0,1,2.66-1.74,2.72,2.72,0,0,1,1.74.57l-.28,1.81a2.72,2.72,0,0,0-1.61-.48c-1.08,0-2.51.72-2.51,3.28v6.34h-1.92Z"/><path class="cls-4" d="M289.16,291.59a1.2,1.2,0,1,1,2.4,0,1.2,1.2,0,0,1-2.4,0Zm.24,3.24h1.92v11.25H289.4Z"/><path class="cls-4" d="M301.43,305a4.65,4.65,0,0,1-3.2,1.3c-2.29,0-3.91-1.27-3.91-3.79s2-3.72,4.2-3.72a5.77,5.77,0,0,1,2.91.73v-.79c0-2-1-2.53-2.45-2.53a5.84,5.84,0,0,0-3.28,1.12l-.55-1.61a7.68,7.68,0,0,1,4.08-1.19c1.76,0,4,.6,4,4.05v7.47h-1.8Zm0-1.87v-1.94a5.57,5.57,0,0,0-2.64-.74c-1.46,0-2.67.63-2.67,2.06,0,1.26.86,2.1,2.4,2.1A3.91,3.91,0,0,0,301.43,303.17Z"/><path class="cls-4" d="M306.67,291.08l1.92-.9v15.9h-1.92Z"/><path class="cls-4" d="M317.84,290.67h5.9c3.74,0,5,2.33,5,4.62,0,2.11-1.36,4.6-5,4.6h-4v6.19h-1.91Zm9,4.62a2.67,2.67,0,0,0-2.93-2.84h-4.12v5.66h4.12A2.68,2.68,0,0,0,326.8,295.29Z"/><path class="cls-4" d="M330.06,300.46c0-3.7,2-5.9,5-5.9s5,2.16,5,5.88-2,5.9-5,5.9S330.06,304.18,330.06,300.46Zm8,0c0-2.55-1.13-4.12-3-4.12s-3,1.52-3,4.14,1.12,4.1,3,4.1S338.08,303,338.08,300.44Z"/><path class="cls-4" d="M343,294.83h1.92v1.47a2.75,2.75,0,0,1,2.66-1.74,2.72,2.72,0,0,1,1.74.57l-.28,1.81a2.72,2.72,0,0,0-1.61-.48c-1.08,0-2.51.72-2.51,3.28v6.34H343Z"/><path class="cls-4" d="M352.57,303.66V296.5h-1.83v-1.67h1.83v-3.72l1.92-.93v4.65h2.77v1.67h-2.77V303c0,.86.17,1.54,1.16,1.54a3.16,3.16,0,0,0,1.68-.6l-.22,1.88a4.66,4.66,0,0,1-2.16.5C353.25,306.34,352.57,305.24,352.57,303.66Z"/><path class="cls-4" d="M359.4,304.45l1.36-1.17a3.91,3.91,0,0,0,2.76,1.34c1.19,0,2.09-.44,2.09-1.43s-1.26-1.63-2.58-2.13c-2.07-.77-3.48-1.68-3.48-3.52s1.63-3,3.79-3a4.8,4.8,0,0,1,3.79,1.7l-1.32,1.1a3.35,3.35,0,0,0-2.49-1.08c-1.15,0-1.87.46-1.87,1.26s1.12,1.36,2.37,1.87c2.05.72,3.66,1.6,3.66,3.74s-1.56,3.19-4,3.19A5.25,5.25,0,0,1,359.4,304.45Z"/><path class="cls-4" d="M681.23,75.16,682.59,74a3.9,3.9,0,0,0,2.75,1.34c1.19,0,2.09-.44,2.09-1.43s-1.25-1.63-2.57-2.14c-2.07-.77-3.48-1.67-3.48-3.52s1.63-3,3.79-3A4.77,4.77,0,0,1,689,67l-1.32,1.1A3.35,3.35,0,0,0,685.14,67c-1.14,0-1.87.47-1.87,1.26,0,1,1.13,1.36,2.38,1.87,2.05.73,3.66,1.61,3.66,3.74s-1.57,3.2-4,3.2A5.23,5.23,0,0,1,681.23,75.16Z"/><path class="cls-4" d="M691.64,71.16c0-3.72,2-5.88,5-5.88,2.53,0,4.65,1.65,4.65,5.35a12,12,0,0,1-.07,1.27H693.6c.16,2.07,1.39,3.42,3.09,3.42a3.37,3.37,0,0,0,2.42-1l1.16,1.3a5.1,5.1,0,0,1-3.63,1.46C693.56,77.06,691.64,74.59,691.64,71.16Zm7.71-.88c0-2.56-1.52-3.31-2.71-3.31-1.63,0-2.95,1-3.06,3.31Z"/><path class="cls-4" d="M711.09,70c0-2.14-1-2.95-2.42-2.95s-2.6.73-2.6,2.91v6.84h-1.92V65.54h1.92v1.15A3.38,3.38,0,0,1,709,65.28c2.55,0,4,1.41,4,5v6.47h-1.91Z"/><path class="cls-4" d="M715.89,71.16c0-3.7,1.85-5.88,4.65-5.88a4.07,4.07,0,0,1,2.84,1V61.8l1.91-.9V76.79h-1.91v-.88a3.71,3.71,0,0,1-2.84,1.15C717.68,77.06,715.89,74.79,715.89,71.16Zm7.49,2.59V68.47A3,3,0,0,0,720.8,67c-1.89,0-3,1.47-3,4.12,0,2.33,1.12,4.11,3,4.11A3,3,0,0,0,723.38,73.75Z"/><path class="cls-4" d="M728.93,69.31h5.15v1.85h-5.15Z"/><path class="cls-4" d="M737.06,71.18c0-3.7,1.81-5.9,4.76-5.9a3.88,3.88,0,0,1,3.94,2.62l-1.81.66a2.16,2.16,0,0,0-2.11-1.5c-1.92,0-2.82,1.59-2.82,4.12s1,4.07,2.75,4.07a2.27,2.27,0,0,0,2.29-1.67l1.78.59a4,4,0,0,1-4.11,2.89C738.87,77.06,737.06,74.9,737.06,71.18Z"/><path class="cls-4" d="M761.92,70c0-1.54-.53-2.93-2.27-2.93-1.45,0-2.42,1.21-2.42,3v6.76h-1.91V70c0-1.54-.51-2.93-2.25-2.93-1.5,0-2.42,1.12-2.42,2.91v6.84h-1.92V65.54h1.92V66.6a3.57,3.57,0,0,1,3-1.32,3.42,3.42,0,0,1,3,1.65,4,4,0,0,1,7.22,2.49v7.37h-1.92Z"/><path class="cls-4" d="M766.71,71.16c0-3.7,1.85-5.88,4.64-5.88a4.07,4.07,0,0,1,2.84,1V61.8l1.92-.9V76.79h-1.92v-.88a3.7,3.7,0,0,1-2.84,1.15C768.49,77.06,766.71,74.79,766.71,71.16Zm7.48,2.59V68.47A3,3,0,0,0,771.62,67c-1.9,0-3,1.47-3,4.12,0,2.33,1.13,4.11,3,4.11A3,3,0,0,0,774.19,73.75Z"/><rect class="cls-5" x="886.71" y="68.33" width="52.09" height="150.29" rx="5.67" ry="5.67" transform="translate(769.28 1056.22) rotate(-90)"/><path class="cls-4" d="M850.4,149.45l1.81-.66a3.82,3.82,0,0,0,3.61,2.29c1.85,0,3-.9,3-2.6s-1.68-2.59-3.48-3.25c-2.16-.8-4.52-1.79-4.52-4.47,0-2.07,1.74-3.81,4.74-3.81,2.44,0,4,1.16,4.51,2.75l-1.76.59a3,3,0,0,0-2.89-1.56c-1.63,0-2.62.77-2.62,2,0,1.43,1.59,2.07,3.33,2.7,2.16.82,4.67,1.94,4.67,5,0,2.84-2.16,4.45-5.07,4.45A5.43,5.43,0,0,1,850.4,149.45Z"/><path class="cls-4" d="M863.48,147c0-3.72,2-5.88,5-5.88,2.53,0,4.65,1.65,4.65,5.35a12.28,12.28,0,0,1-.07,1.28h-7.62c.16,2.07,1.39,3.41,3.09,3.41a3.4,3.4,0,0,0,2.42-1l1.16,1.29a5.1,5.1,0,0,1-3.63,1.46C865.4,152.89,863.48,150.42,863.48,147Zm7.71-.88c0-2.56-1.52-3.31-2.71-3.31-1.63,0-3,1-3.06,3.31Z"/><path class="cls-4" d="M876,141.37h1.92v1.48a2.92,2.92,0,0,1,4.4-1.17l-.28,1.81a2.65,2.65,0,0,0-1.61-.49c-1.08,0-2.51.73-2.51,3.28v6.34H876Z"/><path class="cls-4" d="M884.23,138.14a1.2,1.2,0,1,1,2.4,0,1.2,1.2,0,0,1-2.4,0Zm.24,3.23h1.92v11.25h-1.92Z"/><path class="cls-4" d="M896.5,151.59a4.7,4.7,0,0,1-3.2,1.3c-2.29,0-3.92-1.28-3.92-3.79s2-3.72,4.21-3.72a5.77,5.77,0,0,1,2.91.73v-.8c0-2-1-2.53-2.45-2.53a5.92,5.92,0,0,0-3.28,1.12l-.55-1.6a7.59,7.59,0,0,1,4.07-1.19c1.77,0,4,.59,4,4v7.46h-1.8Zm0-1.87v-1.94a5.47,5.47,0,0,0-2.65-.75c-1.45,0-2.66.64-2.66,2.07,0,1.26.86,2.09,2.4,2.09A3.9,3.9,0,0,0,896.5,149.72Z"/><path class="cls-4" d="M901.74,137.63l1.92-.9v15.89h-1.92Z"/><path class="cls-4" d="M909.32,151.57v4.6l-1.92.9v-15.7h1.92v.95a3.75,3.75,0,0,1,2.88-1.21c2.86,0,4.65,2.27,4.65,5.88s-1.92,5.9-4.65,5.9A3.51,3.51,0,0,1,909.32,151.57Zm5.57-4.58c0-2.45-1.08-4.12-2.93-4.12a2.93,2.93,0,0,0-2.64,1.52v5.19A3.33,3.33,0,0,0,912,151.1C913.83,151.1,914.89,149.65,914.89,147Z"/><path class="cls-4" d="M919.16,147c0-3.7,2-5.9,5-5.9s5,2.16,5,5.88-2,5.9-5,5.9S919.16,150.73,919.16,147Zm8,0c0-2.56-1.13-4.12-3-4.12s-3,1.52-3,4.14,1.12,4.09,3,4.09S927.18,149.56,927.18,147Z"/><path class="cls-4" d="M932.11,141.37H934v1.48a2.92,2.92,0,0,1,4.4-1.17l-.28,1.81a2.65,2.65,0,0,0-1.61-.49c-1.08,0-2.51.73-2.51,3.28v6.34h-1.92Z"/><path class="cls-4" d="M941.67,150.2v-7.15h-1.83v-1.68h1.83v-3.72l1.92-.92v4.64h2.77v1.68h-2.77v6.51c0,.86.17,1.54,1.16,1.54a3.15,3.15,0,0,0,1.68-.59l-.22,1.87a4.53,4.53,0,0,1-2.16.51C942.35,152.89,941.67,151.79,941.67,150.2Z"/><path class="cls-4" d="M948.81,145.14H954V147h-5.15Z"/><path class="cls-4" d="M957.6,141.37h1.91v1.48a2.93,2.93,0,0,1,4.41-1.17l-.29,1.81A2.63,2.63,0,0,0,962,143c-1.08,0-2.51.73-2.51,3.28v6.34H957.6Z"/><path class="cls-4" d="M965.42,151l1.36-1.16a3.9,3.9,0,0,0,2.75,1.34c1.19,0,2.09-.44,2.09-1.43s-1.25-1.63-2.57-2.14c-2.07-.77-3.48-1.67-3.48-3.52s1.63-3,3.79-3a4.77,4.77,0,0,1,3.78,1.69l-1.32,1.1a3.36,3.36,0,0,0-2.49-1.07c-1.14,0-1.87.46-1.87,1.25,0,.95,1.13,1.37,2.38,1.87,2,.73,3.66,1.61,3.66,3.75s-1.57,3.19-4,3.19A5.23,5.23,0,0,1,965.42,151Z"/><path class="cls-4" d="M705.15,183.26c0-1.54-.53-2.93-2.27-2.93-1.45,0-2.42,1.21-2.42,3v6.76h-1.91v-6.82c0-1.54-.51-2.93-2.25-2.93-1.5,0-2.42,1.12-2.42,2.91v6.84H692V178.83h1.92v1.06a3.57,3.57,0,0,1,3-1.32,3.39,3.39,0,0,1,3,1.65,4,4,0,0,1,7.23,2.49v7.37h-1.92Z"/><path class="cls-4" d="M709.94,184.47c0-3.7,2-5.9,5-5.9s5,2.16,5,5.88-2,5.9-5,5.9S709.94,188.19,709.94,184.47Zm8,0c0-2.56-1.12-4.12-3-4.12s-3,1.52-3,4.14,1.13,4.09,3,4.09S718,187,718,184.45Z"/><path class="cls-4" d="M729.82,183.28c0-2.14-1-2.95-2.42-2.95s-2.6.73-2.6,2.91v6.84h-1.91V178.83h1.91V180a3.4,3.4,0,0,1,2.91-1.41c2.55,0,4,1.41,4,5v6.47h-1.92Z"/><path class="cls-4" d="M735.07,175.6a1.2,1.2,0,0,1,1.18-1.24,1.22,1.22,0,0,1,1.22,1.24,1.19,1.19,0,0,1-1.22,1.18A1.17,1.17,0,0,1,735.07,175.6Zm.24,3.23h1.91v11.25h-1.91Z"/><path class="cls-4" d="M741.54,187.66v-7.15h-1.83v-1.68h1.83v-3.72l1.92-.92v4.64h2.77v1.68h-2.77V187c0,.86.17,1.54,1.16,1.54a3.15,3.15,0,0,0,1.68-.59l-.22,1.87a4.53,4.53,0,0,1-2.16.51C742.22,190.35,741.54,189.25,741.54,187.66Z"/><path class="cls-4" d="M748.24,184.47c0-3.7,2-5.9,5-5.9s5,2.16,5,5.88-2,5.9-5,5.9S748.24,188.19,748.24,184.47Zm8,0c0-2.56-1.12-4.12-3-4.12s-3,1.52-3,4.14,1.12,4.09,3,4.09S756.25,187,756.25,184.45Z"/><path class="cls-4" d="M761.19,178.83h1.91v1.48a2.93,2.93,0,0,1,4.41-1.17l-.29,1.81a2.63,2.63,0,0,0-1.61-.49c-1.07,0-2.51.73-2.51,3.28v6.34h-1.91Z"/><path class="cls-4" d="M685.74,291.52l1.92-.9v15.89h-1.92Z"/><path class="cls-4" d="M691.18,292a1.2,1.2,0,1,1,2.4,0,1.2,1.2,0,0,1-2.4,0Zm.24,3.23h1.92v11.25h-1.92Z"/><path class="cls-4" d="M696.25,304.89l1.36-1.17a3.9,3.9,0,0,0,2.75,1.34c1.19,0,2.1-.44,2.1-1.43s-1.26-1.63-2.58-2.14c-2.07-.77-3.48-1.67-3.48-3.52s1.63-3,3.79-3a4.82,4.82,0,0,1,3.79,1.69l-1.33,1.1a3.34,3.34,0,0,0-2.48-1.07c-1.15,0-1.88.46-1.88,1.25,0,.95,1.13,1.37,2.38,1.87,2.05.73,3.66,1.61,3.66,3.75s-1.57,3.19-4,3.19A5.25,5.25,0,0,1,696.25,304.89Z"/><path class="cls-4" d="M708,304.09v-7.15h-1.83v-1.68H708v-3.72l1.91-.92v4.64h2.78v1.68H709.9v6.51c0,.86.18,1.55,1.17,1.55a3.1,3.1,0,0,0,1.67-.6l-.22,1.87a4.48,4.48,0,0,1-2.16.51C708.67,306.78,708,305.68,708,304.09Z"/><path class="cls-4" d="M715.12,299h5.15v1.85h-5.15Z"/><path class="cls-4" d="M725.83,305.46v4.6l-1.92.9v-15.7h1.92v.95a3.75,3.75,0,0,1,2.88-1.21c2.86,0,4.65,2.27,4.65,5.88s-1.92,5.9-4.65,5.9A3.51,3.51,0,0,1,725.83,305.46Zm5.57-4.58c0-2.45-1.08-4.12-2.93-4.12a2.93,2.93,0,0,0-2.64,1.52v5.2a3.34,3.34,0,0,0,2.64,1.52C730.34,305,731.4,303.54,731.4,300.88Z"/><path class="cls-4" d="M735.67,300.9c0-3.7,2-5.9,5-5.9s5,2.16,5,5.88-2,5.9-5,5.9S735.67,304.62,735.67,300.9Zm8,0c0-2.56-1.13-4.12-3-4.12s-3,1.52-3,4.14,1.12,4.1,3,4.1S743.69,303.45,743.69,300.88Z"/><path class="cls-4" d="M748.62,295.26h1.92v1.48a2.92,2.92,0,0,1,4.4-1.17l-.28,1.81a2.65,2.65,0,0,0-1.61-.49c-1.08,0-2.51.73-2.51,3.28v6.34h-1.92Z"/><path class="cls-4" d="M758.18,304.09v-7.15h-1.83v-1.68h1.83v-3.72l1.92-.92v4.64h2.77v1.68H760.1v6.51c0,.86.17,1.55,1.16,1.55a3.16,3.16,0,0,0,1.68-.6l-.22,1.87a4.53,4.53,0,0,1-2.16.51C758.86,306.78,758.18,305.68,758.18,304.09Z"/><path class="cls-4" d="M765,304.89l1.36-1.17a3.94,3.94,0,0,0,2.76,1.34c1.19,0,2.09-.44,2.09-1.43s-1.26-1.63-2.58-2.14c-2.07-.77-3.48-1.67-3.48-3.52s1.63-3,3.79-3a4.82,4.82,0,0,1,3.79,1.69l-1.32,1.1a3.38,3.38,0,0,0-2.49-1.07c-1.15,0-1.87.46-1.87,1.25,0,.95,1.12,1.37,2.37,1.87,2.05.73,3.66,1.61,3.66,3.75s-1.56,3.19-4,3.19A5.25,5.25,0,0,1,765,304.89Z"/><line class="cls-9" x1="395.31" y1="66.43" x2="656.28" y2="66.43"/><path class="cls-6" d="M668.9,66.43c-5.94,2.2-13.3,6-17.87,9.94l3.6-9.94L651,56.49C655.6,60.47,663,64.23,668.9,66.43Z"/><line class="cls-10" x1="381.16" y1="80.34" x2="668.9" y2="80.34"/><path class="cls-4" d="M381.5,86.29a6,6,0,1,1,6-6A5.95,5.95,0,0,1,381.5,86.29Z"/><path class="cls-7" d="M381.5,87.08a6.75,6.75,0,1,0-6.74-6.74,6.75,6.75,0,0,0,6.74,6.74Zm0-11.9a5.16,5.16,0,1,1-5.16,5.16,5.16,5.16,0,0,1,5.16-5.16Z"/><line class="cls-9" x1="395.31" y1="292.47" x2="656.28" y2="292.47"/><path class="cls-6" d="M668.9,292.47c-5.94,2.21-13.3,6-17.87,9.94l3.6-9.94-3.6-9.94C655.6,286.51,663,290.27,668.9,292.47Z"/><line class="cls-10" x1="381.16" y1="306.38" x2="668.9" y2="306.38"/><path class="cls-4" d="M381.5,312.34a6,6,0,1,1,6-6A6,6,0,0,1,381.5,312.34Z"/><path class="cls-7" d="M381.5,313.13a6.75,6.75,0,1,0-6.74-6.75,6.76,6.76,0,0,0,6.74,6.75Zm0-11.91a5.16,5.16,0,1,1-5.16,5.16,5.17,5.17,0,0,1,5.16-5.16Z"/><line class="cls-9" x1="395.31" y1="168.22" x2="656.28" y2="168.22"/><path class="cls-6" d="M668.9,168.22c-5.94,2.21-13.3,6-17.87,9.95l3.6-9.95-3.6-9.94C655.6,162.27,663,166,668.9,168.22Z"/><line class="cls-10" x1="381.16" y1="209.58" x2="668.9" y2="209.58"/><path class="cls-4" d="M381.5,215.53a6,6,0,1,1,6-5.95A5.95,5.95,0,0,1,381.5,215.53Z"/><path class="cls-7" d="M381.5,216.33a6.75,6.75,0,1,0-6.74-6.75,6.76,6.76,0,0,0,6.74,6.75Zm0-11.91a5.16,5.16,0,1,1-5.16,5.16,5.16,5.16,0,0,1,5.16-5.16Z"/><line class="cls-10" x1="683.05" y1="201.14" x2="395.31" y2="201.14"/><path class="cls-4" d="M682.71,195.18a6,6,0,1,1-6,6A6,6,0,0,1,682.71,195.18Z"/><path class="cls-7" d="M682.71,194.39a6.75,6.75,0,1,0,6.74,6.75,6.76,6.76,0,0,0-6.74-6.75Zm0,11.91a5.17,5.17,0,1,1,5.16-5.16,5.17,5.17,0,0,1-5.16,5.16Z"/></svg>