<svg id="Layer_1" data-name="Layer 1" xmlns="http://www.w3.org/2000/svg" xmlns:xlink="http://www.w3.org/1999/xlink" viewBox="0 0 1024 512"><defs><style>.cls-1{fill:#c0c0e2;}.cls-2{fill:#363277;}.cls-3{fill:#e14164;}.cls-4{fill:#f9b233;}.cls-5{fill:#fff;}.cls-6{fill:#c2c1c1;}.cls-7{fill:#f089a7;}.cls-8{fill:#e94e1b;}.cls-9{fill:#2fac66;stroke:#208f4c;stroke-width:2.31px;}.cls-17,.cls-18,.cls-21,.cls-22,.cls-23,.cls-24,.cls-27,.cls-28,.cls-29,.cls-30,.cls-9{stroke-miterlimit:10;}.cls-10{fill:#3c3c3b;}.cls-11{fill:#c6c6c6;}.cls-12{fill:#e5bf05;}.cls-13{fill:#dadada;}.cls-14{fill:#e5251b;}.cls-15{fill:#36a9e1;}.cls-16{fill:#888988;}.cls-17,.cls-18,.cls-21,.cls-22,.cls-23,.cls-24,.cls-27,.cls-28,.cls-29,.cls-30{fill:none;}.cls-17{stroke:#575756;}.cls-17,.cls-18{stroke-width:1.76px;}.cls-18{stroke:#c6c6c6;}.cls-19{fill:#969696;}.cls-20{fill:#9292c7;}.cls-21,.cls-22{stroke:#e14164;}.cls-21,.cls-22,.cls-23,.cls-24{stroke-width:6px;}.cls-22{stroke-dasharray:10.72 10.72;}.cls-23,.cls-24{stroke:#e94f1c;}.cls-24{stroke-dasharray:10.58 10.58;}.cls-25{fill:#e94f1c;}.cls-26{fill:#1d1d1b;}.cls-27{stroke:#1d1d1b;stroke-width:10px;}.cls-28,.cls-29,.cls-30{stroke-width:3px;}.cls-28{stroke:url(#linear-gradient);}.cls-29{stroke:url(#linear-gradient-2);}.cls-30{stroke:url(#linear-gradient-3);}</style><linearGradient id="linear-gradient" x1="354.14" y1="188.45" x2="444.22" y2="188.45" gradientUnits="userSpaceOnUse"><stop offset="0" stop-color="#fff"/><stop offset="1" stop-color="#e6007e"/></linearGradient><linearGradient id="linear-gradient-2" x1="354.14" y1="249.72" x2="444.22" y2="249.72" xlink:href="#linear-gradient"/><linearGradient id="linear-gradient-3" x1="354.14" y1="310.01" x2="444.22" y2="310.01" xlink:href="#linear-gradient"/></defs><title>Diagram</title><rect class="cls-1" x="14.97" y="12.69" width="368.44" height="485.31" rx="5.67" ry="5.67"/><rect class="cls-2" x="171.92" y="45.2" width="196.21" height="65.96" rx="5.67" ry="5.67"/><rect class="cls-3" x="31.05" y="257.77" width="338.36" height="209.87" rx="5.67" ry="5.67"/><rect class="cls-4" x="489.97" y="13.67" width="240.71" height="231.84" rx="5.67" ry="5.67"/><path class="cls-2" d="M76.46,106.91,46.65,130.15l-13-6.48V63.12l13-6.53L76.2,79.88,123.08,33l30.84,12.28V141.3l-30.68,12.49Zm45.7,8.18V71.65L94.09,93.39l28.07,21.7Zm-74.49-7.82L62.43,93.86,47.67,79.16Z"/><path class="cls-5" d="M89.32,321.88,69,337.7l-8.86-4.41V292.07L69,287.62l20.16,15.86,31.92-32,21,8.37V345.3l-20.89,8.5Zm31.11,5.57V297.88l-19.11,14.8,19.11,14.77Zm-50.71-5.32,10-9.13-10-10Z"/><rect class="cls-6" x="822.33" y="1.78" width="110.89" height="249.64" rx="5.67" ry="5.67" transform="translate(751.18 1004.38) rotate(-90)"/><rect class="cls-7" x="231.36" y="202.09" width="49.34" height="196.21" rx="5.67" ry="5.67" transform="translate(-44.16 556.23) rotate(-90)"/><path class="cls-8" d="M719.8,157.85,714,154.28c0-.56-.11-1.12-.17-1.68l5-4.63a2,2,0,0,0-.66-3.31l-6.33-2.37c-.16-.55-.33-1.09-.5-1.63l3.95-5.49a2,2,0,0,0-.45-2.78,1.87,1.87,0,0,0-.84-.34L707.32,131q-.39-.77-.81-1.5l2.81-6.17a2,2,0,0,0-1.87-2.8l-6.78.23c-.35-.44-.71-.87-1.08-1.3l1.56-6.6a2,2,0,0,0-2.38-2.39L692.16,112c-.43-.37-.86-.73-1.3-1.08l.24-6.78a2,2,0,0,0-2.81-1.87l-6.16,2.81q-.75-.42-1.5-.81l-1.09-6.68a2,2,0,0,0-2.28-1.64,2,2,0,0,0-.84.35l-5.5,3.95-1.63-.5-2.37-6.33a2,2,0,0,0-3.31-.66l-4.62,5c-.56-.07-1.12-.12-1.68-.17l-3.57-5.77a2,2,0,0,0-2.74-.64,2,2,0,0,0-.64.64l-3.57,5.77c-.56,0-1.12.1-1.68.17l-4.63-5a2,2,0,0,0-2.8-.11,2.08,2.08,0,0,0-.51.77l-2.37,6.33-1.63.5-5.49-3.95a2,2,0,0,0-3.12,1.29l-1.09,6.68q-.76.39-1.5.81l-6.17-2.81a2,2,0,0,0-2.8,1.87l.23,6.78c-.44.36-.87.71-1.3,1.08l-6.6-1.56a2,2,0,0,0-2.39,2.39l1.55,6.6c-.36.43-.71.86-1.06,1.3l-6.79-.23a2,2,0,0,0-1.72.88,2,2,0,0,0-.15,1.92l2.81,6.17q-.42.73-.81,1.5l-6.68,1.09a2,2,0,0,0-1.64,2.27,2,2,0,0,0,.35.85l4,5.49c-.17.54-.34,1.08-.5,1.63l-6.33,2.37a2,2,0,0,0-1.16,2.56,1.9,1.9,0,0,0,.5.75l5,4.63c-.06.55-.12,1.12-.17,1.68l-5.77,3.57a2,2,0,0,0,0,3.37l5.77,3.57c.05.57.11,1.13.17,1.68l-5,4.63a2,2,0,0,0,.66,3.31l6.33,2.37c.16.55.33,1.09.5,1.63l-4,5.5a2,2,0,0,0,.45,2.77,2,2,0,0,0,.84.35l6.68,1.08q.39.76.81,1.5l-2.81,6.17a2,2,0,0,0,1.87,2.8l6.78-.23,1.07,1.3-1.55,6.61a2,2,0,0,0,2.39,2.38l6.6-1.56c.43.37.87.72,1.3,1.07l-.23,6.79a2,2,0,0,0,1.91,2.05,2,2,0,0,0,.89-.18L622,214q.74.42,1.5.81l1.09,6.68a2,2,0,0,0,3.12,1.29l5.49-3.95,1.63.49,2.37,6.34a2,2,0,0,0,3.31.66l4.63-5,1.68.17,3.57,5.76a2,2,0,0,0,3.37,0l3.58-5.76,1.68-.17,4.62,5a2,2,0,0,0,3.31-.66l2.37-6.34,1.64-.49,5.49,3.95a2,2,0,0,0,2.77-.45,2,2,0,0,0,.35-.84l1.09-6.68c.5-.26,1-.54,1.5-.81l6.16,2.81a2,2,0,0,0,2.63-1,1.88,1.88,0,0,0,.17-.9l-.23-6.79c.44-.35.87-.7,1.3-1.07l6.6,1.56a2,2,0,0,0,2.39-2.38l-1.55-6.61c.36-.43.72-.86,1.06-1.3l6.79.23a2,2,0,0,0,1.87-2.8l-2.81-6.16c.28-.5.55-1,.81-1.51L714,187a2,2,0,0,0,1.29-3.11l-3.95-5.49c.17-.55.34-1.09.49-1.64l6.34-2.37a2,2,0,0,0,.66-3.31l-5-4.63c.06-.55.12-1.12.17-1.68l5.76-3.57a2,2,0,0,0,0-3.37ZM681.2,205.7a4.09,4.09,0,1,1,4.84-3.14,4.09,4.09,0,0,1-4.84,3.14Zm-2-13.26a3.72,3.72,0,0,0-4.42,2.86h0l-2.05,9.56a50.39,50.39,0,0,1-41.89-.2l-2-9.56a3.71,3.71,0,0,0-4.41-2.86L616,194.05a49.74,49.74,0,0,1-4.36-5.14h41c.47,0,.78-.08.78-.5V173.88c0-.42-.31-.5-.78-.5h-12v-9.21h13c1.19,0,6.34.34,8,6.93.51,2,1.65,8.61,2.42,10.72.77,2.37,3.92,7.09,7.26,7.09h20.46a3.93,3.93,0,0,0,.74-.07,50.4,50.4,0,0,1-4.65,5.46l-8.63-1.86ZM622.46,205.5a4.09,4.09,0,1,1,3.13-4.85,4.09,4.09,0,0,1-3.13,4.85Zm-15.57-63.15a4.08,4.08,0,1,1-5.39-2.08,4.09,4.09,0,0,1,5.39,2.08ZM602.1,153.7l8.79-3.91a3.73,3.73,0,0,0,1.89-4.92L611,140.78h7.12v32.09H603.73a50.36,50.36,0,0,1-1.63-19.17Zm38.57-3.12v-9.46h17c.88,0,6.18,1,6.18,5,0,3.3-4.07,4.48-7.41,4.48Zm61.61,8.51c0,1.26,0,2.5-.14,3.73H697c-.52,0-.73.34-.73.85V166c0,5.57-3.14,6.79-5.89,7.09s-5.53-1.09-5.89-2.7c-1.54-8.7-4.12-10.55-8.19-13.76,5.05-3.21,10.3-7.94,10.3-14.27,0-6.84-4.68-11.15-7.88-13.26a22.3,22.3,0,0,0-10.78-3.55H614.62a50.17,50.17,0,0,1,28.11-15.86l6.28,6.59a3.71,3.71,0,0,0,5.25.13h0l7-6.72a50.28,50.28,0,0,1,34.39,24.49l-4.81,10.87a3.73,3.73,0,0,0,1.89,4.92L702,154.1c.16,1.65.25,3.31.25,5Zm-53.27-55a4.08,4.08,0,1,1-.13,5.78,4.08,4.08,0,0,1,.13-5.78Zm47.76,38.44a4.08,4.08,0,0,1,5.38-2.08h0a4.08,4.08,0,0,1-3.3,7.47h0a4.09,4.09,0,0,1-2.08-5.39Z"/><rect class="cls-9" x="555.92" y="281.97" width="245.07" height="196.84" rx="5.67" ry="5.67" transform="translate(-55.75 123.59) rotate(-10)"/><polygon class="cls-10" points="779.75 274.42 780.11 276.43 741.86 283.18 748.33 319.85 786.58 313.11 786.89 314.87 798.52 312.82 791.39 272.37 779.75 274.42"/><rect class="cls-11" x="771.8" y="370.67" width="42.16" height="43.01" rx="7.71" ry="7.71" transform="translate(-56.06 143.64) rotate(-10)"/><rect x="803.21" y="364.47" width="42.16" height="43.01" rx="7.71" ry="7.71" transform="translate(-54.5 149) rotate(-10)"/><path class="cls-10" d="M570.65,372.84l.41,2.31a8.85,8.85,0,0,0,10.21,7.15l24-4.23a8.84,8.84,0,0,0,7.14-10.21l-.4-2.31a8.85,8.85,0,0,0-10.21-7.15,8.84,8.84,0,0,0,7.15-10.21l-.41-2.31a8.85,8.85,0,0,0-10.21-7.15,8.84,8.84,0,0,0,7.15-10.2l-.41-2.32a8.83,8.83,0,0,0-10.21-7.14l-24,4.22a8.84,8.84,0,0,0-7.14,10.21l.41,2.31a8.83,8.83,0,0,0,10.2,7.15,8.83,8.83,0,0,0-7.14,10.21l.4,2.31a8.85,8.85,0,0,0,10.21,7.15A8.84,8.84,0,0,0,570.65,372.84Z"/><rect class="cls-12" x="597.07" y="364.6" width="7.77" height="7.77" transform="translate(1256.76 627.02) rotate(170)"/><rect class="cls-12" x="578.14" y="367.94" width="7.77" height="7.77" transform="translate(1219.78 636.92) rotate(170)"/><rect class="cls-12" x="593.63" y="345.13" width="7.77" height="7.77" transform="translate(1246.56 588.97) rotate(170)"/><rect class="cls-12" x="574.71" y="348.47" width="7.77" height="7.77" transform="translate(1209.58 598.88) rotate(170)"/><rect class="cls-12" x="590.38" y="326.7" width="7.77" height="7.77" transform="translate(1236.91 552.95) rotate(170)"/><rect class="cls-12" x="571.46" y="330.04" width="7.77" height="7.77" transform="translate(1199.93 562.86) rotate(170)"/><rect class="cls-10" x="584.19" y="467.23" width="170.64" height="17.72" rx="7.71" ry="7.71" transform="translate(-72.5 123.49) rotate(-10)"/><rect class="cls-13" x="592.19" y="485.67" width="6.79" height="6.79" transform="translate(-75.88 110.85) rotate(-10)"/><rect class="cls-13" x="608.83" y="482.74" width="6.79" height="6.79" transform="translate(-75.12 113.7) rotate(-10)"/><rect class="cls-13" x="625.47" y="479.8" width="6.79" height="6.79" transform="translate(-74.35 116.54) rotate(-10)"/><rect class="cls-13" x="642.12" y="476.87" width="6.79" height="6.79" transform="translate(-73.59 119.39) rotate(-10)"/><rect class="cls-13" x="658.76" y="473.93" width="6.79" height="6.79" transform="translate(-72.83 122.23) rotate(-10)"/><rect class="cls-13" x="675.4" y="471" width="6.79" height="6.79" transform="translate(-72.07 125.08) rotate(-10)"/><rect class="cls-13" x="691.3" y="468.2" width="6.79" height="6.79" transform="translate(-71.34 127.8) rotate(-10)"/><rect class="cls-13" x="707.94" y="465.26" width="6.79" height="6.79" transform="translate(-70.57 130.64) rotate(-10)"/><rect class="cls-13" x="724.25" y="462.39" width="6.79" height="6.79" transform="translate(-69.83 133.43) rotate(-10)"/><rect class="cls-13" x="740.89" y="459.45" width="6.79" height="6.79" transform="translate(-69.07 136.28) rotate(-10)"/><path class="cls-13" d="M688.41,294.11,674,296.65c-2.6.46-4,4.68-3.57,7.28s3.24,6.07,5.84,5.61L690.68,307c2.6-.45,4-4.67,3.58-7.27S691,293.65,688.41,294.11Z"/><rect class="cls-14" x="677.43" y="295.31" width="9.56" height="13.08" transform="translate(-42.05 123.05) rotate(-10)"/><path class="cls-13" d="M718.88,288.74l-14.42,2.54c-2.6.46-4,4.67-3.57,7.27s3.24,6.07,5.84,5.62l14.42-2.55c2.6-.46,4-4.67,3.57-7.27S721.48,288.28,718.88,288.74Z"/><rect class="cls-15" x="707.9" y="289.93" width="9.56" height="13.08" transform="translate(-40.66 128.26) rotate(-10)"/><path class="cls-13" d="M774.73,426.54l-21.63,3.81a7.17,7.17,0,1,0,2.49,14.13l21.63-3.82a7.17,7.17,0,1,0-2.49-14.12Z"/><rect class="cls-16" x="757.8" y="428.37" width="14.34" height="14.34" transform="matrix(0.98, -0.17, 0.17, 0.98, -64.01, 139.45)"/><circle class="cls-13" cx="589.18" cy="458.56" r="5.3"/><circle class="cls-13" cx="604.38" cy="455.88" r="5.3"/><circle class="cls-13" cx="619.58" cy="453.21" r="5.3"/><circle class="cls-13" cx="634.77" cy="450.53" r="5.3"/><circle class="cls-13" cx="584.15" cy="430.06" r="5.3"/><circle class="cls-13" cx="599.35" cy="427.38" r="5.3"/><circle class="cls-13" cx="614.55" cy="424.7" r="5.3"/><circle class="cls-13" cx="629.75" cy="422.02" r="5.3"/><rect class="cls-10" x="595.24" y="410.13" width="28.25" height="59.64" transform="translate(281.91 1116.46) rotate(-100)"/><line class="cls-17" x1="779.27" y1="276.11" x2="785.87" y2="313.55"/><rect class="cls-13" x="649.7" y="331.3" width="14.35" height="6.23" rx="0.78" ry="0.78" transform="translate(441.61 1039.38) rotate(-100)"/><rect class="cls-13" x="658.9" y="329.68" width="14.35" height="6.23" rx="0.78" ry="0.78" transform="translate(454 1046.53) rotate(-100)"/><rect class="cls-13" x="668.09" y="328.05" width="14.35" height="6.23" rx="0.78" ry="0.78" transform="translate(466.38 1053.68) rotate(-100)"/><rect class="cls-13" x="677.28" y="326.43" width="14.35" height="6.23" rx="0.78" ry="0.78" transform="translate(478.76 1060.83) rotate(-100)"/><rect class="cls-13" x="686.47" y="324.81" width="14.35" height="6.23" rx="0.78" ry="0.78" transform="translate(491.15 1067.98) rotate(-100)"/><rect class="cls-13" x="695.66" y="323.19" width="14.35" height="6.23" rx="0.78" ry="0.78" transform="matrix(-0.17, -0.98, 0.98, -0.17, 503.53, 1075.13)"/><rect class="cls-13" x="704.86" y="321.57" width="14.35" height="6.23" rx="0.78" ry="0.78" transform="translate(515.92 1082.28) rotate(-100)"/><rect class="cls-13" x="714.05" y="319.95" width="14.35" height="6.23" rx="0.78" ry="0.78" transform="translate(528.3 1089.43) rotate(-100)"/><rect class="cls-13" x="666.09" y="424.23" width="14.35" height="6.23" rx="0.78" ry="0.78" transform="translate(369.32 1164.59) rotate(-100)"/><rect class="cls-13" x="675.28" y="422.61" width="14.35" height="6.23" rx="0.78" ry="0.78" transform="translate(381.7 1171.74) rotate(-100)"/><rect class="cls-13" x="684.48" y="420.99" width="14.35" height="6.23" rx="0.78" ry="0.78" transform="translate(394.09 1178.89) rotate(-100)"/><rect class="cls-13" x="693.67" y="419.37" width="14.35" height="6.23" rx="0.78" ry="0.78" transform="translate(406.47 1186.04) rotate(-100)"/><rect class="cls-13" x="702.86" y="417.75" width="14.35" height="6.23" rx="0.78" ry="0.78" transform="translate(418.86 1193.19) rotate(-100)"/><rect class="cls-13" x="712.05" y="416.13" width="14.35" height="6.23" rx="0.78" ry="0.78" transform="translate(431.24 1200.34) rotate(-100)"/><rect class="cls-13" x="721.24" y="414.51" width="14.35" height="6.23" rx="0.78" ry="0.78" transform="translate(443.62 1207.49) rotate(-100)"/><rect class="cls-13" x="730.43" y="412.89" width="14.35" height="6.23" rx="0.78" ry="0.78" transform="translate(456.01 1214.64) rotate(-100)"/><rect class="cls-13" x="649.27" y="412.46" width="14.35" height="6.23" rx="0.78" ry="0.78" transform="translate(1375.08 710.84) rotate(170)"/><rect class="cls-13" x="647.65" y="403.27" width="14.35" height="6.23" rx="0.78" ry="0.78" transform="translate(1370.27 692.88) rotate(170)"/><rect class="cls-13" x="646.03" y="394.07" width="14.35" height="6.23" rx="0.78" ry="0.78" transform="translate(1365.46 674.92) rotate(170)"/><rect class="cls-13" x="644.41" y="384.88" width="14.35" height="6.23" rx="0.78" ry="0.78" transform="translate(1360.65 656.95) rotate(170)"/><rect class="cls-13" x="642.79" y="375.69" width="14.35" height="6.23" rx="0.78" ry="0.78" transform="translate(1355.83 638.99) rotate(170)"/><rect class="cls-13" x="641.17" y="366.5" width="14.35" height="6.23" rx="0.78" ry="0.78" transform="translate(1351.02 621.03) rotate(170)"/><rect class="cls-13" x="639.55" y="357.31" width="14.35" height="6.23" rx="0.78" ry="0.78" transform="translate(1346.21 603.07) rotate(170)"/><rect class="cls-13" x="637.93" y="348.11" width="14.35" height="6.23" rx="0.78" ry="0.78" transform="translate(1341.39 585.1) rotate(170)"/><rect class="cls-13" x="742.21" y="396.07" width="14.35" height="6.23" rx="0.78" ry="0.78" transform="translate(1556.7 662.18) rotate(170)"/><rect class="cls-13" x="740.59" y="386.88" width="14.35" height="6.23" rx="0.78" ry="0.78" transform="translate(1551.89 644.22) rotate(170)"/><rect class="cls-13" x="738.97" y="377.69" width="14.35" height="6.23" rx="0.78" ry="0.78" transform="translate(1547.08 626.25) rotate(170)"/><rect class="cls-13" x="737.35" y="368.49" width="14.35" height="6.23" rx="0.78" ry="0.78" transform="translate(1542.26 608.29) rotate(170)"/><rect class="cls-13" x="735.73" y="359.3" width="14.35" height="6.23" rx="0.78" ry="0.78" transform="translate(1537.45 590.33) rotate(170)"/><rect class="cls-13" x="734.11" y="350.11" width="14.35" height="6.23" rx="0.78" ry="0.78" transform="translate(1532.64 572.36) rotate(170)"/><rect class="cls-13" x="732.49" y="340.92" width="14.35" height="6.23" rx="0.78" ry="0.78" transform="translate(1527.82 554.4) rotate(170)"/><rect class="cls-13" x="730.87" y="331.73" width="14.35" height="6.23" rx="0.78" ry="0.78" transform="translate(1523.01 536.44) rotate(170)"/><rect class="cls-10" x="651.06" y="329.14" width="93.19" height="93.19" rx="21.49" ry="21.49" transform="translate(-54.65 126.85) rotate(-10)"/><rect class="cls-13" x="804.43" y="361.71" width="21.21" height="52.99" transform="translate(-55.03 147.43) rotate(-10)"/><line class="cls-18" x1="800.04" y1="364.28" x2="809.19" y2="416.15"/><path class="cls-2" d="M35.32,157.36h3.24L44.38,175c.21.7.49,1.57.73,2.48.21-.91.49-1.78.7-2.48l5.65-17.64H54.7l-8.33,24.41H43.68Z"/><path class="cls-2" d="M57.42,176.75l2.86-1.05A6.08,6.08,0,0,0,66,179.33c2.93,0,4.81-1.43,4.81-4.12s-2.65-4.11-5.51-5.16c-3.42-1.25-7.15-2.82-7.15-7.07,0-3.28,2.76-6,7.5-6,3.87,0,6.41,1.85,7.15,4.36l-2.79.94c-.6-1.36-2.17-2.47-4.57-2.47-2.58,0-4.15,1.22-4.15,3.21,0,2.26,2.51,3.27,5.26,4.28,3.42,1.29,7.4,3.07,7.4,7.88,0,4.5-3.42,7.05-8,7.05C61.67,182.19,58.5,179.89,57.42,176.75Z"/><path class="cls-2" d="M78.65,169.56c0-6.13,2.86-12.62,10.11-12.62,4.5,0,6.8,2.2,7.88,4.4l-2.72,1.39a5.65,5.65,0,0,0-5.16-3c-5.23,0-7,5.33-7,9.79,0,4.85,2.09,9.77,7,9.77a5.69,5.69,0,0,0,5.3-3.11l2.79,1.05a8.33,8.33,0,0,1-8.09,4.92C81.37,182.19,78.65,175.77,78.65,169.56Z"/><path class="cls-2" d="M100.68,172.88c0-5.86,3.11-9.35,7.88-9.35s7.88,3.42,7.88,9.31-3.1,9.35-7.88,9.35S100.68,178.77,100.68,172.88Zm12.7,0c0-4-1.78-6.52-4.82-6.52s-4.81,2.41-4.81,6.56,1.78,6.48,4.81,6.48S113.38,176.92,113.38,172.84Z"/><path class="cls-2" d="M120.14,172.84c0-5.86,2.93-9.31,7.35-9.31a6.4,6.4,0,0,1,4.5,1.68V158l3-1.43v25.18h-3v-1.4a5.85,5.85,0,0,1-4.5,1.82C123,182.19,120.14,178.6,120.14,172.84ZM132,177v-8.37a4.79,4.79,0,0,0-4.08-2.27c-3,0-4.7,2.34-4.7,6.52,0,3.7,1.77,6.52,4.7,6.52A4.68,4.68,0,0,0,132,177Z"/><path class="cls-2" d="M139.73,172.84c0-5.89,3.17-9.31,7.92-9.31,4,0,7.35,2.62,7.35,8.48,0,.55,0,1.32-.1,2H142.83c.25,3.28,2.2,5.4,4.88,5.4a5.37,5.37,0,0,0,3.84-1.6l1.85,2.06a8.15,8.15,0,0,1-5.75,2.3C142.76,182.19,139.73,178.28,139.73,172.84Zm12.2-1.39c0-4-2.4-5.23-4.28-5.23-2.59,0-4.68,1.57-4.85,5.23Z"/><path class="cls-5" d="M45.62,355.86c0-3.71,1.66-7.77,6.39-7.77s6.4,4.06,6.4,7.77-1.66,7.78-6.4,7.78S45.62,359.58,45.62,355.86Zm10.83,0c0-2.94-1.14-6-4.44-6s-4.45,3.3-4.45,6c0,2.95,1.16,6,4.45,6S56.45,358.57,56.45,355.86Z"/><path class="cls-5" d="M68.29,362.33a3.2,3.2,0,0,1-2.77,1.31c-2.57,0-4-1.37-4-4.9V352.4H63.4V359c0,2.09,1,2.88,2.36,2.88s2.53-.69,2.53-2.84V352.4h1.87v11H68.29Z"/><path class="cls-5" d="M73.73,352.4H75.6v1.44a2.7,2.7,0,0,1,2.6-1.69,2.64,2.64,0,0,1,1.7.56l-.28,1.76a2.58,2.58,0,0,0-1.57-.48c-1,0-2.45.71-2.45,3.21v6.18H73.73Z"/><path class="cls-5" d="M45.19,374.13h2L50.78,385c.13.43.3,1,.45,1.53.13-.56.3-1.1.43-1.53l3.48-10.87h2l-5.13,15H50.35Z"/><path class="cls-5" d="M58.82,386.08l1.76-.65a3.74,3.74,0,0,0,3.52,2.24c1.81,0,3-.88,3-2.54s-1.63-2.53-3.39-3.18c-2.11-.77-4.41-1.74-4.41-4.36,0-2,1.7-3.71,4.62-3.71,2.38,0,4,1.13,4.4,2.68l-1.71.58a2.9,2.9,0,0,0-2.82-1.52c-1.59,0-2.56.75-2.56,2,0,1.4,1.55,2,3.25,2.64,2.1.8,4.55,1.89,4.55,4.86,0,2.77-2.1,4.34-4.94,4.34A5.3,5.3,0,0,1,58.82,386.08Z"/><path class="cls-5" d="M71.91,381.65c0-3.78,1.76-7.77,6.23-7.77a5,5,0,0,1,4.85,2.7l-1.67.86a3.5,3.5,0,0,0-3.18-1.82c-3.22,0-4.3,3.28-4.3,6,0,3,1.29,6,4.3,6a3.51,3.51,0,0,0,3.26-1.91l1.72.64a5.12,5.12,0,0,1-5,3C73.58,389.43,71.91,385.48,71.91,381.65Z"/><path class="cls-5" d="M85.49,383.69c0-3.61,1.91-5.75,4.86-5.75s4.85,2.1,4.85,5.73-1.91,5.76-4.85,5.76S85.49,387.32,85.49,383.69Zm7.82,0c0-2.49-1.1-4-3-4s-3,1.49-3,4,1.1,4,3,4S93.31,386.19,93.31,383.67Z"/><path class="cls-5" d="M97.48,383.67c0-3.61,1.81-5.73,4.53-5.73a4,4,0,0,1,2.78,1v-4.43l1.87-.88v15.51h-1.87v-.86a3.61,3.61,0,0,1-2.78,1.12C99.22,389.43,97.48,387.22,97.48,383.67Zm7.31,2.54v-5.16a3,3,0,0,0-2.52-1.4c-1.85,0-2.9,1.44-2.9,4,0,2.28,1.1,4,2.9,4A2.91,2.91,0,0,0,104.79,386.21Z"/><path class="cls-5" d="M109.56,383.67c0-3.63,2-5.73,4.88-5.73,2.47,0,4.53,1.61,4.53,5.22a11.44,11.44,0,0,1-.07,1.24h-7.43c.15,2,1.35,3.33,3,3.33a3.27,3.27,0,0,0,2.36-1L118,388a5,5,0,0,1-3.54,1.42C111.43,389.43,109.56,387,109.56,383.67Zm7.52-.86c0-2.49-1.48-3.22-2.64-3.22-1.59,0-2.88,1-3,3.22Z"/><path class="cls-5" d="M46.27,399.92h8.94v1.76H48.14v4.62H52.8v1.76H48.14v5.12h7.54V415H46.27Z"/><path class="cls-5" d="M61.53,409.25,58.13,404h2.09L62,406.65c.23.38.45.73.62,1.05.19-.32.39-.67.64-1.05L64.94,404h2.11l-3.42,5.27,3.7,5.71H65.22l-2-3.12c-.23-.36-.43-.7-.62-1a10.64,10.64,0,0,1-.62,1l-2,3.12H57.85Z"/><path class="cls-5" d="M70.34,412.6v-7H68.56V404h1.78v-3.63l1.87-.9V404h2.7v1.63h-2.7V412c0,.84.17,1.51,1.14,1.51A3.06,3.06,0,0,0,75,412.9l-.22,1.82a4.4,4.4,0,0,1-2.1.5C71,415.22,70.34,414.14,70.34,412.6Z"/><path class="cls-5" d="M76.87,409.46c0-3.63,2-5.74,4.88-5.74,2.47,0,4.53,1.61,4.53,5.22,0,.35,0,.82-.06,1.25H78.78c.15,2,1.36,3.33,3,3.33a3.25,3.25,0,0,0,2.36-1l1.14,1.27a5,5,0,0,1-3.54,1.42C78.74,415.22,76.87,412.81,76.87,409.46Zm7.52-.86c0-2.49-1.48-3.22-2.64-3.22-1.59,0-2.88,1-3,3.22Z"/><path class="cls-5" d="M95.85,408.32c0-2.08-1-2.88-2.37-2.88s-2.53.71-2.53,2.84V415H89.08V404H91v1.12a3.28,3.28,0,0,1,2.83-1.38c2.5,0,3.93,1.38,3.93,4.92V415H95.85Z"/><path class="cls-5" d="M100.45,413.37l1.33-1.14a3.79,3.79,0,0,0,2.68,1.31c1.16,0,2.05-.43,2.05-1.39s-1.23-1.59-2.52-2.09c-2-.75-3.39-1.63-3.39-3.44s1.59-2.9,3.69-2.9a4.67,4.67,0,0,1,3.7,1.66l-1.29,1.07a3.28,3.28,0,0,0-2.43-1.05c-1.12,0-1.83.45-1.83,1.22,0,.93,1.1,1.34,2.33,1.83,2,.71,3.56,1.57,3.56,3.65s-1.52,3.12-3.91,3.12A5.11,5.11,0,0,1,100.45,413.37Z"/><path class="cls-5" d="M111,400.82a1.17,1.17,0,1,1,2.34,0,1.17,1.17,0,0,1-2.34,0Zm.24,3.16h1.87v11h-1.87Z"/><path class="cls-5" d="M116.07,409.48c0-3.61,1.91-5.76,4.86-5.76s4.85,2.11,4.85,5.74-1.91,5.76-4.85,5.76S116.07,413.11,116.07,409.48Zm7.82,0c0-2.49-1.1-4-3-4s-3,1.48-3,4,1.1,4,3,4S123.89,412,123.89,409.46Z"/><path class="cls-5" d="M135.47,408.32c0-2.08-1-2.88-2.36-2.88s-2.53.71-2.53,2.84V415h-1.87V404h1.87v1.12a3.28,3.28,0,0,1,2.83-1.38c2.49,0,3.93,1.38,3.93,4.92V415h-1.87Z"/><path class="cls-5" d="M771.32,96.36c0-4.65,2.07-9.72,8-9.72s8,5.07,8,9.72-2.07,9.73-8,9.73S771.32,101,771.32,96.36Zm13.54,0c0-3.68-1.42-7.55-5.56-7.55s-5.56,4.14-5.56,7.55c0,3.68,1.45,7.53,5.56,7.53S784.86,99.75,784.86,96.36Z"/><path class="cls-5" d="M793.67,104.48v5.61l-2.34,1.11V92h2.34v1.15a4.6,4.6,0,0,1,3.52-1.48c3.49,0,5.67,2.77,5.67,7.18,0,4.57-2.34,7.2-5.67,7.2A4.28,4.28,0,0,1,793.67,104.48Zm6.8-5.59c0-3-1.32-5-3.58-5a3.59,3.59,0,0,0-3.22,1.86v6.34a4.09,4.09,0,0,0,3.22,1.85C799.18,103.91,800.47,102.14,800.47,98.89Z"/><path class="cls-5" d="M805.68,98.89c0-4.54,2.44-7.18,6.1-7.18,3.09,0,5.67,2,5.67,6.53a15,15,0,0,1-.09,1.56h-9.29c.19,2.53,1.69,4.17,3.76,4.17a4.14,4.14,0,0,0,3-1.24l1.42,1.59a6.26,6.26,0,0,1-4.43,1.77C808,106.09,805.68,103.08,805.68,98.89Zm9.4-1.08c0-3.11-1.85-4-3.3-4-2,0-3.61,1.21-3.74,4Z"/><path class="cls-5" d="M820.93,92h2.34v1.8a3.56,3.56,0,0,1,5.38-1.43l-.35,2.21a3.24,3.24,0,0,0-2-.59c-1.31,0-3.06.88-3.06,4v7.74h-2.34Z"/><path class="cls-5" d="M838.72,104.51a5.69,5.69,0,0,1-3.9,1.58c-2.79,0-4.78-1.56-4.78-4.62s2.47-4.54,5.13-4.54a7.08,7.08,0,0,1,3.55.88v-1c0-2.42-1.21-3.09-3-3.09a7.14,7.14,0,0,0-4,1.37l-.67-2a9.27,9.27,0,0,1,5-1.46c2.15,0,4.89.73,4.89,5v9.11h-2.2Zm0-2.29V99.86a6.66,6.66,0,0,0-3.22-.92c-1.78,0-3.26.78-3.26,2.53,0,1.53,1,2.55,2.93,2.55A4.79,4.79,0,0,0,838.72,102.22Z"/><path class="cls-5" d="M845.78,102.81V94.08h-2.23V92h2.23V87.5l2.34-1.13V92h3.39v2h-3.39v8c0,1,.22,1.88,1.42,1.88a3.89,3.89,0,0,0,2.05-.72l-.27,2.28a5.51,5.51,0,0,1-2.64.62C846.62,106.09,845.78,104.75,845.78,102.81Z"/><path class="cls-5" d="M854.75,88.09a1.47,1.47,0,1,1,2.93,0,1.47,1.47,0,0,1-2.93,0Zm.3,4h2.34v13.73h-2.34Z"/><path class="cls-5" d="M870.31,97.46c0-2.6-1.26-3.6-3-3.6s-3.17.89-3.17,3.55v8.36h-2.33V92h2.33v1.39a4.14,4.14,0,0,1,3.55-1.72c3.12,0,4.92,1.72,4.92,6.16v7.9h-2.34Z"/><path class="cls-5" d="M880.06,109.5c4.25-.24,5.27-1.61,5.27-3.41v-1.67a4,4,0,0,1-3.55,1.67c-3,0-5.62-2.42-5.62-7.2,0-4.51,2.34-7.18,5.7-7.18a4.5,4.5,0,0,1,3.47,1.46V92h2.33V105.2c0,4.46-2.66,5.92-6.47,6.13Zm5.27-7.52V95.69a3.86,3.86,0,0,0-3.07-1.83c-2.44,0-3.73,1.8-3.73,5s1.53,5,3.73,5A3.72,3.72,0,0,0,885.33,102Z"/><path class="cls-5" d="M897.73,101.9l2.21-.81a4.69,4.69,0,0,0,4.4,2.8c2.26,0,3.71-1.1,3.71-3.17s-2-3.17-4.24-4c-2.64-1-5.51-2.18-5.51-5.46,0-2.52,2.12-4.64,5.78-4.64,3,0,4.94,1.42,5.5,3.36l-2.15.72a3.6,3.6,0,0,0-3.52-1.91c-2,0-3.19.94-3.19,2.47,0,1.75,1.93,2.53,4,3.31,2.64,1,5.7,2.36,5.7,6.07,0,3.47-2.63,5.43-6.18,5.43A6.63,6.63,0,0,1,897.73,101.9Z"/><path class="cls-5" d="M918.23,105.42,913.15,92h2.34l3.41,9.35a13.3,13.3,0,0,1,.43,1.31c.14-.45.25-.83.43-1.31L923.23,92h2.39L918.5,111h-2.36Z"/><path class="cls-5" d="M927.82,103.78l1.67-1.42a4.72,4.72,0,0,0,3.35,1.63c1.46,0,2.56-.53,2.56-1.74,0-1.37-1.53-2-3.15-2.61-2.52-.94-4.24-2-4.24-4.3s2-3.63,4.62-3.63a5.84,5.84,0,0,1,4.62,2.07l-1.61,1.35a4.08,4.08,0,0,0-3-1.32c-1.39,0-2.28.57-2.28,1.53,0,1.16,1.37,1.67,2.9,2.29,2.5.88,4.46,2,4.46,4.56s-1.91,3.9-4.89,3.9A6.43,6.43,0,0,1,927.82,103.78Z"/><path class="cls-5" d="M942.14,102.81V94.08h-2.23V92h2.23V87.5l2.34-1.13V92h3.38v2h-3.38v8c0,1,.21,1.88,1.42,1.88a3.86,3.86,0,0,0,2-.72l-.27,2.28a5.44,5.44,0,0,1-2.63.62C943,106.09,942.14,104.75,942.14,102.81Z"/><path class="cls-5" d="M950.3,98.89c0-4.54,2.45-7.18,6.1-7.18,3.09,0,5.67,2,5.67,6.53A14.82,14.82,0,0,1,962,99.8H952.7c.18,2.53,1.69,4.17,3.76,4.17a4.1,4.1,0,0,0,2.95-1.24l1.43,1.59a6.26,6.26,0,0,1-4.44,1.77C952.64,106.09,950.3,103.08,950.3,98.89Zm9.41-1.08c0-3.11-1.85-4-3.31-4-2,0-3.6,1.21-3.73,4Z"/><path class="cls-5" d="M981.66,97.44c0-1.88-.65-3.58-2.77-3.58-1.77,0-2.95,1.48-2.95,3.66v8.25H973.6V97.44c0-1.88-.62-3.58-2.74-3.58-1.83,0-3,1.37-3,3.55v8.36h-2.34V92h2.34v1.29a4.36,4.36,0,0,1,3.6-1.62,4.17,4.17,0,0,1,3.68,2,4.59,4.59,0,0,1,4-2c2.74,0,4.84,1.72,4.84,5.06v9h-2.34Z"/><rect class="cls-19" x="846.1" y="88.79" width="63.35" height="249.64" rx="5.67" ry="5.67" transform="translate(664.17 1091.38) rotate(-90)"/><path class="cls-5" d="M766.91,218.47V206.73h2.34v11.74c0,4.14,2,5.19,4.41,5.19s4.43-1,4.43-5.19V206.73h2.34v11.74c0,5.41-2.74,7.39-6.77,7.39S766.91,223.9,766.91,218.47Z"/><path class="cls-5" d="M784.48,221.67l2.21-.8a4.68,4.68,0,0,0,4.4,2.79c2.26,0,3.71-1.1,3.71-3.17s-2-3.17-4.24-4c-2.64-1-5.51-2.17-5.51-5.45,0-2.53,2.12-4.65,5.77-4.65,3,0,4.95,1.42,5.51,3.36l-2.15.72a3.61,3.61,0,0,0-3.52-1.9c-2,0-3.2.94-3.2,2.47,0,1.74,1.94,2.52,4.06,3.3,2.64,1,5.7,2.37,5.7,6.08,0,3.46-2.63,5.42-6.18,5.42A6.63,6.63,0,0,1,784.48,221.67Z"/><path class="cls-5" d="M808.31,206.73c4.46,0,5.86,2.47,5.86,5a4.25,4.25,0,0,1-2.77,3.93,4.57,4.57,0,0,1,3.44,4.51c0,2.55-1.5,5.4-6.1,5.4h-7.09V206.73Zm3.55,5c0-1.37-.59-2.88-3.41-2.88H804v5.86h3.87C810.52,214.71,811.86,213.53,811.86,211.73Zm.67,8.57c0-1.8-.86-3.46-4.38-3.46H804v6.55h5C811.78,223.39,812.53,221.81,812.53,220.3Z"/><path class="cls-5" d="M836.79,216.89h-8.87v8.65h-2.34V206.73h2.34v8h8.87v-8h2.34v18.81h-2.34Z"/><path class="cls-5" d="M851.86,224.28a5.71,5.71,0,0,1-3.9,1.58c-2.79,0-4.78-1.55-4.78-4.62s2.47-4.54,5.13-4.54a7,7,0,0,1,3.55.89v-1c0-2.42-1.21-3.09-3-3.09a7.19,7.19,0,0,0-4,1.37l-.67-2a9.27,9.27,0,0,1,5-1.45c2.15,0,4.89.72,4.89,4.94v9.11h-2.2Zm0-2.29v-2.36a6.69,6.69,0,0,0-3.23-.91c-1.77,0-3.25.78-3.25,2.52,0,1.53,1,2.55,2.93,2.55A4.76,4.76,0,0,0,851.86,222Z"/><path class="cls-5" d="M858.11,211.81h2.34v1.8a3.56,3.56,0,0,1,5.38-1.42l-.35,2.2a3.24,3.24,0,0,0-2-.59c-1.31,0-3.06.89-3.06,4v7.74h-2.34Z"/><path class="cls-5" d="M867.76,218.66c0-4.51,2.25-7.17,5.67-7.17a4.93,4.93,0,0,1,3.46,1.29v-5.54l2.34-1.1v19.4h-2.34v-1.07a4.52,4.52,0,0,1-3.46,1.39C869.93,225.86,867.76,223.1,867.76,218.66Zm9.13,3.17v-6.45a3.71,3.71,0,0,0-3.14-1.74c-2.31,0-3.63,1.8-3.63,5,0,2.85,1.37,5,3.63,5A3.6,3.6,0,0,0,876.89,221.83Z"/><path class="cls-5" d="M882.45,211.81h2.31l2.1,9.22c.11.53.21,1,.29,1.45.08-.46.22-.94.35-1.45l2.58-9.22H892L894.6,221l.37,1.5c.08-.45.19-.94.3-1.5l2.07-9.22h2.31l-3.52,13.73H894l-2.5-8.14c-.16-.54-.37-1.26-.51-1.8-.13.54-.32,1.26-.48,1.8l-2.47,8.14H886Z"/><path class="cls-5" d="M910.47,224.28a5.68,5.68,0,0,1-3.89,1.58c-2.8,0-4.79-1.55-4.79-4.62s2.48-4.54,5.14-4.54a7,7,0,0,1,3.54.89v-1c0-2.42-1.21-3.09-3-3.09a7.19,7.19,0,0,0-4,1.37l-.68-2a9.34,9.34,0,0,1,5-1.45c2.14,0,4.89.72,4.89,4.94v9.11h-2.21Zm0-2.29v-2.36a6.62,6.62,0,0,0-3.22-.91c-1.78,0-3.25.78-3.25,2.52,0,1.53,1,2.55,2.93,2.55A4.74,4.74,0,0,0,910.47,222Z"/><path class="cls-5" d="M916.73,211.81h2.34v1.8a3.35,3.35,0,0,1,3.25-2.12,3.28,3.28,0,0,1,2.12.7l-.35,2.2a3.23,3.23,0,0,0-2-.59c-1.32,0-3.06.89-3.06,4v7.74h-2.34Z"/><path class="cls-5" d="M926.37,218.66c0-4.54,2.45-7.17,6.1-7.17,3.09,0,5.67,2,5.67,6.53a15,15,0,0,1-.08,1.56h-9.3c.19,2.52,1.7,4.16,3.77,4.16a4.11,4.11,0,0,0,3-1.24l1.43,1.59a6.28,6.28,0,0,1-4.44,1.77C928.71,225.86,926.37,222.85,926.37,218.66Zm9.41-1.07c0-3.12-1.86-4-3.31-4-2,0-3.6,1.21-3.73,4Z"/><path class="cls-5" d="M183.75,305.86l1.71-.62a3.66,3.66,0,0,0,3.42,2.17c1.76,0,2.88-.86,2.88-2.47s-1.58-2.46-3.29-3.08c-2.05-.75-4.28-1.69-4.28-4.24,0-2,1.65-3.61,4.48-3.61,2.32,0,3.84,1.11,4.28,2.61l-1.67.56a2.8,2.8,0,0,0-2.73-1.48c-1.54,0-2.48.73-2.48,1.92,0,1.36,1.5,2,3.15,2.57,2,.77,4.42,1.83,4.42,4.71,0,2.69-2,4.22-4.8,4.22A5.15,5.15,0,0,1,183.75,305.86Z"/><path class="cls-5" d="M196.14,303.53c0-3.53,1.9-5.57,4.74-5.57,2.4,0,4.4,1.56,4.4,5.06,0,.34,0,.8-.06,1.21H198c.15,2,1.31,3.24,2.92,3.24a3.2,3.2,0,0,0,2.3-1l1.1,1.23a4.86,4.86,0,0,1-3.44,1.38C198,309.12,196.14,306.78,196.14,303.53Zm7.31-.84c0-2.42-1.44-3.13-2.57-3.13-1.54,0-2.8.94-2.9,3.13Z"/><path class="cls-5" d="M214.56,302.42c0-2-1-2.8-2.29-2.8s-2.46.69-2.46,2.76v6.49H208V298.21h1.82v1.08a3.21,3.21,0,0,1,2.75-1.33c2.42,0,3.82,1.33,3.82,4.77v6.14h-1.82Z"/><path class="cls-5" d="M219.11,303.53c0-3.51,1.76-5.57,4.41-5.57a3.86,3.86,0,0,1,2.69,1v-4.3l1.81-.86v15.07h-1.81V308a3.5,3.5,0,0,1-2.69,1.09C220.8,309.12,219.11,307,219.11,303.53Zm7.1,2.46v-5a2.87,2.87,0,0,0-2.44-1.36c-1.8,0-2.82,1.4-2.82,3.91,0,2.21,1.06,3.9,2.82,3.9A2.83,2.83,0,0,0,226.21,306Z"/><path class="cls-5" d="M236.05,301.56c0-3.67,1.72-7.55,6-7.55a4.86,4.86,0,0,1,4.72,2.63l-1.63.84a3.38,3.38,0,0,0-3.09-1.78c-3.12,0-4.17,3.19-4.17,5.86,0,2.9,1.25,5.85,4.17,5.85a3.41,3.41,0,0,0,3.17-1.86l1.67.62a5,5,0,0,1-4.84,2.95C237.68,309.12,236.05,305.28,236.05,301.56Z"/><path class="cls-5" d="M249.24,303.55c0-3.51,1.86-5.59,4.71-5.59s4.72,2,4.72,5.57-1.86,5.59-4.72,5.59S249.24,307.07,249.24,303.55Zm7.59,0c0-2.42-1.06-3.91-2.88-3.91s-2.87,1.44-2.87,3.93,1.06,3.88,2.87,3.88S256.83,306,256.83,303.53Z"/><path class="cls-5" d="M274,302.4c0-1.46-.5-2.78-2.15-2.78-1.37,0-2.29,1.15-2.29,2.84v6.41h-1.82V302.4c0-1.46-.48-2.78-2.12-2.78-1.42,0-2.3,1.07-2.3,2.76v6.49h-1.81V298.21h1.81v1a3.38,3.38,0,0,1,2.8-1.25,3.22,3.22,0,0,1,2.85,1.56,3.79,3.79,0,0,1,6.85,2.36v7H274Z"/><path class="cls-5" d="M291.65,302.4c0-1.46-.5-2.78-2.15-2.78-1.37,0-2.29,1.15-2.29,2.84v6.41h-1.82V302.4c0-1.46-.48-2.78-2.12-2.78-1.42,0-2.3,1.07-2.3,2.76v6.49h-1.81V298.21H281v1a3.38,3.38,0,0,1,2.8-1.25,3.22,3.22,0,0,1,2.85,1.56,3.79,3.79,0,0,1,6.85,2.36v7h-1.82Z"/><path class="cls-5" d="M302.92,307.88a4.41,4.41,0,0,1-3,1.24,3.36,3.36,0,0,1-3.71-3.59c0-2.46,1.92-3.53,4-3.53a5.48,5.48,0,0,1,2.75.69v-.75c0-1.88-.94-2.4-2.32-2.4a5.54,5.54,0,0,0-3.1,1.06l-.53-1.52a7.3,7.3,0,0,1,3.86-1.12c1.67,0,3.8.56,3.8,3.83v7.08h-1.71Zm0-1.77v-1.83a5.14,5.14,0,0,0-2.5-.71c-1.38,0-2.53.6-2.53,2,0,1.19.82,2,2.28,2A3.72,3.72,0,0,0,302.92,306.11Z"/><path class="cls-5" d="M314.35,302.42c0-2-1-2.8-2.29-2.8s-2.46.69-2.46,2.76v6.49h-1.82V298.21h1.82v1.08a3.18,3.18,0,0,1,2.75-1.33c2.42,0,3.82,1.33,3.82,4.77v6.14h-1.82Z"/><path class="cls-5" d="M318.9,303.53c0-3.51,1.75-5.57,4.4-5.57a3.84,3.84,0,0,1,2.69,1v-4.3l1.82-.86v15.07H326V308a3.49,3.49,0,0,1-2.69,1.09C320.59,309.12,318.9,307,318.9,303.53ZM326,306v-5a2.86,2.86,0,0,0-2.44-1.36c-1.79,0-2.81,1.4-2.81,3.91,0,2.21,1.06,3.9,2.81,3.9A2.82,2.82,0,0,0,326,306Z"/><rect class="cls-7" x="231.36" y="264.44" width="49.34" height="196.21" rx="5.67" ry="5.67" transform="translate(-106.52 618.58) rotate(-90)"/><path class="cls-5" d="M171.36,356.62h5.76c3.5,0,4.61,2.08,4.61,4.15a4,4,0,0,1-3.4,4.06l3.12,6.39h-2l-3-6.26h-3.24v6.26h-1.81Zm5.8,6.65c2,0,2.73-1.25,2.73-2.46a2.42,2.42,0,0,0-2.73-2.51h-4v5Z"/><path class="cls-5" d="M191.39,370.19a3.13,3.13,0,0,1-2.69,1.28c-2.51,0-3.88-1.34-3.88-4.76v-6.15h1.81V367c0,2,1,2.8,2.29,2.8s2.47-.67,2.47-2.76v-6.46h1.81v10.66h-1.81Z"/><path class="cls-5" d="M203.24,364.77c0-2-1-2.79-2.3-2.79s-2.46.68-2.46,2.75v6.49h-1.81V360.56h1.81v1.08a3.21,3.21,0,0,1,2.75-1.33c2.42,0,3.82,1.33,3.82,4.77v6.14h-1.81Z"/><path class="cls-5" d="M212.79,368.21l1.71-.62a3.66,3.66,0,0,0,3.42,2.17c1.76,0,2.88-.86,2.88-2.47s-1.58-2.46-3.29-3.08c-2-.75-4.28-1.69-4.28-4.24,0-2,1.65-3.6,4.48-3.6,2.32,0,3.84,1.1,4.28,2.6l-1.67.57a2.79,2.79,0,0,0-2.73-1.49c-1.54,0-2.48.74-2.48,1.92,0,1.36,1.5,2,3.15,2.57,2,.77,4.42,1.84,4.42,4.71,0,2.69-2.05,4.22-4.8,4.22A5.15,5.15,0,0,1,212.79,368.21Z"/><path class="cls-5" d="M225.18,365.88c0-3.53,1.9-5.57,4.74-5.57,2.4,0,4.4,1.56,4.4,5.07,0,.33,0,.79-.06,1.21H227c.15,2,1.31,3.23,2.92,3.23a3.2,3.2,0,0,0,2.3-1l1.1,1.23a4.86,4.86,0,0,1-3.44,1.38C227,371.47,225.18,369.13,225.18,365.88Zm7.31-.84c0-2.42-1.44-3.13-2.57-3.13-1.54,0-2.8.94-2.9,3.13Z"/><path class="cls-5" d="M237,360.56h1.82V362a2.76,2.76,0,0,1,4.17-1.11l-.27,1.71a2.51,2.51,0,0,0-1.52-.46c-1,0-2.38.69-2.38,3.11v6H237Z"/><path class="cls-5" d="M244.84,357.49a1.14,1.14,0,1,1,2.27,0,1.14,1.14,0,0,1-2.27,0Zm.23,3.07h1.81v10.66h-1.81Z"/><path class="cls-5" d="M256.46,370.24a4.45,4.45,0,0,1-3,1.23,3.36,3.36,0,0,1-3.71-3.59c0-2.46,1.92-3.53,4-3.53a5.49,5.49,0,0,1,2.76.69v-.75c0-1.88-.94-2.4-2.32-2.4A5.53,5.53,0,0,0,251,363l-.52-1.53a7.3,7.3,0,0,1,3.86-1.12c1.67,0,3.8.56,3.8,3.84v7.07h-1.71Zm0-1.78v-1.83a5.15,5.15,0,0,0-2.51-.71c-1.37,0-2.52.6-2.52,2,0,1.19.81,2,2.27,2A3.73,3.73,0,0,0,256.46,368.46Z"/><path class="cls-5" d="M261.42,357l1.82-.85v15.06h-1.82Z"/><path class="cls-5" d="M282.87,371.22v-9c0-.5,0-1.23,0-1.61-.17.48-.44,1.15-.65,1.65l-4,9.18-3.88-9.22c-.19-.46-.46-1.11-.63-1.59,0,.38.06,1.09.06,1.59v9H272v-14.6h1.71l4.23,9.82.38,1c.1-.31.25-.67.38-1l4.25-9.82h1.73v14.6Z"/><path class="cls-5" d="M287.81,365.9c0-3.51,1.86-5.59,4.72-5.59s4.71,2,4.71,5.57-1.85,5.59-4.71,5.59S287.81,369.42,287.81,365.9Zm7.6,0c0-2.42-1.07-3.9-2.88-3.9s-2.88,1.44-2.88,3.92,1.06,3.88,2.88,3.88S295.41,368.32,295.41,365.88Z"/><path class="cls-5" d="M306.65,364.77c0-2-1-2.79-2.29-2.79s-2.46.68-2.46,2.75v6.49h-1.82V360.56h1.82v1.08a3.18,3.18,0,0,1,2.75-1.33c2.42,0,3.82,1.33,3.82,4.77v6.14h-1.82Z"/><path class="cls-5" d="M311.62,357.49a1.14,1.14,0,1,1,2.27,0,1.14,1.14,0,0,1-2.27,0Zm.23,3.07h1.81v10.66h-1.81Z"/><path class="cls-5" d="M317.75,368.92v-6.78H316v-1.58h1.73V357l1.82-.87v4.4h2.63v1.58h-2.63v6.18c0,.81.16,1.46,1.1,1.46a2.92,2.92,0,0,0,1.59-.57l-.21,1.78a4.3,4.3,0,0,1-2,.48C318.4,371.47,317.75,370.42,317.75,368.92Z"/><path class="cls-5" d="M324.1,365.9c0-3.51,1.85-5.59,4.71-5.59s4.71,2,4.71,5.57-1.85,5.59-4.71,5.59S324.1,369.42,324.1,365.9Zm7.59,0c0-2.42-1.07-3.9-2.88-3.9s-2.88,1.44-2.88,3.92,1.06,3.88,2.88,3.88S331.69,368.32,331.69,365.88Z"/><path class="cls-5" d="M336.36,360.56h1.82V362a2.6,2.6,0,0,1,2.52-1.65,2.62,2.62,0,0,1,1.65.54l-.27,1.71a2.54,2.54,0,0,0-1.52-.46c-1,0-2.38.69-2.38,3.11v6h-1.82Z"/><rect class="cls-7" x="231.36" y="326.79" width="49.34" height="196.21" rx="5.67" ry="5.67" transform="translate(-168.87 680.93) rotate(-90)"/><path class="cls-5" d="M184.07,419h1.82v12.85h7.17v1.75h-9Z"/><path class="cls-5" d="M195.22,419.84a1.14,1.14,0,1,1,2.27,0,1.14,1.14,0,0,1-2.27,0Zm.22,3.07h1.82v10.66h-1.82Z"/><path class="cls-5" d="M200,432l1.3-1.1a3.69,3.69,0,0,0,2.61,1.27c1.12,0,2-.42,2-1.35s-1.19-1.55-2.44-2c-2-.73-3.3-1.58-3.3-3.34s1.54-2.81,3.59-2.81a4.57,4.57,0,0,1,3.59,1.6l-1.26,1.05a3.15,3.15,0,0,0-2.35-1c-1.09,0-1.78.43-1.78,1.18s1.07,1.3,2.26,1.78c1.94.69,3.46,1.52,3.46,3.54s-1.48,3-3.8,3A5,5,0,0,1,200,432Z"/><path class="cls-5" d="M211.13,431.27v-6.78H209.4v-1.58h1.73v-3.53l1.82-.87v4.4h2.63v1.58H213v6.18c0,.81.17,1.46,1.1,1.46a3,3,0,0,0,1.59-.56l-.21,1.77a4.3,4.3,0,0,1-2,.48C211.78,433.82,211.13,432.78,211.13,431.27Z"/><path class="cls-5" d="M222.69,430.56l1.71-.62a3.66,3.66,0,0,0,3.42,2.17c1.76,0,2.88-.86,2.88-2.46s-1.58-2.46-3.29-3.09c-2-.75-4.28-1.69-4.28-4.23,0-2,1.65-3.61,4.48-3.61,2.32,0,3.84,1.1,4.28,2.6l-1.67.57a2.78,2.78,0,0,0-2.73-1.48c-1.54,0-2.48.73-2.48,1.92,0,1.35,1.5,2,3.15,2.56,2,.77,4.42,1.84,4.42,4.71,0,2.7-2.05,4.22-4.8,4.22A5.15,5.15,0,0,1,222.69,430.56Z"/><path class="cls-5" d="M235.08,428.23c0-3.53,1.9-5.57,4.74-5.57,2.4,0,4.4,1.56,4.4,5.07,0,.33,0,.79-.06,1.21h-7.22c.15,2,1.31,3.23,2.92,3.23a3.2,3.2,0,0,0,2.3-1l1.1,1.23a4.86,4.86,0,0,1-3.44,1.38C236.9,433.82,235.08,431.48,235.08,428.23Zm7.31-.84c0-2.42-1.44-3.13-2.57-3.13-1.54,0-2.8.94-2.9,3.13Z"/><path class="cls-5" d="M246.93,422.91h1.82v1.4a2.76,2.76,0,0,1,4.17-1.11l-.27,1.71a2.51,2.51,0,0,0-1.52-.46c-1,0-2.38.69-2.38,3.11v6h-1.82Z"/><path class="cls-5" d="M254.74,419.84a1.14,1.14,0,1,1,2.27,0,1.14,1.14,0,0,1-2.27,0Zm.23,3.07h1.81v10.66H255Z"/><path class="cls-5" d="M266.36,432.59a4.47,4.47,0,0,1-3,1.23,3.36,3.36,0,0,1-3.71-3.59c0-2.46,1.92-3.52,4-3.52a5.48,5.48,0,0,1,2.76.68v-.75c0-1.87-.94-2.4-2.32-2.4a5.61,5.61,0,0,0-3.11,1.07l-.52-1.52a7.21,7.21,0,0,1,3.86-1.13c1.67,0,3.8.56,3.8,3.84v7.07h-1.71Zm0-1.78V429a5.15,5.15,0,0,0-2.51-.71c-1.37,0-2.52.61-2.52,2,0,1.19.81,2,2.27,2A3.73,3.73,0,0,0,266.36,430.81Z"/><path class="cls-5" d="M271.32,419.36l1.82-.85v15.06h-1.82Z"/><path class="cls-5" d="M281.9,419h5.59c3.55,0,4.71,2.21,4.71,4.38,0,2-1.29,4.36-4.71,4.36h-3.78v5.86H281.9Zm8.49,4.38a2.52,2.52,0,0,0-2.77-2.69h-3.91V426h3.91A2.53,2.53,0,0,0,290.39,423.35Z"/><path class="cls-5" d="M293.48,428.25c0-3.5,1.86-5.59,4.71-5.59s4.72,2,4.72,5.57-1.86,5.59-4.72,5.59S293.48,431.77,293.48,428.25Zm7.59,0c0-2.42-1.06-3.9-2.88-3.9s-2.88,1.44-2.88,3.92,1.07,3.88,2.88,3.88S301.07,430.67,301.07,428.23Z"/><path class="cls-5" d="M305.75,422.91h1.81v1.4a2.76,2.76,0,0,1,4.17-1.11l-.27,1.71a2.51,2.51,0,0,0-1.52-.46c-1,0-2.38.69-2.38,3.11v6h-1.81Z"/><path class="cls-5" d="M314.8,431.27v-6.78h-1.73v-1.58h1.73v-3.53l1.82-.87v4.4h2.62v1.58h-2.62v6.18c0,.81.16,1.46,1.1,1.46a3,3,0,0,0,1.59-.56l-.21,1.77a4.34,4.34,0,0,1-2.05.48C315.45,433.82,314.8,432.78,314.8,431.27Z"/><path class="cls-5" d="M321.27,432l1.29-1.1a3.69,3.69,0,0,0,2.61,1.27c1.13,0,2-.42,2-1.35s-1.19-1.55-2.44-2c-2-.73-3.3-1.58-3.3-3.34s1.55-2.81,3.59-2.81a4.56,4.56,0,0,1,3.59,1.6l-1.25,1.05a3.17,3.17,0,0,0-2.36-1c-1.08,0-1.77.43-1.77,1.18s1.06,1.3,2.25,1.78c1.94.69,3.46,1.52,3.46,3.54s-1.48,3-3.79,3A5,5,0,0,1,321.27,432Z"/><rect class="cls-8" x="476.44" y="13.32" width="49.34" height="113.78" rx="5.67" ry="5.67" transform="translate(430.91 571.32) rotate(-90)"/><path class="cls-5" d="M455.68,77.33l1.3-1.11a3.66,3.66,0,0,0,2.6,1.28c1.13,0,2-.42,2-1.36s-1.18-1.54-2.44-2c-2-.73-3.29-1.59-3.29-3.34S457.37,68,459.42,68A4.52,4.52,0,0,1,463,69.57l-1.25,1a3.17,3.17,0,0,0-2.36-1c-1.08,0-1.77.44-1.77,1.19,0,.9,1.07,1.29,2.25,1.77,1.94.69,3.47,1.53,3.47,3.55s-1.48,3-3.8,3A5,5,0,0,1,455.68,77.33Z"/><path class="cls-5" d="M465.55,73.53c0-3.52,1.9-5.57,4.73-5.57,2.4,0,4.41,1.57,4.41,5.07a10.66,10.66,0,0,1-.07,1.21h-7.21c.14,2,1.31,3.24,2.92,3.24a3.22,3.22,0,0,0,2.29-1l1.11,1.23a4.9,4.9,0,0,1-3.45,1.37C467.36,79.12,465.55,76.79,465.55,73.53Zm7.3-.83c0-2.42-1.44-3.13-2.57-3.13-1.54,0-2.79.94-2.89,3.13Z"/><path class="cls-5" d="M484,72.43c0-2-1-2.8-2.29-2.8s-2.47.69-2.47,2.76v6.48H477.4V68.21h1.81V69.3A3.22,3.22,0,0,1,482,68c2.42,0,3.82,1.34,3.82,4.78v6.13H484Z"/><path class="cls-5" d="M488.52,73.53c0-3.5,1.75-5.57,4.4-5.57a3.8,3.8,0,0,1,2.69,1v-4.3l1.82-.86V78.87h-1.82V78a3.52,3.52,0,0,1-2.69,1.08C490.21,79.12,488.52,77,488.52,73.53ZM495.61,76V71a2.86,2.86,0,0,0-2.44-1.36c-1.79,0-2.82,1.4-2.82,3.9,0,2.21,1.07,3.9,2.82,3.9A2.8,2.8,0,0,0,495.61,76Z"/><path class="cls-5" d="M500.87,71.78h4.88v1.75h-4.88Z"/><path class="cls-5" d="M508.57,73.55c0-3.5,1.71-5.59,4.5-5.59a3.68,3.68,0,0,1,3.74,2.49l-1.71.62a2.07,2.07,0,0,0-2-1.42c-1.81,0-2.66,1.51-2.66,3.9s.89,3.86,2.6,3.86a2.15,2.15,0,0,0,2.17-1.58l1.69.56a3.77,3.77,0,0,1-3.9,2.73C510.28,79.12,508.57,77.08,508.57,73.55Z"/><path class="cls-5" d="M532.12,72.41c0-1.46-.5-2.78-2.15-2.78-1.37,0-2.29,1.15-2.29,2.84v6.4h-1.82V72.41c0-1.46-.48-2.78-2.12-2.78-1.42,0-2.3,1.07-2.3,2.76v6.48h-1.81V68.21h1.81v1a3.39,3.39,0,0,1,2.8-1.26,3.23,3.23,0,0,1,2.85,1.57,3.78,3.78,0,0,1,6.85,2.36v7h-1.82Z"/><path class="cls-5" d="M536.65,73.53c0-3.5,1.75-5.57,4.4-5.57a3.8,3.8,0,0,1,2.69,1v-4.3l1.82-.86V78.87h-1.82V78a3.52,3.52,0,0,1-2.69,1.08C538.34,79.12,536.65,77,536.65,73.53ZM543.74,76V71a2.86,2.86,0,0,0-2.44-1.36c-1.79,0-2.81,1.4-2.81,3.9,0,2.21,1.06,3.9,2.81,3.9A2.8,2.8,0,0,0,543.74,76Z"/><rect class="cls-8" x="625.32" y="-23.16" width="49.34" height="142.36" rx="5.67" ry="5.67" transform="translate(601.97 698.01) rotate(-90)"/><path class="cls-5" d="M590.93,53.69l1.71-.63a3.64,3.64,0,0,0,3.42,2.17c1.75,0,2.88-.85,2.88-2.46s-1.59-2.46-3.3-3.09c-2-.75-4.27-1.69-4.27-4.23,0-2,1.64-3.61,4.48-3.61,2.32,0,3.84,1.1,4.28,2.61l-1.67.56a2.81,2.81,0,0,0-2.73-1.48c-1.55,0-2.49.73-2.49,1.92,0,1.35,1.51,2,3.15,2.56,2.05.78,4.43,1.84,4.43,4.72,0,2.69-2.05,4.21-4.8,4.21A5.14,5.14,0,0,1,590.93,53.69Z"/><path class="cls-5" d="M603.32,51.35c0-3.52,1.9-5.57,4.74-5.57,2.4,0,4.4,1.57,4.4,5.07a10.92,10.92,0,0,1-.07,1.21h-7.21c.14,2,1.31,3.23,2.92,3.23a3.18,3.18,0,0,0,2.29-1l1.11,1.23a4.82,4.82,0,0,1-3.44,1.38C605.14,56.94,603.32,54.6,603.32,51.35Zm7.3-.83c0-2.42-1.44-3.13-2.56-3.13-1.55,0-2.8.94-2.9,3.13Z"/><path class="cls-5" d="M615.17,46H617v1.4a2.76,2.76,0,0,1,4.17-1.11L620.89,48a2.57,2.57,0,0,0-1.53-.45c-1,0-2.37.68-2.37,3.1v6h-1.82Z"/><path class="cls-5" d="M623,43a1.14,1.14,0,1,1,2.28,0A1.14,1.14,0,0,1,623,43ZM623.2,46H625V56.69H623.2Z"/><path class="cls-5" d="M634.59,55.71a4.4,4.4,0,0,1-3,1.23,3.36,3.36,0,0,1-3.71-3.59c0-2.46,1.92-3.52,4-3.52a5.43,5.43,0,0,1,2.75.69v-.75c0-1.88-.93-2.4-2.31-2.4a5.57,5.57,0,0,0-3.11,1.06l-.52-1.52a7.16,7.16,0,0,1,3.86-1.13c1.67,0,3.79.56,3.79,3.84v7.07h-1.71Zm0-1.77V52.1a5.18,5.18,0,0,0-2.5-.71c-1.38,0-2.52.61-2.52,2,0,1.19.81,2,2.27,2A3.68,3.68,0,0,0,634.59,53.94Z"/><path class="cls-5" d="M639.56,42.49l1.82-.86V56.69h-1.82Z"/><path class="cls-5" d="M646.74,55.69v4.36l-1.82.85V46h1.82v.9a3.53,3.53,0,0,1,2.73-1.15c2.71,0,4.4,2.15,4.4,5.57s-1.82,5.59-4.4,5.59A3.3,3.3,0,0,1,646.74,55.69ZM652,51.35c0-2.31-1-3.9-2.77-3.9a2.77,2.77,0,0,0-2.5,1.44v4.92a3.16,3.16,0,0,0,2.5,1.44C651,55.25,652,53.87,652,51.35Z"/><path class="cls-5" d="M656.06,51.37c0-3.5,1.86-5.59,4.72-5.59s4.71,2,4.71,5.57-1.86,5.59-4.71,5.59S656.06,54.9,656.06,51.37Zm7.6,0c0-2.42-1.07-3.9-2.88-3.9s-2.88,1.44-2.88,3.92,1.06,3.88,2.88,3.88S663.66,53.79,663.66,51.35Z"/><path class="cls-5" d="M668.33,46h1.81v1.4a2.77,2.77,0,0,1,4.18-1.11L674,48a2.52,2.52,0,0,0-1.52-.45c-1,0-2.38.68-2.38,3.1v6h-1.81Z"/><path class="cls-5" d="M677.38,54.4V47.62h-1.73V46h1.73V42.51l1.82-.88V46h2.63v1.59H679.2v6.17c0,.81.17,1.46,1.1,1.46a3,3,0,0,0,1.59-.56l-.21,1.77a4.3,4.3,0,0,1-2,.48C678,56.94,677.38,55.9,677.38,54.4Z"/><path class="cls-5" d="M684.14,49.6H689v1.75h-4.89Z"/><path class="cls-5" d="M692.47,46h1.81v1.4a2.77,2.77,0,0,1,4.18-1.11L698.18,48a2.52,2.52,0,0,0-1.52-.45c-1,0-2.38.68-2.38,3.1v6h-1.81Z"/><path class="cls-5" d="M699.88,55.15,701.17,54a3.65,3.65,0,0,0,2.61,1.27c1.12,0,2-.41,2-1.35s-1.19-1.55-2.44-2c-2-.73-3.3-1.58-3.3-3.33s1.54-2.82,3.59-2.82a4.55,4.55,0,0,1,3.59,1.61l-1.26,1a3.13,3.13,0,0,0-2.35-1c-1.09,0-1.78.44-1.78,1.19s1.07,1.29,2.26,1.77c1.94.69,3.46,1.52,3.46,3.55s-1.48,3-3.8,3A5,5,0,0,1,699.88,55.15Z"/><rect class="cls-19" x="853.11" y="48.83" width="49.34" height="191.27" rx="5.67" ry="5.67" transform="translate(733.31 1022.24) rotate(-90)"/><path class="cls-5" d="M799,147.65v-9.12h1.81v9.12c0,3.21,1.55,4,3.42,4s3.45-.82,3.45-4v-9.12h1.81v9.12c0,4.19-2.13,5.74-5.26,5.74S799,151.86,799,147.65Z"/><path class="cls-5" d="M812.66,150.13l1.71-.62a3.66,3.66,0,0,0,3.42,2.17c1.76,0,2.88-.86,2.88-2.47s-1.58-2.46-3.29-3.08c-2-.75-4.28-1.69-4.28-4.24,0-2,1.65-3.61,4.48-3.61,2.32,0,3.84,1.11,4.28,2.61l-1.67.56a2.8,2.8,0,0,0-2.73-1.48c-1.54,0-2.48.73-2.48,1.92,0,1.36,1.5,2,3.15,2.57,2,.77,4.42,1.83,4.42,4.71,0,2.69-2,4.22-4.8,4.22A5.15,5.15,0,0,1,812.66,150.13Z"/><path class="cls-5" d="M831.17,138.53c3.46,0,4.54,1.92,4.54,3.86a3.3,3.3,0,0,1-2.14,3.05,3.56,3.56,0,0,1,2.67,3.5c0,2-1.17,4.2-4.74,4.2H826V138.53Zm2.75,3.88c0-1.06-.46-2.23-2.65-2.23h-3.46v4.55h3C832.88,144.73,833.92,143.81,833.92,142.41Zm.52,6.66c0-1.4-.67-2.69-3.4-2.69h-3.23v5.09h3.9C833.86,151.47,834.44,150.24,834.44,149.07Z"/><path class="cls-5" d="M843.75,150.13l1.71-.62a3.64,3.64,0,0,0,3.42,2.17c1.75,0,2.88-.86,2.88-2.47s-1.59-2.46-3.3-3.08c-2-.75-4.27-1.69-4.27-4.24,0-2,1.64-3.61,4.48-3.61,2.32,0,3.84,1.11,4.28,2.61l-1.67.56a2.83,2.83,0,0,0-2.74-1.48c-1.54,0-2.48.73-2.48,1.92,0,1.36,1.5,2,3.15,2.57,2,.77,4.42,1.83,4.42,4.71,0,2.69-2,4.22-4.79,4.22A5.13,5.13,0,0,1,843.75,150.13Z"/><path class="cls-5" d="M856.14,147.8c0-3.53,1.9-5.57,4.74-5.57,2.39,0,4.4,1.56,4.4,5.06a10.66,10.66,0,0,1-.07,1.21H858c.14,2,1.31,3.24,2.92,3.24a3.18,3.18,0,0,0,2.29-1l1.11,1.23a4.9,4.9,0,0,1-3.44,1.38C858,153.39,856.14,151.05,856.14,147.8Zm7.3-.84c0-2.42-1.44-3.13-2.56-3.13-1.55,0-2.8.94-2.9,3.13Z"/><path class="cls-5" d="M868,142.48h1.81v1.39a2.78,2.78,0,0,1,4.18-1.1l-.27,1.71a2.57,2.57,0,0,0-1.53-.46c-1,0-2.38.69-2.38,3.11v6H868Z"/><path class="cls-5" d="M875.79,139.41a1.14,1.14,0,1,1,2.28,0,1.14,1.14,0,0,1-2.28,0Zm.23,3.07h1.82v10.66H876Z"/><path class="cls-5" d="M887.41,152.15a4.41,4.41,0,0,1-3,1.24,3.36,3.36,0,0,1-3.71-3.59c0-2.46,1.91-3.53,4-3.53a5.43,5.43,0,0,1,2.75.69v-.75c0-1.88-.94-2.4-2.31-2.4a5.5,5.5,0,0,0-3.11,1.07l-.52-1.53a7.24,7.24,0,0,1,3.86-1.12c1.67,0,3.79.56,3.79,3.83v7.08h-1.71Zm0-1.77v-1.83a5.08,5.08,0,0,0-2.5-.71c-1.38,0-2.52.6-2.52,2,0,1.19.81,2,2.27,2A3.69,3.69,0,0,0,887.41,150.38Z"/><path class="cls-5" d="M892.38,138.93l1.81-.85v15.06h-1.81Z"/><path class="cls-5" d="M906.94,138.53c5,0,6.78,3.7,6.78,7.3,0,3.36-1.57,7.31-6.86,7.31H903V138.53Zm4.9,7.3c0-2.83-1.31-5.63-4.52-5.63h-2.55v11.25h2.32C910.72,151.45,911.84,148.48,911.84,145.83Z"/><path class="cls-5" d="M916.87,142.48h1.82v1.39a2.77,2.77,0,0,1,4.17-1.1l-.27,1.71a2.57,2.57,0,0,0-1.53-.46c-1,0-2.37.69-2.37,3.11v6h-1.82Z"/><path class="cls-5" d="M924.67,139.41a1.14,1.14,0,1,1,2.28,0,1.14,1.14,0,0,1-2.28,0Zm.23,3.07h1.82v10.66H924.9Z"/><path class="cls-5" d="M929.14,142.48H931l2.52,7.11c.12.37.23.67.33,1,.11-.37.21-.67.34-1l2.48-7.11h1.81l-3.9,10.66H933Z"/><path class="cls-5" d="M940.24,147.8c0-3.53,1.9-5.57,4.73-5.57,2.4,0,4.41,1.56,4.41,5.06,0,.34,0,.8-.07,1.21h-7.22c.15,2,1.32,3.24,2.93,3.24a3.18,3.18,0,0,0,2.29-1l1.11,1.23a4.9,4.9,0,0,1-3.45,1.38C942.05,153.39,940.24,151.05,940.24,147.8Zm7.3-.84c0-2.42-1.44-3.13-2.57-3.13-1.54,0-2.79.94-2.9,3.13Z"/><path class="cls-5" d="M952.09,142.48h1.81v1.39a2.78,2.78,0,0,1,4.18-1.1l-.28,1.71a2.51,2.51,0,0,0-1.52-.46c-1,0-2.38.69-2.38,3.11v6h-1.81Z"/><rect class="cls-19" x="853.11" y="33.8" width="49.34" height="49.34" rx="5.67" ry="5.67" transform="translate(819.3 936.25) rotate(-90)"/><path class="cls-5" d="M863.15,50.78l1.81-.85V65h-1.81Z"/><path class="cls-5" d="M868.3,51.26a1.14,1.14,0,1,1,2.28,0,1.14,1.14,0,0,1-2.28,0Zm.23,3.07h1.82V65h-1.82Z"/><path class="cls-5" d="M875.62,64.07V65h-1.81V50.78l1.81-.85v5.32a3.64,3.64,0,0,1,2.67-1.17c2.65,0,4.43,2.06,4.43,5.57s-1.65,5.59-4.36,5.59A3.65,3.65,0,0,1,875.62,64.07Zm5.24-4.42c0-2.51-.94-3.9-2.75-3.9a3,3,0,0,0-2.49,1.41v5a2.91,2.91,0,0,0,2.49,1.44C879.94,63.55,880.86,62.05,880.86,59.65Z"/><path class="cls-5" d="M884.91,59.67c0-3.51,1.71-5.59,4.51-5.59a3.67,3.67,0,0,1,3.73,2.48l-1.71.63a2,2,0,0,0-2-1.42c-1.82,0-2.67,1.5-2.67,3.9s.89,3.86,2.6,3.86a2.16,2.16,0,0,0,2.17-1.59l1.69.56a3.76,3.76,0,0,1-3.9,2.74C886.62,65.24,884.91,63.19,884.91,59.67Z"/><rect class="cls-8" x="476.44" y="75.67" width="49.34" height="113.78" rx="5.67" ry="5.67" transform="translate(368.56 633.67) rotate(-90)"/><path class="cls-5" d="M478.35,134.76c0-1.46-.5-2.78-2.15-2.78-1.38,0-2.3,1.15-2.3,2.84v6.4h-1.81v-6.46c0-1.46-.48-2.78-2.13-2.78-1.42,0-2.29,1.07-2.29,2.76v6.48h-1.82V130.57h1.82v1a3.35,3.35,0,0,1,2.79-1.25,3.24,3.24,0,0,1,2.86,1.56,3.78,3.78,0,0,1,6.84,2.36v7h-1.81Z"/><path class="cls-5" d="M482.88,135.91c0-3.51,1.85-5.59,4.71-5.59s4.71,2,4.71,5.56-1.85,5.6-4.71,5.6S482.88,139.43,482.88,135.91Zm7.59,0c0-2.41-1.07-3.9-2.88-3.9s-2.88,1.44-2.88,3.93,1.06,3.88,2.88,3.88S490.47,138.33,490.47,135.88Z"/><path class="cls-5" d="M501.71,134.78c0-2-1-2.8-2.29-2.8s-2.46.69-2.46,2.76v6.48h-1.82V130.57H497v1.08a3.18,3.18,0,0,1,2.75-1.33c2.42,0,3.82,1.33,3.82,4.77v6.13h-1.82Z"/><path class="cls-5" d="M506.68,127.5a1.14,1.14,0,1,1,2.27,0,1.14,1.14,0,0,1-2.27,0Zm.23,3.07h1.81v10.65h-1.81Z"/><path class="cls-5" d="M512.81,138.93v-6.78h-1.73v-1.58h1.73V127l1.82-.88v4.41h2.63v1.58h-2.63v6.18c0,.81.17,1.46,1.1,1.46a3,3,0,0,0,1.59-.57l-.21,1.78a4.3,4.3,0,0,1-2,.48C513.46,141.48,512.81,140.43,512.81,138.93Z"/><path class="cls-5" d="M519.16,135.91c0-3.51,1.85-5.59,4.71-5.59s4.71,2,4.71,5.56-1.85,5.6-4.71,5.6S519.16,139.43,519.16,135.91Zm7.59,0c0-2.41-1.06-3.9-2.88-3.9s-2.88,1.44-2.88,3.93,1.07,3.88,2.88,3.88S526.75,138.33,526.75,135.88Z"/><path class="cls-5" d="M531.42,130.57h1.82V132a2.6,2.6,0,0,1,2.52-1.64,2.55,2.55,0,0,1,1.65.54l-.27,1.71a2.51,2.51,0,0,0-1.52-.46c-1,0-2.38.69-2.38,3.11v6h-1.82Z"/><rect class="cls-8" x="476.44" y="138.02" width="49.34" height="113.78" rx="5.67" ry="5.67" transform="translate(306.21 696.02) rotate(-90)"/><path class="cls-5" d="M460,189.37l1.81-.85v15.06H460Z"/><path class="cls-5" d="M465.11,189.85a1.14,1.14,0,1,1,2.27,0,1.14,1.14,0,0,1-2.27,0Zm.23,3.07h1.82v10.66h-1.82Z"/><path class="cls-5" d="M469.91,202l1.29-1.1a3.71,3.71,0,0,0,2.61,1.27c1.13,0,2-.42,2-1.36s-1.19-1.54-2.44-2c-2-.73-3.29-1.59-3.29-3.34s1.54-2.81,3.58-2.81a4.56,4.56,0,0,1,3.59,1.6l-1.25,1a3.17,3.17,0,0,0-2.36-1c-1.08,0-1.77.44-1.77,1.19,0,.9,1.06,1.3,2.25,1.78,1.94.68,3.46,1.52,3.46,3.54s-1.48,3-3.79,3A5,5,0,0,1,469.91,202Z"/><path class="cls-5" d="M481,201.28V194.5H479.3v-1.58H481v-3.53l1.81-.87v4.4h2.63v1.58h-2.63v6.18c0,.81.17,1.46,1.11,1.46a2.88,2.88,0,0,0,1.58-.57l-.2,1.78a4.34,4.34,0,0,1-2.05.48C481.68,203.83,481,202.78,481,201.28Z"/><path class="cls-5" d="M487.79,196.48h4.88v1.76h-4.88Z"/><path class="cls-5" d="M497.93,202.57v4.36l-1.82.86V192.92h1.82v.89a3.57,3.57,0,0,1,2.73-1.14c2.71,0,4.4,2.15,4.4,5.57s-1.81,5.59-4.4,5.59A3.31,3.31,0,0,1,497.93,202.57Zm5.28-4.33c0-2.32-1-3.9-2.78-3.9a2.79,2.79,0,0,0-2.5,1.43v4.93a3.18,3.18,0,0,0,2.5,1.44C502.2,202.14,503.21,200.76,503.21,198.24Z"/><path class="cls-5" d="M507.25,198.26c0-3.51,1.86-5.59,4.72-5.59s4.71,2,4.71,5.57-1.85,5.59-4.71,5.59S507.25,201.78,507.25,198.26Zm7.6,0c0-2.42-1.07-3.9-2.88-3.9s-2.88,1.43-2.88,3.92,1.06,3.88,2.88,3.88S514.85,200.68,514.85,198.24Z"/><path class="cls-5" d="M519.52,192.92h1.82v1.39a2.77,2.77,0,0,1,4.17-1.1l-.27,1.71a2.57,2.57,0,0,0-1.53-.46c-1,0-2.37.69-2.37,3.11v6h-1.82Z"/><path class="cls-5" d="M528.58,201.28V194.5h-1.74v-1.58h1.74v-3.53l1.81-.87v4.4H533v1.58h-2.63v6.18c0,.81.17,1.46,1.11,1.46a2.91,2.91,0,0,0,1.58-.57l-.21,1.78a4.3,4.3,0,0,1-2,.48C529.22,203.83,528.58,202.78,528.58,201.28Z"/><path class="cls-5" d="M535,202l1.3-1.1a3.69,3.69,0,0,0,2.6,1.27c1.13,0,2-.42,2-1.36s-1.19-1.54-2.44-2c-2-.73-3.3-1.59-3.3-3.34s1.54-2.81,3.59-2.81a4.59,4.59,0,0,1,3.59,1.6l-1.26,1a3.15,3.15,0,0,0-2.35-1c-1.09,0-1.78.44-1.78,1.19,0,.9,1.07,1.3,2.26,1.78,1.94.68,3.46,1.52,3.46,3.54s-1.48,3-3.8,3A5,5,0,0,1,535,202Z"/><path class="cls-20" d="M193.25,71.21h3.45l4.74,13.35c.23.7.43,1.25.62,2,.2-.71.39-1.26.63-2l4.66-13.35h3.4l-7.32,20h-2.86Z"/><path class="cls-20" d="M213.92,88.32l2.43-2.08a6.9,6.9,0,0,0,4.9,2.39c2.11,0,3.72-.78,3.72-2.54,0-2-2.24-2.9-4.59-3.8-3.68-1.37-6.18-3-6.18-6.27s2.9-5.28,6.73-5.28a8.53,8.53,0,0,1,6.74,3l-2.35,2a6,6,0,0,0-4.43-1.92c-2,0-3.32.82-3.32,2.23,0,1.69,2,2.43,4.22,3.33,3.65,1.29,6.5,2.86,6.5,6.66,0,3.6-2.78,5.67-7.12,5.67A9.37,9.37,0,0,1,213.92,88.32Z"/><path class="cls-20" d="M232.44,81.23c0-6.58,3.21-10.49,8.46-10.49,3.33,0,5.87,1.52,7,4.66l-3.21,1.17a3.84,3.84,0,0,0-3.76-2.66c-3.41,0-5,2.82-5,7.32s1.68,7.24,4.89,7.24a4,4,0,0,0,4.07-3l3.18,1.06c-1,3.28-3.65,5.12-7.33,5.12C235.65,91.68,232.44,87.85,232.44,81.23Z"/><path class="cls-20" d="M252,81.23c0-6.58,3.48-10.49,8.85-10.49s8.85,3.83,8.85,10.45-3.49,10.49-8.85,10.49S252,87.85,252,81.23Zm14.25,0c0-4.54-2-7.32-5.4-7.32s-5.41,2.7-5.41,7.36,2,7.28,5.41,7.28S266.27,85.77,266.27,81.19Z"/><path class="cls-20" d="M273.87,81.19c0-6.58,3.28-10.45,8.26-10.45a7.21,7.21,0,0,1,5.05,1.88V64.55l3.4-1.6V91.21h-3.4V89.65a6.6,6.6,0,0,1-5.05,2C277,91.68,273.87,87.65,273.87,81.19Zm13.31,4.62v-9.4a5.41,5.41,0,0,0-4.58-2.54c-3.37,0-5.29,2.62-5.29,7.32,0,4.15,2,7.32,5.29,7.32A5.27,5.27,0,0,0,287.18,85.81Z"/><path class="cls-20" d="M295.87,81.19c0-6.62,3.56-10.45,8.89-10.45,4.5,0,8.26,2.93,8.26,9.51,0,.63,0,1.49-.12,2.27H299.35c.28,3.68,2.47,6.07,5.48,6.07a6,6,0,0,0,4.31-1.8l2.08,2.31a9.11,9.11,0,0,1-6.46,2.58C299.27,91.68,295.87,87.3,295.87,81.19Zm13.7-1.57c0-4.54-2.7-5.87-4.81-5.87-2.9,0-5.25,1.76-5.45,5.87Z"/><path class="cls-20" d="M316.54,89.06a2.73,2.73,0,0,1,2.7-2.7,2.76,2.76,0,0,1,2.74,2.7,2.73,2.73,0,0,1-2.74,2.66A2.69,2.69,0,0,1,316.54,89.06Z"/><path class="cls-20" d="M334.08,73.05,333,75.94l-2.66,3.65-2.54-1.92,2.58-3.57,2.23-1.91-2.82-.08-4-1.33,1-3.06L330.71,69l2.47,1.73-.67-2.9V63.42h3.18v4.42l-.75,2.9L337.45,69l3.95-1.29,1,3.06-4.07,1.33-2.86.08,2.31,1.91,2.58,3.57-2.54,1.92-2.7-3.65Z"/><line class="cls-21" x1="270.03" y1="259.69" x2="270.03" y2="254.69"/><line class="cls-22" x1="270.03" y1="243.97" x2="270.03" y2="142.17"/><line class="cls-21" x1="270.03" y1="136.81" x2="270.03" y2="131.81"/><path class="cls-3" d="M270,113.71c3.16,8.52,8.56,19.09,14.27,25.64L270,134.19l-14.26,5.16C261.48,132.8,266.87,122.23,270,113.71Z"/><line class="cls-23" x1="729.76" y1="45.2" x2="734.76" y2="45.2"/><line class="cls-24" x1="745.34" y1="45.2" x2="824.71" y2="45.2"/><line class="cls-23" x1="830" y1="45.2" x2="835" y2="45.2"/><path class="cls-25" d="M853.11,45.2c-8.52,3.16-19.09,8.55-25.65,14.27l5.16-14.27-5.16-14.27C834,36.65,844.59,42,853.11,45.2Z"/><rect class="cls-11" x="945.12" y="217.35" width="36.42" height="35.7" rx="6.53" ry="6.53"/><rect class="cls-26" x="945.12" y="245.51" width="36.42" height="35.7" rx="6.53" ry="6.53"/><rect class="cls-13" x="954.4" y="231.82" width="17.97" height="44.88" transform="translate(1217.65 -709.12) rotate(90)"/><path class="cls-27" d="M845.06,382.43s118.27,0,118.32-102"/><polyline class="cls-28" points="354.14 304.21 394 304.21 394 72.69 444.22 72.69"/><polyline class="cls-29" points="354.14 364.76 406.18 364.76 406.18 134.68 444.22 134.68"/><polyline class="cls-30" points="354.14 425.11 418 425.11 418 194.91 444.22 194.91"/></svg>