<svg xmlns="http://www.w3.org/2000/svg" xmlns:xlink="http://www.w3.org/1999/xlink" viewBox="0 0 1366 683"><defs><style>.cls-1{isolation:isolate;}.cls-2{fill:url(#Sky_1);}.cls-3{fill:#108ebf;}.cls-4{fill:#bfbfbf;}.cls-5{fill:#909091;}.cls-6{fill:#fff;}.cls-7{fill:#dbdbdb;}.cls-8{fill:url(#linear-gradient);}.cls-9{opacity:0.6;mix-blend-mode:overlay;}.cls-10{fill:url(#linear-gradient-2);}.cls-11{fill:none;stroke:#000;stroke-miterlimit:10;stroke-width:5px;}.cls-12{fill:url(#Water_4);}.cls-13{fill:url(#Water_3);}</style><linearGradient id="Sky_1" x1="683" y1="654" x2="683" y2="-1.15" gradientUnits="userSpaceOnUse"><stop offset="0" stop-color="#7bb9e7"/><stop offset="0.08" stop-color="#72b4e4"/><stop offset="0.22" stop-color="#58a7db"/><stop offset="0.4" stop-color="#2f91ce"/><stop offset="0.57" stop-color="#0078be"/><stop offset="1" stop-color="#154f9e"/></linearGradient><linearGradient id="linear-gradient" x1="390.88" y1="251.14" x2="454.22" y2="251.14" gradientUnits="userSpaceOnUse"><stop offset="0"/><stop offset="0.19" stop-color="#030303"/><stop offset="0.34" stop-color="#0d0d0d"/><stop offset="0.48" stop-color="#1e1e1e"/><stop offset="0.61" stop-color="#363636"/><stop offset="0.73" stop-color="#555"/><stop offset="0.85" stop-color="#7b7b7b"/><stop offset="0.97" stop-color="#a7a7a7"/><stop offset="1" stop-color="#b3b3b3"/></linearGradient><linearGradient id="linear-gradient-2" x1="395.48" y1="234.52" x2="438.81" y2="294.51" gradientUnits="userSpaceOnUse"><stop offset="0" stop-color="#fff"/><stop offset="0.01" stop-color="#f6f6f6"/><stop offset="0.05" stop-color="#c8c8c8"/><stop offset="0.09" stop-color="#9d9d9d"/><stop offset="0.14" stop-color="#777"/><stop offset="0.2" stop-color="#575757"/><stop offset="0.25" stop-color="#3b3b3b"/><stop offset="0.32" stop-color="#252525"/><stop offset="0.4" stop-color="#141414"/><stop offset="0.49" stop-color="#090909"/><stop offset="0.63" stop-color="#020202"/><stop offset="1"/></linearGradient><linearGradient id="Water_4" x1="683.33" y1="554.12" x2="683.33" y2="625.83" gradientUnits="userSpaceOnUse"><stop offset="0" stop-color="#87b9ce"/><stop offset="0.5" stop-color="#3a9cb9"/><stop offset="1" stop-color="#0087a8"/></linearGradient><linearGradient id="Water_3" x1="682.8" y1="558.74" x2="682.8" y2="682.25" gradientUnits="userSpaceOnUse"><stop offset="0" stop-color="#a1d1dc"/><stop offset="0.5" stop-color="#6cbbcb"/><stop offset="1" stop-color="#00a6bb"/></linearGradient></defs><title>whale-animation</title><g class="cls-1"><g id="Layer_4" data-name="Layer 4"><rect class="cls-2" width="1366" height="658"/></g><g id="Layer_1" data-name="Layer 1"><path class="cls-3" d="M1266.78,207.42a136.25,136.25,0,0,0-14.34-.82c-7.15,0-13.79.7-23,1.66l-2.69.28a393.3,393.3,0,0,0-58.42,10.59c-22.58,5.88-45.85,13.5-81.17,40.75,0-.33-.09-.66-.13-1-3.1-24-11.32-87.85-45-113.07l-2.73-2.05c-13-9.76-21.6-16.21-29.38-16.21-10.71,0-15.53,11.91-19.15,24.78-7.07,25.14-8.47,50.23-4,72.55l4.11-.81v0l-4,1.2c0,.12.13.47.29,1,5.88,20.9,11,36.71,14.92,45.7,1.81,4.21,6.38,10.88,10.41,16.77,2.4,3.52,5.7,8.34,6.14,9.51,3.48,11.21-1.41,14.67-12.12,22.25-2.28,1.61-4.64,3.28-7.16,5.21-15.59,11.94-34.55,12.07-34.74,12.07h-.18c-29.8-1.64-62.35-2.45-102.46-2.55q-19.49,0-39,0c-71.65,0-142.32.44-208,.91-12.89.09-28.54.14-45.11.2-214.45.74-224,4.09-225.31,11.58-2.57,15.23,1.73,40.39,5.24,53.58,11.7,43.87,32.45,85.73,58.49,118l0,0,.95,1.09C465.83,586.17,545.6,620.8,639.9,620.8h0c93.38,0,195.83-34.17,281.08-93.73,78.6-54.93,128.46-157.69,144.84-191.45,2.39-4.94,4.66-9.61,5.52-11,1-.58,4.54-1.6,16.35-1.6,2.12,0,4.23,0,6.25.06s3.69,0,5.34,0a52.31,52.31,0,0,0,7.5-.36A234.65,234.65,0,0,0,1165,305.55c45-19.79,79.51-48.82,102.41-86.29l.14-.22,5-11Z"/><path class="cls-4" d="M1266.78,207.42a136.25,136.25,0,0,0-14.34-.82c-7.15,0-13.79.7-23,1.66l-2.69.28a393.3,393.3,0,0,0-58.42,10.59c-22.58,5.88-45.85,13.5-81.17,40.75,0-.33-.09-.66-.13-1-3.1-24-11.32-87.85-45-113.07l-2.73-2.05c-13-9.76-21.6-16.21-29.38-16.21-10.71,0-15.53,11.91-19.15,24.78-7.07,25.14-8.47,50.23-4,72.55l4.11-.81v0l-4,1.2c0,.12.13.47.29,1,5.88,20.9,11,36.71,14.92,45.7,1.81,4.21,6.38,10.88,10.41,16.77,2.4,3.52,5.7,8.34,6.14,9.51,3.48,11.21-1.41,14.67-12.12,22.25-2.28,1.61-4.64,3.28-7.16,5.21-15.59,11.94-34.55,12.07-34.74,12.07h-.18c-29.8-1.64-62.35-2.45-102.46-2.55q-19.49,0-39,0c-71.65,0-142.32.44-208,.91-12.89.09-28.54.14-45.11.2-214.45.74-224,4.09-225.31,11.58-2.57,15.23,1.73,40.39,5.24,53.58,11.7,43.87,32.45,85.73,58.49,118l0,0,.95,1.09C465.83,586.17,545.6,620.8,639.9,620.8h0c93.38,0,195.83-34.17,281.08-93.73,78.6-54.93,128.46-157.69,144.84-191.45,2.39-4.94,4.66-9.61,5.52-11,1-.58,4.54-1.6,16.35-1.6,2.12,0,4.23,0,6.25.06s3.69,0,5.34,0a52.31,52.31,0,0,0,7.5-.36A234.65,234.65,0,0,0,1165,305.55c45-19.79,79.51-48.82,102.41-86.29l.14-.22,5-11Z"/><path class="cls-5" d="M1257.23,206.71c-22.47,30.23-53.4,58.33-92.2,75.37-19.11,8.39-49.6,18.38-69.13,21.41a52.24,52.24,0,0,1-7.49.36c-1.66,0-3.47,0-5.35,0s-4.13-.05-6.24-.05c-11.82,0-15.32,1-16.35,1.59-.87,1.38-3.14,6.06-5.53,11C1038.56,350.1,999.6,444.48,921,499.4,835.75,559,733.3,593.14,639.92,593.14h0c-94.3,0-174.07-34.63-230.7-100.14l-.95-1.1,0,0c-26-32.3-46.79-74.15-58.49-118a202.76,202.76,0,0,1-5-26.9,6.09,6.09,0,0,0-.23,1c-2.57,15.23,1.73,40.39,5.24,53.58,11.7,43.87,32.45,85.73,58.49,118l0,0,.95,1.09C465.83,586.17,545.6,620.8,639.9,620.8h0c93.38,0,195.83-34.17,281.08-93.73,78.6-54.93,128.46-157.69,144.84-191.45,2.39-4.94,4.66-9.61,5.52-11,1-.58,4.54-1.6,16.35-1.6,2.12,0,4.23,0,6.25.06s3.69,0,5.34,0a52.31,52.31,0,0,0,7.5-.36A234.65,234.65,0,0,0,1165,305.55c45-19.79,79.51-48.82,102.41-86.29l.14-.22,5-11-5.79-.61C1263.32,207.06,1260.2,206.83,1257.23,206.71Z"/><circle class="cls-6" cx="604.13" cy="460.65" r="28.5"/><path class="cls-6" d="M434.81,550.34s36-.84,65.38-11.74S547.13,521,547.13,521s20.12,46.94,35.2,61.19c35.46,33.48,83.83,36.88,83.83,36.88S554.67,643.38,434.81,550.34Z"/><path class="cls-7" d="M470.61,546.41a266.15,266.15,0,0,1-32,3.76C492.18,596.52,561,620.8,639.9,620.8h0q8.83,0,17.78-.4c5.48-.68,8.46-1.33,8.46-1.33s-40.67-2.86-74.75-29.14C546.72,583.84,506.09,569.18,470.61,546.41Z"/><path d="M636.07,450.13C629.41,405,570.8,426,573.52,465.64,576.66,511.6,642.69,495,636.07,450.13Zm-5.64,11.15c-6,29.53-60.63,24.19-49.84-7.24C589.09,429.28,632.73,431.87,630.43,461.28Z"/><path d="M618.1,456.37c-3-1.24-6.5-.38-9.28-2.31,8.79-14.58-5.87-17-15-6.13-19.25,22.82,17.07,39.85,25,17v0C619.45,463,620.93,457.52,618.1,456.37Zm1.15,6.66"/><path d="M1263.87,217.08c-23.77,38.88-59,66.41-100.52,84.63a231.08,231.08,0,0,1-57.2,16.92c-7.23,1.12-32.32-1.52-37.7,2.93-4.4,3.64-56.11,136.57-149.85,202.07C768.91,628.22,541,668.19,411.44,516.84l.93,1.09c-27.12-33.27-47.48-76-58.53-117.49-3.62-13.59-7.54-37.69-5.16-51.81,1.47-8.69,184.45-7.7,266.32-8.28,82.33-.59,164.61-1.06,246.94-.86,34.1.08,68.2.66,102.24,2.54,1.71.09,21.34-.41,37.69-12.93,14.62-11.19,26-15.06,20.75-32-1.06-3.41-13.66-19.62-16.71-26.7-6.62-15.34-15.16-46.8-15.06-46.3-4.62-23.36-2.44-47.77,4-70.6,9.11-32.42,18.38-24,44.71-4.31,39.87,29.85,43,119.76,44.79,118.31,36.15-29,59.18-37.54,85.09-44.29a388.58,388.58,0,0,1,57.8-10.47c16.69-1.74,24-2.69,39.14-1.12ZM1274,200.65c-1.43-6.31-87.78,9.51-99,12.25-28.07,6.84-63.38,16.06-83.48,38.42-3.27-34.57-15.73-75.5-38.76-102.08-15.88-18.32-44.76-46.28-58.66-15.47-11.51,25.52-15.18,57-11.94,84.77,2.19,18.75,8.47,37.54,15.51,55,1.94,4.81,16.55,26.23,14.86,30.39-10.21,25.14-47.48,26.61-67.82,26.35C892.8,329.57,840.94,328.5,789,328c-106.67-.93-213.43.36-320.1,1.89-34.17.49-126.34,0-129.48,5.37-9.07,15.65-.81,44.43,2.89,60.17,20.52,87.32,76.36,169.8,159.41,209,150.11,70.83,333.61,9.83,449.63-95.71,27.76-25.25,54.47-52.36,73.81-84.53a634.47,634.47,0,0,0,31.92-60.5c2.81-6.06,7.64-21,11.77-24.84,7.43-6.87,28.84-4.39,40.45-6.26a241.09,241.09,0,0,0,116-53.32C1243.76,263.82,1280.32,228.63,1274,200.65Z"/><path d="M669.54,621.4c-37.7-6.08-74-31.53-97.46-60.85-7-8.69-25.14-52.79-26.55-45.8-.08.38-18.66,6.15-30.82,11.25-38,16-78.6,11.86-73.3,22.2,4.16,8.12,36.8,2,43.4.83,21.52-3.78,38.57-11.12,56.45-23C566.14,582.87,615.29,612.77,669.54,621.4Z"/></g><g id="Boxes"><polygon class="cls-4" points="646.3 291.79 518.51 293.79 518.51 166 648.3 164 646.3 291.79"/><path d="M652.92,167.05c-6.7-15.91,4.46-4.19-10.41-13-11.91-7-124.59,14-130.46,9.22-.42-.34-.39,25.05-.6,53.6-.13,16.84-5.15,83.16,13.78,83.6,36.44.84,78.59-1.51,125.21-8.3,10.64-1.55,1-28.71,1.54-38.95C653,232.44,660.65,185.31,652.92,167.05Zm-29,122c-16.77,1.64-86.58,10.29-97-2.35-12.59-15.27-5.82-91-6.9-109.73,51.07-12.95,89.92-8.75,125.28-13.08-.65,4.29-5.41,119.08-4,122.34A75.63,75.63,0,0,1,623.93,289Z"/><polygon points="555.23 144.36 550.18 144.51 550.71 124.72 550.68 105 549.19 85.29 549.25 65.57 549.56 45.62 554.32 46.16 554.86 65.57 556.12 85.28 556.5 105 555.26 124.71 555.23 144.36"/><polygon points="585.63 144.36 580.58 144.52 581.1 125.26 581.07 106.1 579.58 86.94 579.64 67.77 579.93 48.6 582.11 29.74 585.27 29.6 586.51 48.59 586.9 67.75 585.65 86.92 585.35 106.09 584.99 125.25 585.63 144.36"/><polygon points="616.84 144.35 611.79 144.52 612.32 125.66 612.29 106.88 610.79 88.11 610.86 69.34 611.14 50.56 613.36 31.78 612.76 13.17 617.71 12.85 618.11 31.77 616.87 50.55 616.56 69.32 616.21 88.09 617.77 106.87 615.98 125.64 616.84 144.35"/><path d="M570.46,245.82l-.81-.14c-5.71-1.07-9.33-4.53-11-10-1.07-3.39.87-5.89,4.43-6.05,2.91-.14,4.9,1.53,6.66,3.48,2.27,2.51,4.36,5.19,6.59,7.74,3.21,3.67,7,6,12.17,5.3a23.18,23.18,0,0,0,12.21-5.58c.53-.47,1.11-.87,1.66-1.3l-.35-.41a25.62,25.62,0,0,1-9,1.07,26,26,0,0,1-13.08-3.76,17.36,17.36,0,0,1-7.57-9.65c-1-3.37,1.08-5.73,4.58-5.24a7,7,0,0,1,3.59,1.69c.85.72,1.66,1.48,2.53,2.18,4.08,3.28,9.79,3.46,15-.1-8.52,0-14.31-4.72-19.41-10.66-2-2.33-3.93-4.69-6-7-3.93-4.43-8.3-8.33-14.28-9.66a34.1,34.1,0,0,0-22.08,2.65,18.07,18.07,0,0,0-4.22,2.61h1.5a9,9,0,0,1,8.17,4.41,19.2,19.2,0,0,1,2.57,7c.75,3.66.36,7.4.8,11.09,1.11,9.47,6,16.08,15,19.46a17.7,17.7,0,0,0,10.46.81Zm-22.78-43.2c-1.42.36-2.56-.22-3.74-1.41a26.67,26.67,0,0,1,5.69-.76A2.41,2.41,0,0,1,547.68,202.62Zm46.67,55.3c-.13-.91-.91-1.31-1.52-1.79a14.94,14.94,0,0,0-9.23-2.91,17.71,17.71,0,0,1-5.88-.89c-.87-.33-1.84-.74-1.82-1.86s1-1.46,1.91-1.73c.74-.22,1.5-.36,2.34-.55-2.13-1.37-4.21-1.56-7-.44a17.59,17.59,0,0,1-13,0,49.27,49.27,0,0,1-6.91-3.51l-.06,0,.06,0c-.06-.18-.16-.18-.29-.08l.18.15a27.16,27.16,0,0,0,7.3,7.69c5.53,4.08,11.57,6.52,18.64,5.44q3.42-.53,6.89-.81C588.85,256.38,591.6,257.19,594.35,257.92ZM581,213.67c-.15-.11-.3-.39-.61-.1a22.36,22.36,0,0,0,9.74,7.57,26.76,26.76,0,0,0,19.39.75c5.12-1.77,8.8,0,10.71,4.92.27-5.76-3.12-10-8.52-10.79-3-.46-5.85.55-8.7,1.37A24.15,24.15,0,0,1,581,213.67Zm39.5,22.49,3.09.28c-2.33-2.05-5.17-2.22-8.05-2.05-4.38.25-7.53,2.77-10.41,5.79-2.54,2.66-4.83,5.64-8.61,6.71.06.12.08.17.1.17.51,0,1,0,1.52,0,5.5-.25,10.67-1.41,14.79-5.39,1.3-1.26,2.46-2.65,3.71-4A4.65,4.65,0,0,1,620.52,236.16Zm-12.77-6.81a23.31,23.31,0,0,0-11,4.3,11.22,11.22,0,0,1-8.43,2c-.54-.09-1.09-.16-1.64-.24a1.64,1.64,0,0,1,0,.22c.2.11.39.22.6.31a11.1,11.1,0,0,0,1.55.57,20.94,20.94,0,0,0,16.8-2.63,14.1,14.1,0,0,1,10.23-2c.36.06.73.13,1.1.16s.7.37,1.16,0A14.81,14.81,0,0,0,607.75,229.35ZM593.1,215.44a11.39,11.39,0,0,0,6.54-1.55c-.66.06-.94.06-1.21.11a9.82,9.82,0,0,1-8.36-2c-.91-.72-1.83-1.42-2.75-2.13-3.65-2.79-7.84-3.72-12.42-3.65.08.23.08.38.16.46C580,211.71,585.81,215.18,593.1,215.44Zm36.06,25.85c-3.08-3-7.22-3.45-11-.78a8.31,8.31,0,0,1,6,2.52,17.43,17.43,0,0,0,1.72,1.61,7.46,7.46,0,0,0,8.6.23C631.7,243.81,631.7,243.81,629.16,241.29Zm-30.71,23.42c-2.71-5-7.27-6.18-12.53-5.84a14,14,0,0,1,4.34,2,20.63,20.63,0,0,1,3.27,3c2,2.15,5.16,3.47,7.24,3A6.07,6.07,0,0,1,598.45,264.71Zm25.21-28.17s0-.07,0-.1h-.06l0,0ZM594.5,258l-.11-.06s0,0,0,.06S594.47,258,594.5,258Zm-.11-.06a.09.09,0,0,0,0-.05v0h0s0,0,0,0Z"/><polygon class="cls-4" points="486.3 315.79 358.51 317.79 358.51 190 488.3 188 486.3 315.79"/><path d="M492.92,191.05c-6.7-15.91,4.46-4.19-10.41-13-11.91-7-124.59,14-130.46,9.22-.42-.34-.39,25.05-.6,53.6-.13,16.84-5.15,83.16,13.78,83.6,36.44.84,78.59-1.51,125.21-8.3,10.64-1.55,1.05-28.71,1.54-38.95C493,256.44,500.65,209.31,492.92,191.05Zm-29,122c-16.77,1.64-86.58,10.29-97-2.35-12.59-15.27-5.82-91-6.9-109.73,51.07-12.95,89.92-8.75,125.28-13.08-.65,4.29-5.41,119.08-4,122.34A75.63,75.63,0,0,1,463.93,313Z"/><polygon class="cls-4" points="804.3 243.79 676.51 245.79 676.51 118 806.3 116 804.3 243.79"/><path d="M810.92,119.05c-6.7-15.91,4.46-4.19-10.41-13-11.91-7-124.59,14-130.46,9.22-.42-.34-.39,25.05-.6,53.6-.13,16.84-5.15,83.16,13.78,83.6,36.44.84,78.59-1.51,125.21-8.3,10.64-1.55,1-28.71,1.54-39C811,184.44,818.65,137.31,810.92,119.05Zm-29,122c-16.77,1.64-86.58,10.29-97-2.35-12.59-15.27-5.82-91-6.9-109.73,51.07-12.95,89.92-8.75,125.28-13.08-.65,4.29-5.41,119.08-4,122.34A75.63,75.63,0,0,1,781.93,241Z"/><polygon points="713.24 86.34 708.19 86.53 708.71 70.24 708.68 54.05 707.25 37.47 714.72 37.48 714.5 54.05 712.28 70.23 713.24 86.34"/><polygon points="743.63 86.34 738.58 86.53 739.1 70.18 739.07 53.93 737.58 37.68 737.7 21.06 744.85 21.14 742.67 37.68 743.25 53.93 744.51 70.18 743.63 86.34"/><polygon points="774.85 86.34 769.79 86.53 770.32 70.15 770.29 53.86 768.79 37.58 768.86 21.29 769.18 4.71 773.94 5.36 774.46 21.28 775.73 37.57 776.11 53.85 774.87 70.14 774.85 86.34"/><path d="M772.29,176.73q-7.23,1-13.44,10.07a1.76,1.76,0,0,1-3.19,0l-.17-.16a22.72,22.72,0,0,0-4.53-5.55,15.18,15.18,0,0,0-10.58-4.36,14.43,14.43,0,0,0-9.24,3.19,35.83,35.83,0,0,0-6,6.88,1.76,1.76,0,0,1-3.19,0q-6.21-9.06-13.27-10.07-6.55-1-13.44,5a2,2,0,0,1-2.35.16,1.49,1.49,0,0,1-.84-1.84,39.32,39.32,0,0,1,10.08-17.64,48.39,48.39,0,0,1,17.13-10.92,58.53,58.53,0,0,1,21.08-3.86,59.25,59.25,0,0,1,21.17,3.86,48.29,48.29,0,0,1,17.21,10.92,37.38,37.38,0,0,1,10.08,17.64,1.63,1.63,0,0,1-.84,1.93,1.82,1.82,0,0,1-2.35-.25Q778.84,175.71,772.29,176.73ZM735,206.62a5.38,5.38,0,0,1-10.75,0,5.38,5.38,0,0,0-10.75,0,16.13,16.13,0,1,0,32.25,0v-26a11.38,11.38,0,0,0-5.54-1.26,12.42,12.42,0,0,0-5.21,1.26Zm10.75-64.5a5.38,5.38,0,0,0-10.75,0v3a56.78,56.78,0,0,1,10.75,0Z"/><path class="cls-8" d="M427,200.9s-2.93,7.87.9,21.6c5.05,18.14,23.62,28.12,25.87,40.72s-4.27,36.23-28.12,38c-24.75,1.87-33.62-18-34.65-29.7C389.45,253.77,400.7,213.72,427,200.9Z"/><g class="cls-9"><path class="cls-10" d="M440.11,247.83s5.14,8.64,3.34,12.24-6.3,9.9-20.7,9.45-24.3-12.15-21.33-39c0-.23-12.42,19.2-9.94,43.22.87,8.49,8.09,23.15,24.86,25.67s26.74-4.72,30.53-11.45S460.16,264.39,440.11,247.83Z"/></g><path class="cls-4" d="M405.94,288.64s7.2.9,13.5,1.8,8.1,1.8,6.3,3.6-4.5,3.6-9.9,1.8S406.84,291.34,405.94,288.64Z"/><path class="cls-11" d="M427,200.9s-2.93,7.87.9,21.6c5.05,18.14,23.62,28.12,25.87,40.72s-4.27,36.23-28.12,38c-24.75,1.87-33.62-18-34.65-29.7C389.45,253.77,400.7,213.72,427,200.9Z"/></g><g id="Sea"><path class="cls-12" d="M.67,683V585.87c21.77,15.73,38.8,16,64.45,13s52.17-11.48,74.19-25.31a93.38,93.38,0,0,0,16.08-12.69c2.68-2.68,5.42-8.06,9.06-9.44,8.74-3.32,12.14,7.87,17.71,13.53C199.08,582.16,223,587.42,246,590.7c24.24,3.47,49.67,5.22,74.1,3.07a128.86,128.86,0,0,0,66.07-24.58c8.16-6,15.42-16.14,25.11-8.63,8.45,6.55,13.26,14,23.69,18.73C473.53,596.85,484.31,604,516.75,606a9.14,9.14,0,0,1,4.25-.07,25.89,25.89,0,0,0,2.78.4c4,.14,8.35.22,13.08.24,1.52,0,3.88.06,6.64.1s5.12-.09,6.64-.1c4.73,0,9.06-.1,13.08-.24a25.89,25.89,0,0,0,2.78-.4,9.14,9.14,0,0,1,4.25.07c32.44-1.94,43.22-9.13,81.83-26.69,10.43-4.75,15.24-12.18,23.69-18.73,9.69-7.51,17,2.68,25.11,8.63A128.86,128.86,0,0,0,767,593.77c24.43,2.15,49.86.4,74.1-3.07,23-3.28,46.87-8.54,63.79-25.72,5.57-5.66,9-16.85,17.71-13.53,3.64,1.38,6.38,6.76,9.06,9.44a93.38,93.38,0,0,0,16.08,12.69c22,13.83,48.45,22.35,74.19,25.31s56.68,2.71,78.45-13c5-3.59,13-17.68,18.6-17,2.38.27,5.54,5.09,7.53,6.51,5.11,3.65,12.46,6.21,18.27,8.58,26.76,10.91,56,17,84.77,19.43a268,268,0,0,0,39.77.38c6.77-.43,13.49-1.09,20.19-2.19,2.88-.47,5.78-1,8.62-1.6-.1,0,8.89-2.48,6.67-1.69,18.71-6.12,19.65-16,34.25-29.25,6.32-5.72,10.08-11,14.25-18.26,2.38-4.13,5.61-13.24,12-8.75l.74,141Z"/><path class="cls-13" d="M239.34,538.49C222,555.83,201.42,574.48,179,584c-29.51,12.53-34.29,13.67-65.4,21.56-15.15,3.84-40.54,8-56.12,9.45C45.42,616.17,11.7,573.18,0,583c0,0,0,101,0,101H1365.34s.2-55.3.21-55.8c.45-37.2-1.41-22.74-12.94-19.51-5,1.4-25.14,5.58-30.49,6.78-6.8,1.52-14.77.81-21.67.78-59.68-.3-128-7.85-183-32.84-12.56-5.71-18.34-14.66-28.53-22.55-11.66-9-20.41,3.23-30.23,10.39-23.79,17.36-50.21,27-79.56,29.6s-60,.48-89.24-3.69c-27.69-3.95-56.45-10.29-76.83-31-6.71-6.82-10.8-20.29-21.32-16.29-4.39,1.66-7.68,8.14-10.92,11.36a112,112,0,0,1-19.35,15.29C735,593.2,703.13,603.46,672.14,607s-68.26,3.27-94.49-15.67c-6-4.32-15.63-21.3-22.4-20.53-2.86.32-6.66,6.12-9.06,7.83-6.15,4.4-15,7.48-22,10.33C492,602.12,456.7,609.46,422.1,612.38a323,323,0,0,1-47.89.46c-8.16-.53-16.25-1.31-24.32-2.64-3.46-.57-6.95-1.17-10.38-1.93.13,0-13-3.61-6.81-1.63A167.3,167.3,0,0,1,271,571c-7.61-6.9-12.13-13.28-17.15-22C250.94,544.05,247.05,533.07,239.34,538.49Z"/></g></g></svg>