<svg xmlns="http://www.w3.org/2000/svg" width="475.7" height="34" viewBox="0 0 475.7 34"><style type="text/css">.st0{fill:#FFFFFF;}</style><path class="st0" d="M111 18.3s0-.5-1.3-.7c-.8-.1-2.2-.7-3.2-1.9-.1-.1-.2 0-.1.1.2 1.2.9 2 2.1 2.6-1.2.6-1.9 1.3-2.1 2.4 0 .1.1.2.2.1 1-1.2 2.4-1.6 3.2-1.8 1.3-.3 1.2-.8 1.2-.8zm-6.8-14.3s.1.2.3.2c1.1 0 1.4.2 1.8.6.4.4.5 1.1.5 2.4l.2 5.6s0 .3.2.8c.3.5.4.7.8 1.3.1.1.2.1.2-.1v-7.7c0-2-.3-2.7-1-3.4s-1.5-.8-3.2-.8h-.2s-.2 0-.1.2c0 .1.5.9.5.9zm3.7 17.6c-.4.6-.5.8-.8 1.3-.2.5-.2.8-.2.8l-.2 5.6c0 1.3-.1 2-.5 2.4-.4.4-.6.6-1.8.6-.2 0-.3.2-.3.2s-.5.7-.7.8c-.1.1.1.2.1.2h.2c1.8 0 2.5-.1 3.2-.8.7-.7 1-1.4 1-3.4v-7.7c.2 0 .1-.1 0 0zM41.9 29.4c0-.4-.1-.7-.6-.7-.4 0-.6.1-.6.5 0 .5.3.5.6.8.4.3.9.4.9 1.1 0 .6-.3.9-.9.9-.7 0-1-.4-.9-1h.3c0 .4 0 .8.6.8.4 0 .6-.2.6-.6 0-.5-.3-.6-.8-.9-.7-.4-.7-.6-.7-.9 0-.6.4-.8.9-.8.7 0 .9.4.9.9l-.3-.1zM43.9 28.4c1 0 1 .9 1 1.8s0 1.8-1 1.8-1-.9-1-1.8c-.1-.9 0-1.8 1-1.8zm0 3.3c.7 0 .7-.6.7-1.5s0-1.5-.7-1.5-.7.6-.7 1.5c-.1.9 0 1.5.7 1.5zM45.6 28.5h1.4v.3h-1.1v1.3h1.1v.3h-1.1v1.6h-.3v-3.5zM48.3 28.7h-.8v-.3h2v.3h-.8v3.2h-.3v-3.2h-.1zM51.6 28.5h.4l.7 3 .7-3h.3l-.8 3.4h-.4l-.7-3-.7 3h-.4l-.8-3.4h.3l.7 3 .7-3zM55.2 28.5l1.1 3.4h-.3l-.3-.9h-1.3l-.3.9h-.3l1.1-3.4h.3zm.4 2.3l-.6-1.9-.6 1.9h1.2zM57.2 30.3v1.7h-.3v-3.4h.9c.7 0 .8.2.8.8 0 .4-.1.7-.5.8.5.1.5.2.5 1.4v.4h-.3v-.9c0-.1.1-.8-.6-.8h-.5zm0-.3h.5c.5 0 .7-.1.7-.7 0-.5-.2-.6-.5-.6h-.6v1.3h-.1zM60.9 28.5v.3h-1.2v1.3h1.2v.3h-1.2v1.4h1.2v.3h-1.6v-3.4h1.6v-.2zM63.9 28.5l1.1 3.4h-.3l-.3-.9h-1.3l-.3.9h-.3l1.1-3.4h.3zm.4 2.3l-.6-1.9-.6 1.9h1.2zM65.8 30.3v1.7h-.3v-3.4h.9c.7 0 .8.2.8.8 0 .4-.1.7-.5.8.5.1.5.2.5 1.4v.4h-.3v-.9c0-.1.1-.8-.6-.8h-.5zm0-.3h.5c.5 0 .7-.1.7-.7 0-.5-.2-.6-.5-.6h-.6l-.1 1.3zM68.6 28.7h-.8v-.3h2v.3h-.9v3.2h-.3v-3.2zM70.7 28.5v3.4h-.3v-3.4h.3zM72.9 29.4c0-.4-.1-.7-.6-.7-.4 0-.6.1-.6.5 0 .5.3.5.6.8.4.3.9.4.9 1.1 0 .6-.3.9-.9.9-.7 0-1-.4-.9-1h.3c0 .4 0 .8.6.8.4 0 .6-.2.6-.6 0-.5-.3-.6-.8-.9-.7-.4-.7-.6-.7-.9 0-.6.4-.8.9-.8.7 0 .9.4.9.9l-.3-.1zM75.1 28.5l1.1 3.4h-.3l-.3-.9h-1.3l-.3.9h-.3l1.1-3.4h.3zm.4 2.3l-.6-2-.6 1.9 1.2.1zM76.8 31.9v-3.4h.5l1.4 3v-3h.2v3.4h-.5l-1.4-3v3h-.2zM81.2 29.4c0-.4-.1-.7-.6-.7-.4 0-.6.1-.6.5 0 .5.3.5.6.8.4.3.9.4.9 1.1 0 .6-.3.9-.9.9-.7 0-1-.4-.9-1h.3c0 .4 0 .8.6.8.4 0 .6-.2.6-.6 0-.5-.3-.6-.8-.9-.7-.4-.7-.6-.7-.9 0-.6.4-.8.9-.8.7 0 .9.4.9.9l-.3-.1zM10.2 4.4c.2 0 .3.1.3.3v.7c0 .2-.1.3-.3.3h-8.8v7.8h8c.2 0 .3.1.3.3v.7c0 .2-.1.3-.3.3h-8v8.9h8.9c.2 0 .3.1.3.3v.7c0 .1-.1.3-.3.3h-10c-.2 0-.3-.1-.3-.3v-20c-.1-.2 0-.3.2-.3h10zM20.7 23.4c-.9 1.2-2.3 1.8-3.6 1.8-2.4 0-4.3-1.9-4.3-5v-5c0-3.1 1.9-5 4.4-5 1.5 0 2.6.7 3.5 1.9v-8c0-.2.1-.3.3-.3h.9c.2 0 .3.1.3.3v20.7c0 .2-.1.3-.3.3h-.9c-.2 0-.3-.1-.3-.3v-1.4zm0-7.7c0-3-1.8-4.1-3.4-4.1s-3.1 1.2-3.1 4.1v3.8c0 3 1.5 4.1 3.1 4.1s3.4-1.2 3.4-4.1v-3.8zM25.9 15.1c0-3.1 1.9-5 4.4-5 1.3 0 2.6.7 3.5 1.9v-1.4c0-.2.1-.3.3-.3h.9c.2 0 .3.1.3.3v15.8c0 3.1-1.9 5.3-5 5.3-2.5 0-4.4-2.2-4.4-4.6v-.4c0-.2.1-.3.3-.3h.9c.2 0 .3.1.3.3 0 2.1 1.5 3.5 3.1 3.5s3.4-1.3 3.4-4.3v-2.5c-.9 1.2-2.2 1.8-3.5 1.8-2.5 0-4.4-1.9-4.4-5v-5.1h-.1zm7.9.6c0-3-1.8-4.1-3.4-4.1-1.6 0-3.1 1.2-3.1 4.1v3.8c0 3 1.5 4.1 3.1 4.1s3.3-1.1 3.4-3.9v-4zM48.8 17.7c0 .2-.1.3-.3.3h-7.7v1.6c0 3 1.6 4.1 3.2 4.1s3.2-1.2 3.2-3.5c0-.5.1-.6.3-.6h.9c.2 0 .3.1.3.3v.7c0 2.7-2.2 4.6-4.7 4.6s-4.7-1.9-4.7-5v-5c0-3.1 2.2-5 4.7-5s4.7 1.9 4.7 5l.1 2.5zm-8-1.1h6.5v-.9c0-3-1.6-4.1-3.2-4.1s-3.2 1.2-3.2 4.1l-.1.9zM64.2 11c0 .2-.1.3-.3.3h-.9c-.2 0-.3-.1-.3-.3v-.1c0-3.7-2.1-5.3-4.6-5.3s-4.6 1.6-4.6 5.3v7.7c0 3.7 2.1 5.3 4.6 5.3s4.6-1.6 4.6-5.3v-.3c0-.2.1-.3.3-.3h.9c.2 0 .3.1.3.3v.9c0 3.7-2.7 6.2-6.1 6.2-3.5 0-6.1-2.5-6.1-6.2v-8.9c0-3.7 2.7-6.2 6.1-6.2 3.4 0 6.1 2.5 6.1 6.2v.7zM66.5 20c0-1 .9-1.9 2.1-2.2l5.1-1.1c.3-.1.4-.3.4-.6v-1.4c0-2-1.2-3.2-2.8-3.2-1.8 0-2.8 1.2-2.8 3v.3c0 .2-.1.3-.3.3h-.9c-.2 0-.3-.1-.3-.3v-.4c0-2.2 1.4-4.4 4.3-4.4 2.5 0 4.3 1.9 4.3 5v6.8c0 1.3.5 1.7 1 1.7.2 0 .4.1.4.3v.9c0 .2-.2.3-.4.3-1.3 0-1.9-.9-2.2-1.7-.8 1-2 1.7-3.4 1.7-2.7 0-4.3-1.7-4.3-4.1v-.9h-.2zm7.5-2l-4.9 1c-.8.1-1.2.7-1.2 1.5v.5c0 1.6 1.1 2.7 2.8 2.7 1.6 0 3.1-1.2 3.2-3.4l.1-2.3zM87.3 15c0 .2-.1.3-.3.3h-.9c-.2 0-.3-.1-.3-.3v-.1c0-2.1-1.2-3.2-2.8-3.2-1.6 0-2.6 1-2.6 2.4 0 1.3 1.3 2 2.8 2.8 2 1 4.4 2.1 4.4 4.5 0 2.2-1.8 3.8-4.3 3.8-2.7 0-4.4-1.8-4.4-3.8v-.7c0-.2.1-.3.3-.3h.9c.2 0 .3.1.3.3v.7c0 1.6 1.5 2.4 3 2.4 1.6 0 2.8-.9 2.8-2.4 0-1.6-1.8-2.3-3.5-3.2-1.8-.9-3.6-1.9-3.6-4.2 0-2.1 1.6-3.8 4.1-3.8s4.3 1.9 4.3 4.1v.7h-.2zM99.5 17.7c0 .2-.1.3-.3.3h-7.7v1.6c0 3 1.6 4.1 3.2 4.1s3.2-1.2 3.2-3.5c0-.5.1-.6.3-.6h.9c.2 0 .3.1.3.3v.7c0 2.7-2.2 4.6-4.7 4.6s-4.7-1.9-4.7-5v-5c0-3.1 2.2-5 4.7-5s4.7 1.9 4.7 5l.1 2.5zm-8-1.1h6.5v-.9c0-3-1.6-4.1-3.2-4.1s-3.2 1.2-3.2 4.1v.9h-.1z"/><path id="neo" class="st0" d="M255.6 2.5h-.2c-9.3.1-16.5 6.6-16.5 15.8 0 3.7 1.1 6.9 3.1 9.5h-18.5c-.7-.1-1.4-.3-2-.5l-.2-.1-.2-.1h-.1c-2.6-1.2-4.5-3.5-4.9-7.1h20.5v-2.7c0-1.8-.5-14-13.1-14-8.8 0-15 6.3-15 15.4 0 3.4 1 6.5 2.8 9.1h-3.6c-.8 0-1.3-.5-1.3-1.3v-11.8c0-8-3.8-11.5-10.5-11.5-5.7 0-9 3.3-10.4 5.8v-1.1c0-2.8-1.2-4-3.9-4h-3.7v26.1c0 2.8 1.2 4 3.9 4h3.5v-13.8c0-1.4.2-2.8.6-4 1.1-3.6 4.1-6.1 8.1-6.1 3.8 0 4.7 2.5 4.7 6.1v13.8c0 2.8 1.2 4 4 4h53.4c8.8-.4 15.6-6.8 15.6-15.8.2-9.1-7-15.6-16.1-15.7zm-32.2 6.4c1.7 0 3.2.8 4.2 2.1.8 1 1.3 2.3 1.3 3.9h-12.7c.8-3.8 3.4-6 7.2-6zm32 18.8h-.5c-4.7-.2-8.5-4-8.5-9.5s4-9.3 9.1-9.4c4.8.1 8.8 3.9 8.8 9.4 0 5.6-4 9.5-8.9 9.5z"/><g id="shadows"><path class="st0" d="M241.9 27.7c4.9 6.3 12.6 6.3 12.6 6.3-5.6 0-12.4-2.4-15.4-6.3h2.8zM211.2 27.7c4.3 6.3 12.1 6.3 12.1 6.3-5.6 0-12-2.4-15-6.3h2.9z"/></g><path class="st0" d="M468.8 7.9c-.5-1.1-1.2-2.4-2-3.6 1.3-1.6 2.6-2.6 3.3-2.6h.2c.8.3 1 2.7.5 5.8-.6.1-1.3.2-2 .4zM465.7 15.6h-.7s-.1 0-.2-.1c-.1 0-.1 0-.2-.1-.8-.3-1.3-1-1.5-1.9-.2-1.4 1.1-2.9 3.3-3.8.5-.2 1.1-.4 1.8-.6.9 2.5.7 4.6-.5 5.7-.2.2-.4.3-.6.4l-.3.1c-.3.2-.7.3-1.1.3zM463.3 10.5c.1-.4.2-.8.4-1.2.6-1.3 1.4-2.9 2.5-4.2.7 1 1.2 2 1.7 3l-1.8.6c-1.2.5-2.2 1.1-2.8 1.8zM469.8 11.7c0-.9-.2-1.8-.6-2.8l1.5-.3c-.3 1.1-.6 2.2-.9 3.1zM462 13c-.3-.5-.5-1-.8-1.6-.8-1.9-1.4-4.6-1.6-6.9-.2-2.9.3-4.1.9-4.4l.3-.1c1 0 2.9 1.7 4.8 4.2-1.2 1.5-2.2 3.3-2.8 4.7-.7 1.5-.9 2.9-.8 4.1zM469.2 14.8c.6-.7 1-1.5 1.5-2.5.4-1.1.8-2.4 1.1-3.8.5 0 .9-.1 1.3-.1 1.6 0 2.3.4 2.5.7.3 1-3.2 4.1-6.4 5.7zM353 25.8c.1 0 .2 0 .3.1l.7.8c-.5.6-1.1 1-1.7 1.5-.6.4-1.3.8-2 1.1s-1.5.6-2.4.7c-.9.2-1.8.3-2.8.3-1.7 0-3.3-.3-4.7-.9-1.4-.6-2.7-1.5-3.7-2.6s-1.8-2.4-2.4-4-.9-3.3-.9-5.2.3-3.6.9-5.2 1.4-2.9 2.5-4 2.4-2 3.8-2.6 3.1-.9 4.9-.9c.9 0 1.7.1 2.5.2.7.1 1.4.3 2.1.6s1.3.6 1.8.9 1.1.8 1.7 1.3l-.5.8c-.1.1-.2.2-.4.2-.1 0-.2-.1-.4-.2s-.4-.3-.6-.5l-.9-.6c-.4-.2-.8-.4-1.3-.6-.5-.2-1.1-.3-1.7-.5-.6-.1-1.4-.2-2.2-.2-1.5 0-2.9.3-4.2.8-1.3.5-2.4 1.3-3.3 2.2-.9 1-1.6 2.1-2.1 3.5s-.8 2.9-.8 4.6c0 1.8.3 3.3.8 4.7s1.2 2.5 2.1 3.5 1.9 1.7 3.2 2.2 2.5.8 3.9.8c.9 0 1.7-.1 2.4-.2s1.3-.3 1.9-.5 1.1-.5 1.6-.9 1-.7 1.5-1.2l.2-.1c.1.1.2.1.2.1zM359.3 12.5v11.2c0 1.6.4 2.9 1.1 3.9.7 1 1.9 1.4 3.4 1.4 1.1 0 2.2-.3 3.2-.9s1.9-1.4 2.7-2.4v-13.2h1.7v17.5h-.9c-.3 0-.5-.2-.5-.5l-.2-2.6c-.8 1-1.7 1.8-2.8 2.4-1.1.6-2.2.9-3.5.9-1 0-1.8-.2-2.5-.5s-1.3-.7-1.8-1.3-.8-1.3-1.1-2.1-.4-1.7-.4-2.7v-11.1h1.6zM378.1 4.5v25.5h-1.7v-25.5h1.7zM388.2 30.3c-1.2 0-2.1-.3-2.8-1-.7-.7-1-1.7-1-3v-12h-2.5c-.1 0-.2 0-.3-.1-.1-.1-.1-.2-.1-.3v-.6l3-.2.4-6.2.1-.3s.2-.1.3-.1h.8v6.7h5.5v1.2h-5.5v11.8c0 .5.1.9.2 1.2s.3.6.5.9c.2.2.5.4.8.5.3.1.6.2.9.2.4 0 .8-.1 1.1-.2.3-.1.6-.3.8-.4.2-.1.4-.3.5-.4l.3-.2c.1 0 .2.1.3.2l.5.7c-.4.5-1 .9-1.7 1.2-.7.2-1.4.4-2.1.4zM397.9 6.5c0 .2 0 .4-.1.6l-.3.5c-.1.1-.3.3-.5.3-.2.1-.4.1-.6.1s-.4 0-.6-.1-.4-.2-.5-.3-.3-.3-.3-.5c-.1-.2-.1-.4-.1-.6s0-.4.1-.6.2-.4.3-.5c.1-.1.3-.3.5-.3.2-.1.4-.1.6-.1s.4 0 .6.1.4.2.5.3.3.3.3.5.1.4.1.6zm-.8 6v17.5h-1.7v-17.5h1.7zM409.1 30h-1.5l-7.4-17.5h1.3c.2 0 .3 0 .4.1s.2.2.2.3l5.8 13.8.3.8.2.7.2-.7s.1-.5.3-.8l5.8-13.8.2-.3c.1-.1.2-.1.4-.1h1.3l-7.5 17.5zM430.2 30c-.4 0-.6-.2-.6-.5l-.2-2.2c-.5.5-1 .9-1.4 1.3-.4.4-1 .7-1.5.9-.5.3-1.1.5-1.7.6s-1.3.2-2 .2c-.6 0-1.2-.1-1.7-.3s-1.1-.4-1.5-.8-.8-.8-1-1.4c-.3-.6-.4-1.2-.4-2 0-.7.2-1.4.6-2.1.4-.6 1.1-1.2 2-1.6.9-.5 2-.8 3.5-1.1 1.4-.3 3.1-.4 5.1-.5v-1.8c0-1.6-.3-2.9-1-3.7-.7-.9-1.7-1.3-3.1-1.3-.8 0-1.6.1-2.1.4-.6.2-1.1.5-1.5.8s-.7.5-1 .8c-.3.2-.5.4-.6.4-.2 0-.4-.1-.5-.3l-.3-.5c.9-.9 1.9-1.6 2.9-2.1s2.1-.7 3.4-.7c.9 0 1.8.1 2.5.4s1.3.7 1.7 1.3c.5.6.8 1.2 1 2s.4 1.7.4 2.6v11.4h-1v-.2zm-7-.9c.7 0 1.3-.1 1.9-.2.6-.1 1.1-.4 1.6-.6s.9-.6 1.4-.9l1.2-1.2v-4.5c-1.7 0-3.1.2-4.3.4-1.2.2-2.2.5-3 .8-.8.4-1.4.8-1.7 1.3-.4.5-.6 1-.6 1.7 0 .6.1 1.1.3 1.5.2.4.4.8.8 1.1.3.3.7.5 1.1.6.4-.1.8 0 1.3 0zM440 30.3c-1.2 0-2.1-.3-2.8-1-.7-.7-1-1.7-1-3v-12h-2.5c-.1 0-.2 0-.3-.1-.1-.1-.1-.2-.1-.3v-.6l3-.2.4-6.2.1-.3s.2-.1.3-.1h.8v6.7h5.5v1.2h-5.5v11.8c0 .5.1.9.2 1.2s.3.6.5.9c.2.2.5.4.8.5.3.1.6.2.9.2.4 0 .8-.1 1.1-.2.3-.1.6-.3.8-.4.2-.1.4-.3.5-.4l.3-.2c.1 0 .2.1.3.2l.5.7c-.4.5-1 .9-1.7 1.2-.6.2-1.3.4-2.1.4zM453.2 12.2c1 0 1.9.2 2.7.5.8.3 1.6.8 2.2 1.5.6.6 1.1 1.4 1.4 2.4.3.9.5 2 .5 3.3 0 .3 0 .4-.1.5s-.2.1-.4.1h-12.6v.3c0 1.3.2 2.5.5 3.5s.7 1.8 1.3 2.5 1.2 1.2 2 1.5 1.7.5 2.7.5c.9 0 1.6-.1 2.3-.3.6-.2 1.2-.4 1.6-.6s.8-.5 1-.6c.3-.2.4-.3.6-.3s.3.1.4.2l.5.6c-.3.4-.7.7-1.1 1-.5.3-1 .6-1.5.8s-1.2.4-1.8.5c-.6.1-1.3.2-2 .2-1.2 0-2.3-.2-3.3-.6-1-.4-1.8-1-2.5-1.8s-1.2-1.8-1.6-2.9c-.4-1.2-.6-2.5-.6-4 0-1.3.2-2.4.5-3.5.4-1.1.9-2 1.5-2.7.7-.8 1.5-1.4 2.5-1.8.9-.5 2-.8 3.3-.8zm0 1.3c-.9 0-1.7.1-2.4.4s-1.3.7-1.8 1.2-.9 1.2-1.3 1.9c-.3.7-.5 1.6-.6 2.5h11.5c0-.9-.1-1.8-.4-2.5s-.6-1.4-1.1-1.9-1-.9-1.7-1.2-1.4-.4-2.2-.4zM140.2 32.1l6.6-13.4-6.6-13.4 9.9 13.4-9.9 13.4zM299 32.1l6.6-13.4-6.6-13.4 9.9 13.4-9.9 13.4z"/></svg>