<?xml version="1.0" encoding="utf-8"?>
<!-- Generator: Adobe Illustrator 19.2.0, SVG Export Plug-In . SVG Version: 6.00 Build 0)  -->
<!DOCTYPE svg PUBLIC "-//W3C//DTD SVG 1.1//EN" "http://www.w3.org/Graphics/SVG/1.1/DTD/svg11.dtd">
<svg version="1.1" id="Layer_1" xmlns="http://www.w3.org/2000/svg" xmlns:xlink="http://www.w3.org/1999/xlink" x="0px" y="0px"
	 width="475.7px" height="34px" viewBox="0 0 475.7 34" style="enable-background:new 0 0 475.7 34;" xml:space="preserve">
<style type="text/css">
	.st0{fill:#FFFFFF;}
</style>
<g>
	<path class="st0" d="M111,18.3c0,0,0-0.5-1.3-0.7c-0.8-0.1-2.2-0.7-3.2-1.9c-0.1-0.1-0.2,0-0.1,0.1c0.2,1.2,0.9,2,2.1,2.6
		c-1.2,0.6-1.9,1.3-2.1,2.4c0,0.1,0.1,0.2,0.2,0.1c1-1.2,2.4-1.6,3.2-1.8C111.1,18.8,111,18.3,111,18.3z M104.2,4
		c0,0,0.1,0.2,0.3,0.2c1.1,0,1.4,0.2,1.8,0.6c0.4,0.4,0.5,1.1,0.5,2.4l0.2,5.6c0,0,0,0.3,0.2,0.8c0.3,0.5,0.4,0.7,0.8,1.3
		c0.1,0.1,0.2,0.1,0.2-0.1c0-0.1,0-0.1,0-0.2V7.1c0-2-0.3-2.7-1-3.4s-1.5-0.8-3.2-0.8h-0.2c0,0-0.2,0-0.1,0.2
		C103.7,3.2,104.2,4,104.2,4z M107.9,21.6c-0.4,0.6-0.5,0.8-0.8,1.3c-0.2,0.5-0.2,0.8-0.2,0.8l-0.2,5.6c0,1.3-0.1,2-0.5,2.4
		c-0.4,0.4-0.6,0.6-1.8,0.6c-0.2,0-0.3,0.2-0.3,0.2s-0.5,0.7-0.7,0.8c-0.1,0.1,0.1,0.2,0.1,0.2h0.2c1.8,0,2.5-0.1,3.2-0.8
		c0.7-0.7,1-1.4,1-3.4v-7.5C107.9,21.7,107.9,21.7,107.9,21.6C108.1,21.6,108,21.5,107.9,21.6z"/>
	<g>
		<path class="st0" d="M41.9,29.4c0-0.4-0.1-0.7-0.6-0.7c-0.4,0-0.6,0.1-0.6,0.5c0,0.5,0.3,0.5,0.6,0.8c0.4,0.3,0.9,0.4,0.9,1.1
			c0,0.6-0.3,0.9-0.9,0.9c-0.7,0-1-0.4-0.9-1h0.3c0,0.4,0,0.8,0.6,0.8c0.4,0,0.6-0.2,0.6-0.6c0-0.5-0.3-0.6-0.8-0.9
			c-0.7-0.4-0.7-0.6-0.7-0.9c0-0.6,0.4-0.8,0.9-0.8c0.7,0,0.9,0.4,0.9,0.9L41.9,29.4L41.9,29.4z"/>
		<path class="st0" d="M43.9,28.4c1,0,1,0.9,1,1.8c0,0.9,0,1.8-1,1.8s-1-0.9-1-1.8C42.8,29.3,42.9,28.4,43.9,28.4z M43.9,31.7
			c0.7,0,0.7-0.6,0.7-1.5s0-1.5-0.7-1.5s-0.7,0.6-0.7,1.5C43.1,31.1,43.2,31.7,43.9,31.7z"/>
		<path class="st0" d="M45.6,28.5H47v0.3h-1.1v1.3H47v0.3h-1.1V32h-0.3V28.5z"/>
		<path class="st0" d="M48.3,28.7h-0.8v-0.3h2v0.3h-0.8v3.2h-0.3v-3.2H48.3z"/>
		<path class="st0" d="M51.6,28.5H52l0.7,3l0,0l0.7-3h0.3l-0.8,3.4h-0.4l-0.7-3l0,0l-0.7,3h-0.4l-0.8-3.4h0.3l0.7,3l0,0L51.6,28.5z"
			/>
		<path class="st0" d="M55.2,28.5l1.1,3.4H56L55.7,31h-1.3l-0.3,0.9h-0.3l1.1-3.4H55.2z M55.6,30.8L55,28.9l0,0l-0.6,1.9H55.6z"/>
		<path class="st0" d="M57.2,30.3V32h-0.3v-3.4h0.9c0.7,0,0.8,0.2,0.8,0.8c0,0.4-0.1,0.7-0.5,0.8l0,0c0.5,0.1,0.5,0.2,0.5,1.4
			c0,0.1,0,0.3,0,0.4h-0.3c0-0.1,0-0.7,0-0.9c0-0.1,0.1-0.8-0.6-0.8H57.2z M57.2,30h0.5c0.5,0,0.7-0.1,0.7-0.7
			c0-0.5-0.2-0.6-0.5-0.6h-0.6V30H57.2z"/>
		<path class="st0" d="M60.9,28.5v0.3h-1.2v1.3h1.2v0.3h-1.2v1.4h1.2v0.3h-1.6v-3.4h1.6V28.5z"/>
		<path class="st0" d="M63.9,28.5l1.1,3.4h-0.3L64.4,31h-1.3l-0.3,0.9h-0.3l1.1-3.4H63.9z M64.3,30.8l-0.6-1.9l0,0l-0.6,1.9H64.3z"
			/>
		<path class="st0" d="M65.8,30.3V32h-0.3v-3.4h0.9c0.7,0,0.8,0.2,0.8,0.8c0,0.4-0.1,0.7-0.5,0.8l0,0c0.5,0.1,0.5,0.2,0.5,1.4
			c0,0.1,0,0.3,0,0.4h-0.3c0-0.1,0-0.7,0-0.9c0-0.1,0.1-0.8-0.6-0.8H65.8z M65.8,30h0.5c0.5,0,0.7-0.1,0.7-0.7
			c0-0.5-0.2-0.6-0.5-0.6h-0.6L65.8,30L65.8,30z"/>
		<path class="st0" d="M68.6,28.7h-0.8v-0.3h2v0.3h-0.9v3.2h-0.3V28.7z"/>
		<path class="st0" d="M70.7,28.5v3.4h-0.3v-3.4H70.7z"/>
		<path class="st0" d="M72.9,29.4c0-0.4-0.1-0.7-0.6-0.7c-0.4,0-0.6,0.1-0.6,0.5c0,0.5,0.3,0.5,0.6,0.8c0.4,0.3,0.9,0.4,0.9,1.1
			c0,0.6-0.3,0.9-0.9,0.9c-0.7,0-1-0.4-0.9-1h0.3c0,0.4,0,0.8,0.6,0.8c0.4,0,0.6-0.2,0.6-0.6c0-0.5-0.3-0.6-0.8-0.9
			c-0.7-0.4-0.7-0.6-0.7-0.9c0-0.6,0.4-0.8,0.9-0.8c0.7,0,0.9,0.4,0.9,0.9L72.9,29.4L72.9,29.4z"/>
		<path class="st0" d="M75.1,28.5l1.1,3.4h-0.3L75.6,31h-1.3L74,31.9h-0.3l1.1-3.4H75.1z M75.5,30.8l-0.6-2l0,0l-0.6,1.9L75.5,30.8
			L75.5,30.8z"/>
		<path class="st0" d="M76.8,31.9v-3.4h0.5l1.4,3l0,0v-3h0.2v3.4h-0.5l-1.4-3l0,0v3H76.8z"/>
		<path class="st0" d="M81.2,29.4c0-0.4-0.1-0.7-0.6-0.7c-0.4,0-0.6,0.1-0.6,0.5c0,0.5,0.3,0.5,0.6,0.8c0.4,0.3,0.9,0.4,0.9,1.1
			c0,0.6-0.3,0.9-0.9,0.9c-0.7,0-1-0.4-0.9-1H80c0,0.4,0,0.8,0.6,0.8c0.4,0,0.6-0.2,0.6-0.6c0-0.5-0.3-0.6-0.8-0.9
			c-0.7-0.4-0.7-0.6-0.7-0.9c0-0.6,0.4-0.8,0.9-0.8c0.7,0,0.9,0.4,0.9,0.9L81.2,29.4L81.2,29.4z"/>
	</g>
	<g>
		<path class="st0" d="M10.2,4.4c0.2,0,0.3,0.1,0.3,0.3v0.7c0,0.2-0.1,0.3-0.3,0.3H1.4v7.8h8c0.2,0,0.3,0.1,0.3,0.3v0.7
			c0,0.2-0.1,0.3-0.3,0.3h-8v8.9h8.9c0.2,0,0.3,0.1,0.3,0.3v0.7c0,0.1-0.1,0.3-0.3,0.3h-10C0.1,25,0,24.9,0,24.7v-20
			c-0.1-0.2,0-0.3,0.2-0.3H10.2z"/>
		<path class="st0" d="M20.7,23.4c-0.9,1.2-2.3,1.8-3.6,1.8c-2.4,0-4.3-1.9-4.3-5v-5c0-3.1,1.9-5,4.4-5c1.5,0,2.6,0.7,3.5,1.9v-8
			c0-0.2,0.1-0.3,0.3-0.3h0.9c0.2,0,0.3,0.1,0.3,0.3v20.7c0,0.2-0.1,0.3-0.3,0.3H21c-0.2,0-0.3-0.1-0.3-0.3L20.7,23.4z M20.7,15.7
			c0-3-1.8-4.1-3.4-4.1s-3.1,1.2-3.1,4.1v3.8c0,3,1.5,4.1,3.1,4.1s3.4-1.2,3.4-4.1V15.7z"/>
		<path class="st0" d="M25.9,15.1c0-3.1,1.9-5,4.4-5c1.3,0,2.6,0.7,3.5,1.9v-1.4c0-0.2,0.1-0.3,0.3-0.3H35c0.2,0,0.3,0.1,0.3,0.3
			v15.8c0,3.1-1.9,5.3-5,5.3c-2.5,0-4.4-2.2-4.4-4.6v-0.4c0-0.2,0.1-0.3,0.3-0.3h0.9c0.2,0,0.3,0.1,0.3,0.3c0,2.1,1.5,3.5,3.1,3.5
			c1.6,0,3.4-1.3,3.4-4.3v-2.5c-0.9,1.2-2.2,1.8-3.5,1.8c-2.5,0-4.4-1.9-4.4-5v-5.1H25.9z M33.8,15.7c0-3-1.8-4.1-3.4-4.1
			c-1.6,0-3.1,1.2-3.1,4.1v3.8c0,3,1.5,4.1,3.1,4.1s3.3-1.1,3.4-3.9V15.7z"/>
		<path class="st0" d="M48.8,17.7c0,0.2-0.1,0.3-0.3,0.3h-7.7v1.6c0,3,1.6,4.1,3.2,4.1c1.6,0,3.2-1.2,3.2-3.5c0-0.5,0.1-0.6,0.3-0.6
			h0.9c0.2,0,0.3,0.1,0.3,0.3v0.7c0,2.7-2.2,4.6-4.7,4.6s-4.7-1.9-4.7-5v-5c0-3.1,2.2-5,4.7-5s4.7,1.9,4.7,5L48.8,17.7L48.8,17.7z
			 M40.8,16.6h6.5v-0.9c0-3-1.6-4.1-3.2-4.1c-1.6,0-3.2,1.2-3.2,4.1L40.8,16.6L40.8,16.6z"/>
		<path class="st0" d="M64.2,11c0,0.2-0.1,0.3-0.3,0.3H63c-0.2,0-0.3-0.1-0.3-0.3v-0.1c0-3.7-2.1-5.3-4.6-5.3s-4.6,1.6-4.6,5.3v7.7
			c0,3.7,2.1,5.3,4.6,5.3s4.6-1.6,4.6-5.3v-0.3c0-0.2,0.1-0.3,0.3-0.3h0.9c0.2,0,0.3,0.1,0.3,0.3v0.9c0,3.7-2.7,6.2-6.1,6.2
			c-3.5,0-6.1-2.5-6.1-6.2v-8.9c0-3.7,2.7-6.2,6.1-6.2c3.4,0,6.1,2.5,6.1,6.2V11z"/>
		<path class="st0" d="M66.5,20c0-1,0.9-1.9,2.1-2.2l5.1-1.1c0.3-0.1,0.4-0.3,0.4-0.6v-1.4c0-2-1.2-3.2-2.8-3.2
			c-1.8,0-2.8,1.2-2.8,3v0.3c0,0.2-0.1,0.3-0.3,0.3h-0.9c-0.2,0-0.3-0.1-0.3-0.3v-0.4c0-2.2,1.4-4.4,4.3-4.4c2.5,0,4.3,1.9,4.3,5
			v6.8c0,1.3,0.5,1.7,1,1.7c0.2,0,0.4,0.1,0.4,0.3v0.9c0,0.2-0.2,0.3-0.4,0.3c-1.3,0-1.9-0.9-2.2-1.7c-0.8,1-2,1.7-3.4,1.7
			c-2.7,0-4.3-1.7-4.3-4.1V20H66.5z M74,18l-4.9,1c-0.8,0.1-1.2,0.7-1.2,1.5V21c0,1.6,1.1,2.7,2.8,2.7c1.6,0,3.1-1.2,3.2-3.4L74,18
			L74,18z"/>
		<path class="st0" d="M87.3,15c0,0.2-0.1,0.3-0.3,0.3h-0.9c-0.2,0-0.3-0.1-0.3-0.3v-0.1c0-2.1-1.2-3.2-2.8-3.2
			c-1.6,0-2.6,1-2.6,2.4c0,1.3,1.3,2,2.8,2.8c2,1,4.4,2.1,4.4,4.5c0,2.2-1.8,3.8-4.3,3.8c-2.7,0-4.4-1.8-4.4-3.8v-0.7
			c0-0.2,0.1-0.3,0.3-0.3h0.9c0.2,0,0.3,0.1,0.3,0.3v0.7c0,1.6,1.5,2.4,3,2.4c1.6,0,2.8-0.9,2.8-2.4c0-1.6-1.8-2.3-3.5-3.2
			c-1.8-0.9-3.6-1.9-3.6-4.2c0-2.1,1.6-3.8,4.1-3.8s4.3,1.9,4.3,4.1V15H87.3z"/>
		<path class="st0" d="M99.5,17.7c0,0.2-0.1,0.3-0.3,0.3h-7.7v1.6c0,3,1.6,4.1,3.2,4.1s3.2-1.2,3.2-3.5c0-0.5,0.1-0.6,0.3-0.6h0.9
			c0.2,0,0.3,0.1,0.3,0.3v0.7c0,2.7-2.2,4.6-4.7,4.6s-4.7-1.9-4.7-5v-5c0-3.1,2.2-5,4.7-5s4.7,1.9,4.7,5L99.5,17.7L99.5,17.7z
			 M91.5,16.6H98v-0.9c0-3-1.6-4.1-3.2-4.1s-3.2,1.2-3.2,4.1v0.9H91.5z"/>
	</g>
</g>
<path id="neo" class="st0" d="M255.6,2.5L255.6,2.5h-0.1h-0.1l0,0l0,0l0,0l0,0l0,0c-9.3,0.1-16.5,6.6-16.5,15.8
	c0,3.7,1.1,6.9,3.1,9.5h-18.5l0,0c-0.7-0.1-1.4-0.3-2-0.5l0,0c-0.1,0-0.1-0.1-0.2-0.1c-0.1,0-0.1-0.1-0.2-0.1H221
	c-2.6-1.2-4.5-3.5-4.9-7.1h20.3l0,0h0.2c0,0,0-0.9,0-2.7c0-1.8-0.5-14-13.1-14c-8.8,0-15,6.3-15,15.4c0,3.4,1,6.5,2.8,9.1h-3.6
	c-0.8,0-1.3-0.5-1.3-1.3V14.7c0-8-3.8-11.5-10.5-11.5c-5.7,0-9,3.3-10.4,5.8V7.9c0-2.8-1.2-4-3.9-4l0,0h-3.7v13.8l0,0V30
	c0,2.8,1.2,4,3.9,4l0,0h3.5V20.2c0-1.4,0.2-2.8,0.6-4c1.1-3.6,4.1-6.1,8.1-6.1c3.8,0,4.7,2.5,4.7,6.1V30c0,2.8,1.2,4,4,4h21.2
	c0.1,0,0.3,0,0.4,0c0.1,0,0.2,0,0.3,0h31.5c8.8-0.4,15.6-6.8,15.6-15.8C271.9,9.1,264.7,2.6,255.6,2.5z M223.4,8.9
	c1.7,0,3.2,0.8,4.2,2.1c0.8,1,1.3,2.3,1.3,3.9h-12.7C217,11.1,219.6,8.9,223.4,8.9z M255.4,27.7h-0.5l0,0c-4.7-0.2-8.5-4-8.5-9.5
	s4-9.3,9.1-9.4c4.8,0.1,8.8,3.9,8.8,9.4C264.3,23.8,260.3,27.7,255.4,27.7z"/>
<g id="shadows">
	<g>
		<g>
			<path class="st0" d="M241.9,27.7c4.9,6.3,12.6,6.3,12.6,6.3c-5.6,0-12.4-2.4-15.4-6.3H241.9z"/>
		</g>
	</g>
	<g>
		<g>
			<path class="st0" d="M211.2,27.7c4.3,6.3,12.1,6.3,12.1,6.3c-5.6,0-12-2.4-15-6.3H211.2z"/>
		</g>
	</g>
</g>
<g>
	<path class="st0" d="M468.8,7.9c-0.5-1.1-1.2-2.4-2-3.6c1.3-1.6,2.6-2.6,3.3-2.6c0.1,0,0.2,0,0.2,0c0.8,0.3,1,2.7,0.5,5.8
		C470.2,7.6,469.5,7.7,468.8,7.9z"/>
	<path class="st0" d="M465.7,15.6c-0.1,0-0.3,0-0.4,0h-0.1c-0.1,0-0.1,0-0.2,0s-0.1,0-0.2-0.1c-0.1,0-0.1,0-0.2-0.1
		c-0.8-0.3-1.3-1-1.5-1.9c-0.2-1.4,1.1-2.9,3.3-3.8c0.5-0.2,1.1-0.4,1.8-0.6c0.9,2.5,0.7,4.6-0.5,5.7c-0.2,0.2-0.4,0.3-0.6,0.4
		c-0.1,0-0.2,0.1-0.3,0.1C466.5,15.5,466.1,15.6,465.7,15.6z"/>
	<path class="st0" d="M463.3,10.5c0.1-0.4,0.2-0.8,0.4-1.2c0.6-1.3,1.4-2.9,2.5-4.2c0.7,1,1.2,2,1.7,3c-0.6,0.2-1.2,0.4-1.8,0.6
		C464.9,9.2,463.9,9.8,463.3,10.5z"/>
	<path class="st0" d="M469.8,11.7c0-0.9-0.2-1.8-0.6-2.8c0.5-0.1,1-0.2,1.5-0.3C470.4,9.7,470.1,10.8,469.8,11.7z"/>
	<path class="st0" d="M462,13c-0.3-0.5-0.5-1-0.8-1.6c-0.8-1.9-1.4-4.6-1.6-6.9c-0.2-2.9,0.3-4.1,0.9-4.4c0.1,0,0.2-0.1,0.3-0.1
		c1,0,2.9,1.7,4.8,4.2c-1.2,1.5-2.2,3.3-2.8,4.7C462.1,10.4,461.9,11.8,462,13z"/>
	<path class="st0" d="M469.2,14.8c0.6-0.7,1-1.5,1.5-2.5c0.4-1.1,0.8-2.4,1.1-3.8c0.5,0,0.9-0.1,1.3-0.1c1.6,0,2.3,0.4,2.5,0.7
		C475.9,10.1,472.4,13.2,469.2,14.8z"/>
</g>
<g>
	<path class="st0" d="M353,25.8c0.1,0,0.2,0,0.3,0.1l0.7,0.8c-0.5,0.6-1.1,1-1.7,1.5c-0.6,0.4-1.3,0.8-2,1.1s-1.5,0.6-2.4,0.7
		c-0.9,0.2-1.8,0.3-2.8,0.3c-1.7,0-3.3-0.3-4.7-0.9c-1.4-0.6-2.7-1.5-3.7-2.6s-1.8-2.4-2.4-4s-0.9-3.3-0.9-5.2s0.3-3.6,0.9-5.2
		s1.4-2.9,2.5-4s2.4-2,3.8-2.6s3.1-0.9,4.9-0.9c0.9,0,1.7,0.1,2.5,0.2c0.7,0.1,1.4,0.3,2.1,0.6s1.3,0.6,1.8,0.9s1.1,0.8,1.7,1.3
		l-0.5,0.8c-0.1,0.1-0.2,0.2-0.4,0.2c-0.1,0-0.2-0.1-0.4-0.2c-0.2-0.1-0.4-0.3-0.6-0.5c-0.3-0.2-0.6-0.4-0.9-0.6
		c-0.4-0.2-0.8-0.4-1.3-0.6c-0.5-0.2-1.1-0.3-1.7-0.5c-0.6-0.1-1.4-0.2-2.2-0.2c-1.5,0-2.9,0.3-4.2,0.8c-1.3,0.5-2.4,1.3-3.3,2.2
		c-0.9,1-1.6,2.1-2.1,3.5s-0.8,2.9-0.8,4.6c0,1.8,0.3,3.3,0.8,4.7s1.2,2.5,2.1,3.5s1.9,1.7,3.2,2.2s2.5,0.8,3.9,0.8
		c0.9,0,1.7-0.1,2.4-0.2c0.7-0.1,1.3-0.3,1.9-0.5s1.1-0.5,1.6-0.9s1-0.7,1.5-1.2c0.1,0,0.1-0.1,0.2-0.1
		C352.9,25.8,353,25.8,353,25.8z"/>
	<path class="st0" d="M359.3,12.5v11.2c0,1.6,0.4,2.9,1.1,3.9c0.7,1,1.9,1.4,3.4,1.4c1.1,0,2.2-0.3,3.2-0.9s1.9-1.4,2.7-2.4V12.5
		h1.7V30h-0.9c-0.3,0-0.5-0.2-0.5-0.5l-0.2-2.6c-0.8,1-1.7,1.8-2.8,2.4c-1.1,0.6-2.2,0.9-3.5,0.9c-1,0-1.8-0.2-2.5-0.5
		s-1.3-0.7-1.8-1.3s-0.8-1.3-1.1-2.1s-0.4-1.7-0.4-2.7V12.5H359.3z"/>
	<path class="st0" d="M378.1,4.5V30h-1.7V4.5H378.1z"/>
	<path class="st0" d="M388.2,30.3c-1.2,0-2.1-0.3-2.8-1c-0.7-0.7-1-1.7-1-3v-12h-2.5c-0.1,0-0.2,0-0.3-0.1c-0.1-0.1-0.1-0.2-0.1-0.3
		v-0.6l3-0.2l0.4-6.2c0-0.1,0.1-0.2,0.1-0.3s0.2-0.1,0.3-0.1h0.8v6.7h5.5v1.2h-5.5v11.8c0,0.5,0.1,0.9,0.2,1.2s0.3,0.6,0.5,0.9
		c0.2,0.2,0.5,0.4,0.8,0.5c0.3,0.1,0.6,0.2,0.9,0.2c0.4,0,0.8-0.1,1.1-0.2c0.3-0.1,0.6-0.3,0.8-0.4c0.2-0.1,0.4-0.3,0.5-0.4
		s0.3-0.2,0.3-0.2c0.1,0,0.2,0.1,0.3,0.2l0.5,0.7c-0.4,0.5-1,0.9-1.7,1.2C389.6,30.1,388.9,30.3,388.2,30.3z"/>
	<path class="st0" d="M397.9,6.5c0,0.2,0,0.4-0.1,0.6c-0.1,0.2-0.2,0.3-0.3,0.5c-0.1,0.1-0.3,0.3-0.5,0.3C396.8,8,396.6,8,396.4,8
		s-0.4,0-0.6-0.1s-0.4-0.2-0.5-0.3S395,7.3,395,7.1c-0.1-0.2-0.1-0.4-0.1-0.6s0-0.4,0.1-0.6s0.2-0.4,0.3-0.5
		c0.1-0.1,0.3-0.3,0.5-0.3C396,5,396.2,5,396.4,5s0.4,0,0.6,0.1s0.4,0.2,0.5,0.3s0.3,0.3,0.3,0.5S397.9,6.3,397.9,6.5z M397.1,12.5
		V30h-1.7V12.5H397.1z"/>
	<path class="st0" d="M409.1,30h-1.5l-7.4-17.5h1.3c0.2,0,0.3,0,0.4,0.1s0.2,0.2,0.2,0.3l5.8,13.8c0.1,0.3,0.2,0.5,0.3,0.8
		c0.1,0.2,0.1,0.5,0.2,0.7c0.1-0.2,0.1-0.5,0.2-0.7s0.1-0.5,0.3-0.8l5.8-13.8c0.1-0.1,0.1-0.2,0.2-0.3c0.1-0.1,0.2-0.1,0.4-0.1h1.3
		L409.1,30z"/>
	<path class="st0" d="M430.2,30c-0.4,0-0.6-0.2-0.6-0.5l-0.2-2.2c-0.5,0.5-1,0.9-1.4,1.3c-0.4,0.4-1,0.7-1.5,0.9
		c-0.5,0.3-1.1,0.5-1.7,0.6s-1.3,0.2-2,0.2c-0.6,0-1.2-0.1-1.7-0.3s-1.1-0.4-1.5-0.8s-0.8-0.8-1-1.4c-0.3-0.6-0.4-1.2-0.4-2
		c0-0.7,0.2-1.4,0.6-2.1c0.4-0.6,1.1-1.2,2-1.6c0.9-0.5,2-0.8,3.5-1.1c1.4-0.3,3.1-0.4,5.1-0.5v-1.8c0-1.6-0.3-2.9-1-3.7
		c-0.7-0.9-1.7-1.3-3.1-1.3c-0.8,0-1.6,0.1-2.1,0.4c-0.6,0.2-1.1,0.5-1.5,0.8s-0.7,0.5-1,0.8c-0.3,0.2-0.5,0.4-0.6,0.4
		c-0.2,0-0.4-0.1-0.5-0.3l-0.3-0.5c0.9-0.9,1.9-1.6,2.9-2.1s2.1-0.7,3.4-0.7c0.9,0,1.8,0.1,2.5,0.4s1.3,0.7,1.7,1.3
		c0.5,0.6,0.8,1.2,1,2s0.4,1.7,0.4,2.6v11.4h-1V30z M423.2,29.1c0.7,0,1.3-0.1,1.9-0.2c0.6-0.1,1.1-0.4,1.6-0.6s0.9-0.6,1.4-0.9
		c0.4-0.4,0.8-0.8,1.2-1.2v-4.5c-1.7,0-3.1,0.2-4.3,0.4c-1.2,0.2-2.2,0.5-3,0.8c-0.8,0.4-1.4,0.8-1.7,1.3c-0.4,0.5-0.6,1-0.6,1.7
		c0,0.6,0.1,1.1,0.3,1.5c0.2,0.4,0.4,0.8,0.8,1.1c0.3,0.3,0.7,0.5,1.1,0.6C422.3,29,422.7,29.1,423.2,29.1z"/>
	<path class="st0" d="M440,30.3c-1.2,0-2.1-0.3-2.8-1c-0.7-0.7-1-1.7-1-3v-12h-2.5c-0.1,0-0.2,0-0.3-0.1c-0.1-0.1-0.1-0.2-0.1-0.3
		v-0.6l3-0.2l0.4-6.2c0-0.1,0.1-0.2,0.1-0.3s0.2-0.1,0.3-0.1h0.8v6.7h5.5v1.2h-5.5v11.8c0,0.5,0.1,0.9,0.2,1.2s0.3,0.6,0.5,0.9
		c0.2,0.2,0.5,0.4,0.8,0.5c0.3,0.1,0.6,0.2,0.9,0.2c0.4,0,0.8-0.1,1.1-0.2c0.3-0.1,0.6-0.3,0.8-0.4c0.2-0.1,0.4-0.3,0.5-0.4
		s0.3-0.2,0.3-0.2c0.1,0,0.2,0.1,0.3,0.2l0.5,0.7c-0.4,0.5-1,0.9-1.7,1.2C441.5,30.1,440.8,30.3,440,30.3z"/>
	<path class="st0" d="M453.2,12.2c1,0,1.9,0.2,2.7,0.5c0.8,0.3,1.6,0.8,2.2,1.5c0.6,0.6,1.1,1.4,1.4,2.4c0.3,0.9,0.5,2,0.5,3.3
		c0,0.3,0,0.4-0.1,0.5s-0.2,0.1-0.4,0.1h-12.6v0.3c0,1.3,0.2,2.5,0.5,3.5s0.7,1.8,1.3,2.5s1.2,1.2,2,1.5s1.7,0.5,2.7,0.5
		c0.9,0,1.6-0.1,2.3-0.3c0.6-0.2,1.2-0.4,1.6-0.6s0.8-0.5,1-0.6c0.3-0.2,0.4-0.3,0.6-0.3s0.3,0.1,0.4,0.2l0.5,0.6
		c-0.3,0.4-0.7,0.7-1.1,1c-0.5,0.3-1,0.6-1.5,0.8s-1.2,0.4-1.8,0.5c-0.6,0.1-1.3,0.2-2,0.2c-1.2,0-2.3-0.2-3.3-0.6
		c-1-0.4-1.8-1-2.5-1.8s-1.2-1.8-1.6-2.9c-0.4-1.2-0.6-2.5-0.6-4c0-1.3,0.2-2.4,0.5-3.5c0.4-1.1,0.9-2,1.5-2.7
		c0.7-0.8,1.5-1.4,2.5-1.8C450.8,12.5,451.9,12.2,453.2,12.2z M453.2,13.5c-0.9,0-1.7,0.1-2.4,0.4s-1.3,0.7-1.8,1.2
		s-0.9,1.2-1.3,1.9c-0.3,0.7-0.5,1.6-0.6,2.5h11.5c0-0.9-0.1-1.8-0.4-2.5s-0.6-1.4-1.1-1.9s-1-0.9-1.7-1.2S454,13.5,453.2,13.5z"/>
</g>
<g>
	<path class="st0" d="M140.2,32.1l6.6-13.4l-6.6-13.4l9.9,13.4L140.2,32.1z"/>
</g>
<g>
	<path class="st0" d="M299,32.1l6.6-13.4L299,5.3l9.9,13.4L299,32.1z"/>
</g>
</svg>
