<?xml version="1.0" encoding="utf-8"?>
<!-- Generator: Adobe Illustrator 18.1.0, SVG Export Plug-In . SVG Version: 6.00 Build 0)  -->
<!DOCTYPE svg PUBLIC "-//W3C//DTD SVG 1.1//EN" "http://www.w3.org/Graphics/SVG/1.1/DTD/svg11.dtd">
<svg version="1.1" id="Layer_1" xmlns="http://www.w3.org/2000/svg" xmlns:xlink="http://www.w3.org/1999/xlink" x="0px" y="0px"
	 viewBox="0 0 480 43" enable-background="new 0 0 480 43" xml:space="preserve">
<g>
	<path fill="#BCBCBB" d="M114.1,21.9c0,0,0-0.5-1.3-0.7c-0.8-0.1-2.2-0.7-3.2-1.9c-0.1-0.1-0.2,0-0.1,0.1c0.2,1.2,0.9,2,2.1,2.6
		c-1.2,0.6-1.9,1.3-2.1,2.4c0,0.1,0.1,0.2,0.2,0.1c1-1.2,2.4-1.6,3.2-1.8C114.2,22.4,114.1,21.9,114.1,21.9z M107.3,7.6
		c0,0,0.1,0.2,0.3,0.2c1.1,0,1.4,0.2,1.8,0.6c0.4,0.4,0.5,1.1,0.5,2.4l0.2,5.6c0,0,0,0.3,0.2,0.8c0.3,0.5,0.4,0.7,0.8,1.3
		c0.1,0.1,0.2,0.1,0.2-0.1c0-0.1,0-0.1,0-0.2v-7.5c0-2-0.3-2.7-1-3.4c-0.7-0.7-1.5-0.8-3.2-0.8h-0.2c0,0-0.2,0-0.1,0.2
		C106.8,6.8,107.3,7.6,107.3,7.6z M111,25.2c-0.4,0.6-0.5,0.8-0.8,1.3c-0.2,0.5-0.2,0.8-0.2,0.8l-0.2,5.6c0,1.3-0.1,2-0.5,2.4
		c-0.4,0.4-0.6,0.6-1.8,0.6c-0.2,0-0.3,0.2-0.3,0.2s-0.5,0.7-0.7,0.8c-0.1,0.1,0.1,0.2,0.1,0.2h0.2c1.8,0,2.5-0.1,3.2-0.8
		c0.7-0.7,1-1.4,1-3.4v-7.5c0-0.1,0-0.1,0-0.2C111.2,25.2,111.1,25.1,111,25.2z"/>
	<g>
		<path fill="#BCBCBB" d="M45,33c0-0.4-0.1-0.7-0.6-0.7c-0.4,0-0.6,0.1-0.6,0.5c0,0.5,0.3,0.5,0.6,0.8c0.4,0.3,0.9,0.4,0.9,1.1
			c0,0.6-0.3,0.9-0.9,0.9c-0.7,0-1-0.4-0.9-1h0.3c0,0.4,0,0.8,0.6,0.8c0.4,0,0.6-0.2,0.6-0.6c0-0.5-0.3-0.6-0.8-0.9
			c-0.7-0.4-0.7-0.6-0.7-0.9c0-0.6,0.4-0.8,0.9-0.8c0.7,0,0.9,0.4,0.9,0.9H45z"/>
		<path fill="#BCBCBB" d="M47,32c1,0,1,0.9,1,1.8c0,0.9,0,1.8-1,1.8c-1,0-1-0.9-1-1.8C45.9,32.9,46,32,47,32z M47,35.3
			c0.7,0,0.7-0.6,0.7-1.5c0-0.9,0-1.5-0.7-1.5c-0.7,0-0.7,0.6-0.7,1.5C46.2,34.7,46.3,35.3,47,35.3z"/>
		<path fill="#BCBCBB" d="M48.7,32.1h1.4v0.3H49v1.3h1.1v0.3H49v1.6h-0.3V32.1z"/>
		<path fill="#BCBCBB" d="M51.4,32.3h-0.8v-0.3h2v0.3h-0.8v3.2h-0.3V32.3z"/>
		<path fill="#BCBCBB" d="M54.7,32.1h0.4l0.7,3h0l0.7-3h0.3L56,35.5h-0.4l-0.7-3h0l-0.7,3h-0.4L53,32.1h0.3l0.7,3h0L54.7,32.1z"/>
		<path fill="#BCBCBB" d="M58.3,32.1l1.1,3.4h-0.3l-0.3-0.9h-1.3l-0.3,0.9h-0.3l1.1-3.4H58.3z M58.7,34.4l-0.6-1.9h0l-0.6,1.9H58.7z
			"/>
		<path fill="#BCBCBB" d="M60.3,33.9v1.7H60v-3.4h0.9c0.7,0,0.8,0.2,0.8,0.8c0,0.4-0.1,0.7-0.5,0.8v0c0.5,0.1,0.5,0.2,0.5,1.4
			c0,0.1,0,0.3,0,0.4h-0.3c0-0.1,0-0.7,0-0.9c0-0.1,0.1-0.8-0.6-0.8H60.3z M60.3,33.6h0.5c0.5,0,0.7-0.1,0.7-0.7
			c0-0.5-0.2-0.6-0.5-0.6h-0.6V33.6z"/>
		<path fill="#BCBCBB" d="M64,32.1v0.3h-1.2v1.3h1.2v0.3h-1.2v1.4H64v0.3h-1.6v-3.4H64z"/>
		<path fill="#BCBCBB" d="M67,32.1l1.1,3.4h-0.3l-0.3-0.9h-1.3l-0.3,0.9h-0.3l1.1-3.4H67z M67.4,34.4l-0.6-1.9h0l-0.6,1.9H67.4z"/>
		<path fill="#BCBCBB" d="M68.9,33.9v1.7h-0.3v-3.4h0.9c0.7,0,0.8,0.2,0.8,0.8c0,0.4-0.1,0.7-0.5,0.8v0c0.5,0.1,0.5,0.2,0.5,1.4
			c0,0.1,0,0.3,0,0.4h-0.3c0-0.1,0-0.7,0-0.9c0-0.1,0.1-0.8-0.6-0.8H68.9z M68.9,33.6h0.5c0.5,0,0.7-0.1,0.7-0.7
			c0-0.5-0.2-0.6-0.5-0.6h-0.6V33.6z"/>
		<path fill="#BCBCBB" d="M71.7,32.3h-0.8v-0.3h2v0.3H72v3.2h-0.3V32.3z"/>
		<path fill="#BCBCBB" d="M73.8,32.1v3.4h-0.3v-3.4H73.8z"/>
		<path fill="#BCBCBB" d="M76,33c0-0.4-0.1-0.7-0.6-0.7c-0.4,0-0.6,0.1-0.6,0.5c0,0.5,0.3,0.5,0.6,0.8c0.4,0.3,0.9,0.4,0.9,1.1
			c0,0.6-0.3,0.9-0.9,0.9c-0.7,0-1-0.4-0.9-1h0.3c0,0.4,0,0.8,0.6,0.8c0.4,0,0.6-0.2,0.6-0.6c0-0.5-0.3-0.6-0.8-0.9
			c-0.7-0.4-0.7-0.6-0.7-0.9c0-0.6,0.4-0.8,0.9-0.8c0.7,0,0.9,0.4,0.9,0.9H76z"/>
		<path fill="#BCBCBB" d="M78.2,32.1l1.1,3.4H79l-0.3-0.9h-1.3l-0.3,0.9h-0.3l1.1-3.4H78.2z M78.6,34.4L78,32.4h0l-0.6,1.9H78.6z"/>
		<path fill="#BCBCBB" d="M79.9,35.5v-3.4h0.5l1.4,3l0,0v-3H82v3.4h-0.5l-1.4-3l0,0v3H79.9z"/>
		<path fill="#BCBCBB" d="M84.3,33c0-0.4-0.1-0.7-0.6-0.7c-0.4,0-0.6,0.1-0.6,0.5c0,0.5,0.3,0.5,0.6,0.8c0.4,0.3,0.9,0.4,0.9,1.1
			c0,0.6-0.3,0.9-0.9,0.9c-0.7,0-1-0.4-0.9-1h0.3c0,0.4,0,0.8,0.6,0.8c0.4,0,0.6-0.2,0.6-0.6c0-0.5-0.3-0.6-0.8-0.9
			c-0.7-0.4-0.7-0.6-0.7-0.9c0-0.6,0.4-0.8,0.9-0.8c0.7,0,0.9,0.4,0.9,0.9H84.3z"/>
	</g>
	<g>
		<path fill="#BCBCBB" d="M13.3,8c0.2,0,0.3,0.1,0.3,0.3V9c0,0.2-0.1,0.3-0.3,0.3H4.5v7.8h8c0.2,0,0.3,0.1,0.3,0.3v0.7
			c0,0.2-0.1,0.3-0.3,0.3h-8v8.9h8.9c0.2,0,0.3,0.1,0.3,0.3v0.7c0,0.1-0.1,0.3-0.3,0.3h-10c-0.2,0-0.3-0.1-0.3-0.3V8.3
			C3,8.1,3.1,8,3.3,8H13.3z"/>
		<path fill="#BCBCBB" d="M23.8,27c-0.9,1.2-2.3,1.8-3.6,1.8c-2.4,0-4.3-1.9-4.3-5v-5c0-3.1,1.9-5,4.4-5c1.5,0,2.6,0.7,3.5,1.9V7.7
			c0-0.2,0.1-0.3,0.3-0.3H25c0.2,0,0.3,0.1,0.3,0.3v20.7c0,0.2-0.1,0.3-0.3,0.3h-0.9c-0.2,0-0.3-0.1-0.3-0.3V27z M23.8,19.3
			c0-3-1.8-4.1-3.4-4.1c-1.6,0-3.1,1.2-3.1,4.1v3.8c0,3,1.5,4.1,3.1,4.1c1.6,0,3.4-1.2,3.4-4.1V19.3z"/>
		<path fill="#BCBCBB" d="M29,18.7c0-3.1,1.9-5,4.4-5c1.3,0,2.6,0.7,3.5,1.9v-1.4c0-0.2,0.1-0.3,0.3-0.3h0.9c0.2,0,0.3,0.1,0.3,0.3
			V30c0,3.1-1.9,5.3-5,5.3c-2.5,0-4.4-2.2-4.4-4.6v-0.4c0-0.2,0.1-0.3,0.3-0.3h0.9c0.2,0,0.3,0.1,0.3,0.3c0,2.1,1.5,3.5,3.1,3.5
			c1.6,0,3.4-1.3,3.4-4.3V27c-0.9,1.2-2.2,1.8-3.5,1.8c-2.5,0-4.4-1.9-4.4-5V18.7z M36.9,19.3c0-3-1.8-4.1-3.4-4.1
			c-1.6,0-3.1,1.2-3.1,4.1v3.8c0,3,1.5,4.1,3.1,4.1c1.6,0,3.3-1.1,3.4-3.9V19.3z"/>
		<path fill="#BCBCBB" d="M51.9,21.3c0,0.2-0.1,0.3-0.3,0.3h-7.7v1.6c0,3,1.6,4.1,3.2,4.1c1.6,0,3.2-1.2,3.2-3.5
			c0-0.5,0.1-0.6,0.3-0.6h0.9c0.2,0,0.3,0.1,0.3,0.3v0.7c0,2.7-2.2,4.6-4.7,4.6c-2.5,0-4.7-1.9-4.7-5v-5c0-3.1,2.2-5,4.7-5
			c2.5,0,4.7,1.9,4.7,5V21.3z M43.9,20.2h6.5v-0.9c0-3-1.6-4.1-3.2-4.1c-1.6,0-3.2,1.2-3.2,4.1V20.2z"/>
		<path fill="#BCBCBB" d="M67.3,14.6c0,0.2-0.1,0.3-0.3,0.3h-0.9c-0.2,0-0.3-0.1-0.3-0.3v-0.1c0-3.7-2.1-5.3-4.6-5.3
			c-2.5,0-4.6,1.6-4.6,5.3v7.7c0,3.7,2.1,5.3,4.6,5.3c2.5,0,4.6-1.6,4.6-5.3v-0.3c0-0.2,0.1-0.3,0.3-0.3h0.9c0.2,0,0.3,0.1,0.3,0.3
			v0.9c0,3.7-2.7,6.2-6.1,6.2c-3.5,0-6.1-2.5-6.1-6.2v-8.9c0-3.7,2.7-6.2,6.1-6.2c3.4,0,6.1,2.5,6.1,6.2V14.6z"/>
		<path fill="#BCBCBB" d="M69.6,23.6c0-1,0.9-1.9,2.1-2.2l5.1-1.1c0.3-0.1,0.4-0.3,0.4-0.6v-1.4c0-2-1.2-3.2-2.8-3.2
			c-1.8,0-2.8,1.2-2.8,3v0.3c0,0.2-0.1,0.3-0.3,0.3h-0.9c-0.2,0-0.3-0.1-0.3-0.3v-0.4c0-2.2,1.4-4.4,4.3-4.4c2.5,0,4.3,1.9,4.3,5
			v6.8c0,1.3,0.5,1.7,1,1.7c0.2,0,0.4,0.1,0.4,0.3v0.9c0,0.2-0.2,0.3-0.4,0.3c-1.3,0-1.9-0.9-2.2-1.7c-0.8,1-2,1.7-3.4,1.7
			c-2.7,0-4.3-1.7-4.3-4.1V23.6z M77.1,21.6l-4.9,1c-0.8,0.1-1.2,0.7-1.2,1.5v0.5c0,1.6,1.1,2.7,2.8,2.7c1.6,0,3.1-1.2,3.2-3.4V21.6
			z"/>
		<path fill="#BCBCBB" d="M90.4,18.6c0,0.2-0.1,0.3-0.3,0.3h-0.9c-0.2,0-0.3-0.1-0.3-0.3v-0.1c0-2.1-1.2-3.2-2.8-3.2
			c-1.6,0-2.6,1-2.6,2.4c0,1.3,1.3,2,2.8,2.8c2,1,4.4,2.1,4.4,4.5c0,2.2-1.8,3.8-4.3,3.8c-2.7,0-4.4-1.8-4.4-3.8v-0.7
			c0-0.2,0.1-0.3,0.3-0.3h0.9c0.2,0,0.3,0.1,0.3,0.3v0.7c0,1.6,1.5,2.4,3,2.4c1.6,0,2.8-0.9,2.8-2.4c0-1.6-1.8-2.3-3.5-3.2
			c-1.8-0.9-3.6-1.9-3.6-4.2c0-2.1,1.6-3.8,4.1-3.8c2.5,0,4.3,1.9,4.3,4.1V18.6z"/>
		<path fill="#BCBCBB" d="M102.6,21.3c0,0.2-0.1,0.3-0.3,0.3h-7.7v1.6c0,3,1.6,4.1,3.2,4.1c1.6,0,3.2-1.2,3.2-3.5
			c0-0.5,0.1-0.6,0.3-0.6h0.9c0.2,0,0.3,0.1,0.3,0.3v0.7c0,2.7-2.2,4.6-4.7,4.6c-2.5,0-4.7-1.9-4.7-5v-5c0-3.1,2.2-5,4.7-5
			c2.5,0,4.7,1.9,4.7,5V21.3z M94.6,20.2h6.5v-0.9c0-3-1.6-4.1-3.2-4.1c-1.6,0-3.2,1.2-3.2,4.1V20.2z"/>
	</g>
</g>
<path id="neo" fill="#BCBCBB" d="M258.7,6.1L258.7,6.1c0,0-0.1,0-0.1,0c0,0-0.1,0-0.1,0v0c0,0,0,0,0,0c0,0,0,0,0,0v0v0
	c-9.3,0.1-16.5,6.6-16.5,15.8c0,3.7,1.1,6.9,3.1,9.5l-18.5,0v0c-0.7-0.1-1.4-0.3-2-0.5c0,0,0,0,0,0c-0.1,0-0.1-0.1-0.2-0.1
	c-0.1,0-0.1-0.1-0.2-0.1c0,0-0.1,0-0.1,0c-2.6-1.2-4.5-3.5-4.9-7.1h20.3c0,0,0,0,0,0h0.2c0,0,0-0.9,0-2.7c0-1.8-0.5-14-13.1-14
	c-8.8,0-15,6.3-15,15.4c0,3.4,1,6.5,2.8,9.1h-3.6c-0.8,0-1.3-0.5-1.3-1.3V18.3c0-8-3.8-11.5-10.5-11.5c-5.7,0-9,3.3-10.4,5.8v-1.1
	c0-2.8-1.2-4-3.9-4l0,0H181v13.8h0v12.3c0,2.8,1.2,4,3.9,4l0,0h3.5V23.8c0-1.4,0.2-2.8,0.6-4c1.1-3.6,4.1-6.1,8.1-6.1
	c3.8,0,4.7,2.5,4.7,6.1v13.8c0,2.8,1.2,4,4,4h21.2c0.1,0,0.3,0,0.4,0c0.1,0,0.2,0,0.3,0h31.5c8.8-0.4,15.6-6.8,15.6-15.8
	C275,12.7,267.8,6.2,258.7,6.1z M226.5,12.5c1.7,0,3.2,0.8,4.2,2.1c0.8,1,1.3,2.3,1.3,3.9h-12.7C220.1,14.7,222.7,12.5,226.5,12.5z
	 M258.5,31.3H258h0c-4.7-0.2-8.5-4-8.5-9.5c0-5.5,4-9.3,9.1-9.4c4.8,0.1,8.8,3.9,8.8,9.4C267.4,27.4,263.4,31.3,258.5,31.3z"/>
<g id="shadows">
	<g>
		<g>
			<path fill="#9C9B9B" d="M245,31.3c4.9,6.3,12.6,6.3,12.6,6.3c-5.6,0-12.4-2.4-15.4-6.3L245,31.3z"/>
		</g>
	</g>
	<g>
		<g>
			<path fill="#9C9B9B" d="M214.3,31.3c4.3,6.3,12.1,6.3,12.1,6.3c-5.6,0-12-2.4-15-6.3L214.3,31.3z"/>
		</g>
	</g>
</g>
<g>
	<path fill="#E12285" d="M471.9,11.5c-0.5-1.1-1.2-2.4-2-3.6c1.3-1.6,2.6-2.6,3.3-2.6c0.1,0,0.2,0,0.2,0c0.8,0.3,1,2.7,0.5,5.8
		C473.3,11.2,472.6,11.3,471.9,11.5z"/>
	<path fill="#E12285" d="M468.8,19.2c-0.1,0-0.3,0-0.4,0l-0.1,0c-0.1,0-0.1,0-0.2,0c-0.1,0-0.1,0-0.2-0.1c-0.1,0-0.1,0-0.2-0.1
		c-0.8-0.3-1.3-1-1.5-1.9c-0.2-1.4,1.1-2.9,3.3-3.8c0.5-0.2,1.1-0.4,1.8-0.6c0.9,2.5,0.7,4.6-0.5,5.7c-0.2,0.2-0.4,0.3-0.6,0.4
		c-0.1,0-0.2,0.1-0.3,0.1C469.6,19.1,469.2,19.2,468.8,19.2z"/>
	<path fill="#E12285" d="M466.4,14.1c0.1-0.4,0.2-0.8,0.4-1.2c0.6-1.3,1.4-2.9,2.5-4.2c0.7,1,1.2,2,1.7,3c-0.6,0.2-1.2,0.4-1.8,0.6
		C468,12.8,467,13.4,466.4,14.1z"/>
	<path fill="#E12285" d="M472.9,15.3c0-0.9-0.2-1.8-0.6-2.8c0.5-0.1,1-0.2,1.5-0.3C473.5,13.3,473.2,14.4,472.9,15.3z"/>
	<path fill="#E12285" d="M465.1,16.6c-0.3-0.5-0.5-1-0.8-1.6c-0.8-1.9-1.4-4.6-1.6-6.9c-0.2-2.9,0.3-4.1,0.9-4.4
		c0.1,0,0.2-0.1,0.3-0.1c1,0,2.9,1.7,4.8,4.2c-1.2,1.5-2.2,3.3-2.8,4.7C465.2,14,465,15.4,465.1,16.6z"/>
	<path fill="#E12285" d="M472.3,18.4c0.6-0.7,1-1.5,1.5-2.5c0.4-1.1,0.8-2.4,1.1-3.8c0.5,0,0.9-0.1,1.3-0.1c1.6,0,2.3,0.4,2.5,0.7
		C479,13.7,475.5,16.8,472.3,18.4z"/>
</g>
<g>
	<path d="M356.1,29.4c0.1,0,0.2,0,0.3,0.1l0.7,0.8c-0.5,0.6-1.1,1-1.7,1.5c-0.6,0.4-1.3,0.8-2,1.1c-0.7,0.3-1.5,0.6-2.4,0.7
		c-0.9,0.2-1.8,0.3-2.8,0.3c-1.7,0-3.3-0.3-4.7-0.9c-1.4-0.6-2.7-1.5-3.7-2.6c-1-1.1-1.8-2.4-2.4-4c-0.6-1.6-0.9-3.3-0.9-5.2
		c0-1.9,0.3-3.6,0.9-5.2s1.4-2.9,2.5-4c1.1-1.1,2.4-2,3.8-2.6s3.1-0.9,4.9-0.9c0.9,0,1.7,0.1,2.5,0.2c0.7,0.1,1.4,0.3,2.1,0.6
		s1.3,0.6,1.8,0.9s1.1,0.8,1.7,1.3l-0.5,0.8c-0.1,0.1-0.2,0.2-0.4,0.2c-0.1,0-0.2-0.1-0.4-0.2c-0.2-0.1-0.4-0.3-0.6-0.5
		c-0.3-0.2-0.6-0.4-0.9-0.6c-0.4-0.2-0.8-0.4-1.3-0.6c-0.5-0.2-1.1-0.3-1.7-0.5c-0.6-0.1-1.4-0.2-2.2-0.2c-1.5,0-2.9,0.3-4.2,0.8
		c-1.3,0.5-2.4,1.3-3.3,2.2c-0.9,1-1.6,2.1-2.1,3.5c-0.5,1.4-0.8,2.9-0.8,4.6c0,1.8,0.3,3.3,0.8,4.7c0.5,1.4,1.2,2.5,2.1,3.5
		c0.9,1,1.9,1.7,3.2,2.2s2.5,0.8,3.9,0.8c0.9,0,1.7-0.1,2.4-0.2c0.7-0.1,1.3-0.3,1.9-0.5s1.1-0.5,1.6-0.9s1-0.7,1.5-1.2
		c0.1,0,0.1-0.1,0.2-0.1C356,29.4,356.1,29.4,356.1,29.4z"/>
	<path d="M362.4,16.1v11.2c0,1.6,0.4,2.9,1.1,3.9s1.9,1.4,3.4,1.4c1.1,0,2.2-0.3,3.2-0.9c1-0.6,1.9-1.4,2.7-2.4V16.1h1.7v17.5h-0.9
		c-0.3,0-0.5-0.2-0.5-0.5l-0.2-2.6c-0.8,1-1.7,1.8-2.8,2.4c-1.1,0.6-2.2,0.9-3.5,0.9c-1,0-1.8-0.2-2.5-0.5c-0.7-0.3-1.3-0.7-1.8-1.3
		s-0.8-1.3-1.1-2.1s-0.4-1.7-0.4-2.7V16.1H362.4z"/>
	<path d="M381.2,8.1v25.5h-1.7V8.1H381.2z"/>
	<path d="M391.3,33.9c-1.2,0-2.1-0.3-2.8-1c-0.7-0.7-1-1.7-1-3V17.9H385c-0.1,0-0.2,0-0.3-0.1c-0.1-0.1-0.1-0.2-0.1-0.3v-0.6l3-0.2
		l0.4-6.2c0-0.1,0.1-0.2,0.1-0.3s0.2-0.1,0.3-0.1h0.8v6.7h5.5v1.2h-5.5v11.8c0,0.5,0.1,0.9,0.2,1.2s0.3,0.6,0.5,0.9
		c0.2,0.2,0.5,0.4,0.8,0.5c0.3,0.1,0.6,0.2,0.9,0.2c0.4,0,0.8-0.1,1.1-0.2c0.3-0.1,0.6-0.3,0.8-0.4c0.2-0.1,0.4-0.3,0.5-0.4
		c0.1-0.1,0.3-0.2,0.3-0.2c0.1,0,0.2,0.1,0.3,0.2l0.5,0.7c-0.4,0.5-1,0.9-1.7,1.2C392.7,33.7,392,33.9,391.3,33.9z"/>
	<path d="M401,10.1c0,0.2,0,0.4-0.1,0.6c-0.1,0.2-0.2,0.3-0.3,0.5c-0.1,0.1-0.3,0.3-0.5,0.3c-0.2,0.1-0.4,0.1-0.6,0.1
		s-0.4,0-0.6-0.1c-0.2-0.1-0.4-0.2-0.5-0.3c-0.1-0.1-0.3-0.3-0.3-0.5c-0.1-0.2-0.1-0.4-0.1-0.6s0-0.4,0.1-0.6s0.2-0.4,0.3-0.5
		c0.1-0.1,0.3-0.3,0.5-0.3c0.2-0.1,0.4-0.1,0.6-0.1s0.4,0,0.6,0.1c0.2,0.1,0.4,0.2,0.5,0.3c0.1,0.1,0.3,0.3,0.3,0.5
		C400.9,9.7,401,9.9,401,10.1z M400.2,16.1v17.5h-1.7V16.1H400.2z"/>
	<path d="M412.2,33.6h-1.5l-7.4-17.5h1.3c0.2,0,0.3,0,0.4,0.1s0.2,0.2,0.2,0.3l5.8,13.8c0.1,0.3,0.2,0.5,0.3,0.8
		c0.1,0.2,0.1,0.5,0.2,0.7c0.1-0.2,0.1-0.5,0.2-0.7s0.1-0.5,0.3-0.8l5.8-13.8c0.1-0.1,0.1-0.2,0.2-0.3c0.1-0.1,0.2-0.1,0.4-0.1h1.3
		L412.2,33.6z"/>
	<path d="M433.3,33.6c-0.4,0-0.6-0.2-0.6-0.5l-0.2-2.2c-0.5,0.5-1,0.9-1.4,1.3s-1,0.7-1.5,0.9c-0.5,0.3-1.1,0.5-1.7,0.6
		s-1.3,0.2-2,0.2c-0.6,0-1.2-0.1-1.7-0.3s-1.1-0.4-1.5-0.8s-0.8-0.8-1-1.4c-0.3-0.6-0.4-1.2-0.4-2c0-0.7,0.2-1.4,0.6-2.1
		c0.4-0.6,1.1-1.2,2-1.6c0.9-0.5,2-0.8,3.5-1.1c1.4-0.3,3.1-0.4,5.1-0.5v-1.8c0-1.6-0.3-2.9-1-3.7c-0.7-0.9-1.7-1.3-3.1-1.3
		c-0.8,0-1.6,0.1-2.1,0.4c-0.6,0.2-1.1,0.5-1.5,0.8s-0.7,0.5-1,0.8c-0.3,0.2-0.5,0.4-0.6,0.4c-0.2,0-0.4-0.1-0.5-0.3l-0.3-0.5
		c0.9-0.9,1.9-1.6,2.9-2.1c1-0.5,2.1-0.7,3.4-0.7c0.9,0,1.8,0.1,2.5,0.4c0.7,0.3,1.3,0.7,1.7,1.3c0.5,0.6,0.8,1.2,1,2
		c0.2,0.8,0.4,1.7,0.4,2.6v11.4H433.3z M426.3,32.7c0.7,0,1.3-0.1,1.9-0.2c0.6-0.1,1.1-0.4,1.6-0.6s0.9-0.6,1.4-0.9
		c0.4-0.4,0.8-0.8,1.2-1.2v-4.5c-1.7,0-3.1,0.2-4.3,0.4c-1.2,0.2-2.2,0.5-3,0.8c-0.8,0.4-1.4,0.8-1.7,1.3c-0.4,0.5-0.6,1-0.6,1.7
		c0,0.6,0.1,1.1,0.3,1.5c0.2,0.4,0.4,0.8,0.8,1.1c0.3,0.3,0.7,0.5,1.1,0.6C425.4,32.6,425.8,32.7,426.3,32.7z"/>
	<path d="M443.1,33.9c-1.2,0-2.1-0.3-2.8-1c-0.7-0.7-1-1.7-1-3V17.9h-2.5c-0.1,0-0.2,0-0.3-0.1c-0.1-0.1-0.1-0.2-0.1-0.3v-0.6l3-0.2
		l0.4-6.2c0-0.1,0.1-0.2,0.1-0.3s0.2-0.1,0.3-0.1h0.8v6.7h5.5v1.2H441v11.8c0,0.5,0.1,0.9,0.2,1.2s0.3,0.6,0.5,0.9
		c0.2,0.2,0.5,0.4,0.8,0.5c0.3,0.1,0.6,0.2,0.9,0.2c0.4,0,0.8-0.1,1.1-0.2c0.3-0.1,0.6-0.3,0.8-0.4c0.2-0.1,0.4-0.3,0.5-0.4
		c0.1-0.1,0.3-0.2,0.3-0.2c0.1,0,0.2,0.1,0.3,0.2l0.5,0.7c-0.4,0.5-1,0.9-1.7,1.2C444.6,33.7,443.9,33.9,443.1,33.9z"/>
	<path d="M456.3,15.8c1,0,1.9,0.2,2.7,0.5c0.8,0.3,1.6,0.8,2.2,1.5c0.6,0.6,1.1,1.4,1.4,2.4c0.3,0.9,0.5,2,0.5,3.3
		c0,0.3,0,0.4-0.1,0.5c-0.1,0.1-0.2,0.1-0.4,0.1h-12.6v0.3c0,1.3,0.2,2.5,0.5,3.5c0.3,1,0.7,1.8,1.3,2.5s1.2,1.2,2,1.5
		c0.8,0.3,1.7,0.5,2.7,0.5c0.9,0,1.6-0.1,2.3-0.3c0.6-0.2,1.2-0.4,1.6-0.6s0.8-0.5,1-0.6c0.3-0.2,0.4-0.3,0.6-0.3
		c0.2,0,0.3,0.1,0.4,0.2l0.5,0.6c-0.3,0.4-0.7,0.7-1.1,1c-0.5,0.3-1,0.6-1.5,0.8s-1.2,0.4-1.8,0.5c-0.6,0.1-1.3,0.2-2,0.2
		c-1.2,0-2.3-0.2-3.3-0.6c-1-0.4-1.8-1-2.5-1.8c-0.7-0.8-1.2-1.8-1.6-2.9c-0.4-1.2-0.6-2.5-0.6-4c0-1.3,0.2-2.4,0.5-3.5
		c0.4-1.1,0.9-2,1.5-2.7c0.7-0.8,1.5-1.4,2.5-1.8C453.9,16.1,455,15.8,456.3,15.8z M456.3,17.1c-0.9,0-1.7,0.1-2.4,0.4
		s-1.3,0.7-1.8,1.2c-0.5,0.5-0.9,1.2-1.3,1.9c-0.3,0.7-0.5,1.6-0.6,2.5h11.5c0-0.9-0.1-1.8-0.4-2.5c-0.3-0.7-0.6-1.4-1.1-1.9
		c-0.5-0.5-1-0.9-1.7-1.2S457.1,17.1,456.3,17.1z"/>
</g>
<g>
	<path fill="#BCBCBB" d="M143.3,35.7l6.6-13.4l-6.6-13.4l9.9,13.4L143.3,35.7z"/>
</g>
<g>
	<path fill="#BCBCBB" d="M302.1,35.7l6.6-13.4l-6.6-13.4l9.9,13.4L302.1,35.7z"/>
</g>
</svg>
