<?xml version="1.0" encoding="utf-8"?>
<!-- Generator: Adobe Illustrator 18.1.0, SVG Export Plug-In . SVG Version: 6.00 Build 0)  -->
<!DOCTYPE svg PUBLIC "-//W3C//DTD SVG 1.1//EN" "http://www.w3.org/Graphics/SVG/1.1/DTD/svg11.dtd">
<svg version="1.1" id="Layer_1" xmlns="http://www.w3.org/2000/svg" xmlns:xlink="http://www.w3.org/1999/xlink" x="0px" y="0px"
	 viewBox="0 0 268 268" enable-background="new 0 0 268 268" xml:space="preserve">
<g>
	<path fill="#1D1D1B" d="M37.5,126.6h-8.1v4.7h7.7v4.7h-7.7v5.4h8.1v4.7H23.7v-24.3h13.8V126.6z"/>
	<path fill="#1D1D1B" d="M38.3,146.2l3.9-24.3h4.7l6.1,14.6l6.1-14.6h4.7l3.9,24.3H62L60,131.6l-6.1,14.5h-2l-6.1-14.5l-1.9,14.5
		H38.3z"/>
	<path fill="#1D1D1B" d="M82.9,126.6h-8.1v4.7h7.7v4.7h-7.7v5.4h8.1v4.7H69.1v-24.3h13.8V126.6z"/>
	<path fill="#1D1D1B" d="M93.7,121.8c3.1,0,5,1,6.2,2.1c1,1,2.1,2.7,2.1,5.4c0,1.5-0.3,3.4-1.9,5c-0.8,0.8-2,1.5-3.4,1.9l7.5,10
		h-6.9l-6.6-9.6v9.6h-5.6v-24.3H93.7z M90.8,132.9h1.3c1,0,2.4-0.1,3.4-1.1c0.4-0.4,0.9-1.2,0.9-2.4c0-1.4-0.7-2.1-1.1-2.5
		c-0.9-0.7-2.4-0.8-3.1-0.8h-1.3V132.9z"/>
	<path fill="#1D1D1B" d="M115.8,132.9h12.1v0.3c0,3-1.1,7.4-3.8,10.3c-2.7,2.8-5.8,3.3-8.7,3.3c-2.9,0-6.1-0.5-8.9-3.4
		c-1.4-1.5-3.6-4.4-3.6-9.3c0-4,1.5-7.1,3.5-9.2c3-3.1,6.7-3.5,9.6-3.5c2,0,4.6,0.3,6.8,1.8c1.6,1.1,3.1,2.8,3.9,4.3l-5.1,2.7
		c-0.5-0.9-1.2-1.9-2.2-2.6c-1.1-0.8-2.3-1.2-3.7-1.2c-2.2,0-3.9,0.7-5,2c-1.3,1.4-2.1,3.5-2.1,5.8c0,2.8,1,4.6,2,5.6
		c1.4,1.5,3.1,1.9,4.9,1.9c2.4,0,3.7-0.8,4.2-1.3c0.2-0.1,1.3-1.1,1.8-2.9h-5.9V132.9z"/>
	<path fill="#1D1D1B" d="M143.1,126.6h-8.1v4.7h7.7v4.7h-7.7v5.4h8.1v4.7h-13.8v-24.3h13.8V126.6z"/>
	<path fill="#1D1D1B" d="M158,141.6h-9.2l-2.3,4.6h-6.1l12.8-24.3h5.2l6.5,24.3h-5.8L158,141.6z M157,137.3l-2-8.6l-4.1,8.6H157z"/>
	<path fill="#1D1D1B" d="M175.2,121.8c2.5,0,6.6,0.4,9.3,3.1c1.6,1.6,2.9,4.3,2.9,8.1c0,5.6-2.6,8.6-3.8,9.8
		c-2.8,2.7-6.6,3.4-11.1,3.4h-7.5l3-24.3H175.2z M171.3,141.4h1.7c1.6,0,4.2-0.1,6.2-1.9c1.4-1.2,2.4-3.5,2.4-6.4
		c0-2.2-0.7-3.9-1.8-4.9c-1.2-1.1-3.2-1.7-5.1-1.7h-1.7L171.3,141.4z"/>
	<path fill="#1D1D1B" d="M201.6,141.6h-9.2l-2.3,4.6H184l12.8-24.3h5.2l6.5,24.3h-5.8L201.6,141.6z M200.6,137.3l-2-8.6l-4.1,8.6
		H200.6z"/>
	<path fill="#1D1D1B" d="M219.9,121.8c1.7,0,4.3,0.1,6.3,2c1.1,1.1,2,2.7,2,5.2c0,2.7-0.9,5-2.4,6.4c-1.1,1-3.2,2.2-7.2,2.2h-3.2
		l-1.1,8.5h-5.6l3-24.3H219.9z M215.9,133h2c1.2,0,2.6-0.1,3.5-1.1c0.8-0.8,0.9-1.9,0.9-2.5c0-0.7-0.1-1.5-0.8-2.1
		c-0.9-0.8-2.3-0.9-3.2-0.9h-1.7L215.9,133z"/>
	<path fill="#1D1D1B" d="M238.4,126.6l-2.4,19.6h-5.6l2.4-19.6h-5.3l0.6-4.7h16.2l-0.6,4.7H238.4z"/>
</g>
</svg>
