<?xml version="1.0" encoding="utf-8"?>
<!-- Generator: Adobe Illustrator 18.1.0, SVG Export Plug-In . SVG Version: 6.00 Build 0)  -->
<!DOCTYPE svg PUBLIC "-//W3C//DTD SVG 1.1//EN" "http://www.w3.org/Graphics/SVG/1.1/DTD/svg11.dtd">
<svg version="1.1" id="Layer_1" xmlns="http://www.w3.org/2000/svg" xmlns:xlink="http://www.w3.org/1999/xlink" x="0px" y="0px"
	 viewBox="0 0 268 268" enable-background="new 0 0 268 268" xml:space="preserve">
<g>
	<polygon fill-rule="evenodd" clip-rule="evenodd" fill="#1D1D1B" points="111.5,122.3 113.7,122.3 113.7,112.7 113.8,112.7 
		116.9,122.3 119.1,122.3 122.3,112.7 122.3,112.7 122.3,122.3 124.5,122.3 124.5,110.6 120.8,110.6 118,119.5 118,119.5 
		115.2,110.6 111.5,110.6 111.5,122.3 	"/>
	<polygon fill-rule="evenodd" clip-rule="evenodd" fill="#1D1D1B" points="132.7,122.3 132.7,110.6 130.3,110.6 130.3,122.3 
		132.7,122.3 	"/>
	<polygon fill-rule="evenodd" clip-rule="evenodd" fill="#1D1D1B" points="138.5,122.3 140.7,122.3 140.7,113.6 140.7,113.6 
		145.2,122.3 148,122.3 148,110.6 145.8,110.6 145.8,119.3 145.8,119.3 141.3,110.6 138.5,110.6 138.5,122.3 	"/>
	<polygon fill-rule="evenodd" clip-rule="evenodd" fill="#1D1D1B" points="156.2,122.3 156.2,110.6 153.9,110.6 153.9,122.3 
		156.2,122.3 	"/>
	<path fill-rule="evenodd" clip-rule="evenodd" fill="#1D1D1B" d="M167.9,110.8c-0.9-0.3-1.8-0.4-2.8-0.4c-2.1,0-4.1,1-4.1,3.6
		c0,3.9,5.1,2.9,5.1,5.2c0,1.1-1.2,1.5-2.1,1.5c-0.9,0-1.8-0.3-2.6-0.7l-0.2,2.1c1.2,0.3,1.7,0.5,3,0.5c2.4,0,4.4-1,4.4-3.5
		c0-3.9-5.1-3.1-5.1-5.1c0-1.3,1-1.6,1.8-1.6c0.8,0,1.6,0.2,2.4,0.5L167.9,110.8L167.9,110.8z"/>
	<polygon fill-rule="evenodd" clip-rule="evenodd" fill="#1D1D1B" points="174.7,122.3 177.1,122.3 177.1,112.5 180.4,112.5 
		180.4,110.6 171.4,110.6 171.4,112.5 174.7,112.5 174.7,122.3 	"/>
	<path fill-rule="evenodd" clip-rule="evenodd" fill="#1D1D1B" d="M186.3,112.5h0.8c1.2,0,2.5,0.1,2.5,1.5c0,1.5-1.3,1.6-2.5,1.6
		h-0.8V112.5L186.3,112.5z M184,122.3h2.3v-4.8h0.8c1,0,1.3,0.3,1.6,1.2l1.4,3.6h2.6l-1.9-4.6c-0.2-0.5-0.6-1.2-1.2-1.2v0
		c1.5-0.2,2.4-1.3,2.4-2.7c0-3.2-3-3.2-5.5-3.2H184V122.3L184,122.3z"/>
	<polygon fill-rule="evenodd" clip-rule="evenodd" fill="#1D1D1B" points="199.1,122.3 201.4,122.3 201.4,117.7 205.6,110.6 
		203.1,110.6 200.3,115.5 197.5,110.6 194.8,110.6 199.1,117.7 199.1,122.3 	"/>
	<path fill-rule="evenodd" clip-rule="evenodd" fill="#1D1D1B" d="M220.1,116.4c0,3.6,2,6.1,5.7,6.1c3.7,0,5.7-2.5,5.7-6.1
		c0-3.5-2-6-5.7-6C222.1,110.4,220.1,112.8,220.1,116.4L220.1,116.4z M222.5,116.4c0-2.1,1-4.2,3.3-4.2c2.3,0,3.3,2.1,3.3,4.2
		c0,2.1-0.9,4.2-3.3,4.2C223.4,120.6,222.5,118.5,222.5,116.4L222.5,116.4z"/>
	<polygon fill-rule="evenodd" clip-rule="evenodd" fill="#1D1D1B" points="235.7,122.3 238,122.3 238,117.2 242,117.2 242,115.3 
		238,115.3 238,112.5 242.2,112.5 242.2,110.6 235.7,110.6 235.7,122.3 	"/>
	<polygon fill-rule="evenodd" clip-rule="evenodd" fill="#1D1D1B" points="111.5,145.4 114.5,145.4 114.5,132.7 114.5,132.6 
		118.7,145.4 121.7,145.4 125.8,132.6 125.9,132.6 125.9,145.4 128.9,145.4 128.9,129.9 123.9,129.9 120.2,141.7 120.2,141.7 
		116.5,129.9 111.5,129.9 111.5,145.4 	"/>
	<path fill-rule="evenodd" clip-rule="evenodd" fill="#1D1D1B" d="M141.3,139.4h-4.5l2.2-6.4h0L141.3,139.4L141.3,139.4z
		 M131.3,145.4h3.2l1.4-3.6h6.3l1.3,3.6h3.4l-6.1-15.5h-3.5L131.3,145.4L131.3,145.4z"/>
	<polygon fill-rule="evenodd" clip-rule="evenodd" fill="#1D1D1B" points="149.1,145.4 152.1,145.4 152.1,133.8 152.1,133.8 
		158.1,145.4 161.9,145.4 161.9,129.9 158.9,129.9 158.9,141.5 158.8,141.5 152.9,129.9 149.1,129.9 149.1,145.4 	"/>
	<path fill-rule="evenodd" clip-rule="evenodd" fill="#1D1D1B" d="M168.9,132.4h1.1c1.6,0,3,0.6,3,2.4c0,1.8-1.4,2.3-3,2.3h-1.1
		V132.4L168.9,132.4z M165.8,145.4h3.1v-5.9h1.3c3.3,0,6-1.3,6-4.9c0-3.7-3.1-4.7-6.5-4.7h-3.9V145.4L165.8,145.4z"/>
	<path fill-rule="evenodd" clip-rule="evenodd" fill="#1D1D1B" d="M178,137.6c0,4.8,2.6,8.1,7.6,8.1c4.9,0,7.6-3.4,7.6-8.1
		c0-4.7-2.7-8-7.6-8C180.7,129.6,178,132.9,178,137.6L178,137.6z M181.3,137.6c0-2.7,1.3-5.5,4.4-5.5c3.1,0,4.4,2.8,4.4,5.5
		c0,2.8-1.2,5.6-4.4,5.6C182.4,143.3,181.3,140.4,181.3,137.6L181.3,137.6z"/>
	<polygon fill-rule="evenodd" clip-rule="evenodd" fill="#1D1D1B" points="198.5,145.4 202.5,145.4 205.3,133 205.3,133 
		208.1,145.4 212.1,145.4 216.2,129.9 213.2,129.9 210.3,142.3 210.2,142.3 207.5,129.9 203.3,129.9 200.6,142.3 200.6,142.3 
		197.7,129.9 194.4,129.9 198.5,145.4 	"/>
	<polygon fill-rule="evenodd" clip-rule="evenodd" fill="#1D1D1B" points="218.6,145.4 227.8,145.4 227.8,143 221.7,143 
		221.7,138.6 227.3,138.6 227.3,136.2 221.7,136.2 221.7,132.4 227.8,132.4 227.8,129.9 218.6,129.9 218.6,145.4 	"/>
	<path fill-rule="evenodd" clip-rule="evenodd" fill="#1D1D1B" d="M234.1,132.4h1c1.6,0,3.3,0.2,3.3,2c0,1.9-1.8,2.2-3.3,2.2h-1
		V132.4L234.1,132.4z M231,145.4h3.1V139h1c1.3,0,1.7,0.4,2.2,1.6l1.9,4.9h3.5l-2.5-6.1c-0.3-0.7-0.8-1.5-1.6-1.6v0
		c2-0.3,3.2-1.8,3.2-3.6c0-4.3-4-4.2-7.3-4.2H231V145.4L231,145.4z"/>
	<path fill-rule="evenodd" clip-rule="evenodd" fill="#1D1D1B" d="M54.8,92.4c-16.4,21.3-19.4,51.7-3.8,69.9
		c-10-24-0.8-49.6,11-65.5c1.7-2.2,1.5-4.7-0.5-6.1C58.1,88.3,55.5,91.5,54.8,92.4L54.8,92.4z"/>
	<path fill-rule="evenodd" clip-rule="evenodd" fill="#1D1D1B" d="M71.9,112.7c-13.8,21.2-15.4,48.7,0.1,65.9
		c1.9,2.1,4.2,3.9,6.9,5.7c0.4,0.3,2.4,1.2,4.2,1.8c3.9,1.2,7.2,0.4,8.9-1c-3,0.4-6.7,0.6-11.1-2.9c-16.6-13.3-15.5-44.4-1.3-65.5
		c0.2-0.2,1.9-3.7-1.2-5.8C75.6,109.2,73.2,110.8,71.9,112.7L71.9,112.7z"/>
	<path fill-rule="evenodd" clip-rule="evenodd" fill="#1D1D1B" d="M69.4,93.5c-17.4,20.2-28.9,55.6-5.4,81.5
		c-11.2-20.4-10.8-46.9,13-76c1.4-2,1.5-4.6-0.8-6.5C73.7,90.7,71,91.8,69.4,93.5L69.4,93.5z"/>
	<path fill-rule="evenodd" clip-rule="evenodd" fill="#1D1D1B" d="M42.1,109.4c0,0-1.6,4.5-1.8,5.4c-14.8-6.7-14.6,2.3-10.4,12
		C24.6,122.1,17.6,101.8,42.1,109.4L42.1,109.4z"/>
	<path fill-rule="evenodd" clip-rule="evenodd" fill="#1D1D1B" d="M77,86.2c0-3.2,2.6-5.9,5.9-5.9c3.2,0,5.9,2.6,5.9,5.9
		c0,3.2-2.6,5.9-5.9,5.9C79.6,92.1,77,89.5,77,86.2L77,86.2z"/>
	<path fill-rule="evenodd" clip-rule="evenodd" fill="#1D1D1B" d="M79.6,123.4c40.8,26.6,23.3,64.1,7.1,58.7
		c-3.4-1.1-5.5-3.9-5.5-4.7c1.8,1.7,3.8,2.9,5.4,3.3c17.7,4.8,21.4-33.9-9.7-51.3C77.8,126.8,79.1,124.5,79.6,123.4L79.6,123.4z"/>
</g>
</svg>
