<?xml version="1.0" encoding="utf-8"?>
<!-- Generator: Adobe Illustrator 18.1.0, SVG Export Plug-In . SVG Version: 6.00 Build 0)  -->
<!DOCTYPE svg PUBLIC "-//W3C//DTD SVG 1.1//EN" "http://www.w3.org/Graphics/SVG/1.1/DTD/svg11.dtd">
<svg version="1.1" id="Layer_1" xmlns="http://www.w3.org/2000/svg" xmlns:xlink="http://www.w3.org/1999/xlink" x="0px" y="0px"
	 viewBox="0 0 268 268" enable-background="new 0 0 268 268" xml:space="preserve">
<g>
	<g>
		<path fill="#1D1D1B" d="M166.2,61.2c-42.2,0-76.6,34.3-76.6,76.6h5.6c0-39.1,31.8-71,71-71c39.1,0,71,31.8,71,71h5.6
			C242.7,95.6,208.4,61.2,166.2,61.2"/>
		<path fill="#1D1D1B" d="M166.2,71.6c-36.5,0-66.2,29.7-66.2,66.2h5.6c0-33.4,27.2-60.6,60.6-60.6c33.4,0,60.6,27.2,60.6,60.6h5.6
			C232.3,101.3,202.6,71.6,166.2,71.6"/>
		<path fill="#1D1D1B" d="M166.2,82c-30.8,0-55.8,25-55.8,55.8h5.6c0-27.7,22.5-50.2,50.2-50.2c27.7,0,50.2,22.5,50.2,50.2h5.6
			C221.9,107.1,196.9,82,166.2,82"/>
		<path fill="#1D1D1B" d="M166.2,92.4c-25,0-45.4,20.4-45.4,45.4h5.6c0-21.9,17.8-39.8,39.8-39.8c21.9,0,39.8,17.8,39.8,39.8h5.6
			C211.5,112.8,191.2,92.4,166.2,92.4"/>
		<path fill="#1D1D1B" d="M166.2,102.8c-19.3,0-35,15.7-35,35h5.6c0-16.2,13.2-29.4,29.4-29.4c16.2,0,29.4,13.2,29.4,29.4h5.6
			C201.1,118.5,185.4,102.8,166.2,102.8"/>
		<path d="M28,169.5c0,5.4,4.1,6,6.2,6c0.7,0,1.1-0.1,1.1-0.1v-2.7c0,0-0.3,0.1-0.7,0.1c-1.2,0-3.4-0.4-3.4-3.6v-7.4H35v-2.5h-3.9
			v-4.4h-3v4.4h-2.2v2.5H28V169.5z"/>
		<path d="M37.8,156.2v19.2h3.1v-7.6c0-0.8,0.1-1.5,0.3-2.1c0.7-2.3,2.6-4,5.1-4c2.6,0,3.1,1.8,3.1,4.1v7.6c0,1.4,0.6,2,2,2h3v-2.6
			h-1.3c-0.4,0-0.7-0.2-0.7-0.7v-7c0-4.1-1.7-6.2-5.5-6.2c-3.2,0-5.3,2-6,3.6h-0.1c0,0,0.1-0.6,0.1-1.3v-6.3c0-1.4-0.6-2-2-2h-3.1
			v2.7h1.3C37.5,155.5,37.8,155.7,37.8,156.2"/>
		<path d="M64.2,175.8c3.8,0,6.2-2.4,6.2-2.4l-1.3-2.2c0,0-1.9,1.9-4.7,1.9c-2.9,0-5.4-1.9-5.6-5.4h11.8c0,0,0.1-0.9,0.1-1.3
			c0-4.2-2.4-7.6-7-7.6c-4.6,0-8.1,3.3-8.1,8.5C55.6,172.1,59.1,175.8,64.2,175.8 M63.7,161.3c2,0,3.7,1.4,3.8,4.1h-8.6
			C59.4,162.7,61.3,161.3,63.7,161.3"/>
		<path d="M99.2,163.2c0.3-0.6,0.5-1.3,0.7-1.9c0,0.6,0,1.3,0.1,1.8l0.8,10.1c0.1,1.5,0.6,2.4,2.4,2.4h3.9v-4.1h-1.3
			c-0.2,0-0.4-0.1-0.4-0.4l-1.5-18.7h-4.8l-4.7,11c-0.3,0.8-0.7,1.7-0.9,2.4c-0.2-0.6-0.6-1.6-0.9-2.4l-4.7-11h-4.8l-1.5,18.7
			c0,0.4-0.2,0.4-0.4,0.4h-1.3v4.1h3.9c1.6,0,2.3-0.7,2.4-2.4l0.7-10.1c0-0.6,0.1-1.3,0.1-1.9c0.2,0.7,0.5,1.4,0.7,1.9l3.8,8.5h3.7
			L99.2,163.2z"/>
		<path d="M116.9,158.4c-5.2,0-9.2,3.8-9.2,8.8c0,5,3.9,8.8,9.2,8.8c5.3,0,9.2-3.8,9.2-8.8C126.1,162.2,122.2,158.4,116.9,158.4
			 M116.9,172c-2.6,0-4.5-2.1-4.5-4.8s2-4.8,4.5-4.8c2.6,0,4.6,2.1,4.6,4.8S119.5,172,116.9,172"/>
		<path d="M137.6,162.7c1.6,0,2.3,0.9,2.3,3v7.5c0,1.7,0.8,2.5,2.4,2.5h4.1v-4H145c-0.3,0-0.4-0.1-0.4-0.4v-6.4c0-4.3-2-6.5-6-6.5
			c-3,0-4.6,1.6-5.5,2.7v-0.2c0-1.3-0.9-2.1-2.4-2.1h-4v4h1.6c0.3,0,0.4,0.1,0.4,0.4v12.4h4.6v-7.7c0-0.8,0.1-1.5,0.3-2.1
			C134.1,163.9,135.7,162.7,137.6,162.7"/>
		<path d="M155.9,176c4.1,0,6.6-2.4,6.7-2.5l0.2-0.2l-2-3.3l-0.3,0.2c0,0-1.9,1.7-4.4,1.7c-2.4,0-4.2-1.5-4.6-3.8h11.2l0-0.3
			c0,0,0.1-1,0.1-1.5c0-4.8-3-8-7.5-8c-5,0-8.5,3.6-8.5,8.8C146.9,172.3,150.7,176,155.9,176 M151.8,164.8c0.5-1.7,1.8-2.7,3.6-2.7
			c1.5,0,2.6,1.1,2.8,2.7H151.8z"/>
		<path d="M167.3,178.4c-1.2,0-2.1-1-2.1-1l-0.3-0.3l-1.9,3.4l0.1,0.1c0.1,0.1,1.7,1.7,4.3,1.7c2.8,0,5-1.6,6.1-4.4l5.8-14.7
			c0.1-0.3,0.2-0.4,0.7-0.4h0.8v-4h-3c-1.3,0-2,0.5-2.4,1.7l-2.8,8.1c-0.1,0.3-0.2,0.7-0.3,1.1c-0.1-0.4-0.2-0.8-0.3-1.1l-3.2-8.1
			c-0.5-1.2-1.1-1.7-2.4-1.7h-3v4h0.8c0.4,0,0.5,0,0.6,0.4l5.4,12.1l-0.5,1.1C169.2,177.7,168.4,178.4,167.3,178.4"/>
		<path d="M45.1,199.8l-6.8-18.6h-4.8l-6.8,18.6c-0.1,0.4-0.3,0.5-0.7,0.5h-0.8v4.1h2.8c1.7,0,2.4-0.5,2.9-2l1.3-3.8h7.3l1.3,3.8
			c0.6,1.6,1.2,2,2.9,2h2.8v-4.1h-0.8C45.4,200.3,45.3,200.2,45.1,199.8 M36,186.9c0.2,0.7,0.4,1.7,0.7,2.4l1.8,5.3h-5l1.8-5.3
			C35.5,188.5,35.8,187.6,36,186.9"/>
		<path d="M63.7,200v-16.4c0-1.6-0.8-2.4-2.4-2.4h-4.1v4h1.6c0.3,0,0.4,0.1,0.4,0.4v2.9c0,0.1,0,0.2,0,0.2c-0.6-0.6-2-1.5-4.4-1.5
			c-4.5,0-7.7,3.6-7.7,8.8c0,5.3,3,8.8,7.5,8.8c2.7,0,4.2-1.3,4.9-2.1c0.1,0.7,0.5,1.8,2.3,1.8h4v-4h-1.5
			C63.9,200.4,63.7,200.3,63.7,200 M55.4,200.8c-2.3,0-3.7-1.9-3.7-4.8c0-2.9,1.5-4.8,3.8-4.8c2.6,0,3.7,2.4,3.7,4.7
			C59.2,199.5,57.2,200.8,55.4,200.8"/>
		<path d="M77.4,189.3l-3.1,8.6c-0.1,0.4-0.2,0.8-0.3,1.2c-0.1-0.4-0.2-0.9-0.4-1.3l-3.1-8.6c-0.5-1.2-1.2-1.7-2.7-1.7h-2.6v4h0.6
			c0.4,0,0.5,0.1,0.6,0.4l4.7,12.4h5.2l4.7-12.4c0.1-0.3,0.3-0.4,0.6-0.4h0.7v-4H80C78.6,187.5,77.8,188,77.4,189.3"/>
		<path d="M90.2,200v-10c0-1.7-0.8-2.5-2.4-2.5h-4.1v4h1.6c0.3,0,0.4,0.1,0.4,0.4v10c0,1.7,0.8,2.4,2.4,2.4h4.1v-4h-1.6
			C90.3,200.4,90.2,200.3,90.2,200"/>
		<rect x="85.8" y="181.2" width="4.1" height="4.3"/>
		<path d="M106.7,198.5c0,0-2,2.1-4.6,2.1c-2.4,0-4.8-1.5-4.8-4.7c0-2.8,1.9-4.8,4.5-4.8c0.8,0,2.1,0.3,2.1,1v1.2h4.1v-2.2
			c0-2.9-3.7-4-6.2-4c-6,0-9.2,4.4-9.2,8.8c0,5.1,3.8,8.8,9.1,8.8c4.5,0,7-2.9,7.1-3l0.1-0.2l-2-3.3L106.7,198.5z"/>
		<path d="M117.9,187.2c-5,0-8.5,3.6-8.5,8.8c0,5.1,3.8,8.8,9,8.8c4.1,0,6.6-2.4,6.7-2.5l0.2-0.2l-2-3.3L123,199
			c0,0-1.9,1.7-4.4,1.7c-2.4,0-4.2-1.5-4.6-3.8h11.2l0-0.3c0,0,0.1-1,0.1-1.5C125.4,190.4,122.4,187.2,117.9,187.2 M117.9,190.8
			c1.5,0,2.6,1.1,2.8,2.7h-6.4C114.7,191.8,116,190.8,117.9,190.8"/>
		<path d="M144.3,190.4c-2.1-0.9-3.9-1.7-3.9-3.1c0-1.3,1.3-2.1,3-2.1c1.3,0,2.7,0.6,2.7,1.5v1.3h4.3v-2.4c0-3.5-4.3-4.7-7-4.7
			c-4.5,0-7.8,2.8-7.8,6.7c0,4.2,3.7,5.9,6.7,7.3c2.1,1,4,1.8,4,3.3c0,1.7-1.5,2.4-3,2.4c-3,0-5.3-2.6-5.3-2.6l-0.2-0.3l-2.7,3.4
			l0.1,0.2c0.1,0.1,2.9,3.6,8,3.6c4.6,0,7.8-2.9,7.8-7C151.1,193.3,147.4,191.7,144.3,190.4"/>
		<path d="M160.9,187.2c-5,0-8.5,3.6-8.5,8.8c0,5.1,3.8,8.8,9,8.8c4.1,0,6.6-2.4,6.7-2.5l0.2-0.2l-2-3.3l-0.3,0.2
			c0,0-1.9,1.7-4.4,1.7c-2.4,0-4.2-1.5-4.6-3.8h11.2l0-0.3c0,0,0.1-1,0.1-1.5C168.4,190.4,165.4,187.2,160.9,187.2 M160.9,190.8
			c1.5,0,2.6,1.1,2.8,2.7h-6.4C157.8,191.8,159.1,190.8,160.9,190.8"/>
		<path d="M180.6,187.3c-2,0-3.8,1.2-4.9,3.1v-0.6c0-1.5-0.8-2.3-2.5-2.3h-4v4h1.6c0.3,0,0.4,0.1,0.4,0.4v12.4h4.6v-6.7
			c0-0.9,0.1-1.8,0.3-2.6c0.7-2.4,2.6-3.2,4.2-3.2c0.5,0,0.9,0.1,0.9,0.1l0.3,0v-4.6l-0.2,0C181.3,187.4,180.9,187.3,180.6,187.3"/>
		<path d="M194.8,189.3l-3.1,8.6c-0.1,0.4-0.2,0.8-0.3,1.2c-0.1-0.4-0.2-0.9-0.4-1.3l-3.1-8.6c-0.5-1.2-1.2-1.7-2.7-1.7h-2.6v4h0.6
			c0.4,0,0.5,0.1,0.6,0.4l4.7,12.4h5.2l4.7-12.4c0.1-0.3,0.3-0.4,0.6-0.4h0.7v-4h-2.4C196,187.5,195.2,188,194.8,189.3"/>
		<rect x="203.1" y="181.2" width="4.1" height="4.3"/>
		<path d="M207.5,200v-10c0-1.7-0.8-2.5-2.4-2.5H201v4h1.6c0.3,0,0.4,0.1,0.4,0.4v10c0,1.7,0.8,2.4,2.4,2.4h4.1v-4h-1.6
			C207.7,200.4,207.5,200.3,207.5,200"/>
		<path d="M224.1,198.5c0,0-2,2.1-4.6,2.1c-2.4,0-4.8-1.5-4.8-4.7c0-2.8,1.9-4.8,4.5-4.8c0.8,0,2.1,0.3,2.1,1v1.2h4.1v-2.2
			c0-2.9-3.7-4-6.2-4c-6,0-9.2,4.4-9.2,8.8c0,5.1,3.8,8.8,9.1,8.8c4.5,0,7-2.9,7.1-3l0.1-0.2l-2-3.3L224.1,198.5z"/>
		<path d="M242.6,196.7c0,0,0.1-1,0.1-1.5c0-4.8-3-8-7.5-8c-5,0-8.5,3.6-8.5,8.8c0,5.1,3.8,8.8,9,8.8c4.1,0,6.6-2.4,6.7-2.5l0.2-0.2
			l-2-3.3l-0.3,0.2c0,0-1.9,1.7-4.4,1.7c-2.4,0-4.2-1.5-4.6-3.8h11.2L242.6,196.7z M235.2,190.8c1.5,0,2.6,1.1,2.8,2.7h-6.4
			C232.1,191.8,233.4,190.8,235.2,190.8"/>
	</g>
	<g>
		<defs>
			<path id="SVGID_1_" d="M25.3,137.8h5.6c0-27.7,22.5-50.2,50.2-50.2c8.3,0,16,2,22.9,5.6c1.1-1.5,2.3-3,3.5-4.5
				C99.6,84.5,90.6,82,81,82C50.3,82,25.3,107.1,25.3,137.8"/>
		</defs>
		<clipPath id="SVGID_2_">
			<use xlink:href="#SVGID_1_"  overflow="visible"/>
		</clipPath>
		<rect x="25.3" y="82" clip-path="url(#SVGID_2_)" fill="#1D1D1B" width="82.2" height="55.8"/>
	</g>
	<g>
		<defs>
			<path id="SVGID_3_" d="M35.7,137.8h5.6C41.3,115.9,59.1,98,81,98c6.2,0,12.2,1.5,17.4,4c0.9-1.7,1.8-3.3,2.8-4.9
				c-6.1-3.1-13-4.8-20.2-4.8C56,92.4,35.7,112.8,35.7,137.8"/>
		</defs>
		<clipPath id="SVGID_4_">
			<use xlink:href="#SVGID_3_"  overflow="visible"/>
		</clipPath>
		<rect x="35.7" y="92.4" clip-path="url(#SVGID_4_)" fill="#1D1D1B" width="65.6" height="45.4"/>
	</g>
	<g>
		<defs>
			<path id="SVGID_5_" d="M46.1,137.8h5.6c0-16.2,13.2-29.4,29.4-29.4c4.7,0,9.2,1.1,13.2,3.1c0.6-1.8,1.4-3.5,2.1-5.2
				c-4.6-2.3-9.8-3.5-15.3-3.5C61.8,102.8,46.1,118.5,46.1,137.8"/>
		</defs>
		<clipPath id="SVGID_6_">
			<use xlink:href="#SVGID_5_"  overflow="visible"/>
		</clipPath>
		<rect x="46.1" y="102.8" clip-path="url(#SVGID_6_)" fill="#1D1D1B" width="50.3" height="35"/>
	</g>
	<g>
		<defs>
			<path id="SVGID_7_" d="M56.5,137.8h5.6c0-10.4,8.5-19,19-19c3.8,0,7.3,1.1,10.2,3c0.4-1.9,0.9-3.8,1.4-5.7c-3.5-1.9-7.4-3-11.7-3
				C67.5,113.2,56.5,124.3,56.5,137.8"/>
		</defs>
		<clipPath id="SVGID_8_">
			<use xlink:href="#SVGID_7_"  overflow="visible"/>
		</clipPath>
		<rect x="56.5" y="113.2" clip-path="url(#SVGID_8_)" fill="#1D1D1B" width="36.2" height="24.6"/>
	</g>
	<g>
		<defs>
			<path id="SVGID_9_" d="M66.9,137.8h5.6c0-4.7,3.8-8.6,8.6-8.6c4.7,0,8.6,3.8,8.6,8.6v0c0-3.6,0.3-7.2,0.7-10.7
				c-2.5-2.2-5.7-3.5-9.3-3.5C73.2,123.6,66.9,130,66.9,137.8"/>
		</defs>
		<clipPath id="SVGID_10_">
			<use xlink:href="#SVGID_9_"  overflow="visible"/>
		</clipPath>
		<rect x="66.9" y="123.6" clip-path="url(#SVGID_10_)" fill="#1D1D1B" width="23.5" height="14.2"/>
	</g>
</g>
</svg>
