<svg data-name="Layer 1" xmlns="http://www.w3.org/2000/svg" viewBox="0 0 379.89 68.19">
  <path d="M126.19 36.95v-36h15.8c11.6 0 18.8 5.4 18.8 17.25 0 13.55-7.55 18.75-19.1 18.75h-15.5zm11.8-8.4h2.5c5.5 0 8.5-2.9 8.5-9.7 0-7.5-2.45-9.5-8.75-9.5h-2.25v19.2zm27.7 8.4v-36h29.35v8.4h-17.59v5.15h14.85v8.4h-14.85v5.65h18.24v8.4h-30zm69.67.11h-7.6l-.45-3.55c-2 2.3-5.2 4.4-10.85 4.4-9.2 0-17.45-6-17.45-18.5 0-11.5 7.2-19.4 18.85-19.4 8.65 0 15.6 4.5 17.05 13.35h-11.22a5.88 5.88 0 0 0-6.05-4.55c-4.65 0-6.85 4.2-6.85 10.55 0 5.1 1.6 9.75 7.55 9.75 2.4 0 5.45-1.65 6-4.15h-5.2v-7.8h16.15v19.9zm18.08-12.61v12.5h-11.75v-36h17c12 0 16 3.25 16 10.25 0 4.15-1.85 7.65-6.05 8.8 3.8 1.4 6.1 2.3 6.1 9.55 0 4.7-.15 6.3 1.25 6.3v1.1h-12a23.5 23.5 0 0 1-.6-6.3c0-4.7-.8-6.25-6.3-6.25h-3.6zm0-7.9h4.65c3.65 0 5.6-.9 5.6-3.4s-2-3.75-4.75-3.75h-5.5v7.15zm26.35 20.4v-36h29.35v8.4h-17.55v5.15h14.85v8.4h-14.85v5.65h18.25v8.4h-30.05zm35.4 0v-36h29.35v8.4h-17.55v5.15h14.85v8.4h-14.85v5.65h18.25v8.4h-30.05zm52.05-25.5a3.16 3.16 0 0 0-1.7-2.45 6.52 6.52 0 0 0-3-.65c-2.6 0-3.75.75-3.75 2 0 5.4 20.7 2.05 20.7 15.15 0 8.35-7 12.4-16.85 12.4-9.5 0-15.7-5.55-16-12.05h11.3a4.11 4.11 0 0 0 2 2.85 6.47 6.47 0 0 0 3.35.9c3 0 4.9-.95 4.9-2.65 0-5.45-20.7-1.7-20.7-15.45 0-7.65 6.6-11.5 15.6-11.5 10 0 14.55 5.1 15.4 11.4h-11.2zM18.04 44.28a9.47 9.47 0 0 0 2.3 7 9.23 9.23 0 0 0 6.9 2.58c5.61 0 8.56-3.77 8.56-7.54 0-7.45-7.36-7.17-12-7.17V27.81c4.51.37 11.41-.55 11.41-6.62 0-4.23-3.77-5.8-7.54-5.8-4.51 0-7.82 2.3-8.37 6.9H2C2.64 7.39 14.7 1.04 28.22 1.04c15.36 0 24.93 7.08 24.93 18.12 0 5.89-2.3 10.21-7.54 12.79a13.9 13.9 0 0 1 9.32 13.5c0 15.09-11.32 22.72-28.7 22.72-15.09 0-26.49-7.82-26.22-23.92h18zm44.5-24.93c0-12.51 12.6-18.31 26.59-18.31 14.72 0 24.93 7.54 24.93 17.94 0 6.26-2.48 11-8.56 13.43 6.9 2.67 10.86 7.54 10.86 15.18 0 13.06-11.59 20.61-27.87 20.61-15.18 0-28.06-6.35-28.06-20.61 0-7.73 4-11.59 10.49-14.72-5.07-2.76-8.38-5.52-8.38-13.52zm34.68 27.32c0-5.24-3.59-8.37-8.65-8.37-5.34 0-9 2.76-9 8.46 0 6.26 5.89 8.65 11.32 7.64 4.31-.56 6.33-3.5 6.33-7.73zM96.39 21c0-4.42-3.5-7-7.91-7-4.69 0-8.37 2.39-8.28 7.18s3.77 6.72 8.1 6.72 8.09-2.3 8.09-6.9zm40.12 27.91a6.64 6.64 0 0 1 1.52 4.73 7.47 7.47 0 0 1-1.49 5 4.83 4.83 0 0 1-3.83 1.73 4 4 0 0 1-2.48-.74 4.79 4.79 0 0 1-1.06-1.2v6.49h-3.22V47.58h3.12v1.87a5.22 5.22 0 0 1 1.13-1.28 4.15 4.15 0 0 1 2.6-.83 4.92 4.92 0 0 1 3.71 1.57zm-2.5 2.34a2.32 2.32 0 0 0-2.15-1.11 2.45 2.45 0 0 0-2.46 1.68 6.3 6.3 0 0 0-.35 2.26 3.59 3.59 0 0 0 1.16 3 2.67 2.67 0 0 0 1.64.51 2.38 2.38 0 0 0 2.1-1.05 5.5 5.5 0 0 0 .06-5.29zm14.59-3.42a5.06 5.06 0 0 1 2.15 1.84 6.12 6.12 0 0 1 1 2.57 15.93 15.93 0 0 1 .11 2.47h-9.07a3 3 0 0 0 1.3 2.63 3.31 3.31 0 0 0 1.79.47 2.53 2.53 0 0 0 2.48-1.43h3.33a4.07 4.07 0 0 1-1.21 2.25 6.05 6.05 0 0 1-4.69 1.82 6.79 6.79 0 0 1-4.39-1.53q-1.9-1.53-1.9-5a6.74 6.74 0 0 1 1.71-5 6 6 0 0 1 4.45-1.73 7.07 7.07 0 0 1 2.94.64zm-4.91 2.81a3.39 3.39 0 0 0-.87 1.93h5.61a2.72 2.72 0 0 0-.87-2 2.85 2.85 0 0 0-1.93-.67 2.58 2.58 0 0 0-1.94.74zm20.47 7.86a6.86 6.86 0 0 1-9.57 0 7.72 7.72 0 0 1 0-9.35 6.79 6.79 0 0 1 9.57 0 7.72 7.72 0 0 1 0 9.35zm-2.6-1.8a5.81 5.81 0 0 0 0-5.77 2.89 2.89 0 0 0-4.39 0 5.78 5.78 0 0 0 0 5.77 2.88 2.88 0 0 0 4.38 0zm16.87-7.79a6.64 6.64 0 0 1 1.52 4.73 7.47 7.47 0 0 1-1.49 5 4.83 4.83 0 0 1-3.83 1.73 4 4 0 0 1-2.48-.74 4.79 4.79 0 0 1-1.06-1.2v6.49h-3.22V47.58h3.12v1.87a5.22 5.22 0 0 1 1.13-1.28 4.15 4.15 0 0 1 2.6-.83 4.92 4.92 0 0 1 3.71 1.57zm-2.5 2.34a2.32 2.32 0 0 0-2.15-1.11 2.45 2.45 0 0 0-2.46 1.68 6.3 6.3 0 0 0-.35 2.26 3.59 3.59 0 0 0 1.16 3 2.67 2.67 0 0 0 1.64.51 2.38 2.38 0 0 0 2.1-1.05 5.5 5.5 0 0 0 .06-5.29zm9.58 8.78h-3.26V43.19h3.26v16.84zm11.25-12.2a5.06 5.06 0 0 1 2.15 1.84 6.11 6.11 0 0 1 1 2.57 15.92 15.92 0 0 1 .11 2.47h-9.07a3 3 0 0 0 1.3 2.63 3.31 3.31 0 0 0 1.79.47 2.53 2.53 0 0 0 2.48-1.43h3.32a4.07 4.07 0 0 1-1.21 2.25 6 6 0 0 1-4.68 1.82 6.79 6.79 0 0 1-4.39-1.53q-1.9-1.53-1.9-5a6.74 6.74 0 0 1 1.71-5 6 6 0 0 1 4.45-1.73 7.07 7.07 0 0 1 2.94.64zm-4.87 2.81a3.39 3.39 0 0 0-.87 1.93h5.61a2.72 2.72 0 0 0-.87-2 2.85 2.85 0 0 0-1.93-.67 2.58 2.58 0 0 0-1.94.74zm9.89 5.97h3.46v3.42h-3.46v-3.42zm23.53-7.7a6.64 6.64 0 0 1 1.52 4.73 7.47 7.47 0 0 1-1.49 5 4.83 4.83 0 0 1-3.83 1.73 4 4 0 0 1-2.48-.74 4.78 4.78 0 0 1-1.06-1.2v6.49h-3.22V47.58h3.12v1.87a5.22 5.22 0 0 1 1.13-1.28 4.15 4.15 0 0 1 2.6-.83 4.92 4.92 0 0 1 3.71 1.57zm-2.5 2.34a2.32 2.32 0 0 0-2.12-1.1 2.45 2.45 0 0 0-2.46 1.68 6.32 6.32 0 0 0-.35 2.26 3.59 3.59 0 0 0 1.16 3 2.67 2.67 0 0 0 1.64.51 2.38 2.38 0 0 0 2.09-1.05 5.5 5.5 0 0 0 .04-5.3zm16.68 7.25a6.86 6.86 0 0 1-9.57 0 7.72 7.72 0 0 1 0-9.35 6.79 6.79 0 0 1 9.57 0 7.72 7.72 0 0 1 0 9.35zm-2.6-1.8a5.81 5.81 0 0 0 0-5.77 2.89 2.89 0 0 0-4.39 0 5.77 5.77 0 0 0 0 5.77 2.88 2.88 0 0 0 4.39 0zm12.02-9.12h3.3l1.9 9 1.94-9h3.39l-3.61 12.45h-3.35l-2-9.07-2 9.07h-3.38l-3.41-12.45h3.5l1.94 8.93zm20.16.25a5.06 5.06 0 0 1 2.15 1.84 6.12 6.12 0 0 1 1 2.57 16 16 0 0 1 .11 2.47h-9.07a3 3 0 0 0 1.3 2.63 3.31 3.31 0 0 0 1.79.47 2.53 2.53 0 0 0 2.48-1.43h3.32a4.07 4.07 0 0 1-1.21 2.25 6.05 6.05 0 0 1-4.68 1.82 6.79 6.79 0 0 1-4.39-1.53q-1.9-1.53-1.9-5a6.74 6.74 0 0 1 1.71-5 6 6 0 0 1 4.45-1.73 7.08 7.08 0 0 1 2.94.64zm-4.87 2.81a3.39 3.39 0 0 0-.87 1.93h5.61a2.72 2.72 0 0 0-.87-2 2.86 2.86 0 0 0-1.93-.67 2.58 2.58 0 0 0-1.94.74zm16.91-3.36h.28v3.33h-.94a2.7 2.7 0 0 0-2.64 1.28 5 5 0 0 0-.38 2.22v6h-3.28V47.58h3.11v2.17a6.9 6.9 0 0 1 1.31-1.7 3.58 3.58 0 0 1 2.38-.77h.15zm.64 9.33h3.46v3.42h-3.46v-3.42zm20.51-4.57a2.88 2.88 0 0 0-.47-1.26 2 2 0 0 0-1.71-.75 2.25 2.25 0 0 0-2.26 1.63 6.78 6.78 0 0 0-.32 2.3 6.23 6.23 0 0 0 .32 2.2 2.18 2.18 0 0 0 2.2 1.55 1.94 1.94 0 0 0 1.63-.62 3.07 3.07 0 0 0 .58-1.6h3.32a5.44 5.44 0 0 1-1.07 2.81 5.23 5.23 0 0 1-4.54 2.14 5.31 5.31 0 0 1-4.43-1.78 7.2 7.2 0 0 1-1.42-4.62 7.3 7.3 0 0 1 1.57-5 5.46 5.46 0 0 1 4.32-1.78 6.52 6.52 0 0 1 3.84 1.05 4.89 4.89 0 0 1 1.77 3.71h-3.34zm14.43-4.4a3.66 3.66 0 0 1 1.54 1.22 3.27 3.27 0 0 1 .63 1.43 17.67 17.67 0 0 1 .11 2.41v7.32h-3.32v-7.57a3.36 3.36 0 0 0-.34-1.62 1.71 1.71 0 0 0-1.68-.87 2.3 2.3 0 0 0-1.94.86 4 4 0 0 0-.66 2.46v6.75h-3.34V43.25h3.26v5.94a4 4 0 0 1 1.63-1.51 4.59 4.59 0 0 1 2-.43 5.27 5.27 0 0 1 2.11.39zm10.16 4.81a5.15 5.15 0 0 0 1.3-.29 1 1 0 0 0 .7-.93 1.09 1.09 0 0 0-.54-1.06 3.4 3.4 0 0 0-1.58-.29 2.08 2.08 0 0 0-1.66.57 2.35 2.35 0 0 0-.46 1.14h-3.14a4.76 4.76 0 0 1 .92-2.68q1.3-1.65 4.45-1.65a7.93 7.93 0 0 1 3.65.81 3.11 3.11 0 0 1 1.59 3.06v7.15a1.82 1.82 0 0 0 .19.87 1.17 1.17 0 0 0 .48.38v.48h-3.54a3.64 3.64 0 0 1-.21-.71c0-.22-.07-.47-.09-.75a6.73 6.73 0 0 1-1.56 1.25 4.72 4.72 0 0 1-2.39.61 4.12 4.12 0 0 1-2.81-1 3.43 3.43 0 0 1-1.11-2.74 3.55 3.55 0 0 1 1.78-3.32 8 8 0 0 1 2.88-.8zm2 1.52a3.68 3.68 0 0 1-.63.31 5.32 5.32 0 0 1-.87.22l-.74.14a4.89 4.89 0 0 0-1.5.45 1.49 1.49 0 0 0-.77 1.38 1.44 1.44 0 0 0 .47 1.21 1.78 1.78 0 0 0 1.14.37 3.4 3.4 0 0 0 2-.62 2.61 2.61 0 0 0 .93-2.25v-1.21zm16.02-5.68a4.12 4.12 0 0 1 1.22 3.35v8.38h-3.34v-7.57a3.48 3.48 0 0 0-.26-1.51 1.83 1.83 0 0 0-1.81-1 2.25 2.25 0 0 0-2.26 1.41 4.85 4.85 0 0 0-.32 1.9v6.74h-3.26V47.6h3.15v1.85a5.52 5.52 0 0 1 1.18-1.38 4.1 4.1 0 0 1 2.54-.75 4.78 4.78 0 0 1 3.16.97zm10.3-.73a3.9 3.9 0 0 1 1.92 1.8v-1.79h3.18v11.81a6.62 6.62 0 0 1-.81 3.63q-1.39 2.1-5.35 2.1a7.29 7.29 0 0 1-3.89-.94 3.46 3.46 0 0 1-1.67-2.8h3.54a1.47 1.47 0 0 0 .45.82 2.75 2.75 0 0 0 1.77.45 2.38 2.38 0 0 0 2.38-1.19 6 6 0 0 0 .39-2.54v-.8a4 4 0 0 1-1 1.2 4 4 0 0 1-2.52.74 4.77 4.77 0 0 1-3.83-1.68 6.81 6.81 0 0 1-1.43-4.56 7.7 7.7 0 0 1 1.38-4.67 4.56 4.56 0 0 1 3.91-1.89 4.28 4.28 0 0 1 1.58.31zm1.11 8.93a4 4 0 0 0 .79-2.75 4.22 4.22 0 0 0-.75-2.7 2.43 2.43 0 0 0-2-.92 2.35 2.35 0 0 0-2.35 1.61 5.73 5.73 0 0 0-.34 2.11 4.83 4.83 0 0 0 .36 1.93 2.37 2.37 0 0 0 2.37 1.58 2.5 2.5 0 0 0 1.92-.9zm15.13-8.66a5.06 5.06 0 0 1 2.15 1.84 6.12 6.12 0 0 1 1 2.57 16 16 0 0 1 .11 2.47h-9.08a3 3 0 0 0 1.3 2.63 3.31 3.31 0 0 0 1.79.47 2.53 2.53 0 0 0 2.48-1.43h3.32a4.07 4.07 0 0 1-1.21 2.25 6.05 6.05 0 0 1-4.68 1.82 6.79 6.79 0 0 1-4.39-1.53q-1.9-1.53-1.9-5a6.74 6.74 0 0 1 1.71-5 6 6 0 0 1 4.45-1.73 7.08 7.08 0 0 1 2.95.64zm-4.87 2.81a3.39 3.39 0 0 0-.87 1.93h5.61a2.72 2.72 0 0 0-.87-2 2.86 2.86 0 0 0-1.93-.67 2.58 2.58 0 0 0-1.94.74zm9.89 5.97h3.46v3.42h-3.46v-3.42z"/>
</svg>
