<svg xmlns="http://www.w3.org/2000/svg" width="156.2" height="146.2" viewBox="0 0 156.2 146.2"><style type="text/css">.st0{fill:#3E4344;}</style><path class="st0" d="M140.7 88.2c9.3-11.6 15.5-24.7 15.5-41 0-20.5-11.3-37.5-29.5-44.3-16.8-6.3-35.5-2.2-48.6 10.3-13.2-12.5-31.8-16.6-48.6-10.3-18.2 6.8-29.5 23.8-29.5 44.3 0 19.4 8.9 34.4 21.2 47.5 0 .4-.1.8-.1 1.3 0 3.5 1.4 6.9 3.9 9.3 2.5 2.5 5.7 3.8 9.2 3.9.3 3.1 1.6 5.9 3.8 8.1 2.4 2.4 5.6 3.8 9 3.8.1 3.4 1.4 6.6 3.8 9 2.4 2.4 5.6 3.8 9 3.8.2 3 1.5 6 3.8 8.3 2.6 2.6 6 3.9 9.3 3.9 3.4 0 6.8-1.3 9.3-3.9l8.3-8.3c.9-.9 1.6-1.9 2.2-2.9.2-.2.4-.3.5-.4l4.1 3.7c2.6 2.5 5.9 3.8 9.2 3.8 3.4 0 6.8-1.3 9.4-3.9 2.7-2.7 4-6.3 3.8-9.8 3.3-.1 6.4-1.5 8.7-3.8l.1-.1c2.2-2.2 3.4-5 3.8-7.8h.6c3.4 0 6.7-1.3 9.2-3.8l.1-.1c5.1-5.1 5.2-13.4.1-18.6l-1.6-2zm-17.1-76.8c14.8 5.5 23.6 18.9 23.6 35.8 0 13.2-4.9 24.1-12.4 34-15.2-19.2-43.9-36.2-49.3-36.2-2.5 0-5.5 1.2-5.8 7-.2 3.4-.4 8.5-15.8 11.1-7.1 1.2-11.8.4-13-2.2-1.4-3.3 1.3-9.5 3.1-10.9 4-3 16.3-15.8 23.8-23.6l.2.2 3.4-3.9c.2-.2.3-.4.5-.5.7-.7 1.2-1.3 1.5-1.6 10.9-10.8 26.3-14.4 40.2-9.2zm-92.2 87.5c-1.6-1.6-1.6-4.3 0-6l8.3-8.3c.8-.8 1.9-1.2 3-1.2s2.2.4 3 1.2c1.6 1.6 1.6 4.3 0 6l-8.3 8.4c-1.7 1.6-4.3 1.6-6-.1zm13 12c-1.6-1.6-1.6-4.3 0-6l8.3-8.3c.8-.8 1.9-1.2 3-1.2s2.2.4 3 1.2c1.6 1.6 1.6 4.3 0 6l-8.3 8.3c-1.7 1.7-4.3 1.7-6 0zm12.9 12.9c-1.6-1.6-1.6-4.3 0-6l8.3-8.3c.8-.8 1.9-1.2 3-1.2s2.2.4 3 1.2c1.6 1.6 1.6 4.3 0 6l-8.3 8.3c-1.7 1.7-4.4 1.7-6 0zm12.9 12.2l-3.2 3.2 3.2-3.2c-1.7-1.7-1.7-4.3 0-6l8.3-8.3c.8-.8 1.9-1.2 3-1.2s2.2.4 3 1.2c1.6 1.6 1.6 4.3 0 6l-8.3 8.3c-1.7 1.6-4.4 1.6-6 0zm66-33.5c-.9.9-1.9 1.3-3.1 1.3-1.1 0-2.2-.4-3-1.2l-16.5-16.6c-.6-.6-1.2-.9-2-1.1-1.8-1.2-4.2-1.1-5.8.5-1.8 1.8-1.8 4.6 0 6.4l16.5 16.5c1.6 1.6 1.6 4.3.1 5.9l-.1.1c-.8.8-1.8 1.2-3 1.2-1.1 0-2.2-.4-3-1.2l-16.4-16.6c-1.8-1.8-4.6-1.8-6.4 0-.8.8-1.2 1.7-1.3 2.7-.7 1.6-.4 3.6 1 4.9l16.5 16.5c1.6 1.6 1.6 4.3 0 6-.8.8-1.8 1.2-3 1.2-1.1 0-2.2-.4-3-1.2l-10.7-9.7-.4-.3c-.5-.9-1.2-1.8-2-2.5-2.4-2.4-5.6-3.8-9-3.8-.2-3.1-1.6-6-3.8-8.3-2.4-2.4-5.6-3.8-9-3.8-.1-3.4-1.4-6.6-3.9-9-2.5-2.5-5.7-3.8-9.2-3.9-.3-3.1-1.6-5.9-3.8-8.1-2.5-2.5-5.8-3.9-9.3-3.9-3.5 0-6.9 1.4-9.3 3.9l-7.8 7.8c-9.8-11.2-16.5-23.6-16.5-39 0-16.9 8.8-30.3 23.6-35.8 4.2-1.6 8.6-2.4 12.9-2.4 9.6 0 19 3.7 26.3 10.7-8 8.4-19.8 20.6-23.2 23.1-4.6 3.5-9.3 13.9-5.9 21.6 2.1 4.8 7.8 10.1 22.8 7.5 18.7-3.2 22.2-11.3 23-16.7 4 1.8 11.2 4.8 17.8 10.6 6 5.2 10.8 9.9 14.9 14.1l11.6 12.9c.4.5.7.9 1.2 1.3l2 2.2.2.2c1.6 1.7 1.6 4.4 0 6z"/></svg>