<svg xmlns="http://www.w3.org/2000/svg" width="121" height="90.6" viewBox="0 0 121 90.6"><style type="text/css">.st0{fill:#3E4244;}</style><path class="st0" d="M21.8 77c-.4 0-.7-.1-1-.3-.7-.4-1-1.3-.8-2.1l4-15.9v-.2c0-.1-.1-.1-.2-.1-13.8-2.8-23.8-14.9-23.8-28.9 0-16.3 13.2-29.5 29.5-29.5h31.4c10.3 0 20 5.6 25.4 14.5.4.6.4 1.3 0 1.9-.3.6-1 1-1.7 1h-24.5c-14.1 0-25.6 11.5-25.6 25.6 0 6.2 2.2 12.1 6.3 16.8.3.4.5.9.5 1.4 0 .5-.3 1-.7 1.3l-17.6 14.1c-.3.3-.8.4-1.2.4zm7.7-73.2c-14.2 0-25.7 11.5-25.7 25.7 0 12.2 8.7 22.8 20.6 25.1 1.1.2 2.1.9 2.7 1.8.6 1 .8 2.1.5 3.2l-2.6 10.5 11.6-9.3c-3.9-5.1-6-11.4-6-17.8 0-16.2 13.2-29.5 29.5-29.5h20.8c-4.8-6.1-12.2-9.7-20.1-9.7h-31.3zm69.7 86.8c-.4 0-.8-.1-1.2-.4l-19.2-15.4c-1.9-1.5-4.3-2.3-6.7-2.3h-12c-16.2 0-29.5-13.2-29.5-29.5s13.2-29.5 29.5-29.5h31.4c16.2 0 29.5 13.2 29.5 29.5 0 14-10 26.2-23.7 28.9l-.2.1c0 .1-.1.1 0 .2l4 15.9c.2.8-.1 1.6-.8 2.1-.4.3-.7.4-1.1.4zm-39.1-73.2c-14.1 0-25.6 11.5-25.6 25.6s11.5 25.7 25.6 25.7h11.9c3.3 0 6.5 1.1 9.1 3.2l14.9 11.7-2.6-10.4c-.3-1.1-.1-2.3.5-3.2.6-1 1.6-1.6 2.7-1.8 12-2.4 20.6-13 20.6-25.1 0-14.1-11.5-25.6-25.6-25.6h-31.5z"/></svg>