<svg xmlns="http://www.w3.org/2000/svg" width="177" height="103.4" viewBox="0 0 177 103.4"><style type="text/css">.st0{fill:#3F4244;}</style><circle class="st0" cx="88.5" cy="10.8" r="1.9"/><path class="st0" d="M142.1 97.3h-107.2c-6 0-10.8-4.9-10.8-10.8v-75.7c0-6 4.9-10.8 10.8-10.8h107.2c6 0 10.8 4.9 10.8 10.8v75.7c0 6-4.8 10.8-10.8 10.8zm-107.2-93.3c-3.8 0-6.8 3.1-6.8 6.8v75.7c0 3.8 3.1 6.8 6.8 6.8h107.2c3.8 0 6.8-3.1 6.8-6.8v-75.7c0-3.8-3.1-6.8-6.8-6.8h-107.2zm105.1 80.6h-103c-2.1 0-3.9-1.7-3.9-3.9v-62c0-2.1 1.7-3.9 3.9-3.9h103c2.1 0 3.9 1.7 3.9 3.9v62.1c-.1 2.1-1.8 3.8-3.9 3.8zm-103-67c-.7 0-1.2.5-1.2 1.2v62.1c0 .7.5 1.2 1.2 1.2h103c.7 0 1.2-.5 1.2-1.2v-62.2c0-.7-.5-1.2-1.2-1.2h-103zm112.4 85.8h-121.8c-23.1 0-27.1-6-27.4-6.7-.3-.5-.3-1.1 0-1.5s.8-.8 1.3-.8h173.9c.5 0 1.1.3 1.3.8s.3 1.1 0 1.5c-.3.6-4.3 6.7-27.3 6.7zm-142.7-5.9c3.4 1.4 9.7 2.8 20.9 2.8h121.8c11.2 0 17.5-1.4 20.9-2.8h-163.6z"/></svg>