<svg xmlns="http://www.w3.org/2000/svg" width="129.6" height="53.5" viewBox="0 0 129.6 53.5"><style type="text/css">.st0{fill:#3E4244;}</style><path class="st0" d="M8.1 26v14.7h-8.1v-38.2h11.1c5.2 0 9 .9 11.5 2.8s3.7 4.8 3.7 8.6c0 2.2-.6 4.2-1.9 6-1.2 1.8-3 3.1-5.3 4.1l11.2 16.7h-9l-8.9-14.7h-4.3zm0-6.6h2.6c2.6 0 4.5-.4 5.7-1.3 1.2-.9 1.8-2.2 1.8-4 0-1.8-.6-3.1-1.9-3.9-1.2-.8-3.2-1.2-5.8-1.2h-2.4v10.4zM55.4 40.7l-1.1-3.7h-.4c-.9 1.4-2.1 2.4-3.6 3.2-1.6.7-3.4 1.1-5.4 1.1-3.4 0-6-.9-7.8-2.8-1.7-1.8-2.6-4.5-2.6-7.9v-19.1h8v17.1c0 2.1.4 3.7 1.1 4.7.7 1.1 1.9 1.6 3.6 1.6 2.2 0 3.8-.7 4.8-2.2 1-1.5 1.5-4 1.5-7.4v-13.8h8v29.2h-6.1zM86.2 10.9c3.5 0 6.2 1.3 8.1 4 2 2.7 2.9 6.4 2.9 11.1 0 4.8-1 8.6-3 11.2-2 2.6-4.8 4-8.2 4-3.4 0-6.1-1.2-8.1-3.7h-.5l-1.4 3.2h-6.1v-40.7h8v9.5c0 1.2-.1 3.1-.3 5.8h.3c1.9-3 4.6-4.4 8.3-4.4zm-2.6 6.4c-2 0-3.4.6-4.3 1.8-.9 1.2-1.4 3.2-1.4 6v.9c0 3.1.5 5.4 1.4 6.7.9 1.4 2.4 2 4.4 2 1.6 0 2.9-.8 3.9-2.3 1-1.5 1.5-3.7 1.5-6.6 0-2.9-.5-5-1.5-6.5-1-1.3-2.3-2-4-2zM99.1 11.5h8.7l5.5 16.4c.5 1.4.8 3.1 1 5.1h.2c.2-1.8.6-3.5 1.1-5.1l5.4-16.4h8.5l-12.4 33c-1.1 3-2.7 5.3-4.8 6.9-2.1 1.5-4.6 2.3-7.4 2.3-1.4 0-2.7-.1-4.1-.4v-6.3c1 .2 2 .3 3.1.3 1.4 0 2.6-.4 3.7-1.3s1.9-2.2 2.5-3.9l.5-1.4-11.5-29.2z"/></svg>