<svg xmlns="http://www.w3.org/2000/svg" width="77" height="115.3" viewBox="0 0 77 115.3"><style type="text/css">.st0{fill:#3E4244;}</style><path class="st0" d="M38.5 4.5c18.8 0 34 15.2 34 34 0 13.1-7.4 24.4-18.2 30.1-1.7.9-2.7 2.6-2.7 4.5v9.3c0 .7-.6 1.3-1.3 1.3h-23.6c-.7 0-1.3-.6-1.3-1.3v-9.3c0-1.9-1-3.7-2.7-4.5-10.8-5.7-18.2-17.1-18.2-30.2.1-18.3 14.9-33.4 33.2-33.9h.8m0-4.5h-.9c-10.1.2-19.5 4.4-26.6 11.6-7.1 7.2-11 16.8-11 26.8 0 14.4 7.9 27.5 20.6 34.2.2.1.3.3.3.6v9.3c0 3.2 2.6 5.8 5.8 5.8h23.6c3.2 0 5.8-2.6 5.8-5.8v-9.3c0-.2.1-.5.3-.5 12.7-6.8 20.6-19.8 20.6-34.2 0-21.2-17.3-38.5-38.5-38.5zm13.2 96.8h-26.4c-1.1 0-2-.9-2-2s.9-2 2-2h26.3c1.1 0 2 .9 2 2s-.8 2-1.9 2zm-1.2 8.5h-24c-1.1 0-2-.9-2-2s.9-2 2-2h24c1.1 0 2 .9 2 2s-.9 2-2 2zm-12 10c-2.2 0-4.1-1.6-4.4-3.7-.1-.6.1-1.2.4-1.6.4-.5.9-.7 1.5-.7h5c.6 0 1.2.3 1.5.7.4.5.5 1 .4 1.6-.3 2.2-2.2 3.7-4.4 3.7z"/></svg>