<svg xmlns="http://www.w3.org/2000/svg" width="153.2" height="142.2" viewBox="0 0 153.2 142.2"><style type="text/css">.st0{fill:#3F4244;}</style><path class="st0" d="M137.2 86.7c9.5-11.6 16-24.8 16-41 0-19.9-10.9-36.3-28.5-42.8-16.7-6.2-35.2-2-48 10.8l-.1.1-.1.1c-12.7-13-31.3-17.3-48-11.1-17.6 6.6-28.5 23-28.5 42.9 0 18.7 8.6 33.3 20.5 46.2-.1.5-.1 1.1-.1 1.6 0 3.1 1.2 6.1 3.4 8.3 2.2 2.2 5.1 3.4 8.3 3.4.4 0 .9 0 1.3-.1-.1 3.1 1 6.3 3.4 8.6 2.3 2.3 5.3 3.4 8.4 3.4h1.1c-.4 3.4.8 6.9 3.4 9.5 2.2 2.2 5.1 3.4 8.3 3.4.4 0 .8 0 1.2-.1-.1 3.2 1 6.3 3.4 8.7 2.3 2.3 5.3 3.4 8.3 3.4 3 0 5.9-1.1 8.2-3.4l9.2-8.2.1-.1c1.2-1.2 2.1-2.7 2.5-4.3l6.1 5.5c2.3 2.3 5.3 3.4 8.2 3.4 3 0 6-1.1 8.2-3.4l.1-.1c2.7-2.7 4.4-6.6 4.3-10.2h.1c3 0 6-1.1 8.3-3.4 2.4-2.4 3.4-5.4 3.4-8.4.7.1 1.4.2 2 .2 3 0 6-1.1 8.3-3.4 4.5-4.5 4.6-11.9.1-16.5l-2.8-3zm-14.6-78.2c15.2 5.7 24.6 19.9 24.6 37.2 0 14.3-5.5 26-14 36.5l-4.3-4.8c-16.1-19.1-40.1-32.4-44.9-32.4-4 0-4.2 4-4.3 5.6-.2 3.6-.5 9.7-17 12.5-4.6.8-12.6 1.4-14.6-3.1-1.8-4.1 1.3-10.9 3.6-12.7 4.1-3.1 17.5-17.1 24.7-24.6l.1.1 2.3-2.6c.2-.2.4-.4.5-.6.8-.8 1.4-1.4 1.6-1.7 11.3-11.1 27.3-14.8 41.7-9.4zm-94.5 89c-2.2-2.2-2.2-5.9 0-8.1l8.3-8.3c1.1-1.1 2.6-1.7 4-1.7 1.5 0 2.9.6 4.1 1.7 3.5 3.5 3.5 4.5 0 8.1l-8.3 8.3c-2.3 2.2-5.9 2.2-8.1 0zm13 12c-2.2-2.2-2.2-5.9 0-8.1l8.3-8.3c1.1-1.1 2.6-1.7 4-1.7 1.5 0 2.9.6 4.1 1.7 2.3 2.3 2.2 6 .8 8.3l-7.9 7.9c-3.2 2.4-7 2.5-9.3.2zm12.9 12.9c-2.2-2.2-2.2-5.9 0-8.1l8.3-8.3c1.2-1.2 2.4-1.8 3.8-1.8.3 0 .5 0 .8.1 1.5.2 2.8 1 3.5 1.7 2.2 2.2 2.2 5.9 0 8.1l-8.3 8.3c-2.3 2.2-5.9 2.2-8.1 0zm30.2 3.8l-9.2 8.2-.1.1c-2.2 2.2-5.9 2.2-8.1 0-2.2-2.2-2.2-5.9 0-8.1l8.3-8.3c1.1-1.1 2.6-1.7 4-1.7 1.5 0 2.9.6 4.1 1.7 2.1 2.3 3.2 5.9 1 8.1zm51.5-24.1c-2.2 2.2-5.9 2.2-8.1 0l-.5-.5-.1-.1-16.4-16.6c-1.2-1.2-3.1-1.2-4.2 0-1.2 1.2-1.2 3.1 0 4.2l6.2 6.2 10.4 10.7c1.1 2.3 1 5.6-1.1 7.7-2.2 2.2-5.9 2.2-8.1 0l-16.4-16.4c-1.2-1.2-3.1-1.2-4.2 0-1.2 1.2-1.1 3.3.1 4.5l2.7 2.6 15 15c2 2 .8 5.8-1.4 8l-.1.1c-2.2 2.2-5.9 2.2-8.1 0l-10.7-9.6-.7-.5c-.7-1.3-1.5-2.4-2.5-3.4-2.2-2.2-5.1-3.4-8.3-3.4-.4 0-.8 0-1.2.1.1-3.2-1-6.4-3.4-8.8-1.7-1.7-4.3-3-6.8-3.4-.7-.1-1.6-.2-2.5-.1.1-3.3-.9-6.7-3.6-9.4-2.4-2.4-5.5-3.5-8.6-3.4.1-2.8-1.3-5.5-4.4-8.6-4.6-4.6-12-4.6-16.6 0l-8.3 8.3c-.2.2-.4.5-.7.7-10.2-11.6-17.1-24.3-17.1-40.3 0-17.3 9.4-31.6 24.6-37.2 4.4-1.7 8.9-2.5 13.5-2.5 10.4 0 20.6 4.3 28.4 12.2-8 8.4-20.8 21.6-24.4 24.3-4.3 3.3-8.4 13-5.5 19.8 1.9 4.4 7.1 9 21.1 6.6 18.1-3.1 21.4-10.4 21.9-17.4 5.8 2.4 21.8 13.3 35.4 26.2l14.5 16.1.1.1c2.3 2.3 2.3 6 .1 8.2z"/></svg>