<svg xmlns="http://www.w3.org/2000/svg" width="248.1" height="240.4" viewBox="0 0 248.1 240.4"><style type="text/css">.st0{fill:#3D4244;}</style><path class="st0" d="M248.1 16.8c0-4.5-1.7-8.7-4.9-11.8-6.5-6.5-17.1-6.6-23.7-.1l-23.6 23.5h-170.6c-2.4 0-4.4 2-4.5 4.4-4.7 97.2-10 140.4-18.5 149.3-2 2.1-2.8 5.2-2.1 8.1.7 2.6 2.6 4.6 5.1 5.4 5.1 1.6 10.2 3.1 15.4 4.5l-.1.3v35.6c0 2.5 2.2 4.4 4.6 4.4h189c2.5 0 4.3-2 4.3-4.4v-183.10000000000002l24.4-24.3c3.3-3.2 5.2-7.4 5.2-11.8zm-138.1 200.6h-80.3v-15.1c27 6.8 54.7 12.1 80.3 15.1zm99.7.1c-14-.5-116.8-4.9-200.1-30.2 10-12.1 15.2-50.9 20-149.9h157.3l-62.2 62.3c-2.5 2.5-3.4 5.2-3.4 7.2l-17.3 17.3c-4 4-6.3 11-5.4 16.4l-6.6 6.6 1.4 1.4-3.3 6.1c-.5.9-.3 2.1.4 2.8.5.5 1.1.7 1.7.7.4 0 .8-.1 1.1-.3l6.2-3.2 1.4 1.4 6.6-6.6c5.4.8 12.4-1.4 16.4-5.4l17.3-17.3c2.1-.1 4.9-1.2 7-3.3l61.4-61.5v155.5z"/></svg>