<svg xmlns="http://www.w3.org/2000/svg" width="57" height="20.3" viewBox="0 0 57 20.3"><style type="text/css">.st0{fill:#3E4244;}</style><path class="st0" d="M6.2 6c3.7 0 5.5 2.4 5.5 7 0 .3-.6 1.1-.9 1.1h-8.4c.2 3 1.5 4.3 4.1 4.3 2.3 0 3.6-1.1 3.9-1.1.4 0 .9 1 .9 1.3 0 .6-2.1 1.7-4.8 1.7-4.4 0-6.5-2.3-6.5-7.1 0-4.7 2.1-7.2 6.2-7.2m3.1 6.1c0-2.8-1.1-4.2-3.2-4.2-2.3 0-3.5 1.4-3.7 4.2h6.9zM15.1.6c0-.4.3-.6 1.1-.6h.1c.7 0 1.1.2 1.1.6v15.8c0 1.6.7 2 1.4 2 .8 0 .9-.1 1.1-.1.4 0 .6 1 .6 1.3 0 .7-1.2.8-1.9.8-1.3 0-3.4-.6-3.4-3.7v-16.1zM23.2 2.2v-1.6c0-.4.3-.6 1.1-.6h.3c.7 0 1.1.2 1.1.6v1.6c0 .4-.3.6-1.1.6h-.3c-.8 0-1.1-.3-1.1-.6m.1 4.5c0-.4.3-.6 1.1-.6h.1c.7 0 1.1.2 1.1.6v12.9c0 .4-.3.6-1.1.6h-.1c-.7 0-1.1-.2-1.1-.6v-12.9zM28.6 19.2l4.3-6.3-3.9-5.9c-.1-.2-.2-.3-.2-.5 0-.3.3-.5 1.2-.5h.3c.6 0 .9.1 1.1.4l3 4.4 3.1-4.5c.2-.3.7-.4 1.1-.4h.1c.9 0 1.2.1 1.2.5 0 .1-.1.3-.2.5l-4 5.9 4.3 6.3c.1.2.2.3.2.5 0 .3-.3.5-1.2.5h-.3c-.6 0-.9-.1-1.1-.4l-3.3-4.9-3.4 4.9c-.2.3-.7.4-1.1.4h-.1c-.9 0-1.2-.1-1.2-.5-.1 0 0-.2.1-.4"/><path class="st0" d="M43.2 2.2v-1.6c0-.4.3-.6 1.1-.6h.3c.7 0 1.1.2 1.1.6v1.6c0 .4-.3.6-1.1.6h-.3c-.8 0-1.1-.3-1.1-.6m.1 4.5c0-.4.3-.6 1.1-.6h.1c.7 0 1.1.2 1.1.6v12.9c0 .4-.3.6-1.1.6h-.1c-.7 0-1.1-.2-1.1-.6v-12.9zM50.3 10.2c0-2.2-.3-3.3-.3-3.4 0-.5 1.1-.6 1.4-.6.6 0 .8 1.1.9 1.8.9-1.3 2-2 3.1-2 1 0 1.5.5 1.5 1s-.2 1.4-.5 1.4-.6-.3-1.5-.3c-1.4 0-2.5 1.6-2.5 1.6v9.8c0 .4-.3.6-1.1.6h-.1c-.7 0-1.1-.2-1.1-.6v-9.3z"/></svg>