<?xml version="1.0" encoding="utf-8"?>
<!-- Generator: Adobe Illustrator 19.2.0, SVG Export Plug-In . SVG Version: 6.00 Build 0)  -->
<!DOCTYPE svg PUBLIC "-//W3C//DTD SVG 1.1//EN" "http://www.w3.org/Graphics/SVG/1.1/DTD/svg11.dtd">
<svg version="1.1" id="Layer_1" xmlns="http://www.w3.org/2000/svg" xmlns:xlink="http://www.w3.org/1999/xlink" x="0px" y="0px"
	 width="1287px" height="200px" viewBox="0 0 1287 200" style="enable-background:new 0 0 1287 200;" xml:space="preserve">
<style type="text/css">
	.st0{fill:#E8698A;}
	.st1{fill:#D35B80;}
	.st2{fill:#C1537B;}
	.st3{clip-path:url(#SVGID_4_);fill:#E8698A;}
	.st4{clip-path:url(#SVGID_8_);fill:#E8698A;}
	.st5{clip-path:url(#SVGID_11_);fill:#E8698A;}
	.st6{clip-path:url(#SVGID_13_);fill:#E8698A;}
	.st7{clip-path:url(#SVGID_15_);fill:#E8698A;}
</style>
<g>
	<path class="st0" d="M151.6,40.6c-3-4.5-11.4-7.8-15.1-4c-0.4,0.4-0.8,0.9-1.1,1.3c1.1,0.2,2,0.8,2.5,1.8c0.6,1.2,0.7,4.4-0.4,6.2
		c0.4,0.4,0.6,0.8,0.8,1.3c0.4,0.8,0.8,1.9,0.9,3c0.8,0.5,1.7,0.8,2.3,0.9c1.4,0.3,2.9,0.3,4.3,0.1c1.7-0.2,3.3-0.9,4.5-2
		C152.5,47.2,153.6,43.7,151.6,40.6"/>
	<path class="st0" d="M132.1,46c0.7-0.5,1.6-0.9,2.4-1.1c-1.1-2.6-0.6-5,0.9-7.1c-1.2-0.3-2.6-0.1-3.7,0.1c-2.4,0.6-3.1,1.7-3,4.1
		c0,1.9,1,3.7,2.5,4.7C131.5,46.6,131.8,46.3,132.1,46"/>
	<path class="st1" d="M134.6,45c0.7-0.1,1.5,0,2.2,0.3c0.3,0.2,0.6,0.4,0.8,0.6c1.1-1.7,1-5,0.4-6.2c-0.5-1.1-1.5-1.6-2.5-1.8
		C134,40,133.5,42.4,134.6,45"/>
	<path class="st1" d="M135.9,47.2c-0.8,0.3-1.2,0.3-2,0.4c-1.1,0.1-2-0.2-2.8-0.7c-1.1,1.3-1.8,3.3-1.4,4.9c0.8,0,1.6,0.1,1.9,0.9
		c0.2,0.4,0.3,1.1,0.2,1.8c2.3,1.2,4.4,0.7,6.7-2.1c0.6-0.6,0.7-1.4,0.7-2.3c-0.8-0.4-1.5-0.9-1.9-1.3
		C136.8,48.3,136.4,47.8,135.9,47.2"/>
	<path class="st2" d="M137.6,46c-0.2,0.4-0.5,0.6-0.8,0.9c-0.3,0.2-0.6,0.3-0.9,0.4c0.4,0.6,0.9,1.1,1.5,1.7
		c0.4,0.4,1.1,0.9,1.9,1.3c0-1.1-0.5-2.2-0.9-3C138.3,46.7,138,46.3,137.6,46"/>
	<path class="st2" d="M133.9,47.7c0.7-0.1,1.2,0,2-0.4c-0.6-0.8-1-1.5-1.3-2.3c-0.9,0.1-1.7,0.6-2.4,1.1c-0.4,0.3-0.7,0.6-1,0.9
		C132,47.5,132.9,47.7,133.9,47.7"/>
	<path class="st0" d="M135.3,44.9c-0.2,0-0.5,0-0.7,0c0.3,0.7,0.7,1.5,1.3,2.3c0.2-0.1,0.6-0.2,0.9-0.4c0.3-0.2,0.6-0.5,0.8-0.9
		c-0.2-0.2-0.5-0.5-0.8-0.6C136.3,45,135.8,44.9,135.3,44.9"/>
	<path class="st0" d="M135.3,44.9c-0.2,0-0.5,0-0.6,0C134.8,44.9,135,44.9,135.3,44.9 M136.8,45.3L136.8,45.3
		c0.4,0.2,0.6,0.4,0.8,0.6C137.4,45.7,137.1,45.5,136.8,45.3"/>
	<path class="st2" d="M136.8,45.3c-0.7-0.4-1.5-0.5-2.2-0.3c0.3,0.7,0.7,1.5,1.3,2.3c0.2-0.1,0.6-0.2,0.9-0.4
		c0.3-0.2,0.6-0.5,0.8-0.9C137.4,45.7,137.1,45.5,136.8,45.3"/>
	<path class="st0" d="M129.8,51.8c-0.3,0-0.6,0-0.8,0.1c-1.1,0.2-1.3,0.7-1.3,1.8c0,1.2,1,2.5,2.3,2.4c0.4,0,1-0.1,1.2-0.4
		c0.5-0.4,0.6-0.6,0.7-1.3l-0.3-0.1C130.6,53.7,130,52.8,129.8,51.8"/>
	<path class="st0" d="M130,51.8h-0.2c0.2,1,0.8,1.9,1.8,2.5l0.3,0.1c0-0.2,0-0.4,0-0.6c0-0.5-0.1-0.9-0.2-1.2l0,0
		C131.4,52,130.7,51.8,130,51.8"/>
	<path class="st0" d="M130,51.8h-0.2H130 M129.8,51.8l1.9,0.8c0.1,0.3,0.2,0.7,0.2,1.2c0-0.5-0.1-1-0.2-1.2"/>
	<path class="st2" d="M131.7,52.7c-0.4-0.7-1.2-0.9-1.9-0.9c0.2,1,0.8,1.9,1.8,2.5l0.3,0.1C132,53.8,131.9,53,131.7,52.7"/>
	<path class="st0" d="M28.2,61.1c0-0.7,0.6-1.3,1.3-1.3s1.3,0.6,1.3,1.3v13.3c0,0.7-0.6,1.3-1.3,1.3s-1.3-0.6-1.3-1.3V61.1z
		 M48.2,61.1c0-0.7,0.6-1.3,1.3-1.3s1.3,0.6,1.3,1.3v13.3c0,0.7-0.6,1.3-1.3,1.3s-1.3-0.6-1.3-1.3V61.1z M80.3,68.5
		c0,2.3-1.5,4.7-3.6,4.7c-3.8,0-3.9-3.8-3.9-5.6c0-3.9,1.8-5.9,4.5-5.9c1.4,0,2.2,0.2,3,0.5V68.5L80.3,68.5z M80.2,76.5
		c0,3.4-0.8,6-3.8,6c-1.6,0-2.7-0.7-2.7-2.3c0-1.4,1.4-2.6,3-3.9l3.4-2.9L80.2,76.5L80.2,76.5z M81.1,60.1c-1.2-0.3-2.4-0.5-3.5-0.5
		c-3.9,0-7.3,2.7-7.3,7.7c0,5.5,2.3,7.4,5.1,7.7l-0.6,0.4c-1.6,1.1-3.4,2.3-3.4,4.7c0,2.5,1.7,4.3,4.9,4.3c6.1,0,6.3-5.7,6.3-9.1
		v-13C82.6,60.6,82.2,60.4,81.1,60.1 M150.1,54.8c0-0.7,0.6-1.3,1.3-1.3s1.3,0.6,1.3,1.3v19.8c0,0.7-0.6,1.3-1.3,1.3
		s-1.3-0.6-1.3-1.3V54.8z M21.3,54.8c0-0.7,0.6-1.3,1.3-1.3c0.7,0,1.3,0.6,1.3,1.3v19.8c0,0.7-0.6,1.3-1.3,1.3s-1.3-0.6-1.3-1.3
		V54.8z M42.9,60.6c0.2-0.5,0.6-0.8,1.1-0.8c0.9,0,1.6,0.7,1.1,1.7l-4.8,13.1c-0.2,0.6-0.5,1.1-1.1,1.1s-0.9-0.5-1.1-1.1l-4.8-13
		c-0.4-1,0.1-1.8,1.1-1.8c0.6,0,1,0.3,1.1,0.8l3.7,10L42.9,60.6z M64.4,65.6c0-2.1-0.7-3.9-3.2-3.9c-2.3,0-4,2.3-4,5v7.7
		c0,0.7-0.6,1.3-1.3,1.3s-1.3-0.6-1.3-1.3V61.1c0-0.7,0.5-1.3,1.2-1.3s1.2,0.6,1.2,1.3v1.1c1.1-1.8,2.8-2.5,4.5-2.5
		c3.3,0,5.3,1.8,5.3,5.3v9.4c0,0.7-0.6,1.3-1.3,1.3s-1.3-0.6-1.3-1.3L64.4,65.6L64.4,65.6z M86.1,72.5c0.3,0,0.6,0.1,0.8,0.2
		c0.9,0.5,2,1,3.5,1c1.7,0,2.9-0.8,2.9-2.5s-1.6-2.3-3.3-2.8c-2.1-0.7-4.4-1.5-4.4-4.4c0-3.1,2.5-4.5,5.2-4.5c1.7,0,3,0.5,4,1.1
		c0.3,0.1,0.6,0.5,0.6,1c0,0.6-0.4,1.1-1,1.1c-0.3,0-0.6-0.1-0.9-0.3c-0.9-0.6-1.9-0.8-3-0.8c-1.2,0-2.7,0.5-2.7,2.2
		c0,1.6,1.6,2.2,3.3,2.7c2.1,0.7,4.5,1.7,4.5,4.6c0,3.1-2.2,4.6-5.3,4.6c-2.3,0-3.6-0.6-4.6-1.1c-0.4-0.2-0.7-0.6-0.7-1
		C85.1,73,85.5,72.5,86.1,72.5 M104.5,73.8c-3.4,0-4.1-3.5-4.1-6.5c0-3.3,1.5-5.6,4.3-5.6s4.1,2.5,4.1,6.1
		C108.7,71.1,107.3,73.8,104.5,73.8 M104.8,59.6c-3.1,0-7,1.6-7,8c0,5.6,2.6,8.2,6.5,8.2s7-2.5,7-8.5
		C111.3,60.3,106.9,59.6,104.8,59.6 M123.3,72.9c0.4-0.2,0.8-0.5,1.2-0.5c0.5,0,1,0.3,1,1c0,0.4-0.2,0.7-0.6,1
		c-1.1,0.7-2.8,1.4-4.7,1.4c-4.4,0-6.8-2.8-6.8-8.1c0-6.2,3.8-8.1,6.7-8.1c1.6,0,3.3,0.4,4.8,1.7c0.3,0.2,0.4,0.6,0.4,0.9
		c0,0.6-0.4,1.1-1.1,1.1c-0.3,0-0.7-0.2-1-0.4c-1-0.9-1.9-1.1-3.1-1.1c-2.4,0-4.2,1.8-4.2,5.8c0,3.5,1.2,6,4.4,6
		C121.4,73.7,122.3,73.5,123.3,72.9 M127.6,61.1c0-0.7,0.6-1.3,1.3-1.3s1.3,0.6,1.3,1.3v13.3c0,0.7-0.6,1.3-1.3,1.3
		s-1.3-0.6-1.3-1.3C127.6,74.4,127.6,61.1,127.6,61.1z M143.6,68.5c0,2.1-1.4,5.3-4.5,5.3c-2.4,0-3.1-2.8-3.1-5.4
		c0-3.8,1.2-6.8,4.8-6.8c1.1,0,2.3,0.2,2.9,0.5L143.6,68.5L143.6,68.5z M144.9,60.2c-1.3-0.4-3-0.6-3.8-0.6c-5.1,0-7.7,3.3-7.7,8.7
		c0,4.5,1.8,7.4,5.6,7.4c2.6,0,3.9-1.4,4.8-2.9v1.5c0,0.7,0.5,1.3,1.2,1.3s1.2-0.6,1.2-1.3v-12C146.2,61.1,146,60.6,144.9,60.2"/>
</g>
<path class="st0" d="M225.3,71.8c-0.5,0-0.9,0.1-1.2,0.5c-0.3,0.3-0.5,0.7-0.5,1.2s0.1,0.9,0.5,1.2c0.4,0.3,0.7,0.5,1.2,0.5
	s0.9-0.1,1.2-0.5c0.3-0.3,0.5-0.7,0.5-1.2s-0.2-0.9-0.5-1.2C226.2,72,225.8,71.8,225.3,71.8z M206,71.8c-0.5,0-0.9,0.1-1.2,0.5
	c-0.3,0.3-0.5,0.7-0.5,1.2s0.2,0.9,0.5,1.2c0.3,0.3,0.7,0.5,1.2,0.5s0.9-0.1,1.2-0.5c0.3-0.3,0.5-0.7,0.5-1.2s-0.2-0.9-0.5-1.2
	C206.9,72,206.5,71.8,206,71.8z M219.2,53.5h-8.5v0.7h2.5v16.4c0,1.3-0.1,1.6-0.2,2c-0.1,0.4-0.5,0.7-1,1c-0.4,0.1-1,0.2-1.8,0.3
	v0.7h9.2V74c-0.8,0-1.3-0.1-1.8-0.2c-0.6-0.2-0.9-0.5-1.1-1c-0.1-0.4-0.2-0.7-0.2-1.3v-5.7h2.3c6.5,0,8.4-2.6,8.4-6.1
	C227,56,225.9,53.5,219.2,53.5z M218.1,65h-1.7V54.4h1.6c5.1,0,6.2,2.1,6.2,5.5C224.1,63.2,222.1,65,218.1,65z M204.8,53.5h-8.6v0.7
	h2.7v14.4c0,4.3-1.2,5.5-3.9,5.5c-1.7,0-2-1.3-2-2c0-1.6-0.1-2.6-1.5-2.6s-1.6,1.5-1.6,2c0,2,0.9,3.5,4.8,3.5c4.7,0,7.2-1.6,7.2-6.8
	v-14h2.8C204.8,54.3,204.8,53.5,204.8,53.5z M284,59.4c-2.6,0-3.5,1.6-4.2,3.2h-0.2c0,0-0.4-2.3-0.5-3H274v0.8h2.8v10.4
	c0,1-0.1,1.8-0.3,2.2c-0.3,0.5-0.9,0.8-2,0.8H274v0.9h8.6v-0.9h-0.5c-1.1,0-1.6-0.2-1.9-0.7c-0.3-0.4-0.4-1.2-0.4-2.2v-5.4
	c0-1.8,1.4-3.9,3-3.9c1.7,0,1.7,2.6,3.6,1.6C287.4,62.5,287.2,59.4,284,59.4L284,59.4z M254.1,72.6c-0.1-0.4-0.2-0.8-0.2-1.4V54.3
	h2.2v-0.7h-5.4c0,0.2-6.4,16.1-6.4,16.1l-0.1,0.1l-0.1-0.1c0,0-6.8-15.8-6.9-16.1h-6v0.7h2.6v16.3v1.5c0,0.4-0.2,0.7-0.4,1
	s-0.5,0.5-1,0.7c-0.3,0.1-0.7,0.1-1.2,0.2v0.7h5.9V74c-0.5,0-0.7-0.1-1-0.2c-0.4-0.1-0.7-0.4-1-0.7c-0.2-0.3-0.3-0.7-0.4-1v-1.5
	V56.5h0.3c0,0,7.7,17.9,7.8,18.1h0.7l7.2-17.9h0.2v14.5c0,0.6,0,1.1-0.2,1.5c-0.1,0.4-0.5,0.7-0.9,1c-0.3,0.1-0.8,0.2-1.5,0.3v0.7
	h8.3V74c-0.7,0-1.2-0.1-1.5-0.3C254.6,73.4,254.3,73.1,254.1,72.6z M335.7,73c-0.3-0.4-0.6-1.2-0.6-2.2V64c0-1-0.1-1.8-0.5-2.5
	s-0.9-1.2-1.5-1.5c-0.7-0.3-1.4-0.5-2.3-0.5c-3,0-4.2,1.9-4.9,2.9h-0.3l-0.6-2.7h-4.6v0.8c0.9,0,2.3,0,2.3,0v10.4
	c0,0.8,0,1.4-0.2,1.8c-0.1,0.5-0.4,0.8-0.9,1c-0.3,0.1-0.7,0.2-1.3,0.2v0.9h7.4v-1c-0.7,0-1.3-0.3-1.5-0.7c-0.3-0.4-0.4-1.1-0.4-2.1
	v-4c0-1.7,0-3.3,0.6-4.3c0.6-1.1,1.7-1.7,3-1.7c1.1,0,1.7,0.4,2.1,1.1c0.3,0.6,0.5,2.3,0.5,3.5v4.9c0,0.8,0.1,1.4,0,1.8
	c-0.1,0.5-0.3,0.8-0.7,1c-0.3,0.2-0.7,0.3-1.2,0.3v1h7.2v-0.9C336.6,73.6,336,73.4,335.7,73L335.7,73z M318.1,73.1
	c-0.9,0-1.2-0.5-1.3-1.3v-2v-6.3c0-1.3-0.2-2.3-1-3.1s-2.3-1.2-4.6-1.2c-2.1,0-3.7,0.4-4.7,1.2c-1,0.7-1.3,1.4-1.3,2.4
	c0,0.5,0.1,0.8,0.4,1s0.6,0.3,0.9,0.3c0.8,0,1.3-0.4,1.5-1.5c0.1-0.8,0.3-1.3,0.7-1.7c0.4-0.5,1.1-0.7,2-0.7c1.1,0,1.9,0.3,2.3,0.9
	c0.4,0.6,0.6,1.3,0.6,2.2v2.5c-2.7,0.2-9.2,0.8-9,5.7c0.1,2,1.8,3.6,4,3.6c2.4,0,4-1.4,5-2.5c0.2,1.1,1.2,2.3,2.9,2.3
	c2,0,3.2-1,3.3-3.4h-0.5C319.3,72.5,318.7,73.1,318.1,73.1L318.1,73.1z M313.7,71.5L313.7,71.5l-0.1,0.1c-1.5,1.3-2.6,1.8-3.4,1.8
	c-2.1,0-2.4-1.8-2.4-2.6c0-2.8,3.9-4.2,5.9-4.2V71.5z M265.3,59.2c-4.4,0-7.2,2.9-7.2,8c0,7.5,5.9,8,7.1,8c2.5,0,7.2-1.5,7.2-8.1
	C272.4,61.9,269.4,59.2,265.3,59.2L265.3,59.2z M265.2,74.3c-3.3,0-3.9-1.7-3.9-7c0-4.1,0.3-7.2,3.9-7.2c3.9,0,3.9,3.2,3.9,6.9
	C269.1,72.4,268.2,74.3,265.2,74.3z M302.7,58.5c-0.1,0-0.3,0-0.5,0.1c-0.5,0.1-0.7,0.6-0.9,1.2c-0.1,0.6-0.4,1-0.7,1.1
	c-0.3,0.1-0.7,0-1.1-0.1c-0.8-0.7-2.2-1.6-4.8-1.6c-4.2,0-6,3-6,5.7c0,3.2,1.2,4.7,3.9,5.3c0.2,0,0.2,0.2,0,0.2
	c-2.3,0.5-4.3,1.1-4.3,3.3c0,1.3,0.7,2,1.7,2.4c1.1,0.4,2.6,0.7,4.5,0.7c1.6,0,2.8,0.1,3.6,0.2c0.8,0.1,1.5,0.3,2,0.7
	c0.5,0.4,0.7,0.9,0.7,1.7c0,1-0.6,1.8-1.6,2.4s-2.4,0.8-4.1,0.8c-1.4,0-2.6-0.1-3.7-0.8c-0.8-0.5-1-1.5-0.8-2.2
	c0.1-0.7-0.1-1.4-0.9-1.6c-0.5-0.1-1,0.2-1.3,0.6c-0.2,0.4-0.3,0.8-0.3,1.4c0,1.8,1.4,2.6,2.5,2.9c1.6,0.5,2.7,0.6,4.2,0.6
	c2,0,3.6-0.3,4.7-0.9c1.2-0.6,2-1.3,2.4-2.1c0.5-0.8,0.7-1.7,0.7-2.5c0-1.1-0.2-2-0.7-2.6c-1.5-2-3.6-1.8-8.4-2
	c-2.3,0-2.7-0.4-2.7-1.1c0-1,0.8-1.4,4.2-2c3.3-0.5,6.3-1.7,6.3-5.7c0-1.2-0.3-2.1-0.6-2.8c0.7,0.1,1.3,0.1,1.9,0
	c0.7-0.2,1.1-0.5,1.3-1c0.2-0.5,0.3-0.9,0.2-1.3C303.5,58.8,303.2,58.5,302.7,58.5L302.7,58.5z M294.8,69.6c-2,0-3.1-0.7-3.1-4.7
	c0-2.8,1-4.9,3.1-4.9c2.4,0,3.2,1.9,3.2,4.8C297.9,69,296.6,69.6,294.8,69.6z"/>
<g>
	<path class="st0" d="M434.1,74c-0.2-1.2-0.9-2-2-2.1s-2,0.6-2.3,1.7c-0.2,0.8-0.2,1.5,0.1,2.3c0.3,0.9,1.1,1.5,2,1.5
		c1,0,1.7-0.5,2-1.5c0.1-0.4,0.2-0.8,0.2-1.2l0,0C434.2,74.4,434.2,74.2,434.1,74L434.1,74z"/>
	<path class="st0" d="M398.6,13.3v83.6h83.6V13.3H398.6z M458.6,39.9c1.3,0,2.3,1.1,2.3,2.4s-1.1,2.4-2.4,2.3
		c-1.3,0-2.3-1.1-2.3-2.4S457.3,39.9,458.6,39.9z M453.2,36.8c1.3,0,2.4,1,2.4,2.3s-1,2.4-2.4,2.4c-1.3,0-2.4-1-2.4-2.3
		C450.9,37.9,451.9,36.8,453.2,36.8z M447.3,38.7c1.3,0,2.4,1.1,2.4,2.4c0,1.3-1.1,2.4-2.4,2.4s-2.4-1.1-2.4-2.4
		C444.9,39.7,446,38.7,447.3,38.7z M436.2,36.5v-2.2c0.5,0.2,1,0.3,1.5,0.5c0.4,0.1,0.8,0.3,1.1,0.3c0.2,0,0.4,0,0.5,0
		c0.1-0.1,0.1-0.3,0.1-0.5c-0.3-1.1-0.6-2.1-1-3.2c0-0.1,0-0.2-0.1-0.3h4.3c-0.4,1.1-0.7,2.2-1.1,3.3c0,0.2-0.1,0.5,0,0.5
		c0.1,0.1,0.4,0.1,0.5,0c0.8-0.2,1.7-0.5,2.5-0.8v4.4c-1-0.5-1.9-1-3.1-1.6c0,0.3-0.1,0.6,0,0.8l1.5,4.7c0.5,1.6-0.3,3.2-2,3.6
		c-2,0.5-3.9-1.3-3.3-3.3c0.5-1.7,1.1-3.3,1.6-4.9c0.1-0.2,0-0.5,0-0.8c-1.1,0.6-2,1.1-3.1,1.6C436.2,37.9,436.2,37.2,436.2,36.5
		L436.2,36.5z M433.5,38.7c1.3,0,2.4,1.1,2.4,2.4c0,1.3-1.1,2.4-2.4,2.4s-2.4-1.1-2.4-2.4C431.2,39.7,432.2,38.7,433.5,38.7z
		 M427.6,36.8c1.3,0,2.4,1,2.4,2.4c0,1.3-1,2.4-2.4,2.4c-1.3,0-2.4-1.1-2.4-2.4C425.2,37.9,426.3,36.9,427.6,36.8z M426.1,57
		c-0.8-0.4-1.5-1-2.5-1c0.8,1.5,1.6,2.9,3.2,3.6c1.7,0.7,3.5-0.6,3.3-2.4c-0.1-0.7-0.5-1.3-1.1-1.4c-0.5-0.1-1,0.2-1.4,0.8
		c0,0.1-0.1,0.2-0.2,0.3c-0.4-0.9-0.6-1.7-0.2-2.5c0.6-0.9,1.5-0.8,2.6-0.6c-2.2-2.2-2.5-4.5-0.6-6.9c1,0.8,1.9,1.7,2.2,3
		c0.3,1.3-0.2,2.5-0.6,3.8c0.9-0.6,1.7-1.1,2.6-0.3c0.6,0.5,0.8,1.5,0.3,2.6c-0.2-0.2-0.3-0.4-0.5-0.5c-0.6-0.6-1.4-0.4-1.8,0.4
		c-0.4,0.9-0.2,1.9,0.7,2.6c1,0.8,2.2,1.1,3.5,1c0.3,0,0.6,0,0.9-0.1c1.9-0.4,2.8-1.5,3-3.5c0-0.3,0-0.7,0.1-1.1
		c-1.7,0.1-2.6,1.3-3.6,2.4c-0.2-1.8-0.3-3.5-0.5-5.3c0.6,0.4,1.2,0.9,1.9,1.2c0.6,0.3,1.4,0.4,2.1,0.5c-0.5-1.5-1.5-2.6-2.5-3.9
		h6.7c-0.5,0.6-1,1.2-1.4,1.9c-0.4,0.6-0.8,1.3-1.3,2c1.7,0,3-0.6,4.2-1.7c-0.2,1.9-0.3,3.6-0.5,5.4c-1-1.2-2-2.3-3.6-2.4
		c-0.1,3.4,1.4,4.8,4.6,4.7c0.9,0,1.7-0.3,2.5-0.8s1.3-1.3,1.2-2.2c-0.1-0.6-0.3-1.1-0.8-1.3c-0.6-0.2-1,0.1-1.3,0.5
		c0,0.1-0.1,0.1-0.2,0.2c-0.5-0.8-0.3-2,0.3-2.5c0.6-0.6,1.5-0.5,2.7,0.4c-1.2-2.8-0.9-5.1,1.6-6.8c1.5,1.9,2.1,4.1-0.5,6.9
		c1-0.3,1.9-0.3,2.5,0.6c0.5,0.8,0.3,1.6-0.1,2.5c-0.2-0.2-0.3-0.5-0.5-0.6c-0.6-0.8-1.5-0.7-2,0.2c-0.4,0.7-0.3,1.7,0.2,2.4
		c0.6,0.8,1.6,1.1,2.5,0.8s1.6-0.8,2.1-1.5c0.5-0.6,0.9-1.4,1.3-2.1c-0.9-0.1-1.6,0.5-2.4,0.9c0.5-1.7,1-3.3,1.5-5
		c0.5,0.9,0.9,1.8,1.3,2.7l0.2-0.1c0.5-1.1,0.2-2.2,0-3.3c1.1,0.4,2.1,0.8,3.2,1.1c-0.1,0.2-0.2,0.3-0.2,0.4c-2,2.8-3.1,6-4,9.3
		c-0.1,0.4-0.2,0.8-0.3,1.1c0,0.4-0.3,0.5-0.6,0.4c-5.7-0.8-11.3-1.1-17-1c-4.5,0.1-9,0.3-13.4,1c-0.4,0.1-0.6,0-0.7-0.5
		c-0.7-3-1.7-5.9-3.2-8.6c-0.4-0.7-0.8-1.4-1.3-2.1c1-0.4,2-0.7,3.2-1.1c-0.2,1.1-0.4,2.2,0,3.4c0.7-0.8,1.1-1.7,1.4-2.7
		C425.1,53.6,425.6,55.3,426.1,57L426.1,57z M422.2,39.9c1.3,0,2.3,1.1,2.3,2.4c0,1.3-1.1,2.4-2.4,2.4s-2.4-1.1-2.4-2.4
		C419.9,41,421,39.9,422.2,39.9z M418.3,48.2c0-1.3,1.1-2.4,2.4-2.4s2.4,1,2.4,2.4c0,1.3-1,2.3-2.4,2.3
		C419.4,50.6,418.3,49.5,418.3,48.2z M427,78.7h-1.4c0-0.2,0-0.5,0-0.8c-0.8,0.8-1.8,1.1-2.8,0.9c-1.7-0.3-2.8-1.5-3.1-3.2
		c-0.2-1-0.1-1.9,0.3-2.9c0.6-1.4,1.7-2.2,3.3-2.3c1.7-0.1,3,0.6,3.7,1.9c-0.5,0.3-0.9,0.5-1.4,0.8c-0.3-0.3-0.6-0.7-1-0.9
		c-1-0.6-2.4-0.2-2.9,0.8c-0.5,1.1-0.5,2.2,0,3.3c0.5,1,1.8,1.4,2.8,0.9c0.6-0.3,0.9-0.8,0.9-1.6h-2v-1.3h3.7
		C427,75.7,427,77.2,427,78.7L427,78.7z M433.9,78.4c-1.4,0.7-2.8,0.6-4.1-0.2c-1.2-0.8-1.6-2-1.7-3.3c-0.1-2,0.9-3.7,2.7-4.3
		c2.8-0.9,5.3,1,5.2,4.5C435.9,76.2,435.3,77.6,433.9,78.4z M438.8,78.7c-0.1,0-0.3-0.1-0.3-0.2c-0.8-2.7-1.5-5.3-2.3-8
		c0.6,0,1.1,0,1.6,0c0.1,0,0.3,0.2,0.3,0.4c0.5,1.8,0.9,3.6,1.4,5.4c0,0.1,0,0.2,0.2,0.3c0.5-2,1-4,1.5-6h1.9
		c-0.8,2.8-1.6,5.5-2.3,8.2h-2V78.7z M444.1,78.9c-0.6,0-1.1-0.5-1.1-1.1s0.5-1.1,1.1-1.1s1.1,0.5,1,1.1
		C445.1,78.4,444.7,78.9,444.1,78.9z M452.8,71.4v4.2c0,1.9-1.1,3.1-2.9,3.2c-0.7,0-1.5-0.1-2.2-0.3c-1-0.4-1.6-1.2-1.7-2.3
		c-0.1-1.7,0-3.5,0-5.3c0-0.1,0-0.2,0-0.4h1.7v5.1c0,1.4,1,2.1,2.3,1.7c0.7-0.2,1.1-0.8,1.1-1.6v-5.1h1.7V71.4z M459.2,78.7
		c-0.2,0-0.3-0.2-0.4-0.3c-0.6-1.1-1.3-2.2-2-3.3c-0.5,0.6-1.2,1-1.1,1.9c0.1,0.6,0,1.1,0,1.7H454v-8.2h1.6v3.4h0.1
		c0.6-0.8,1.4-1.5,1.9-2.3c0.6-0.9,1.3-1.3,2.4-1.1c0.2,0,0.3,0,0.6,0c-0.8,0.9-1.5,1.7-2.3,2.6c-0.6,0.7-0.6,0.7-0.1,1.5
		c0.8,1.4,1.7,2.7,2.6,4.2L459.2,78.7L459.2,78.7z M460.2,50.6c-1.3,0-2.4-1-2.4-2.3s1-2.4,2.3-2.4s2.4,1,2.4,2.3
		C462.5,49.5,461.5,50.6,460.2,50.6L460.2,50.6z"/>
</g>
<g>
	<path class="st0" d="M600.5,27.8c-17.6,0-31.9,14.3-31.9,31.9h2.3c0-16.3,13.3-29.6,29.6-29.6s29.6,13.3,29.6,29.6h2.3
		C632.4,42.1,618.1,27.8,600.5,27.8 M600.5,32.1c-15.2,0-27.6,12.4-27.6,27.6h2.3c0-13.9,11.3-25.3,25.3-25.3
		c13.9,0,25.3,11.3,25.3,25.3h2.3C628.1,44.5,615.7,32.1,600.5,32.1 M600.5,36.4c-12.8,0-23.3,10.4-23.3,23.3h2.3
		c0-11.5,9.4-20.9,20.9-20.9s20.9,9.4,20.9,20.9h2.3C623.8,46.9,613.3,36.4,600.5,36.4 M600.5,40.8c-10.4,0-18.9,8.5-18.9,18.9h2.3
		c0-9.1,7.4-16.6,16.6-16.6c9.1,0,16.6,7.4,16.6,16.6h2.3C619.4,49.3,611,40.8,600.5,40.8 M600.5,45.1c-8,0-14.6,6.5-14.6,14.6h2.3
		c0-6.8,5.5-12.3,12.3-12.3s12.3,5.5,12.3,12.3h2.3C615.1,51.6,608.5,45.1,600.5,45.1"/>
	<path class="st0" d="M542.9,72.9c0,2.3,1.7,2.5,2.6,2.5c0.3,0,0.5,0,0.5,0v-1.1c0,0-0.1,0-0.3,0c-0.5,0-1.4-0.2-1.4-1.5v-3.1h1.6
		v-1h-1.6v-1.8H543v1.8h-0.9v1h0.9L542.9,72.9L542.9,72.9z M547,67.4v8h1.3v-3.2c0-0.3,0-0.6,0.1-0.9c0.3-1,1.1-1.7,2.1-1.7
		c1.1,0,1.3,0.8,1.3,1.7v3.2c0,0.6,0.3,0.8,0.8,0.8h1.3v-1.1h-0.5c-0.2,0-0.3-0.1-0.3-0.3V71c0-1.7-0.7-2.6-2.3-2.6
		c-1.3,0-2.2,0.8-2.5,1.5l0,0c0,0,0-0.3,0-0.5v-2.6c0-0.6-0.3-0.8-0.8-0.8h-1.3v1.1h0.5C546.9,67.1,547,67.2,547,67.4 M558,75.5
		c1.6,0,2.6-1,2.6-1l-0.5-0.9c0,0-0.8,0.8-2,0.8s-2.3-0.8-2.3-2.3h4.9c0,0,0-0.4,0-0.5c0-1.8-1-3.2-2.9-3.2s-3.4,1.4-3.4,3.5
		C554.4,74,555.9,75.5,558,75.5 M557.8,69.5c0.8,0,1.5,0.6,1.6,1.7h-3.6C556,70.1,556.8,69.5,557.8,69.5"/>
	<path class="st0" d="M572.6,70.3c0.1-0.3,0.2-0.5,0.3-0.8c0,0.3,0,0.5,0,0.8l0.3,4.2c0,0.6,0.3,1,1,1h1.6v-1.7h-0.5
		c-0.1,0-0.2,0-0.2-0.2l-0.6-7.8h-2l-2,4.6c-0.1,0.3-0.3,0.7-0.4,1c-0.1-0.3-0.3-0.7-0.4-1l-2-4.6h-2l-0.6,7.8
		c0,0.2-0.1,0.2-0.2,0.2h-0.5v1.7h1.6c0.7,0,1-0.3,1-1l0.3-4.2v-0.8c0.1,0.3,0.2,0.6,0.3,0.8l1.6,3.5h1.5L572.6,70.3L572.6,70.3z
		 M580,68.3c-2.2,0-3.8,1.6-3.8,3.7s1.6,3.7,3.8,3.7s3.8-1.6,3.8-3.7S582.2,68.3,580,68.3 M580,73.9c-1.1,0-1.9-0.9-1.9-2
		s0.8-2,1.9-2c1.1,0,1.9,0.9,1.9,2C581.9,73.1,581.1,73.9,580,73.9 M588.6,70.1c0.7,0,1,0.4,1,1.3v3.1c0,0.7,0.3,1,1,1h1.7v-1.7
		h-0.6c-0.1,0-0.2,0-0.2-0.2V71c0-1.8-0.8-2.7-2.5-2.7c-1.3,0-1.9,0.7-2.3,1.1v-0.1c0-0.5-0.4-0.9-1-0.9H584v1.7h0.7
		c0.1,0,0.2,0,0.2,0.2v5.2h1.9v-3.2c0-0.3,0-0.6,0.1-0.9C587.2,70.6,587.8,70.1,588.6,70.1"/>
	<path class="st0" d="M596.2,75.6c1.7,0,2.8-1,2.8-1l0.1-0.1l-0.8-1.4l-0.1,0.1c0,0-0.8,0.7-1.8,0.7s-1.8-0.6-1.9-1.6h4.7v-0.1
		c0,0,0-0.4,0-0.6c0-2-1.3-3.3-3.1-3.3c-2.1,0-3.5,1.5-3.5,3.7C592.5,74.1,594.1,75.6,596.2,75.6 M594.5,70.9
		c0.2-0.7,0.8-1.1,1.5-1.1c0.6,0,1.1,0.5,1.2,1.1H594.5L594.5,70.9z M601,76.6c-0.5,0-0.9-0.4-0.9-0.4l-0.1-0.1l-0.8,1.4l0,0
		c0,0,0.7,0.7,1.8,0.7c1.2,0,2.1-0.7,2.5-1.8l2.4-6.1c0-0.1,0.1-0.2,0.3-0.2h0.3v-1.7h-1.3c-0.5,0-0.8,0.2-1,0.7l-1.2,3.4
		c0,0.1-0.1,0.3-0.1,0.5c0-0.2-0.1-0.3-0.1-0.5l-1.3-3.4c-0.2-0.5-0.5-0.7-1-0.7h-1.3v1.7h0.3c0.2,0,0.2,0,0.3,0.2l2.3,5l-0.2,0.5
		C601.8,76.3,601.5,76.6,601,76.6 M550.1,85.5l-2.8-7.8h-2l-2.8,7.8c0,0.2-0.1,0.2-0.3,0.2h-0.3v1.7h1.2c0.7,0,1-0.2,1.2-0.8
		l0.5-1.6h3l0.5,1.6c0.3,0.7,0.5,0.8,1.2,0.8h1.2v-1.7h-0.3C550.2,85.7,550.1,85.7,550.1,85.5 M546.3,80.2c0.1,0.3,0.2,0.7,0.3,1
		l0.8,2.2h-2.1l0.8-2.2C546.1,80.8,546.2,80.4,546.3,80.2 M557.8,85.6v-6.8c0-0.7-0.3-1-1-1h-1.7v1.7h0.7c0.1,0,0.2,0,0.2,0.2V81
		c-0.3-0.3-0.8-0.6-1.8-0.6c-1.9,0-3.2,1.5-3.2,3.7s1.3,3.7,3.1,3.7c1.1,0,1.8-0.5,2-0.9c0,0.3,0.2,0.8,1,0.8h1.7V86h-0.6
		C557.9,85.8,557.8,85.7,557.8,85.6 M554.4,86c-1,0-1.5-0.8-1.5-2s0.6-2,1.6-2c1.1,0,1.5,1,1.5,2C555.9,85.4,555.1,86,554.4,86
		 M563.5,81.2l-1.3,3.6l-0.1,0.5c0-0.2-0.1-0.4-0.2-0.5l-1.3-3.6c-0.2-0.5-0.5-0.7-1.1-0.7h-1.1v1.7h0.3c0.2,0,0.2,0,0.3,0.2l2,5.2
		h2.2l2-5.2c0-0.1,0.1-0.2,0.3-0.2h0.3v-1.7h-1C564,80.4,563.7,80.6,563.5,81.2 M568.9,85.6v-4.2c0-0.7-0.3-1-1-1h-1.7v1.7h0.7
		c0.1,0,0.2,0,0.2,0.2v4.2c0,0.7,0.3,1,1,1h1.7v-1.7H569C568.9,85.8,568.9,85.7,568.9,85.6"/>
	<path class="st0" d="M567,77.8h1.7v1.8H567V77.8z M575.7,85c0,0-0.8,0.9-1.9,0.9c-1,0-2-0.6-2-2c0-1.2,0.8-2,1.9-2
		c0.3,0,0.9,0.1,0.9,0.4v0.5h1.7v-0.9c0-1.2-1.5-1.7-2.6-1.7c-2.5,0-3.8,1.8-3.8,3.7c0,2.1,1.6,3.7,3.8,3.7c1.9,0,2.9-1.2,3-1.3
		v-0.1l-0.8-1.4L575.7,85L575.7,85z M580.4,80.3c-2.1,0-3.5,1.5-3.5,3.7c0,2.1,1.6,3.7,3.8,3.7c1.7,0,2.8-1,2.8-1l0.1-0.1l-0.8-1.4
		l-0.1,0.1c0,0-0.8,0.7-1.8,0.7s-1.8-0.6-1.9-1.6h4.7v-0.1c0,0,0-0.4,0-0.6C583.5,81.6,582.3,80.3,580.4,80.3 M580.4,81.8
		c0.6,0,1.1,0.5,1.2,1.1h-2.7C579.1,82.2,579.6,81.8,580.4,81.8 M591.4,81.6c-0.9-0.4-1.6-0.7-1.6-1.3c0-0.5,0.5-0.9,1.3-0.9
		c0.5,0,1.1,0.3,1.1,0.6v0.5h1.8v-1c0-1.5-1.8-2-2.9-2c-1.9,0-3.3,1.2-3.3,2.8c0,1.8,1.5,2.5,2.8,3c0.9,0.4,1.7,0.8,1.7,1.4
		c0,0.7-0.6,1-1.3,1c-1.3,0-2.2-1.1-2.2-1.1l-0.1-0.1l-1.1,1.4V86c0,0,1.2,1.5,3.3,1.5c1.9,0,3.3-1.2,3.3-2.9
		C594.2,82.8,592.7,82.2,591.4,81.6 M598.3,80.3c-2.1,0-3.5,1.5-3.5,3.7c0,2.1,1.6,3.7,3.8,3.7c1.7,0,2.8-1,2.8-1l0.1-0.1l-0.8-1.4
		l-0.1,0.1c0,0-0.8,0.7-1.8,0.7s-1.8-0.6-1.9-1.6h4.7v-0.1c0,0,0-0.4,0-0.6C601.5,81.6,600.2,80.3,598.3,80.3 M598.3,81.8
		c0.6,0,1.1,0.5,1.2,1.1h-2.7C597,82.2,597.6,81.8,598.3,81.8 M606.5,80.3c-0.8,0-1.6,0.5-2,1.3v-0.3c0-0.6-0.3-1-1-1h-1.7V82h0.7
		c0.1,0,0.2,0,0.2,0.2v5.2h1.9v-2.8c0-0.4,0-0.8,0.1-1.1c0.3-1,1.1-1.3,1.8-1.3c0.2,0,0.4,0,0.4,0h0.1v-1.9h-0.1
		C606.8,80.4,606.7,80.3,606.5,80.3 M612.5,81.2l-1.3,3.6l-0.1,0.5c0-0.2-0.1-0.4-0.2-0.5l-1.3-3.6c-0.2-0.5-0.5-0.7-1.1-0.7h-1.1
		v1.7h0.3c0.2,0,0.2,0,0.3,0.2l2,5.2h2.2l2-5.2c0-0.1,0.1-0.2,0.3-0.2h0.3v-1.7h-1C613,80.4,612.6,80.6,612.5,81.2"/>
	<path class="st0" d="M615.9,77.8h1.7v1.8h-1.7V77.8z M617.8,85.6v-4.2c0-0.7-0.3-1-1-1H615v1.7h0.7c0.1,0,0.2,0,0.2,0.2v4.2
		c0,0.7,0.3,1,1,1h1.7v-1.7h-0.7C617.8,85.8,617.8,85.7,617.8,85.6"/>
	<path class="st0" d="M624.7,85c0,0-0.8,0.9-1.9,0.9c-1,0-2-0.6-2-2c0-1.2,0.8-2,1.9-2c0.3,0,0.9,0.1,0.9,0.4v0.5h1.7v-0.9
		c0-1.2-1.5-1.7-2.6-1.7c-2.5,0-3.8,1.8-3.8,3.7c0,2.1,1.6,3.7,3.8,3.7c1.9,0,2.9-1.2,3-1.3v-0.1l-0.8-1.4L624.7,85L624.7,85z
		 M632.4,84.2c0,0,0-0.4,0-0.6c0-2-1.3-3.3-3.1-3.3c-2.1,0-3.5,1.5-3.5,3.7c0,2.1,1.6,3.7,3.8,3.7c1.7,0,2.8-1,2.8-1l0.1-0.1
		l-0.8-1.4l-0.1,0.1c0,0-0.8,0.7-1.8,0.7s-1.8-0.6-1.9-1.6L632.4,84.2L632.4,84.2z M629.3,81.8c0.6,0,1.1,0.5,1.2,1.1h-2.7
		C628,82.2,628.6,81.8,629.3,81.8"/>
	<g>
		<g>
			<path id="SVGID_1_" class="st0" d="M541.8,59.7h2.3c0-11.5,9.4-20.9,20.9-20.9c3.5,0,6.7,0.8,9.5,2.3c0.5-0.6,1-1.3,1.5-1.9
				c-3.3-1.8-7-2.8-11-2.8C552.2,36.4,541.8,46.9,541.8,59.7"/>
		</g>
		<g>
			<defs>
				<path id="SVGID_2_" d="M541.8,59.7h2.3c0-11.5,9.4-20.9,20.9-20.9c3.5,0,6.7,0.8,9.5,2.3c0.5-0.6,1-1.3,1.5-1.9
					c-3.3-1.8-7-2.8-11-2.8C552.2,36.4,541.8,46.9,541.8,59.7"/>
			</defs>
			<clipPath id="SVGID_4_">
				<use xlink:href="#SVGID_2_"  style="overflow:visible;"/>
			</clipPath>
			<path class="st3" d="M541.8,36.4h34.3v23.3h-34.3V36.4z"/>
		</g>
	</g>
	<g>
		<g>
			<path id="SVGID_3_" class="st0" d="M546.1,59.7h2.3c0-9.1,7.4-16.6,16.5-16.6c2.6,0,5.1,0.6,7.3,1.7c0.4-0.7,0.8-1.4,1.2-2
				c-2.5-1.3-5.4-2-8.4-2C554.6,40.8,546.1,49.3,546.1,59.7"/>
		</g>
		<g>
			<defs>
				<path id="SVGID_6_" d="M546.1,59.7h2.3c0-9.1,7.4-16.6,16.5-16.6c2.6,0,5.1,0.6,7.3,1.7c0.4-0.7,0.8-1.4,1.2-2
					c-2.5-1.3-5.4-2-8.4-2C554.6,40.8,546.1,49.3,546.1,59.7"/>
			</defs>
			<clipPath id="SVGID_8_">
				<use xlink:href="#SVGID_6_"  style="overflow:visible;"/>
			</clipPath>
			<path class="st4" d="M546.1,40.8h27.3v18.9h-27.3V40.8z"/>
		</g>
	</g>
	<g>
		<g>
			<path id="SVGID_5_" class="st0" d="M550.5,59.7h2.3c0-6.8,5.5-12.3,12.3-12.3c2,0,3.8,0.5,5.5,1.3c0.3-0.8,0.6-1.5,0.9-2.2
				c-1.9-1-4.1-1.5-6.4-1.5C557,45.1,550.5,51.6,550.5,59.7"/>
		</g>
		<g>
			<defs>
				<path id="SVGID_10_" d="M550.5,59.7h2.3c0-6.8,5.5-12.3,12.3-12.3c2,0,3.8,0.5,5.5,1.3c0.3-0.8,0.6-1.5,0.9-2.2
					c-1.9-1-4.1-1.5-6.4-1.5C557,45.1,550.5,51.6,550.5,59.7"/>
			</defs>
			<clipPath id="SVGID_11_">
				<use xlink:href="#SVGID_10_"  style="overflow:visible;"/>
			</clipPath>
			<path class="st5" d="M550.5,45.1h21v14.6h-21V45.1z"/>
		</g>
	</g>
	<g>
		<g>
			<path id="SVGID_7_" class="st0" d="M554.8,59.7h2.3c0-4.3,3.5-7.9,7.9-7.9c1.6,0,3,0.5,4.3,1.3c0.2-0.8,0.4-1.6,0.6-2.4
				c-1.5-0.8-3.1-1.3-4.9-1.3C559.4,49.4,554.8,54.1,554.8,59.7"/>
		</g>
		<g>
			<defs>
				<path id="SVGID_12_" d="M554.8,59.7h2.3c0-4.3,3.5-7.9,7.9-7.9c1.6,0,3,0.5,4.3,1.3c0.2-0.8,0.4-1.6,0.6-2.4
					c-1.5-0.8-3.1-1.3-4.9-1.3C559.4,49.4,554.8,54.1,554.8,59.7"/>
			</defs>
			<clipPath id="SVGID_13_">
				<use xlink:href="#SVGID_12_"  style="overflow:visible;"/>
			</clipPath>
			<path class="st6" d="M554.8,49.4h15.1v10.3h-15.1V49.4z"/>
		</g>
	</g>
	<g>
		<g>
			<path id="SVGID_9_" class="st0" d="M559.2,59.7h2.3c0-2,1.6-3.6,3.6-3.6s3.6,1.6,3.6,3.6c0-1.5,0.1-3,0.3-4.5
				c-1-0.9-2.4-1.5-3.9-1.5C561.8,53.8,559.2,56.4,559.2,59.7"/>
		</g>
		<g>
			<defs>
				<path id="SVGID_14_" d="M559.2,59.7h2.3c0-2,1.6-3.6,3.6-3.6s3.6,1.6,3.6,3.6c0-1.5,0.1-3,0.3-4.5c-1-0.9-2.4-1.5-3.9-1.5
					C561.8,53.8,559.2,56.4,559.2,59.7"/>
			</defs>
			<clipPath id="SVGID_15_">
				<use xlink:href="#SVGID_14_"  style="overflow:visible;"/>
			</clipPath>
			<path class="st7" d="M559.2,53.8h9.8v5.9h-9.8V53.8z"/>
		</g>
	</g>
</g>
<path class="st0" d="M777.9,76.3c0-2.6-0.7-4.8-2.1-6.2c-1-1-2.3-1.5-4-1.5h-2.3v16.1h8.5L777.9,76.3L777.9,76.3z M791.2,84.7V72
	c0-6.7-2-12.1-5.6-15.8c-3.2-3.2-7.7-4.9-12.8-4.9h-3.4v16h2.3c2,0,3.7,0.6,4.9,1.9c1.6,1.6,2.4,4.1,2.4,7.1v8.4L791.2,84.7
	L791.2,84.7z M769.4,34.1V50h3.4c5.4,0,10.2,1.9,13.7,5.3c3.9,3.9,6,9.7,6,16.7v12.7h14.9V73.4C807.5,50.8,791.7,34.1,769.4,34.1
	L769.4,34.1z M737.5,49.7h-3.2V37.3h-4.5v-2.7H742v2.7h-4.5V49.7z M746.1,43v6.7h-3.2V34.6h3.2v5.7h5.9v-5.7h3.2v15.1H752V43H746.1z
	 M767.3,37.3h-8v3.2h7.3v2.6h-7.3V47h8.4v2.7h-11.5V34.6h11.1V37.3z M709.6,52.2h2.9v15.1h-3.2l-6.2-10.8l0,0v10.8h-2.9V52.2h3.3
	l6,10.5l0,0V52.2H709.6z M749.4,67.3h-3.1V54.8h-4.6v-2.6H754v2.6h-4.6V67.3z M758,60.5v6.8h-3.2V52.2h3.2v5.7h5.9v-5.7h3.1v15.1h-3
	v-6.8C764,60.5,758,60.5,758,60.5z M722,84.9h-3.2V69.7h10.8v2.7H722v3.4h6.6v2.7H722V84.9z M751.8,74.7c-0.2-0.9-0.7-2.6-3.3-2.6
	c-1.5,0-3.8,1-3.8,5.3c0,2.7,1.1,5.2,3.8,5.2c1.8,0,3-1,3.3-2.8h3.2c-0.6,3.3-2.8,5.6-6.6,5.6c-4,0-6.9-2.7-6.9-7.9c0-5.3,3-8,6.9-8
	c4.5,0,6.4,3.1,6.6,5.3L751.8,74.7L751.8,74.7z M767.3,72.4h-8v3.2h7.3v2.7h-7.3v3.9h8.4v2.7h-11.5V69.7h11.1V72.4z M720.5,51.8
	c-2,0-7.3,0.9-7.3,8s5.3,8,7.3,8s7.3-0.9,7.3-8C727.8,52.6,722.5,51.8,720.5,51.8z M720.5,65c-1.7,0-4.1-1.1-4.1-5.3
	c0-4.3,2.4-5.3,4.1-5.3c1.7,0,4.1,1.1,4.1,5.3C724.6,64,722.2,65,720.5,65z M740.6,63.9c0-2.8-0.7-3.3-1.9-3.8
	c1.5-0.5,2.3-2,2.3-3.6c0-1.3-0.7-4.3-4.7-4.3h-7.7v15.1h3.1v-5.9h3.3c2.3,0,2.4,0.8,2.4,2.9c0,1.6,0.1,2.3,0.3,3h3.5v-0.4
	C740.6,66.7,740.6,66.1,740.6,63.9L740.6,63.9z M735.4,58.8h-3.7v-4.1h4c1.9,0,2.2,1.2,2.2,2C737.8,58.3,737.1,58.8,735.4,58.8z
	 M737,69.7h-3.7l-5.4,15.1h3.3l1.1-3.1h5.6l1,3.1h3.4L737,69.7z M733.2,79.2l2-6l0,0l1.9,6H733.2z M714.9,78.3
	c-1.7,0-3.2,1.2-3.2,3.2c0,2.1,1.5,3.2,3.2,3.2s3.2-1.2,3.2-3.2C718.1,79.5,716.6,78.3,714.9,78.3z M714.9,84.1
	c-1.3,0-2.3-1-2.3-2.5s1-2.5,2.3-2.5c1.2,0,2.3,1,2.3,2.5C717.2,83,716.1,84.1,714.9,84.1z M715.5,81.8c0.4,0,0.8-0.2,0.8-0.9
	c0-0.8-0.5-1-1.4-1h-1.3v3.5h0.7v-1.5h0.3l0.8,1.5h0.9C716.3,83.3,715.5,81.8,715.5,81.8z M715,81.2h-0.6v-0.8h0.5
	c0.3,0,0.7,0,0.7,0.4C715.5,81.2,715.3,81.2,715,81.2z"/>
<g>
	<path class="st0" d="M911.2,39.3c-4.3-4.3-11.4-4.3-15.7,0s-4.4,11.4,0,15.7l7.9,7.8l7.7-7.8C915.5,50.6,915.6,43.6,911.2,39.3z
		 M903.4,54.5c-4,0-7.3-3.3-7.3-7.3s3.3-7.3,7.3-7.3s7.3,3.3,7.3,7.3S907.4,54.5,903.4,54.5z M968.9,58.5v-3.9h-10.3v-4.7h10V46h-10
		v-4.4h10.3v-3.9h-14.7v20.7L968.9,58.5L968.9,58.5z M944.6,58.9c5.5,0,8.3-2.9,8.3-6.6c0-7.7-11.9-5.5-11.9-8.8
		c0-1.2,1.1-2.1,2.9-2.1c2.1,0,4.4,0.7,6,2.2l2.5-3.3c-2.1-1.9-4.8-2.9-8.1-2.9c-4.9,0-7.8,2.9-7.8,6.3c0,7.8,11.9,5.3,11.9,8.9
		c0,1.2-1.1,2.3-3.6,2.3c-2.9,0-5.1-1.3-6.6-2.8l-2.4,3.4C937.7,57.5,940.6,58.9,944.6,58.9 M925.3,58.9c6.3,0,9.3-3.5,9.3-8.7V37.8
		h-4.5v12.3c0,2.9-1.6,4.9-4.8,4.9s-4.9-2-4.9-4.9V37.8h-4.5v12.4C916,55.3,919,58.9,925.3,58.9 M890.8,58.5V37.8h-4.4v8.1h-9.8
		v-8.1h-4.4v20.7h4.4v-8.7h9.8v8.7L890.8,58.5L890.8,58.5z M908.8,46.8l-5.5-5.3l-5.4,5.3h1v4.6h8.8v-4.6H908.8z M925.7,63.6H916
		 M899.4,73.1h-4.7v-5.6h4.7c1.8,0,3.1,1.1,3.1,2.8C902.5,72.1,901.1,73.1,899.4,73.1 M907.1,84.4l-4.7-7.9c2.2-0.5,4.6-2.5,4.6-6.2
		c0-3.9-2.7-6.7-7-6.7h-9.7v20.7h4.4V77h2.9l4.4,7.3L907.1,84.4L907.1,84.4z M882.7,84.4V67.5h6v-3.9h-16.5v3.9h6.1v16.9H882.7z"/>
	<g>
		<path class="st0" d="M925.5,63.6h-9.7v20.7h4.4V77h5.3c4.5,0,7-3,7-6.6C932.5,66.7,930,63.6,925.5,63.6L925.5,63.6z M924.9,73.1
			h-4.7v-5.5h4.7c1.8,0,3.1,1.1,3.1,2.8C928,72,926.7,73.1,924.9,73.1L924.9,73.1z M909,63.6h4.4v20.7H909V63.6z"/>
	</g>
</g>
<path class="st0" d="M1027.3,56l9.6,11.6l9.6-11.6h-0.6l-9,8.1l-9-8.4L1027.3,56z M1045.5,70.5h-17.2c-1.5,0-2.8-1.2-2.8-2.8V56.8
	c0-1.5,1.2-2.8,2.8-2.8h17.2c1.5,0,2.8,1.2,2.8,2.8v10.9C1048.2,69.2,1047,70.5,1045.5,70.5z M1028.2,56c-0.4,0-0.8,0.4-0.8,0.8
	v10.9c0,0.4,0.4,0.8,0.8,0.8h17.2c0.4,0,0.8-0.4,0.8-0.8V56.8c0-0.4-0.4-0.8-0.8-0.8C1045.5,56,1028.2,56,1028.2,56z M1055.1,68.8
	l-3.9-12.8h4l1.3,4.7c0.3,1.1,0.6,2.6,0.8,3.6c0.4-2.1,0.4-2.1,0.8-3.6l1.2-4.7h3.9l-3.9,12.8H1055.1L1055.1,68.8z M1067.9,68.8h-4
	V56h4V68.8z M1080.7,59.2h-7v1.6h6.1v2.9h-6.1v1.7h7.2v3.4H1070V55.9h10.8C1080.7,55.9,1080.7,59.2,1080.7,59.2z M1084.7,68.8
	l-3.5-12.8h3.9l1.2,6c0.1,0.4,0.2,1.3,0.3,1.9c0.1-0.5,0.2-1.3,0.3-1.9l1.2-6h3.5l1.2,6l0.1,0.6c0,0.1,0.1,0.3,0.1,0.4
	c0.1,0.4,0.1,0.5,0.1,0.9l0.1-0.9c0.1-0.1,0.1-0.3,0.1-0.4c0.1-0.2,0.1-0.5,0.1-0.6l1.2-6h3.9l-3.3,12.8h-3.9l-1.1-5.5
	c-0.1-0.7-0.3-1.6-0.3-2.5c-0.1,1-0.2,1.6-0.4,2.5l-1.1,5.5H1084.7L1084.7,68.8z M1100.2,64.8l-1.5,4h-1.3l4.9-12.8h1.3l5.1,12.8
	h-1.3l-1.6-4H1100.2z M1103,57.3l-2.4,6.4h4.8L1103,57.3L1103,57.3z M1109.8,56h6.6c1.7,0,2.6,0.2,3.3,1c0.6,0.6,1,1.5,1,2.4
	c0,1.1-0.4,1.8-1.5,2.5c1.3,0.6,2.1,1.7,2.1,3.2c0,1.1-0.4,2.1-1.1,2.8c-0.7,0.7-1.5,1-3.4,1h-7.1L1109.8,56L1109.8,56z
	 M1116.1,60.9c0.7,0,1.1-0.3,1.1-1s-0.4-1-1.1-1h-2.4v1.9L1116.1,60.9L1116.1,60.9z M1116.1,65.7c1,0,1.6-0.4,1.6-1.1
	c0-0.7-0.5-1.1-1.6-1.1h-2.5v2.2H1116.1z M1126.9,68.8h-4V56h4V68.8z M1132.8,65.4h5.7v3.4h-9.7V56h4V65.4L1132.8,65.4z
	 M1143.4,65.4h5.7v3.4h-9.7V56h4V65.4L1143.4,65.4z"/>
<path class="st0" d="M1277,52.9c0-23.7-19.3-43-43-43s-43.1,19.3-43.1,43c0,23.8,19.3,43,43,43C1257.7,95.9,1277,76.7,1277,52.9z
	 M1274.9,52.9c0,22.6-18.3,41-41,41s-41-18.3-41-41s18.3-41,41-41C1256.6,11.8,1274.9,30.3,1274.9,52.9L1274.9,52.9z M1272.3,52.9
	c0-13.6-6.9-27.7-21.8-32.2c-3.1-0.9-5.7-1.6-8.7-1.6c-6.9,0-7.1,3.9-10.3,3.9c-1.8,0-3-1.3-3-2.9c0-2.7,3.2-4.9,8.3-4.9
	c4.8,0,8.5,1.2,9.2,1.5l0.1-0.4c-1.3-0.5-5.8-2-12.1-2c-13.7,0-27.7,7.1-32.2,21.8c-0.9,3.1-1.6,5.7-1.6,8.7c0,6.9,3.9,7.2,3.9,10.5
	c0,1.7-1.3,2.9-2.9,2.9c-2.7,0-4.9-3.1-4.9-8.4c0-4.7,1.2-8.5,1.4-9.2l-0.4-0.1c-0.4,1.4-1.9,5.8-1.9,12.2
	c0,13.8,7.1,27.8,21.8,32.3c3.1,0.9,5.7,1.5,8.7,1.5c6.9,0,7.1-4,10.3-4c1.7,0,3,1.3,3,3c0,2.6-3.1,4.8-8.4,4.8
	c-4.7,0-8.6-1.2-9.2-1.4l-0.1,0.4c1.3,0.6,5.8,1.9,12.1,1.9c13.7,0,27.8-6.9,32.2-21.8c0.9-3,1.5-5.7,1.5-8.6c0-7-3.9-7.2-3.9-10.5
	c0-1.8,1.2-3,2.9-3c2.7,0,4.9,3.2,4.9,8.5c0,4.7-1.2,8.3-1.4,9.2l0.4,0.1C1270.9,63.7,1272.3,59.3,1272.3,52.9L1272.3,52.9z
	 M1257.9,64.3c0,5.4-4.6,11-11.4,11c-8.2,0-12.4-6.9-12.4-13.1c0-8.7,6-12.4,8.5-13.7c-0.5-0.4-0.9-0.8-1.2-1.4
	c-2.9,2-5.5,3.8-11,6.9c-0.2,3.8-0.6,8-1.6,10.9c-2,6.1-6.2,10.5-11.7,10.5c-4.6,0-6.9-3.3-6.9-6.9c0-2.6,1.5-6,4.3-8.5
	c3.4-3.1,7.2-5,12.5-7.8c0.1-0.7,0.2-1.4,0.4-2.3c-1.3,1.2-3.2,1.7-4.8,1.7c-2.5,0-4.5-2.2-5-4.4c-3.3-0.2-5.8-2.6-6-6.4
	c0-2.7,1.1-5.1,2.9-5.1c0.7,0,0.9,0.6,0.9,1.1s-0.6,2-0.6,3.6s0.7,3.6,2.6,3.6c0-6.2,4.5-14.2,9.9-14.2c3.6,0,4,2.6,4,3.8
	c0,5.6-5.6,11.8-10.1,13.3c0.1,0.5,0.6,1.8,2,1.8c1.8,0,3.9-1.7,5-3c0.5-2.5,2.3-6.1,4.7-6.1c0.9,0,1.4,0.7,1.4,1.6
	c0,1.8-1.9,4-3.3,5.6c-0.2,1.2-0.4,2.5-0.4,3.6c4.2-2.5,6.3-3.8,9.4-6.1c-0.2-0.8-0.2-1.8-0.2-2.7c0-5.6,3.7-11.8,8.6-11.8
	c2.7,0,4.2,1.9,4.2,4.1c0,4-3.4,7.6-8.3,11.3c0.4,0.9,0.9,1.8,1.9,2.3c0.1-0.2,1.7-0.5,3-0.5c1.4,0,3.4,0.4,3.4,1.8c0,1.6-2.3,2-4,2
	c-0.9,0.1-2.5-0.2-2.5-0.2c-2.6,0.7-7.6,3.7-7.6,11.3c0,5.1,3.2,9.9,8.2,9.9c3.8,0,6.9-2.9,7-7.2c0-2.9-1.2-5.8-4-5.8
	c-1.4,0-2.7,1.1-2.7,2.6c-0.1,2.4,1.6,2.6,1.6,4.2c0,1.1-0.8,1.6-1.6,1.6c-2.4,0-4.2-2.4-4.2-5.4c0-3.6,3.1-6.5,7.2-6.5
	C1255.2,54.9,1257.9,59.4,1257.9,64.3z M1249.1,34.3c0-0.6-0.1-1.3-0.9-1.3c-1.8,0-4.6,3.8-4.6,8.7
	C1247.2,38.6,1249.1,35.9,1249.1,34.3z M1228,33.8c0-0.6-0.4-0.8-0.8-0.8c-2.5,0-6.1,6.5-6.1,10.5C1225,41.3,1228,36.4,1228,33.8z
	 M1226.6,56.1c-5.4,2.6-12.2,7.2-12.2,12.4c0,1.9,0.9,3.1,2.7,3.1C1222.4,71.6,1225.6,63.2,1226.6,56.1z"/>
<g>
	<path class="st0" d="M32.3,169.5l-1.5-3.3h-8l-1.4,3.3h-1.1l6-13.4h1.1l6,13.4H32.3z M30.4,165.2l-3.6-8.2l-3.6,8.2H30.4z
		 M48.6,162.8c0,3.5-2.2,6.9-6.8,6.9s-6.8-3.4-6.8-7s2.2-6.9,6.8-6.9S48.6,159.2,48.6,162.8z M36.1,162.8c0,3,1.9,6,5.7,6
		s5.8-3,5.8-6c0-3.1-1.9-6-5.8-6C38,156.8,36.1,159.6,36.1,162.8z M62.7,156.1v8.3c0,7-10.3,7-10.3,0v-8.3h1v8.3
		c0,5.8,8.2,5.7,8.2,0v-8.3H62.7L62.7,156.1z M67.3,169.5v-13.4h1v13.4H67.3z M73.9,156.1v12.4h7.5v1h-8.6v-13.4
		C72.9,156.1,73.9,156.1,73.9,156.1z M96.1,169.5l-1.5-3.3h-8l-1.4,3.3h-1.1l6-13.4h1.1l6,13.4H96.1L96.1,169.5z M94.3,165.2
		l-3.6-8.2l-3.6,8.2H94.3z M100.3,169.5v-13.4h1v13.4H100.3z M106.4,156.1l9,11.1v-11.1h1v13.4H116l-9-11.1v11.1h-1v-13.4
		C105.9,156.1,106.4,156.1,106.4,156.1z M129.7,158.6c-1-1.6-2.5-1.8-4.1-1.8s-4.1,0.6-4.1,2.7c0,1.7,1.8,2.1,4.1,2.5
		c2.6,0.5,5.3,1,5.3,3.9c0,3-3.1,3.7-5.3,3.7c-2.1,0-4.5-0.9-5.5-2.9l0.9-0.4c0.8,1.6,2.9,2.4,4.6,2.4s4.3-0.4,4.3-2.8
		c0-2-2.2-2.5-4.4-2.9c-2.5-0.4-5-1-5-3.4c-0.1-2.8,2.9-3.7,5.1-3.7c1.9,0,3.6,0.3,4.9,2.3L129.7,158.6L129.7,158.6z M134.7,169.5
		v-13.4h1v13.4H134.7z M150.8,158.5c-1.2-1.1-2.8-1.7-4.3-1.7c-3.9,0-5.9,2.9-5.9,6c0,3.2,2,5.9,5.9,5.9c1.4,0,2.9-0.5,4.1-1.6v-3.7
		h-4.7v-0.9h5.7v5c-1.4,1.4-3.1,2.2-5.1,2.2c-4.5,0-6.9-3.2-6.9-6.8c0-4.2,2.8-6.9,6.9-6.9c1.8,0,3.5,0.7,4.9,2
		C151.4,157.9,150.8,158.5,150.8,158.5z M165.5,169.5v-6.1H157v6.1h-1v-13.4h1v6.4h8.5v-6.4h1v13.4H165.5z M174.7,157h-4.8v-0.9
		h10.7v0.9h-4.8v12.4h-1L174.7,157L174.7,157z M44.1,164.8l0.8-0.8l4.6,4.6l-0.8,0.8L44.1,164.8z"/>
	<path class="st0" d="M41.8,169.8c-2.1,0-3.9-0.8-5.2-2.2c-1.1-1.3-1.7-3-1.7-4.9c0-3.5,2.1-7,6.9-7c2,0,3.7,0.7,4.9,1.9
		c1.3,1.3,2,3.1,2,5.2c0,1.3-0.3,2.7-1,3.9l2,2l-1,1l-1.8-1.8C45.7,169,44.1,169.8,41.8,169.8z M41.8,156c-4.6,0-6.6,3.4-6.6,6.7
		c0,4.7,3.4,6.8,6.6,6.8c1.7,0,3.5-0.6,4.8-1.9l-0.5-0.5c-1.2,1.2-2.8,1.8-4.3,1.8c-4,0-5.9-3.2-5.9-6.1l0,0c0-3,1.8-6.1,5.9-6.1
		s5.9,3.1,5.9,6.1c0,1.3-0.3,2.4-0.8,3.2l0.5,0.5c0.6-1,0.9-2.2,0.9-3.7l0,0c0-2-0.6-3.7-1.9-5C45.4,156.6,43.8,156,41.8,156z
		 M47.1,167.6l1.6,1.6l0.6-0.6l-1.7-1.7C47.4,167.2,47.2,167.4,47.1,167.6z M36.2,162.8c0,2.8,1.8,5.8,5.6,5.8
		c1.8,0,3.2-0.7,4.1-1.7l-2.1-2.1l1-1l1.9,1.9c0.5-0.9,0.7-2,0.7-3c0-2.9-1.7-5.8-5.6-5.8C38,156.9,36.2,159.9,36.2,162.8
		L36.2,162.8z M46.4,166.9l0.5,0.5c0.2-0.2,0.3-0.4,0.5-0.6l-0.5-0.5C46.7,166.5,46.5,166.7,46.4,166.9z M44.3,164.8l1.8,1.8
		c0.2-0.2,0.3-0.4,0.5-0.6l-1.7-1.7L44.3,164.8z M146.5,169.8c-4.9,0-7.1-3.5-7.1-7c0-2.1,0.7-3.8,1.9-5.1c1.3-1.3,3.1-2,5.1-2
		c1.9,0,3.7,0.7,5,2l0.1,0.1l-0.8,0.9l-0.1-0.1c-1.1-1.1-2.7-1.7-4.2-1.7c-2.9,0-5.8,1.8-5.8,5.8c0,2.6,1.5,5.7,5.8,5.7
		c1.5,0,2.9-0.5,3.9-1.5v-3.5h-4.7v-1.2h6v5.2l0,0C150.2,169.1,148.5,169.8,146.5,169.8z M146.5,156c-2,0-3.7,0.7-4.9,1.9
		s-1.9,2.9-1.8,4.9c0,3.3,2.1,6.7,6.8,6.7c1.9,0,3.5-0.7,4.9-2.1v-4.8h-5.4v0.6h4.7v4l0,0c-1.1,1-2.6,1.6-4.2,1.6
		c-3,0-6.1-1.9-6.1-6c0-3,1.9-6.1,6.1-6.1c1.6,0,3.2,0.6,4.3,1.7l0.4-0.4C149.9,156.7,148.3,156,146.5,156z M125.6,169.8
		c-2,0-4.5-0.8-5.6-3l-0.1-0.1l1.2-0.6l0.1,0.1c0.8,1.5,2.8,2.3,4.4,2.3c1.2,0,4.1-0.3,4.1-2.7c0-1.9-2.2-2.3-4.3-2.7
		c-2.4-0.4-5.1-0.9-5.1-3.6c0-0.9,0.3-1.8,0.9-2.4c0.9-0.9,2.5-1.5,4.3-1.5c2.1,0,3.7,0.4,5,2.3l0.1,0.1l-1.1,0.6l-0.1-0.1
		c-0.9-1.5-2.5-1.7-3.9-1.8c-0.4,0-3.9,0.1-3.9,2.6c0,1.5,1.6,1.9,4,2.4h0.2c2.5,0.5,5.2,1,5.2,4C131,169.5,126.9,169.8,125.6,169.8
		z M120.3,166.8c1.1,2,3.4,2.7,5.3,2.7c1.5,0,5.1-0.4,5.1-3.6c0-2.7-2.4-3.2-4.9-3.7h-0.2c-2.2-0.4-4.2-0.8-4.2-2.7
		c0-1.3,1.1-2.9,4.2-2.9c1.5,0,3.1,0.3,4.1,1.8l0.6-0.3c-1.2-1.7-2.7-2.1-4.7-2.1c-1.7,0-3.3,0.5-4.1,1.4c-0.6,0.6-0.8,1.3-0.8,2.2
		c0,2.4,2.6,2.9,4.8,3.3c2.1,0.4,4.6,0.9,4.5,3c0,2.7-3.1,3-4.4,3c-1.6,0-3.7-0.7-4.6-2.4L120.3,166.8z M57.6,169.8
		c-1.4,0-2.7-0.5-3.6-1.4c-1.1-1-1.6-2.4-1.6-4.1v-8.5h1.3v8.5c0,1.3,0.4,2.4,1.2,3.1c0.7,0.7,1.7,1,2.7,1c1.9,0,4-1.3,4-4.2v-8.5
		h1.3v8.5C62.9,168.1,60.1,169.8,57.6,169.8z M52.6,156.2v8.2c0,1.6,0.5,2.9,1.6,3.8c0.9,0.8,2.1,1.3,3.4,1.3c2.4,0,5-1.6,5-5.1
		v-8.2h-0.7v8.2c0,3.1-2.2,4.5-4.3,4.5c-1.1,0-2.2-0.4-2.9-1.1c-0.9-0.8-1.3-2-1.3-3.4v-8.2H52.6z M175.9,169.6h-1.3v-12.5h-4.8
		v-1.2h11v1.2H176L175.9,169.6L175.9,169.6z M174.8,169.3h0.7v-12.4h4.8v-0.6H170v0.6h4.7v0.1h0.1V169.3z M166.7,169.6h-1.3v-6.1
		h-8.2v6.1h-1.3v-13.7h1.3v6.4h8.2v-6.4h1.3V169.6z M165.7,169.3h0.7v-13.1h-0.7v6.4h-8.8v-6.4h-0.7v13.1h0.7v-6.1h8.8V169.3z
		 M135.9,169.6h-1.3v-13.7h1.3V169.6z M134.9,169.3h0.7v-13.1h-0.7V169.3z M116.6,169.6H116v-0.1l-8.8-10.7v10.8h-1.3v-13.7h0.7
		l8.8,10.8v-10.8h1.3L116.6,169.6L116.6,169.6z M116.1,169.3h0.2v-13.1h-0.7v11.4l-9.2-11.4h-0.2v13.1h0.7V158L116.1,169.3z
		 M101.5,169.6h-1.3v-13.7h1.3V169.6z M100.5,169.3h0.7v-13.1h-0.7V169.3z M97.5,169.6H96l-1.5-3.3h-7.8l-1.4,3.3h-1.4l6.1-13.7h1.3
		L97.5,169.6z M96.2,169.3H97l-5.9-13.1h-0.9l-5.9,13.1h0.8l1.4-3.3h8.2L96.2,169.3z M81.6,169.6h-8.9v-13.7H74v12.4h7.5L81.6,169.6
		L81.6,169.6z M73,169.3h8.3v-0.7h-7.5v-12.4H73V169.3z M68.4,169.6h-1.3v-13.7h1.3V169.6z M67.4,169.3h0.7v-13.1h-0.7V169.3z
		 M33.6,169.6h-1.4l-1.5-3.3h-7.8l-1.4,3.3H20l6.1-13.7h1.3L33.6,169.6z M32.4,169.3h0.8l-5.8-13.1h-0.9l-5.9,13.1h0.8l1.4-3.3H31
		L32.4,169.3z M94.5,165.4h-7.6l3.8-8.7L94.5,165.4z M87.3,165.1H94l-3.4-7.6L87.3,165.1z M30.6,165.4H23l3.8-8.7L30.6,165.4z
		 M23.5,165.1h6.7l-3.4-7.6L23.5,165.1z"/>
</g>
<g>
	<g>
		<path class="st0" d="M244,142.6c0.5,0.5,0.7,0.7,0.9,0.8c9.7,1.7,18.2,6.2,26.8,10.6c9.1,4.6,14.8,3.1,20.4-5.2
			c3-4.4,5.5-9.1,11.4-11.1c-2.6-0.6-4.8-0.7-6.6-1.7c-2.5-1.3-4.6-1-7,0.2c-11.4,5.7-23.4,8.6-36.3,6.9
			C250.6,142.7,247.5,142.8,244,142.6z"/>
		<path class="st0" d="M244,142.6c3.5,0.2,6.5,0.1,9.6,0.5c12.9,1.7,24.9-1.2,36.3-6.9c2.4-1.2,4.5-1.5,7-0.2c1.8,1,4,1.1,6.6,1.7
			c-5.9,2-8.4,6.6-11.4,11.1c-5.6,8.3-11.4,9.8-20.4,5.2c-8.7-4.4-17.2-8.9-26.9-10.6C244.7,143.4,244.6,143.1,244,142.6z"/>
	</g>
	<g>
		<path class="st0" d="M231.5,167.8h1.6v4.5h3v1.5h-3v7.6c0,0.6,0.2,1.1,0.5,1.5c0.3,0.3,0.8,0.5,1.3,0.5c0.3,0,0.7,0,1.2-0.2v1.5
			c-0.6,0.1-1,0.1-1.4,0.1c-1.2,0-2-0.3-2.5-0.7c-0.5-0.5-0.7-1.3-0.7-2.4v-7.9h-2.1v-1.5h2.1L231.5,167.8L231.5,167.8z
			 M237.2,172.3h1.6v8c0,0.9,0.2,1.6,0.7,2.1c0.4,0.5,1,0.7,1.6,0.7c0.5,0,1.1-0.1,1.8-0.4s1.4-0.8,2.4-1.6v-8.8h1.6v12.2h-1.6v-2
			c-0.9,0.7-1.8,1.3-2.5,1.6c-0.8,0.4-1.5,0.6-2.1,0.6s-1.1-0.1-1.6-0.4s-1-0.7-1.3-1.3s-0.5-1.4-0.5-2.4L237.2,172.3L237.2,172.3z
			 M251,175c0.7-1,1.4-1.8,2.1-2.3c0.7-0.5,1.6-0.7,2.6-0.7h0.4l-0.2,1.8h-0.6c-0.4,0-0.9,0.1-1.5,0.3s-1,0.6-1.5,1.1
			c-0.4,0.5-0.8,1.1-1,1.9c-0.3,0.7-0.3,1.4-0.3,2v5.4h-1.6v-12.2h1.6V175L251,175z M258.8,173.7c0.9-0.5,1.8-1,2.6-1.2
			c0.8-0.3,1.5-0.4,2-0.4c0.6,0,1.1,0.1,1.6,0.4c0.5,0.3,0.9,0.7,1.3,1.3s0.6,1.3,0.6,2.3v8.6h-1.6V176c0-0.8-0.2-1.5-0.6-1.9
			s-0.9-0.6-1.5-0.6s-1.3,0.1-2,0.4c-0.7,0.3-1.5,0.6-2.4,1.1v9.4h-1.6v-12.2h1.6V173.7L258.8,173.7z M269.3,177.4
			c-0.6-0.6-0.9-1.3-0.9-2.1c0-0.9,0.3-1.6,1.1-2.3c0.7-0.7,1.7-1,3.1-1c0.9,0,1.7,0.2,2.5,0.5s1.4,0.8,2,1.4l-1.3,1
			c-0.5-0.5-1-1-1.5-1.2c-0.5-0.3-1.1-0.4-1.7-0.4c-0.8,0-1.5,0.2-1.9,0.5s-0.7,0.8-0.7,1.3c0,0.4,0.2,0.8,0.5,1.1s1.1,0.7,2.3,1
			c1.9,0.5,3.1,1,3.7,1.7c0.7,0.7,1,1.4,1,2.3c0,1-0.4,1.8-1.2,2.5s-1.8,1-3.1,1c-1,0-1.9-0.2-2.7-0.6c-0.8-0.3-1.7-1-2.6-1.8l1.4-1
			c0.7,0.7,1.3,1.2,1.9,1.5s1.2,0.4,1.9,0.4c0.9,0,1.5-0.2,2-0.6c0.5-0.4,0.7-0.9,0.7-1.4c0-0.4-0.2-0.8-0.5-1.2
			c-0.5-0.5-1.5-0.9-2.9-1.3c-0.9-0.3-1.7-0.5-2.3-0.8C269.8,177.8,269.5,177.6,269.3,177.4L269.3,177.4z M280.1,167.8h1.6v4.5h3
			v1.5h-3v7.6c0,0.6,0.2,1.1,0.5,1.5c0.3,0.3,0.8,0.5,1.3,0.5c0.3,0,0.7,0,1.2-0.2v1.5c-0.6,0.1-1,0.1-1.4,0.1c-1.2,0-2-0.3-2.5-0.7
			c-0.5-0.5-0.7-1.3-0.7-2.4v-7.9H278v-1.5h2.1V167.8L280.1,167.8z M290.5,184.7c-1.6,0-2.9-0.6-3.9-1.7s-1.6-2.7-1.6-4.6
			c0-1.3,0.2-2.4,0.7-3.4s1.1-1.7,2-2.2s1.7-0.7,2.7-0.7c0.9,0,1.8,0.3,2.6,0.7c0.8,0.5,1.5,1.3,2,2.3s0.7,2.2,0.7,3.4
			c0,1.9-0.5,3.4-1.6,4.6C293.1,184.1,291.9,184.7,290.5,184.7L290.5,184.7z M290.3,183.3c1,0,1.9-0.4,2.6-1.3
			c0.7-0.9,1.1-2.1,1.1-3.7c0-1.6-0.3-2.8-1.1-3.6c-0.7-0.8-1.6-1.3-2.6-1.3c-1.1,0-2,0.4-2.7,1.3c-0.7,0.9-1.1,2-1.1,3.6
			s0.3,2.9,1.1,3.7C288.4,182.9,289.3,183.3,290.3,183.3L290.3,183.3z M299,173.7c0.9-0.5,1.8-1,2.6-1.2s1.5-0.4,2-0.4
			c0.6,0,1.1,0.1,1.6,0.4c0.5,0.3,0.9,0.7,1.3,1.3c0.3,0.6,0.6,1.3,0.6,2.3v8.6h-1.6V176c0-0.8-0.2-1.5-0.6-1.9s-0.9-0.6-1.5-0.6
			s-1.3,0.1-2,0.4c-0.7,0.3-1.5,0.6-2.4,1.1v9.4h-1.6v-12.2h1.6V173.7L299,173.7z M318.9,181.7c-0.7,1-1.6,1.7-2.4,2.3
			c-0.9,0.5-1.7,0.7-2.6,0.7c-1.4,0-2.7-0.6-3.7-1.7c-1-1.1-1.6-2.7-1.6-4.7s0.5-3.5,1.5-4.6s2.2-1.7,3.6-1.7c0.9,0,1.8,0.3,2.6,0.8
			c0.8,0.5,1.5,1.3,1.9,2.2s0.7,2.1,0.7,3.6h-8.6c0,1,0.2,1.8,0.4,2.4c0.3,0.8,0.8,1.4,1.4,1.8c0.6,0.4,1.1,0.6,1.6,0.6
			c1.3,0,2.6-0.8,3.8-2.5L318.9,181.7L318.9,181.7z M317.2,177c-0.1-1.2-0.5-2-1.2-2.7s-1.4-1-2.3-1c-1,0-1.8,0.4-2.4,1.2
			s-1,1.6-1,2.5H317.2z M321.2,180.3c0.3,0,0.7,0.1,1,0.3s0.6,0.4,0.8,0.7c0.2,0.3,0.3,0.7,0.3,1s-0.1,0.7-0.3,1
			c-0.2,0.3-0.4,0.6-0.7,0.7c-0.3,0.2-0.7,0.3-1,0.3s-0.7-0.1-1-0.3s-0.6-0.4-0.7-0.7c-0.2-0.3-0.3-0.7-0.3-1s0.1-0.7,0.3-1
			c0.2-0.3,0.4-0.6,0.8-0.7C320.7,180.4,320.9,180.3,321.2,180.3L321.2,180.3z M321.2,180.6c-0.3,0-0.6,0.1-0.8,0.2
			s-0.5,0.3-0.7,0.7c-0.2,0.3-0.2,0.6-0.2,0.9c0,0.3,0.1,0.6,0.2,0.8s0.3,0.5,0.7,0.7c0.3,0.1,0.6,0.2,0.9,0.2s0.6-0.1,0.9-0.2
			c0.3-0.1,0.5-0.3,0.7-0.7c0.1-0.3,0.2-0.6,0.2-0.8c0-0.3-0.1-0.6-0.2-0.9c-0.2-0.3-0.3-0.5-0.7-0.7
			C321.8,180.7,321.5,180.6,321.2,180.6z M320.4,183.4v-2.2h0.7c0.3,0,0.4,0,0.6,0s0.2,0.1,0.3,0.2c0.1,0.1,0.1,0.2,0.1,0.3
			c0,0.2,0,0.3-0.2,0.4s-0.3,0.2-0.4,0.2c0.1,0,0.1,0.1,0.2,0.1c0.1,0.1,0.2,0.2,0.3,0.4l0.3,0.4h-0.4l-0.2-0.3
			c-0.1-0.3-0.3-0.4-0.3-0.5c-0.1-0.1-0.2-0.1-0.3-0.1h-0.2v1L320.4,183.4L320.4,183.4z M320.7,182.2h0.4c0.2,0,0.3,0,0.4-0.1
			c0.1,0,0.1-0.1,0.1-0.3s0-0.2-0.1-0.3c-0.1,0-0.2,0-0.4,0h-0.4V182.2L320.7,182.2z"/>
	</g>
</g>
<g>
	<path class="st0" d="M427.7,148.9c9.9,1.8,19.2-5.2,21.8-12.2c-1.6,9.7-11.6,17.9-21.8,18.7V148.9z M427.7,159.5
		c9.9,1.8,19.2-5.2,21.8-12.2c-1.6,9.7-11.6,17.9-21.8,18.7V159.5z M427.7,170.2c9.9,1.8,19.2-5.2,21.8-12.2
		c-1.6,9.7-11.6,17.9-21.8,18.7V170.2z M386.8,181.4h-0.2c-0.3-0.8-1-1.4-1.7-1.4c-0.6,0-1.1,0.4-1.1,0.9c0,0.3,0.1,0.5,0.4,0.7
		c0.4,0.4,1.9,1.2,2.3,1.6c0.5,0.5,0.8,1,0.8,1.6c0,1.5-1.4,2-2.2,2c-0.8,0-1.3-0.3-1.7-0.3c-0.1,0-0.3,0.1-0.4,0.2h-0.3v-2.1h0.2
		c0.2,1,0.9,1.7,1.9,1.7c0.7,0,1.3-0.4,1.3-1c0-0.2-0.1-0.5-0.4-0.8c-0.5-0.5-1.8-1-2.3-1.6c-0.4-0.4-0.6-0.9-0.6-1.4
		c0-1.2,0.9-2,2.2-2c0.3,0,0.5,0,0.7,0.1c0.2,0,0.4,0.1,0.6,0.1c0.1,0,0.2,0,0.4-0.2h0.2L386.8,181.4L386.8,181.4z M393.3,183.7
		h-0.2c-0.5-0.9-0.9-1.4-1.6-1.4c-0.9,0-1.4,0.8-1.4,2c0,1.3,0.6,2,1.6,2c0.7,0,1-0.2,1.5-0.9h0.2c-0.5,0.9-1.2,1.4-2.4,1.4
		c-1.5,0-2.5-0.9-2.5-2.3c0-1.4,1.1-2.5,2.7-2.5c0.3,0,0.6,0,0.9,0.1c0.3,0,0.5,0.1,0.6,0.1c0.2,0,0.2,0,0.4-0.1h0.2L393.3,183.7
		L393.3,183.7z M398.5,184.5c0,1.3-0.5,2.1-1.3,2.1s-1.3-0.8-1.3-2c0-1.3,0.4-2.2,1.3-2.2C398.1,182.4,398.5,183.2,398.5,184.5z
		 M400,184.5c0-1.1-0.9-2.4-2.8-2.4c-2.1,0-2.8,1.5-2.8,2.4c0,1.2,0.9,2.4,2.8,2.4C399,186.9,400,185.6,400,184.5z M401.8,182.6H401
		v-0.2c0.5-0.4,1.3-1,1.9-1.9h0.2v1.7h1.4v0.4h-1.4v2.6c0,0.7,0.2,1.1,0.8,1.1c0.2,0,0.5-0.1,0.6-0.4l0.1,0.1
		c-0.3,0.5-0.8,0.8-1.4,0.8c-0.9,0-1.5-0.4-1.5-1.4L401.8,182.6L401.8,182.6z M406.3,182.6h-0.8v-0.2c0.5-0.4,1.3-1,1.9-1.9h0.2v1.7
		h1.4v0.4h-1.4v2.6c0,0.7,0.2,1.1,0.8,1.1c0.2,0,0.5-0.1,0.6-0.4l0.1,0.1c-0.3,0.5-0.8,0.8-1.4,0.8c-0.9,0-1.5-0.4-1.5-1.4
		L406.3,182.6L406.3,182.6z M412.2,185.7c0,0.5,0.2,0.7,0.7,0.8v0.2h-2.8v-0.2c0.6-0.1,0.8-0.3,0.8-0.9v-2.4c0-0.5-0.1-0.7-0.8-0.8
		v-0.2l1.9-0.2h0.2L412.2,185.7L412.2,185.7z M411.6,179.3c0.4,0,0.8,0.4,0.8,0.8s-0.4,0.8-0.8,0.8s-0.8-0.4-0.8-0.8
		C410.8,179.6,411.1,179.3,411.6,179.3z M417.3,183.5h-0.2c-0.3-0.7-0.8-1.1-1.4-1.1c-0.4,0-0.7,0.2-0.7,0.5c0,0.9,2.6,0.6,2.6,2.4
		c0,0.9-0.9,1.5-1.6,1.5c-0.3,0-0.5,0-0.7-0.1c-0.2,0-0.4-0.1-0.5-0.1c-0.2,0-0.3,0-0.4,0.1h-0.2V185h0.1c0.5,0.9,1,1.4,1.6,1.4
		c0.4,0,0.8-0.3,0.8-0.6c0-1.2-2.6-0.8-2.6-2.5c0-0.7,0.6-1.4,1.6-1.4c0.2,0,0.5,0,0.7,0s0.4,0.1,0.5,0.1s0.2-0.1,0.3-0.1h0.2
		L417.3,183.5L417.3,183.5z M420.7,183.2c0.5-0.8,1-1.1,1.7-1.1c0.9,0,1.6,0.6,1.6,1.7v1.9c0,0.4,0.1,0.7,0.7,0.8v0.2H422v-0.2
		c0.5-0.1,0.7-0.3,0.7-0.9v-1.8c0-0.7-0.3-1.1-0.8-1.1s-0.8,0.3-1.1,0.7v2.2c0,0.5,0.1,0.6,0.7,0.8v0.2h-2.7v-0.2
		c0.5-0.1,0.7-0.4,0.7-0.9v-5.3c0-0.4-0.2-0.6-0.7-0.7v-0.2l1.8-0.1h0.2L420.7,183.2L420.7,183.2z M471.4,124
		c-9.9-1.8-19.2,5.2-21.8,12.2c1.6-9.7,11.6-17.9,21.8-18.7V124z M471.4,134.6c-9.9-1.8-19.2,5.2-21.8,12.2
		c1.6-9.7,11.6-17.9,21.8-18.7V134.6z M471.4,145.2c-9.9-1.8-19.2,5.2-21.8,12.2c1.6-9.7,11.6-17.9,21.8-18.7V145.2z M431.7,184.3
		h-0.2c-0.1-0.6-0.4-0.9-0.9-0.9h-1.2v2c0,0.6,0.3,0.9,0.9,0.9h0.4c0.9,0,1.2-0.6,1.4-1.3h0.2l-0.1,1.7H427v-0.2
		c0.8-0.2,0.9-0.4,0.9-1.1V181c0-0.6-0.1-0.8-0.9-0.9v-0.2h5.2v1.5H432c-0.2-0.9-0.5-1.1-1.3-1.1h-1.4v2.8h1.2
		c0.5,0,0.8-0.2,0.9-0.9h0.2L431.7,184.3L431.7,184.3z M437.3,183.9c0-0.7-0.3-1.1-0.8-1.1s-0.8,0.3-1.1,0.8v2.1
		c0,0.5,0.1,0.7,0.7,0.9v0.2h-2.7v-0.2c0.5-0.1,0.7-0.3,0.7-0.8v-2.5c0-0.5-0.2-0.7-0.8-0.8v-0.2l1.9-0.2h0.2v1.1l0,0
		c0.4-0.6,0.9-1.1,1.7-1.1c0.7,0,1.6,0.5,1.6,1.6v1.9c0,0.5,0.1,0.7,0.7,0.9v0.2h-2.8v-0.2c0.5-0.1,0.7-0.3,0.7-0.8L437.3,183.9
		L437.3,183.9z M441.1,182.6h-0.8v-0.2c0.5-0.4,1.3-1,1.9-1.9h0.2v1.7h1.4v0.4h-1.4v2.6c0,0.7,0.2,1.1,0.8,1.1
		c0.2,0,0.5-0.1,0.6-0.4l0.1,0.1c-0.3,0.5-0.8,0.8-1.4,0.8c-0.9,0-1.5-0.4-1.5-1.4L441.1,182.6L441.1,182.6z M446.4,183.8
		c0-0.9,0.4-1.4,0.9-1.4s0.9,0.6,1,1.4H446.4z M449.8,184.1c-0.2-1.2-1.1-2-2.3-2c-1.4,0-2.5,1-2.5,2.4s1,2.4,2.4,2.4
		c1.1,0,2-0.6,2.4-1.5h-0.2c-0.4,0.6-0.9,0.9-1.6,0.9c-0.8,0-1.7-0.8-1.6-2.2L449.8,184.1L449.8,184.1z M454.8,183.8
		c-0.4-0.4-0.7-0.6-1-0.6c-0.4,0-0.6,0.2-1,0.6v1.8c0,0.5,0.1,0.7,0.8,0.8v0.2h-2.8v-0.2c0.6-0.1,0.7-0.3,0.7-0.8v-2.3
		c0-0.6-0.2-0.8-0.8-0.9v-0.2l1.9-0.2h0.2v1.4c0.5-0.9,0.9-1.4,1.5-1.4c0.3,0,0.6,0.1,0.8,0.4L454.8,183.8L454.8,183.8z M458,183.2
		c0.4-0.4,0.7-0.6,1.1-0.6c0.8,0,1.3,0.7,1.3,1.9c0,1.1-0.5,1.9-1.3,1.9c-0.4,0-0.7-0.1-1.1-0.5V183.2L458,183.2z M456.6,188.8
		c0,0.8-0.1,1-0.8,1.1v0.2h3V190c-0.7-0.1-0.8-0.3-0.8-0.9v-2.8c0.7,0.5,1,0.6,1.6,0.6c1.4,0,2.3-1,2.3-2.4s-0.9-2.3-2.1-2.3
		c-0.7,0-1.3,0.3-1.8,0.9v-0.9h-0.2l-1.9,0.2v0.2c0.7,0.1,0.8,0.4,0.8,0.9v5.3H456.6z M467.1,183.8c-0.4-0.4-0.7-0.6-1-0.6
		c-0.4,0-0.6,0.2-1,0.6v1.8c0,0.5,0.1,0.7,0.8,0.8v0.2H463v-0.2c0.6-0.1,0.7-0.3,0.7-0.8v-2.3c0-0.6-0.2-0.8-0.8-0.9v-0.2l1.9-0.2
		h0.2v1.4c0.5-0.9,0.9-1.4,1.5-1.4c0.3,0,0.6,0.1,0.8,0.4L467.1,183.8L467.1,183.8z M470.6,185.7c0,0.5,0.2,0.7,0.7,0.8v0.2h-2.8
		v-0.2c0.6-0.1,0.7-0.3,0.7-0.9v-2.4c0-0.5-0.1-0.7-0.8-0.8v-0.2l1.9-0.2h0.2L470.6,185.7L470.6,185.7z M470,179.3
		c0.4,0,0.8,0.4,0.8,0.8s-0.4,0.8-0.8,0.8s-0.8-0.4-0.8-0.8C469.2,179.6,469.5,179.3,470,179.3z M475.7,183.5h-0.2
		c-0.3-0.7-0.8-1.1-1.4-1.1c-0.4,0-0.7,0.2-0.7,0.5c0,0.9,2.6,0.6,2.6,2.4c0,0.9-0.9,1.5-1.6,1.5c-0.3,0-0.5,0-0.7-0.1
		c-0.2,0-0.4-0.1-0.5-0.1c-0.2,0-0.3,0-0.4,0.1h-0.2V185h0.2c0.5,0.9,1,1.4,1.6,1.4c0.4,0,0.8-0.3,0.8-0.6c0-1.2-2.6-0.8-2.6-2.5
		c0-0.7,0.6-1.4,1.6-1.4c0.2,0,0.5,0,0.7,0s0.4,0.1,0.5,0.1s0.2-0.1,0.3-0.1h0.2L475.7,183.5L475.7,183.5z M478.7,183.8
		c0-0.9,0.4-1.4,0.9-1.4s0.9,0.6,1,1.4H478.7z M482,184.1c-0.2-1.2-1.1-2-2.3-2c-1.4,0-2.5,1-2.5,2.4s1,2.4,2.4,2.4
		c1.1,0,2-0.6,2.4-1.5h-0.2c-0.4,0.6-0.9,0.9-1.6,0.9c-0.8,0-1.7-0.8-1.6-2.2L482,184.1L482,184.1z"/>
</g>
<g>
	<path class="st0" d="M545.1,151.3h-4.5v2.6h4.3v2.6h-4.3v3h4.5v2.6h-7.6v-13.4h7.6C545.1,148.6,545.1,151.3,545.1,151.3z
		 M545.5,162.1l2.2-13.4h2.6l3.4,8.1l3.4-8.1h2.6l2.2,13.4h-3.1l-1.1-8.1l-3.4,8H553l-3.4-8l-1,8L545.5,162.1L545.5,162.1z
		 M570.2,151.3h-4.5v2.6h4.3v2.6h-4.3v3h4.5v2.6h-7.6v-13.4h7.6C570.2,148.6,570.2,151.3,570.2,151.3z M576.1,148.6
		c1.7,0,2.8,0.6,3.4,1.2c0.6,0.6,1.2,1.5,1.2,3c0,0.8-0.2,1.9-1,2.8c-0.4,0.4-1.1,0.8-1.9,1l4.1,5.5h-3.8l-3.6-5.3v5.3h-3.1v-13.4
		L576.1,148.6L576.1,148.6z M574.5,154.7h0.7c0.6,0,1.3-0.1,1.9-0.6c0.2-0.2,0.5-0.7,0.5-1.3c0-0.8-0.4-1.2-0.6-1.4
		c-0.5-0.4-1.3-0.4-1.7-0.4h-0.7L574.5,154.7L574.5,154.7z M588.3,154.7h6.7v0.2c0,1.7-0.6,4.1-2.1,5.7c-1.5,1.5-3.2,1.8-4.8,1.8
		s-3.4-0.3-4.9-1.9c-0.8-0.8-2-2.4-2-5.1c0-2.2,0.8-3.9,1.9-5.1c1.7-1.7,3.7-1.9,5.3-1.9c1.1,0,2.5,0.2,3.8,1
		c0.9,0.6,1.7,1.5,2.2,2.4l-2.8,1.5c-0.3-0.5-0.7-1-1.2-1.4c-0.6-0.4-1.3-0.7-2-0.7c-1.2,0-2.2,0.4-2.8,1.1
		c-0.7,0.8-1.2,1.9-1.2,3.2c0,1.5,0.6,2.5,1.1,3.1c0.8,0.8,1.7,1,2.7,1c1.3,0,2-0.4,2.3-0.7c0.1-0.1,0.7-0.6,1-1.6h-3.3v-2.5
		L588.3,154.7z M603.4,151.3h-4.5v2.6h4.3v2.6h-4.3v3h4.5v2.6h-7.6v-13.4h7.6C603.4,148.6,603.4,151.3,603.4,151.3z M611.6,159.5
		h-5.1l-1.3,2.5h-3.4l7.1-13.4h2.9l3.6,13.4h-3.2L611.6,159.5L611.6,159.5z M611.1,157.2l-1.1-4.7l-2.3,4.7H611.1z M621.1,148.6
		c1.4,0,3.6,0.2,5.1,1.7c0.9,0.9,1.6,2.4,1.6,4.5c0,3.1-1.4,4.7-2.1,5.4c-1.5,1.5-3.6,1.9-6.1,1.9h-4.1l1.7-13.4L621.1,148.6
		L621.1,148.6z M619,159.4h0.9c0.9,0,2.3-0.1,3.4-1c0.8-0.7,1.3-1.9,1.3-3.5c0-1.2-0.4-2.2-1-2.7c-0.7-0.6-1.8-0.9-2.8-0.9h-0.9
		L619,159.4L619,159.4z M635.7,159.5h-5.1l-1.3,2.5H626l7.1-13.4h2.9l3.6,13.4h-3.2L635.7,159.5L635.7,159.5z M635.1,157.2l-1.1-4.7
		l-2.3,4.7H635.1z M645.8,148.6c0.9,0,2.4,0.1,3.5,1.1c0.6,0.6,1.1,1.5,1.1,2.9c0,1.5-0.5,2.8-1.3,3.5c-0.6,0.6-1.8,1.2-4,1.2h-1.8
		l-0.6,4.7h-3.1l1.7-13.4H645.8L645.8,148.6z M643.6,154.8h1.1c0.7,0,1.4-0.1,1.9-0.6c0.4-0.4,0.5-1,0.5-1.4s-0.1-0.8-0.4-1.2
		c-0.5-0.4-1.3-0.5-1.8-0.5H644L643.6,154.8z M656,151.3l-1.3,10.8h-3.1l1.3-10.8H650l0.3-2.6h8.9l-0.3,2.6H656L656,151.3z"/>
</g>
<g>
	<path class="st0" d="M1005.8,156.1h-4.5v5.3h-1.5v-11.2h1.5v4.5h4.5v-4.5h1.5v11.2h-1.5V156.1z M870.3,152.8
		c-0.4,0.1-0.9,0.3-1.3,0.4c-0.1-0.2-0.1-0.3-0.2-0.5c-0.5-1.2-1.6-1.7-2.8-1.2c-0.5,0.2-0.9,0.6-0.9,1.2s0.1,1.1,0.7,1.4
		c0.2,0.1,0.4,0.3,0.7,0.3l2.2,1c1.4,0.7,2,1.8,1.9,3.3c-0.2,1.4-1.2,2.5-2.6,2.8c-2.4,0.5-4.1-0.8-4.6-3.2l1.2-0.4
		c0.1,0.4,0.3,0.7,0.4,1.1c0.6,1.2,2.1,1.7,3.3,1.1c1-0.6,1.2-2.2,0.3-3c-0.3-0.3-0.8-0.5-1.2-0.7l-2-0.9c-1.2-0.6-1.6-1.5-1.5-2.8
		c0.1-1.2,0.8-2,2-2.4C867.8,149.4,869.9,150.5,870.3,152.8L870.3,152.8z M894.7,158.3l1.2,0.8c-0.9,1.3-1.9,2.3-3.5,2.4
		c-1.6,0.1-3-0.5-3.6-2c-1.2-2.4-1.2-5,0-7.4c0.7-1.3,1.8-2,3.3-2.1c1-0.1,2,0.3,2.8,1.1c0.3,0.4,0.6,0.8,0.9,1.2
		c-0.5,0.3-0.9,0.5-1.3,0.7l-0.5-0.8c-1.1-1.2-2.8-1.2-3.6,0.2c-0.3,0.6-0.5,1.4-0.7,2c-0.2,1.3-0.1,2.6,0.3,3.9
		c0.3,0.9,0.9,1.6,1.9,1.8c1,0.1,1.8-0.3,2.5-1.1C894.3,158.9,894.5,158.6,894.7,158.3L894.7,158.3z M931.9,161.3h-1.4v-9.8h-3.1
		v-1.3h7.5v1.2h-3C931.9,154.7,931.9,158,931.9,161.3z M991.2,161.3h-1.4v-9.8h-3.1v-1.3h7.5v1.2h-3
		C991.2,154.7,991.2,158,991.2,161.3L991.2,161.3z M875.8,151.4v-1.2h7v1.2H875.8z M882.8,160v1.2h-7V160H882.8z M914.3,151.4v-1.2
		h7v1.2H914.3z M914.3,161.3V160h7v1.2h-7V161.3z M875.8,156.4v-1.2h7v1.2H875.8z M947.7,151.4v-1.2h7v1.2H947.7z M954.7,160v1.2h-7
		V160H954.7z M947.7,156.4v-1.2h7v1.2H947.7z M921.4,155.1v1.2h-7v-1.2H921.4z M906.3,156.3c0.2-0.1,0.3-0.1,0.5-0.2
		c1.2-0.6,2-2,1.8-3.5c-0.2-1.3-1-2.3-2.3-2.4c-1.6-0.2-4.8-0.1-4.8-0.1v11.2h1.4v-4.7h2l0.2,0.4c0.8,1.4,2.6,4.5,2.6,4.7
		c0.5-0.3,0.9-0.5,1.2-0.8C908.1,159.3,907.2,157.8,906.3,156.3L906.3,156.3z M905.3,155.2c-0.8,0.1-1.6,0-2.4,0v-3.7h2.4
		c0.9,0,1.4,0.4,1.6,1.1c0.3,0.9,0,1.8-0.7,2.2C906,155,905.7,155.1,905.3,155.2z M979.4,156.3c0.2-0.1,0.3-0.1,0.5-0.2
		c1.2-0.6,2-2,1.8-3.5c-0.2-1.3-1-2.3-2.3-2.4c-1.6-0.2-4.8-0.1-4.8-0.1v11.2h1.4v-4.7h2l0.2,0.4c0.8,1.4,2.6,4.5,2.6,4.7
		c0.5-0.3,0.9-0.5,1.2-0.8C981.1,159.3,980.3,157.8,979.4,156.3L979.4,156.3z M978.4,155.2c-0.8,0.1-1.6,0-2.4,0v-3.7h2.4
		c0.9,0,1.4,0.4,1.6,1.1c0.3,0.9,0,1.8-0.7,2.2C979,155,978.7,155.1,978.4,155.2z M965.5,150.1h-1.8l-3.6,11.1l1.4,0.5l1.1-3.5h4.1
		l1.1,3.5l1.4-0.5L965.5,150.1L965.5,150.1z M962.9,157c0.5-1.7,1.1-3.4,1.6-5.3c0.6,1.8,1.1,3.5,1.6,5.3H962.9z"/>
</g>
<g>
	<path class="st0" d="M1055.7,163.8v-26.1h5.4l6.7,11.2c1.7,2.9,3.3,5.9,4.5,8.8h0.1c-0.3-3.5-0.4-6.9-0.4-10.9v-9.1h4.4v26.1h-4.9
		l-6.8-11.5c-1.7-2.9-3.4-6.1-4.7-9h-0.1c0.2,3.4,0.2,6.8,0.2,11.1v9.3L1055.7,163.8L1055.7,163.8z M1084.3,155.7
		c0.1,3.4,2.8,4.9,5.8,4.9c2.2,0,3.8-0.3,5.2-0.9l0.7,3.3c-1.6,0.7-3.9,1.2-6.6,1.2c-6.1,0-9.7-3.8-9.7-9.5c0-5.2,3.2-10.2,9.2-10.2
		c6.1,0,8.1,5,8.1,9.2c0,0.9-0.1,1.6-0.2,2C1097,155.7,1084.3,155.7,1084.3,155.7z M1092.7,152.4c0-1.7-0.7-4.6-3.9-4.6
		c-2.9,0-4.2,2.7-4.4,4.6H1092.7z M1100,159.5c1.1,0.7,3.1,1.4,4.8,1.4c2.1,0,3-0.9,3-2.1c0-1.3-0.8-1.9-3.1-2.8
		c-3.7-1.3-5.2-3.3-5.2-5.5c0-3.3,2.8-5.9,7.1-5.9c2.1,0,3.9,0.5,5,1.1l-0.9,3.4c-0.8-0.5-2.3-1.1-4-1.1s-2.6,0.8-2.6,2
		s0.9,1.8,3.3,2.6c3.4,1.2,5,3,5,5.8c0,3.4-2.7,5.9-7.7,5.9c-2.3,0-4.3-0.5-5.7-1.3C1099,162.9,1100,159.5,1100,159.5z
		 M1121.1,139.6v5.4h4.5v3.6h-4.5v8.3c0,2.3,0.6,3.5,2.4,3.5c0.8,0,1.4-0.1,1.9-0.2l0.1,3.6c-0.7,0.3-1.9,0.5-3.4,0.5
		c-1.7,0-3.2-0.6-4.1-1.6c-1-1.1-1.5-2.8-1.5-5.3v-8.9h-2.7V145h2.7v-4.3L1121.1,139.6z M1139.3,163.8l-0.3-2.1h-0.1
		c-1.2,1.5-3.1,2.5-5.6,2.5c-3.8,0-5.9-2.8-5.9-5.6c0-4.8,4.2-7.2,11.2-7.1v-0.3c0-1.2-0.5-3.3-3.8-3.3c-1.9,0-3.8,0.6-5.1,1.4
		l-0.9-3.1c1.4-0.9,3.8-1.7,6.8-1.7c6,0,7.8,3.8,7.8,7.9v6.8c0,1.7,0.1,3.4,0.3,4.5C1143.6,163.8,1139.3,163.8,1139.3,163.8z
		 M1138.7,154.6c-3.4-0.1-6.6,0.7-6.6,3.5c0,1.9,1.2,2.7,2.7,2.7c1.9,0,3.3-1.2,3.7-2.6c0.1-0.3,0.2-0.7,0.2-1L1138.7,154.6
		L1138.7,154.6z M1147.1,161.2c0-1.8,1.2-3.1,2.9-3.1c1.7,0,2.9,1.2,2.9,3.1c0,1.7-1.2,3.1-2.9,3.1
		C1148.3,164.3,1147.1,162.9,1147.1,161.2z M1155.8,161.2c0-1.8,1.2-3.1,2.9-3.1c1.7,0,2.9,1.2,2.9,3.1c0,1.7-1.2,3.1-2.9,3.1
		S1155.8,162.9,1155.8,161.2z M1164.5,161.2c0-1.8,1.2-3.1,2.9-3.1c1.7,0,2.9,1.2,2.9,3.1c0,1.7-1.2,3.1-2.9,3.1
		S1164.5,162.9,1164.5,161.2z"/>
</g>
<g>
	<path class="st0" d="M714.6,154.6l5.7,5.8l-5.7,5.8v-3c-5.4-0.1-9.7-4.5-9.7-9.9c0-5.5,4.4-9.9,9.8-9.9c2.3,0,4.3,0.8,6,2.1
		c-1.1,1.2-2,2.7-2.5,4.3c-0.9-0.9-2.1-1.4-3.5-1.4c-2.7,0-5,2.3-5,5c0,2.7,2.1,4.9,4.8,5V154.6L714.6,154.6z"/>
	<path class="st0" d="M727.6,153l-5.7,5.8l-5.7-5.8h3c0.1-5.4,4.4-9.8,9.8-9.8c5.4,0,9.8,4.5,9.8,9.9c0,2.3-0.8,4.4-2,6.1
		c-1.2-1.1-2.6-2-4.2-2.5c0.9-0.9,1.4-2.1,1.4-3.5c0-2.8-2.2-5-5-5c-2.7,0-4.9,2.2-5,4.9H727.6L727.6,153z"/>
	<path class="st0" d="M729.3,166.2l-5.7-5.8l5.7-5.8v3c5.4,0.1,9.7,4.5,9.7,9.9c0,5.5-4.4,9.9-9.8,9.9c-2.3,0-4.3-0.8-6-2.1
		c1.1-1.2,2-2.7,2.5-4.3c0.9,0.9,2.1,1.4,3.5,1.4c2.7,0,5-2.3,5-5c0-2.7-2.1-4.9-4.8-5V166.2L729.3,166.2z"/>
	<path class="st0" d="M716.2,167.8l5.7-5.8l5.7,5.8h-3c-0.1,5.4-4.4,9.8-9.8,9.8c-5.4,0-9.8-4.5-9.8-9.9c0-2.3,0.8-4.4,2-6.1
		c1.2,1.1,2.6,2,4.2,2.5c-0.9,0.9-1.4,2.2-1.4,3.5c0,2.8,2.2,5,5,5c2.7,0,4.9-2.2,5-4.9H716.2L716.2,167.8z"/>
</g>
<g>
	<g>
		<path class="st0" d="M748.4,143c1.4,0,2.3,0.2,2.9,0.8c0.4,0.4,0.6,1,0.6,1.8c0,1.1-0.5,2-1.5,2.5l0.3,0.5
			c0.7,1.3,1.3,2.2,1.9,2.9c0.1,0.1,0,0.2-0.5,0.2h-0.7c-0.4,0-0.6,0-0.8-0.2c-0.3-0.3-0.7-1-1.5-2.4l-0.4-0.7H748v3.2
			c0,0.1-0.2,0.2-0.8,0.2H747c-0.7,0-0.8,0-0.8-0.2v-8.4c0-0.2,0.1-0.2,0.5-0.2H748.4z M748,147h0.6c0.6,0,1-0.1,1.2-0.4
			c0.2-0.2,0.3-0.6,0.3-1c0-0.4-0.1-0.7-0.3-0.9c-0.3-0.3-0.7-0.4-1.3-0.4H748V147z"/>
	</g>
	<g>
		<path class="st0" d="M754.9,149.1c0.1,0.9,0.7,1.3,1.6,1.3c0.6,0,1.2-0.2,1.7-0.4c0.1-0.1,0.2,0,0.3,0.4l0.1,0.3
			c0.1,0.4,0.1,0.5,0,0.6c-0.6,0.3-1.5,0.6-2.4,0.6c-1.9,0-3.1-1.2-3.1-3.3c0-2,1.1-3.4,3-3.4c1.8,0,2.8,1.4,2.8,3.3
			c0,0.5,0,0.6-0.1,0.6H754.9z M757.3,147.9c-0.1-0.8-0.5-1.3-1.1-1.3c-0.7,0-1.1,0.5-1.3,1.3H757.3z"/>
		<path class="st0" d="M765,145.4c0.5,0,0.6,0,0.6,0.1c0.1,0.3,0.1,1.5,0.1,2.6v3.2c0,1.2-0.3,2-0.7,2.6c-0.5,0.5-1.2,0.8-2.2,0.8
			c-0.7,0-1.5-0.2-2-0.5c-0.1-0.1-0.2-0.2,0-0.6l0.1-0.2c0.2-0.4,0.2-0.5,0.4-0.4c0.4,0.2,1,0.4,1.4,0.4c0.9,0,1.4-0.5,1.4-1.8v-0.2
			c-0.4,0.4-1,0.5-1.6,0.5c-1.6,0-2.6-1.2-2.6-3.2c0-2.2,1.1-3.4,2.7-3.4c0.7,0,1.2,0.3,1.6,0.8c0-0.1,0.1-0.4,0.1-0.5
			c0-0.1,0-0.1,0.6-0.1H765z M764,147.4c-0.3-0.5-0.7-0.7-1.1-0.7c-0.8,0-1.3,0.6-1.3,1.9c0,1.2,0.4,1.8,1.3,1.8
			c0.3,0,0.7-0.1,0.9-0.3c0.1-0.1,0.2-0.3,0.2-0.7V147.4z"/>
		<path class="st0" d="M768.2,142.4c0.6,0,1,0.5,1,1s-0.4,1-1,1c-0.6,0-1-0.5-1-1S767.6,142.4,768.2,142.4z M768.2,145.4
			c0.7,0,0.8,0,0.8,0.2v6.1c0,0.1-0.1,0.2-0.8,0.2h-0.1c-0.8,0-0.8,0-0.8-0.2v-6.1C767.3,145.4,767.4,145.4,768.2,145.4L768.2,145.4
			z"/>
		<path class="st0" d="M770.6,150.4c0.2-0.4,0.3-0.5,0.5-0.4c0.5,0.3,1,0.5,1.6,0.5c0.6,0,1-0.2,1-0.6c0-0.9-3.1-0.4-3.1-2.7
			c0-1.3,1.1-2.1,2.5-2.1c0.8,0,1.5,0.2,2,0.6c0.1,0.1,0.1,0.2-0.1,0.6l-0.1,0.2c-0.2,0.4-0.3,0.4-0.4,0.4c-0.4-0.2-0.8-0.4-1.2-0.4
			c-0.4,0-0.6,0.1-0.8,0.2c-0.1,0.1-0.2,0.2-0.2,0.4c0,0.9,3.1,0.4,3.1,2.6c0,0.6-0.2,1.1-0.6,1.5c-0.5,0.4-1.1,0.7-2,0.7
			c-0.9,0-1.8-0.3-2.3-0.7c-0.1-0.1-0.1-0.2,0.1-0.5L770.6,150.4z"/>
		<path class="st0" d="M777.7,143.6c0.7,0,0.8,0,0.8,0.2v1.6h1.4c0.1,0,0.2,0,0.2,0.6v0.1c0,0.6,0,0.6-0.2,0.6h-1.4v3
			c0,0.4,0.1,0.5,0.2,0.7c0.1,0.1,0.3,0.2,0.5,0.2c0.2,0,0.4,0,0.6-0.1c0.1,0,0.2,0,0.3,0.5l0,0.1c0.1,0.5,0.1,0.5,0,0.6
			c-0.4,0.2-0.9,0.3-1.4,0.3c-0.7,0-1.2-0.2-1.5-0.5c-0.3-0.3-0.5-0.9-0.5-1.6v-3.1H776c-0.1,0-0.2,0-0.2-0.6V146
			c0-0.6,0-0.6,0.2-0.6h0.8v-1.6C776.8,143.6,776.9,143.6,777.7,143.6L777.7,143.6z"/>
		<path class="st0" d="M782.8,149.1c0.1,0.9,0.7,1.3,1.6,1.3c0.6,0,1.2-0.2,1.7-0.4c0.1-0.1,0.2,0,0.3,0.4l0.1,0.3
			c0.1,0.4,0.1,0.5,0,0.6c-0.6,0.3-1.5,0.6-2.4,0.6c-1.9,0-3.1-1.2-3.1-3.3c0-2,1.1-3.4,3-3.4c1.8,0,2.8,1.4,2.8,3.3
			c0,0.5,0,0.6-0.1,0.6H782.8z M785.2,147.9c-0.1-0.8-0.5-1.3-1.1-1.3c-0.7,0-1.1,0.5-1.3,1.3H785.2z"/>
		<path class="st0" d="M788.9,145.4c0.6,0,0.7,0,0.7,0.2c0,0.1,0.1,0.8,0.1,1.3c0.4-1,0.9-1.5,1.7-1.5c0.1,0,0.2,0,0.3,0
			c0.1,0,0.1,0.1,0.1,0.6v0.2c0,0.6,0,0.6-0.2,0.7c-0.7,0.1-1.1,0.4-1.4,0.8c-0.3,0.5-0.5,1.2-0.5,2.3v1.8c0,0.1-0.1,0.2-0.8,0.2
			H789c-0.8,0-0.8,0-0.8-0.2v-3.4c0-0.9,0-2-0.1-2.7C788.1,145.4,788.2,145.4,788.9,145.4L788.9,145.4z"/>
		<path class="st0" d="M792.9,150.4c0.2-0.4,0.3-0.5,0.5-0.4c0.5,0.3,1,0.5,1.6,0.5c0.6,0,1-0.2,1-0.6c0-0.9-3.1-0.4-3.1-2.7
			c0-1.3,1.1-2.1,2.5-2.1c0.8,0,1.5,0.2,2,0.6c0.1,0.1,0.1,0.2-0.1,0.6l-0.1,0.2c-0.2,0.4-0.3,0.4-0.4,0.4c-0.4-0.2-0.8-0.4-1.2-0.4
			c-0.4,0-0.6,0.1-0.8,0.2c-0.1,0.1-0.2,0.2-0.2,0.4c0,0.9,3.1,0.4,3.1,2.6c0,0.6-0.2,1.1-0.6,1.5c-0.5,0.4-1.1,0.7-2,0.7
			c-0.9,0-1.8-0.3-2.3-0.7c-0.1-0.1-0.1-0.2,0.1-0.5L792.9,150.4z"/>
	</g>
</g>
<g>
	<path class="st0" d="M752.3,161.5c0,2.2-1.1,3.5-3.1,3.5c-1.8,0-2.9-1.1-2.9-3.2c0-2.2,1.1-3.5,3.1-3.5
		C751.2,158.2,752.3,159.4,752.3,161.5z M747.9,161.6c0,1.2,0.4,1.8,1.2,1.8c1,0,1.4-0.7,1.4-1.9c0-1.2-0.4-1.8-1.2-1.8
		C748.4,159.7,747.9,160.4,747.9,161.6z"/>
	<path class="st0" d="M753.9,158.4v-0.3c0-0.9,0.2-1.6,0.7-2c0.4-0.4,1-0.6,1.8-0.6c0.5,0,0.9,0.1,1.3,0.2c0.1,0,0.1,0.1,0,0.6
		l0,0.2c-0.1,0.4-0.2,0.5-0.3,0.5c-0.3-0.1-0.5-0.1-0.8-0.1c-0.4,0-0.7,0.1-0.8,0.3c-0.2,0.2-0.2,0.6-0.2,1v0.2h1.4
		c0.1,0,0.2,0,0.2,0.6v0.1c0,0.6,0,0.6-0.2,0.6h-1.4v4.9c0,0.1-0.1,0.2-0.8,0.2h-0.1c-0.8,0-0.8,0-0.8-0.2v-4.9h-0.9
		c-0.1,0-0.2,0-0.2-0.6V159c0-0.6,0-0.6,0.2-0.6H753.9z"/>
	<path class="st0" d="M766.1,157.5c-0.2,0.5-0.3,0.5-0.4,0.4c-0.5-0.3-0.9-0.5-1.5-0.5c-0.7,0-1.1,0.4-1.1,1c0,0.6,0.7,0.9,1.4,1.3
		c1,0.5,2.2,1.1,2.2,2.7c0,1.5-1,2.6-3,2.6c-1.1,0-2-0.4-2.6-0.8c-0.2-0.1-0.2-0.3,0-0.7l0.1-0.3c0.2-0.4,0.3-0.5,0.5-0.4
		c0.6,0.4,1.2,0.7,1.8,0.7c0.8,0,1.3-0.4,1.3-1c0-0.8-0.7-1-1.4-1.4c-1-0.5-2.1-1.1-2.1-2.5c0-1.6,1.3-2.6,2.8-2.6
		c0.8,0,1.6,0.2,2.2,0.6c0.2,0.1,0.2,0.3,0,0.7L766.1,157.5z"/>
	<path class="st0" d="M772.6,159.8c-0.2,0.4-0.3,0.4-0.4,0.4c-0.4-0.3-0.8-0.5-1.3-0.5c-0.8,0-1.5,0.5-1.5,1.8
		c0,1.2,0.5,1.9,1.6,1.9c0.5,0,0.9-0.1,1.4-0.4c0.1-0.1,0.2,0,0.4,0.4l0.1,0.2c0.2,0.4,0.2,0.5,0.1,0.6c-0.5,0.3-1.3,0.6-2.1,0.6
		c-0.9,0-1.6-0.3-2.1-0.7c-0.6-0.6-1-1.5-1-2.6c0-1,0.3-1.9,0.9-2.5c0.5-0.5,1.3-0.9,2.3-0.9c0.8,0,1.5,0.3,2.1,0.7
		c0.1,0.1,0.1,0.2-0.1,0.6L772.6,159.8z"/>
	<path class="st0" d="M779.7,161.5c0,2.2-1.1,3.5-3.1,3.5c-1.8,0-2.9-1.1-2.9-3.2c0-2.2,1.1-3.5,3.1-3.5
		C778.6,158.2,779.7,159.4,779.7,161.5z M775.4,161.6c0,1.2,0.4,1.8,1.2,1.8c1,0,1.4-0.7,1.4-1.9c0-1.2-0.4-1.8-1.2-1.8
		C775.8,159.7,775.4,160.4,775.4,161.6z"/>
	<path class="st0" d="M782.2,156.6c0.7,0,0.8,0,0.8,0.2v1.6h1.4c0.1,0,0.2,0,0.2,0.6v0.1c0,0.6,0,0.6-0.2,0.6H783v3
		c0,0.4,0.1,0.5,0.2,0.7c0.1,0.1,0.3,0.2,0.5,0.2c0.2,0,0.4,0,0.6-0.1c0.1,0,0.2,0,0.3,0.5l0,0.1c0.1,0.5,0.1,0.5,0,0.6
		c-0.4,0.2-0.9,0.3-1.4,0.3c-0.7,0-1.2-0.2-1.5-0.5c-0.3-0.3-0.5-0.9-0.5-1.6v-3.1h-0.8c-0.1,0-0.2,0-0.2-0.6V159
		c0-0.6,0-0.6,0.2-0.6h0.8v-1.6C781.3,156.7,781.4,156.6,782.2,156.6L782.2,156.6z"/>
	<path class="st0" d="M786.7,155.5c0.7,0,0.8,0,0.8,0.2c0.1,0.4,0.1,1.9,0.1,3.5v3.9c0,0.3,0.1,0.4,0.4,0.4h0.1
		c0.1,0,0.1,0.1,0.1,0.5v0.1c0,0.4,0,0.5-0.1,0.5c-0.2,0.1-0.5,0.1-0.8,0.1c-0.4,0-0.8-0.1-1-0.4c-0.3-0.3-0.4-0.7-0.4-1.3V159
		c0-1.2-0.1-2.8-0.1-3.3C785.8,155.6,785.8,155.5,786.7,155.5L786.7,155.5z"/>
	<path class="st0" d="M793.5,158.5c0-0.1,0.1-0.2,0.7-0.2h0.1c0.6,0,0.7,0,0.7,0.2c0,0.4,0,1.6,0,2.6v0.7c0,0.9,0,2,0.1,2.7
		c0,0.2,0,0.2-0.7,0.2h-0.1c-0.6,0-0.7,0-0.7-0.2c0-0.1-0.1-0.3-0.1-0.4c-0.4,0.4-1,0.7-1.7,0.7c-1.6,0-2.6-1.2-2.6-3.2
		c0-2.2,1.2-3.5,2.7-3.5c0.7,0,1.3,0.3,1.5,0.7L793.5,158.5z M793.3,160.3c-0.2-0.4-0.6-0.6-1.1-0.6c-0.9,0-1.3,0.7-1.3,2
		c0,1.1,0.3,1.9,1.3,1.9c0.4,0,0.7-0.1,0.9-0.4c0.1-0.2,0.2-0.4,0.2-0.7V160.3z"/>
	<path class="st0" d="M797.3,158.4c0.6,0,0.7,0,0.8,0.2c0,0.1,0.1,0.3,0.1,0.5c0.4-0.5,1-0.8,1.8-0.8c0.7,0,1.3,0.2,1.7,0.7
		c0.4,0.5,0.6,1,0.6,2v3.7c0,0.1-0.1,0.2-0.8,0.2h-0.1c-0.8,0-0.8,0-0.8-0.2v-3.3c0-0.8,0-1.1-0.2-1.3c-0.2-0.2-0.5-0.3-0.8-0.3
		c-0.3,0-0.6,0.1-0.8,0.2c-0.3,0.2-0.3,0.4-0.3,0.6c0,0.3,0,0.7,0,1.2v2.8c0,0.1-0.1,0.2-0.8,0.2h-0.1c-0.8,0-0.8,0-0.8-0.2v-3.4
		c0-0.9,0-2-0.1-2.7C796.5,158.4,796.5,158.4,797.3,158.4L797.3,158.4z"/>
	<path class="st0" d="M808.4,155.5c0.7,0,0.8,0,0.8,0.2v7.4c0,0.3,0.1,0.3,0.4,0.3c0.1,0,0.2,0.1,0.2,0.5v0.1c0,0.4,0,0.5-0.1,0.6
		c-0.2,0.1-0.5,0.1-0.9,0.1c-0.5,0-0.9-0.2-1.1-0.6c-0.4,0.4-1,0.7-1.7,0.7c-1.6,0-2.6-1.2-2.6-3.2c0-2.2,1.1-3.4,2.7-3.4
		c0.6,0,1,0.2,1.4,0.5v-3.1C807.5,155.6,807.5,155.5,808.4,155.5L808.4,155.5z M807.5,160.2c-0.3-0.4-0.7-0.6-1.1-0.6
		c-0.9,0-1.3,0.7-1.3,2c0,0.7,0.2,1.2,0.4,1.5c0.2,0.3,0.6,0.4,0.9,0.4c0.3,0,0.7-0.1,0.9-0.3c0.1-0.1,0.2-0.3,0.2-0.7V160.2z"/>
</g>
</svg>
