<?xml version="1.0" encoding="utf-8"?>
<!-- Generator: Adobe Illustrator 19.2.0, SVG Export Plug-In . SVG Version: 6.00 Build 0)  -->
<!DOCTYPE svg PUBLIC "-//W3C//DTD SVG 1.1//EN" "http://www.w3.org/Graphics/SVG/1.1/DTD/svg11.dtd">
<svg version="1.1" id="Layer_1" xmlns="http://www.w3.org/2000/svg" xmlns:xlink="http://www.w3.org/1999/xlink" x="0px" y="0px"
	 width="253.5px" height="55.2px" viewBox="0 0 253.5 55.2" style="enable-background:new 0 0 253.5 55.2;" xml:space="preserve">
<style type="text/css">
	.st0{fill:#FFFFFF;}
</style>
<g>
	<path class="st0" d="M241.2,14.3c-0.9-2-2.2-4.3-3.6-6.5c2.5-3,4.7-4.7,6.1-4.7c0.2,0,0.3,0,0.4,0.1c1.5,0.6,1.9,4.9,0.9,10.5
		C243.8,13.8,242.5,14.1,241.2,14.3z"/>
	<path class="st0" d="M235.6,28.4c-0.2,0-0.5,0-0.7,0l-0.2,0c-0.1,0-0.3-0.1-0.4-0.1c-0.2,0-0.3-0.1-0.4-0.1c-0.1,0-0.2-0.1-0.3-0.1
		c-1.4-0.6-2.4-1.8-2.8-3.5c-0.4-2.6,1.9-5.3,6.1-7c0.9-0.4,2-0.8,3.2-1.1c1.7,4.5,1.3,8.4-0.9,10.4c-0.4,0.3-0.7,0.6-1.1,0.8
		c-0.2,0.1-0.3,0.2-0.5,0.2C237,28.3,236.3,28.4,235.6,28.4z"/>
	<path class="st0" d="M231.2,19.2c0.2-0.7,0.4-1.4,0.7-2.1c1-2.4,2.6-5.2,4.5-7.7c1.2,1.9,2.2,3.7,3,5.5c-1.2,0.3-2.2,0.7-3.2,1.1
		C234.1,16.8,232.4,17.9,231.2,19.2z"/>
	<path class="st0" d="M243,21.3c-0.1-1.6-0.4-3.4-1.1-5.2c0.9-0.2,1.8-0.4,2.7-0.5C244.2,17.7,243.6,19.6,243,21.3z"/>
	<path class="st0" d="M228.8,23.6c-0.5-0.9-1-1.8-1.4-2.8c-1.4-3.5-2.6-8.5-2.9-12.7c-0.4-5.2,0.6-7.6,1.6-8
		c0.2-0.1,0.3-0.1,0.5-0.1c1.9,0,5.4,3.1,8.7,7.7c-2.1,2.7-4,5.9-5.1,8.6C229.1,19,228.7,21.5,228.8,23.6z"/>
	<path class="st0" d="M241.9,26.9c1-1.2,1.9-2.8,2.6-4.6c0.8-1.9,1.5-4.4,2-7c0.8-0.1,1.6-0.1,2.3-0.1c2.9,0,4.3,0.6,4.5,1.2
		C254.2,18.4,247.9,24.1,241.9,26.9z"/>
</g>
<g>
	<path class="st0" d="M35.6,47c0.2,0,0.4,0.1,0.5,0.2l1.3,1.4c-0.9,1-2,1.9-3.1,2.7c-1.1,0.8-2.3,1.5-3.6,2s-2.8,1-4.3,1.3
		c-1.6,0.3-3.3,0.5-5.2,0.5c-3.1,0-6-0.5-8.6-1.6c-2.6-1.1-4.9-2.7-6.7-4.7c-1.9-2-3.3-4.5-4.4-7.3c-1-2.9-1.6-6-1.6-9.5
		c0-3.4,0.5-6.6,1.6-9.4c1.1-2.8,2.6-5.3,4.5-7.3s4.3-3.6,7-4.7c2.7-1.1,5.7-1.7,9-1.7c1.6,0,3.1,0.1,4.5,0.4s2.6,0.6,3.8,1.1
		c1.2,0.5,2.3,1,3.3,1.7c1,0.7,2.1,1.5,3.1,2.4l-1,1.4c-0.2,0.3-0.4,0.4-0.8,0.4c-0.2,0-0.4-0.1-0.7-0.3c-0.3-0.2-0.7-0.5-1.1-0.8
		c-0.5-0.3-1-0.7-1.7-1.1c-0.7-0.4-1.4-0.8-2.3-1.1s-1.9-0.6-3.1-0.8c-1.2-0.2-2.5-0.3-4-0.3c-2.8,0-5.3,0.5-7.6,1.4
		c-2.3,0.9-4.3,2.3-6,4.1c-1.7,1.8-3,3.9-3.9,6.4c-0.9,2.5-1.4,5.3-1.4,8.4c0,3.2,0.5,6.1,1.4,8.6c0.9,2.5,2.2,4.6,3.8,6.4
		c1.6,1.7,3.5,3.1,5.7,4c2.2,0.9,4.6,1.4,7.2,1.4c1.6,0,3.1-0.1,4.3-0.3c1.3-0.2,2.4-0.5,3.5-1s2.1-0.9,3-1.6
		c0.9-0.6,1.8-1.3,2.7-2.2c0.1-0.1,0.2-0.2,0.3-0.2C35.4,47.1,35.5,47,35.6,47z"/>
	<path class="st0" d="M46.4,22.8v20.4c0,3,0.7,5.3,2.1,7s3.5,2.5,6.3,2.5c2.1,0,4-0.5,5.8-1.6c1.8-1.1,3.4-2.5,4.8-4.4V22.8h3v31.8
		h-1.7c-0.6,0-0.9-0.3-0.9-0.8l-0.3-4.7c-1.5,1.8-3.2,3.3-5.1,4.4c-1.9,1.1-4.1,1.7-6.5,1.7c-1.8,0-3.3-0.3-4.6-0.8
		C48,53.8,46.9,53,46,51.9s-1.5-2.3-2-3.8c-0.4-1.5-0.7-3.1-0.7-5V22.8H46.4z"/>
	<path class="st0" d="M80.1,8.1v46.6h-3V8.1H80.1z"/>
	<path class="st0" d="M97.8,55.2c-2.2,0-3.8-0.6-5-1.8c-1.2-1.2-1.8-3-1.8-5.5V26.1h-4.6c-0.2,0-0.4-0.1-0.6-0.2
		c-0.1-0.1-0.2-0.3-0.2-0.5v-1.2l5.4-0.4l0.8-11.4c0-0.2,0.1-0.4,0.2-0.5c0.1-0.1,0.3-0.2,0.6-0.2H94v12.2h10v2.3H94v21.6
		c0,0.9,0.1,1.6,0.3,2.3s0.5,1.1,0.9,1.6c0.4,0.4,0.9,0.7,1.4,0.9c0.5,0.2,1.1,0.3,1.7,0.3c0.8,0,1.4-0.1,2-0.3
		c0.6-0.2,1-0.5,1.4-0.7c0.4-0.3,0.7-0.5,1-0.7c0.3-0.2,0.5-0.3,0.6-0.3c0.2,0,0.3,0.1,0.5,0.3l0.8,1.3c-0.8,0.9-1.8,1.6-3.1,2.2
		S99.1,55.2,97.8,55.2z"/>
	<path class="st0" d="M114.8,11.8c0,0.4-0.1,0.7-0.2,1.1c-0.2,0.3-0.4,0.6-0.6,0.9s-0.6,0.5-0.9,0.6c-0.3,0.1-0.7,0.2-1.1,0.2
		c-0.4,0-0.7-0.1-1.1-0.2s-0.6-0.4-0.9-0.6c-0.3-0.3-0.5-0.5-0.6-0.9c-0.1-0.3-0.2-0.7-0.2-1.1c0-0.4,0.1-0.8,0.2-1.1
		c0.1-0.4,0.4-0.7,0.6-0.9c0.3-0.3,0.6-0.5,0.9-0.6c0.3-0.1,0.7-0.2,1.1-0.2c0.4,0,0.7,0.1,1.1,0.2c0.3,0.2,0.6,0.4,0.9,0.6
		s0.5,0.6,0.6,0.9C114.7,11.1,114.8,11.4,114.8,11.8z M113.5,22.8v31.8h-3V22.8H113.5z"/>
	<path class="st0" d="M134.7,54.6h-2.7l-13.4-31.8h2.4c0.3,0,0.5,0.1,0.7,0.2c0.2,0.2,0.3,0.3,0.4,0.5l10.5,25.1
		c0.2,0.5,0.4,1,0.5,1.4c0.1,0.4,0.2,0.9,0.3,1.3c0.1-0.4,0.2-0.9,0.3-1.4c0.1-0.5,0.3-0.9,0.5-1.4l10.6-25.1
		c0.1-0.2,0.3-0.4,0.4-0.6c0.2-0.1,0.4-0.2,0.7-0.2h2.3L134.7,54.6z"/>
	<path class="st0" d="M172.5,54.6c-0.6,0-1-0.3-1.2-0.9l-0.4-4.1c-0.9,0.9-1.7,1.6-2.6,2.3c-0.9,0.7-1.8,1.3-2.7,1.7
		c-0.9,0.5-2,0.8-3,1.1c-1.1,0.2-2.3,0.4-3.6,0.4c-1.1,0-2.1-0.2-3.2-0.5c-1-0.3-1.9-0.8-2.7-1.5c-0.8-0.7-1.4-1.5-1.9-2.5
		c-0.5-1-0.7-2.3-0.7-3.7c0-1.3,0.4-2.6,1.2-3.7s2-2.2,3.6-3c1.6-0.9,3.7-1.5,6.3-2c2.6-0.5,5.7-0.8,9.3-0.9v-3.3
		c0-2.9-0.6-5.2-1.9-6.8c-1.3-1.6-3.2-2.4-5.6-2.4c-1.5,0-2.8,0.2-3.9,0.6c-1.1,0.4-2,0.9-2.7,1.4c-0.7,0.5-1.4,1-1.8,1.4
		s-0.9,0.6-1.2,0.6c-0.4,0-0.7-0.2-1-0.6l-0.5-0.9c1.7-1.7,3.4-2.9,5.2-3.8c1.8-0.9,3.9-1.3,6.2-1.3c1.7,0,3.2,0.3,4.5,0.8
		c1.3,0.5,2.3,1.3,3.2,2.3c0.8,1,1.5,2.2,1.9,3.7c0.4,1.4,0.6,3,0.6,4.8v20.7H172.5z M159.7,52.9c1.2,0,2.4-0.1,3.4-0.4
		s2-0.6,2.9-1.1c0.9-0.5,1.7-1.1,2.5-1.7s1.5-1.4,2.3-2.1v-8.3c-3,0.1-5.6,0.3-7.8,0.7c-2.2,0.4-4,0.9-5.4,1.5
		c-1.4,0.6-2.5,1.4-3.1,2.3c-0.7,0.9-1,1.9-1,3c0,1.1,0.2,2,0.5,2.8c0.4,0.8,0.8,1.4,1.4,1.9c0.6,0.5,1.2,0.9,2,1.1
		C158.1,52.8,158.9,52.9,159.7,52.9z"/>
	<path class="st0" d="M189.9,55.2c-2.2,0-3.8-0.6-5-1.8c-1.2-1.2-1.8-3-1.8-5.5V26.1h-4.6c-0.2,0-0.4-0.1-0.6-0.2
		c-0.1-0.1-0.2-0.3-0.2-0.5v-1.2l5.4-0.4l0.8-11.4c0-0.2,0.1-0.4,0.2-0.5c0.1-0.1,0.3-0.2,0.6-0.2h1.4v12.2h10v2.3h-10v21.6
		c0,0.9,0.1,1.6,0.3,2.3s0.5,1.1,0.9,1.6c0.4,0.4,0.9,0.7,1.4,0.9c0.5,0.2,1.1,0.3,1.7,0.3c0.8,0,1.4-0.1,2-0.3
		c0.6-0.2,1-0.5,1.4-0.7c0.4-0.3,0.7-0.5,1-0.7c0.3-0.2,0.5-0.3,0.6-0.3c0.2,0,0.3,0.1,0.5,0.3l0.8,1.3c-0.8,0.9-1.8,1.6-3.1,2.2
		S191.2,55.2,189.9,55.2z"/>
	<path class="st0" d="M213.2,22.3c1.8,0,3.5,0.3,5,0.9c1.5,0.6,2.8,1.5,4,2.7c1.1,1.2,2,2.6,2.6,4.4c0.6,1.7,0.9,3.7,0.9,6
		c0,0.5-0.1,0.8-0.2,1c-0.1,0.2-0.4,0.3-0.7,0.3h-23v0.6c0,2.4,0.3,4.5,0.8,6.3c0.6,1.8,1.3,3.3,2.4,4.6s2.3,2.1,3.7,2.8
		c1.5,0.6,3.1,0.9,4.9,0.9c1.6,0,3-0.2,4.2-0.5c1.2-0.4,2.2-0.7,3-1.2s1.4-0.8,1.9-1.2c0.5-0.4,0.8-0.5,1-0.5c0.3,0,0.5,0.1,0.6,0.3
		l0.8,1c-0.5,0.6-1.2,1.2-2,1.8c-0.8,0.6-1.8,1-2.8,1.4c-1,0.4-2.1,0.7-3.3,0.9c-1.2,0.2-2.4,0.4-3.6,0.4c-2.2,0-4.2-0.4-6-1.1
		s-3.3-1.9-4.6-3.3c-1.3-1.5-2.3-3.2-3-5.3c-0.7-2.1-1.1-4.5-1.1-7.2c0-2.3,0.3-4.4,1-6.3c0.7-1.9,1.6-3.6,2.8-5
		c1.2-1.4,2.7-2.5,4.5-3.3C209,22.7,211,22.3,213.2,22.3z M213.3,24.6c-1.6,0-3.1,0.3-4.4,0.8c-1.3,0.5-2.4,1.2-3.4,2.2
		c-0.9,1-1.7,2.1-2.3,3.5c-0.6,1.3-1,2.8-1.2,4.5h21c0-1.7-0.2-3.2-0.7-4.6c-0.5-1.4-1.1-2.5-2-3.4c-0.9-0.9-1.9-1.7-3.1-2.2
		C216.1,24.8,214.7,24.6,213.3,24.6z"/>
</g>
</svg>
