<svg id="Layer_1" data-name="Layer 1" xmlns="http://www.w3.org/2000/svg" viewBox="0 0 205.75 48.25"><defs><style>.cls-1{fill:#fff;}</style></defs><title>logo-white</title><path class="cls-1" d="M194.86,12.46a34.18,34.18,0,0,0-2.74-4.91C194,5.31,195.66,4,196.69,4A.83.83,0,0,1,197,4c1.11.47,1.4,3.7.7,7.91A28,28,0,0,0,194.86,12.46Z"/><path class="cls-1" d="M190.61,23a3.27,3.27,0,0,1-.54,0l-.13,0-.29-.06-.27-.07-.21-.07a3.68,3.68,0,0,1-2.12-2.61c-.28-2,1.47-4,4.57-5.26a20.49,20.49,0,0,1,2.41-.82c1.24,3.42,1,6.34-.66,7.87a4.91,4.91,0,0,1-.82.58,3.52,3.52,0,0,1-.39.18A4,4,0,0,1,190.61,23Z"/><path class="cls-1" d="M187.27,16.1a13.77,13.77,0,0,1,.56-1.59,29,29,0,0,1,3.39-5.82,30.64,30.64,0,0,1,2.28,4.12,21.83,21.83,0,0,0-2.41.82A11.22,11.22,0,0,0,187.27,16.1Z"/><path class="cls-1" d="M196.19,17.66a13.66,13.66,0,0,0-.81-3.9c.68-.16,1.38-.29,2.06-.39A26.86,26.86,0,0,1,196.19,17.66Z"/><path class="cls-1" d="M185.52,19.42a15.38,15.38,0,0,1-1.07-2.15,33.3,33.3,0,0,1-2.17-9.54c-.3-3.94.42-5.69,1.19-6a.92.92,0,0,1,.38-.08c1.43,0,4.05,2.34,6.54,5.84A31.32,31.32,0,0,0,186.55,14,11.9,11.9,0,0,0,185.52,19.42Z"/><path class="cls-1" d="M195.37,21.89a13.35,13.35,0,0,0,2-3.43,29.15,29.15,0,0,0,1.53-5.27c.63,0,1.22-.08,1.76-.08,2.21,0,3.2.48,3.39.93C204.66,15.53,199.87,19.8,195.37,21.89Z"/><path class="cls-1" d="M1.53,31.63c0-9.1,3.9-14.53,10.35-14.53A8.27,8.27,0,0,1,20,22.91L18,23.66a6.38,6.38,0,0,0-6.13-4.6c-5.48,0-8.24,4.39-8.24,12.57,0,7.92,3.09,12.53,7.86,12.53a7,7,0,0,0,6.89-5.1l1.95.71a8.88,8.88,0,0,1-8.84,6.34C5.43,46.11,1.53,40.85,1.53,31.63Z"/><path class="cls-1" d="M44.16,40.8A8.55,8.55,0,0,1,36,46.11c-5.86,0-9-3.69-9-11.44V17.75h2V35.1c0,6.73,2.82,9.22,7.11,9.22,4.55,0,8-2.71,8-10.46V17.75h2V45.46h-2Z"/><path class="cls-1" d="M55.51,7.29l2-1V45.46h-2Z"/><path class="cls-1" d="M68.81,39.82V19.54H64.1V17.75h4.71V7.29l2-1V17.75h7v1.79h-7v20c0,2.87.6,4.66,3.36,4.66a7.82,7.82,0,0,0,4.07-1.3L78,45a8.26,8.26,0,0,1-4.06,1.14C70.06,46.11,68.81,43.4,68.81,39.82Z"/><path class="cls-1" d="M84.74,9.57a1.64,1.64,0,0,1,1.57-1.68,1.61,1.61,0,0,1,1.58,1.68,1.54,1.54,0,0,1-1.58,1.57A1.57,1.57,0,0,1,84.74,9.57Zm.6,8.18h2V45.46h-2Z"/><path class="cls-1" d="M94.28,17.75h2l8,22.34c.21.6.38,1.14.59,1.79.22-.65.38-1.19.6-1.79l8-22.34h2l-9.87,27.71h-1.41Z"/><path class="cls-1" d="M138,41.12a11.12,11.12,0,0,1-8.78,5c-5.42,0-8.84-3.2-8.84-9,0-6,4.28-8.78,9.49-8.78A14.85,14.85,0,0,1,138,31V26.86c0-6.56-3.25-8-6.78-8a17.26,17.26,0,0,0-8.34,2.66l-.6-1.68a18.49,18.49,0,0,1,9.11-2.77c3.85,0,8.56,1.63,8.56,9V45.46H138Zm0-2.28v-6a15,15,0,0,0-8.13-2.71c-3.8,0-7.37,2.22-7.37,7,0,4.34,2.6,7.21,6.72,7.21S136.09,41.45,138,38.84Z"/><path class="cls-1" d="M150,39.82V19.54h-4.72V17.75H150V7.29l2-1V17.75h7v1.79h-7v20c0,2.87.59,4.66,3.36,4.66a7.78,7.78,0,0,0,4.06-1.3L159.17,45a8.33,8.33,0,0,1-4.07,1.14C151.25,46.11,150,43.4,150,39.82Z"/><path class="cls-1" d="M164,31.58c0-9.22,4.66-14.48,11.12-14.48,5.91,0,10,4.4,10,14.48v.6h-19c.27,8.29,3.63,12,9.16,12a10.44,10.44,0,0,0,6.5-2.33l1.14,1.41a12.26,12.26,0,0,1-7.8,2.87C168.05,46.11,164,40.53,164,31.58Zm19.09-1.19c-.06-9.33-4.67-11.5-8-11.5-4.94,0-8.57,3.47-9,11.5Z"/></svg>