<svg xmlns="http://www.w3.org/2000/svg" width="253.5" height="55.2" viewBox="0 0 253.5 55.2"><style type="text/css">.st0{fill:#FFFFFF;}</style><path class="st0" d="M241.2 14.3c-.9-2-2.2-4.3-3.6-6.5 2.5-3 4.7-4.7 6.1-4.7.2 0 .3 0 .4.1 1.5.6 1.9 4.9.9 10.5-1.2.1-2.5.4-3.8.6zM235.6 28.4h-.8999999999999999l-.4-.1c-.2 0-.3-.1-.4-.1l-.3-.1c-1.4-.6-2.4-1.8-2.8-3.5-.4-2.6 1.9-5.3 6.1-7 .9-.4 2-.8 3.2-1.1 1.7 4.5 1.3 8.4-.9 10.4-.4.3-.7.6-1.1.8-.2.1-.3.2-.5.2-.6.4-1.3.5-2 .5zM231.2 19.2c.2-.7.4-1.4.7-2.1 1-2.4 2.6-5.2 4.5-7.7 1.2 1.9 2.2 3.7 3 5.5-1.2.3-2.2.7-3.2 1.1-2.1.8-3.8 1.9-5 3.2zM243 21.3c-.1-1.6-.4-3.4-1.1-5.2.9-.2 1.8-.4 2.7-.5-.4 2.1-1 4-1.6 5.7zM228.8 23.6c-.5-.9-1-1.8-1.4-2.8-1.4-3.5-2.6-8.5-2.9-12.7-.4-5.2.6-7.6 1.6-8 .2-.1.3-.1.5-.1 1.9 0 5.4 3.1 8.7 7.7-2.1 2.7-4 5.9-5.1 8.6-1.1 2.7-1.5 5.2-1.4 7.3zM241.9 26.9c1-1.2 1.9-2.8 2.6-4.6.8-1.9 1.5-4.4 2-7 .8-.1 1.6-.1 2.3-.1 2.9 0 4.3.6 4.5 1.2.9 2-5.4 7.7-11.4 10.5zM35.6 47c.2 0 .4.1.5.2l1.3 1.4c-.9 1-2 1.9-3.1 2.7-1.1.8-2.3 1.5-3.6 2s-2.8 1-4.3 1.3c-1.6.3-3.3.5-5.2.5-3.1 0-6-.5-8.6-1.6-2.6-1.1-4.9-2.7-6.7-4.7-1.9-2-3.3-4.5-4.4-7.3-1-2.9-1.6-6-1.6-9.5 0-3.4.5-6.6 1.6-9.4 1.1-2.8 2.6-5.3 4.5-7.3s4.3-3.6 7-4.7 5.7-1.7 9-1.7c1.6 0 3.1.1 4.5.4s2.6.6 3.8 1.1c1.2.5 2.3 1 3.3 1.7s2.1 1.5 3.1 2.4l-1 1.4c-.2.3-.4.4-.8.4-.2 0-.4-.1-.7-.3-.3-.2-.7-.5-1.1-.8-.5-.3-1-.7-1.7-1.1-.7-.4-1.4-.8-2.3-1.1s-1.9-.6-3.1-.8c-1.2-.2-2.5-.3-4-.3-2.8 0-5.3.5-7.6 1.4-2.3.9-4.3 2.3-6 4.1-1.7 1.8-3 3.9-3.9 6.4-.9 2.5-1.4 5.3-1.4 8.4 0 3.2.5 6.1 1.4 8.6.9 2.5 2.2 4.6 3.8 6.4 1.6 1.7 3.5 3.1 5.7 4 2.2.9 4.6 1.4 7.2 1.4 1.6 0 3.1-.1 4.3-.3 1.3-.2 2.4-.5 3.5-1s2.1-.9 3-1.6c.9-.6 1.8-1.3 2.7-2.2.1-.1.2-.2.3-.2.4-.2.5-.3.6-.3zM46.4 22.8v20.4c0 3 .7 5.3 2.1 7s3.5 2.5 6.3 2.5c2.1 0 4-.5 5.8-1.6 1.8-1.1 3.4-2.5 4.8-4.4v-23.9h3v31.8h-1.7c-.6 0-.9-.3-.9-.8l-.3-4.7c-1.5 1.8-3.2 3.3-5.1 4.4-1.9 1.1-4.1 1.7-6.5 1.7-1.8 0-3.3-.3-4.6-.8-1.3-.6-2.4-1.4-3.3-2.5s-1.5-2.3-2-3.8c-.4-1.5-.7-3.1-.7-5v-20.3h3.1zM80.1 8.1v46.6h-3v-46.6h3zM97.8 55.2c-2.2 0-3.8-.6-5-1.8-1.2-1.2-1.8-3-1.8-5.5v-21.8h-4.6c-.2 0-.4-.1-.6-.2-.1-.1-.2-.3-.2-.5v-1.2l5.4-.4.8-11.4c0-.2.1-.4.2-.5.1-.1.3-.2.6-.2h1.4v12.2h10v2.3h-10v21.6c0 .9.1 1.6.3 2.3s.5 1.1.9 1.6c.4.4.9.7 1.4.9.5.2 1.1.3 1.7.3.8 0 1.4-.1 2-.3.6-.2 1-.5 1.4-.7.4-.3.7-.5 1-.7.3-.2.5-.3.6-.3.2 0 .3.1.5.3l.8 1.3c-.8.9-1.8 1.6-3.1 2.2s-2.4.5-3.7.5zM114.8 11.8c0 .4-.1.7-.2 1.1l-.6.9s-.6.5-.9.6c-.3.1-.7.2-1.1.2-.4 0-.7-.1-1.1-.2l-.9-.6c-.3-.3-.5-.5-.6-.9-.1-.3-.2-.7-.2-1.1 0-.4.1-.8.2-1.1.1-.4.4-.7.6-.9.3-.3.6-.5.9-.6.3-.1.7-.2 1.1-.2.4 0 .7.1 1.1.2l.9.6s.5.6.6.9c.1.4.2.7.2 1.1zm-1.3 11v31.8h-3v-31.8h3zM134.7 54.6h-2.7l-13.4-31.8h2.4c.3 0 .5.1.7.2.2.2.3.3.4.5l10.5 25.1c.2.5.4 1 .5 1.4l.3 1.3c.1-.4.2-.9.3-1.4.1-.5.3-.9.5-1.4l10.6-25.1.4-.6c.2-.1.4-.2.7-.2h2.3l-13.5 32zM172.5 54.6c-.6 0-1-.3-1.2-.9l-.4-4.1c-.9.9-1.7 1.6-2.6 2.3-.9.7-1.8 1.3-2.7 1.7-.9.5-2 .8-3 1.1-1.1.2-2.3.4-3.6.4-1.1 0-2.1-.2-3.2-.5-1-.3-1.9-.8-2.7-1.5-.8-.7-1.4-1.5-1.9-2.5s-.7-2.3-.7-3.7c0-1.3.4-2.6 1.2-3.7s2-2.2 3.6-3c1.6-.9 3.7-1.5 6.3-2 2.6-.5 5.7-.8 9.3-.9v-3.3c0-2.9-.6-5.2-1.9-6.8-1.3-1.6-3.2-2.4-5.6-2.4-1.5 0-2.8.2-3.9.6-1.1.4-2 .9-2.7 1.4-.7.5-1.4 1-1.8 1.4s-.9.6-1.2.6c-.4 0-.7-.2-1-.6l-.5-.9c1.7-1.7 3.4-2.9 5.2-3.8 1.8-.9 3.9-1.3 6.2-1.3 1.7 0 3.2.3 4.5.8 1.3.5 2.3 1.3 3.2 2.3.8 1 1.5 2.2 1.9 3.7.4 1.4.6 3 .6 4.8v20.7h-1.4zm-12.8-1.7c1.2 0 2.4-.1 3.4-.4s2-.6 2.9-1.1c.9-.5 1.7-1.1 2.5-1.7s1.5-1.4 2.3-2.1v-8.3c-3 .1-5.6.3-7.8.7-2.2.4-4 .9-5.4 1.5-1.4.6-2.5 1.4-3.1 2.3-.7.9-1 1.9-1 3s.2 2 .5 2.8c.4.8.8 1.4 1.4 1.9.6.5 1.2.9 2 1.1.7.2 1.5.3 2.3.3zM189.9 55.2c-2.2 0-3.8-.6-5-1.8-1.2-1.2-1.8-3-1.8-5.5v-21.8h-4.6c-.2 0-.4-.1-.6-.2-.1-.1-.2-.3-.2-.5v-1.2l5.4-.4.8-11.4c0-.2.1-.4.2-.5.1-.1.3-.2.6-.2h1.4v12.2h10v2.3h-10v21.6c0 .9.1 1.6.3 2.3s.5 1.1.9 1.6c.4.4.9.7 1.4.9.5.2 1.1.3 1.7.3.8 0 1.4-.1 2-.3.6-.2 1-.5 1.4-.7.4-.3.7-.5 1-.7.3-.2.5-.3.6-.3.2 0 .3.1.5.3l.8 1.3c-.8.9-1.8 1.6-3.1 2.2s-2.4.5-3.7.5zM213.2 22.3c1.8 0 3.5.3 5 .9 1.5.6 2.8 1.5 4 2.7 1.1 1.2 2 2.6 2.6 4.4.6 1.7.9 3.7.9 6 0 .5-.1.8-.2 1-.1.2-.4.3-.7.3h-23v.6c0 2.4.3 4.5.8 6.3.6 1.8 1.3 3.3 2.4 4.6s2.3 2.1 3.7 2.8c1.5.6 3.1.9 4.9.9 1.6 0 3-.2 4.2-.5 1.2-.4 2.2-.7 3-1.2s1.4-.8 1.9-1.2c.5-.4.8-.5 1-.5.3 0 .5.1.6.3l.8 1c-.5.6-1.2 1.2-2 1.8-.8.6-1.8 1-2.8 1.4-1 .4-2.1.7-3.3.9-1.2.2-2.4.4-3.6.4-2.2 0-4.2-.4-6-1.1s-3.3-1.9-4.6-3.3c-1.3-1.5-2.3-3.2-3-5.3-.7-2.1-1.1-4.5-1.1-7.2 0-2.3.3-4.4 1-6.3.7-1.9 1.6-3.6 2.8-5 1.2-1.4 2.7-2.5 4.5-3.3 2-1 4-1.4 6.2-1.4zm.1 2.3c-1.6 0-3.1.3-4.4.8-1.3.5-2.4 1.2-3.4 2.2-.9 1-1.7 2.1-2.3 3.5-.6 1.3-1 2.8-1.2 4.5h21c0-1.7-.2-3.2-.7-4.6-.5-1.4-1.1-2.5-2-3.4-.9-.9-1.9-1.7-3.1-2.2-1.1-.6-2.5-.8-3.9-.8z"/></svg>