<?xml version="1.0" encoding="utf-8"?>
<!-- Generator: Adobe Illustrator 19.2.0, SVG Export Plug-In . SVG Version: 6.00 Build 0)  -->
<!DOCTYPE svg PUBLIC "-//W3C//DTD SVG 1.1//EN" "http://www.w3.org/Graphics/SVG/1.1/DTD/svg11.dtd">
<svg version="1.1" xmlns="http://www.w3.org/2000/svg" xmlns:xlink="http://www.w3.org/1999/xlink" x="0px" y="0px"
	 width="1565.7px" height="1428px" viewBox="0 0 1565.7 1428" style="enable-background:new 0 0 1565.7 1428;" xml:space="preserve"
	>
<style type="text/css">
	.st0{display:none;}
	.st1{display:inline;fill:#23292A;}
	.st2{fill:#2A3031;}
	.st3{fill:none;stroke:#2A3031;stroke-width:3;stroke-miterlimit:10;}
</style>
<g id="Layer_2" class="st0">
	<rect x="-207.7" y="-142" class="st1" width="1854.2" height="1701.2"/>
</g>
<g id="Layer_1">
	<g>
		<path class="st2" d="M184.6,1012.8c-18.8,0-34-15.3-34-34s15.3-34,34-34s34,15.3,34,34S203.3,1012.8,184.6,1012.8z M184.6,947.7
			c-17.1,0-31,13.9-31,31s13.9,31,31,31s31-13.9,31-31S201.7,947.7,184.6,947.7z"/>
	</g>
	<g>
		<path class="st2" d="M629.9,822.4c-18.8,0-34-15.3-34-34s15.3-34,34-34c18.8,0,34,15.3,34,34S648.7,822.4,629.9,822.4z
			 M629.9,757.4c-17.1,0-31,13.9-31,31s13.9,31,31,31s31-13.9,31-31S647,757.4,629.9,757.4z"/>
	</g>
	<g>
		<path class="st2" d="M499.7,1166.8c-18.8,0-34-15.3-34-34s15.3-34,34-34s34,15.3,34,34S518.4,1166.8,499.7,1166.8z M499.7,1101.7
			c-17.1,0-31,13.9-31,31s13.9,31,31,31s31-13.9,31-31S516.8,1101.7,499.7,1101.7z"/>
	</g>
	<g>
		<path class="st2" d="M482.6,635.7c-18.8,0-34-15.3-34-34s15.3-34,34-34c18.8,0,34,15.3,34,34S501.3,635.7,482.6,635.7z
			 M482.6,570.6c-17.1,0-31,13.9-31,31s13.9,31,31,31s31-13.9,31-31S499.7,570.6,482.6,570.6z"/>
	</g>
	<g>
		<path class="st2" d="M723,587.7c-18.8,0-34-15.3-34-34c0-18.8,15.3-34,34-34s34,15.3,34,34C757,572.4,741.7,587.7,723,587.7z
			 M723,522.6c-17.1,0-31,13.9-31,31s13.9,31,31,31s31-13.9,31-31S740.1,522.6,723,522.6z"/>
	</g>
	<g>
		<path class="st2" d="M1014.9,737.1c-18.8,0-34-15.3-34-34c0-18.8,15.3-34,34-34c18.8,0,34,15.3,34,34
			C1049,721.8,1033.7,737.1,1014.9,737.1z M1014.9,672c-17.1,0-31,13.9-31,31s13.9,31,31,31c17.1,0,31-13.9,31-31
			S1032,672,1014.9,672z"/>
	</g>
	<g>
		<path class="st2" d="M695.1,943.3c-16.2,0-29.4-13.2-29.4-29.4s13.2-29.4,29.4-29.4s29.4,13.2,29.4,29.4S711.3,943.3,695.1,943.3z
			 M695.1,887.5c-14.6,0-26.4,11.8-26.4,26.4s11.8,26.4,26.4,26.4s26.4-11.8,26.4-26.4S709.6,887.5,695.1,887.5z"/>
	</g>
	<g>
		<path class="st2" d="M810.4,1103.4c-16.2,0-29.4-13.2-29.4-29.4s13.2-29.4,29.4-29.4s29.4,13.2,29.4,29.4
			S826.6,1103.4,810.4,1103.4z M810.4,1047.5c-14.6,0-26.4,11.8-26.4,26.4s11.8,26.4,26.4,26.4s26.4-11.8,26.4-26.4
			S825,1047.5,810.4,1047.5z"/>
	</g>
	<g>
		<path class="st2" d="M1068.8,1045.3c-14.7,0-26.6-11.9-26.6-26.6c0-14.7,11.9-26.6,26.6-26.6c14.7,0,26.6,11.9,26.6,26.6
			C1095.3,1033.4,1083.4,1045.3,1068.8,1045.3z M1068.8,995.2c-13,0-23.6,10.6-23.6,23.6c0,13,10.6,23.6,23.6,23.6
			c13,0,23.6-10.6,23.6-23.6C1092.3,1005.8,1081.8,995.2,1068.8,995.2z"/>
	</g>
	<g>
		<path class="st2" d="M1014.9,1100.4c-12,0-21.8-9.8-21.8-21.8c0-12,9.8-21.8,21.8-21.8c12,0,21.8,9.8,21.8,21.8
			C1036.7,1090.7,1026.9,1100.4,1014.9,1100.4z M1014.9,1059.9c-10.3,0-18.8,8.4-18.8,18.8s8.4,18.8,18.8,18.8s18.8-8.4,18.8-18.8
			S1025.3,1059.9,1014.9,1059.9z"/>
	</g>
	<g>
		<path class="st2" d="M533.8,538.8c-12,0-21.8-9.8-21.8-21.8c0-12,9.8-21.8,21.8-21.8c12,0,21.8,9.8,21.8,21.8
			C555.5,529,545.8,538.8,533.8,538.8z M533.8,498.3c-10.3,0-18.8,8.4-18.8,18.8s8.4,18.8,18.8,18.8s18.8-8.4,18.8-18.8
			S544.1,498.3,533.8,498.3z"/>
	</g>
	<g>
		<path class="st2" d="M1159.1,1234.8c-16.1,0-29.1-13.1-29.1-29.1c0-16.1,13.1-29.1,29.1-29.1c16.1,0,29.1,13.1,29.1,29.1
			C1188.2,1221.7,1175.1,1234.8,1159.1,1234.8z M1159.1,1179.5c-14.4,0-26.1,11.7-26.1,26.1c0,14.4,11.7,26.1,26.1,26.1
			c14.4,0,26.1-11.7,26.1-26.1C1185.2,1191.3,1173.5,1179.5,1159.1,1179.5z"/>
	</g>
	<g>
		<path class="st2" d="M1411.2,1178.4c-11.6,0-21-9.4-21-21s9.4-21,21-21c11.6,0,21,9.4,21,21S1422.7,1178.4,1411.2,1178.4z
			 M1411.2,1139.4c-9.9,0-18,8.1-18,18s8.1,18,18,18c9.9,0,18-8.1,18-18S1421.1,1139.4,1411.2,1139.4z"/>
	</g>
	<g>
		<path class="st2" d="M1352.7,949.4c-15.1,0-27.3-12.3-27.3-27.3s12.3-27.3,27.3-27.3c15.1,0,27.3,12.3,27.3,27.3
			S1367.8,949.4,1352.7,949.4z M1352.7,897.7c-13.4,0-24.3,10.9-24.3,24.3s10.9,24.3,24.3,24.3c13.4,0,24.3-10.9,24.3-24.3
			S1366.2,897.7,1352.7,897.7z"/>
	</g>
	<g>
		<path class="st2" d="M1535.2,1121.1c-9.2,0-16.6-7.5-16.6-16.6s7.5-16.6,16.6-16.6s16.6,7.5,16.6,16.6
			S1544.4,1121.1,1535.2,1121.1z M1535.2,1090.8c-7.5,0-13.6,6.1-13.6,13.6s6.1,13.6,13.6,13.6s13.6-6.1,13.6-13.6
			S1542.7,1090.8,1535.2,1090.8z"/>
	</g>
	<g>
		<path class="st2" d="M1476.1,1034.4c-11.1,0-20.1-9-20.1-20.1s9-20.1,20.1-20.1s20.1,9,20.1,20.1S1487.2,1034.4,1476.1,1034.4z
			 M1476.1,997.1c-9.5,0-17.1,7.7-17.1,17.1c0,9.4,7.7,17.1,17.1,17.1s17.1-7.7,17.1-17.1C1493.2,1004.8,1485.5,997.1,1476.1,997.1z
			"/>
	</g>
	<g>
		<path class="st2" d="M1183.4,913.5c-12.2,0-22.2-10-22.2-22.2s10-22.2,22.2-22.2c12.2,0,22.2,10,22.2,22.2
			S1195.6,913.5,1183.4,913.5z M1183.4,872.1c-10.6,0-19.2,8.6-19.2,19.2s8.6,19.2,19.2,19.2s19.2-8.6,19.2-19.2
			S1193.9,872.1,1183.4,872.1z"/>
	</g>
	<g>
		<path class="st2" d="M1441.6,1264.1c-5.2,0-9.4-4.2-9.4-9.4s4.2-9.4,9.4-9.4s9.4,4.2,9.4,9.4S1446.8,1264.1,1441.6,1264.1z
			 M1441.6,1248.3c-3.5,0-6.4,2.9-6.4,6.4s2.9,6.4,6.4,6.4s6.4-2.9,6.4-6.4S1445.1,1248.3,1441.6,1248.3z"/>
	</g>
	<g>
		<path class="st2" d="M1225.8,1422.1c-11.6,0-21-9.4-21-21s9.4-21,21-21s21,9.4,21,21S1237.4,1422.1,1225.8,1422.1z M1225.8,1383.1
			c-9.9,0-18,8.1-18,18s8.1,18,18,18s18-8.1,18-18S1235.7,1383.1,1225.8,1383.1z"/>
	</g>
	<g>
		<path class="st2" d="M1263.7,1332.4c-5.4,0-9.8-4.4-9.8-9.8s4.4-9.8,9.8-9.8s9.8,4.4,9.8,9.8S1269.1,1332.4,1263.7,1332.4z
			 M1263.7,1315.7c-3.8,0-6.8,3.1-6.8,6.8s3.1,6.8,6.8,6.8s6.8-3.1,6.8-6.8S1267.4,1315.7,1263.7,1315.7z"/>
	</g>
	<g>
		<path class="st2" d="M1185.2,1074.9c-9,0-16.3-7.3-16.3-16.3s7.3-16.3,16.3-16.3s16.3,7.3,16.3,16.3S1194.2,1074.9,1185.2,1074.9z
			 M1185.2,1045.3c-7.3,0-13.3,6-13.3,13.3s6,13.3,13.3,13.3s13.3-6,13.3-13.3S1192.5,1045.3,1185.2,1045.3z"/>
	</g>
	<g>
		<path class="st2" d="M946.1,1198.8c-23.3,0-42.2-18.9-42.2-42.2s18.9-42.2,42.2-42.2s42.2,18.9,42.2,42.2
			S969.4,1198.8,946.1,1198.8z M946.1,1117.4c-21.6,0-39.2,17.6-39.2,39.2s17.6,39.2,39.2,39.2s39.2-17.6,39.2-39.2
			S967.7,1117.4,946.1,1117.4z"/>
	</g>
	<g>
		<path class="st2" d="M858.3,837.5c-23.3,0-42.2-18.9-42.2-42.2s18.9-42.2,42.2-42.2s42.2,18.9,42.2,42.2S881.6,837.5,858.3,837.5z
			 M858.3,756.1c-21.6,0-39.2,17.6-39.2,39.2c0,21.6,17.6,39.2,39.2,39.2s39.2-17.6,39.2-39.2C897.5,773.7,879.9,756.1,858.3,756.1z
			"/>
	</g>
	<g>
		<path class="st2" d="M1263.7,544.5c-23.3,0-42.2-18.9-42.2-42.2c0-23.3,18.9-42.2,42.2-42.2s42.2,18.9,42.2,42.2
			C1305.9,525.5,1287,544.5,1263.7,544.5z M1263.7,463c-21.6,0-39.2,17.6-39.2,39.2c0,21.6,17.6,39.2,39.2,39.2
			c21.6,0,39.2-17.6,39.2-39.2C1302.9,480.6,1285.3,463,1263.7,463z"/>
	</g>
	<g>
		<path class="st2" d="M918.9,1024.2c-30.3,0-55-24.7-55-55c0-30.3,24.7-55,55-55s55,24.7,55,55
			C973.9,999.5,949.3,1024.2,918.9,1024.2z M918.9,917.2c-28.7,0-52,23.3-52,52c0,28.7,23.3,52,52,52s52-23.3,52-52
			C970.9,940.5,947.6,917.2,918.9,917.2z"/>
	</g>
	<g>
		<path class="st2" d="M194.9,920.5c-10.5,0-19-8.5-19-19s8.5-19,19-19s19,8.5,19,19S205.4,920.5,194.9,920.5z M194.9,885.5
			c-8.8,0-16,7.2-16,16s7.2,16,16,16s16-7.2,16-16S203.8,885.5,194.9,885.5z"/>
	</g>
	<g>
		<path class="st2" d="M23.5,1031.8c-10.5,0-19-8.5-19-19s8.5-19,19-19s19,8.5,19,19S34,1031.8,23.5,1031.8z M23.5,996.7
			c-8.8,0-16,7.2-16,16s7.2,16,16,16s16-7.2,16-16S32.4,996.7,23.5,996.7z"/>
	</g>
	<g>
		<path class="st2" d="M364.3,1090.3c-9,0-16.4-7.4-16.4-16.4s7.4-16.4,16.4-16.4s16.4,7.4,16.4,16.4S373.4,1090.3,364.3,1090.3z
			 M364.3,1060.5c-7.4,0-13.4,6-13.4,13.4s6,13.4,13.4,13.4s13.4-6,13.4-13.4S371.7,1060.5,364.3,1060.5z"/>
	</g>
	<g>
		<path class="st2" d="M494,1072.3c-9,0-16.4-7.4-16.4-16.4s7.4-16.4,16.4-16.4s16.4,7.4,16.4,16.4S503,1072.3,494,1072.3z
			 M494,1042.5c-7.4,0-13.4,6-13.4,13.4s6,13.4,13.4,13.4s13.4-6,13.4-13.4S501.4,1042.5,494,1042.5z"/>
	</g>
	<g>
		<path class="st2" d="M728.1,484.3c-9,0-16.4-7.4-16.4-16.4s7.4-16.4,16.4-16.4s16.4,7.4,16.4,16.4S737.1,484.3,728.1,484.3z
			 M728.1,454.5c-7.4,0-13.4,6-13.4,13.4s6,13.4,13.4,13.4s13.4-6,13.4-13.4S735.5,454.5,728.1,454.5z"/>
	</g>
	<g>
		<path class="st2" d="M1035.2,340c-9,0-16.4-7.4-16.4-16.4s7.4-16.4,16.4-16.4s16.4,7.4,16.4,16.4S1044.2,340,1035.2,340z
			 M1035.2,310.2c-7.4,0-13.4,6-13.4,13.4s6,13.4,13.4,13.4s13.4-6,13.4-13.4S1042.6,310.2,1035.2,310.2z"/>
	</g>
	<g>
		<path class="st2" d="M624.9,1255.2c-9,0-16.4-7.4-16.4-16.4s7.4-16.4,16.4-16.4s16.4,7.4,16.4,16.4S633.9,1255.2,624.9,1255.2z
			 M624.9,1225.4c-7.4,0-13.4,6-13.4,13.4s6,13.4,13.4,13.4s13.4-6,13.4-13.4S632.2,1225.4,624.9,1225.4z"/>
	</g>
	<g>
		<path class="st2" d="M1043.7,632.9c-9,0-16.4-7.4-16.4-16.4s7.4-16.4,16.4-16.4s16.4,7.4,16.4,16.4S1052.7,632.9,1043.7,632.9z
			 M1043.7,603.1c-7.4,0-13.4,6-13.4,13.4s6,13.4,13.4,13.4s13.4-6,13.4-13.4S1051.1,603.1,1043.7,603.1z"/>
	</g>
	<g>
		<path class="st2" d="M897.7,1264.6c-9,0-16.4-7.4-16.4-16.4s7.4-16.4,16.4-16.4s16.4,7.4,16.4,16.4S906.7,1264.6,897.7,1264.6z
			 M897.7,1234.8c-7.4,0-13.4,6-13.4,13.4s6,13.4,13.4,13.4s13.4-6,13.4-13.4S905.1,1234.8,897.7,1234.8z"/>
	</g>
	<g>
		<path class="st2" d="M1023.7,1261.2c-9,0-16.4-7.4-16.4-16.4s7.4-16.4,16.4-16.4s16.4,7.4,16.4,16.4S1032.7,1261.2,1023.7,1261.2z
			 M1023.7,1231.4c-7.4,0-13.4,6-13.4,13.4s6,13.4,13.4,13.4s13.4-6,13.4-13.4S1031.1,1231.4,1023.7,1231.4z"/>
	</g>
	<g>
		<path class="st2" d="M538.7,1415.7c-7.8,0-14.2-6.4-14.2-14.2s6.4-14.2,14.2-14.2s14.2,6.4,14.2,14.2S546.6,1415.7,538.7,1415.7z
			 M538.7,1390.3c-6.2,0-11.2,5-11.2,11.2c0,6.2,5,11.2,11.2,11.2s11.2-5,11.2-11.2C550,1395.3,544.9,1390.3,538.7,1390.3z"/>
	</g>
	<g>
		<path class="st2" d="M995.2,1427.4c-8.7,0-15.8-7.1-15.8-15.8s7.1-15.8,15.8-15.8s15.8,7.1,15.8,15.8S1003.9,1427.4,995.2,1427.4z
			 M995.2,1398.9c-7,0-12.8,5.7-12.8,12.8c0,7,5.7,12.8,12.8,12.8c7,0,12.8-5.7,12.8-12.8C1007.9,1404.6,1002.2,1398.9,995.2,1398.9
			z"/>
	</g>
	<g>
		<path class="st2" d="M787.5,1396.5c-6.4,0-11.5-5.2-11.5-11.5s5.2-11.5,11.5-11.5c6.4,0,11.5,5.2,11.5,11.5
			S793.8,1396.5,787.5,1396.5z M787.5,1376.4c-4.7,0-8.5,3.8-8.5,8.5s3.8,8.5,8.5,8.5c4.7,0,8.5-3.8,8.5-8.5
			S792.2,1376.4,787.5,1376.4z"/>
	</g>
	<g>
		<path class="st2" d="M860.4,1428.2c-5.3,0-9.6-4.3-9.6-9.6s4.3-9.6,9.6-9.6s9.6,4.3,9.6,9.6S865.7,1428.2,860.4,1428.2z
			 M860.4,1412c-3.6,0-6.6,2.9-6.6,6.6s2.9,6.6,6.6,6.6s6.6-2.9,6.6-6.6S864,1412,860.4,1412z"/>
	</g>
	<g>
		<path class="st2" d="M788.6,1245c-5.3,0-9.6-4.3-9.6-9.6s4.3-9.6,9.6-9.6c5.3,0,9.6,4.3,9.6,9.6S793.9,1245,788.6,1245z
			 M788.6,1228.8c-3.7,0-6.6,3-6.6,6.6c0,3.7,3,6.6,6.6,6.6c3.7,0,6.6-3,6.6-6.6C795.2,1231.7,792.2,1228.8,788.6,1228.8z"/>
	</g>
	<g>
		<path class="st2" d="M1057.3,1175.5c-6.8,0-12.3-5.5-12.3-12.3s5.5-12.3,12.3-12.3s12.3,5.5,12.3,12.3S1064,1175.5,1057.3,1175.5z
			 M1057.3,1154c-5.1,0-9.3,4.2-9.3,9.3s4.2,9.3,9.3,9.3s9.3-4.2,9.3-9.3S1062.4,1154,1057.3,1154z"/>
	</g>
	<g>
		<path class="st2" d="M588.3,581.4c-6.8,0-12.3-5.5-12.3-12.3c0-6.8,5.5-12.3,12.3-12.3s12.3,5.5,12.3,12.3
			C600.6,575.9,595.1,581.4,588.3,581.4z M588.3,559.8c-5.1,0-9.3,4.2-9.3,9.3c0,5.1,4.2,9.3,9.3,9.3s9.3-4.2,9.3-9.3
			C597.6,564,593.4,559.8,588.3,559.8z"/>
	</g>
	<g>
		<path class="st2" d="M1036.3,422.4c-6.8,0-12.3-5.5-12.3-12.3s5.5-12.3,12.3-12.3s12.3,5.5,12.3,12.3S1043.1,422.4,1036.3,422.4z
			 M1036.3,400.9c-5.1,0-9.3,4.2-9.3,9.3s4.2,9.3,9.3,9.3s9.3-4.2,9.3-9.3S1041.4,400.9,1036.3,400.9z"/>
	</g>
	<g>
		<path class="st2" d="M1223.4,435.4c-6.8,0-12.3-5.5-12.3-12.3s5.5-12.3,12.3-12.3s12.3,5.5,12.3,12.3S1230.2,435.4,1223.4,435.4z
			 M1223.4,413.9c-5.1,0-9.3,4.2-9.3,9.3s4.2,9.3,9.3,9.3s9.3-4.2,9.3-9.3S1228.5,413.9,1223.4,413.9z"/>
	</g>
	<g>
		<path class="st2" d="M1443.8,220.8c-6.8,0-12.3-5.5-12.3-12.3s5.5-12.3,12.3-12.3s12.3,5.5,12.3,12.3S1450.5,220.8,1443.8,220.8z
			 M1443.8,199.3c-5.1,0-9.3,4.2-9.3,9.3s4.2,9.3,9.3,9.3s9.3-4.2,9.3-9.3S1448.9,199.3,1443.8,199.3z"/>
	</g>
	<g>
		<path class="st2" d="M1267.4,1127.7c-7.8,0-14.2-6.4-14.2-14.2s6.4-14.2,14.2-14.2c7.8,0,14.2,6.4,14.2,14.2
			S1275.2,1127.7,1267.4,1127.7z M1267.4,1102.4c-6.2,0-11.2,5-11.2,11.2s5,11.2,11.2,11.2c6.2,0,11.2-5,11.2-11.2
			S1273.6,1102.4,1267.4,1102.4z"/>
	</g>
	<g>
		<path class="st2" d="M547.7,419c-7.8,0-14.2-6.4-14.2-14.2s6.4-14.2,14.2-14.2s14.2,6.4,14.2,14.2S555.5,419,547.7,419z
			 M547.7,393.7c-6.2,0-11.2,5-11.2,11.2s5,11.2,11.2,11.2s11.2-5,11.2-11.2S553.9,393.7,547.7,393.7z"/>
	</g>
	<g>
		<path class="st2" d="M1382.6,693.2c-16.1,0-29.1-13.1-29.1-29.1s13.1-29.1,29.1-29.1c16.1,0,29.1,13.1,29.1,29.1
			S1398.7,693.2,1382.6,693.2z M1382.6,638c-14.4,0-26.1,11.7-26.1,26.1s11.7,26.1,26.1,26.1c14.4,0,26.1-11.7,26.1-26.1
			S1397,638,1382.6,638z"/>
	</g>
	<g>
		<path class="st2" d="M1321.9,413.9c-16.1,0-29.1-13.1-29.1-29.1s13.1-29.1,29.1-29.1s29.1,13.1,29.1,29.1S1338,413.9,1321.9,413.9
			z M1321.9,358.7c-14.4,0-26.1,11.7-26.1,26.1s11.7,26.1,26.1,26.1s26.1-11.7,26.1-26.1S1336.3,358.7,1321.9,358.7z"/>
	</g>
	<g>
		<path class="st2" d="M1449.4,880.5c-11.6,0-21-9.4-21-21s9.4-21,21-21s21,9.4,21,21S1461,880.5,1449.4,880.5z M1449.4,841.6
			c-9.9,0-18,8.1-18,18s8.1,18,18,18s18-8.1,18-18S1459.3,841.6,1449.4,841.6z"/>
	</g>
	<g>
		<path class="st2" d="M1487.2,790.8c-5.4,0-9.8-4.4-9.8-9.8s4.4-9.8,9.8-9.8s9.8,4.4,9.8,9.8S1492.7,790.8,1487.2,790.8z
			 M1487.2,774.1c-3.8,0-6.8,3.1-6.8,6.8s3.1,6.8,6.8,6.8s6.8-3.1,6.8-6.8S1491,774.1,1487.2,774.1z"/>
	</g>
	<g>
		<path class="st2" d="M1408.8,533.3c-9,0-16.3-7.3-16.3-16.3c0-9,7.3-16.3,16.3-16.3S1425,508,1425,517
			C1425,526,1417.7,533.3,1408.8,533.3z M1408.8,503.7c-7.3,0-13.3,6-13.3,13.3s6,13.3,13.3,13.3s13.3-6,13.3-13.3
			S1416.1,503.7,1408.8,503.7z"/>
	</g>
	<g>
		<path class="st2" d="M1384.9,266.7c-9,0-16.3-7.3-16.3-16.3s7.3-16.3,16.3-16.3s16.3,7.3,16.3,16.3S1393.9,266.7,1384.9,266.7z
			 M1384.9,237.2c-7.3,0-13.3,6-13.3,13.3s6,13.3,13.3,13.3s13.3-6,13.3-13.3S1392.2,237.2,1384.9,237.2z"/>
	</g>
	<g>
		<path class="st2" d="M1247.3,719.6c-9,0-16.4-7.4-16.4-16.4s7.4-16.4,16.4-16.4s16.4,7.4,16.4,16.4S1256.3,719.6,1247.3,719.6z
			 M1247.3,689.8c-7.4,0-13.4,6-13.4,13.4s6,13.4,13.4,13.4s13.4-6,13.4-13.4S1254.7,689.8,1247.3,689.8z"/>
	</g>
	<g>
		<path class="st2" d="M1491,586.1c-7.8,0-14.2-6.4-14.2-14.2s6.4-14.2,14.2-14.2c7.8,0,14.2,6.4,14.2,14.2S1498.8,586.1,1491,586.1
			z M1491,560.8c-6.2,0-11.2,5-11.2,11.2s5,11.2,11.2,11.2c6.2,0,11.2-5,11.2-11.2S1497.2,560.8,1491,560.8z"/>
	</g>
	<g>
		<path class="st2" d="M1263.7,322.9c-7.8,0-14.2-6.4-14.2-14.2s6.4-14.2,14.2-14.2c7.8,0,14.2,6.4,14.2,14.2
			S1271.5,322.9,1263.7,322.9z M1263.7,297.5c-6.2,0-11.2,5-11.2,11.2s5,11.2,11.2,11.2c6.2,0,11.2-5,11.2-11.2
			S1269.9,297.5,1263.7,297.5z"/>
	</g>
	<g>
		<path class="st2" d="M1139,962.4c-8,0-14.4-6.5-14.4-14.4c0-8,6.5-14.4,14.4-14.4c8,0,14.4,6.5,14.4,14.4
			C1153.4,955.9,1147,962.4,1139,962.4z M1139,936.5c-6.3,0-11.4,5.1-11.4,11.4c0,6.3,5.1,11.4,11.4,11.4c6.3,0,11.4-5.1,11.4-11.4
			C1150.4,941.7,1145.3,936.5,1139,936.5z"/>
	</g>
	<g>
		<path class="st2" d="M1255.4,965.4c-7.1,0-12.8-5.7-12.8-12.8c0-7.1,5.7-12.8,12.8-12.8c7.1,0,12.8,5.7,12.8,12.8
			C1268.2,959.6,1262.5,965.4,1255.4,965.4z M1255.4,942.8c-5.4,0-9.8,4.4-9.8,9.8c0,5.4,4.4,9.8,9.8,9.8c5.4,0,9.8-4.4,9.8-9.8
			C1265.2,947.2,1260.8,942.8,1255.4,942.8z"/>
	</g>
	<g>
		<path class="st2" d="M1069.2,908.7c-4.7,0-8.5-3.8-8.5-8.5s3.8-8.5,8.5-8.5s8.5,3.8,8.5,8.5S1073.9,908.7,1069.2,908.7z
			 M1069.2,894.8c-3,0-5.5,2.5-5.5,5.5s2.5,5.5,5.5,5.5c3,0,5.5-2.5,5.5-5.5S1072.2,894.8,1069.2,894.8z"/>
	</g>
	<g>
		<path class="st2" d="M1554.2,1206.2c-6.4,0-11.7-5.2-11.7-11.7s5.2-11.7,11.7-11.7s11.7,5.2,11.7,11.7
			S1560.6,1206.2,1554.2,1206.2z M1554.2,1185.8c-4.8,0-8.7,3.9-8.7,8.7s3.9,8.7,8.7,8.7s8.7-3.9,8.7-8.7S1559,1185.8,1554.2,1185.8
			z"/>
	</g>
	<g>
		<path class="st2" d="M847.4,1193.6c-6.8,0-12.3-5.5-12.3-12.3s5.5-12.3,12.3-12.3s12.3,5.5,12.3,12.3S854.2,1193.6,847.4,1193.6z
			 M847.4,1171.9c-5.1,0-9.3,4.2-9.3,9.3s4.2,9.3,9.3,9.3s9.3-4.2,9.3-9.3S852.6,1171.9,847.4,1171.9z"/>
	</g>
	<g>
		<path class="st2" d="M780.1,1333.6c-12.1,0-21.9-9.8-21.9-21.9c0-12.1,9.8-21.9,21.9-21.9s21.9,9.8,21.9,21.9
			C802,1323.7,792.1,1333.6,780.1,1333.6z M780.1,1292.8c-10.4,0-18.9,8.5-18.9,18.9s8.5,18.9,18.9,18.9s18.9-8.5,18.9-18.9
			S790.5,1292.8,780.1,1292.8z"/>
	</g>
	<g>
		<path class="st2" d="M913.8,1408.1c-14.5,0-26.3-11.8-26.3-26.3s11.8-26.3,26.3-26.3s26.3,11.8,26.3,26.3
			S928.3,1408.1,913.8,1408.1z M913.8,1358.5c-12.9,0-23.3,10.5-23.3,23.3s10.5,23.3,23.3,23.3s23.3-10.5,23.3-23.3
			S926.6,1358.5,913.8,1358.5z"/>
	</g>
	<g>
		<path class="st2" d="M946.1,657.7c-14.5,0-26.3-11.8-26.3-26.3s11.8-26.3,26.3-26.3s26.3,11.8,26.3,26.3S960.6,657.7,946.1,657.7z
			 M946.1,608.1c-12.9,0-23.3,10.5-23.3,23.3s10.5,23.3,23.3,23.3s23.3-10.5,23.3-23.3S959,608.1,946.1,608.1z"/>
	</g>
	<g>
		<path class="st2" d="M565.9,74.3c-14.5,0-26.3-11.8-26.3-26.3s11.8-26.3,26.3-26.3s26.3,11.8,26.3,26.3S580.4,74.3,565.9,74.3z
			 M565.9,24.6c-12.9,0-23.3,10.5-23.3,23.3c0,12.9,10.5,23.3,23.3,23.3c12.9,0,23.3-10.5,23.3-23.3
			C589.2,35.1,578.7,24.6,565.9,24.6z"/>
	</g>
	<g>
		<path class="st2" d="M982.4,470.3c-14.5,0-26.3-11.8-26.3-26.3s11.8-26.3,26.3-26.3c14.5,0,26.3,11.8,26.3,26.3
			S996.9,470.3,982.4,470.3z M982.4,420.7c-12.9,0-23.3,10.5-23.3,23.3c0,12.9,10.5,23.3,23.3,23.3c12.9,0,23.3-10.5,23.3-23.3
			C1005.7,431.1,995.2,420.7,982.4,420.7z"/>
	</g>
	<g>
		<path class="st2" d="M1340.4,335c-14.5,0-26.3-11.8-26.3-26.3s11.8-26.3,26.3-26.3c14.5,0,26.3,11.8,26.3,26.3
			S1354.9,335,1340.4,335z M1340.4,285.4c-12.9,0-23.3,10.5-23.3,23.3s10.5,23.3,23.3,23.3c12.9,0,23.3-10.5,23.3-23.3
			S1353.3,285.4,1340.4,285.4z"/>
	</g>
	<g>
		<path class="st2" d="M650,1398.9c-14.7,0-26.7-12-26.7-26.7c0-14.7,12-26.7,26.7-26.7s26.7,12,26.7,26.7
			C676.7,1387,664.7,1398.9,650,1398.9z M650,1348.6c-13,0-23.7,10.6-23.7,23.7s10.6,23.7,23.7,23.7s23.7-10.6,23.7-23.7
			S663.1,1348.6,650,1348.6z"/>
	</g>
	<g>
		<path class="st2" d="M509.3,925.2c-6.3,0-11.4-5.1-11.4-11.4s5.1-11.4,11.4-11.4s11.4,5.1,11.4,11.4S515.6,925.2,509.3,925.2z
			 M509.3,905.3c-4.7,0-8.4,3.8-8.4,8.4s3.8,8.4,8.4,8.4s8.4-3.8,8.4-8.4S513.9,905.3,509.3,905.3z"/>
	</g>
	<g>
		<path class="st2" d="M549.5,1089.1c-4.9,0-8.9-4-8.9-8.9c0-4.9,4-8.9,8.9-8.9s8.9,4,8.9,8.9
			C558.4,1085.1,554.4,1089.1,549.5,1089.1z M549.5,1074.3c-3.3,0-5.9,2.6-5.9,5.9c0,3.3,2.6,5.9,5.9,5.9s5.9-2.6,5.9-5.9
			C555.4,1076.9,552.7,1074.3,549.5,1074.3z"/>
	</g>
	<g>
		<path class="st2" d="M826.8,347.4c-4.9,0-8.9-4-8.9-8.9s4-8.9,8.9-8.9c4.9,0,8.9,4,8.9,8.9S831.7,347.4,826.8,347.4z M826.8,332.6
			c-3.2,0-5.9,2.6-5.9,5.9s2.6,5.9,5.9,5.9c3.3,0,5.9-2.6,5.9-5.9S830,332.6,826.8,332.6z"/>
	</g>
	<g>
		<path class="st2" d="M780.3,427c-4.9,0-8.9-4-8.9-8.9s4-8.9,8.9-8.9s8.9,4,8.9,8.9S785.3,427,780.3,427z M780.3,412.3
			c-3.3,0-5.9,2.6-5.9,5.9s2.6,5.9,5.9,5.9s5.9-2.6,5.9-5.9S783.6,412.3,780.3,412.3z"/>
	</g>
	<g>
		<path class="st2" d="M738.2,97.2c-4.9,0-8.9-4-8.9-8.9s4-8.9,8.9-8.9s8.9,4,8.9,8.9S743.1,97.2,738.2,97.2z M738.2,82.4
			c-3.3,0-5.9,2.6-5.9,5.9s2.6,5.9,5.9,5.9s5.9-2.6,5.9-5.9S741.5,82.4,738.2,82.4z"/>
	</g>
	<g>
		<path class="st2" d="M1084.4,386.3c-4.9,0-8.9-4-8.9-8.9s4-8.9,8.9-8.9c4.9,0,8.9,4,8.9,8.9S1089.3,386.3,1084.4,386.3z
			 M1084.4,371.5c-3.2,0-5.9,2.6-5.9,5.9s2.6,5.9,5.9,5.9c3.3,0,5.9-2.6,5.9-5.9S1087.7,371.5,1084.4,371.5z"/>
	</g>
	<g>
		<path class="st2" d="M1170.4,413.7c-4.9,0-8.9-4-8.9-8.9s4-8.9,8.9-8.9c4.9,0,8.9,4,8.9,8.9S1175.3,413.7,1170.4,413.7z
			 M1170.4,398.9c-3.2,0-5.9,2.6-5.9,5.9s2.6,5.9,5.9,5.9c3.3,0,5.9-2.6,5.9-5.9S1173.6,398.9,1170.4,398.9z"/>
	</g>
	<g>
		<path class="st2" d="M1352.7,185.8c-4.9,0-8.9-4-8.9-8.9s4-8.9,8.9-8.9c4.9,0,8.9,4,8.9,8.9S1357.7,185.8,1352.7,185.8z
			 M1352.7,171c-3.2,0-5.9,2.6-5.9,5.9s2.6,5.9,5.9,5.9c3.3,0,5.9-2.6,5.9-5.9S1356,171,1352.7,171z"/>
	</g>
	<g>
		<path class="st2" d="M1223,287.4c-4.9,0-8.9-4-8.9-8.9s4-8.9,8.9-8.9c4.9,0,8.9,4,8.9,8.9S1227.9,287.4,1223,287.4z M1223,272.6
			c-3.3,0-5.9,2.6-5.9,5.9c0,3.3,2.6,5.9,5.9,5.9c3.2,0,5.9-2.6,5.9-5.9C1228.9,275.2,1226.2,272.6,1223,272.6z"/>
	</g>
	<g>
		<path class="st2" d="M930.3,294.8c-4.9,0-8.9-4-8.9-8.9s4-8.9,8.9-8.9c4.9,0,8.9,4,8.9,8.9S935.2,294.8,930.3,294.8z M930.3,280
			c-3.3,0-5.9,2.6-5.9,5.9s2.6,5.9,5.9,5.9c3.2,0,5.9-2.6,5.9-5.9S933.5,280,930.3,280z"/>
	</g>
	<g>
		<path class="st2" d="M928.7,401.1c-4.9,0-8.9-4-8.9-8.9s4-8.9,8.9-8.9c4.9,0,8.9,4,8.9,8.9S933.6,401.1,928.7,401.1z M928.7,386.3
			c-3.3,0-5.9,2.6-5.9,5.9s2.6,5.9,5.9,5.9c3.2,0,5.9-2.6,5.9-5.9S931.9,386.3,928.7,386.3z"/>
	</g>
	<g>
		<path class="st2" d="M590.5,1176.5c-4.9,0-8.9-4-8.9-8.9c0-4.9,4-8.9,8.9-8.9s8.9,4,8.9,8.9
			C599.4,1172.5,595.4,1176.5,590.5,1176.5z M590.5,1161.7c-3.3,0-5.9,2.6-5.9,5.9c0,3.2,2.6,5.9,5.9,5.9s5.9-2.6,5.9-5.9
			C596.4,1164.4,593.7,1161.7,590.5,1161.7z"/>
	</g>
	<g>
		<path class="st2" d="M1109.4,556.7c-4.9,0-8.9-4-8.9-8.9s4-8.9,8.9-8.9c4.9,0,8.9,4,8.9,8.9S1114.3,556.7,1109.4,556.7z
			 M1109.4,542c-3.3,0-5.9,2.6-5.9,5.9s2.6,5.9,5.9,5.9c3.2,0,5.9-2.6,5.9-5.9S1112.7,542,1109.4,542z"/>
	</g>
	<g>
		<path class="st2" d="M595.8,937.7c-9.1,0-16.6-7.4-16.6-16.6s7.4-16.6,16.6-16.6s16.6,7.4,16.6,16.6S604.9,937.7,595.8,937.7z
			 M595.8,907.5c-7.5,0-13.6,6.1-13.6,13.6s6.1,13.6,13.6,13.6s13.6-6.1,13.6-13.6S603.3,907.5,595.8,907.5z"/>
	</g>
	<g>
		<path class="st2" d="M590.5,1011.2c-12.1,0-21.9-9.8-21.9-21.9c0-12.1,9.8-21.9,21.9-21.9s21.9,9.8,21.9,21.9
			C612.4,1001.4,602.5,1011.2,590.5,1011.2z M590.5,970.4c-10.4,0-18.9,8.5-18.9,18.9c0,10.4,8.5,18.9,18.9,18.9s18.9-8.5,18.9-18.9
			C609.4,978.9,600.9,970.4,590.5,970.4z"/>
	</g>
	<g>
		<path class="st2" d="M16.6,1218.6c-9,0-16.4-7.4-16.4-16.4c0-9,7.4-16.4,16.4-16.4s16.4,7.4,16.4,16.4
			C33,1211.3,25.7,1218.6,16.6,1218.6z M16.6,1188.8c-7.4,0-13.4,6-13.4,13.4c0,7.4,6,13.4,13.4,13.4s13.4-6,13.4-13.4
			C30,1194.9,24,1188.8,16.6,1188.8z"/>
	</g>
	<g>
		<path class="st2" d="M173.5,1277.6c-5.1,0-9.2-4.1-9.2-9.2s4.1-9.2,9.2-9.2s9.2,4.1,9.2,9.2S178.6,1277.6,173.5,1277.6z
			 M173.5,1262.1c-3.4,0-6.2,2.8-6.2,6.2s2.8,6.2,6.2,6.2s6.2-2.8,6.2-6.2S177,1262.1,173.5,1262.1z"/>
	</g>
	<g>
		<path class="st2" d="M310.2,1284c-6.9,0-12.5-5.6-12.5-12.5s5.6-12.5,12.5-12.5s12.5,5.6,12.5,12.5S317.1,1284,310.2,1284z
			 M310.2,1262.1c-5.2,0-9.5,4.2-9.5,9.5s4.2,9.5,9.5,9.5s9.5-4.2,9.5-9.5S315.4,1262.1,310.2,1262.1z"/>
	</g>
	<g>
		<path class="st2" d="M413.8,1227.2c-8.9,0-16.2-7.3-16.2-16.2s7.3-16.2,16.2-16.2c8.9,0,16.2,7.3,16.2,16.2
			S422.8,1227.2,413.8,1227.2z M413.8,1197.8c-7.3,0-13.2,5.9-13.2,13.2s5.9,13.2,13.2,13.2c7.3,0,13.2-5.9,13.2-13.2
			S421.1,1197.8,413.8,1197.8z"/>
	</g>
	<g>
		<path class="st2" d="M817.6,641.7c-8.9,0-16.2-7.3-16.2-16.2s7.3-16.2,16.2-16.2c8.9,0,16.2,7.3,16.2,16.2
			S826.5,641.7,817.6,641.7z M817.6,612.3c-7.3,0-13.2,5.9-13.2,13.2s5.9,13.2,13.2,13.2c7.3,0,13.2-5.9,13.2-13.2
			S824.8,612.3,817.6,612.3z"/>
	</g>
	<g>
		<path class="st2" d="M536.9,1272.4c-6.8,0-12.3-5.5-12.3-12.3s5.5-12.3,12.3-12.3s12.3,5.5,12.3,12.3S543.7,1272.4,536.9,1272.4z
			 M536.9,1250.7c-5.2,0-9.3,4.2-9.3,9.3s4.2,9.3,9.3,9.3s9.3-4.2,9.3-9.3S542,1250.7,536.9,1250.7z"/>
	</g>
	<g>
		<path class="st2" d="M888.9,549.3c-6.8,0-12.3-5.5-12.3-12.3s5.5-12.3,12.3-12.3s12.3,5.5,12.3,12.3S895.8,549.3,888.9,549.3z
			 M888.9,527.7c-5.2,0-9.3,4.2-9.3,9.3s4.2,9.3,9.3,9.3s9.3-4.2,9.3-9.3S894.1,527.7,888.9,527.7z"/>
	</g>
	<g>
		<path class="st2" d="M471.8,1306c-8.9,0-16.2-7.3-16.2-16.2s7.3-16.2,16.2-16.2c8.9,0,16.2,7.3,16.2,16.2S480.8,1306,471.8,1306z
			 M471.8,1276.6c-7.3,0-13.2,5.9-13.2,13.2s5.9,13.2,13.2,13.2c7.3,0,13.2-5.9,13.2-13.2S479.1,1276.6,471.8,1276.6z"/>
	</g>
	<g>
		<path class="st2" d="M263.7,653.2c-18.8,0-34-15.3-34-34s15.3-34,34-34s34,15.3,34,34S282.5,653.2,263.7,653.2z M263.7,588.1
			c-17.1,0-31,13.9-31,31s13.9,31,31,31s31-13.9,31-31S280.8,588.1,263.7,588.1z"/>
	</g>
	<g>
		<path class="st2" d="M128.4,576.7c-9,0-16.4-7.4-16.4-16.4s7.4-16.4,16.4-16.4s16.4,7.4,16.4,16.4S137.4,576.7,128.4,576.7z
			 M128.4,546.9c-7.4,0-13.4,6-13.4,13.4s6,13.4,13.4,13.4s13.4-6,13.4-13.4S135.8,546.9,128.4,546.9z"/>
	</g>
	<g>
		<path class="st2" d="M258,558.7c-9,0-16.4-7.4-16.4-16.4s7.4-16.4,16.4-16.4c9,0,16.4,7.4,16.4,16.4S267.1,558.7,258,558.7z
			 M258,528.9c-7.4,0-13.4,6-13.4,13.4s6,13.4,13.4,13.4s13.4-6,13.4-13.4S265.4,528.9,258,528.9z"/>
	</g>
	<g>
		<path class="st2" d="M313.5,575.5c-4.9,0-8.9-4-8.9-8.9s4-8.9,8.9-8.9s8.9,4,8.9,8.9S318.4,575.5,313.5,575.5z M313.5,560.7
			c-3.3,0-5.9,2.6-5.9,5.9c0,3.3,2.6,5.9,5.9,5.9s5.9-2.6,5.9-5.9C319.4,563.3,316.8,560.7,313.5,560.7z"/>
	</g>
	<g>
		<path class="st2" d="M307.5,452.9c-4.9,0-8.9-4-8.9-8.9s4-8.9,8.9-8.9s8.9,4,8.9,8.9S312.4,452.9,307.5,452.9z M307.5,438.1
			c-3.3,0-5.9,2.6-5.9,5.9s2.6,5.9,5.9,5.9c3.3,0,5.9-2.6,5.9-5.9S310.8,438.1,307.5,438.1z"/>
	</g>
	<g>
		<path class="st2" d="M177.9,713.6c-8.9,0-16.2-7.3-16.2-16.2c0-8.9,7.3-16.2,16.2-16.2s16.2,7.3,16.2,16.2
			C194.1,706.3,186.8,713.6,177.9,713.6z M177.9,684.2c-7.3,0-13.2,5.9-13.2,13.2c0,7.3,5.9,13.2,13.2,13.2s13.2-5.9,13.2-13.2
			C191.1,690.1,185.2,684.2,177.9,684.2z"/>
	</g>
	<g>
		<path class="st2" d="M235.9,792.4c-8.9,0-16.2-7.3-16.2-16.2s7.3-16.2,16.2-16.2s16.2,7.3,16.2,16.2S244.8,792.4,235.9,792.4z
			 M235.9,763c-7.3,0-13.2,5.9-13.2,13.2s5.9,13.2,13.2,13.2s13.2-5.9,13.2-13.2S243.2,763,235.9,763z"/>
	</g>
	<g>
		<path class="st2" d="M142,1415.1c-8.2,0-14.9-6.7-14.9-14.9s6.7-14.9,14.9-14.9s14.9,6.7,14.9,14.9S150.2,1415.1,142,1415.1z
			 M142,1388.2c-6.6,0-11.9,5.4-11.9,11.9s5.4,11.9,11.9,11.9s11.9-5.4,11.9-11.9S148.5,1388.2,142,1388.2z"/>
	</g>
	<g>
		<path class="st2" d="M217.2,1258c-9,0-16.3-7.3-16.3-16.3s7.3-16.3,16.3-16.3s16.3,7.3,16.3,16.3S226.2,1258,217.2,1258z
			 M217.2,1228.4c-7.3,0-13.3,6-13.3,13.3s6,13.3,13.3,13.3s13.3-6,13.3-13.3S224.5,1228.4,217.2,1228.4z"/>
	</g>
	<g>
		<path class="st2" d="M107,890c-6,0-10.9-4.9-10.9-10.9s4.9-10.9,10.9-10.9s10.9,4.9,10.9,10.9S113,890,107,890z M107,871.1
			c-4.4,0-7.9,3.6-7.9,7.9s3.6,7.9,7.9,7.9s7.9-3.6,7.9-7.9S111.4,871.1,107,871.1z"/>
	</g>
	<g>
		<path class="st2" d="M532.2,723.4c-6,0-10.9-4.9-10.9-10.9s4.9-10.9,10.9-10.9s10.9,4.9,10.9,10.9S538.2,723.4,532.2,723.4z
			 M532.2,704.5c-4.4,0-7.9,3.6-7.9,7.9s3.6,7.9,7.9,7.9s7.9-3.6,7.9-7.9S536.6,704.5,532.2,704.5z"/>
	</g>
	<g>
		<path class="st2" d="M423.3,746.5c-6,0-10.9-4.9-10.9-10.9c0-6,4.9-10.9,10.9-10.9s10.9,4.9,10.9,10.9
			C434.2,741.6,429.3,746.5,423.3,746.5z M423.3,727.6c-4.4,0-7.9,3.6-7.9,7.9c0,4.4,3.6,7.9,7.9,7.9s7.9-3.6,7.9-7.9
			C431.2,731.2,427.6,727.6,423.3,727.6z"/>
	</g>
	<g>
		<path class="st2" d="M220,1183.2c-28.9,0-52.4-23.5-52.4-52.4s23.5-52.4,52.4-52.4s52.4,23.5,52.4,52.4S248.9,1183.2,220,1183.2z
			 M220,1081.4c-27.2,0-49.4,22.2-49.4,49.4s22.2,49.4,49.4,49.4s49.4-22.2,49.4-49.4S247.2,1081.4,220,1081.4z"/>
	</g>
	<g>
		<path class="st2" d="M364.9,936.8c-13.8,0-25-11.2-25-25c0-13.8,11.2-25,25-25c13.8,0,25,11.2,25,25
			C389.9,925.6,378.7,936.8,364.9,936.8z M364.9,889.7c-12.1,0-22,9.9-22,22c0,12.1,9.9,22,22,22c12.1,0,22-9.9,22-22
			C386.9,899.6,377,889.7,364.9,889.7z"/>
	</g>
	<g>
		<path class="st2" d="M101.3,1133.3c-12.4,0-22.5-10.1-22.5-22.5c0-12.4,10.1-22.5,22.5-22.5s22.5,10.1,22.5,22.5
			C123.8,1123.2,113.7,1133.3,101.3,1133.3z M101.3,1091.3c-10.7,0-19.5,8.7-19.5,19.5c0,10.7,8.7,19.5,19.5,19.5
			s19.5-8.7,19.5-19.5C120.8,1100.1,112,1091.3,101.3,1091.3z"/>
	</g>
	<g>
		<path class="st2" d="M69,1270.4c-12.4,0-22.5-10.1-22.5-22.5c0-12.4,10.1-22.5,22.5-22.5s22.5,10.1,22.5,22.5
			C91.5,1260.3,81.4,1270.4,69,1270.4z M69,1228.4c-10.7,0-19.5,8.7-19.5,19.5c0,10.7,8.7,19.5,19.5,19.5s19.5-8.7,19.5-19.5
			C88.5,1237.2,79.7,1228.4,69,1228.4z"/>
	</g>
	<g>
		<path class="st2" d="M287.7,1414.1c-16.5,0-29.9-13.4-29.9-29.9c0-16.5,13.4-29.9,29.9-29.9s29.9,13.4,29.9,29.9
			C317.7,1400.7,304.3,1414.1,287.7,1414.1z M287.7,1357.2c-14.9,0-26.9,12.1-26.9,26.9c0,14.9,12.1,26.9,26.9,26.9
			s26.9-12.1,26.9-26.9C314.7,1369.3,302.6,1357.2,287.7,1357.2z"/>
	</g>
	<g>
		
			<rect x="145.2" y="857.9" transform="matrix(0.2503 -0.9682 0.9682 0.2503 -751.2557 809.0132)" class="st2" width="3" height="63.4"/>
	</g>
	<g>
		
			<rect x="134.8" y="879.3" transform="matrix(0.8428 -0.5383 0.5383 0.8428 -474.9079 218.3618)" class="st2" width="3" height="85.6"/>
	</g>
	<g>
		
			<rect x="178.3" y="931.1" transform="matrix(0.196 -0.9806 0.9806 0.196 -760.0039 938.3433)" class="st2" width="27.7" height="3"/>
	</g>
	<g>
		
			<rect x="39.9" y="998" transform="matrix(0.9841 -0.1777 0.1777 0.9841 -176.0533 33.1913)" class="st2" width="114.8" height="3"/>
	</g>
	<g>
		
			<rect x="210" y="940.4" transform="matrix(0.9421 -0.3353 0.3353 0.9421 -299.7231 147.8198)" class="st2" width="136.5" height="3"/>
	</g>
	<g>
		
			<rect x="320.7" y="815.8" transform="matrix(0.3164 -0.9486 0.9486 0.3164 -503.997 935.1542)" class="st2" width="152.4" height="3"/>
	</g>
	<g>
		
			<rect x="196.7" y="1009.9" transform="matrix(0.9744 -0.2249 0.2249 0.9744 -230.267 71.4049)" class="st2" width="3" height="72.7"/>
	</g>
	<g>
		
			<rect x="144.2" y="1095.4" transform="matrix(0.1293 -0.9916 0.9916 0.1293 -982.7277 1118.6755)" class="st2" width="3" height="47.2"/>
	</g>
	<g>
		
			<rect x="35.7" y="1178" transform="matrix(0.2487 -0.9686 0.9686 0.2487 -1078.5869 968.5885)" class="st2" width="98.6" height="3"/>
	</g>
	<g>
		
			<rect x="37.8" y="1207.5" transform="matrix(0.6481 -0.7615 0.7615 0.6481 -918.6024 460.743)" class="st2" width="3" height="33.8"/>
	</g>
	<g>
		
			<rect x="177.8" y="1255" transform="matrix(0.8604 -0.5096 0.5096 0.8604 -613.4976 273.2963)" class="st2" width="28.7" height="3"/>
	</g>
	<g>
		
			<rect x="215.7" y="1181.2" transform="matrix(1 -2.468310e-03 2.468310e-03 1 -2.9714 0.5397)" class="st2" width="3" height="45.7"/>
	</g>
	<g>
		
			<rect x="263.1" y="1224" transform="matrix(0.3076 -0.9515 0.9515 0.3076 -1016.0588 1124.5315)" class="st2" width="3" height="72.8"/>
	</g>
	<g>
		
			<rect x="264.5" y="1095.1" transform="matrix(0.9488 -0.3158 0.3158 0.9488 -330.5136 153.8693)" class="st2" width="89.9" height="3"/>
	</g>
	<g>
		
			<rect x="422.5" y="1049.5" transform="matrix(0.3871 -0.922 0.922 0.3871 -753.9466 1064.8567)" class="st2" width="3" height="100.1"/>
	</g>
	<g>
		
			<rect x="270.5" y="1134.5" transform="matrix(0.9999 -1.041610e-02 1.041610e-02 0.9999 -11.8131 3.9036)" class="st2" width="196.7" height="3"/>
	</g>
	<g>
		
			<rect x="356.7" y="1107.3" transform="matrix(0.5169 -0.856 0.856 0.5169 -873.7424 897.3865)" class="st2" width="3" height="231.1"/>
	</g>
	<g>
		
			<rect x="245" y="1249.9" transform="matrix(0.8902 -0.4556 0.4556 0.8902 -568.8714 255.935)" class="st2" width="3" height="116.4"/>
	</g>
	<g>
		
			<rect x="263.3" y="1317.4" transform="matrix(0.1784 -0.984 0.984 0.1784 -1050.7491 1379.5244)" class="st2" width="74.8" height="3"/>
	</g>
	<g>
		<rect x="154.7" y="1389.3" transform="matrix(0.992 -0.126 0.126 0.992 -173.5303 37.1762)" class="st2" width="105" height="3"/>
	</g>
	<g>
		
			<rect x="304" y="1332.4" transform="matrix(0.8836 -0.4682 0.4682 0.8836 -579.6163 335.9164)" class="st2" width="163.8" height="3"/>
	</g>
	<g>
		
			<rect x="440.8" y="1216.4" transform="matrix(0.784 -0.6208 0.6208 0.784 -680.9259 544.8041)" class="st2" width="3" height="68.6"/>
	</g>
	<g>
		
			<rect x="429.5" y="1219.2" transform="matrix(0.1504 -0.9886 0.9886 0.1504 -794.2795 1517.1737)" class="st2" width="112.1" height="3"/>
	</g>
	<g>
		
			<rect x="416.2" y="1177" transform="matrix(0.7259 -0.6878 0.6878 0.7259 -687.0605 633.0215)" class="st2" width="69" height="3"/>
	</g>
	<g>
		
			<rect x="429.5" y="910.6" transform="matrix(0.7449 -0.6672 0.6672 0.7449 -549.3578 539.6538)" class="st2" width="3" height="155.2"/>
	</g>
	<g>
		
			<rect x="494" y="1070.7" transform="matrix(0.9948 -0.1018 0.1018 0.9948 -107.9006 56.0628)" class="st2" width="3" height="29.6"/>
	</g>
	<g>
		
			<rect x="522.8" y="1051.6" transform="matrix(0.3505 -0.9366 0.9366 0.3505 -662.0804 1186.4211)" class="st2" width="3" height="37.9"/>
	</g>
	<g>
		
			<rect x="542.3" y="909.8" transform="matrix(0.697 -0.7171 0.7171 0.697 -516.7515 677.9587)" class="st2" width="3" height="81.3"/>
	</g>
	<g>
		
			<rect x="574.9" y="950.6" transform="matrix(7.552640e-02 -0.9971 0.9971 7.552640e-02 -402.3594 1470.2448)" class="st2" width="33.7" height="3"/>
	</g>
	<g>
		
			<rect x="598.7" y="951.4" transform="matrix(0.8119 -0.5837 0.5837 0.8119 -436.0519 552.1978)" class="st2" width="80.7" height="3"/>
	</g>
	<g>
		
			<rect x="791.9" y="867.5" transform="matrix(0.223 -0.9748 0.9748 0.223 -302.1917 1505.6124)" class="st2" width="3" height="149.8"/>
	</g>
	<g>
		
			<rect x="517.1" y="1052.3" transform="matrix(0.9257 -0.3782 0.3782 0.9257 -346.6187 342.7244)" class="st2" width="364.2" height="3"/>
	</g>
	<g>
		
			<rect x="529.4" y="1104.8" transform="matrix(0.9785 -0.2061 0.2061 0.9785 -213.85 159.2987)" class="st2" width="256.8" height="3"/>
	</g>
	<g>
		
			<rect x="520.4" y="1211.1" transform="matrix(0.5118 -0.8591 0.8591 0.5118 -766.0082 1077.2645)" class="st2" width="88.8" height="3"/>
	</g>
	<g>
		
			<rect x="606.8" y="1172.1" transform="matrix(0.8928 -0.4504 0.4504 0.8928 -475.1997 402.577)" class="st2" width="3" height="55.3"/>
	</g>
	<g>
		
			<rect x="564.4" y="1136.5" transform="matrix(0.6562 -0.7546 0.7546 0.6562 -707.1659 837.8952)" class="st2" width="3" height="116.8"/>
	</g>
	<g>
		<path class="st2" d="M397.7,316.4c-18.8,0-34-15.3-34-34s15.3-34,34-34c18.8,0,34,15.3,34,34S416.4,316.4,397.7,316.4z
			 M397.7,251.3c-17.1,0-31,13.9-31,31s13.9,31,31,31s31-13.9,31-31S414.8,251.3,397.7,251.3z"/>
	</g>
	<g>
		<path class="st2" d="M262.3,240c-9,0-16.4-7.4-16.4-16.4s7.4-16.4,16.4-16.4c9,0,16.4,7.4,16.4,16.4S271.4,240,262.3,240z
			 M262.3,210.2c-7.4,0-13.4,6-13.4,13.4s6,13.4,13.4,13.4s13.4-6,13.4-13.4S269.7,210.2,262.3,210.2z"/>
	</g>
	<g>
		<path class="st2" d="M392,221.9c-9,0-16.4-7.4-16.4-16.4s7.4-16.4,16.4-16.4s16.4,7.4,16.4,16.4S401,221.9,392,221.9z M392,192.1
			c-7.4,0-13.4,6-13.4,13.4s6,13.4,13.4,13.4s13.4-6,13.4-13.4S399.4,192.1,392,192.1z"/>
	</g>
	<g>
		<path class="st2" d="M447.5,238.7c-4.9,0-8.9-4-8.9-8.9s4-8.9,8.9-8.9s8.9,4,8.9,8.9S452.4,238.7,447.5,238.7z M447.5,223.9
			c-3.3,0-5.9,2.6-5.9,5.9c0,3.3,2.6,5.9,5.9,5.9c3.3,0,5.9-2.6,5.9-5.9C453.4,226.5,450.7,223.9,447.5,223.9z"/>
	</g>
	<g>
		<path class="st2" d="M150.7,221.8c-4.9,0-8.9-4-8.9-8.9s4-8.9,8.9-8.9s8.9,4,8.9,8.9S155.6,221.8,150.7,221.8z M150.7,207
			c-3.3,0-5.9,2.6-5.9,5.9s2.6,5.9,5.9,5.9s5.9-2.6,5.9-5.9S153.9,207,150.7,207z"/>
	</g>
	<g>
		<path class="st2" d="M488.5,326.1c-4.9,0-8.9-4-8.9-8.9s4-8.9,8.9-8.9s8.9,4,8.9,8.9S493.4,326.1,488.5,326.1z M488.5,311.4
			c-3.3,0-5.9,2.6-5.9,5.9s2.6,5.9,5.9,5.9s5.9-2.6,5.9-5.9S491.7,311.4,488.5,311.4z"/>
	</g>
	<g>
		
			<rect x="320.5" y="199.1" transform="matrix(0.3871 -0.922 0.922 0.3871 -32.3798 449.6375)" class="st2" width="3" height="100.1"/>
	</g>
	<g>
		<rect x="392" y="220.3" transform="matrix(0.9948 -0.1018 0.1018 0.9948 -21.885 41.2659)" class="st2" width="3" height="29.6"/>
	</g>
	<g>
		
			<rect x="420.8" y="201.2" transform="matrix(0.3505 -0.9366 0.9366 0.3505 68.1176 538.5163)" class="st2" width="3" height="37.9"/>
	</g>
	<g>
		
			<rect x="608.7" y="1157.8" transform="matrix(0.7502 -0.6613 0.6613 0.7502 -588.8451 760.1169)" class="st2" width="205.6" height="3"/>
	</g>
	<g>
		
			<rect x="820.7" y="1029" transform="matrix(0.7426 -0.6697 0.6697 0.7426 -469.9483 838.1537)" class="st2" width="69.5" height="3"/>
	</g>
	<g>
		
			<rect x="633.4" y="1252.6" transform="matrix(0.9777 -0.2098 0.2098 0.9777 -258.7453 162.16)" class="st2" width="3" height="96.1"/>
	</g>
	<g>
		
			<rect x="549.7" y="1386.8" transform="matrix(0.9718 -0.2359 0.2359 0.9718 -310.9523 178.0033)" class="st2" width="77.2" height="3"/>
	</g>
	<g>
		
			<rect x="668.3" y="1339.9" transform="matrix(0.8896 -0.4568 0.4568 0.8896 -533.538 475.8433)" class="st2" width="98.1" height="3"/>
	</g>
	<g>
		
			<rect x="724.7" y="1328.5" transform="matrix(9.754977e-02 -0.9952 0.9952 9.754977e-02 -717.9815 1968.1095)" class="st2" width="3" height="102.9"/>
	</g>
	<g>
		
			<rect x="781.3" y="1331.9" transform="matrix(0.9921 -0.1257 0.1257 0.9921 -163.9514 109.1486)" class="st2" width="3" height="43.2"/>
	</g>
	<g>
		
			<rect x="765.2" y="1316.6" transform="matrix(0.6315 -0.7754 0.7754 0.6315 -712.2894 1137.4874)" class="st2" width="150.8" height="3"/>
	</g>
	<g>
		
			<rect x="902.6" y="1262.6" transform="matrix(0.9905 -0.1372 0.1372 0.9905 -171.1548 136.4718)" class="st2" width="3" height="93.5"/>
	</g>
	<g>
		
			<rect x="864.8" y="1404.3" transform="matrix(0.8509 -0.5254 0.5254 0.8509 -607.2209 672.4161)" class="st2" width="32.1" height="3"/>
	</g>
	<g>
		
			<rect x="958.4" y="1373.4" transform="matrix(0.3563 -0.9344 0.9344 0.3563 -687.7461 1796.3512)" class="st2" width="3" height="47.8"/>
	</g>
	<g>
		
			<rect x="786.8" y="1208.4" transform="matrix(0.7395 -0.6731 0.6731 0.7395 -601.7858 864.7102)" class="st2" width="59.2" height="3"/>
	</g>
	<g>
		
			<rect x="869.7" y="1184" transform="matrix(0.7636 -0.6457 0.6457 0.7636 -577.3645 849.2862)" class="st2" width="3" height="58.3"/>
	</g>
	<g>
		
			<rect x="931.7" y="1132" transform="matrix(0.3173 -0.9483 0.9483 0.3173 -513.2357 1713.1865)" class="st2" width="3" height="162"/>
	</g>
	<g>
		
			<rect x="834.5" y="1042" transform="matrix(0.9805 -0.1966 0.1966 0.9805 -186.8186 205.2506)" class="st2" width="211.5" height="3"/>
	</g>
	<g>
		
			<rect x="914.4" y="1001.6" transform="matrix(2.881547e-02 -0.9996 0.9996 2.881547e-02 -190.994 1965.3202)" class="st2" width="3" height="158.6"/>
	</g>
	<g>
		
			<rect x="932.7" y="1022.3" transform="matrix(0.9915 -0.1304 0.1304 0.9915 -131.5005 130.9606)" class="st2" width="3" height="94.4"/>
	</g>
	<g>
		
			<rect x="870.4" y="1068.3" transform="matrix(0.5452 -0.8383 0.8383 0.5452 -536.9207 1237.2776)" class="st2" width="3" height="90.4"/>
	</g>
	<g>
		
			<rect x="963.7" y="1107" transform="matrix(0.728 -0.6856 0.6856 0.728 -491.9234 977.1843)" class="st2" width="43.4" height="3"/>
	</g>
	<g>
		
			<rect x="1034.8" y="1092.5" transform="matrix(0.8754 -0.4834 0.4834 0.8754 -414.8432 641.2327)" class="st2" width="3" height="65.4"/>
	</g>
	<g>
		
			<rect x="1056.2" y="1110.8" transform="matrix(0.2115 -0.9774 0.9774 0.2115 -325.5709 1969.2125)" class="st2" width="3" height="151.3"/>
	</g>
	<g>
		
			<rect x="1035.9" y="1227.2" transform="matrix(0.9458 -0.3248 0.3248 0.9458 -340.2315 419.1805)" class="st2" width="99.1" height="3"/>
	</g>
	<g>
		
			<rect x="1119.7" y="1212" transform="matrix(0.5919 -0.806 0.806 0.5919 -608.841 1443.6246)" class="st2" width="3" height="222.1"/>
	</g>
	<g>
		
			<rect x="1217.1" y="1355.1" transform="matrix(0.4128 -0.9108 0.9108 0.4128 -503.4669 1932.3719)" class="st2" width="59.5" height="3"/>
	</g>
	<g>
		
			<rect x="978.1" y="999" transform="matrix(0.7034 -0.7108 0.7108 0.7034 -445.3059 1003.4101)" class="st2" width="3" height="72.6"/>
	</g>
	<g>
		
			<rect x="1006.4" y="957.2" transform="matrix(0.324 -0.9461 0.9461 0.324 -261.8038 1627.4025)" class="st2" width="3" height="79.3"/>
	</g>
	<g>
		
			<rect x="1213.4" y="748.2" transform="matrix(9.246463e-02 -0.9957 0.9957 9.246463e-02 115.1218 2109.7373)" class="st2" width="3" height="487.1"/>
	</g>
	<g>
		
			<rect x="1034.6" y="1066.8" transform="matrix(0.9944 -0.1055 0.1055 0.9944 -106.5484 122.3018)" class="st2" width="136.4" height="3"/>
	</g>
	<g>
		
			<rect x="1111.4" y="1033.5" transform="matrix(0.8814 -0.4723 0.4723 0.8814 -392.893 657.3906)" class="st2" width="3" height="155.4"/>
	</g>
	<g>
		
			<rect x="1082.9" y="1067" transform="matrix(0.692 -0.7219 0.7219 0.692 -488.518 1133.676)" class="st2" width="3" height="144.8"/>
	</g>
	<g>
		
			<rect x="1120.4" y="1124.5" transform="matrix(0.1432 -0.9897 0.9897 0.1432 -108.9649 2126.2026)" class="st2" width="106.4" height="3"/>
	</g>
	<g>
		
			<rect x="1225.1" y="1051.2" transform="matrix(0.5719 -0.8203 0.8203 0.5719 -365.9761 1471.2252)" class="st2" width="3" height="70.1"/>
	</g>
	<g>
		
			<rect x="1198.4" y="1037.2" transform="matrix(0.9882 -0.153 0.153 0.9882 -143.2629 215.4987)" class="st2" width="260.5" height="3"/>
	</g>
	<g>
		
			<rect x="1159.9" y="1107" transform="matrix(0.8551 -0.5184 0.5184 0.8551 -383.1664 845.9076)" class="st2" width="324.1" height="3"/>
	</g>
	<g>
		
			<rect x="1384.8" y="1084.6" transform="matrix(0.4284 -0.9036 0.9036 0.4284 -156.1311 1925.454)" class="st2" width="117.9" height="3"/>
	</g>
	<g>
		
			<rect x="1425.6" y="1130.4" transform="matrix(0.9117 -0.4109 0.4109 0.9117 -334.7441 706.4014)" class="st2" width="100.5" height="3"/>
	</g>
	<g>
		
			<rect x="1542.5" y="1118.7" transform="matrix(0.9819 -0.1893 0.1893 0.9819 -190.2211 313.16)" class="st2" width="3" height="66.9"/>
	</g>
	<g>
		
			<rect x="1425.8" y="1174.2" transform="matrix(0.9494 -0.3142 0.3142 0.9494 -308.403 509.7806)" class="st2" width="3" height="74.9"/>
	</g>
	<g>
		
			<rect x="1184.8" y="1181.4" transform="matrix(0.9824 -0.1868 0.1868 0.9824 -198.3046 261.7906)" class="st2" width="209.6" height="3"/>
	</g>
	<g>
		
			<rect x="1075.9" y="894.3" transform="matrix(0.9947 -0.1029 0.1029 0.9947 -86.1952 119.8887)" class="st2" width="87" height="3"/>
	</g>
	<g>
		
			<rect x="1139.4" y="921" transform="matrix(0.6023 -0.7983 0.7983 0.6023 -275.63 1291.7474)" class="st2" width="38.4" height="3"/>
	</g>
	<g>
		
			<rect x="1221.9" y="893.1" transform="matrix(0.6626 -0.7489 0.7489 0.6626 -279.5738 1228.1426)" class="st2" width="3" height="62.7"/>
	</g>
	<g>
		
			<rect x="1264.2" y="936.8" transform="matrix(0.9545 -0.2982 0.2982 0.9545 -220.7953 429.3747)" class="st2" width="65" height="3"/>
	</g>
	<g>
		
			<rect x="1264" y="842" transform="matrix(0.1796 -0.9837 0.9837 0.1796 148.3862 1986.8792)" class="st2" width="3" height="124.9"/>
	</g>
	<g>
		
			<rect x="1416" y="915.2" transform="matrix(0.5787 -0.8155 0.8155 0.5787 -193.8771 1564.6664)" class="st2" width="3" height="109.6"/>
	</g>
	<g>
		
			<rect x="163.1" y="835.9" transform="matrix(0.3626 -0.9319 0.9319 0.3626 -644.65 732.3306)" class="st2" width="99.8" height="3"/>
	</g>
	<g>
		
			<rect x="95.3" y="824.3" transform="matrix(0.7748 -0.6322 0.6322 0.7748 -484.6291 291.0504)" class="st2" width="141.8" height="3"/>
	</g>
	<g>
		
			<rect x="206.4" y="701.5" transform="matrix(0.738 -0.6748 0.6748 0.738 -442.2156 333.1249)" class="st2" width="3" height="69.1"/>
	</g>
	<g>
		
			<rect x="47.6" y="788.4" transform="matrix(0.3867 -0.9222 0.9222 0.3867 -645.5365 609.0924)" class="st2" width="175.1" height="3"/>
	</g>
	<g>
		
			<rect x="296.5" y="767.1" transform="matrix(0.7068 -0.7074 0.7074 0.7068 -506.7305 456.9738)" class="st2" width="3" height="145.6"/>
	</g>
	<g>
		
			<rect x="248.6" y="752.1" transform="matrix(0.9764 -0.2161 0.2161 0.9764 -155.0076 89.5996)" class="st2" width="167.2" height="3"/>
	</g>
	<g>
		
			<rect x="351.1" y="606" transform="matrix(0.5313 -0.8472 0.8472 0.5313 -414.6017 619.4562)" class="st2" width="3" height="156.9"/>
	</g>
	<g>
		
			<rect x="571.4" y="701.2" transform="matrix(0.5838 -0.8119 0.8119 0.5838 -364.1666 774.0847)" class="st2" width="3" height="82"/>
	</g>
	<g>
		
			<rect x="560" y="860.2" transform="matrix(0.2103 -0.9776 0.9776 0.2103 -364.3521 1272.2593)" class="st2" width="90.8" height="3"/>
	</g>
	<g>
		
			<rect x="663" y="812.2" transform="matrix(0.8746 -0.4848 0.4848 0.8746 -330.086 429.0533)" class="st2" width="3" height="81.1"/>
	</g>
	<g>
		<path class="st2" d="M319.8,363.4c-16.2,0-29.4-13.2-29.4-29.4s13.2-29.4,29.4-29.4s29.4,13.2,29.4,29.4S336,363.4,319.8,363.4z
			 M319.8,307.6c-14.6,0-26.4,11.8-26.4,26.4s11.8,26.4,26.4,26.4s26.4-11.8,26.4-26.4S334.4,307.6,319.8,307.6z"/>
	</g>
	<g>
		<path class="st2" d="M577.2,279.2c-16.2,0-29.4-13.2-29.4-29.4s13.2-29.4,29.4-29.4s29.4,13.2,29.4,29.4S593.4,279.2,577.2,279.2z
			 M577.2,223.4c-14.6,0-26.4,11.8-26.4,26.4s11.8,26.4,26.4,26.4s26.4-11.8,26.4-26.4S591.8,223.4,577.2,223.4z"/>
	</g>
	<g>
		<path class="st2" d="M134,345.3c-6.3,0-11.4-5.1-11.4-11.4s5.1-11.4,11.4-11.4s11.4,5.1,11.4,11.4S140.3,345.3,134,345.3z
			 M134,325.4c-4.7,0-8.4,3.8-8.4,8.4s3.8,8.4,8.4,8.4s8.4-3.8,8.4-8.4S138.7,325.4,134,325.4z"/>
	</g>
	<g>
		<path class="st2" d="M220.5,357.7c-9.1,0-16.6-7.4-16.6-16.6c0-9.1,7.4-16.6,16.6-16.6s16.6,7.4,16.6,16.6
			C237.1,350.3,229.7,357.7,220.5,357.7z M220.5,327.6c-7.5,0-13.6,6.1-13.6,13.6c0,7.5,6.1,13.6,13.6,13.6s13.6-6.1,13.6-13.6
			C234.1,333.7,228,327.6,220.5,327.6z"/>
	</g>
	<g>
		<path class="st2" d="M215.2,431.3c-12.1,0-21.9-9.8-21.9-21.9s9.8-21.9,21.9-21.9s21.9,9.8,21.9,21.9S227.3,431.3,215.2,431.3z
			 M215.2,390.5c-10.4,0-18.9,8.5-18.9,18.9s8.5,18.9,18.9,18.9s18.9-8.5,18.9-18.9S225.6,390.5,215.2,390.5z"/>
	</g>
	<g>
		
			<rect x="167.1" y="329.8" transform="matrix(0.697 -0.7171 0.7171 0.697 -214.597 233.1507)" class="st2" width="3" height="81.3"/>
	</g>
	<g>
		
			<rect x="199.6" y="370.7" transform="matrix(7.552640e-02 -0.9971 0.9971 7.552640e-02 -170.9927 559.9186)" class="st2" width="33.7" height="3"/>
	</g>
	<g>
		
			<rect x="223.4" y="371.4" transform="matrix(0.8121 -0.5836 0.5836 0.8121 -168.0635 224.007)" class="st2" width="80.7" height="3"/>
	</g>
	<g>
		
			<rect x="182.1" y="212.7" transform="matrix(0.8759 -0.4825 0.4825 0.8759 -109.7739 122.6725)" class="st2" width="3" height="124.1"/>
	</g>
	<g>
		
			<rect x="287.8" y="232.3" transform="matrix(0.8746 -0.4848 0.4848 0.8746 -95.9889 174.4361)" class="st2" width="3" height="81.1"/>
	</g>
	<g>
		
			<rect x="738.5" y="714.2" transform="matrix(4.439392e-02 -0.999 0.999 4.439392e-02 -83.922 1495.9622)" class="st2" width="3" height="155.3"/>
	</g>
	<g>
		
			<rect x="627.2" y="697.1" transform="matrix(0.7676 -0.641 0.641 0.7676 -278.5819 629.038)" class="st2" width="201.8" height="3"/>
	</g>
	<g>
		
			<rect x="834.5" y="637.6" transform="matrix(0.9793 -0.2025 0.2025 0.9793 -123.8795 183.712)" class="st2" width="3" height="119.5"/>
	</g>
	<g>
		
			<rect x="875.3" y="583.9" transform="matrix(6.628437e-02 -0.9978 0.9978 6.628437e-02 191.5728 1461.6871)" class="st2" width="3" height="89.2"/>
	</g>
	<g>
		
			<rect x="970" y="622.5" transform="matrix(0.9684 -0.2493 0.2493 0.9684 -124.0084 269.0204)" class="st2" width="59.8" height="3"/>
	</g>
	<g>
		
			<rect x="973.5" y="645.9" transform="matrix(0.7286 -0.6849 0.6849 0.7286 -192.3907 848.862)" class="st2" width="3" height="42.5"/>
	</g>
	<g>
		
			<rect x="1043.3" y="731.9" transform="matrix(0.9552 -0.296 0.296 0.9552 -194.2391 345.7311)" class="st2" width="3" height="165.1"/>
	</g>
	<g>
		
			<rect x="859" y="822.3" transform="matrix(0.4029 -0.9152 0.9152 0.4029 -181.1202 1369.9086)" class="st2" width="200.9" height="3"/>
	</g>
	<g>
		
			<rect x="884" y="742.7" transform="matrix(0.8634 -0.5046 0.5046 0.8634 -247.2818 575.2147)" class="st2" width="108.9" height="3"/>
	</g>
	<g>
		
			<rect x="1047.4" y="699.3" transform="matrix(0.9997 -2.343869e-02 2.343869e-02 0.9997 -16.1133 26.9192)" class="st2" width="185.7" height="3"/>
	</g>
	<g>
		
			<rect x="1219.7" y="608.6" transform="matrix(0.658 -0.753 0.753 0.658 -5.1965 1208.7289)" class="st2" width="216.8" height="3"/>
	</g>
	<g>
		
			<rect x="1345.9" y="583.2" transform="matrix(0.1716 -0.9852 0.9852 0.1716 583.4211 1863.1755)" class="st2" width="107.3" height="3"/>
	</g>
	<g>
		
			<rect x="1449.9" y="508.4" transform="matrix(0.5065 -0.8622 0.8622 0.5065 246.8438 1520.0635)" class="st2" width="3" height="72"/>
	</g>
	<g>
		
			<rect x="1340.8" y="710.8" transform="matrix(0.1608 -0.987 0.987 0.1608 530.7363 2048.8542)" class="st2" width="258.8" height="3"/>
	</g>
	<g>
		
			<rect x="1440.8" y="813.6" transform="matrix(0.4394 -0.8983 0.8983 0.4394 92.1778 1777.8755)" class="st2" width="59.4" height="3"/>
	</g>
	<g>
		
			<rect x="1367.1" y="886" transform="matrix(0.8645 -0.5026 0.5026 0.8645 -256.2934 824.2401)" class="st2" width="67.4" height="3"/>
	</g>
	<g>
		
			<rect x="1458.4" y="878.1" transform="matrix(0.9844 -0.1758 0.1758 0.9844 -142.1532 271.2623)" class="st2" width="3" height="119.7"/>
	</g>
	<g>
		
			<rect x="1145.2" y="561.7" transform="matrix(0.3413 -0.9399 0.9399 0.3413 136.2341 1511.6329)" class="st2" width="3" height="193.9"/>
	</g>
	<g>
		
			<rect x="911.3" y="541.7" transform="matrix(0.8373 -0.5468 0.5468 0.8373 -168.178 593.3483)" class="st2" width="3" height="75"/>
	</g>
	<g>
		
			<rect x="1040.3" y="576.6" transform="matrix(0.7366 -0.6764 0.6764 0.7366 -107.2557 880.8209)" class="st2" width="73.7" height="3"/>
	</g>
	<g>
		
			<rect x="186.1" y="537.1" transform="matrix(0.3738 -0.9275 0.9275 0.3738 -427.0789 541.6904)" class="st2" width="3" height="100.1"/>
	</g>
	<g>
		
			<rect x="242" y="570.8" transform="matrix(5.534381e-02 -0.9985 0.9985 5.534381e-02 -328.4859 797.4683)" class="st2" width="30.3" height="3"/>
	</g>
	<g>
		
			<rect x="279.4" y="581.2" transform="matrix(0.78 -0.6257 0.6257 0.78 -299.4948 313.3653)" class="st2" width="33.1" height="3"/>
	</g>
	<g>
		
			<rect x="142" y="548.6" transform="matrix(0.9958 -9.115212e-02 9.115212e-02 0.9958 -49.3385 19.8676)" class="st2" width="101.7" height="3"/>
	</g>
	<g>
		
			<rect x="288.9" y="534.4" transform="matrix(0.4255 -0.905 0.905 0.4255 -334.2006 580.8664)" class="st2" width="3" height="38.6"/>
	</g>
	<g>
		
			<rect x="238.5" y="487.7" transform="matrix(0.4903 -0.8715 0.8715 0.4903 -282.2514 495.6839)" class="st2" width="88.4" height="3"/>
	</g>
	<g>
		
			<rect x="393.7" y="677.3" transform="matrix(0.4389 -0.8986 0.8986 0.4389 -359.4313 781.9933)" class="st2" width="105.4" height="3"/>
	</g>
	<g>
		
			<rect x="511.6" y="578.8" transform="matrix(0.9437 -0.3307 0.3307 0.9437 -161.2328 213.0888)" class="st2" width="67.8" height="3"/>
	</g>
	<g>
		
			<rect x="488.2" y="552.5" transform="matrix(0.5009 -0.8655 0.8655 0.5009 -224.3296 718.9205)" class="st2" width="46.1" height="3"/>
	</g>
	<g>
		
			<rect x="500.5" y="455.6" transform="matrix(0.1732 -0.9849 0.9849 0.1732 -3.1132 910.5529)" class="st2" width="80.5" height="3"/>
	</g>
	<g>
		
			<rect x="706.2" y="500.4" transform="matrix(0.1318 -0.9913 0.9913 0.1318 132.3144 1154.9388)" class="st2" width="38.7" height="3"/>
	</g>
	<g>
		
			<rect x="774.8" y="559.5" transform="matrix(0.4923 -0.8704 0.8704 0.4923 -124.781 978.3338)" class="st2" width="3" height="73.3"/>
	</g>
	<g>
		
			<rect x="755.5" y="544.5" transform="matrix(0.996 -8.918566e-02 8.918566e-02 0.996 -45.4347 75.0572)" class="st2" width="123.5" height="3"/>
	</g>
	<g>
		
			<rect x="730" y="436.9" transform="matrix(0.7654 -0.6436 0.6436 0.7654 -104.7351 589.5799)" class="st2" width="52.5" height="3"/>
	</g>
	<g>
		<rect x="882.2" y="493.3" transform="matrix(0.72 -0.694 0.694 0.72 -82.9331 784.116)" class="st2" width="96.1" height="3"/>
	</g>
	<g>
		<rect x="948.6" y="389.9" transform="matrix(0.6381 -0.77 0.77 0.6381 27.1995 880.4161)" class="st2" width="3" height="42.7"/>
	</g>
	<g>
		
			<rect x="1000.8" y="421.6" transform="matrix(0.9206 -0.3906 0.3906 0.9206 -84.6248 430.186)" class="st2" width="28.8" height="3"/>
	</g>
	<g>
		
			<rect x="1042.5" y="392.4" transform="matrix(0.8414 -0.5403 0.5403 0.8414 -44.3677 636.6659)" class="st2" width="40.4" height="3"/>
	</g>
	<g>
		
			<rect x="1034.2" y="338.5" transform="matrix(0.9998 -1.840750e-02 1.840750e-02 0.9998 -6.6156 19.128)" class="st2" width="3" height="60.9"/>
	</g>
	<g>
		
			<rect x="926.2" y="357.9" transform="matrix(0.8363 -0.5482 0.5482 0.8363 -36.8742 595.2245)" class="st2" width="104.4" height="3"/>
	</g>
	<g>
		
			<rect x="978.8" y="256.2" transform="matrix(0.2867 -0.958 0.958 0.2867 410.6044 1154.123)" class="st2" width="3" height="90.3"/>
	</g>
	<g>
		<path class="st2" d="M687.7,233.9c-9,0-16.4-7.4-16.4-16.4s7.4-16.4,16.4-16.4s16.4,7.4,16.4,16.4S696.8,233.9,687.7,233.9z
			 M687.7,204.1c-7.4,0-13.4,6-13.4,13.4s6,13.4,13.4,13.4s13.4-6,13.4-13.4S695.1,204.1,687.7,204.1z"/>
	</g>
	<g>
		<path class="st2" d="M631.1,138.1c-9,0-16.4-7.4-16.4-16.4s7.4-16.4,16.4-16.4s16.4,7.4,16.4,16.4S640.1,138.1,631.1,138.1z
			 M631.1,108.3c-7.4,0-13.4,6-13.4,13.4s6,13.4,13.4,13.4s13.4-6,13.4-13.4S638.5,108.3,631.1,108.3z"/>
	</g>
	<g>
		<path class="st2" d="M686.6,316.2c-6.8,0-12.3-5.5-12.3-12.3c0-6.8,5.5-12.3,12.3-12.3s12.3,5.5,12.3,12.3
			C698.8,310.7,693.4,316.2,686.6,316.2z M686.6,294.7c-5.1,0-9.3,4.2-9.3,9.3c0,5.1,4.2,9.3,9.3,9.3s9.3-4.2,9.3-9.3
			C695.8,298.8,691.7,294.7,686.6,294.7z"/>
	</g>
	<g>
		<path class="st2" d="M637.4,24.6c-6.8,0-12.3-5.5-12.3-12.3s5.5-12.3,12.3-12.3c6.8,0,12.3,5.5,12.3,12.3S644.2,24.6,637.4,24.6z
			 M637.4,3.1c-5.1,0-9.3,4.2-9.3,9.3s4.2,9.3,9.3,9.3c5.1,0,9.3-4.2,9.3-9.3S642.5,3.1,637.4,3.1z"/>
	</g>
	<g>
		<path class="st2" d="M638.5,280.1c-4.9,0-8.9-4-8.9-8.9s4-8.9,8.9-8.9s8.9,4,8.9,8.9S643.4,280.1,638.5,280.1z M638.5,265.3
			c-3.3,0-5.9,2.6-5.9,5.9c0,3.3,2.6,5.9,5.9,5.9s5.9-2.6,5.9-5.9C644.4,268,641.7,265.3,638.5,265.3z"/>
	</g>
	<g>
		<path class="st2" d="M710,42.1c-4.9,0-8.9-4-8.9-8.9s4-8.9,8.9-8.9s8.9,4,8.9,8.9S714.9,42.1,710,42.1z M710,27.3
			c-3.3,0-5.9,2.6-5.9,5.9s2.6,5.9,5.9,5.9s5.9-2.6,5.9-5.9S713.3,27.3,710,27.3z"/>
	</g>
	<g>
		<path class="st2" d="M792.6,188.6c-4.9,0-8.9-4-8.9-8.9s4-8.9,8.9-8.9c4.9,0,8.9,4,8.9,8.9S797.5,188.6,792.6,188.6z M792.6,173.8
			c-3.2,0-5.9,2.6-5.9,5.9s2.6,5.9,5.9,5.9c3.3,0,5.9-2.6,5.9-5.9S795.9,173.8,792.6,173.8z"/>
	</g>
	<g>
		<path class="st2" d="M694,158.5c-4.9,0-8.9-4-8.9-8.9s4-8.9,8.9-8.9s8.9,4,8.9,8.9S698.9,158.5,694,158.5z M694,143.8
			c-3.3,0-5.9,2.6-5.9,5.9s2.6,5.9,5.9,5.9s5.9-2.6,5.9-5.9S697.2,143.8,694,143.8z"/>
	</g>
	<g>
		<path class="st2" d="M794.2,294.9c-4.9,0-8.9-4-8.9-8.9s4-8.9,8.9-8.9c4.9,0,8.9,4,8.9,8.9S799.1,294.9,794.2,294.9z M794.2,280.1
			c-3.3,0-5.9,2.6-5.9,5.9s2.6,5.9,5.9,5.9c3.2,0,5.9-2.6,5.9-5.9S797.4,280.1,794.2,280.1z"/>
	</g>
	<g>
		
			<rect x="808.8" y="289.4" transform="matrix(0.8273 -0.5617 0.5617 0.8273 -35.7283 509.1539)" class="st2" width="3" height="46.6"/>
	</g>
	<g>
		
			<rect x="658.7" y="267.6" transform="matrix(0.5404 -0.8414 0.8414 0.5404 61.2992 687.7793)" class="st2" width="3" height="40.4"/>
	</g>
	<g>
		
			<rect x="656.7" y="261.3" transform="matrix(1.855753e-02 -0.9998 0.9998 1.855753e-02 411.6718 944.931)" class="st2" width="60.9" height="3"/>
	</g>
	<g>
		
			<rect x="743" y="201" transform="matrix(0.5483 -0.8363 0.8363 0.5483 124.5256 736.9655)" class="st2" width="3" height="104.4"/>
	</g>
	<g>
		
			<rect x="697.4" y="193.7" transform="matrix(0.958 -0.2868 0.2868 0.958 -24.7806 221.1494)" class="st2" width="90.3" height="3"/>
	</g>
	<g>
		
			<rect x="1111.7" y="359.5" transform="matrix(0.1046 -0.9945 0.9945 0.1046 525.8387 1531.0872)" class="st2" width="3" height="228"/>
	</g>
	<g>
		
			<rect x="1182.4" y="614.1" transform="matrix(0.1123 -0.9937 0.9937 0.1123 502.7486 1794.031)" class="st2" width="146.3" height="3"/>
	</g>
	<g>
		
			<rect x="295.9" y="610.2" transform="matrix(0.9953 -9.702130e-02 9.702130e-02 0.9953 -57.5819 39.1088)" class="st2" width="154.9" height="3"/>
	</g>
	<g>
		
			<rect x="1236.8" y="430.6" transform="matrix(0.8768 -0.4808 0.4808 0.8768 -63.4467 650.7427)" class="st2" width="3" height="37.2"/>
	</g>
	<g>
		
			<rect x="1193.7" y="394.1" transform="matrix(0.2712 -0.9625 0.9625 0.2712 473.2197 1451.6171)" class="st2" width="3" height="38.3"/>
	</g>
	<g>
		
			<rect x="1232.1" y="409.9" transform="matrix(0.9393 -0.3432 0.3432 0.9393 -64.2606 459.5475)" class="st2" width="68.6" height="3"/>
	</g>
	<g>
		
			<rect x="1285.6" y="313.8" transform="matrix(0.7825 -0.6227 0.6227 0.7825 67.2725 875.8087)" class="st2" width="3" height="55.7"/>
	</g>
	<g>
		
			<rect x="1318.9" y="344.9" transform="matrix(0.2721 -0.9623 0.9623 0.2721 636.3932 1534.22)" class="st2" width="26.9" height="3"/>
	</g>
	<g>
		
			<rect x="1240" y="276.2" transform="matrix(0.504 -0.8637 0.8637 0.504 363.7898 1216.9833)" class="st2" width="3" height="31.2"/>
	</g>
	<g>
		
			<rect x="1274.7" y="238.9" transform="matrix(0.1437 -0.9896 0.9896 0.1437 810.6013 1507.0498)" class="st2" width="3" height="92.5"/>
	</g>
	<g>
		
			<rect x="1347.3" y="273.2" transform="matrix(0.6816 -0.7317 0.7317 0.6816 233.4052 1085.8196)" class="st2" width="34.1" height="3"/>
	</g>
	<g>
		
			<rect x="1366.1" y="181.1" transform="matrix(0.9137 -0.4064 0.4064 0.9137 32.6208 573.9642)" class="st2" width="3" height="58.1"/>
	</g>
	<g>
		
			<rect x="1392.2" y="226.4" transform="matrix(0.8426 -0.5385 0.5385 0.8426 100.0867 798.1883)" class="st2" width="46.9" height="3"/>
	</g>
	<g>
		
			<rect x="1221.7" y="285.9" transform="matrix(1 -3.396287e-03 3.396287e-03 1 -1.1786 4.1564)" class="st2" width="3" height="126.5"/>
	</g>
	<g>
		
			<rect x="1193" y="365.1" transform="matrix(0.2516 -0.9678 0.9678 0.2516 575.4204 1477.3835)" class="st2" width="99.8" height="3"/>
	</g>
	<g>
		
			<rect x="437.9" y="310.9" transform="matrix(0.9691 -0.2465 0.2465 0.9691 -95.539 121.9567)" class="st2" width="3" height="263.5"/>
	</g>
	<g>
		
			<rect x="453.1" y="276" transform="matrix(0.2664 -0.9639 0.9639 0.2664 39.4491 661.9052)" class="st2" width="3" height="58.1"/>
	</g>
	<g>
		
			<rect x="340.1" y="307.8" transform="matrix(0.8772 -0.4801 0.4801 0.8772 -104.6967 209.2142)" class="st2" width="33.2" height="3"/>
	</g>
	<g>
		
			<rect x="396.2" y="340.8" transform="matrix(0.8708 -0.4917 0.4917 0.8708 -178.5266 255.9912)" class="st2" width="3" height="253.7"/>
	</g>
	<g>
		
			<rect x="571.8" y="666.6" transform="matrix(0.3906 -0.9206 0.9206 0.3906 -208.4858 1021.2311)" class="st2" width="190.7" height="3"/>
	</g>
	<g>
		
			<rect x="644.1" y="263.1" transform="matrix(0.9065 -0.4223 0.4223 0.9065 -109.2686 310.1847)" class="st2" width="3" height="277.3"/>
	</g>
	<g>
		
			<rect x="601.1" y="227.2" transform="matrix(0.9726 -0.2324 0.2324 0.9726 -35.7069 154.4124)" class="st2" width="72.7" height="3"/>
	</g>
	<g>
		
			<rect x="567.9" y="72.7" transform="matrix(0.9989 -4.633065e-02 4.633065e-02 0.9989 -6.2528 26.5394)" class="st2" width="3" height="151"/>
	</g>
	<g>
		
			<rect x="600.7" y="58.6" transform="matrix(0.6809 -0.7324 0.7324 0.6809 127.4878 469.2525)" class="st2" width="3" height="59.5"/>
	</g>
	<g>
		<rect x="584" y="22.8" transform="matrix(0.919 -0.3942 0.3942 0.919 39.5273 241.0664)" class="st2" width="44.9" height="3"/>
	</g>
	<g>
		
			<rect x="673.9" y="-6.3" transform="matrix(0.357 -0.9341 0.9341 0.357 412.9938 645.5475)" class="st2" width="3" height="58.3"/>
	</g>
	<g>
		
			<rect x="664.6" y="113.7" transform="matrix(0.3733 -0.9277 0.9277 0.3733 290.2937 703.8132)" class="st2" width="3" height="46.7"/>
	</g>
	<g>
		<path class="st3" d="M704.2,37.8"/>
	</g>
	<g>
		<path class="st3" d="M637.4,108.2"/>
	</g>
	<g>
		
			<rect x="685.1" y="117.1" transform="matrix(0.5982 -0.8013 0.8013 0.5982 192.4859 621.0956)" class="st2" width="61.1" height="3"/>
	</g>
	<g>
		
			<rect x="592" y="63.5" transform="matrix(6.738321e-02 -0.9977 0.9977 6.738321e-02 526.6864 693.4837)" class="st2" width="84.6" height="3"/>
	</g>
</g>
</svg>
