<svg xmlns="http://www.w3.org/2000/svg" width="1565.7" height="1428" viewBox="0 0 1565.7 1428"><style type="text/css">.st0{display:none;} .st1{display:inline;fill:#23292A;} .st2{fill:#2A3031;} .st3{fill:none;stroke:#2A3031;stroke-width:3;stroke-miterlimit:10;}</style><path class="st1" d="M-207.7-142h1854.2v1701.2h-1854.2z" id="Layer_2"/><g id="Layer_1"><path class="st2" d="M184.6 1012.8c-18.8 0-34-15.3-34-34s15.3-34 34-34 34 15.3 34 34-15.3 34-34 34zm0-65.1c-17.1 0-31 13.9-31 31s13.9 31 31 31 31-13.9 31-31-13.9-31-31-31zM629.9 822.4c-18.8 0-34-15.3-34-34s15.3-34 34-34c18.8 0 34 15.3 34 34s-15.2 34-34 34zm0-65c-17.1 0-31 13.9-31 31s13.9 31 31 31 31-13.9 31-31-13.9-31-31-31zM499.7 1166.8c-18.8 0-34-15.3-34-34s15.3-34 34-34 34 15.3 34 34-15.3 34-34 34zm0-65.1c-17.1 0-31 13.9-31 31s13.9 31 31 31 31-13.9 31-31-13.9-31-31-31zM482.6 635.7c-18.8 0-34-15.3-34-34s15.3-34 34-34c18.8 0 34 15.3 34 34s-15.3 34-34 34zm0-65.1c-17.1 0-31 13.9-31 31s13.9 31 31 31 31-13.9 31-31-13.9-31-31-31zM723 587.7c-18.8 0-34-15.3-34-34 0-18.8 15.3-34 34-34s34 15.3 34 34-15.3 34-34 34zm0-65.1c-17.1 0-31 13.9-31 31s13.9 31 31 31 31-13.9 31-31-13.9-31-31-31zM1014.9 737.1c-18.8 0-34-15.3-34-34 0-18.8 15.3-34 34-34 18.8 0 34 15.3 34 34 .1 18.7-15.2 34-34 34zm0-65.1c-17.1 0-31 13.9-31 31s13.9 31 31 31 31-13.9 31-31-13.9-31-31-31zM695.1 943.3c-16.2 0-29.4-13.2-29.4-29.4s13.2-29.4 29.4-29.4 29.4 13.2 29.4 29.4-13.2 29.4-29.4 29.4zm0-55.8c-14.6 0-26.4 11.8-26.4 26.4s11.8 26.4 26.4 26.4 26.4-11.8 26.4-26.4-11.9-26.4-26.4-26.4zM810.4 1103.4c-16.2 0-29.4-13.2-29.4-29.4s13.2-29.4 29.4-29.4 29.4 13.2 29.4 29.4-13.2 29.4-29.4 29.4zm0-55.9c-14.6 0-26.4 11.8-26.4 26.4s11.8 26.4 26.4 26.4 26.4-11.8 26.4-26.4-11.8-26.4-26.4-26.4zM1068.8 1045.3c-14.7 0-26.6-11.9-26.6-26.6 0-14.7 11.9-26.6 26.6-26.6 14.7 0 26.6 11.9 26.6 26.6-.1 14.7-12 26.6-26.6 26.6zm0-50.1c-13 0-23.6 10.6-23.6 23.6 0 13 10.6 23.6 23.6 23.6 13 0 23.6-10.6 23.6-23.6-.1-13-10.6-23.6-23.6-23.6zM1014.9 1100.4c-12 0-21.8-9.8-21.8-21.8s9.8-21.8 21.8-21.8 21.8 9.8 21.8 21.8c0 12.1-9.8 21.8-21.8 21.8zm0-40.5c-10.3 0-18.8 8.4-18.8 18.8s8.4 18.8 18.8 18.8 18.8-8.4 18.8-18.8-8.4-18.8-18.8-18.8zM533.8 538.8c-12 0-21.8-9.8-21.8-21.8s9.8-21.8 21.8-21.8 21.8 9.8 21.8 21.8c-.1 12-9.8 21.8-21.8 21.8zm0-40.5c-10.3 0-18.8 8.4-18.8 18.8s8.4 18.8 18.8 18.8 18.8-8.4 18.8-18.8-8.5-18.8-18.8-18.8zM1159.1 1234.8c-16.1 0-29.1-13.1-29.1-29.1 0-16.1 13.1-29.1 29.1-29.1 16.1 0 29.1 13.1 29.1 29.1s-13.1 29.1-29.1 29.1zm0-55.3c-14.4 0-26.1 11.7-26.1 26.1 0 14.4 11.7 26.1 26.1 26.1 14.4 0 26.1-11.7 26.1-26.1 0-14.3-11.7-26.1-26.1-26.1zM1411.2 1178.4c-11.6 0-21-9.4-21-21s9.4-21 21-21 21 9.4 21 21-9.5 21-21 21zm0-39c-9.9 0-18 8.1-18 18s8.1 18 18 18 18-8.1 18-18-8.1-18-18-18zM1352.7 949.4c-15.1 0-27.3-12.3-27.3-27.3s12.3-27.3 27.3-27.3c15.1 0 27.3 12.3 27.3 27.3s-12.2 27.3-27.3 27.3zm0-51.7c-13.4 0-24.3 10.9-24.3 24.3s10.9 24.3 24.3 24.3 24.3-10.9 24.3-24.3-10.8-24.3-24.3-24.3zM1535.2 1121.1c-9.2 0-16.6-7.5-16.6-16.6s7.5-16.6 16.6-16.6 16.6 7.5 16.6 16.6-7.4 16.6-16.6 16.6zm0-30.3c-7.5 0-13.6 6.1-13.6 13.6s6.1 13.6 13.6 13.6 13.6-6.1 13.6-13.6-6.1-13.6-13.6-13.6zM1476.1 1034.4c-11.1 0-20.1-9-20.1-20.1s9-20.1 20.1-20.1 20.1 9 20.1 20.1-9 20.1-20.1 20.1zm0-37.3c-9.5 0-17.1 7.7-17.1 17.1 0 9.4 7.7 17.1 17.1 17.1s17.1-7.7 17.1-17.1c0-9.4-7.7-17.1-17.1-17.1zM1183.4 913.5c-12.2 0-22.2-10-22.2-22.2s10-22.2 22.2-22.2 22.2 10 22.2 22.2-10 22.2-22.2 22.2zm0-41.4c-10.6 0-19.2 8.6-19.2 19.2s8.6 19.2 19.2 19.2 19.2-8.6 19.2-19.2-8.7-19.2-19.2-19.2zM1441.6 1264.1c-5.2 0-9.4-4.2-9.4-9.4s4.2-9.4 9.4-9.4 9.4 4.2 9.4 9.4-4.2 9.4-9.4 9.4zm0-15.8c-3.5 0-6.4 2.9-6.4 6.4s2.9 6.4 6.4 6.4 6.4-2.9 6.4-6.4-2.9-6.4-6.4-6.4zM1225.8 1422.1c-11.6 0-21-9.4-21-21s9.4-21 21-21 21 9.4 21 21-9.4 21-21 21zm0-39c-9.9 0-18 8.1-18 18s8.1 18 18 18 18-8.1 18-18-8.1-18-18-18zM1263.7 1332.4c-5.4 0-9.8-4.4-9.8-9.8s4.4-9.8 9.8-9.8 9.8 4.4 9.8 9.8-4.4 9.8-9.8 9.8zm0-16.7c-3.8 0-6.8 3.1-6.8 6.8s3.1 6.8 6.8 6.8 6.8-3.1 6.8-6.8-3.1-6.8-6.8-6.8zM1185.2 1074.9c-9 0-16.3-7.3-16.3-16.3s7.3-16.3 16.3-16.3 16.3 7.3 16.3 16.3-7.3 16.3-16.3 16.3zm0-29.6c-7.3 0-13.3 6-13.3 13.3s6 13.3 13.3 13.3 13.3-6 13.3-13.3-6-13.3-13.3-13.3zM946.1 1198.8c-23.3 0-42.2-18.9-42.2-42.2s18.9-42.2 42.2-42.2 42.2 18.9 42.2 42.2-18.9 42.2-42.2 42.2zm0-81.4c-21.6 0-39.2 17.6-39.2 39.2s17.6 39.2 39.2 39.2 39.2-17.6 39.2-39.2-17.6-39.2-39.2-39.2zM858.3 837.5c-23.3 0-42.2-18.9-42.2-42.2s18.9-42.2 42.2-42.2 42.2 18.9 42.2 42.2-18.9 42.2-42.2 42.2zm0-81.4c-21.6 0-39.2 17.6-39.2 39.2s17.6 39.2 39.2 39.2 39.2-17.6 39.2-39.2-17.6-39.2-39.2-39.2zM1263.7 544.5c-23.3 0-42.2-18.9-42.2-42.2 0-23.3 18.9-42.2 42.2-42.2s42.2 18.9 42.2 42.2c0 23.2-18.9 42.2-42.2 42.2zm0-81.5c-21.6 0-39.2 17.6-39.2 39.2s17.6 39.2 39.2 39.2 39.2-17.6 39.2-39.2-17.6-39.2-39.2-39.2zM918.9 1024.2c-30.3 0-55-24.7-55-55s24.7-55 55-55 55 24.7 55 55-24.6 55-55 55zm0-107c-28.7 0-52 23.3-52 52s23.3 52 52 52 52-23.3 52-52-23.3-52-52-52zM194.9 920.5c-10.5 0-19-8.5-19-19s8.5-19 19-19 19 8.5 19 19-8.5 19-19 19zm0-35c-8.8 0-16 7.2-16 16s7.2 16 16 16 16-7.2 16-16-7.1-16-16-16zM23.5 1031.8c-10.5 0-19-8.5-19-19s8.5-19 19-19 19 8.5 19 19-8.5 19-19 19zm0-35.1c-8.8 0-16 7.2-16 16s7.2 16 16 16 16-7.2 16-16-7.1-16-16-16zM364.3 1090.3c-9 0-16.4-7.4-16.4-16.4s7.4-16.4 16.4-16.4 16.4 7.4 16.4 16.4-7.3 16.4-16.4 16.4zm0-29.8c-7.4 0-13.4 6-13.4 13.4s6 13.4 13.4 13.4 13.4-6 13.4-13.4-6-13.4-13.4-13.4zM494 1072.3c-9 0-16.4-7.4-16.4-16.4s7.4-16.4 16.4-16.4 16.4 7.4 16.4 16.4-7.4 16.4-16.4 16.4zm0-29.8c-7.4 0-13.4 6-13.4 13.4s6 13.4 13.4 13.4 13.4-6 13.4-13.4-6-13.4-13.4-13.4zM728.1 484.3c-9 0-16.4-7.4-16.4-16.4s7.4-16.4 16.4-16.4 16.4 7.4 16.4 16.4-7.4 16.4-16.4 16.4zm0-29.8c-7.4 0-13.4 6-13.4 13.4s6 13.4 13.4 13.4 13.4-6 13.4-13.4-6-13.4-13.4-13.4zM1035.2 340c-9 0-16.4-7.4-16.4-16.4s7.4-16.4 16.4-16.4 16.4 7.4 16.4 16.4-7.4 16.4-16.4 16.4zm0-29.8c-7.4 0-13.4 6-13.4 13.4s6 13.4 13.4 13.4 13.4-6 13.4-13.4-6-13.4-13.4-13.4zM624.9 1255.2c-9 0-16.4-7.4-16.4-16.4s7.4-16.4 16.4-16.4 16.4 7.4 16.4 16.4-7.4 16.4-16.4 16.4zm0-29.8c-7.4 0-13.4 6-13.4 13.4s6 13.4 13.4 13.4 13.4-6 13.4-13.4-6.1-13.4-13.4-13.4zM1043.7 632.9c-9 0-16.4-7.4-16.4-16.4s7.4-16.4 16.4-16.4 16.4 7.4 16.4 16.4-7.4 16.4-16.4 16.4zm0-29.8c-7.4 0-13.4 6-13.4 13.4s6 13.4 13.4 13.4 13.4-6 13.4-13.4-6-13.4-13.4-13.4zM897.7 1264.6c-9 0-16.4-7.4-16.4-16.4s7.4-16.4 16.4-16.4 16.4 7.4 16.4 16.4-7.4 16.4-16.4 16.4zm0-29.8c-7.4 0-13.4 6-13.4 13.4s6 13.4 13.4 13.4 13.4-6 13.4-13.4-6-13.4-13.4-13.4zM1023.7 1261.2c-9 0-16.4-7.4-16.4-16.4s7.4-16.4 16.4-16.4 16.4 7.4 16.4 16.4-7.4 16.4-16.4 16.4zm0-29.8c-7.4 0-13.4 6-13.4 13.4s6 13.4 13.4 13.4 13.4-6 13.4-13.4-6-13.4-13.4-13.4zM538.7 1415.7c-7.8 0-14.2-6.4-14.2-14.2s6.4-14.2 14.2-14.2 14.2 6.4 14.2 14.2-6.3 14.2-14.2 14.2zm0-25.4c-6.2 0-11.2 5-11.2 11.2 0 6.2 5 11.2 11.2 11.2s11.2-5 11.2-11.2c.1-6.2-5-11.2-11.2-11.2zM995.2 1427.4c-8.7 0-15.8-7.1-15.8-15.8s7.1-15.8 15.8-15.8 15.8 7.1 15.8 15.8-7.1 15.8-15.8 15.8zm0-28.5c-7 0-12.8 5.7-12.8 12.8 0 7 5.7 12.8 12.8 12.8 7 0 12.8-5.7 12.8-12.8-.1-7.1-5.8-12.8-12.8-12.8zM787.5 1396.5c-6.4 0-11.5-5.2-11.5-11.5s5.2-11.5 11.5-11.5c6.4 0 11.5 5.2 11.5 11.5s-5.2 11.5-11.5 11.5zm0-20.1c-4.7 0-8.5 3.8-8.5 8.5s3.8 8.5 8.5 8.5 8.5-3.8 8.5-8.5-3.8-8.5-8.5-8.5zM860.4 1428.2c-5.3 0-9.6-4.3-9.6-9.6s4.3-9.6 9.6-9.6 9.6 4.3 9.6 9.6-4.3 9.6-9.6 9.6zm0-16.2c-3.6 0-6.6 2.9-6.6 6.6s2.9 6.6 6.6 6.6 6.6-2.9 6.6-6.6-3-6.6-6.6-6.6zM788.6 1245c-5.3 0-9.6-4.3-9.6-9.6s4.3-9.6 9.6-9.6 9.6 4.3 9.6 9.6-4.3 9.6-9.6 9.6zm0-16.2c-3.7 0-6.6 3-6.6 6.6 0 3.7 3 6.6 6.6 6.6 3.7 0 6.6-3 6.6-6.6 0-3.7-3-6.6-6.6-6.6zM1057.3 1175.5c-6.8 0-12.3-5.5-12.3-12.3s5.5-12.3 12.3-12.3 12.3 5.5 12.3 12.3-5.6 12.3-12.3 12.3zm0-21.5c-5.1 0-9.3 4.2-9.3 9.3s4.2 9.3 9.3 9.3 9.3-4.2 9.3-9.3-4.2-9.3-9.3-9.3zM588.3 581.4c-6.8 0-12.3-5.5-12.3-12.3 0-6.8 5.5-12.3 12.3-12.3s12.3 5.5 12.3 12.3c0 6.8-5.5 12.3-12.3 12.3zm0-21.6c-5.1 0-9.3 4.2-9.3 9.3 0 5.1 4.2 9.3 9.3 9.3s9.3-4.2 9.3-9.3c0-5.1-4.2-9.3-9.3-9.3zM1036.3 422.4c-6.8 0-12.3-5.5-12.3-12.3s5.5-12.3 12.3-12.3 12.3 5.5 12.3 12.3-5.5 12.3-12.3 12.3zm0-21.5c-5.1 0-9.3 4.2-9.3 9.3s4.2 9.3 9.3 9.3 9.3-4.2 9.3-9.3-4.2-9.3-9.3-9.3zM1223.4 435.4c-6.8 0-12.3-5.5-12.3-12.3s5.5-12.3 12.3-12.3 12.3 5.5 12.3 12.3-5.5 12.3-12.3 12.3zm0-21.5c-5.1 0-9.3 4.2-9.3 9.3s4.2 9.3 9.3 9.3 9.3-4.2 9.3-9.3-4.2-9.3-9.3-9.3zM1443.8 220.8c-6.8 0-12.3-5.5-12.3-12.3s5.5-12.3 12.3-12.3 12.3 5.5 12.3 12.3-5.6 12.3-12.3 12.3zm0-21.5c-5.1 0-9.3 4.2-9.3 9.3s4.2 9.3 9.3 9.3 9.3-4.2 9.3-9.3-4.2-9.3-9.3-9.3zM1267.4 1127.7c-7.8 0-14.2-6.4-14.2-14.2s6.4-14.2 14.2-14.2c7.8 0 14.2 6.4 14.2 14.2s-6.4 14.2-14.2 14.2zm0-25.3c-6.2 0-11.2 5-11.2 11.2s5 11.2 11.2 11.2c6.2 0 11.2-5 11.2-11.2s-5-11.2-11.2-11.2zM547.7 419c-7.8 0-14.2-6.4-14.2-14.2s6.4-14.2 14.2-14.2 14.2 6.4 14.2 14.2-6.4 14.2-14.2 14.2zm0-25.3c-6.2 0-11.2 5-11.2 11.2s5 11.2 11.2 11.2 11.2-5 11.2-11.2-5-11.2-11.2-11.2zM1382.6 693.2c-16.1 0-29.1-13.1-29.1-29.1s13.1-29.1 29.1-29.1c16.1 0 29.1 13.1 29.1 29.1s-13 29.1-29.1 29.1zm0-55.2c-14.4 0-26.1 11.7-26.1 26.1s11.7 26.1 26.1 26.1c14.4 0 26.1-11.7 26.1-26.1s-11.7-26.1-26.1-26.1zM1321.9 413.9c-16.1 0-29.1-13.1-29.1-29.1s13.1-29.1 29.1-29.1 29.1 13.1 29.1 29.1-13 29.1-29.1 29.1zm0-55.2c-14.4 0-26.1 11.7-26.1 26.1s11.7 26.1 26.1 26.1 26.1-11.7 26.1-26.1-11.7-26.1-26.1-26.1zM1449.4 880.5c-11.6 0-21-9.4-21-21s9.4-21 21-21 21 9.4 21 21-9.4 21-21 21zm0-38.9c-9.9 0-18 8.1-18 18s8.1 18 18 18 18-8.1 18-18-8.1-18-18-18zM1487.2 790.8c-5.4 0-9.8-4.4-9.8-9.8s4.4-9.8 9.8-9.8 9.8 4.4 9.8 9.8-4.3 9.8-9.8 9.8zm0-16.7c-3.8 0-6.8 3.1-6.8 6.8s3.1 6.8 6.8 6.8 6.8-3.1 6.8-6.8-3-6.8-6.8-6.8zM1408.8 533.3c-9 0-16.3-7.3-16.3-16.3s7.3-16.3 16.3-16.3 16.2 7.3 16.2 16.3-7.3 16.3-16.2 16.3zm0-29.6c-7.3 0-13.3 6-13.3 13.3s6 13.3 13.3 13.3 13.3-6 13.3-13.3-6-13.3-13.3-13.3zM1384.9 266.7c-9 0-16.3-7.3-16.3-16.3s7.3-16.3 16.3-16.3 16.3 7.3 16.3 16.3-7.3 16.3-16.3 16.3zm0-29.5c-7.3 0-13.3 6-13.3 13.3s6 13.3 13.3 13.3 13.3-6 13.3-13.3-6-13.3-13.3-13.3zM1247.3 719.6c-9 0-16.4-7.4-16.4-16.4s7.4-16.4 16.4-16.4 16.4 7.4 16.4 16.4-7.4 16.4-16.4 16.4zm0-29.8c-7.4 0-13.4 6-13.4 13.4s6 13.4 13.4 13.4 13.4-6 13.4-13.4-6-13.4-13.4-13.4zM1491 586.1c-7.8 0-14.2-6.4-14.2-14.2s6.4-14.2 14.2-14.2c7.8 0 14.2 6.4 14.2 14.2s-6.4 14.2-14.2 14.2zm0-25.3c-6.2 0-11.2 5-11.2 11.2s5 11.2 11.2 11.2c6.2 0 11.2-5 11.2-11.2s-5-11.2-11.2-11.2zM1263.7 322.9c-7.8 0-14.2-6.4-14.2-14.2s6.4-14.2 14.2-14.2c7.8 0 14.2 6.4 14.2 14.2s-6.4 14.2-14.2 14.2zm0-25.4c-6.2 0-11.2 5-11.2 11.2s5 11.2 11.2 11.2c6.2 0 11.2-5 11.2-11.2s-5-11.2-11.2-11.2zM1139 962.4c-8 0-14.4-6.5-14.4-14.4 0-8 6.5-14.4 14.4-14.4 8 0 14.4 6.5 14.4 14.4s-6.4 14.4-14.4 14.4zm0-25.9c-6.3 0-11.4 5.1-11.4 11.4 0 6.3 5.1 11.4 11.4 11.4 6.3 0 11.4-5.1 11.4-11.4 0-6.2-5.1-11.4-11.4-11.4zM1255.4 965.4c-7.1 0-12.8-5.7-12.8-12.8 0-7.1 5.7-12.8 12.8-12.8 7.1 0 12.8 5.7 12.8 12.8 0 7-5.7 12.8-12.8 12.8zm0-22.6c-5.4 0-9.8 4.4-9.8 9.8s4.4 9.8 9.8 9.8 9.8-4.4 9.8-9.8-4.4-9.8-9.8-9.8zM1069.2 908.7c-4.7 0-8.5-3.8-8.5-8.5s3.8-8.5 8.5-8.5 8.5 3.8 8.5 8.5-3.8 8.5-8.5 8.5zm0-13.9c-3 0-5.5 2.5-5.5 5.5s2.5 5.5 5.5 5.5 5.5-2.5 5.5-5.5-2.5-5.5-5.5-5.5zM1554.2 1206.2c-6.4 0-11.7-5.2-11.7-11.7s5.2-11.7 11.7-11.7 11.7 5.2 11.7 11.7-5.3 11.7-11.7 11.7zm0-20.4c-4.8 0-8.7 3.9-8.7 8.7s3.9 8.7 8.7 8.7 8.7-3.9 8.7-8.7-3.9-8.7-8.7-8.7zM847.4 1193.6c-6.8 0-12.3-5.5-12.3-12.3s5.5-12.3 12.3-12.3 12.3 5.5 12.3 12.3-5.5 12.3-12.3 12.3zm0-21.7c-5.1 0-9.3 4.2-9.3 9.3s4.2 9.3 9.3 9.3 9.3-4.2 9.3-9.3-4.1-9.3-9.3-9.3zM780.1 1333.6c-12.1 0-21.9-9.8-21.9-21.9 0-12.1 9.8-21.9 21.9-21.9s21.9 9.8 21.9 21.9c0 12-9.9 21.9-21.9 21.9zm0-40.8c-10.4 0-18.9 8.5-18.9 18.9s8.5 18.9 18.9 18.9 18.9-8.5 18.9-18.9-8.5-18.9-18.9-18.9zM913.8 1408.1c-14.5 0-26.3-11.8-26.3-26.3s11.8-26.3 26.3-26.3 26.3 11.8 26.3 26.3-11.8 26.3-26.3 26.3zm0-49.6c-12.9 0-23.3 10.5-23.3 23.3s10.5 23.3 23.3 23.3 23.3-10.5 23.3-23.3-10.5-23.3-23.3-23.3zM946.1 657.7c-14.5 0-26.3-11.8-26.3-26.3s11.8-26.3 26.3-26.3 26.3 11.8 26.3 26.3-11.8 26.3-26.3 26.3zm0-49.6c-12.9 0-23.3 10.5-23.3 23.3s10.5 23.3 23.3 23.3 23.3-10.5 23.3-23.3-10.4-23.3-23.3-23.3zM565.9 74.3c-14.5 0-26.3-11.8-26.3-26.3s11.8-26.3 26.3-26.3 26.3 11.8 26.3 26.3-11.8 26.3-26.3 26.3zm0-49.7c-12.9 0-23.3 10.5-23.3 23.3 0 12.9 10.5 23.3 23.3 23.3 12.9 0 23.3-10.5 23.3-23.3s-10.5-23.3-23.3-23.3zM982.4 470.3c-14.5 0-26.3-11.8-26.3-26.3s11.8-26.3 26.3-26.3 26.3 11.8 26.3 26.3-11.8 26.3-26.3 26.3zm0-49.6c-12.9 0-23.3 10.5-23.3 23.3 0 12.9 10.5 23.3 23.3 23.3 12.9 0 23.3-10.5 23.3-23.3 0-12.9-10.5-23.3-23.3-23.3zM1340.4 335c-14.5 0-26.3-11.8-26.3-26.3s11.8-26.3 26.3-26.3 26.3 11.8 26.3 26.3-11.8 26.3-26.3 26.3zm0-49.6c-12.9 0-23.3 10.5-23.3 23.3s10.5 23.3 23.3 23.3c12.9 0 23.3-10.5 23.3-23.3s-10.4-23.3-23.3-23.3zM650 1398.9c-14.7 0-26.7-12-26.7-26.7s12-26.7 26.7-26.7 26.7 12 26.7 26.7c0 14.8-12 26.7-26.7 26.7zm0-50.3c-13 0-23.7 10.6-23.7 23.7s10.6 23.7 23.7 23.7 23.7-10.6 23.7-23.7-10.6-23.7-23.7-23.7zM509.3 925.2c-6.3 0-11.4-5.1-11.4-11.4s5.1-11.4 11.4-11.4 11.4 5.1 11.4 11.4-5.1 11.4-11.4 11.4zm0-19.9c-4.7 0-8.4 3.8-8.4 8.4s3.8 8.4 8.4 8.4 8.4-3.8 8.4-8.4-3.8-8.4-8.4-8.4zM549.5 1089.1c-4.9 0-8.9-4-8.9-8.9s4-8.9 8.9-8.9 8.9 4 8.9 8.9-4 8.9-8.9 8.9zm0-14.8c-3.3 0-5.9 2.6-5.9 5.9 0 3.3 2.6 5.9 5.9 5.9s5.9-2.6 5.9-5.9c0-3.3-2.7-5.9-5.9-5.9zM826.8 347.4c-4.9 0-8.9-4-8.9-8.9s4-8.9 8.9-8.9 8.9 4 8.9 8.9-4 8.9-8.9 8.9zm0-14.8c-3.2 0-5.9 2.6-5.9 5.9s2.6 5.9 5.9 5.9c3.3 0 5.9-2.6 5.9-5.9s-2.7-5.9-5.9-5.9zM780.3 427c-4.9 0-8.9-4-8.9-8.9s4-8.9 8.9-8.9 8.9 4 8.9 8.9-3.9 8.9-8.9 8.9zm0-14.7c-3.3 0-5.9 2.6-5.9 5.9s2.6 5.9 5.9 5.9 5.9-2.6 5.9-5.9-2.6-5.9-5.9-5.9zM738.2 97.2c-4.9 0-8.9-4-8.9-8.9s4-8.9 8.9-8.9 8.9 4 8.9 8.9-4 8.9-8.9 8.9zm0-14.8c-3.3 0-5.9 2.6-5.9 5.9s2.6 5.9 5.9 5.9 5.9-2.6 5.9-5.9-2.6-5.9-5.9-5.9zM1084.4 386.3c-4.9 0-8.9-4-8.9-8.9s4-8.9 8.9-8.9 8.9 4 8.9 8.9-4 8.9-8.9 8.9zm0-14.8c-3.2 0-5.9 2.6-5.9 5.9s2.6 5.9 5.9 5.9c3.3 0 5.9-2.6 5.9-5.9s-2.6-5.9-5.9-5.9zM1170.4 413.7c-4.9 0-8.9-4-8.9-8.9s4-8.9 8.9-8.9 8.9 4 8.9 8.9-4 8.9-8.9 8.9zm0-14.8c-3.2 0-5.9 2.6-5.9 5.9s2.6 5.9 5.9 5.9c3.3 0 5.9-2.6 5.9-5.9s-2.7-5.9-5.9-5.9zM1352.7 185.8c-4.9 0-8.9-4-8.9-8.9s4-8.9 8.9-8.9 8.9 4 8.9 8.9-3.9 8.9-8.9 8.9zm0-14.8c-3.2 0-5.9 2.6-5.9 5.9s2.6 5.9 5.9 5.9c3.3 0 5.9-2.6 5.9-5.9s-2.6-5.9-5.9-5.9zM1223 287.4c-4.9 0-8.9-4-8.9-8.9s4-8.9 8.9-8.9 8.9 4 8.9 8.9-4 8.9-8.9 8.9zm0-14.8c-3.3 0-5.9 2.6-5.9 5.9 0 3.3 2.6 5.9 5.9 5.9 3.2 0 5.9-2.6 5.9-5.9 0-3.3-2.7-5.9-5.9-5.9zM930.3 294.8c-4.9 0-8.9-4-8.9-8.9s4-8.9 8.9-8.9 8.9 4 8.9 8.9-4 8.9-8.9 8.9zm0-14.8c-3.3 0-5.9 2.6-5.9 5.9s2.6 5.9 5.9 5.9c3.2 0 5.9-2.6 5.9-5.9s-2.7-5.9-5.9-5.9zM928.7 401.1c-4.9 0-8.9-4-8.9-8.9s4-8.9 8.9-8.9 8.9 4 8.9 8.9-4 8.9-8.9 8.9zm0-14.8c-3.3 0-5.9 2.6-5.9 5.9s2.6 5.9 5.9 5.9c3.2 0 5.9-2.6 5.9-5.9s-2.7-5.9-5.9-5.9zM590.5 1176.5c-4.9 0-8.9-4-8.9-8.9s4-8.9 8.9-8.9 8.9 4 8.9 8.9-4 8.9-8.9 8.9zm0-14.8c-3.3 0-5.9 2.6-5.9 5.9 0 3.2 2.6 5.9 5.9 5.9s5.9-2.6 5.9-5.9c0-3.2-2.7-5.9-5.9-5.9zM1109.4 556.7c-4.9 0-8.9-4-8.9-8.9s4-8.9 8.9-8.9 8.9 4 8.9 8.9-4 8.9-8.9 8.9zm0-14.7c-3.3 0-5.9 2.6-5.9 5.9s2.6 5.9 5.9 5.9c3.2 0 5.9-2.6 5.9-5.9s-2.6-5.9-5.9-5.9zM595.8 937.7c-9.1 0-16.6-7.4-16.6-16.6s7.4-16.6 16.6-16.6 16.6 7.4 16.6 16.6-7.5 16.6-16.6 16.6zm0-30.2c-7.5 0-13.6 6.1-13.6 13.6s6.1 13.6 13.6 13.6 13.6-6.1 13.6-13.6-6.1-13.6-13.6-13.6zM590.5 1011.2c-12.1 0-21.9-9.8-21.9-21.9 0-12.1 9.8-21.9 21.9-21.9s21.9 9.8 21.9 21.9c0 12.1-9.9 21.9-21.9 21.9zm0-40.8c-10.4 0-18.9 8.5-18.9 18.9 0 10.4 8.5 18.9 18.9 18.9s18.9-8.5 18.9-18.9c0-10.4-8.5-18.9-18.9-18.9zM16.6 1218.6c-9 0-16.4-7.4-16.4-16.4 0-9 7.4-16.4 16.4-16.4s16.4 7.4 16.4 16.4c0 9.1-7.3 16.4-16.4 16.4zm0-29.8c-7.4 0-13.4 6-13.4 13.4s6 13.4 13.4 13.4 13.4-6 13.4-13.4c0-7.3-6-13.4-13.4-13.4zM173.5 1277.6c-5.1 0-9.2-4.1-9.2-9.2s4.1-9.2 9.2-9.2 9.2 4.1 9.2 9.2-4.1 9.2-9.2 9.2zm0-15.5c-3.4 0-6.2 2.8-6.2 6.2s2.8 6.2 6.2 6.2 6.2-2.8 6.2-6.2-2.7-6.2-6.2-6.2zM310.2 1284c-6.9 0-12.5-5.6-12.5-12.5s5.6-12.5 12.5-12.5 12.5 5.6 12.5 12.5-5.6 12.5-12.5 12.5zm0-21.9c-5.2 0-9.5 4.2-9.5 9.5s4.2 9.5 9.5 9.5 9.5-4.2 9.5-9.5-4.3-9.5-9.5-9.5zM413.8 1227.2c-8.9 0-16.2-7.3-16.2-16.2s7.3-16.2 16.2-16.2c8.9 0 16.2 7.3 16.2 16.2s-7.2 16.2-16.2 16.2zm0-29.4c-7.3 0-13.2 5.9-13.2 13.2s5.9 13.2 13.2 13.2c7.3 0 13.2-5.9 13.2-13.2s-5.9-13.2-13.2-13.2zM817.6 641.7c-8.9 0-16.2-7.3-16.2-16.2s7.3-16.2 16.2-16.2c8.9 0 16.2 7.3 16.2 16.2s-7.3 16.2-16.2 16.2zm0-29.4c-7.3 0-13.2 5.9-13.2 13.2s5.9 13.2 13.2 13.2c7.3 0 13.2-5.9 13.2-13.2s-6-13.2-13.2-13.2zM536.9 1272.4c-6.8 0-12.3-5.5-12.3-12.3s5.5-12.3 12.3-12.3 12.3 5.5 12.3 12.3-5.5 12.3-12.3 12.3zm0-21.7c-5.2 0-9.3 4.2-9.3 9.3s4.2 9.3 9.3 9.3 9.3-4.2 9.3-9.3-4.2-9.3-9.3-9.3zM888.9 549.3c-6.8 0-12.3-5.5-12.3-12.3s5.5-12.3 12.3-12.3 12.3 5.5 12.3 12.3-5.4 12.3-12.3 12.3zm0-21.6c-5.2 0-9.3 4.2-9.3 9.3s4.2 9.3 9.3 9.3 9.3-4.2 9.3-9.3-4.1-9.3-9.3-9.3zM471.8 1306c-8.9 0-16.2-7.3-16.2-16.2s7.3-16.2 16.2-16.2c8.9 0 16.2 7.3 16.2 16.2s-7.2 16.2-16.2 16.2zm0-29.4c-7.3 0-13.2 5.9-13.2 13.2s5.9 13.2 13.2 13.2c7.3 0 13.2-5.9 13.2-13.2s-5.9-13.2-13.2-13.2zM263.7 653.2c-18.8 0-34-15.3-34-34s15.3-34 34-34 34 15.3 34 34-15.2 34-34 34zm0-65.1c-17.1 0-31 13.9-31 31s13.9 31 31 31 31-13.9 31-31-13.9-31-31-31zM128.4 576.7c-9 0-16.4-7.4-16.4-16.4s7.4-16.4 16.4-16.4 16.4 7.4 16.4 16.4-7.4 16.4-16.4 16.4zm0-29.8c-7.4 0-13.4 6-13.4 13.4s6 13.4 13.4 13.4 13.4-6 13.4-13.4-6-13.4-13.4-13.4zM258 558.7c-9 0-16.4-7.4-16.4-16.4s7.4-16.4 16.4-16.4c9 0 16.4 7.4 16.4 16.4s-7.3 16.4-16.4 16.4zm0-29.8c-7.4 0-13.4 6-13.4 13.4s6 13.4 13.4 13.4 13.4-6 13.4-13.4-6-13.4-13.4-13.4zM313.5 575.5c-4.9 0-8.9-4-8.9-8.9s4-8.9 8.9-8.9 8.9 4 8.9 8.9-4 8.9-8.9 8.9zm0-14.8c-3.3 0-5.9 2.6-5.9 5.9 0 3.3 2.6 5.9 5.9 5.9s5.9-2.6 5.9-5.9c0-3.3-2.6-5.9-5.9-5.9zM307.5 452.9c-4.9 0-8.9-4-8.9-8.9s4-8.9 8.9-8.9 8.9 4 8.9 8.9-4 8.9-8.9 8.9zm0-14.8c-3.3 0-5.9 2.6-5.9 5.9s2.6 5.9 5.9 5.9c3.3 0 5.9-2.6 5.9-5.9s-2.6-5.9-5.9-5.9zM177.9 713.6c-8.9 0-16.2-7.3-16.2-16.2 0-8.9 7.3-16.2 16.2-16.2s16.2 7.3 16.2 16.2c0 8.9-7.3 16.2-16.2 16.2zm0-29.4c-7.3 0-13.2 5.9-13.2 13.2 0 7.3 5.9 13.2 13.2 13.2s13.2-5.9 13.2-13.2c0-7.3-5.9-13.2-13.2-13.2zM235.9 792.4c-8.9 0-16.2-7.3-16.2-16.2s7.3-16.2 16.2-16.2 16.2 7.3 16.2 16.2-7.3 16.2-16.2 16.2zm0-29.4c-7.3 0-13.2 5.9-13.2 13.2s5.9 13.2 13.2 13.2 13.2-5.9 13.2-13.2-5.9-13.2-13.2-13.2zM142 1415.1c-8.2 0-14.9-6.7-14.9-14.9s6.7-14.9 14.9-14.9 14.9 6.7 14.9 14.9-6.7 14.9-14.9 14.9zm0-26.9c-6.6 0-11.9 5.4-11.9 11.9s5.4 11.9 11.9 11.9 11.9-5.4 11.9-11.9-5.4-11.9-11.9-11.9zM217.2 1258c-9 0-16.3-7.3-16.3-16.3s7.3-16.3 16.3-16.3 16.3 7.3 16.3 16.3-7.3 16.3-16.3 16.3zm0-29.6c-7.3 0-13.3 6-13.3 13.3s6 13.3 13.3 13.3 13.3-6 13.3-13.3-6-13.3-13.3-13.3zM107 890c-6 0-10.9-4.9-10.9-10.9s4.9-10.9 10.9-10.9 10.9 4.9 10.9 10.9-4.9 10.9-10.9 10.9zm0-18.9c-4.4 0-7.9 3.6-7.9 7.9s3.6 7.9 7.9 7.9 7.9-3.6 7.9-7.9-3.5-7.9-7.9-7.9zM532.2 723.4c-6 0-10.9-4.9-10.9-10.9s4.9-10.9 10.9-10.9 10.9 4.9 10.9 10.9-4.9 10.9-10.9 10.9zm0-18.9c-4.4 0-7.9 3.6-7.9 7.9s3.6 7.9 7.9 7.9 7.9-3.6 7.9-7.9-3.5-7.9-7.9-7.9zM423.3 746.5c-6 0-10.9-4.9-10.9-10.9s4.9-10.9 10.9-10.9 10.9 4.9 10.9 10.9-4.9 10.9-10.9 10.9zm0-18.9c-4.4 0-7.9 3.6-7.9 7.9 0 4.4 3.6 7.9 7.9 7.9s7.9-3.6 7.9-7.9c0-4.3-3.6-7.9-7.9-7.9zM220 1183.2c-28.9 0-52.4-23.5-52.4-52.4s23.5-52.4 52.4-52.4 52.4 23.5 52.4 52.4-23.5 52.4-52.4 52.4zm0-101.8c-27.2 0-49.4 22.2-49.4 49.4s22.2 49.4 49.4 49.4 49.4-22.2 49.4-49.4-22.2-49.4-49.4-49.4zM364.9 936.8c-13.8 0-25-11.2-25-25s11.2-25 25-25 25 11.2 25 25-11.2 25-25 25zm0-47.1c-12.1 0-22 9.9-22 22s9.9 22 22 22 22-9.9 22-22-9.9-22-22-22zM101.3 1133.3c-12.4 0-22.5-10.1-22.5-22.5s10.1-22.5 22.5-22.5 22.5 10.1 22.5 22.5-10.1 22.5-22.5 22.5zm0-42c-10.7 0-19.5 8.7-19.5 19.5 0 10.7 8.7 19.5 19.5 19.5s19.5-8.7 19.5-19.5c0-10.7-8.8-19.5-19.5-19.5zM69 1270.4c-12.4 0-22.5-10.1-22.5-22.5s10.1-22.5 22.5-22.5 22.5 10.1 22.5 22.5-10.1 22.5-22.5 22.5zm0-42c-10.7 0-19.5 8.7-19.5 19.5 0 10.7 8.7 19.5 19.5 19.5s19.5-8.7 19.5-19.5c0-10.7-8.8-19.5-19.5-19.5zM287.7 1414.1c-16.5 0-29.9-13.4-29.9-29.9s13.4-29.9 29.9-29.9 29.9 13.4 29.9 29.9c.1 16.5-13.3 29.9-29.9 29.9zm0-56.9c-14.9 0-26.9 12.1-26.9 26.9 0 14.9 12.1 26.9 26.9 26.9s26.9-12.1 26.9-26.9c.1-14.8-12-26.9-26.9-26.9zM115.707 883.163l.751-2.905 61.384 15.869-.751 2.905zM112.029 886.873l2.528-1.615 46.078 72.144-2.528 1.615zM187.98 945.998l5.429-27.163 2.942.588-5.429 27.163zM40.557 1008.233l112.975-20.4.533 2.952-112.975 20.4zM213.434 963.358l128.597-45.768 1.006 2.826-128.597 45.768zM371.34 889.057l48.219-144.567 2.846.949-48.219 144.567zM188.524 1011.214l2.923-.675 16.35 70.839-2.923.675zM122.116 1117.322l.388-2.975 46.804 6.103-.388 2.975zM71.302 1226.978l24.522-95.504 2.906.746-24.522 95.504zM25.407 1214.539l1.944-2.284 25.739 21.906-1.944 2.284zM179.03 1262.491l24.693-14.626 1.529 2.581-24.693 14.626zM215.644 1181.207l3-.007.113 45.7-3 .007zM229.507 1250.694l.923-2.854 69.269 22.393-.923 2.854zM266.277 1109.371l85.297-28.39.947 2.846-85.297 28.39zM377.242 1081.573l1.161-2.766 92.292 38.749-1.161 2.766zM270.477 1135.473l196.68-2.049.031 3-196.68 2.049zM258.485 1164.415l1.551-2.568 197.822 119.456-1.551 2.568zM218.682 1256.974l2.671-1.367 53.032 103.619-2.671 1.367zM292.545 1355.461l13.344-73.603 2.952.535-13.344 73.603zM154.984 1395.87l104.16-13.23.378 2.976-104.16 13.23zM312.828 1370.892l144.734-76.691 1.405 2.651-144.734 76.691zM419.802 1224.813l2.352-1.862 42.587 53.782-2.352 1.862zM475.618 1275.938l16.86-110.822 2.966.451-16.86 110.822zM424.6 1201.143l50.087-47.458 2.063 2.178-50.087 47.458zM378.129 931.397l2.235-2.002 103.549 115.608-2.235 2.002zM492.528 1070.906l2.984-.305 3.013 29.446-2.984.305zM506.09 1065.352l1.051-2.81 35.497 13.284-1.051 2.81zM513.649 923.206l2.091-2.151 58.3 56.666-2.091 2.151zM588.904 968.807l2.545-33.602 2.991.227-2.545 33.602zM605.365 975.178l65.52-47.105 1.751 2.436-65.52 47.105zM720.041 927.121l.669-2.924 146.025 33.405-.669 2.924zM530.041 1121.271l337.14-137.74 1.135 2.777-337.14 137.74zM531.867 1131.236l251.279-52.926.618 2.936-251.279 52.926zM540.789 1250.03l45.448-76.288 2.577 1.535-45.448 76.288zM594.465 1175.725l2.678-1.351 24.907 49.372-2.678 1.351zM520.796 1157.77l1.969-2.264 88.137 76.644-1.969 2.264zM397.7 316.4c-18.8 0-34-15.3-34-34s15.3-34 34-34c18.8 0 34 15.3 34 34s-15.3 34-34 34zm0-65.1c-17.1 0-31 13.9-31 31s13.9 31 31 31 31-13.9 31-31-13.9-31-31-31zM262.3 240c-9 0-16.4-7.4-16.4-16.4s7.4-16.4 16.4-16.4c9 0 16.4 7.4 16.4 16.4s-7.3 16.4-16.4 16.4zm0-29.8c-7.4 0-13.4 6-13.4 13.4s6 13.4 13.4 13.4 13.4-6 13.4-13.4-6-13.4-13.4-13.4zM392 221.9c-9 0-16.4-7.4-16.4-16.4s7.4-16.4 16.4-16.4 16.4 7.4 16.4 16.4-7.4 16.4-16.4 16.4zm0-29.8c-7.4 0-13.4 6-13.4 13.4s6 13.4 13.4 13.4 13.4-6 13.4-13.4-6-13.4-13.4-13.4zM447.5 238.7c-4.9 0-8.9-4-8.9-8.9s4-8.9 8.9-8.9 8.9 4 8.9 8.9-4 8.9-8.9 8.9zm0-14.8c-3.3 0-5.9 2.6-5.9 5.9 0 3.3 2.6 5.9 5.9 5.9 3.3 0 5.9-2.6 5.9-5.9 0-3.3-2.7-5.9-5.9-5.9zM150.7 221.8c-4.9 0-8.9-4-8.9-8.9s4-8.9 8.9-8.9 8.9 4 8.9 8.9-4 8.9-8.9 8.9zm0-14.8c-3.3 0-5.9 2.6-5.9 5.9s2.6 5.9 5.9 5.9 5.9-2.6 5.9-5.9-2.7-5.9-5.9-5.9zM488.5 326.1c-4.9 0-8.9-4-8.9-8.9s4-8.9 8.9-8.9 8.9 4 8.9 8.9-4 8.9-8.9 8.9zm0-14.7c-3.3 0-5.9 2.6-5.9 5.9s2.6 5.9 5.9 5.9 5.9-2.6 5.9-5.9-2.7-5.9-5.9-5.9zM275.256 231.208l1.161-2.766 92.292 38.749-1.161 2.766zM390.503 220.515l2.984-.305 3.013 29.446-2.984.305zM404.052 214.916l1.051-2.81 35.497 13.284-1.051 2.81zM633.455 1226.165l154.241-135.963 1.984 2.251-154.241 135.963zM828.625 1052.666l51.611-46.544 2.009 2.228-51.611 46.544zM623.325 1253.94l2.933-.629 20.162 93.957-2.933.629zM550.392 1396.021l75.023-18.211.708 2.915-75.023 18.211zM673.048 1362.539l87.27-44.812 1.37 2.669-87.27 44.812zM674.836 1376.483l.293-2.986 102.406 10.038-.293 2.986zM778.596 1332.317l2.976-.377 5.43 42.859-2.976.377zM791.826 1375.584l95.23-116.93 2.326 1.894-95.23 116.93zM896.099 1263.24l2.972-.412 12.828 92.612-2.972.412zM866.457 1412.969l27.314-16.865 1.576 2.553-27.314 16.865zM937.037 1390.165l1.069-2.803 44.664 17.031-1.069 2.803zM793.427 1228.727l43.778-39.848 2.019 2.219-43.778 39.848zM851.247 1191.823l2.291-1.937 37.644 44.518-2.291 1.937zM855.868 1188.839l.952-2.845 153.625 51.403-.952 2.845zM836.266 1062.869l207.376-41.581.59 2.942-207.376 41.581zM836.554 1080.148l.086-2.999 158.537 4.57-.086 2.999zM926.579 1022.947l2.974-.391 12.31 93.598-2.974.391zM833.177 1090.058l1.636-2.515 75.782 49.286-1.636 2.515zM968.609 1122.368l31.595-29.755 2.057 2.184-31.595 29.755zM1019.135 1097.385l2.626-1.45 31.614 57.251-2.626 1.45zM983.511 1171.817l.634-2.932 147.881 32-.634 2.932zM1038.117 1243.406l93.729-32.188.974 2.837-93.729 32.188zM1030.781 1258.529l1.776-2.418 179.013 131.461-1.776 2.418zM1233.177 1383.223l24.562-54.193 2.732 1.238-24.562 54.193zM952.779 1010.873l2.11-2.132 51.604 51.067-2.11 2.132zM969.877 985.38l.972-2.838 75.026 25.693-.972 2.838zM972.301 970.737l.277-2.987 485.005 45.04-.277 2.987zM1034.805 1073.977l135.636-14.39.317 2.983-135.636 14.39zM1074.817 1043.403l2.644-1.417 73.395 136.97-2.644 1.417zM1031.116 1090.294l2.076-2.166 104.531 100.202-2.076 2.166zM1164.394 1178.371l15.236-105.304 2.969.43-15.236 105.304zM1196.958 1067.457l1.716-2.461 57.503 40.09-1.716 2.461zM1199.688 1057.105l257.426-39.856.459 2.965-257.426 39.856zM1182.533 1191.211l277.138-168.013 1.555 2.565-277.138 168.013zM1417.162 1138.791l50.508-106.534 2.711 1.285-50.508 106.534zM1429.457 1151.208l91.626-41.295 1.233 2.735-91.626 41.295zM1536.13 1119.616l2.946-.568 12.664 65.689-2.946.568zM1414.185 1176.58l2.848-.943 23.534 71.11-2.848.943zM1186.328 1201.077l205.911-39.153.56 2.947-205.911 39.153zM1076.026 898.739l86.539-8.952.309 2.984-86.539 8.952zM1145.865 936.883l23.128-30.655 2.395 1.807-23.128 30.655zM1198.9 904.83l1.988-2.247 46.956 41.545-1.988 2.247zM1265.237 946.566l62.043-19.383.895 2.864-62.043 19.383zM1203.676 894.706l.539-2.951 122.864 22.432-.539 2.951zM1371.908 939.545l1.736-2.446 89.379 63.426-1.736 2.446zM193.465 883.435l36.187-93.004 2.796 1.088-36.187 93.004zM110.332 869.469l109.867-89.646 1.897 2.324-109.867 89.646zM183.48 711.553l2.214-2.024 46.629 50.996-2.214 2.024zM99.933 870.07l67.711-161.477 2.767 1.16-67.711 161.477zM245.482 789.416l2.12-2.122 102.997 102.91-2.12 2.122zM250.254 770.228l163.254-36.132.648 2.929-163.254 36.132zM285.341 643.972l1.594-2.542 132.926 83.361-1.594 2.542zM538.721 719.526l1.751-2.436 66.576 47.872-1.751 2.436zM594.347 905.703l19.095-88.766 2.933.631-19.095 88.766zM643.528 817.981l2.624-1.454 39.317 70.93-2.624 1.454zM319.8 363.4c-16.2 0-29.4-13.2-29.4-29.4s13.2-29.4 29.4-29.4 29.4 13.2 29.4 29.4-13.2 29.4-29.4 29.4zm0-55.8c-14.6 0-26.4 11.8-26.4 26.4s11.8 26.4 26.4 26.4 26.4-11.8 26.4-26.4-11.8-26.4-26.4-26.4zM577.2 279.2c-16.2 0-29.4-13.2-29.4-29.4s13.2-29.4 29.4-29.4 29.4 13.2 29.4 29.4-13.2 29.4-29.4 29.4zm0-55.8c-14.6 0-26.4 11.8-26.4 26.4s11.8 26.4 26.4 26.4 26.4-11.8 26.4-26.4-11.8-26.4-26.4-26.4zM134 345.3c-6.3 0-11.4-5.1-11.4-11.4s5.1-11.4 11.4-11.4 11.4 5.1 11.4 11.4-5.1 11.4-11.4 11.4zm0-19.9c-4.7 0-8.4 3.8-8.4 8.4s3.8 8.4 8.4 8.4 8.4-3.8 8.4-8.4-3.7-8.4-8.4-8.4zM220.5 357.7c-9.1 0-16.6-7.4-16.6-16.6 0-9.1 7.4-16.6 16.6-16.6s16.6 7.4 16.6 16.6c0 9.2-7.4 16.6-16.6 16.6zm0-30.1c-7.5 0-13.6 6.1-13.6 13.6s6.1 13.6 13.6 13.6 13.6-6.1 13.6-13.6-6.1-13.6-13.6-13.6zM215.2 431.3c-12.1 0-21.9-9.8-21.9-21.9s9.8-21.9 21.9-21.9 21.9 9.8 21.9 21.9-9.8 21.9-21.9 21.9zm0-40.8c-10.4 0-18.9 8.5-18.9 18.9s8.5 18.9 18.9 18.9 18.9-8.5 18.9-18.9-8.5-18.9-18.9-18.9zM138.371 343.194l2.091-2.151 58.3 56.666-2.091 2.151zM213.707 388.895l2.545-33.602 2.991.227-2.545 33.602zM230.109 395.245l65.536-47.097 1.751 2.436-65.536 47.097zM152.355 221.113l2.628-1.448 59.878 108.699-2.628 1.448zM268.34 238.08l2.624-1.454 39.317 70.93-2.624 1.454zM662.349 789.907l.133-2.997 155.145 6.894-.133 2.997zM649.698 762.097l154.902-129.354 1.923 2.303-154.902 129.354zM822.46 639.127l2.938-.608 24.199 117.026-2.938.608zM832.207 627.016l.199-2.993 89.004 5.913-.199 2.993zM970.529 630.028l57.91-14.908.748 2.905-57.91 14.908zM959.278 652.715l2.186-2.055 29.108 30.966-2.186 2.055zM1018.963 736.025l2.866-.888 48.87 157.704-2.866.888zM917.54 915.056l80.943-183.864 2.746 1.209-80.943 183.864zM890.73 770.395l94.024-54.951 1.514 2.59-94.024 54.951zM1047.363 701.46l185.644-4.353.07 2.999-185.644 4.353zM1255.642 690.754l142.654-163.25 2.259 1.974-142.654 163.25zM1388.946 637.272l18.413-105.712 2.956.515-18.413 105.712zM1419.561 527.464l1.519-2.587 62.078 36.468-1.519 2.587zM1447.897 839.781l41.615-255.436 2.961.482-41.615 255.436zM1456.122 841.101l26.1-53.359 2.695 1.318-26.1 53.359zM1370.868 903.083l58.267-33.875 1.508 2.594-58.267 33.875zM1447.866 879.277l2.953-.527 21.043 117.833-2.953.527zM1055.033 626.968l1.024-2.82 182.247 66.178-1.024 2.82zM891.055 548.615l2.512-1.64 41.01 62.798-2.512 1.64zM1049.042 601.886l54.287-49.851 2.029 2.21-54.287 49.851zM140.646 569.851l1.121-2.782 92.843 37.417-1.121 2.782zM254.851 587.422l1.677-30.255 2.996.166-1.677 30.255zM282.094 591.881l25.818-20.711 1.877 2.34-25.818 20.711zM142.071 553.22l101.273-9.27.273 2.987-101.273 9.27zM272.358 546.799l1.276-2.715 34.933 16.424-1.276 2.715zM259.716 526.95l43.343-77.041 2.615 1.471-43.343 77.041zM421.985 725.481l46.26-94.712 2.696 1.317-46.26 94.712zM512.973 590.116l63.983-22.421.992 2.831-63.983 22.421zM498.399 573.131l23.091-39.9 2.597 1.503-23.091 39.9zM532.294 496.52l13.943-79.284 2.955.52-13.943 79.284zM721.438 520.835l5.101-38.363 2.974.395-5.101 38.363zM743.642 579.39l1.477-2.611 63.8 36.086-1.477 2.611zM755.605 549.999l123.006-11.014.268 2.988-123.006 11.014zM735.196 454.155l40.183-33.789 1.931 2.296-40.183 33.789zM894.601 527.045l69.192-66.693 2.082 2.16-69.192 66.693zM932.724 398.789l1.914-2.31 32.879 27.247-1.914 2.31zM1001.389 427.398l26.513-11.249 1.172 2.762-26.513 11.249zM1044.806 403.569l33.993-21.828 1.621 2.524-33.993 21.828zM1033.608 338.523l2.999-.055 1.121 60.888-2.999.055zM933.908 386.793l87.31-57.232 1.645 2.509-87.31 57.232zM936.666 289.885l.86-2.874 86.507 25.889-.86 2.874zM687.7 233.9c-9 0-16.4-7.4-16.4-16.4s7.4-16.4 16.4-16.4 16.4 7.4 16.4 16.4-7.3 16.4-16.4 16.4zm0-29.8c-7.4 0-13.4 6-13.4 13.4s6 13.4 13.4 13.4 13.4-6 13.4-13.4-6-13.4-13.4-13.4zM631.1 138.1c-9 0-16.4-7.4-16.4-16.4s7.4-16.4 16.4-16.4 16.4 7.4 16.4 16.4-7.4 16.4-16.4 16.4zm0-29.8c-7.4 0-13.4 6-13.4 13.4s6 13.4 13.4 13.4 13.4-6 13.4-13.4-6-13.4-13.4-13.4zM686.6 316.2c-6.8 0-12.3-5.5-12.3-12.3 0-6.8 5.5-12.3 12.3-12.3s12.3 5.5 12.3 12.3c-.1 6.8-5.5 12.3-12.3 12.3zm0-21.5c-5.1 0-9.3 4.2-9.3 9.3 0 5.1 4.2 9.3 9.3 9.3s9.3-4.2 9.3-9.3c-.1-5.2-4.2-9.3-9.3-9.3zM637.4 24.6c-6.8 0-12.3-5.5-12.3-12.3s5.5-12.3 12.3-12.3c6.8 0 12.3 5.5 12.3 12.3s-5.5 12.3-12.3 12.3zm0-21.5c-5.1 0-9.3 4.2-9.3 9.3s4.2 9.3 9.3 9.3c5.1 0 9.3-4.2 9.3-9.3s-4.2-9.3-9.3-9.3zM638.5 280.1c-4.9 0-8.9-4-8.9-8.9s4-8.9 8.9-8.9 8.9 4 8.9 8.9-4 8.9-8.9 8.9zm0-14.8c-3.3 0-5.9 2.6-5.9 5.9 0 3.3 2.6 5.9 5.9 5.9s5.9-2.6 5.9-5.9c0-3.2-2.7-5.9-5.9-5.9zM710 42.1c-4.9 0-8.9-4-8.9-8.9s4-8.9 8.9-8.9 8.9 4 8.9 8.9-4 8.9-8.9 8.9zm0-14.8c-3.3 0-5.9 2.6-5.9 5.9s2.6 5.9 5.9 5.9 5.9-2.6 5.9-5.9-2.6-5.9-5.9-5.9zM792.6 188.6c-4.9 0-8.9-4-8.9-8.9s4-8.9 8.9-8.9 8.9 4 8.9 8.9-4 8.9-8.9 8.9zm0-14.8c-3.2 0-5.9 2.6-5.9 5.9s2.6 5.9 5.9 5.9c3.3 0 5.9-2.6 5.9-5.9s-2.6-5.9-5.9-5.9zM694 158.5c-4.9 0-8.9-4-8.9-8.9s4-8.9 8.9-8.9 8.9 4 8.9 8.9-4 8.9-8.9 8.9zm0-14.7c-3.3 0-5.9 2.6-5.9 5.9s2.6 5.9 5.9 5.9 5.9-2.6 5.9-5.9-2.7-5.9-5.9-5.9zM794.2 294.9c-4.9 0-8.9-4-8.9-8.9s4-8.9 8.9-8.9 8.9 4 8.9 8.9-4 8.9-8.9 8.9zm0-14.8c-3.3 0-5.9 2.6-5.9 5.9s2.6 5.9 5.9 5.9c3.2 0 5.9-2.6 5.9-5.9s-2.7-5.9-5.9-5.9zM795.948 294.272l2.482-1.685 26.175 38.552-2.482 1.685zM642.419 278.16l1.621-2.524 33.993 21.832-1.621 2.524zM685.106 293.211l1.13-60.888 2.999.056-1.13 60.888zM700.009 225.803l1.645-2.509 87.31 57.243-1.645 2.509zM698.882 206.7l86.507-25.898.86 2.874-86.507 25.898zM999.645 463.105l.314-2.984 226.746 23.849-.314 2.984zM1245.763 688.044l16.429-145.378 2.981.337-16.429 145.378zM296.13 617.732l154.172-15.029.291 2.986-154.172 15.029zM1228.012 433.639l2.63-1.442 17.886 32.617-2.63 1.442zM1176.272 409.561l.814-2.888 36.864 10.387-.814 2.888zM1233.729 421.71l64.436-23.544 1.03 2.818-64.436 23.544zM1268.658 320.814l2.348-1.868 34.684 43.585-2.348 1.868zM1327.163 358.89l7.319-25.886 2.887.816-7.319 25.886zM1227.304 285.2l1.512-2.591 26.947 15.725-1.512 2.591zM1230.191 279.937l.431-2.969 91.538 13.292-.431 2.969zM1351.625 286.213l23.243-24.951 2.195 2.045-23.243 24.951zM1354.425 184.252l2.741-1.219 23.612 53.086-2.741 1.219zM1395.071 239.253l39.518-25.256 1.615 2.528-39.518 25.256zM1221.492 285.907l3-.01.43 126.5-3 .01zM1228.923 414.657l25.11-96.586 2.903.755-25.11 96.586zM405.467 315.308l2.907-.74 64.953 255.358-2.907.74zM426.191 298.689l.799-2.892 56.003 15.478-.799 2.892zM341.414 315.934l29.123-15.939 1.44 2.632-29.123 15.939zM334.056 357.948l2.612-1.475 124.744 220.922-2.612 1.475zM628.531 755.206l74.487-175.558 2.762 1.172-74.487 175.558zM585.715 276.681l2.72-1.267 117.104 251.372-2.72 1.267zM601.724 235.691l70.708-16.895.697 2.918-70.708 16.895zM564.391 72.848l2.997-.139 6.996 150.834-2.997.139zM579.423 69.201l2.043-2.197 43.578 40.514-2.043 2.197zM585.211 31.807l41.263-17.7 1.183 2.757-41.263 17.7zM647.691 13.808l1.071-2.802 54.458 20.813-1.071 2.802zM643.868 129.708l1.12-2.783 43.324 17.433-1.12 2.783z"/><path class="st3" d="M704.2 37.8M637.4 108.2"/><path class="st2" d="M696.145 142.174l36.55-48.959 2.404 1.795-36.55 48.959zM629.931 107.124l5.701-84.405 2.993.202-5.701 84.405z"/></g></svg>