<svg xmlns="http://www.w3.org/2000/svg" width="1565.7" height="1428.2" viewBox="0 0 1565.7 1428.2"><style type="text/css">.st0{fill:#E45272;}</style><g id="Layer_1_1_"><path class="st0" d="M184.4 1012.8c-18.8 0-34-15.3-34-34s15.3-34 34-34 34 15.3 34 34-15.3 34-34 34zm0-65.1c-17.1 0-31 13.9-31 31s13.9 31 31 31 31-13.9 31-31-13.9-31-31-31zm445.3-125.3c-18.8 0-34-15.3-34-34s15.3-34 34-34c18.8 0 34 15.3 34 34s-15.2 34-34 34zm0-65c-17.1 0-31 13.9-31 31s13.9 31 31 31 31-13.9 31-31-13.9-31-31-31zm-130.2 409.4c-18.8 0-34-15.3-34-34s15.3-34 34-34 34 15.3 34 34-15.3 34-34 34zm0-65.1c-17.1 0-31 13.9-31 31s13.9 31 31 31 31-13.9 31-31-13.9-31-31-31zm-17.1-466c-18.8 0-34-15.3-34-34s15.3-34 34-34c18.8 0 34 15.3 34 34s-15.3 34-34 34zm0-65.1c-17.1 0-31 13.9-31 31s13.9 31 31 31 31-13.9 31-31-13.9-31-31-31zm240.4 17.1c-18.8 0-34-15.3-34-34 0-18.8 15.3-34 34-34s34 15.3 34 34-15.3 34-34 34zm0-65.1c-17.1 0-31 13.9-31 31s13.9 31 31 31 31-13.9 31-31-13.9-31-31-31zm291.9 214.5c-18.8 0-34-15.3-34-34 0-18.8 15.3-34 34-34 18.8 0 34 15.3 34 34 .1 18.7-15.2 34-34 34zm0-65.1c-17.1 0-31 13.9-31 31s13.9 31 31 31 31-13.9 31-31-13.9-31-31-31zm-319.8 271.3c-16.2 0-29.4-13.2-29.4-29.4s13.2-29.4 29.4-29.4 29.4 13.2 29.4 29.4-13.2 29.4-29.4 29.4zm0-55.8c-14.6 0-26.4 11.8-26.4 26.4s11.8 26.4 26.4 26.4 26.4-11.8 26.4-26.4-11.9-26.4-26.4-26.4zm115.3 215.9c-16.2 0-29.4-13.2-29.4-29.4s13.2-29.4 29.4-29.4 29.4 13.2 29.4 29.4-13.2 29.4-29.4 29.4zm0-55.9c-14.6 0-26.4 11.8-26.4 26.4s11.8 26.4 26.4 26.4 26.4-11.8 26.4-26.4-11.8-26.4-26.4-26.4zm258.4-2.2c-14.7 0-26.6-11.9-26.6-26.6 0-14.7 11.9-26.6 26.6-26.6s26.6 11.9 26.6 26.6c-.1 14.7-12 26.6-26.6 26.6zm0-50.1c-13 0-23.6 10.6-23.6 23.6s10.6 23.6 23.6 23.6 23.6-10.6 23.6-23.6c-.1-13-10.6-23.6-23.6-23.6zm-53.9 105.2c-12 0-21.8-9.8-21.8-21.8s9.8-21.8 21.8-21.8 21.8 9.8 21.8 21.8c0 12.1-9.8 21.8-21.8 21.8zm0-40.5c-10.3 0-18.8 8.4-18.8 18.8s8.4 18.8 18.8 18.8 18.8-8.4 18.8-18.8-8.4-18.8-18.8-18.8zm-481.1-521.1c-12 0-21.8-9.8-21.8-21.8s9.8-21.8 21.8-21.8 21.8 9.8 21.8 21.8c-.1 12-9.8 21.8-21.8 21.8zm0-40.5c-10.3 0-18.8 8.4-18.8 18.8s8.4 18.8 18.8 18.8 18.8-8.4 18.8-18.8-8.5-18.8-18.8-18.8zm625.3 736.5c-16.1 0-29.1-13.1-29.1-29.1 0-16.1 13.1-29.1 29.1-29.1 16.1 0 29.1 13.1 29.1 29.1s-13.1 29.1-29.1 29.1zm0-55.3c-14.4 0-26.1 11.7-26.1 26.1s11.7 26.1 26.1 26.1 26.1-11.7 26.1-26.1c0-14.3-11.7-26.1-26.1-26.1zm252.1-1.1c-11.6 0-21-9.4-21-21s9.4-21 21-21 21 9.4 21 21-9.5 21-21 21zm0-39c-9.9 0-18 8.1-18 18s8.1 18 18 18 18-8.1 18-18-8.1-18-18-18zm-58.5-190c-15.1 0-27.3-12.3-27.3-27.3s12.3-27.3 27.3-27.3c15.1 0 27.3 12.3 27.3 27.3s-12.2 27.3-27.3 27.3zm0-51.7c-13.4 0-24.3 10.9-24.3 24.3s10.9 24.3 24.3 24.3 24.3-10.9 24.3-24.3-10.8-24.3-24.3-24.3zm182.5 223.4c-9.2 0-16.6-7.5-16.6-16.6s7.5-16.6 16.6-16.6 16.6 7.5 16.6 16.6-7.4 16.6-16.6 16.6zm0-30.3c-7.5 0-13.6 6.1-13.6 13.6s6.1 13.6 13.6 13.6 13.6-6.1 13.6-13.6-6.1-13.6-13.6-13.6zm-59.1-56.4c-11.1 0-20.1-9-20.1-20.1s9-20.1 20.1-20.1 20.1 9 20.1 20.1-9 20.1-20.1 20.1zm0-37.3c-9.5 0-17.1 7.7-17.1 17.1 0 9.4 7.7 17.1 17.1 17.1s17.1-7.7 17.1-17.1c0-9.4-7.7-17.1-17.1-17.1zm-292.7-83.6c-12.2 0-22.2-10-22.2-22.2s10-22.2 22.2-22.2 22.2 10 22.2 22.2-10 22.2-22.2 22.2zm0-41.4c-10.6 0-19.2 8.6-19.2 19.2s8.6 19.2 19.2 19.2 19.2-8.6 19.2-19.2-8.7-19.2-19.2-19.2zm258.2 392c-5.2 0-9.4-4.2-9.4-9.4s4.2-9.4 9.4-9.4 9.4 4.2 9.4 9.4-4.2 9.4-9.4 9.4zm0-15.8c-3.5 0-6.4 2.9-6.4 6.4s2.9 6.4 6.4 6.4 6.4-2.9 6.4-6.4-2.9-6.4-6.4-6.4zm-215.8 173.8c-11.6 0-21-9.4-21-21s9.4-21 21-21 21 9.4 21 21-9.4 21-21 21zm0-39c-9.9 0-18 8.1-18 18s8.1 18 18 18 18-8.1 18-18-8.1-18-18-18zm37.9-50.7c-5.4 0-9.8-4.4-9.8-9.8s4.4-9.8 9.8-9.8 9.8 4.4 9.8 9.8-4.4 9.8-9.8 9.8zm0-16.7c-3.8 0-6.8 3.1-6.8 6.8s3.1 6.8 6.8 6.8 6.8-3.1 6.8-6.8-3.1-6.8-6.8-6.8zm-78.5-240.8c-9 0-16.3-7.3-16.3-16.3s7.3-16.3 16.3-16.3 16.3 7.3 16.3 16.3-7.3 16.3-16.3 16.3zm0-29.6c-7.3 0-13.3 6-13.3 13.3s6 13.3 13.3 13.3 13.3-6 13.3-13.3-6-13.3-13.3-13.3zm-239.1 153.5c-23.3 0-42.2-18.9-42.2-42.2s18.9-42.2 42.2-42.2 42.2 18.9 42.2 42.2-18.9 42.2-42.2 42.2zm0-81.4c-21.6 0-39.2 17.6-39.2 39.2s17.6 39.2 39.2 39.2 39.2-17.6 39.2-39.2-17.6-39.2-39.2-39.2zm-87.8-279.9c-23.3 0-42.2-18.9-42.2-42.2s18.9-42.2 42.2-42.2 42.2 18.9 42.2 42.2-18.9 42.2-42.2 42.2zm0-81.4c-21.6 0-39.2 17.6-39.2 39.2s17.6 39.2 39.2 39.2 39.2-17.6 39.2-39.2-17.6-39.2-39.2-39.2zm405.4-211.6c-23.3 0-42.2-18.9-42.2-42.2s18.9-42.2 42.2-42.2 42.2 18.9 42.2 42.2c0 23.2-18.9 42.2-42.2 42.2zm0-81.5c-21.6 0-39.2 17.6-39.2 39.2s17.6 39.2 39.2 39.2 39.2-17.6 39.2-39.2-17.6-39.2-39.2-39.2zm-344.8 561.2c-30.3 0-55-24.7-55-55s24.7-55 55-55 55 24.7 55 55-24.6 55-55 55zm0-107c-28.7 0-52 23.3-52 52s23.3 52 52 52 52-23.3 52-52-23.3-52-52-52zm-724 3.3c-10.5 0-19-8.5-19-19s8.5-19 19-19 19 8.5 19 19-8.5 19-19 19zm0-35c-8.8 0-16 7.2-16 16s7.2 16 16 16 16-7.2 16-16-7.1-16-16-16zm-171.4 146.3c-10.5 0-19-8.5-19-19s8.5-19 19-19 19 8.5 19 19-8.5 19-19 19zm0-35.1c-8.8 0-16 7.2-16 16s7.2 16 16 16 16-7.2 16-16-7.1-16-16-16zm340.8 93.6c-9 0-16.4-7.4-16.4-16.4s7.4-16.4 16.4-16.4 16.4 7.4 16.4 16.4-7.3 16.4-16.4 16.4zm0-29.8c-7.4 0-13.4 6-13.4 13.4s6 13.4 13.4 13.4 13.4-6 13.4-13.4-6-13.4-13.4-13.4zm129.7 11.8c-9 0-16.4-7.4-16.4-16.4s7.4-16.4 16.4-16.4 16.4 7.4 16.4 16.4-7.4 16.4-16.4 16.4zm0-29.8c-7.4 0-13.4 6-13.4 13.4s6 13.4 13.4 13.4 13.4-6 13.4-13.4-6-13.4-13.4-13.4zm234.1-558.2c-9 0-16.4-7.4-16.4-16.4s7.4-16.4 16.4-16.4 16.4 7.4 16.4 16.4-7.4 16.4-16.4 16.4zm0-29.8c-7.4 0-13.4 6-13.4 13.4s6 13.4 13.4 13.4 13.4-6 13.4-13.4-6-13.4-13.4-13.4zm307.1-114.5c-9 0-16.4-7.4-16.4-16.4s7.4-16.4 16.4-16.4 16.4 7.4 16.4 16.4-7.4 16.4-16.4 16.4zm0-29.8c-7.4 0-13.4 6-13.4 13.4s6 13.4 13.4 13.4 13.4-6 13.4-13.4-6-13.4-13.4-13.4zm-410.3 945c-9 0-16.4-7.4-16.4-16.4s7.4-16.4 16.4-16.4 16.4 7.4 16.4 16.4-7.4 16.4-16.4 16.4zm0-29.8c-7.4 0-13.4 6-13.4 13.4s6 13.4 13.4 13.4 13.4-6 13.4-13.4-6.1-13.4-13.4-13.4zm418.8-592.5c-9 0-16.4-7.4-16.4-16.4s7.4-16.4 16.4-16.4 16.4 7.4 16.4 16.4-7.4 16.4-16.4 16.4zm0-29.8c-7.4 0-13.4 6-13.4 13.4s6 13.4 13.4 13.4 13.4-6 13.4-13.4-6-13.4-13.4-13.4zm-146 661.5c-9 0-16.4-7.4-16.4-16.4s7.4-16.4 16.4-16.4 16.4 7.4 16.4 16.4-7.4 16.4-16.4 16.4zm0-29.8c-7.4 0-13.4 6-13.4 13.4s6 13.4 13.4 13.4 13.4-6 13.4-13.4-6-13.4-13.4-13.4zm126 26.4c-9 0-16.4-7.4-16.4-16.4s7.4-16.4 16.4-16.4 16.4 7.4 16.4 16.4-7.4 16.4-16.4 16.4zm0-29.8c-7.4 0-13.4 6-13.4 13.4s6 13.4 13.4 13.4 13.4-6 13.4-13.4-6-13.4-13.4-13.4zm-485 184.3c-7.8 0-14.2-6.4-14.2-14.2s6.4-14.2 14.2-14.2 14.2 6.4 14.2 14.2-6.3 14.2-14.2 14.2zm0-25.4c-6.2 0-11.2 5-11.2 11.2s5 11.2 11.2 11.2 11.2-5 11.2-11.2c.1-6.2-5-11.2-11.2-11.2zm456.5 37.1c-8.7 0-15.8-7.1-15.8-15.8s7.1-15.8 15.8-15.8 15.8 7.1 15.8 15.8-7.1 15.8-15.8 15.8zm0-28.5c-7 0-12.8 5.7-12.8 12.8 0 7 5.7 12.8 12.8 12.8 7 0 12.8-5.7 12.8-12.8-.1-7.1-5.8-12.8-12.8-12.8zm-207.7-2.4c-6.4 0-11.5-5.2-11.5-11.5s5.2-11.5 11.5-11.5c6.4 0 11.5 5.2 11.5 11.5s-5.2 11.5-11.5 11.5zm0-20.1c-4.7 0-8.5 3.8-8.5 8.5s3.8 8.5 8.5 8.5 8.5-3.8 8.5-8.5-3.8-8.5-8.5-8.5zm72.9 51.8c-5.3 0-9.6-4.3-9.6-9.6s4.3-9.6 9.6-9.6 9.6 4.3 9.6 9.6-4.3 9.6-9.6 9.6zm0-16.2c-3.6 0-6.6 2.9-6.6 6.6s2.9 6.6 6.6 6.6 6.6-2.9 6.6-6.6-3-6.6-6.6-6.6zm-71.8-167c-5.3 0-9.6-4.3-9.6-9.6s4.3-9.6 9.6-9.6 9.6 4.3 9.6 9.6-4.3 9.6-9.6 9.6zm0-16.2c-3.7 0-6.6 3-6.6 6.6 0 3.7 3 6.6 6.6 6.6 3.7 0 6.6-3 6.6-6.6 0-3.7-3-6.6-6.6-6.6zm268.7-53.3c-6.8 0-12.3-5.5-12.3-12.3s5.5-12.3 12.3-12.3 12.3 5.5 12.3 12.3-5.6 12.3-12.3 12.3zm0-21.5c-5.1 0-9.3 4.2-9.3 9.3s4.2 9.3 9.3 9.3 9.3-4.2 9.3-9.3-4.2-9.3-9.3-9.3zm-469-572.6c-6.8 0-12.3-5.5-12.3-12.3s5.5-12.3 12.3-12.3 12.3 5.5 12.3 12.3-5.5 12.3-12.3 12.3zm0-21.6c-5.1 0-9.3 4.2-9.3 9.3s4.2 9.3 9.3 9.3 9.3-4.2 9.3-9.3-4.2-9.3-9.3-9.3zm448-137.4c-6.8 0-12.3-5.5-12.3-12.3s5.5-12.3 12.3-12.3 12.3 5.5 12.3 12.3-5.5 12.3-12.3 12.3zm0-21.5c-5.1 0-9.3 4.2-9.3 9.3s4.2 9.3 9.3 9.3 9.3-4.2 9.3-9.3-4.2-9.3-9.3-9.3zm187.1 34.5c-6.8 0-12.3-5.5-12.3-12.3s5.5-12.3 12.3-12.3 12.3 5.5 12.3 12.3-5.5 12.3-12.3 12.3zm0-21.5c-5.1 0-9.3 4.2-9.3 9.3s4.2 9.3 9.3 9.3 9.3-4.2 9.3-9.3-4.2-9.3-9.3-9.3zm220.4-193.1c-6.8 0-12.3-5.5-12.3-12.3s5.5-12.3 12.3-12.3 12.3 5.5 12.3 12.3-5.6 12.3-12.3 12.3zm0-21.5c-5.1 0-9.3 4.2-9.3 9.3s4.2 9.3 9.3 9.3 9.3-4.2 9.3-9.3-4.2-9.3-9.3-9.3zm-176.4 928.4c-7.8 0-14.2-6.4-14.2-14.2s6.4-14.2 14.2-14.2c7.8 0 14.2 6.4 14.2 14.2s-6.4 14.2-14.2 14.2zm0-25.3c-6.2 0-11.2 5-11.2 11.2s5 11.2 11.2 11.2 11.2-5 11.2-11.2-5-11.2-11.2-11.2zm-719.7-683.4c-7.8 0-14.2-6.4-14.2-14.2s6.4-14.2 14.2-14.2 14.2 6.4 14.2 14.2-6.4 14.2-14.2 14.2zm0-25.3c-6.2 0-11.2 5-11.2 11.2s5 11.2 11.2 11.2 11.2-5 11.2-11.2-5-11.2-11.2-11.2zm834.9 299.5c-16.1 0-29.1-13.1-29.1-29.1s13.1-29.1 29.1-29.1c16.1 0 29.1 13.1 29.1 29.1s-13 29.1-29.1 29.1zm0-55.2c-14.4 0-26.1 11.7-26.1 26.1s11.7 26.1 26.1 26.1 26.1-11.7 26.1-26.1-11.7-26.1-26.1-26.1zm-60.7-224.1c-16.1 0-29.1-13.1-29.1-29.1s13.1-29.1 29.1-29.1 29.1 13.1 29.1 29.1-13 29.1-29.1 29.1zm0-55.2c-14.4 0-26.1 11.7-26.1 26.1s11.7 26.1 26.1 26.1 26.1-11.7 26.1-26.1-11.7-26.1-26.1-26.1zm127.5 521.8c-11.6 0-21-9.4-21-21s9.4-21 21-21 21 9.4 21 21-9.4 21-21 21zm0-38.9c-9.9 0-18 8.1-18 18s8.1 18 18 18 18-8.1 18-18-8.1-18-18-18zm37.8-50.8c-5.4 0-9.8-4.4-9.8-9.8s4.4-9.8 9.8-9.8 9.8 4.4 9.8 9.8-4.3 9.8-9.8 9.8zm0-16.7c-3.8 0-6.8 3.1-6.8 6.8s3.1 6.8 6.8 6.8 6.8-3.1 6.8-6.8-3-6.8-6.8-6.8zm-78.4-240.8c-9 0-16.3-7.3-16.3-16.3s7.3-16.3 16.3-16.3 16.2 7.3 16.2 16.3-7.3 16.3-16.2 16.3zm0-29.6c-7.3 0-13.3 6-13.3 13.3 0 7.3 6 13.3 13.3 13.3s13.3-6 13.3-13.3-6-13.3-13.3-13.3zm-23.9-237c-9 0-16.3-7.3-16.3-16.3s7.3-16.3 16.3-16.3 16.3 7.3 16.3 16.3-7.3 16.3-16.3 16.3zm0-29.5c-7.3 0-13.3 6-13.3 13.3s6 13.3 13.3 13.3 13.3-6 13.3-13.3-6-13.3-13.3-13.3zm-137.6 482.4c-9 0-16.4-7.4-16.4-16.4s7.4-16.4 16.4-16.4 16.4 7.4 16.4 16.4-7.4 16.4-16.4 16.4zm0-29.8c-7.4 0-13.4 6-13.4 13.4s6 13.4 13.4 13.4 13.4-6 13.4-13.4-6-13.4-13.4-13.4zm243.7-103.7c-7.8 0-14.2-6.4-14.2-14.2s6.4-14.2 14.2-14.2c7.8 0 14.2 6.4 14.2 14.2s-6.4 14.2-14.2 14.2zm0-25.3c-6.2 0-11.2 5-11.2 11.2s5 11.2 11.2 11.2 11.2-5 11.2-11.2-5-11.2-11.2-11.2zm-227.3-237.9c-7.8 0-14.2-6.4-14.2-14.2s6.4-14.2 14.2-14.2c7.8 0 14.2 6.4 14.2 14.2s-6.4 14.2-14.2 14.2zm0-25.4c-6.2 0-11.2 5-11.2 11.2s5 11.2 11.2 11.2 11.2-5 11.2-11.2-5-11.2-11.2-11.2zm-124.7 664.9c-8 0-14.4-6.5-14.4-14.4 0-8 6.5-14.4 14.4-14.4 8 0 14.4 6.5 14.4 14.4s-6.4 14.4-14.4 14.4zm0-25.9c-6.3 0-11.4 5.1-11.4 11.4 0 6.3 5.1 11.4 11.4 11.4s11.4-5.1 11.4-11.4c0-6.2-5.1-11.4-11.4-11.4zm116.4 28.9c-7.1 0-12.8-5.7-12.8-12.8s5.7-12.8 12.8-12.8c7.1 0 12.8 5.7 12.8 12.8 0 7-5.7 12.8-12.8 12.8zm0-22.6c-5.4 0-9.8 4.4-9.8 9.8s4.4 9.8 9.8 9.8 9.8-4.4 9.8-9.8-4.4-9.8-9.8-9.8zm-186.2-34.1c-4.7 0-8.5-3.8-8.5-8.5s3.8-8.5 8.5-8.5 8.5 3.8 8.5 8.5-3.8 8.5-8.5 8.5zm0-13.9c-3 0-5.5 2.5-5.5 5.5s2.5 5.5 5.5 5.5 5.5-2.5 5.5-5.5-2.5-5.5-5.5-5.5zm485 311.4c-6.4 0-11.7-5.2-11.7-11.7s5.2-11.7 11.7-11.7 11.7 5.2 11.7 11.7-5.3 11.7-11.7 11.7zm0-20.4c-4.8 0-8.7 3.9-8.7 8.7s3.9 8.7 8.7 8.7 8.7-3.9 8.7-8.7-3.9-8.7-8.7-8.7zm-706.8 7.8c-6.8 0-12.3-5.5-12.3-12.3s5.5-12.3 12.3-12.3 12.3 5.5 12.3 12.3-5.5 12.3-12.3 12.3zm0-21.7c-5.1 0-9.3 4.2-9.3 9.3s4.2 9.3 9.3 9.3 9.3-4.2 9.3-9.3-4.1-9.3-9.3-9.3zm-67.3 161.7c-12.1 0-21.9-9.8-21.9-21.9s9.8-21.9 21.9-21.9 21.9 9.8 21.9 21.9c0 12-9.9 21.9-21.9 21.9zm0-40.8c-10.4 0-18.9 8.5-18.9 18.9s8.5 18.9 18.9 18.9 18.9-8.5 18.9-18.9-8.5-18.9-18.9-18.9zm133.7 115.3c-14.5 0-26.3-11.8-26.3-26.3s11.8-26.3 26.3-26.3 26.3 11.8 26.3 26.3-11.8 26.3-26.3 26.3zm0-49.6c-12.9 0-23.3 10.5-23.3 23.3s10.5 23.3 23.3 23.3 23.3-10.5 23.3-23.3-10.5-23.3-23.3-23.3zm32.3-700.8c-14.5 0-26.3-11.8-26.3-26.3s11.8-26.3 26.3-26.3 26.3 11.8 26.3 26.3-11.8 26.3-26.3 26.3zm0-49.6c-12.9 0-23.3 10.5-23.3 23.3s10.5 23.3 23.3 23.3 23.3-10.5 23.3-23.3-10.4-23.3-23.3-23.3zm-380.2-533.8c-14.5 0-26.3-11.8-26.3-26.3s11.8-26.3 26.3-26.3 26.3 11.8 26.3 26.3-11.8 26.3-26.3 26.3zm0-49.7c-12.9 0-23.3 10.5-23.3 23.3 0 12.9 10.5 23.3 23.3 23.3 12.9 0 23.3-10.5 23.3-23.3s-10.5-23.3-23.3-23.3zm416.5 445.7c-14.5 0-26.3-11.8-26.3-26.3s11.8-26.3 26.3-26.3 26.3 11.8 26.3 26.3-11.8 26.3-26.3 26.3zm0-49.6c-12.9 0-23.3 10.5-23.3 23.3 0 12.9 10.5 23.3 23.3 23.3 12.9 0 23.3-10.5 23.3-23.3 0-12.9-10.5-23.3-23.3-23.3zm358-85.7c-14.5 0-26.3-11.8-26.3-26.3s11.8-26.3 26.3-26.3 26.3 11.8 26.3 26.3-11.8 26.3-26.3 26.3zm0-49.6c-12.9 0-23.3 10.5-23.3 23.3s10.5 23.3 23.3 23.3c12.9 0 23.3-10.5 23.3-23.3s-10.4-23.3-23.3-23.3zm-690.4 1113.5c-14.7 0-26.7-12-26.7-26.7s12-26.7 26.7-26.7 26.7 12 26.7 26.7c0 14.8-12 26.7-26.7 26.7zm0-50.3c-13 0-23.7 10.6-23.7 23.7s10.6 23.7 23.7 23.7 23.7-10.6 23.7-23.7-10.6-23.7-23.7-23.7zm-140.7-423.4c-6.3 0-11.4-5.1-11.4-11.4s5.1-11.4 11.4-11.4 11.4 5.1 11.4 11.4-5.1 11.4-11.4 11.4zm0-19.9c-4.7 0-8.4 3.8-8.4 8.4s3.8 8.4 8.4 8.4c4.6 0 8.4-3.8 8.4-8.4s-3.8-8.4-8.4-8.4zm40.2 183.8c-4.9 0-8.9-4-8.9-8.9s4-8.9 8.9-8.9 8.9 4 8.9 8.9-4 8.9-8.9 8.9zm0-14.8c-3.3 0-5.9 2.6-5.9 5.9s2.6 5.9 5.9 5.9 5.9-2.6 5.9-5.9-2.7-5.9-5.9-5.9zm277.3-726.9c-4.9 0-8.9-4-8.9-8.9s4-8.9 8.9-8.9 8.9 4 8.9 8.9-4 8.9-8.9 8.9zm0-14.8c-3.2 0-5.9 2.6-5.9 5.9s2.6 5.9 5.9 5.9c3.3 0 5.9-2.6 5.9-5.9s-2.7-5.9-5.9-5.9zm-46.5 94.4c-4.9 0-8.9-4-8.9-8.9s4-8.9 8.9-8.9 8.9 4 8.9 8.9-3.9 8.9-8.9 8.9zm0-14.7c-3.3 0-5.9 2.6-5.9 5.9s2.6 5.9 5.9 5.9 5.9-2.6 5.9-5.9-2.6-5.9-5.9-5.9zm-42.1-315.1c-4.9 0-8.9-4-8.9-8.9s4-8.9 8.9-8.9 8.9 4 8.9 8.9-4 8.9-8.9 8.9zm0-14.8c-3.3 0-5.9 2.6-5.9 5.9s2.6 5.9 5.9 5.9 5.9-2.6 5.9-5.9-2.6-5.9-5.9-5.9zm346.2 303.9c-4.9 0-8.9-4-8.9-8.9s4-8.9 8.9-8.9 8.9 4 8.9 8.9-4 8.9-8.9 8.9zm0-14.8c-3.2 0-5.9 2.6-5.9 5.9s2.6 5.9 5.9 5.9 5.9-2.6 5.9-5.9-2.6-5.9-5.9-5.9zm86 42.2c-4.9 0-8.9-4-8.9-8.9s4-8.9 8.9-8.9 8.9 4 8.9 8.9-4 8.9-8.9 8.9zm0-14.8c-3.2 0-5.9 2.6-5.9 5.9s2.6 5.9 5.9 5.9 5.9-2.6 5.9-5.9-2.7-5.9-5.9-5.9zm182.3-213.1c-4.9 0-8.9-4-8.9-8.9s4-8.9 8.9-8.9 8.9 4 8.9 8.9-3.9 8.9-8.9 8.9zm0-14.8c-3.2 0-5.9 2.6-5.9 5.9s2.6 5.9 5.9 5.9 5.9-2.6 5.9-5.9-2.6-5.9-5.9-5.9zm-129.7 116.4c-4.9 0-8.9-4-8.9-8.9s4-8.9 8.9-8.9 8.9 4 8.9 8.9-4 8.9-8.9 8.9zm0-14.8c-3.3 0-5.9 2.6-5.9 5.9s2.6 5.9 5.9 5.9c3.2 0 5.9-2.6 5.9-5.9s-2.7-5.9-5.9-5.9zm-292.7 22.2c-4.9 0-8.9-4-8.9-8.9s4-8.9 8.9-8.9 8.9 4 8.9 8.9-4 8.9-8.9 8.9zm0-14.8c-3.3 0-5.9 2.6-5.9 5.9s2.6 5.9 5.9 5.9c3.2 0 5.9-2.6 5.9-5.9s-2.7-5.9-5.9-5.9zm-1.6 121.1c-4.9 0-8.9-4-8.9-8.9s4-8.9 8.9-8.9 8.9 4 8.9 8.9-4 8.9-8.9 8.9zm0-14.8c-3.3 0-5.9 2.6-5.9 5.9s2.6 5.9 5.9 5.9c3.2 0 5.9-2.6 5.9-5.9s-2.7-5.9-5.9-5.9zm-338.2 790.2c-4.9 0-8.9-4-8.9-8.9s4-8.9 8.9-8.9 8.9 4 8.9 8.9-4 8.9-8.9 8.9zm0-14.8c-3.3 0-5.9 2.6-5.9 5.9 0 3.2 2.6 5.9 5.9 5.9s5.9-2.6 5.9-5.9c0-3.2-2.7-5.9-5.9-5.9zm518.9-605c-4.9 0-8.9-4-8.9-8.9s4-8.9 8.9-8.9 8.9 4 8.9 8.9-4 8.9-8.9 8.9zm0-14.7c-3.3 0-5.9 2.6-5.9 5.9s2.6 5.9 5.9 5.9c3.2 0 5.9-2.6 5.9-5.9s-2.6-5.9-5.9-5.9zm-513.6 395.7c-9.1 0-16.6-7.4-16.6-16.6s7.4-16.6 16.6-16.6 16.6 7.4 16.6 16.6-7.5 16.6-16.6 16.6zm0-30.2c-7.5 0-13.6 6.1-13.6 13.6s6.1 13.6 13.6 13.6 13.6-6.1 13.6-13.6-6.1-13.6-13.6-13.6zm-5.3 103.7c-12.1 0-21.9-9.8-21.9-21.9 0-12.1 9.8-21.9 21.9-21.9s21.9 9.8 21.9 21.9c0 12.1-9.9 21.9-21.9 21.9zm0-40.8c-10.4 0-18.9 8.5-18.9 18.9s8.5 18.9 18.9 18.9 18.9-8.5 18.9-18.9-8.5-18.9-18.9-18.9zm-573.9 248.2c-9 0-16.4-7.4-16.4-16.4s7.4-16.4 16.4-16.4 16.4 7.4 16.4 16.4c0 9.1-7.3 16.4-16.4 16.4zm0-29.8c-7.4 0-13.4 6-13.4 13.4s6 13.4 13.4 13.4 13.4-6 13.4-13.4c0-7.3-6-13.4-13.4-13.4zm156.9 88.8c-5.1 0-9.2-4.1-9.2-9.2s4.1-9.2 9.2-9.2 9.2 4.1 9.2 9.2-4.1 9.2-9.2 9.2zm0-15.5c-3.4 0-6.2 2.8-6.2 6.2s2.8 6.2 6.2 6.2 6.2-2.8 6.2-6.2-2.7-6.2-6.2-6.2zm136.7 21.9c-6.9 0-12.5-5.6-12.5-12.5s5.6-12.5 12.5-12.5 12.5 5.6 12.5 12.5-5.6 12.5-12.5 12.5zm0-21.9c-5.2 0-9.5 4.2-9.5 9.5s4.2 9.5 9.5 9.5 9.5-4.2 9.5-9.5-4.3-9.5-9.5-9.5zm103.6-34.9c-8.9 0-16.2-7.3-16.2-16.2s7.3-16.2 16.2-16.2c8.9 0 16.2 7.3 16.2 16.2s-7.2 16.2-16.2 16.2zm0-29.4c-7.3 0-13.2 5.9-13.2 13.2s5.9 13.2 13.2 13.2c7.3 0 13.2-5.9 13.2-13.2s-5.9-13.2-13.2-13.2zm403.8-556.1c-8.9 0-16.2-7.3-16.2-16.2s7.3-16.2 16.2-16.2 16.2 7.3 16.2 16.2-7.3 16.2-16.2 16.2zm0-29.4c-7.3 0-13.2 5.9-13.2 13.2s5.9 13.2 13.2 13.2 13.2-5.9 13.2-13.2-6-13.2-13.2-13.2zm-280.7 660.1c-6.8 0-12.3-5.5-12.3-12.3s5.5-12.3 12.3-12.3 12.3 5.5 12.3 12.3-5.5 12.3-12.3 12.3zm0-21.7c-5.2 0-9.3 4.2-9.3 9.3s4.2 9.3 9.3 9.3 9.3-4.2 9.3-9.3-4.2-9.3-9.3-9.3zm352-701.4c-6.8 0-12.3-5.5-12.3-12.3s5.5-12.3 12.3-12.3 12.3 5.5 12.3 12.3-5.4 12.3-12.3 12.3zm0-21.6c-5.2 0-9.3 4.2-9.3 9.3s4.2 9.3 9.3 9.3 9.3-4.2 9.3-9.3-4.1-9.3-9.3-9.3zm-417.1 778.3c-8.9 0-16.2-7.3-16.2-16.2s7.3-16.2 16.2-16.2c8.9 0 16.2 7.3 16.2 16.2s-7.2 16.2-16.2 16.2zm0-29.4c-7.3 0-13.2 5.9-13.2 13.2s5.9 13.2 13.2 13.2c7.3 0 13.2-5.9 13.2-13.2s-5.9-13.2-13.2-13.2zm-208.1-623.4c-18.8 0-34-15.3-34-34s15.3-34 34-34 34 15.3 34 34-15.2 34-34 34zm0-65.1c-17.1 0-31 13.9-31 31s13.9 31 31 31 31-13.9 31-31-13.9-31-31-31zm-135.3-11.4c-9 0-16.4-7.4-16.4-16.4s7.4-16.4 16.4-16.4 16.4 7.4 16.4 16.4-7.4 16.4-16.4 16.4zm0-29.8c-7.4 0-13.4 6-13.4 13.4s6 13.4 13.4 13.4 13.4-6 13.4-13.4-6-13.4-13.4-13.4zm129.6 11.8c-9 0-16.4-7.4-16.4-16.4s7.4-16.4 16.4-16.4c9 0 16.4 7.4 16.4 16.4s-7.3 16.4-16.4 16.4zm0-29.8c-7.4 0-13.4 6-13.4 13.4s6 13.4 13.4 13.4 13.4-6 13.4-13.4-6-13.4-13.4-13.4zm55.5 46.6c-4.9 0-8.9-4-8.9-8.9s4-8.9 8.9-8.9 8.9 4 8.9 8.9-4 8.9-8.9 8.9zm0-14.8c-3.3 0-5.9 2.6-5.9 5.9 0 3.3 2.6 5.9 5.9 5.9s5.9-2.6 5.9-5.9c0-3.3-2.6-5.9-5.9-5.9zm-6-107.8c-4.9 0-8.9-4-8.9-8.9s4-8.9 8.9-8.9 8.9 4 8.9 8.9-4 8.9-8.9 8.9zm0-14.8c-3.3 0-5.9 2.6-5.9 5.9s2.6 5.9 5.9 5.9 5.9-2.6 5.9-5.9-2.6-5.9-5.9-5.9zm-129.6 275.5c-8.9 0-16.2-7.3-16.2-16.2s7.3-16.2 16.2-16.2 16.2 7.3 16.2 16.2-7.3 16.2-16.2 16.2zm0-29.4c-7.3 0-13.2 5.9-13.2 13.2s5.9 13.2 13.2 13.2 13.2-5.9 13.2-13.2-5.9-13.2-13.2-13.2zm58 108.2c-8.9 0-16.2-7.3-16.2-16.2s7.3-16.2 16.2-16.2 16.2 7.3 16.2 16.2-7.3 16.2-16.2 16.2zm0-29.4c-7.3 0-13.2 5.9-13.2 13.2s5.9 13.2 13.2 13.2 13.2-5.9 13.2-13.2-5.9-13.2-13.2-13.2zm-93.9 652.1c-8.2 0-14.9-6.7-14.9-14.9s6.7-14.9 14.9-14.9 14.9 6.7 14.9 14.9-6.7 14.9-14.9 14.9zm0-26.9c-6.6 0-11.9 5.4-11.9 11.9s5.4 11.9 11.9 11.9 11.9-5.4 11.9-11.9-5.4-11.9-11.9-11.9zm75.2-130.2c-9 0-16.3-7.3-16.3-16.3s7.3-16.3 16.3-16.3 16.3 7.3 16.3 16.3-7.3 16.3-16.3 16.3zm0-29.6c-7.3 0-13.3 6-13.3 13.3s6 13.3 13.3 13.3 13.3-6 13.3-13.3-6-13.3-13.3-13.3zm-110.2-338.4c-6 0-10.9-4.9-10.9-10.9s4.9-10.9 10.9-10.9 10.9 4.9 10.9 10.9-4.9 10.9-10.9 10.9zm0-18.9c-4.4 0-7.9 3.6-7.9 7.9s3.6 7.9 7.9 7.9 7.9-3.6 7.9-7.9-3.5-7.9-7.9-7.9zm425.2-147.7c-6 0-10.9-4.9-10.9-10.9s4.9-10.9 10.9-10.9 10.9 4.9 10.9 10.9-4.9 10.9-10.9 10.9zm0-18.9c-4.4 0-7.9 3.6-7.9 7.9s3.6 7.9 7.9 7.9 7.9-3.6 7.9-7.9-3.5-7.9-7.9-7.9zm-108.9 42c-6 0-10.9-4.9-10.9-10.9s4.9-10.9 10.9-10.9 10.9 4.9 10.9 10.9-4.9 10.9-10.9 10.9zm0-18.9c-4.4 0-7.9 3.6-7.9 7.9 0 4.4 3.6 7.9 7.9 7.9s7.9-3.6 7.9-7.9c0-4.3-3.6-7.9-7.9-7.9zm-203.3 455.6c-28.9 0-52.4-23.5-52.4-52.4s23.5-52.4 52.4-52.4 52.4 23.5 52.4 52.4-23.5 52.4-52.4 52.4zm0-101.8c-27.2 0-49.4 22.2-49.4 49.4s22.2 49.4 49.4 49.4 49.4-22.2 49.4-49.4-22.2-49.4-49.4-49.4zm144.9-144.6c-13.8 0-25-11.2-25-25s11.2-25 25-25 25 11.2 25 25-11.2 25-25 25zm0-47.1c-12.1 0-22 9.9-22 22s9.9 22 22 22 22-9.9 22-22-9.9-22-22-22zm-263.6 243.6c-12.4 0-22.5-10.1-22.5-22.5s10.1-22.5 22.5-22.5 22.5 10.1 22.5 22.5-10.1 22.5-22.5 22.5zm0-42c-10.7 0-19.5 8.7-19.5 19.5 0 10.7 8.7 19.5 19.5 19.5s19.5-8.7 19.5-19.5c0-10.7-8.8-19.5-19.5-19.5zm-32.3 179.1c-12.4 0-22.5-10.1-22.5-22.5s10.1-22.5 22.5-22.5 22.5 10.1 22.5 22.5-10.1 22.5-22.5 22.5zm0-42c-10.7 0-19.5 8.7-19.5 19.5 0 10.7 8.7 19.5 19.5 19.5s19.5-8.7 19.5-19.5c0-10.7-8.8-19.5-19.5-19.5zm218.7 185.7c-16.5 0-29.9-13.4-29.9-29.9s13.4-29.9 29.9-29.9 29.9 13.4 29.9 29.9c.1 16.5-13.3 29.9-29.9 29.9zm0-56.9c-14.9 0-26.9 12.1-26.9 26.9 0 14.9 12.1 26.9 26.9 26.9s26.9-12.1 26.9-26.9c.1-14.8-12-26.9-26.9-26.9zm-172-474l.8-2.9 61.4 15.9-.8 2.9-61.4-15.9zm-3.7 3.7l2.5-1.6 46.1 72.1-2.5 1.6-46.1-72.1zm76 59.1l5.4-27.2 2.9.6-5.4 27.2-2.9-.6zm-147.4 62.2l113-20.4.5 3-113 20.4-.5-3zm172.8-44.8l128.6-45.8 1 2.8-128.6 45.8-1-2.8zm157.9-74.3l48.2-144.6 2.8.9-48.1 144.6-2.9-.9zm-182.8 122.1l2.9-.7 16.4 70.8-2.9.7-16.4-70.8zm-66.4 106.1l.4-3 46.8 6.1-.4 3-46.8-6.1zm-50.8 109.7l24.5-95.5 2.9.7-24.5 95.5-2.9-.7zm-45.9-12.5l1.9-2.3 25.7 21.9-1.9 2.3-25.7-21.9zm153.6 48l24.7-14.6 1.5 2.6-24.7 14.6-1.5-2.6zm36.6-81.3h3l.1 45.7h-3l-.1-45.7zm13.9 69.5l.9-2.9 69.3 22.4-.9 2.9-69.3-22.4zm36.8-141.3l85.3-28.4.9 2.8-85.3 28.4-.9-2.8zm110.9-27.8l1.2-2.8 92.3 38.7-1.2 2.8-92.3-38.7zm-106.7 53.9l196.7-2v3l-196.7 2v-3zm-12 28.9l1.6-2.6 197.8 119.5-1.6 2.6-197.8-119.5zm-39.8 92.6l2.7-1.4 53 103.6-2.7 1.4-53-103.6zm73.8 98.5l13.3-73.6 3 .5-13.3 73.6-3-.5zm-137.5 40.4l104.2-13.2.4 3-104.2 13.2-.4-3zm157.8-25l144.7-76.7 1.4 2.7-144.7 76.6-1.4-2.6zm107-146.1l2.4-1.9 42.6 53.8-2.4 1.9-42.6-53.8zm55.8 51.1l16.9-110.8 3 .5-16.9 110.8-3-.5zm-51-74.8l50.1-47.5 2.1 2.2-50.1 47.5-2.1-2.2zm-46.5-269.7l2.2-2 103.6 115.6-2.2 2-103.6-115.6zm114.4 139.5l3-.3 3 29.4-3 .3-3-29.4zm13.6-5.5l1.1-2.8 35.5 13.3-1.1 2.8-35.5-13.3zm7.5-142.2l2.1-2.2 58.3 56.7-2.1 2.2-58.3-56.7zm75.3 45.6l2.5-33.6 3 .2-2.5 33.6-3-.2zm16.5 6.4l65.5-47.1 1.8 2.4-65.5 47.1-1.8-2.4zm114.6-48.1l.7-2.9 146 33.4-.7 2.9-146-33.4zm-190 194.2l337.2-137.8 1.1 2.8-337.1 137.7-1.2-2.7zm1.9 9.9l251.3-52.9.6 2.9-251.3 52.9-.6-2.9zm8.9 118.8l45.4-76.3 2.6 1.5-45.4 76.3-2.6-1.5zm53.7-74.3l2.7-1.4 24.9 49.4-2.7 1.4-24.9-49.4zm-73.7-17.9l2-2.3 88.1 76.6-2 2.3-88.1-76.6zm-123.1-841.4c-18.8 0-34-15.3-34-34s15.3-34 34-34c18.8 0 34 15.3 34 34s-15.3 34-34 34zm0-65.1c-17.1 0-31 13.9-31 31s13.9 31 31 31 31-13.9 31-31-13.9-31-31-31zm-135.4-11.3c-9 0-16.4-7.4-16.4-16.4s7.4-16.4 16.4-16.4c9 0 16.4 7.4 16.4 16.4s-7.3 16.4-16.4 16.4zm0-29.8c-7.4 0-13.4 6-13.4 13.4s6 13.4 13.4 13.4 13.4-6 13.4-13.4-6-13.4-13.4-13.4zm129.7 11.7c-9 0-16.4-7.4-16.4-16.4s7.4-16.4 16.4-16.4 16.4 7.4 16.4 16.4-7.4 16.4-16.4 16.4zm0-29.8c-7.4 0-13.4 6-13.4 13.4s6 13.4 13.4 13.4 13.4-6 13.4-13.4-6-13.4-13.4-13.4zm55.5 46.6c-4.9 0-8.9-4-8.9-8.9s4-8.9 8.9-8.9 8.9 4 8.9 8.9-4 8.9-8.9 8.9zm0-14.8c-3.3 0-5.9 2.6-5.9 5.9 0 3.3 2.6 5.9 5.9 5.9s5.9-2.6 5.9-5.9c0-3.3-2.7-5.9-5.9-5.9zm-296.8-2.1c-4.9 0-8.9-4-8.9-8.9s4-8.9 8.9-8.9 8.9 4 8.9 8.9-4 8.9-8.9 8.9zm0-14.8c-3.3 0-5.9 2.6-5.9 5.9s2.6 5.9 5.9 5.9 5.9-2.6 5.9-5.9-2.7-5.9-5.9-5.9zm337.8 119.1c-4.9 0-8.9-4-8.9-8.9s4-8.9 8.9-8.9 8.9 4 8.9 8.9-4 8.9-8.9 8.9zm0-14.7c-3.3 0-5.9 2.6-5.9 5.9s2.6 5.9 5.9 5.9 5.9-2.6 5.9-5.9-2.7-5.9-5.9-5.9zm-213.2-80.2l1.2-2.8 92.3 38.7-1.2 2.8-92.3-38.7zm115.2-10.7l3-.3 3 29.4-3 .3-3-29.4zm13.6-5.6l1.1-2.8 35.5 13.3-1.1 2.8-35.5-13.3zm229.4 1011.3l154.2-136 2 2.3-154.2 136-2-2.3zm195.1-173.5l51.6-46.5 2 2.2-51.6 46.5-2-2.2zm-205.3 201.2l2.9-.6 20.2 94-2.9.6-20.2-94zm-72.9 142.1l75-18.2.7 2.9-75 18.2-.7-2.9zm122.6-33.5l87.3-44.8 1.4 2.7-87.3 44.8-1.4-2.7zm1.8 14l.3-3 102.4 10-.3 3-102.4-10zm103.8-44.2l3-.4 5.4 42.9-3 .4-5.4-42.9zm13.2 43.3l95.2-116.9 2.3 1.9-95.1 116.9-2.4-1.9zm104.3-112.4l3-.4 12.8 92.6-3 .4-12.8-92.6zm-29.6 149.8l27.3-16.9 1.6 2.6-27.3 16.9-1.6-2.6zm70.5-22.8l1.1-2.8 44.7 17-1.1 2.8-44.7-17zm-143.6-161.5l43.8-39.8 2 2.2-43.8 39.8-2-2.2zm57.8-36.9l2.3-1.9 37.6 44.5-2.3 1.9-37.6-44.5zm4.7-3l1-2.8 153.6 51.4-1 2.8-153.6-51.4zm-19.6-125.9l207.4-41.6.6 2.9-207.4 41.6-.6-2.9zm.3 17.2l.1-3 158.5 4.6-.1 3-158.5-4.6zm90-57.2l3-.4 12.3 93.6-3 .4-12.3-93.6zm-93.4 67.2l1.6-2.5 75.8 49.3-1.6 2.5-75.8-49.3zm135.4 32.3l31.6-29.8 2.1 2.2-31.6 29.8-2.1-2.2zm50.5-25l2.6-1.4 31.6 57.3-2.6 1.4-31.6-57.3zm-35.6 74.4l.6-2.9 147.9 32-.6 2.9-147.9-32zm54.6 71.6l93.7-32.2 1 2.8-93.7 32.2-1-2.8zm-7.3 15.1l1.8-2.4 179 131.5-1.8 2.4-179-131.5zm202.4 124.7l24.6-54.2 2.7 1.2-24.6 54.2-2.7-1.2zm-280.4-372.3l2.1-2.1 51.6 51.1-2.1 2.1-51.6-51.1zm17.1-25.5l1-2.8 75 25.7-1 2.8-75-25.7zm2.4-14.7l.3-3 485 45-.3 3-485-45zm62.5 103.3l135.6-14.4.3 3-135.6 14.4-.3-3zm40-30.6l2.6-1.4 73.4 137-2.6 1.4-73.4-137zm-43.7 46.9l2.1-2.2 104.5 100.2-2.1 2.2-104.5-100.2zm133.3 88.1l15.2-105.3 3 .4-15.2 105.3-3-.4zm32.6-110.9l1.7-2.5 57.5 40.1-1.7 2.5-57.5-40.1zm2.7-10.4l257.4-39.9.5 3-257.4 39.9-.5-3zm-17.2 134.1l277.1-168 1.6 2.6-277.1 168-1.6-2.6zm234.7-52.4l50.5-106.5 2.7 1.3-50.5 106.5-2.7-1.3zm12.3 12.4l91.6-41.3 1.2 2.7-91.6 41.3-1.2-2.7zm106.6-31.6l2.9-.6 12.7 65.7-2.9.6-12.7-65.7zm-121.9 57l2.8-.9 23.5 71.1-2.8.9-23.5-71.1zm-227.9 24.5l205.9-39.2.6 2.9-205.9 39.2-.6-2.9zm-110.3-302.4l86.5-9 .3 3-86.5 9-.3-3zm69.9 38.2l23.1-30.7 2.4 1.8-23.1 30.7-2.4-1.8zm53-32.1l2-2.2 47 41.5-2 2.2-47-41.5zm66.3 41.8l62-19.4.9 2.9-62 19.4-.9-2.9zm-61.5-51.9l.5-3 122.9 22.4-.5 3-122.9-22.4zm168.2 44.8l1.7-2.4 89.4 63.4-1.7 2.4-89.4-63.4zm-1178.4-56.1l36.2-93 2.8 1.1-36.2 93-2.8-1.1zm-83.2-13.9l109.9-89.7 1.9 2.3-109.9 89.7-1.9-2.3zm73.2-157.9l2.2-2 46.6 51-2.2 2-46.6-51zm-83.6 158.5l67.7-161.5 2.8 1.2-67.7 161.5-2.8-1.2zm145.6-80.7l2.1-2.1 103 102.9-2.1 2.1-103-102.9zm4.8-19.2l163.3-36.1.6 2.9-163.3 36.1-.6-2.9zm35-126.2l1.6-2.5 132.9 83.4-1.6 2.5-132.9-83.4zm253.4 75.5l1.8-2.4 66.6 47.9-1.8 2.4-66.6-47.9zm55.6 186.2l19.1-88.8 2.9.6-19.1 88.8-2.9-.6zm49.2-87.7l2.6-1.5 39.3 70.9-2.6 1.5-39.3-70.9zm-323.7-454.6c-16.2 0-29.4-13.2-29.4-29.4s13.2-29.4 29.4-29.4 29.4 13.2 29.4 29.4-13.2 29.4-29.4 29.4zm0-55.8c-14.6 0-26.4 11.8-26.4 26.4s11.8 26.4 26.4 26.4 26.4-11.8 26.4-26.4-11.8-26.4-26.4-26.4zm257.4-28.4c-16.2 0-29.4-13.2-29.4-29.4s13.2-29.4 29.4-29.4 29.4 13.2 29.4 29.4-13.2 29.4-29.4 29.4zm0-55.8c-14.6 0-26.4 11.8-26.4 26.4s11.8 26.4 26.4 26.4 26.4-11.8 26.4-26.4-11.8-26.4-26.4-26.4zm-443.2 121.9c-6.3 0-11.4-5.1-11.4-11.4s5.1-11.4 11.4-11.4 11.4 5.1 11.4 11.4-5.1 11.4-11.4 11.4zm0-19.9c-4.7 0-8.4 3.8-8.4 8.4s3.8 8.4 8.4 8.4 8.4-3.8 8.4-8.4-3.7-8.4-8.4-8.4zm86.5 32.3c-9.1 0-16.6-7.4-16.6-16.6 0-9.1 7.4-16.6 16.6-16.6s16.6 7.4 16.6 16.6-7.4 16.6-16.6 16.6zm0-30.1c-7.5 0-13.6 6.1-13.6 13.6s6.1 13.6 13.6 13.6 13.6-6.1 13.6-13.6-6.1-13.6-13.6-13.6zm-5.3 103.7c-12.1 0-21.9-9.8-21.9-21.9s9.8-21.9 21.9-21.9 21.9 9.8 21.9 21.9-9.8 21.9-21.9 21.9zm0-40.8c-10.4 0-18.9 8.5-18.9 18.9s8.5 18.9 18.9 18.9 18.9-8.5 18.9-18.9-8.5-18.9-18.9-18.9zm-76.8-47.3l2.1-2.2 58.3 56.7-2.1 2.2-58.3-56.7zm75.3 45.7l2.5-33.6 3 .2-2.5 33.6-3-.2zm16.4 6.3l65.5-47.1 1.8 2.4-65.5 47.1-1.8-2.4zm-77.7-174.1l2.6-1.4 59.9 108.7-2.6 1.4-59.9-108.7zm115.9 17l2.6-1.5 39.3 70.9-2.6 1.5-39.3-70.9zm394 551.8l.1-3 155.1 6.9-.1 3-155.1-6.9zm-12.6-27.8l154.9-129.4 1.9 2.3-154.9 129.4-1.9-2.3zm172.8-123l2.9-.6 24.2 117-2.9.6-24.2-117zm9.7-12.1l.2-3 89 5.9-.2 3-89-5.9zm138.3 3l57.9-14.9.7 2.9-57.9 14.9-.7-2.9zm-11.2 22.7l2.2-2.1 29.1 31-2.2 2.1-29.1-31zm59.7 83.3l2.9-.9 48.9 157.7-2.9.9-48.9-157.7zm-101.5 179.1l80.9-183.9 2.7 1.2-80.9 183.9-2.7-1.2zm-26.8-144.7l94-55 1.5 2.6-94 55-1.5-2.6zm156.7-68.9l185.6-4.4.1 3-185.6 4.4-.1-3zm208.2-10.7l142.7-163.2 2.3 2-142.7 163.2-2.3-2zm133.3-53.5l18.4-105.7 3 .5-18.4 105.7-3-.5zm30.7-109.8l1.5-2.6 62.1 36.5-1.5 2.6-62.1-36.5zm28.3 312.3l41.6-255.4 3 .5-41.6 255.4-3-.5zm8.2 1.3l26.1-53.4 2.7 1.3-26.1 53.4-2.7-1.3zm-85.2 62l58.3-33.9 1.5 2.6-58.3 33.9-1.5-2.6zm77-23.8l3-.5 21 117.8-3 .5-21-117.8zm-392.9-252.3l1-2.8 182.2 66.2-1 2.8-182.2-66.2zm-163.9-78.4l2.5-1.6 41 62.8-2.5 1.6-41-62.8zm157.9 53.3l54.3-49.9 2 2.2-54.3 49.9-2-2.2zm-908.4-32l1.1-2.8 92.8 37.4-1.1 2.8-92.8-37.4zm114.3 17.5l1.7-30.3 3 .2-1.7 30.3-3-.2zm27.2 4.5l25.8-20.7 1.9 2.3-25.8 20.7-1.9-2.3zm-140-38.7l101.3-9.3.3 3-101.3 9.3-.3-3zm130.3-6.4l1.3-2.7 34.9 16.4-1.3 2.7-34.9-16.4zm-12.7-19.8l43.3-77 2.6 1.5-43.3 77-2.6-1.5zm162.3 198.5l46.3-94.7 2.7 1.3-46.3 94.7-2.7-1.3zm91-135.4l64-22.4 1 2.8-64 22.4-1-2.8zm-14.6-17l23.1-39.9 2.6 1.5-23.1 39.9-2.6-1.5zm33.9-76.6l13.9-79.3 3 .5-14 79.3-2.9-.5zm189.1 24.3l5.1-38.4 3 .4-5.1 38.4-3-.4zm22.2 58.6l1.5-2.6 63.8 36.1-1.5 2.6-63.8-36.1zm12-29.4l123-11 .3 3-123 11-.3-3zm-20.4-95.8l40.2-33.8 1.9 2.3-40.2 33.8-1.9-2.3zm159.4 72.8l69.2-66.7 2.1 2.2-69.2 66.7-2.1-2.2zm38.1-128.2l1.9-2.3 32.9 27.2-1.9 2.3-32.9-27.2zm68.7 28.6l26.5-11.2 1.2 2.8-26.5 11.2-1.2-2.8zm43.4-23.8l34-21.8 1.6 2.5-34 21.8-1.6-2.5zm-11.2-65.1l3-.1 1.1 60.9-3 .1-1.1-60.9zm-99.7 48.3l87.3-57.2 1.6 2.5-87.3 57.2-1.6-2.5zm2.8-96.9l.9-2.9 86.5 25.9-.9 2.9-86.5-25.9zm-249-56c-9 0-16.4-7.4-16.4-16.4s7.4-16.4 16.4-16.4 16.4 7.4 16.4 16.4-7.3 16.4-16.4 16.4zm0-29.8c-7.4 0-13.4 6-13.4 13.4s6 13.4 13.4 13.4 13.4-6 13.4-13.4-6-13.4-13.4-13.4zm-56.6-66c-9 0-16.4-7.4-16.4-16.4s7.4-16.4 16.4-16.4 16.4 7.4 16.4 16.4-7.4 16.4-16.4 16.4zm0-29.8c-7.4 0-13.4 6-13.4 13.4s6 13.4 13.4 13.4 13.4-6 13.4-13.4-6-13.4-13.4-13.4zm55.5 207.9c-6.8 0-12.3-5.5-12.3-12.3s5.5-12.3 12.3-12.3 12.3 5.5 12.3 12.3c-.1 6.8-5.5 12.3-12.3 12.3zm0-21.5c-5.1 0-9.3 4.2-9.3 9.3 0 5.1 4.2 9.3 9.3 9.3s9.3-4.2 9.3-9.3c-.1-5.2-4.2-9.3-9.3-9.3zm-49.2-270.1c-6.8 0-12.3-5.5-12.3-12.3s5.5-12.3 12.3-12.3 12.3 5.5 12.3 12.3-5.5 12.3-12.3 12.3zm0-21.5c-5.1 0-9.3 4.2-9.3 9.3s4.2 9.3 9.3 9.3 9.3-4.2 9.3-9.3-4.2-9.3-9.3-9.3zm1.1 277c-4.9 0-8.9-4-8.9-8.9s4-8.9 8.9-8.9 8.9 4 8.9 8.9-4 8.9-8.9 8.9zm0-14.8c-3.3 0-5.9 2.6-5.9 5.9s2.6 5.9 5.9 5.9 5.9-2.6 5.9-5.9c0-3.2-2.7-5.9-5.9-5.9zm71.5-223.2c-4.9 0-8.9-4-8.9-8.9s4-8.9 8.9-8.9 8.9 4 8.9 8.9-4 8.9-8.9 8.9zm0-14.8c-3.3 0-5.9 2.6-5.9 5.9s2.6 5.9 5.9 5.9 5.9-2.6 5.9-5.9-2.6-5.9-5.9-5.9zm82.6 161.3c-4.9 0-8.9-4-8.9-8.9s4-8.9 8.9-8.9 8.9 4 8.9 8.9-4 8.9-8.9 8.9zm0-14.8c-3.2 0-5.9 2.6-5.9 5.9s2.6 5.9 5.9 5.9c3.3 0 5.9-2.6 5.9-5.9s-2.6-5.9-5.9-5.9zm-98.6-15.3c-4.9 0-8.9-4-8.9-8.9s4-8.9 8.9-8.9 8.9 4 8.9 8.9-4 8.9-8.9 8.9zm0-14.7c-3.3 0-5.9 2.6-5.9 5.9s2.6 5.9 5.9 5.9 5.9-2.6 5.9-5.9-2.7-5.9-5.9-5.9zm100.2 151.1c-4.9 0-8.9-4-8.9-8.9s4-8.9 8.9-8.9 8.9 4 8.9 8.9-4 8.9-8.9 8.9zm0-14.8c-3.3 0-5.9 2.6-5.9 5.9s2.6 5.9 5.9 5.9c3.2 0 5.9-2.6 5.9-5.9s-2.7-5.9-5.9-5.9zm1.7 14.2l2.5-1.7 26.2 38.6-2.5 1.7-26.2-38.6zm-153.5-16.1l1.6-2.5 34 21.8-1.6 2.5-34-21.8zm42.7 15l1.1-60.9 3 .1-1.1 60.9-3-.1zm14.9-67.4l1.6-2.5 87.3 57.2-1.6 2.5-87.3-57.2zm-1.1-19.1l86.5-25.9.9 2.9-86.5 25.9-.9-2.9zm300.7 256.4l.3-3 226.7 23.8-.3 3-226.7-23.8zm246.2 224.9l16.4-145.4 3 .3-16.4 145.4-3-.3zm-949.7-70.3l154.2-15 .3 3-154.2 15-.3-3zm931.9-184.1l2.6-1.4 17.9 32.6-2.6 1.4-17.9-32.6zm-51.7-24l.8-2.9 36.9 10.4-.8 2.9-36.9-10.4zm57.4 12.1l64.4-23.5 1 2.8-64.4 23.5-1-2.8zm35-100.9l2.3-1.9 34.7 43.6-2.3 1.9-34.7-43.6zm58.5 38.1l7.3-25.9 2.9.8-7.3 25.9-2.9-.8zm-99.9-73.7l1.5-2.6 26.9 15.7-1.5 2.6-26.9-15.7zm2.9-5.3l.4-3 91.5 13.3-.4 3-91.5-13.3zm121.4 6.3l23.2-25 2.2 2-23.2 25-2.2-2zm2.8-101.9l2.7-1.2 23.6 53.1-2.7 1.2-23.6-53.1zm40.7 55l39.5-25.3 1.6 2.5-39.5 25.3-1.6-2.5zm-173.6 46.6h3l.4 126.5h-3l-.4-126.5zm7.4 128.8l25.1-96.6 2.9.8-25.1 96.6-2.9-.8zm-823.4-99.4l2.9-.7 65 255.4-2.9.7-65-255.4zm20.7-16.6l.8-2.9 56 15.5-.8 2.9-56-15.5zm-84.8 17.2l29.1-15.9 1.4 2.6-29.1 15.9-1.4-2.6zm-7.3 42l2.6-1.5 124.7 220.9-2.6 1.5-124.7-220.9zm294.4 397.3l74.5-175.6 2.8 1.2-74.5 175.6-2.8-1.2zm-42.8-478.5l2.7-1.3 117.1 251.4-2.7 1.3-117.1-251.4zm16-41l70.7-16.9.7 2.9-70.7 16.9-.7-2.9zm-37.3-162.9l3-.1 7 150.8-3 .1-7-150.8zm15-3.6l2-2.2 43.6 40.5-2 2.2-43.6-40.5zm5.8-37.4l41.3-17.7 1.2 2.8-41.3 17.7-1.2-2.8zm62.5-18l1.1-2.8 54.4 20.8-1.1 2.8-54.4-20.8zm-3.8 115.9l1.1-2.8 43.3 17.4-1.1 2.8-43.3-17.4zM637.2 108.2"/><path class="st0" d="M695.9 142.2l36.5-49 2.4 1.8-36.5 49-2.4-1.8zm-66.2-35.1l5.7-84.4 3 .2-5.7 84.4-3-.2z"/></g></svg>