<svg xmlns="http://www.w3.org/2000/svg" width="220" height="29.2" viewBox="0 0 220 29.2"><path d="M3.2 3.5l17 20.6 17.1-20.6h-1l-16.1 14.5-16.1-15-.9.5zm32.4 25.7h-30.7c-2.7 0-4.9-2.2-4.9-4.9v-19.4c0-2.7 2.2-4.9 4.9-4.9h30.7c2.7 0 4.9 2.2 4.9 4.9v19.4c0 2.7-2.2 4.9-4.9 4.9zm-30.7-25.8c-.8 0-1.5.7-1.5 1.5v19.4c0 .8.7 1.5 1.5 1.5h30.7c.8 0 1.5-.7 1.5-1.5v-19.4c0-.8-.7-1.5-1.5-1.5h-30.7zm47.9 22.8l-6.9-22.8h7.1l2.3 8.4c.5 1.9 1.1 4.6 1.4 6.4.8-3.7.8-3.7 1.5-6.4l2.2-8.4h6.9l-6.9 22.8h-7.6zm22.8 0h-7.1v-22.8h7.1v22.8zm22.8-17.1h-12.4v2.8h10.8v5.2h-10.8v3h12.9v6h-19.7v-22.8h19.2v5.8zm7.1 17.1l-6.2-22.8h7l2.2 10.7c.2.7.4 2.3.5 3.3.1-.9.3-2.4.5-3.3l2.2-10.7h6.2l2.2 10.6.2 1c0 .2.1.5.1.8.1.8.1.9.2 1.6l.2-1.6c.1-.2.1-.5.1-.8.1-.4.2-.9.2-1l2.1-10.6h6.9l-5.9 22.8h-6.9l-1.9-9.8c-.2-1.2-.5-2.9-.6-4.4-.2 1.7-.3 2.8-.7 4.4l-1.9 9.8h-6.7zm27.6-7.1l-2.7 7.2h-2.3l8.8-22.8h2.4l9 22.8h-2.4l-2.8-7.2h-10zm4.9-13.3l-4.2 11.4h8.6l-4.4-11.4zm12.2-2.4h11.8c3.1 0 4.6.4 5.9 1.7 1.1 1.1 1.7 2.6 1.7 4.3 0 1.9-.8 3.2-2.6 4.4 2.4 1.1 3.7 3 3.7 5.7 0 1.9-.7 3.8-2 5-1.3 1.3-2.7 1.7-6 1.7h-12.6v-22.8h.1zm11.1 8.7c1.3 0 2-.6 2-1.7s-.7-1.7-2-1.7h-4.3v3.4h4.3zm.1 8.6c1.8 0 2.8-.7 2.8-2s-.9-2-2.8-2h-4.4v4h4.4zm19.1 5.5h-7.1v-22.8h7.1v22.8zm10.6-6h10.1v6h-17.2v-22.8h7.1v16.8zm18.8 0h10.1v6h-17.2v-22.8h7.1v16.8z"/></svg>