<svg id="Layer_1" data-name="Layer 1" xmlns="http://www.w3.org/2000/svg" viewBox="0 0 283 98"><defs><style>.cls-1{fill:#fff;}</style></defs><title>Artboard 1</title><path class="cls-1" d="M258.12,33.78a44.21,44.21,0,0,0-3.64-6.52c2.45-3,4.71-4.74,6.07-4.74a1.08,1.08,0,0,1,.42.08c1.48.61,1.86,4.91.93,10.5C260.66,33.25,259.36,33.49,258.12,33.78Z"/><path class="cls-1" d="M252.48,47.83a5.4,5.4,0,0,1-.71,0l-.18,0-.38-.08-.37-.1-.28-.1A4.87,4.87,0,0,1,247.75,44c-.37-2.59,1.95-5.29,6.07-7A28,28,0,0,1,257,36c1.65,4.53,1.34,8.42-.87,10.45a7.25,7.25,0,0,1-1.09.77c-.16.08-.33.17-.51.25A5.37,5.37,0,0,1,252.48,47.83Z"/><path class="cls-1" d="M248.05,38.61a18.83,18.83,0,0,1,.73-2.1,38,38,0,0,1,4.5-7.73,40.79,40.79,0,0,1,3,5.46,29.18,29.18,0,0,0-3.2,1.1A14.85,14.85,0,0,0,248.05,38.61Z"/><path class="cls-1" d="M259.9,40.69a18.1,18.1,0,0,0-1.08-5.19c.91-.21,1.83-.38,2.74-.51A36.49,36.49,0,0,1,259.9,40.69Z"/><path class="cls-1" d="M245.73,43a20.68,20.68,0,0,1-1.43-2.85,44.67,44.67,0,0,1-2.88-12.67c-.39-5.24.56-7.55,1.58-8a1.32,1.32,0,0,1,.51-.09c1.91,0,5.38,3.1,8.69,7.75a41.07,41.07,0,0,0-5.1,8.63A15.68,15.68,0,0,0,245.73,43Z"/><path class="cls-1" d="M258.8,46.31a17.81,17.81,0,0,0,2.65-4.56,38.34,38.34,0,0,0,2-7c.84-.08,1.63-.12,2.34-.12,2.94,0,4.25.64,4.5,1.24C271.14,37.86,264.77,43.53,258.8,46.31Z"/><path class="cls-1" d="M52.54,66.46a.74.74,0,0,1,.54.22l1.28,1.38a21.2,21.2,0,0,1-3.07,2.7,19.15,19.15,0,0,1-3.63,2,21.27,21.27,0,0,1-4.32,1.31,26.73,26.73,0,0,1-5.17.46,22,22,0,0,1-8.62-1.65,19.16,19.16,0,0,1-6.72-4.67A21.46,21.46,0,0,1,18.46,61a27.6,27.6,0,0,1-1.57-9.54A26.31,26.31,0,0,1,18.51,42a21.41,21.41,0,0,1,4.54-7.31,20.27,20.27,0,0,1,7-4.74,23.44,23.44,0,0,1,9-1.68,25.6,25.6,0,0,1,4.51.37A20.74,20.74,0,0,1,47.4,29.7a18,18,0,0,1,3.34,1.71,26,26,0,0,1,3.07,2.37l-1,1.44a.89.89,0,0,1-.8.38,1.36,1.36,0,0,1-.74-.34l-1.14-.83q-.69-.5-1.66-1.09a13.53,13.53,0,0,0-2.32-1.09,19.59,19.59,0,0,0-3.1-.83,21.41,21.41,0,0,0-4-.34,19.72,19.72,0,0,0-7.58,1.42,17,17,0,0,0-6,4.06A18.57,18.57,0,0,0,21.64,43a24.14,24.14,0,0,0-1.39,8.43A24.94,24.94,0,0,0,21.63,60a18.51,18.51,0,0,0,3.81,6.38,16.49,16.49,0,0,0,5.74,4,18.34,18.34,0,0,0,7.18,1.39,26.3,26.3,0,0,0,4.34-.32,17,17,0,0,0,3.5-1,15.77,15.77,0,0,0,3-1.57,22.47,22.47,0,0,0,2.72-2.18,2.29,2.29,0,0,1,.3-.21A.69.69,0,0,1,52.54,66.46Z"/><path class="cls-1" d="M63.27,42.23V62.58a10.88,10.88,0,0,0,2.06,7q2.06,2.54,6.26,2.54a11.28,11.28,0,0,0,5.81-1.58,16.89,16.89,0,0,0,4.85-4.4V42.23h3V74.07H83.61q-.89,0-.92-.83l-.29-4.74a18.05,18.05,0,0,1-5.11,4.42,12.74,12.74,0,0,1-6.46,1.66,12,12,0,0,1-4.65-.83,8.52,8.52,0,0,1-3.3-2.4,10.61,10.61,0,0,1-2-3.78,17.09,17.09,0,0,1-.67-5V42.23Z"/><path class="cls-1" d="M97,27.51V74.07h-3V27.51Z"/><path class="cls-1" d="M114.68,74.58a6.79,6.79,0,0,1-5-1.79q-1.79-1.79-1.79-5.54V45.5h-4.58a.85.85,0,0,1-.58-.19.68.68,0,0,1-.22-.54V43.58l5.44-.38.76-11.39a.88.88,0,0,1,.24-.51.72.72,0,0,1,.55-.22h1.42V43.22h10V45.5h-10V67.1a6.74,6.74,0,0,0,.34,2.26,4.21,4.21,0,0,0,.93,1.55,3.63,3.63,0,0,0,1.39.9,5.06,5.06,0,0,0,1.73.29,5.28,5.28,0,0,0,2-.34,8.24,8.24,0,0,0,1.44-.74,9.31,9.31,0,0,0,1-.74,1.09,1.09,0,0,1,.61-.34.69.69,0,0,1,.51.32l.83,1.34a8.88,8.88,0,0,1-3.09,2.16A9.63,9.63,0,0,1,114.68,74.58Z"/><path class="cls-1" d="M131.71,31.26a2.43,2.43,0,0,1-.24,1.07,3.21,3.21,0,0,1-.62.88,2.9,2.9,0,0,1-.9.61,2.76,2.76,0,0,1-2.18,0,2.9,2.9,0,0,1-.9-.61,2.94,2.94,0,0,1-.61-.88,2.57,2.57,0,0,1-.22-1.07,2.79,2.79,0,0,1,.22-1.1,2.83,2.83,0,0,1,.61-.91,2.92,2.92,0,0,1,.9-.61,2.76,2.76,0,0,1,2.18,0,2.92,2.92,0,0,1,.9.61,3.07,3.07,0,0,1,.62.91A2.64,2.64,0,0,1,131.71,31.26Zm-1.34,11V74.07h-3V42.23Z"/><path class="cls-1" d="M151.64,74.07H149L135.51,42.23h2.4a1,1,0,0,1,.72.24,1.54,1.54,0,0,1,.4.53l10.5,25.12a8.54,8.54,0,0,1,.48,1.41l.32,1.34c.11-.45.22-.9.34-1.36a10.58,10.58,0,0,1,.46-1.39L161.69,43a1.43,1.43,0,0,1,.43-.56,1,1,0,0,1,.66-.21h2.3Z"/><path class="cls-1" d="M189.42,74.07a1.1,1.1,0,0,1-1.18-.9l-.45-4.06a33.45,33.45,0,0,1-2.61,2.3,15.63,15.63,0,0,1-2.7,1.73,13.3,13.3,0,0,1-3,1.07,16.32,16.32,0,0,1-3.58.37,10.58,10.58,0,0,1-3.17-.48A7.81,7.81,0,0,1,170,72.63a7.21,7.21,0,0,1-1.9-2.54,8.8,8.8,0,0,1-.72-3.73,6.62,6.62,0,0,1,1.15-3.74,9.46,9.46,0,0,1,3.6-3,23.74,23.74,0,0,1,6.3-2,54.81,54.81,0,0,1,9.26-.9V53.34q0-4.42-1.9-6.8a6.8,6.8,0,0,0-5.65-2.38,10.68,10.68,0,0,0-3.92.64,13.94,13.94,0,0,0-2.74,1.41,17.15,17.15,0,0,0-1.82,1.41,2,2,0,0,1-1.18.64,1,1,0,0,1-1-.58l-.54-.93A18.48,18.48,0,0,1,174.19,43a14.63,14.63,0,0,1,6.24-1.28,11.39,11.39,0,0,1,4.48.82,8.28,8.28,0,0,1,3.18,2.34,10.22,10.22,0,0,1,1.9,3.68,16.93,16.93,0,0,1,.64,4.82V74.07Zm-12.8-1.7A13.65,13.65,0,0,0,180,72a12.66,12.66,0,0,0,2.88-1.12,14.12,14.12,0,0,0,2.48-1.71q1.15-1,2.27-2.14V58.71a56.86,56.86,0,0,0-7.82.69,22.55,22.55,0,0,0-5.41,1.52,7.94,7.94,0,0,0-3.14,2.29,4.87,4.87,0,0,0-1,3,6.67,6.67,0,0,0,.53,2.77,5.32,5.32,0,0,0,3.41,3A8.17,8.17,0,0,0,176.62,72.38Z"/><path class="cls-1" d="M206.77,74.58a6.79,6.79,0,0,1-5-1.79Q200,71,200,67.26V45.5h-4.58a.85.85,0,0,1-.58-.19.68.68,0,0,1-.22-.54V43.58l5.44-.38.76-11.39a.88.88,0,0,1,.24-.51.72.72,0,0,1,.55-.22H203V43.22h10V45.5H203V67.1a6.74,6.74,0,0,0,.34,2.26,4.21,4.21,0,0,0,.93,1.55,3.63,3.63,0,0,0,1.39.9,5.06,5.06,0,0,0,1.73.29,5.28,5.28,0,0,0,2-.34A8.24,8.24,0,0,0,210.8,71a9.31,9.31,0,0,0,1-.74,1.09,1.09,0,0,1,.61-.34.69.69,0,0,1,.51.32l.83,1.34a8.88,8.88,0,0,1-3.09,2.16A9.63,9.63,0,0,1,206.77,74.58Z"/><path class="cls-1" d="M230.13,41.72a13.11,13.11,0,0,1,5,.93,11.18,11.18,0,0,1,4,2.7,12.46,12.46,0,0,1,2.62,4.37,17.35,17.35,0,0,1,.94,6,1.59,1.59,0,0,1-.21,1,.79.79,0,0,1-.65.26h-23v.61a21.57,21.57,0,0,0,.83,6.3A12.92,12.92,0,0,0,222,68.36a9.76,9.76,0,0,0,3.71,2.77,12.27,12.27,0,0,0,4.86.93,14.57,14.57,0,0,0,4.16-.53,15.54,15.54,0,0,0,3-1.18,16.18,16.18,0,0,0,1.9-1.18,2.16,2.16,0,0,1,1-.53.74.74,0,0,1,.64.32l.83,1a8.69,8.69,0,0,1-2,1.79,14.52,14.52,0,0,1-2.82,1.42,20.61,20.61,0,0,1-3.33.94,18.33,18.33,0,0,1-3.57.35,15.15,15.15,0,0,1-6-1.14A12.65,12.65,0,0,1,219.79,70a15.16,15.16,0,0,1-3-5.33,22.76,22.76,0,0,1-1.05-7.22,19.68,19.68,0,0,1,1-6.32,14.47,14.47,0,0,1,2.82-5,12.82,12.82,0,0,1,4.51-3.28A14.82,14.82,0,0,1,230.13,41.72Zm0,2.27a11.93,11.93,0,0,0-4.41.77A9.63,9.63,0,0,0,222.4,47a11.26,11.26,0,0,0-2.3,3.46,15.75,15.75,0,0,0-1.17,4.51h21a14,14,0,0,0-.7-4.59,9.84,9.84,0,0,0-2-3.44,8.58,8.58,0,0,0-3.07-2.16A10.13,10.13,0,0,0,230.18,44Z"/></svg>