<svg xmlns="http://www.w3.org/2000/svg" xmlns:xlink="http://www.w3.org/1999/xlink" viewBox="0 0 724 241"><defs><style>.cls-1{fill:none;}.cls-2{isolation:isolate;}.cls-3,.cls-33{fill:#fff;}.cls-17,.cls-18,.cls-25,.cls-3,.cls-33,.cls-34,.cls-36,.cls-39,.cls-40,.cls-41,.cls-42,.cls-43,.cls-44{stroke:#000;}.cls-25,.cls-26,.cls-27,.cls-28,.cls-29,.cls-3,.cls-30,.cls-31,.cls-33,.cls-34,.cls-35,.cls-36,.cls-39,.cls-40,.cls-41,.cls-42,.cls-43,.cls-44,.cls-46,.cls-47,.cls-48{stroke-miterlimit:10;}.cls-3{stroke-width:2px;}.cls-4{fill:#f90;}.cls-5{fill:#855000;}.cls-6{fill:#eb8d00;}.cls-7{clip-path:url(#clip-path);}.cls-8{fill:#995c00;}.cls-9{fill:#945900;}.cls-10{fill:#8f5600;}.cls-11{fill:#8a5300;}.cls-12{clip-path:url(#clip-path-2);}.cls-13{clip-path:url(#clip-path-3);}.cls-14{clip-path:url(#clip-path-4);}.cls-15{clip-path:url(#clip-path-5);}.cls-16{clip-path:url(#clip-path-6);}.cls-17,.cls-19{fill:#cb1848;}.cls-17,.cls-18{stroke-linejoin:round;stroke-width:8px;}.cls-18,.cls-21{fill:#81c756;}.cls-20{fill:#fc004e;}.cls-22{fill:#b4ff4a;}.cls-23{fill:#309eb7;}.cls-24{fill:#53bfe5;}.cls-25{stroke-width:7px;}.cls-26{fill:#b3b3b3;}.cls-26,.cls-27,.cls-28,.cls-29,.cls-30,.cls-31,.cls-46,.cls-47,.cls-48{stroke:#b3b3b3;}.cls-26,.cls-29,.cls-33,.cls-34,.cls-35{stroke-width:0.5px;}.cls-27,.cls-36{fill:#e6e6e6;}.cls-27{stroke-width:0.46px;}.cls-28,.cls-46{stroke-width:0.31px;}.cls-28{fill:url(#radial-gradient);}.cls-29,.cls-38{fill:#ccc;}.cls-30,.cls-47{stroke-width:0.29px;}.cls-30{fill:url(#radial-gradient-2);}.cls-31,.cls-48{stroke-width:0.27px;}.cls-31{fill:url(#radial-gradient-3);}.cls-32{fill:#4d4d4d;opacity:0.3;}.cls-34{fill:#1a1a1a;}.cls-35{fill:#333;stroke:#666;}.cls-36{stroke-width:0.4px;}.cls-37{mix-blend-mode:multiply;}.cls-39,.cls-40,.cls-42,.cls-43,.cls-44{stroke-width:0.45px;}.cls-39{fill:url(#radial-gradient-4);}.cls-40{fill:url(#radial-gradient-5);}.cls-41{stroke-width:0.36px;fill:url(#radial-gradient-6);}.cls-42{fill:url(#radial-gradient-7);}.cls-43{fill:url(#radial-gradient-8);}.cls-44{fill:url(#radial-gradient-9);}.cls-45{fill:#9e005d;}.cls-46{fill:url(#radial-gradient-10);}.cls-47{fill:url(#radial-gradient-11);}.cls-48{fill:url(#radial-gradient-12);}</style><clipPath id="clip-path"><path class="cls-1" d="M409,105.27v5.67c0,1.28-1.13,2.56-3.06,3.53a16.61,16.61,0,0,1-7.14,1.46,15.91,15.91,0,0,1-7-1.46c-2-1-2.83-2.28-2.83-3.57v-5.67c0,1.29.81,2.59,2.79,3.57a16.12,16.12,0,0,0,7,1.46,16.79,16.79,0,0,0,7.19-1.46C407.91,107.82,409,106.55,409,105.27Z"/></clipPath><clipPath id="clip-path-2"><path class="cls-1" d="M430,119.27v5.67c0,1.28-1.13,2.55-3,3.52a16.59,16.59,0,0,1-7.15,1.46,15.88,15.88,0,0,1-7-1.46c-2-1-2.83-2.27-2.83-3.56v-5.67c0,1.29.81,2.58,2.79,3.56a16.1,16.1,0,0,0,7,1.46,16.77,16.77,0,0,0,7.19-1.46C428.91,121.82,430,120.55,430,119.27Z"/></clipPath><clipPath id="clip-path-3"><path class="cls-1" d="M451,107.27v5.67c0,1.28-1.13,2.55-3.05,3.52a16.55,16.55,0,0,1-7.15,1.46,15.9,15.9,0,0,1-7-1.46c-2-1-2.82-2.27-2.82-3.56v-5.67c0,1.29.81,2.58,2.78,3.56a16.11,16.11,0,0,0,7,1.46,16.74,16.74,0,0,0,7.19-1.46C449.91,109.82,451,108.55,451,107.27Z"/></clipPath><clipPath id="clip-path-4"><path class="cls-1" d="M430,95.27v5.67c0,1.28-1.13,2.55-3,3.52a16.59,16.59,0,0,1-7.15,1.46,15.88,15.88,0,0,1-7-1.46c-2-1-2.83-2.27-2.83-3.56V95.22c0,1.29.81,2.58,2.79,3.56a16.1,16.1,0,0,0,7,1.46A16.77,16.77,0,0,0,427,98.79C428.91,97.82,430,96.54,430,95.27Z"/></clipPath><clipPath id="clip-path-5"><path class="cls-1" d="M473,95.27v5.67c0,1.28-1.13,2.55-3,3.52a16.59,16.59,0,0,1-7.15,1.46,15.88,15.88,0,0,1-7-1.46c-2-1-2.83-2.27-2.83-3.56V95.22c0,1.29.81,2.58,2.79,3.56a16.1,16.1,0,0,0,7,1.46A16.77,16.77,0,0,0,470,98.79C471.92,97.82,473,96.54,473,95.27Z"/></clipPath><clipPath id="clip-path-6"><path class="cls-1" d="M451,82.27v5.67c0,1.28-1.13,2.55-3.05,3.52a16.55,16.55,0,0,1-7.15,1.46,15.9,15.9,0,0,1-7-1.46c-2-1-2.82-2.27-2.82-3.56V82.23c0,1.29.81,2.58,2.78,3.56a16.11,16.11,0,0,0,7,1.46A16.74,16.74,0,0,0,448,85.79C449.91,84.82,451,83.55,451,82.27Z"/></clipPath><radialGradient id="radial-gradient" cx="742.03" cy="580.47" r="8.7" gradientTransform="matrix(0, -0.67, 1, 0, -25.88, 567.27)" gradientUnits="userSpaceOnUse"><stop offset="0" stop-color="#fff"/><stop offset="1"/></radialGradient><radialGradient id="radial-gradient-2" cx="44.02" cy="547.55" r="5.38" gradientTransform="translate(597.18 601.25) rotate(180)" xlink:href="#radial-gradient"/><radialGradient id="radial-gradient-3" cx="54.27" cy="545.8" r="4.88" gradientTransform="translate(598.02 603.92) rotate(180)" xlink:href="#radial-gradient"/><radialGradient id="radial-gradient-4" cx="631.43" cy="109.26" r="10.37" gradientTransform="translate(-39.41 -63.55)" xlink:href="#radial-gradient"/><radialGradient id="radial-gradient-5" cx="655.49" cy="109.26" r="10.37" gradientTransform="translate(-39.7 -67.32)" xlink:href="#radial-gradient"/><radialGradient id="radial-gradient-6" cx="663.39" cy="-48.92" r="10.2" gradientTransform="matrix(0, 0.67, -1, 0, 614.45, -346.2)" xlink:href="#radial-gradient"/><radialGradient id="radial-gradient-7" cx="628.28" cy="108.36" r="5.19" gradientTransform="translate(-39.51 -63.05)" gradientUnits="userSpaceOnUse"><stop offset="0" stop-color="#cce0f4"/><stop offset="0.11" stop-color="#c3dcf2"/><stop offset="0.3" stop-color="#a9d2ee"/><stop offset="0.54" stop-color="#80c2e7"/><stop offset="0.82" stop-color="#47acde"/><stop offset="1" stop-color="#1e9cd7"/></radialGradient><radialGradient id="radial-gradient-8" cx="652.34" cy="108.36" r="5.19" gradientTransform="translate(-39.8 -66.81)" xlink:href="#radial-gradient-7"/><radialGradient id="radial-gradient-9" cx="605.87" cy="63.68" r="13.58" gradientTransform="matrix(1, 0, 0, 1, 0, 0)" xlink:href="#radial-gradient"/><radialGradient id="radial-gradient-10" cx="76.01" cy="-5.24" r="8.7" gradientTransform="translate(736.78 128.99) rotate(180) scale(0.67 1)" xlink:href="#radial-gradient"/><radialGradient id="radial-gradient-11" cx="706.87" cy="229.89" r="5.38" gradientTransform="translate(-21.46 -76.84)" xlink:href="#radial-gradient"/><radialGradient id="radial-gradient-12" cx="717.13" cy="228.13" r="4.88" gradientTransform="translate(-21.86 -78.42)" xlink:href="#radial-gradient"/></defs><title>Artboard 1</title><g class="cls-2"><g id="Layer_2" data-name="Layer 2"><path class="cls-3" d="M717,161.46l0-.09a66.59,66.59,0,0,0-2.89-9.88,68.11,68.11,0,0,0-2.79-6.43l0-.26c0-.31,0-.61,0-.88a11.73,11.73,0,0,0,0-1.79c0-.28,0-.56-.06-.84l0-.23a13.65,13.65,0,0,0-.82-4.42c-.11-.36-.22-.68-.32-1s-.19-.56-.29-.83l0-.1c-.1-.29-.22-.58-.35-.88s-.37-.88-.57-1.31-.29-.6-.44-.9-.43-.8-.66-1.19l-.05-.09c-.14-.25-.29-.5-.46-.76l-.11-.17q0-.3,0-.61c0-.45.06-.9.06-1.44a15.11,15.11,0,0,0-.11-1.79c0-.2,0-.4-.06-.59-.05-.73-.12-1.41-.19-2,0-.16,0-.32-.06-.48,0-.4-.1-.8-.16-1.22,0-.1,0-.21,0-.31-.06-.41-.13-.83-.23-1.34l0-.12q-.14-.76-.31-1.54l0-.2q-.17-.74-.36-1.5l0-.17c-.14-.53-.29-1.07-.46-1.62l-.08-.25c-.35-1.14-.75-2.28-1.18-3.4l-.1-.26c-.23-.57-.47-1.15-.74-1.79s-.52-1.16-.81-1.75l-.1-.21c-.29-.59-.59-1.18-.91-1.78l-.09-.16q-.47-.87-1-1.75l-.06-.1c-.36-.6-.73-1.21-1.17-1.87l-.12-.18c-.81-1.23-1.68-2.45-2.57-3.61l-.21-.27q-1.44-1.84-3.09-3.66l-.15-.17q-.81-.88-1.68-1.77l-.16-.16c-.58-.58-1.17-1.16-1.74-1.69l-.16-.15c-.63-.59-1.28-1.17-1.92-1.72l-.28-.24q-1-.84-2-1.68a39.85,39.85,0,0,0-.4-4.77c-.73-4.64-3.65-10.58-12.85-14.52a17.49,17.49,0,0,0,.76-5.07,17.22,17.22,0,0,0-.21-2.82c-7.48-47.18-36.66-54.23-53.39-54.23a72.45,72.45,0,0,0-11.28.93c-20.61,3.26-35.22,14-42.05,30.55a16.21,16.21,0,0,0-15.73-14.13h-.25a15.39,15.39,0,0,0-11.94,5.64,15.66,15.66,0,0,0-5.74.28,15.5,15.5,0,0,0-9.92,7.58,16.83,16.83,0,0,0-1.12,13.55l0,.07c.24.74.5,1.49.78,2.23.55,1.48,1.17,3,1.85,4.49.34.74.68,1.47,1,2.19a67.67,67.67,0,0,0,3.8,6.68v.24c0,.33,0,.65.08.95a11.8,11.8,0,0,0,.16,1.73c0,.28.1.57.17.88a13.15,13.15,0,0,0,1.4,4.63c.12.26.23.5.33.7s.29.63.43.91.28.56.47.9.47.83.7,1.2.35.57.55.85.51.74.78,1.1l.07.1.45.59c.09.45.2.85.3,1.17.06.56.14,1.17.24,1.91,0,.12,0,.24.06.36.06.39.13.78.2,1.18l0,.16c.18,1,.4,2,.65,3a.31.31,0,0,0,0,.05A52,52,0,0,0,537.23,93H500.86a11.41,11.41,0,0,0-4.53-4.9L446.73,59.45a11.47,11.47,0,0,0-11.35,0L376.84,93H295.41s-.09-.08-.13-.15-.22-.27-.32-.4c-.28-.34-.55-.65-.83-.95A117.34,117.34,0,0,0,300.95,78c.69-1.54,1.35-3,2-4.3.2-.41.39-.79.61-1.23h0c.14-.28.29-.54.42-.78A11.34,11.34,0,0,0,296,54.81a101.77,101.77,0,0,0-15.35-1.16,71.15,71.15,0,0,0-18.5,2.19,22.37,22.37,0,0,0-7.26,3.41l-.54-.37c-.46-.31-.93-.6-1.43-.89l-.79-.42c-.49-.25-1-.48-1.55-.71l-.68-.28a24,24,0,0,0-2.29-.75,71.14,71.14,0,0,0-18.5-2.19,101.76,101.76,0,0,0-15.35,1.16,11.34,11.34,0,0,0-8,16.82l.22.4.52,1,.7,1.45,3.32,7.3,1.25,2.64,0-.09.61,1.23.56,1.1.57,1.09.6,1.1.62,1.1.65,1.1.46.74s-.31.34-.41.48-.35.7-.52.7H134.82c1.83-1,3.47-1.38,4.85-2.29a22.85,22.85,0,0,0,7.94-27.37c-3.28-7.72-11.8-13.1-20.72-13.1a21.21,21.21,0,0,0-11.17,3.16,11.36,11.36,0,0,0-2,1.62L111,57.67a23.81,23.81,0,0,0-5.92,13.57c-4.65,5-15,14.76-22.42,21.76H78.15a77.49,77.49,0,0,1-8.94-18.1A20.34,20.34,0,0,0,70,72.3a16.7,16.7,0,0,0-.65-9.14l0-.14c-2.14-7.1-7.66-15.56-21.88-15.56a11.34,11.34,0,0,0-3.79.66l-3.5,1.25a11.34,11.34,0,0,0-2.13,1A22.11,22.11,0,0,0,27.88,69.61a20.45,20.45,0,0,0,1.64,8.67,21.09,21.09,0,0,0,5,7,11.32,11.32,0,0,0,6.46,3l.34.14a11.39,11.39,0,0,0,.7,1.29l.94,1.53c.53.87,1,1.63,1.35,2.15a128.49,128.49,0,0,1,6.63,12.73c-3,0-5.48-.08-7.37-.17a16,16,0,0,0-3.69-3.82,19.64,19.64,0,0,0-11.54-3.8A20.94,20.94,0,0,0,8.52,113.52a15.06,15.06,0,0,0-.5,4.65,21.72,21.72,0,0,0,.73,6.1,20.8,20.8,0,0,0,6.78,11.13A11.32,11.32,0,0,0,22.73,138l.59,0a18.78,18.78,0,0,0,4.19.46,20.77,20.77,0,0,0,13-4.74c.31,0,.62.51.94.54C36.93,138.76,32.28,144,29.2,146h-.07a16,16,0,0,0-3.31-.1c-4.1.88-7.38,2-10,4-5.43,3.94-8.65,10.85-8.47,18.33a21.88,21.88,0,0,0,6.09,16.19,12,12,0,0,0,1.06.93,11.33,11.33,0,0,0,7.18,2.75A23.83,23.83,0,0,0,29,189.19c7.32,0,14-3.17,17.85-8.48a26.31,26.31,0,0,0,4.18-10.38,11.36,11.36,0,0,0,.15-3.61l-.1-.88c3.07-4.72,12.47-13.86,19.68-20.14,3.38,6.4,7,14.67,9.22,19.87a17.24,17.24,0,0,0-1,2.9,18.33,18.33,0,0,0-.57,5.16A19.55,19.55,0,0,0,85,188.83a11.32,11.32,0,0,0,6.84,2.94,20,20,0,0,0,7.06,1.3,18.89,18.89,0,0,0,6.37-1.1,20.4,20.4,0,0,0,13-22.87,19,19,0,0,0-11.46-14.69,31,31,0,0,1-2-4.41H206.9a34.85,34.85,0,0,0,3.84,7.31,23.87,23.87,0,0,0,5.37,8.3,18.4,18.4,0,0,0,1.8,1.51l.27.21.22.16a22.42,22.42,0,0,0,2.25,1.36,53.24,53.24,0,0,0,15.15,9.23l.35.35.45.44.25.23c3.77,3.47,10.63,7.59,17.52,7.77h.48c6.61,0,14.74-3.75,19.81-8.77a52.28,52.28,0,0,0,14.62-8.74,21,21,0,0,0,5.58-3.72,25.08,25.08,0,0,0,6.08-10.25,39.58,39.58,0,0,0,2.7-5.4h58.08a11.73,11.73,0,0,0,3,2.61l49.58,28.52a11.18,11.18,0,0,0,11.31-.08L479.56,150h101.3c.51,1,1,2,1.54,3,0,0,.05.13.08.17.5.93,1,1.88,1.51,2.8l.53,1,1.12,2,.45.8,1.25,2.19L588,163l1.18,2,.54.91q.87,1.45,1.76,2.88l.07.11c-.13,1.06-.24,2.08-.32,3.09-.21,2.45-.33,4.92-.35,7.34,0,1.56,0,3.14.09,4.72v.17c.07,1.44.18,2.89.32,4.39l0,.38a74.45,74.45,0,0,0,1.89,10.69c.39,1.53.85,3.07,1.38,4.6q.23.69.49,1.37c-5.2,2.3-9.28,6.09-9.28,12.59,0,12.38,15.2,14.75,21.69,15.77a237.51,237.51,0,0,0,61.92,0c6.49-1,21.69-3.39,21.69-15.77,0-7.2-5.16-12.09-15.33-14.54l-1.45-.33q.64-1.61,1.22-3.28c.48-1.41.94-2.86,1.35-4.33q.31-1.1.59-2.23c.38-1.51.72-3.05,1-4.6.37-1.9.68-3.83.93-5.78a15.73,15.73,0,0,0,7.74,2.06,15.24,15.24,0,0,0,3.49-.41,15.46,15.46,0,0,0,4.74-2,16,16,0,0,0,2.51-2,15.53,15.53,0,0,0,2.5.42q.67.06,1.36.06a15.91,15.91,0,0,0,1.91-.12,15.3,15.3,0,0,0,6.71-2.51,15.55,15.55,0,0,0,2.59-2.2,16.24,16.24,0,0,0,4.22-8.56A17.17,17.17,0,0,0,717,161.46Z"/></g><g id="Layer_1" data-name="Layer 1"><path d="M441.06,69.26,490.67,97.9l.33,32.55-71,40.82-49.58-28.55-.06-32.55,70.69-40.91m0-4-1.75,1-70.69,40.91-1.75,1v2l.06,32.55v2l1.75,1,49.58,28.55,1.75,1,1.75-1,71-40.82,1.78-1,0-2-.33-32.55,0-2-1.73-1L442.81,66.23l-1.75-1Z"/><polygon class="cls-4" points="370.37 110.17 441.06 69.26 490.67 97.9 420 138.72 370.37 110.17"/><polygon class="cls-5" points="370.43 142.72 420 171.27 420 138.72 370.37 110.17 370.43 142.72"/><polygon class="cls-6" points="420 138.72 490.67 97.9 491 130.45 420 171.27 420 138.72"/><g class="cls-2"><g class="cls-2"><g class="cls-7"><g class="cls-2"><path class="cls-8" d="M409,106v5.11c0,.61-1,1.22-1,1.79v-5.67c0-.57,1-.94,1-1.55"/><path class="cls-9" d="M408,108v4.9c0,.4-1,.77-1,1.12v-5.67c0-.35,1-.48,1-.88"/><path class="cls-10" d="M407,109v5c-1,.15-.53.3-.81.44s-1.19.35-1.19.5v-5.67c0-.15.83-.31,1.19-.5s-.19,0,.81-.19"/><path class="cls-11" d="M405,110v5a13.68,13.68,0,0,1-4,.78v-5.67a15.61,15.61,0,0,0,4-.54"/><path class="cls-5" d="M401,111v4.74a10.45,10.45,0,0,1-2.48.18,15.29,15.29,0,0,1-6.83-1.46c-2-1-2.69-2.28-2.69-3.57v-5.67c0,1.29.81,2.59,2.79,3.57a15.27,15.27,0,0,0,6.82,1.46,18.52,18.52,0,0,0,2.39.07"/></g></g></g><path class="cls-6" d="M398.63,100.24a16.34,16.34,0,0,1,7.09,1.46c3.9,1.95,3.92,5.14.05,7.09a16.22,16.22,0,0,1-7.06,1.46,16.53,16.53,0,0,1-7.11-1.46c-3.93-1.95-4-5.14-.06-7.09A16.34,16.34,0,0,1,398.63,100.24Z"/></g><g class="cls-2"><g class="cls-2"><g class="cls-12"><g class="cls-2"><path class="cls-8" d="M430,120v5.11c0,.61-1,1.22-1,1.79v-5.67c0-.57,1-.94,1-1.55"/><path class="cls-9" d="M429,122v4.9c0,.4-1,.77-1,1.12v-5.67c0-.35,1-.48,1-.88"/><path class="cls-10" d="M428,123v5c-1,.15-.53.3-.8.43s-1.2.35-1.2.5v-5.67c0-.15.83-.32,1.2-.5s-.2,0,.8-.19"/><path class="cls-11" d="M426,124v5a13.66,13.66,0,0,1-4,.78v-5.67a15.57,15.57,0,0,0,4-.54"/><path class="cls-5" d="M422,125v4.74a10.44,10.44,0,0,1-2.47.18,15.27,15.27,0,0,1-6.83-1.46c-2-1-2.69-2.27-2.69-3.56v-5.67c0,1.29.81,2.58,2.79,3.56a15.26,15.26,0,0,0,6.83,1.46,18.54,18.54,0,0,0,2.38.07"/></g></g></g><path class="cls-6" d="M419.63,114.24a16.34,16.34,0,0,1,7.09,1.46c3.9,1.95,3.92,5.14.06,7.08a16.2,16.2,0,0,1-7.06,1.46,16.51,16.51,0,0,1-7.11-1.46c-3.93-1.95-4-5.14-.06-7.08A16.34,16.34,0,0,1,419.63,114.24Z"/></g><g class="cls-2"><g class="cls-2"><g class="cls-13"><g class="cls-2"><path class="cls-8" d="M451,108v5.12c0,.61-1,1.22-1,1.79v-5.67c0-.57,1-.93,1-1.54"/><path class="cls-9" d="M450,110v4.9c0,.4-1,.77-1,1.12v-5.67c0-.35,1-.48,1-.88"/><path class="cls-10" d="M449,111v5c-1,.15-.53.3-.8.44s-1.2.35-1.2.5v-5.67c0-.15.83-.32,1.2-.5s-.2,0,.8-.19"/><path class="cls-11" d="M447,112v5a13.69,13.69,0,0,1-4,.78v-5.67a15.62,15.62,0,0,0,4-.54"/><path class="cls-5" d="M443,113v4.74a10.44,10.44,0,0,1-2.47.18,15.3,15.3,0,0,1-6.84-1.46c-2-1-2.69-2.27-2.69-3.56v-5.67c0,1.29.81,2.58,2.78,3.56a15.28,15.28,0,0,0,6.84,1.46,18.56,18.56,0,0,0,2.38.07"/></g></g></g><path class="cls-6" d="M440.63,102.25a16.33,16.33,0,0,1,7.08,1.46c3.9,1.95,3.93,5.14.06,7.08a16.16,16.16,0,0,1-7.06,1.46,16.52,16.52,0,0,1-7.11-1.46c-3.92-1.95-4-5.14-.05-7.08A16.33,16.33,0,0,1,440.63,102.25Z"/></g><g class="cls-2"><g class="cls-2"><g class="cls-14"><g class="cls-2"><path class="cls-8" d="M430,96v5.11c0,.61-1,1.22-1,1.79V97.23c0-.57,1-.94,1-1.55"/><path class="cls-9" d="M429,98v4.9c0,.4-1,.77-1,1.12V98.35c0-.35,1-.48,1-.88"/><path class="cls-10" d="M428,99v5c-1,.15-.53.3-.8.43s-1.2.35-1.2.5V99.29c0-.15.83-.32,1.2-.5s-.2,0,.8-.19"/><path class="cls-11" d="M426,100v5a13.66,13.66,0,0,1-4,.78v-5.67a15.57,15.57,0,0,0,4-.54"/><path class="cls-5" d="M422,101v4.74a10.44,10.44,0,0,1-2.47.18,15.27,15.27,0,0,1-6.83-1.46c-2-1-2.69-2.27-2.69-3.56V95.22c0,1.29.81,2.58,2.79,3.56a15.26,15.26,0,0,0,6.83,1.46,18.54,18.54,0,0,0,2.38.07"/></g></g></g><path class="cls-6" d="M419.63,90.24a16.34,16.34,0,0,1,7.09,1.46c3.9,1.95,3.92,5.14.06,7.08a16.2,16.2,0,0,1-7.06,1.46,16.51,16.51,0,0,1-7.11-1.46c-3.93-1.95-4-5.14-.06-7.08A16.34,16.34,0,0,1,419.63,90.24Z"/></g><g class="cls-2"><g class="cls-2"><g class="cls-15"><g class="cls-2"><path class="cls-8" d="M473,96v5.11c0,.61-1,1.22-1,1.79V97.23c0-.57,1-.94,1-1.55"/><path class="cls-9" d="M472,98v4.9c0,.4-1,.77-1,1.12V98.35c0-.35,1-.48,1-.88"/><path class="cls-10" d="M471,99v5c-1,.15-.53.3-.8.43s-1.2.35-1.2.5V99.29c0-.15.83-.32,1.2-.5s-.2,0,.8-.19"/><path class="cls-11" d="M469,100v5a13.66,13.66,0,0,1-4,.78v-5.67a15.57,15.57,0,0,0,4-.54"/><path class="cls-5" d="M465,101v4.74a10.43,10.43,0,0,1-2.47.18,15.28,15.28,0,0,1-6.84-1.46c-2-1-2.69-2.27-2.69-3.56V95.22c0,1.29.81,2.58,2.79,3.56a15.26,15.26,0,0,0,6.83,1.46,18.53,18.53,0,0,0,2.38.07"/></g></g></g><path class="cls-6" d="M462.63,90.24a16.34,16.34,0,0,1,7.09,1.46c3.9,1.95,3.92,5.14.06,7.08a16.2,16.2,0,0,1-7.06,1.46,16.51,16.51,0,0,1-7.11-1.46c-3.93-1.95-4-5.14-.06-7.08A16.34,16.34,0,0,1,462.63,90.24Z"/></g><g class="cls-2"><g class="cls-2"><g class="cls-16"><g class="cls-2"><path class="cls-8" d="M451,83v5.11c0,.61-1,1.22-1,1.79V84.23c0-.57,1-.93,1-1.54"/><path class="cls-9" d="M450,85v4.9c0,.4-1,.77-1,1.12V85.35c0-.35,1-.48,1-.88"/><path class="cls-10" d="M449,86v5c-1,.15-.53.3-.8.44s-1.2.35-1.2.5V86.29c0-.15.83-.32,1.2-.5s-.2,0,.8-.19"/><path class="cls-11" d="M447,87v5a13.69,13.69,0,0,1-4,.78V87.07a15.62,15.62,0,0,0,4-.54"/><path class="cls-5" d="M443,88v4.74a10.44,10.44,0,0,1-2.47.18,15.3,15.3,0,0,1-6.84-1.46c-2-1-2.69-2.27-2.69-3.56V82.23c0,1.29.81,2.58,2.78,3.56a15.28,15.28,0,0,0,6.84,1.46,18.56,18.56,0,0,0,2.38.07"/></g></g></g><path class="cls-6" d="M440.63,77.24a16.33,16.33,0,0,1,7.08,1.46c3.9,1.95,3.93,5.14.06,7.08a16.16,16.16,0,0,1-7.06,1.46,16.52,16.52,0,0,1-7.11-1.46c-3.92-1.95-4-5.14-.05-7.08A16.33,16.33,0,0,1,440.63,77.24Z"/></g><circle cx="255.26" cy="129.02" r="41.44"/><circle cx="255.26" cy="90.58" r="15.16"/><path class="cls-17" d="M242.91,134.21c-7,3.39-14.3.5-16.36-6.47s1.92-15.36,8.9-18.76,14.3-.5,16.36,6.47S249.88,130.81,242.91,134.21Zm24,0c7,3.39,14.3.5,16.36-6.47s-1.92-15.36-8.9-18.76-14.3-.5-16.36,6.47S259.93,130.81,266.9,134.21Zm-11.64-.53c-7.29,0-13.2,5.33-13.2,11.92s5.91,11.92,13.2,11.92,13.2-5.33,13.2-11.92S262.55,133.68,255.26,133.68Zm-21.6,11.72c-18-17-15.52,6.56-9.75,12S253.27,163.91,233.66,145.39Zm53.4,12c5.77-5.47,8.25-29-9.75-12C257.71,163.91,281.29,162.9,287.06,157.42Zm-9-49c14,13.26,12.1-5.11,7.6-9.38S262.73,94,278,108.4Zm-52.85-10c-4.5,4.27-6.44,22.64,7.6,9.38C248.05,93.36,229.66,94.15,225.16,98.42ZM210.77,126.2c-.48,6.18,10.37,21.13,11.93,1.88C224.39,107.12,211.26,120,210.77,126.2ZM287,128.08c1.55,19.24,12.41,4.3,11.93-1.88S285.27,107.12,287,128.08Zm-32.29,47.45c8,.21,26.36-13.29,1.61-14C229.33,160.76,246.72,175.32,254.67,175.53Zm1.19-84c-8-.21-26.36,13.29-1.61,14C281.2,106.27,263.81,91.71,255.86,91.5Z"/><path class="cls-18" d="M245.86,85s-7,10.4-14,7.4-12.4-19.8-16.2-26.4c0,0,16.08-2.71,29,.8,7.51,2,9.2,9.2,3.4,16.4l-10.6-8Zm18.07,0s7,10.4,14,7.4,12.4-19.8,16.2-26.4c0,0-16.08-2.71-29,.8-7.51,2-9.2,9.2-3.4,16.4l10.6-8Z"/><path class="cls-19" d="M242.91,134.21c-7,3.39-14.3.5-16.36-6.47s1.92-15.36,8.9-18.76,14.3-.5,16.36,6.47S249.88,130.81,242.91,134.21Zm24,0c7,3.39,14.3.5,16.36-6.47s-1.92-15.36-8.9-18.76-14.3-.5-16.36,6.47S259.93,130.81,266.9,134.21Zm-11.64-.53c-7.29,0-13.2,5.33-13.2,11.92s5.91,11.92,13.2,11.92,13.2-5.33,13.2-11.92S262.55,133.68,255.26,133.68Zm-21.6,11.72c-18-17-15.52,6.56-9.75,12S253.27,163.91,233.66,145.39Zm53.4,12c5.77-5.47,8.25-29-9.75-12C257.71,163.91,281.29,162.9,287.06,157.42Zm-9-49c14,13.26,12.1-5.11,7.6-9.38S262.73,94,278,108.4Zm-52.85-10c-4.5,4.27-6.44,22.64,7.6,9.38C248.05,93.36,229.66,94.15,225.16,98.42ZM210.77,126.2c-.48,6.18,10.37,21.13,11.93,1.88C224.39,107.12,211.26,120,210.77,126.2ZM287,128.08c1.55,19.24,12.41,4.3,11.93-1.88S285.27,107.12,287,128.08Zm-32.29,47.45c8,.21,26.36-13.29,1.61-14C229.33,160.76,246.72,175.32,254.67,175.53Zm1.19-84c-8-.21-26.36,13.29-1.61,14C281.2,106.27,263.81,91.71,255.86,91.5Z"/><path class="cls-20" d="M246.3,154.34a11.06,11.06,0,0,1-2.24-6.64c0-6.58,5.91-11.92,13.2-11.92a14,14,0,0,1,9,3.17,13.61,13.61,0,0,0-11-5.28c-7.29,0-13.2,5.33-13.2,11.92A11.39,11.39,0,0,0,246.3,154.34Z"/><path class="cls-20" d="M287,128.08c.49,6.05,1.9,8.72,3.58,9.35a20.7,20.7,0,0,1-1.58-7.24c-1-12.82,3.47-13,7.25-9.75C292.32,115.49,285.73,112.86,287,128.08Z"/><path class="cls-20" d="M258,115.45c-1.67,5.63.62,12.19,5.23,16.29-3.24-4-4.64-9.44-3.23-14.19,2.06-7,9.39-9.86,16.36-6.47a16.18,16.18,0,0,1,3.66,2.46,16.62,16.62,0,0,0-5.66-4.57C267.39,105.59,260.07,108.48,258,115.45Z"/><path class="cls-20" d="M277.28,107.69c-9.44-10.8,4.29-10.61,9.45-7.25A7.11,7.11,0,0,0,285.61,99C281.19,94.82,263.33,94,277.28,107.69Z"/><path class="cls-20" d="M279.31,147.5c5.62-5.3,9.24-6.66,11.39-5.85-1.4-3.35-5.36-3.84-13.39,3.74-9.12,8.61-8.89,13-5.47,14.68C271,157.68,272.77,153.68,279.31,147.5Z"/><path class="cls-20" d="M212.77,128.31c.31-3.94,5.74-10.59,9.21-9.5-2.7-6.4-10.83,2.55-11.21,7.4-.24,3,2.26,8.19,5.05,10.37C214,134.06,212.59,130.59,212.77,128.31Z"/><path class="cls-20" d="M235.66,147.5q.66.62,1.25,1.21c-.92-1-2-2.13-3.25-3.32-18-17-15.52,6.56-9.75,12a7.4,7.4,0,0,0,.8.66C219.89,150.86,219,131.73,235.66,147.5Z"/><path class="cls-20" d="M243.9,103.63c-1.3-4.19,8.66-10.16,14-10,2.86.08,6.94,2,9.73,4.41-2.41-3.28-8.07-6.42-11.73-6.52C249.57,91.34,236.73,99.76,243.9,103.63Z"/><path class="cls-20" d="M258.28,163.64c5.17.15,8.45.85,10.34,1.88-.65-2.09-4.1-3.75-12.34-4-17.27-.49-16.34,5.3-11.35,9.59C242.11,167.27,243.74,163.22,258.28,163.64Z"/><path class="cls-20" d="M224.19,112.45c-1.09-3.36.58-9.65,3-11.93s8.32-3.47,11.51-2.22c-.85-4.1-10.43-2.81-13.51.11S220.09,111.47,224.19,112.45Z"/><path class="cls-20" d="M234.76,109.91a23.86,23.86,0,0,1-5.22,4,15.89,15.89,0,0,0-3,13.88,11,11,0,0,0,3.67,5.58,11.59,11.59,0,0,1-1.67-3.47c-2.06-7,1.92-15.36,8.9-18.76,4.62-2.25,9.39-1.73,12.69.89-3-4.23-8.67-5.67-14.18-3.23C235.58,109.12,235.18,109.51,234.76,109.91Z"/><path class="cls-21" d="M245.86,85s-7,10.4-14,7.4-12.4-19.8-16.2-26.4c0,0,16.08-2.71,29,.8,7.51,2,9.2,9.2,3.4,16.4l-10.6-8Zm18.07,0s7,10.4,14,7.4,12.4-19.8,16.2-26.4c0,0-16.08-2.71-29,.8-7.51,2-9.2,9.2-3.4,16.4l10.6-8Z"/><path class="cls-22" d="M219.06,69.39s16.08-2.71,29,.8a11.88,11.88,0,0,1,2.64,1.05,9.13,9.13,0,0,0-6-4.45c-12.92-3.51-29-.8-29-.8,3.56,6.19,8.53,21.35,14.91,25.68C225.8,85.43,222,74.44,219.06,69.39Z"/><path class="cls-22" d="M268.53,70.19c8.51-2.31,18.39-1.93,24.15-1.39.51-1.06,1-2,1.45-2.81,0,0-16.08-2.71-29,.8-7.51,2-9.2,9.2-3.4,16.4l.89-.67C260.19,76.85,262.46,71.84,268.53,70.19Z"/><path class="cls-22" d="M267.33,88.39l8.4-9.8-10.59,8a25.56,25.56,0,0,0,3.49,3.5C267.81,89.1,267.33,88.39,267.33,88.39Z"/><path class="cls-22" d="M264,85l0,0s.23.34.65.88C264.36,85.57,264.15,85.27,264,85Z"/><path class="cls-23" d="M98.88,183.48A11.4,11.4,0,0,1,90.12,179a9.48,9.48,0,0,1-1.86-8.18,10.46,10.46,0,0,1,1.88-3.58,7.9,7.9,0,0,0,1-1.53c-.29-.63-.77-1.73-1.65-3.78-3.29-7.67-10.77-25.09-15.64-30.8-5.1,3.12-25.73,21.21-31.1,30A22.51,22.51,0,0,0,41.23,164l.49,4.13-.06.28a17.48,17.48,0,0,1-2.55,6.68c-2,2.79-5.89,4.52-10.09,4.52a12.45,12.45,0,0,1-8.81-3.31,12.79,12.79,0,0,1-3.27-10,12.14,12.14,0,0,1,4.48-8.9,17.11,17.11,0,0,1,6.41-2.54,6.08,6.08,0,0,1,1.3-.13,10.6,10.6,0,0,1,1.52.13,6.66,6.66,0,0,0,.87.09,1,1,0,0,0,.54-.13c7.11-4.2,24.56-22.55,29.77-29.17-2.15-.14-5.17-.37-8.62-.62-5.94-.44-12.6-.93-16.66-1.15a10.81,10.81,0,0,1-9.05,5,9,9,0,0,1-3.48-.68c-4-1.65-5.29-5-6-7.66a10.19,10.19,0,0,1-.25-4.42,11.35,11.35,0,0,1,10.53-8.19,10,10,0,0,1,5.93,2,11.37,11.37,0,0,1,2.72,3.64,15.63,15.63,0,0,0,.92,1.51c1.11.28,6,.65,14.22.65,5.43,0,10.1-.17,12.5-.45.09-.21.17-.38.25-.54s.1-.19.14-.29c-.1-3-9.26-22.41-12.74-27.63-.3-.44-.69-1.09-1.14-1.82a40.18,40.18,0,0,0-3.36-5l-2.19-.22-.21-.08a12.6,12.6,0,0,1-7-6.45c-2.47-5.76.52-12.11,4.69-14.68l.16-.1,4-1.41h.3c7,0,10.85,2.7,12.68,8.74l.11.35a7.43,7.43,0,0,1,.42,4,13.92,13.92,0,0,1-.87,2.5c-.52,1.21-.81,1.88-.42,3.07a86,86,0,0,0,11.75,24c.21.29.47.66.76,1.09,2.8,4,4.71,6.13,5.68,6.19l.53,0,.42.32a7.32,7.32,0,0,0,1.53.41C84,105.67,111.51,79.39,115,74.5c-1.37-3.8,1.87-9,3-10.17l2.67-2.67.17-.11a11.47,11.47,0,0,1,6.13-1.72c5,0,10.14,3.13,11.9,7.27,2.53,5.95-.23,12.89-4.4,15.64a17.07,17.07,0,0,1-5.06,2,5.43,5.43,0,0,1-1.25.14,10.14,10.14,0,0,1-2.6-.43,8.05,8.05,0,0,0-1.13-.24c-3.44,2.74-32.23,27.72-33.78,29.63-.24.33-.49.74-.76,1.17l-.45.73c4,.71,14.9,1.27,25.83,1.27,3.24,0,6-.06,8.06-.16,1.69-3.11,6-5.48,10.39-5.48a11.07,11.07,0,0,1,3.31.49c5.86,1.83,8.48,5.74,8.48,12.67,0,4.53-2.52,8.45-4.23,9.67a13.83,13.83,0,0,1-7.91,2.33,12.25,12.25,0,0,1-7.13-2.08,11.46,11.46,0,0,1-2.59-2.91,6.27,6.27,0,0,0-2.33-2.4c-2.05-.88-20.89-3.7-31.17-3.7-1.31,0-2.41,0-3.31.13a9.25,9.25,0,0,1,.43,2.83,8.49,8.49,0,0,0,.18,1.67l2.23,8.69a256.68,256.68,0,0,0,10.45,23.82,9.51,9.51,0,0,1,8.74,8.13c.79,4.59-1.29,10.25-6.78,12.21A9.37,9.37,0,0,1,98.88,183.48Z"/><path d="M47.5,58.79c6.52,0,9.45,2.5,11,7.5a6.75,6.75,0,0,1,.5,3.5c-.58,2.54-2.14,3.78-1.25,6.5a88.5,88.5,0,0,0,12,24.5c1.43,2,5,7.83,7.75,8a7.05,7.05,0,0,0,2.79.78.49.49,0,0,0,.21,0c3.33-1.13,36-32.23,36.5-35-1.77-2.74,1.22-7.93,2.25-9l2.5-2.5a9.8,9.8,0,0,1,5.21-1.45c4.49,0,8.85,2.81,10.29,6.2a11.64,11.64,0,0,1-3.75,13.5,15.06,15.06,0,0,1-4.5,1.75,3.65,3.65,0,0,1-.85.1c-1.39,0-2.76-.67-3.83-.67a1.91,1.91,0,0,0-.57.08c-.54.17-33.07,28.33-34.5,30.25-.9,1.21-1.57,2.83-2.75,3.75v.25h.5c1.51,1.32,17,2,28.26,2,3.79,0,7.11-.07,9.24-.22.85-2.76,5-5.41,9.21-5.41a9.31,9.31,0,0,1,2.79.41c4.83,1.51,7.25,4.42,7.25,11a11.47,11.47,0,0,1-3.5,8.25,12.14,12.14,0,0,1-6.89,2A10.51,10.51,0,0,1,127.2,133c-2-1.48-2.79-4.45-5.25-5.5s-21.41-3.84-31.86-3.84a26.93,26.93,0,0,0-4.89.34,5.38,5.38,0,0,0-.25,1.75c.72,1.24.34,3.24.75,4.75l2.25,8.75a268,268,0,0,0,11,25c10.24,0,10.87,14,2.5,17a7.61,7.61,0,0,1-2.57.44c-5.23,0-10.29-5.15-8.93-10.44.63-2.44,2.69-3.69,3-5.75-.76-1-12.23-30.33-18.75-36.5-3.66,1-27.31,21.91-33,31.25a19.55,19.55,0,0,0-1.75,3.5l.5,4.25a15.61,15.61,0,0,1-2.25,6c-1.8,2.48-5.24,3.8-8.68,3.8a10.71,10.71,0,0,1-7.57-2.8c-4.22-4.22-3.51-13,1-16.25a15.68,15.68,0,0,1,5.75-2.25,4.39,4.39,0,0,1,.93-.1c.87,0,1.63.22,2.39.22a2.7,2.7,0,0,0,1.43-.38c8.07-4.77,30.85-28.79,32-32.25-2.58,0-22.33-1.67-29.5-2-.78,2.56-4.31,5-7.94,5a7.28,7.28,0,0,1-2.81-.55c-2.77-1.15-4.15-3.32-5-6.5a8.51,8.51,0,0,1-.25-3.5,9.63,9.63,0,0,1,8.84-6.91,8.29,8.29,0,0,1,4.91,1.66c1.52,1.1,2.78,4.7,3.75,5.25s8,.89,15.14.89c5.85,0,11.66-.21,13.86-.64a10.67,10.67,0,0,1,.75-2c.74-2.48-9.55-23.82-13-29-1.14-1.71-3.79-6.53-5.25-7.5L45.95,78a10.91,10.91,0,0,1-6-5.5c-2.17-5.07.76-10.5,4-12.5l3.5-1.25h0m0-3.5h-.66l-.57.2-1.75.63-1.75.63-.35.12-.31.19c-4.79,3-8.21,10.24-5.38,16.86a14.43,14.43,0,0,0,8,7.41l.42.15.44,0,1.19.12h.08c.83,1.06,2.12,3.19,2.74,4.2.46.75.85,1.4,1.18,1.88,3,4.54,10.89,21,12.25,25.88-2.54.19-6.52.31-10.95.31a125.39,125.39,0,0,1-13.18-.5l-.44-.78a12.61,12.61,0,0,0-3.22-4.2,11.86,11.86,0,0,0-7-2.32,13.15,13.15,0,0,0-12.22,9.47,11.45,11.45,0,0,0,.24,5.34c.77,2.85,2.33,6.86,7,8.82a10.76,10.76,0,0,0,4.16.82,12.71,12.71,0,0,0,10-4.93c4.08.24,10.14.69,15.6,1.09l5.26.38c-6.59,7.66-20.87,22.29-27,26l-.47-.06a12.18,12.18,0,0,0-1.77-.15,7.83,7.83,0,0,0-1.67.17A18.55,18.55,0,0,0,20.39,156a13.71,13.71,0,0,0-5.2,10.18A14.35,14.35,0,0,0,19,177.52a14.2,14.2,0,0,0,10,3.83c4.82,0,9.12-2,11.51-5.24a19.06,19.06,0,0,0,2.85-7.35l.11-.55-.07-.56-.4-3.39c.26-.55.7-1.38,1.16-2.13,4.82-7.91,22.91-24,29.24-28.59,4.7,6.51,11.61,22.61,14.4,29.12.59,1.37,1,2.33,1.3,3l-.42.59a12.09,12.09,0,0,0-2.16,4.17,11.22,11.22,0,0,0,2.18,9.69,13.19,13.19,0,0,0,10.15,5.12,11.11,11.11,0,0,0,3.74-.64c6.4-2.28,8.83-8.85,7.92-14.16a11.14,11.14,0,0,0-9.3-9.45c-3.72-7.71-7.05-14.87-9.94-22.74l-.59-2.31-1.61-6.27a7.81,7.81,0,0,1-.13-1.34c0-.35,0-.73-.07-1.12h1.2c10.57,0,28.45,2.8,30.52,3.57a5.78,5.78,0,0,1,1.55,1.78,13,13,0,0,0,3,3.33,14,14,0,0,0,8.16,2.41,15.61,15.61,0,0,0,8.93-2.66c2.06-1.48,5-5.9,5-11.09,0-7.71-3.08-12.27-9.7-14.34a12.81,12.81,0,0,0-3.83-.57,14.49,14.49,0,0,0-11.37,5.52c-1.89.07-4.32.11-7.08.11-9.44,0-17.9-.4-22.69-.88,4.29-4.14,27.26-24.13,32.32-28.29l.23.06a11.73,11.73,0,0,0,3,.48,7.18,7.18,0,0,0,1.66-.19,18.37,18.37,0,0,0,5.62-2.24,15,15,0,0,0,5-17.79c-2.05-4.83-7.74-8.34-13.52-8.34a13.37,13.37,0,0,0-7,2l-.35.21-.29.29-.83.83-1.67,1.67,0,0,0,0c-1.26,1.31-4.54,6.52-3.61,11C108.41,79.9,85,102.24,79.69,105.94l-.34-.1-.62-.47-.84-.05c-.84-.44-2.38-2.28-4.57-5.46-.3-.44-.57-.82-.79-1.12A84.29,84.29,0,0,1,61,75.21c-.17-.51-.17-.6.36-1.83a15.63,15.63,0,0,0,1-2.81,9.2,9.2,0,0,0-.46-5l-.1-.31c-2.06-6.82-6.6-10-14.3-10Z"/><path class="cls-24" d="M124.45,118.82c-6.83.48-25.66.19-33.76-.86-.51.84-.69,1.67-1.69,2.24V120h.33c2,2,29,2.57,37.5,2,1-3.37,7-6.47,12-4.89a11.61,11.61,0,0,1,4,2.11c-1.09-2.84-3.21-4.41-6.39-5.41C131.4,112.21,125.48,115.45,124.45,118.82Z"/><path class="cls-24" d="M72.08,104.45c1.43,2,5,7.83,7.75,8a6.26,6.26,0,0,0,3,.75c3.33-1.13,36-32.23,36.5-35-1.77-2.74,1.22-7.93,2.25-9l2.5-2.5c4.44-2.74,10-1.27,13.24,1.69,0-.11-.07-.22-.12-.32-2-4.73-9.71-8.33-15.5-4.75l-2.5,2.5c-1,1.07-4,6.26-2.25,9-.53,2.77-33.17,33.87-36.5,35a6.26,6.26,0,0,1-3-.75c-1.75-.11-3.88-2.61-5.56-4.89Z"/><path class="cls-24" d="M99.71,164.61l1.61,3.34a8.3,8.3,0,0,1,5.33,1.75A7.66,7.66,0,0,0,99.71,164.61Z"/><path class="cls-24" d="M69.08,118.45c.74-2.48-9.55-23.82-13-29a72,72,0,0,0-4.49-6.79c.84,1.34,1.62,2.67,2.11,3.41,3.45,5.18,13.74,26.52,13,29a10.66,10.66,0,0,0-.75,2c-4.7.92-26,.82-28.79-.15.83,1.38,1.56,2.93,2.17,3.28,1.58,1.06,24.15,1.2,29,.25A10.66,10.66,0,0,1,69.08,118.45Z"/><path class="cls-24" d="M42.25,76c-2-5,.88-10.32,4.08-12.29l3.5-1.25c3.66,0,6.18.77,8,2.33-1.67-3.81-4.63-5.72-10.35-5.71l-3.5,1.25c-3.24,2-6.17,7.43-4,12.5A9.69,9.69,0,0,0,42.25,76Z"/><path class="cls-24" d="M24.83,162.45a15.68,15.68,0,0,1,5.75-2.25c1.87-.4,3.23.65,4.75-.25,8.07-4.77,30.85-28.79,32-32.25-.62,0-2.26-.12-4.47-.27-6,7.59-23.14,25.14-29.91,29.14-1.52.9-2.88-.15-4.75.25a15.68,15.68,0,0,0-5.75,2.25c-4.51,3.27-5.22,12-1,16.25.14.14.29.26.44.38C20.05,171.2,21.22,165.07,24.83,162.45Z"/><path class="cls-24" d="M92.33,174.95c.63-2.44,2.69-3.69,3-5.75-.72-1-11-27.23-17.65-35.29,6.47,10.31,14.63,31,15.27,31.91-.31,2.06-2.37,3.31-3,5.75a8,8,0,0,0,2.69,7.89A7.25,7.25,0,0,1,92.33,174.95Z"/><path class="cls-24" d="M22.73,125.64a15.92,15.92,0,0,1-.65-1.94,8.51,8.51,0,0,1-.25-3.5c1.42-5.13,8-9.37,13.75-5.25l0,0a11.58,11.58,0,0,0-2.4-3.4c-5.71-4.12-12.33.12-13.75,5.25a8.51,8.51,0,0,0,.25,3.5A9.83,9.83,0,0,0,22.73,125.64Z"/><path class="cls-25" d="M706,163.94l0-.15s0-.05,0-.08a56.71,56.71,0,0,0-5.48-15l-.08-.13c0-.09-.08-.19-.13-.28a5.82,5.82,0,0,0-.69-1,14.4,14.4,0,0,0-4-14.31c1-5.79,2.07-24.8-21.95-41.37a55.84,55.84,0,0,0-.13-8.21c-.51-3.22-4.24-4.85-10.21-6.85h0c-.29,0-.58-.6-.88-.67,0,0-.1-.25-.14-.26-.27-.06-.53-.24-.81-.3,0,0-.09-.08-.14-.09-1-.21-2-.43-3-.6l-.17,0-.9-.14-.17,0-1.06-.14h0q-1.11-.14-2.28-.25l-.22,0-1-.08-.24,0-1.08-.08s-.06.4-.09.4c-.42,0-.83.33-1.26.33h0c-.4,0-.8-.45-1.21-.46-.09,0-.18-.21-.27-.21s-.3-.11-.46-.12c8.11-3.6,14-8.14,13.16-13.16-1.64-10.35-8.17-50.8-51.7-43.9-23.88,3.78-32.77,17.68-35.65,31.17a5.06,5.06,0,0,0-6,2.26c-1.49,2.45-1.7,3.23-2.42,4.19a14.47,14.47,0,0,0-8.81-5.2,50.36,50.36,0,0,1-2.16-11.12,5,5,0,0,0-4.73-4.78c-2.55,0-4.66,2.42-4.43,5.47,0,.05,0,.1,0,.16s0,.05,0,.08a56.78,56.78,0,0,0,2.07,11.67,14.3,14.3,0,0,0-2.39,1.6,50.24,50.24,0,0,1-4.63-9.9,5,5,0,0,0-5.77-3.46c-2.49.59-3.92,3.5-2.94,6.39l.06.15,0,.08a56.71,56.71,0,0,0,7.13,14.33l.1.12.16.26a5.82,5.82,0,0,0,.8.93,14.4,14.4,0,0,0,5.61,13.77c-.37,6.26.87,27.51,32,41.38a350.59,350.59,0,0,0,23.66,46.62c0-.13,0-.26.05-.39l2.35,3.09,0-.19c-.45,2.47-.81,5-1,7.64-2,23.29,6.16,43,18.27,44.08,4.11.36,18.22,1.2,22.2,1.55,12.11,1.05,23.57-17,25.59-40.27.19-2.18.29-4.34.3-6.44q0-2.17-.09-4.27a68.16,68.16,0,0,0-1.32-10.6,5.34,5.34,0,0,0,3.11-2c1.75-2.27,2-3,2.87-3.9a14.47,14.47,0,0,0,8.17,6.15,50.35,50.35,0,0,1,.9,11.29,5,5,0,0,0,4.17,5.28c2.53.33,4.9-1.88,5-4.94,0-.05,0-.11,0-.16s0-.05,0-.08a56.78,56.78,0,0,0-.75-11.83,14.3,14.3,0,0,0,2.56-1.32A50.24,50.24,0,0,1,697,165.88a5,5,0,0,0,5.34,4.09C704.86,169.65,706.61,166.93,706,163.94Zm-86.21-31.27a9.48,9.48,0,0,1,2.2.3,10.83,10.83,0,0,0-2.31-.28c-.3,0-.59,0-.89,0A9.17,9.17,0,0,1,619.75,132.67ZM569,63.56l.17-.16a26.4,26.4,0,0,0,3.25-3.6,88.57,88.57,0,0,0,1.27,14.52c.83,5.23,8.31,7.69,17.64,8.51l-.95.37-.27.11-1,.41-.16.06-1.17.49-.1,0-1,.44-.23.1-1,.44-.11.05-1.07.51-.1,0-.91.45-.2.1-.9.47-.06,0-1,.53-.09.05-.8.46-.16.1-.82.5h0l-.84.54-.08.06-.69.47-.14.1-.72.52h0a22.33,22.33,0,0,0-3.18,2.81c-5.06-4.24-10-10.5-10.23-18.88a14.46,14.46,0,0,0,5-10.17A5.94,5.94,0,0,0,569,63.56Zm101.54,78a24.72,24.72,0,0,0-2.74,2.32c1.89-9.84,3.25-20.11,4.17-29.38,3.45,4.47,6.09,10.2,5.53,17a14.46,14.46,0,0,0-6.12,9.54,6,6,0,0,0-.65.41Z"/><path class="cls-26" d="M569,63.56l.17-.16a33.51,33.51,0,0,0,6.39-8.52c1.6-2.61.81-5.78-1.48-6.9a5,5,0,0,0-6.41,2.08c-2.44,4-1.44,3.56-4.9,6.75a5,5,0,0,0-.81,6.68C563.53,65.51,566.77,65.64,569,63.56Z"/><circle class="cls-27" cx="554.02" cy="63.27" r="14.42" transform="translate(3.14 149.69) rotate(-15.43)"/><ellipse class="cls-28" cx="554.59" cy="72.48" rx="9.69" ry="5.05" transform="translate(-3.62 37.55) rotate(-3.87)"/><path class="cls-29" d="M578.29,116.58c2,.76,5-2.36,6.78-7s1.63-8.95-.34-9.71c0,0-22.4-8.89-21.3-27.7-.09-2.1-4.17-3.63-9.1-3.41s-8.85,2.11-8.76,4.21C545.58,73,540.45,100.2,578.29,116.58Z"/><circle class="cls-30" cx="553.17" cy="53.7" r="5.38" transform="translate(5.65 149.12) rotate(-15.43)"/><circle class="cls-31" cx="543.74" cy="58.12" r="4.88" transform="translate(4.14 146.77) rotate(-15.43)"/><path class="cls-26" d="M545.15,38.64c0,.05,0,.1,0,.16s0,.05,0,.08a56.71,56.71,0,0,0,3.38,15.64s0,.09.06.14.06.2.09.29c1.06,2.87,4,4.22,6.33,3.12a5,5,0,0,0,2.35-6.32,51.06,51.06,0,0,1-3.07-13.81,5,5,0,0,0-4.73-4.78C547,33.13,544.92,35.59,545.15,38.64Z"/><path class="cls-26" d="M531.52,45.18l.06.15,0,.08a56.71,56.71,0,0,0,7.13,14.33l.1.12.16.26c1.73,2.52,4.94,3.1,6.9,1.46a5,5,0,0,0,.72-6.7,51.06,51.06,0,0,1-6.38-12.62,5,5,0,0,0-5.77-3.46C532,39.38,530.54,42.28,531.52,45.18Z"/><ellipse class="cls-32" cx="638.44" cy="218.25" rx="41.31" ry="6.45"/><ellipse class="cls-33" cx="646.62" cy="176.41" rx="42.33" ry="22.01" transform="translate(414.98 805.37) rotate(-85.04)"/><path class="cls-34" d="M650.28,134.24c-4.11-.36-18.22-1.2-22.2-1.55-12.11-1.05-23.57,17-25.59,40.27s6.16,43,18.27,44.08c4.11.36,18.22,1.2,22.2,1.55,12.11,1.05,23.57-17,25.59-40.27S662.39,135.29,650.28,134.24Z"/><ellipse class="cls-35" cx="646.62" cy="176.41" rx="42.33" ry="22.01" transform="translate(414.98 805.37) rotate(-85.04)"/><ellipse class="cls-36" cx="646.62" cy="176.41" rx="22.01" ry="11.45" transform="matrix(0.09, -1, 1, 0.09, 414.98, 805.37)"/><g class="cls-37"><path d="M619.64,132.69c-8.89-.09-16.63,11.77-18.93,29.17l2.77,3.66c3.31-15.67,7.7-23,16.81-22.3,7.53.56,14.88,9.19,18.13,26.38C637.48,143.07,628.17,132.77,619.64,132.69Z"/></g><path class="cls-27" d="M619.86,75.52c-28.23,4.47-50,15-48.66,23.57.78,4.91,13.69,37.6,29.89,63.72,2.19-17.38,9.77-30.22,18.67-30.14,10.45.1,20,18.05,18.54,40-.81,12,3.33,15.37,7.94,14.64,23.29-3.69,28.53-95.85,27.18-104.4S648.08,71.05,619.86,75.52Z"/><path class="cls-38" d="M663.2,75.6c-9.85-2.63-25.77-2.86-43.35-.08-18.92,3-34.94,8.72-43,14.75,5.27,7.87,29.81,7.26,44.95,4.86C637.46,92.65,662.17,85.21,663.2,75.6Z"/><path class="cls-27" d="M661,60.49c1.64,10.35-24.89,18.46-41.41,21.07s-44.26,3.1-45.9-7.24-7.88-50.82,35.61-57.71S659.38,50.14,661,60.49Z"/><ellipse class="cls-39" cx="592.03" cy="45.71" rx="9.02" ry="11.56" transform="matrix(0.99, -0.16, 0.16, 0.99, 0.14, 93.18)"/><ellipse class="cls-40" cx="615.78" cy="41.94" rx="9.02" ry="11.56" transform="translate(1.02 96.85) rotate(-9)"/><ellipse class="cls-41" cx="663.37" cy="96.16" rx="11.37" ry="5.92" transform="translate(254.17 627.07) rotate(-60.62)"/><ellipse class="cls-42" cx="588.78" cy="45.31" rx="4.51" ry="5.78" transform="translate(0.16 92.66) rotate(-9)"/><ellipse class="cls-43" cx="612.53" cy="41.55" rx="4.51" ry="5.78" transform="translate(1.04 96.33) rotate(-9)"/><path class="cls-44" d="M607.08,67c-7.69,1.22-13.32-.88-19-4.79,4.64,6.05,11,9.71,19.6,8.35s13.52-6.81,16.07-14C619.47,62,614.77,65.76,607.08,67Z"/><path class="cls-26" d="M649.65,170.2c-.46,0-2.07-.08-2.48-.11-1.82-.16-3.54,2.55-3.84,6s.92,6.45,2.74,6.61c.46,0,2.07.08,2.48.11,1.82.16,3.54-2.55,3.84-6S651.47,170.36,649.65,170.2Z"/><ellipse class="cls-29" cx="649.1" cy="176.53" rx="6.35" ry="3.3" transform="matrix(0.09, -1, 1, 0.09, 417.13, 807.94)"/><path class="cls-45" d="M616.53,114.64a42.56,42.56,0,0,0-6-4c.8-3.63,2-6.13,3.13-6.72a1,1,0,0,1,.4-.12c1.54-.12,3.74,3.4,5.39,8.6C618.48,113.08,617.47,113.85,616.53,114.64Z"/><path class="cls-45" d="M617.84,129.16a5.2,5.2,0,0,1-.63.27l-.16.06-.36.1-.36.07-.28,0a4.69,4.69,0,0,1-3.92-1.74c-1.45-2.06-.64-5.39,2.15-8.65a26.93,26.93,0,0,1,2.27-2.33c3.4,3.17,4.83,6.64,3.82,9.34a7,7,0,0,1-.6,1.14c-.1.14-.21.29-.33.44A5.17,5.17,0,0,1,617.84,129.16Z"/><path class="cls-45" d="M610,123.19a18.13,18.13,0,0,1-.29-2.13,36.56,36.56,0,0,1,.48-8.6,39.27,39.27,0,0,1,5,3.36,28.1,28.1,0,0,0-2.26,2.34A14.29,14.29,0,0,0,610,123.19Z"/><path class="cls-45" d="M621.08,119.79a17.42,17.42,0,0,0-3.2-4c.69-.58,1.41-1.12,2.13-1.64A35.13,35.13,0,0,1,621.08,119.79Z"/><path class="cls-45" d="M609.94,128a19.91,19.91,0,0,1-2.47-1.82,43,43,0,0,1-8-9.61c-2.62-4.32-2.82-6.72-2.13-7.53a1.27,1.27,0,0,1,.4-.3c1.63-.83,6,.31,10.84,2.85a39.54,39.54,0,0,0-.61,9.63A15.1,15.1,0,0,0,609.94,128Z"/><path class="cls-45" d="M622.59,125.09a17.15,17.15,0,0,0,.28-5.06,36.91,36.91,0,0,0-1.32-6.89c.69-.43,1.34-.81,2-1.12,2.52-1.29,3.93-1.31,4.41-.9C629.48,112.45,626.5,120.1,622.59,125.09Z"/><path class="cls-26" d="M670.75,141.47l-.19.14a33.51,33.51,0,0,0-7.31,7.75c-1.88,2.42-1.46,5.65.7,7a5,5,0,0,0,6.61-1.35c2.88-3.72,1.83-3.37,5.63-6.16a5,5,0,0,0,1.55-6.54C676.42,140.15,673.22,139.66,670.75,141.47Z"/><circle class="cls-27" cx="685.62" cy="143.44" r="14.42" transform="translate(-14 109.02) rotate(-9)"/><ellipse class="cls-46" cx="686.09" cy="134.23" rx="5.05" ry="9.69" transform="translate(521.29 813.63) rotate(-87.43)"/><path class="cls-29" d="M667.48,87.75c-1.87-1-5.23,1.78-7.52,6.16s-2.62,8.71-.75,9.69c0,0,21.26,11.34,18.06,29.91-.14,2.1,3.73,4.08,8.66,4.41s9-1.1,9.17-3.2C695.1,134.7,703.24,108.27,667.48,87.75Z"/><circle class="cls-47" cx="685.41" cy="153.05" r="5.38" transform="translate(-15.5 109.11) rotate(-9)"/><circle class="cls-48" cx="695.26" cy="149.71" r="4.88" transform="translate(-14.86 110.61) rotate(-9)"/><path class="cls-26" d="M691.68,168.91c0-.05,0-.11,0-.16s0-.05,0-.08a56.71,56.71,0,0,0-1.61-15.92c0-.05,0-.1,0-.14s0-.2-.06-.3c-.73-3-3.53-4.64-5.94-3.81a5,5,0,0,0-3,6,51.06,51.06,0,0,1,1.51,14.06,5,5,0,0,0,4.17,5.28C689.21,174.18,691.57,172,691.68,168.91Z"/><path class="cls-26" d="M706,163.94l0-.15s0-.05,0-.08a56.71,56.71,0,0,0-5.48-15l-.08-.13c0-.09-.08-.19-.13-.28-1.44-2.7-4.56-3.63-6.7-2.23a5,5,0,0,0-1.46,6.58A51.06,51.06,0,0,1,697,165.88a5,5,0,0,0,5.34,4.09C704.86,169.65,706.61,166.93,706,163.94Z"/><path d="M350.11,123.89H337.9V137h-8.32V123.89H317.44v-7.33h12.14V103.5h8.32v13.07h12.21Z"/><path d="M193.08,123.89H180.87V137h-8.32V123.89H160.41v-7.33h12.14V103.5h8.32v13.07h12.21Z"/><path d="M506.73,110.55h30v7.36h-30Zm0,12.11h30V130h-30Z"/></g></g></svg>