<svg id="Layer_1" data-name="Layer 1" xmlns="http://www.w3.org/2000/svg" viewBox="0 0 3000 664.27"><defs><style>.cls-1{fill:#e45373;}.cls-2{fill:#353535;fill-rule:evenodd;}.cls-3{fill:#1d1d1b;}.cls-4{fill:#fff;opacity:0.2;}</style></defs><title>people</title><g id="Layer_1-2" data-name="Layer 1"><path class="cls-1" d="M356.51-130a65.08,65.08,0,0,1-65-65,65.2,65.2,0,0,1,65-65,65.21,65.21,0,0,1,65,65A65.21,65.21,0,0,1,356.51-130Zm0-124.48a59.33,59.33,0,0,0-59.28,59.27,59.33,59.33,0,0,0,59.28,59.28,59.33,59.33,0,0,0,59.27-59.28A59.33,59.33,0,0,0,356.51-254.5ZM1208-494.09a65.07,65.07,0,0,1-65-65,65.2,65.2,0,0,1,65-65,65.07,65.07,0,0,1,65,65A65.07,65.07,0,0,1,1208-494.09Zm0-124.29a59.33,59.33,0,0,0-59.28,59.28A59.32,59.32,0,0,0,1208-499.83a59.32,59.32,0,0,0,59.28-59.27A59.33,59.33,0,0,0,1208-618.38ZM959,164.44a65,65,0,1,1,65-65A65.08,65.08,0,0,1,959,164.44ZM959,40a59.28,59.28,0,1,0,59.28,59.28A59.33,59.33,0,0,0,959,40Zm-32.69-891a65.09,65.09,0,0,1-65-65,65.2,65.2,0,0,1,65-65,65.08,65.08,0,0,1,65,65,65.21,65.21,0,0,1-65,65Zm0-124.48A59.33,59.33,0,0,0,867-916.28,59.33,59.33,0,0,0,926.32-857a59.33,59.33,0,0,0,59.27-59.27,59.33,59.33,0,0,0-59.27-59.28ZM1386-942.86a65.08,65.08,0,0,1-65-65,65.08,65.08,0,0,1,65-65,65.21,65.21,0,0,1,65,65A65.21,65.21,0,0,1,1386-942.86Zm0-124.48a59.33,59.33,0,0,0-59.28,59.28A59.33,59.33,0,0,0,1386-948.79a59.32,59.32,0,0,0,59.27-59.27A59.32,59.32,0,0,0,1386-1067.34Zm558.14,410.15a65.09,65.09,0,0,1-65-65,65.09,65.09,0,0,1,65-65,65.09,65.09,0,0,1,65,65C2009.34-686.45,1980.08-657.19,1944.13-657.19Zm0-124.48a59.33,59.33,0,0,0-59.27,59.27,59.33,59.33,0,0,0,59.27,59.28,59.33,59.33,0,0,0,59.28-59.28A59.33,59.33,0,0,0,1944.13-781.67ZM1332.64-262.91a56.31,56.31,0,0,1-56.22-56.22,56.31,56.31,0,0,1,56.22-56.22,56.31,56.31,0,0,1,56.22,56.22A56.31,56.31,0,0,1,1332.64-262.91Zm0-106.7a50.43,50.43,0,0,0-50.48,50.48,50.43,50.43,0,0,0,50.48,50.48,50.43,50.43,0,0,0,50.48-50.48A50.55,50.55,0,0,0,1332.64-369.61ZM1553.11,43.21A56.31,56.31,0,0,1,1496.89-13a56.31,56.31,0,0,1,56.22-56.22A56.31,56.31,0,0,1,1609.32-13,56.3,56.3,0,0,1,1553.11,43.21Zm0-106.88a50.43,50.43,0,0,0-50.48,50.48,50.43,50.43,0,0,0,50.48,50.48,50.44,50.44,0,0,0,50.48-50.48A50.43,50.43,0,0,0,1553.11-63.67Zm494.09-4.21a50.84,50.84,0,0,1-50.87-50.86,50.84,50.84,0,0,1,50.87-50.86,50.84,50.84,0,0,1,50.86,50.86A51.08,51.08,0,0,1,2047.2-67.88Zm0-95.8a45.21,45.21,0,0,0-45.13,45.13,45.21,45.21,0,0,0,45.13,45.13,45.21,45.21,0,0,0,45.12-45.13A45.33,45.33,0,0,0,2047.2-163.68ZM1944.13,37.48a41.78,41.78,0,0,1-41.68-41.69,41.78,41.78,0,0,1,41.68-41.68,41.78,41.78,0,0,1,41.69,41.68,41.66,41.66,0,0,1-41.69,41.69Zm0-77.44a36,36,0,0,0-35.94,36,35.9,35.9,0,0,0,35.94,35.94A35.9,35.9,0,0,0,1980.08-4,35.9,35.9,0,0,0,1944.13-40Zm-919.91-996.4A41.79,41.79,0,0,1,982.53-1078a41.78,41.78,0,0,1,41.69-41.68A41.78,41.78,0,0,1,1065.9-1078,41.91,41.91,0,0,1,1024.22-1036.36Zm0-77.44a36,36,0,0,0-36,35.94,35.9,35.9,0,0,0,36,35.95,35.9,35.9,0,0,0,35.94-35.95A36,36,0,0,0,1024.22-1113.8ZM2219.86,294.47a55.65,55.65,0,1,1,55.64-55.65A55.7,55.7,0,0,1,2219.86,294.47Zm0-105.74a49.91,49.91,0,1,0,49.91,49.9A49.95,49.95,0,0,0,2219.86,188.73Zm482-2.11a40.16,40.16,0,1,1,40.16-40.15A40.14,40.14,0,0,1,2701.9,186.62Zm0-74.57a34.42,34.42,0,1,0,34.42,34.42A34.51,34.51,0,0,0,2701.9,112.05ZM2590-251.25a52.27,52.27,0,0,1-52.2-52.2,52.39,52.39,0,0,1,52.2-52.2,52.27,52.27,0,0,1,52.21,52.2A52.27,52.27,0,0,1,2590-251.25Zm0-98.86a46.52,46.52,0,0,0-46.46,46.47A46.51,46.51,0,0,0,2590-257.18a46.51,46.51,0,0,0,46.47-46.46A46.4,46.4,0,0,0,2590-350.11ZM2939,77.06a31.74,31.74,0,1,1,31.74-31.74A31.79,31.79,0,0,1,2939,77.06Zm0-57.94a26,26,0,1,0,26,26A26,26,0,0,0,2939,19.12ZM2826-88.72a38.44,38.44,0,0,1-38.43-38.43A38.44,38.44,0,0,1,2826-165.59a38.44,38.44,0,0,1,38.43,38.44A38.44,38.44,0,0,1,2826-88.72Zm0-71.32a32.68,32.68,0,0,0-32.7,32.69,32.81,32.81,0,0,0,32.7,32.7,32.81,32.81,0,0,0,32.7-32.7A32.81,32.81,0,0,0,2826-160ZM2266.32-319.9a42.59,42.59,0,0,1-42.44-42.44,42.6,42.6,0,0,1,42.44-42.45,42.6,42.6,0,0,1,42.45,42.45A42.6,42.6,0,0,1,2266.32-319.9Zm0-79.16a36.73,36.73,0,0,0-36.71,36.72,36.73,36.73,0,0,0,36.71,36.71A36.73,36.73,0,0,0,2303-362.34,36.86,36.86,0,0,0,2266.32-399.06ZM2760,350.49a18,18,0,1,1,18-18A18,18,0,0,1,2760,350.49Zm0-30.21a12.24,12.24,0,1,0,12.24,12.24A12.32,12.32,0,0,0,2760,320.28ZM2347.4,652.6a40.15,40.15,0,1,1,40.15-40.15A40.15,40.15,0,0,1,2347.4,652.6Zm0-74.57a34.42,34.42,0,1,0,34.42,34.42A34.52,34.52,0,0,0,2347.4,578Zm72.47-96.94a18.74,18.74,0,1,1,18.74-18.74A18.77,18.77,0,0,1,2419.87,481.09Zm0-31.93a13,13,0,1,0,13,13A13,13,0,0,0,2419.87,449.16ZM2269.77-11.28a31.18,31.18,0,0,1-31.17-31.17,31.18,31.18,0,0,1,31.17-31.17,31.17,31.17,0,0,1,31.16,31.17A31.17,31.17,0,0,1,2269.77-11.28Zm0-56.6a25.55,25.55,0,0,0-25.44,25.43A25.55,25.55,0,0,0,2269.77-17a25.55,25.55,0,0,0,25.43-25.43A25.55,25.55,0,0,0,2269.77-67.88ZM1812.58,225.63a80.69,80.69,0,1,1,80.69-80.69A80.71,80.71,0,0,1,1812.58,225.63Zm0-155.65a75,75,0,1,0,75,75A75.08,75.08,0,0,0,1812.58,70ZM1644.7-465.22A80.7,80.7,0,0,1,1564-545.91a80.7,80.7,0,0,1,80.69-80.69,80.71,80.71,0,0,1,80.69,80.69A80.71,80.71,0,0,1,1644.7-465.22Zm0-155.64a75.08,75.08,0,0,0-75,75,75.09,75.09,0,0,0,75,75,75.08,75.08,0,0,0,75-75A75.07,75.07,0,0,0,1644.7-620.86Zm775.17-404.61a80.69,80.69,0,0,1-80.69-80.69,80.7,80.7,0,0,1,80.69-80.69,80.71,80.71,0,0,1,80.69,80.69A80.83,80.83,0,0,1,2419.87-1025.47Zm0-155.83a75.08,75.08,0,0,0-75,75,75.09,75.09,0,0,0,75,75,75.08,75.08,0,0,0,75-75A75.07,75.07,0,0,0,2419.87-1181.3ZM1760.57-108.22A105.35,105.35,0,0,1,1655.4-213.39a105.35,105.35,0,0,1,105.17-105.17,105.35,105.35,0,0,1,105.17,105.17A105.23,105.23,0,0,1,1760.57-108.22Zm0-204.6a99.47,99.47,0,0,0-99.43,99.43A99.47,99.47,0,0,0,1760.57-114,99.47,99.47,0,0,0,1860-213.39,99.47,99.47,0,0,0,1760.57-312.82ZM376.2-306.51a36.31,36.31,0,0,1-36.33-36.33,36.31,36.31,0,0,1,36.33-36.33,36.31,36.31,0,0,1,36.33,36.33A36.31,36.31,0,0,1,376.2-306.51Zm0-66.92a30.67,30.67,0,0,0-30.59,30.59,30.67,30.67,0,0,0,30.59,30.59,30.68,30.68,0,0,0,30.6-30.59A30.56,30.56,0,0,0,376.2-373.43ZM48.47-93.69A36.32,36.32,0,0,1,12.14-130a36.31,36.31,0,0,1,36.33-36.33A36.32,36.32,0,0,1,84.8-130,36.32,36.32,0,0,1,48.47-93.69Zm0-67.12a30.69,30.69,0,0,0-30.6,30.6,30.69,30.69,0,0,0,30.6,30.59,30.69,30.69,0,0,0,30.59-30.59A30.57,30.57,0,0,0,48.47-160.81Zm651.64,179a31.5,31.5,0,0,1-31.36-31.36,31.5,31.5,0,0,1,31.36-31.36,31.5,31.5,0,0,1,31.36,31.36A31.38,31.38,0,0,1,700.11,18.17Zm0-57a25.63,25.63,0,0,0-25.62,25.63,25.62,25.62,0,0,0,25.62,25.62,25.63,25.63,0,0,0,25.63-25.62A25.64,25.64,0,0,0,700.11-38.82Zm248,22.57a31.5,31.5,0,0,1-31.35-31.36A31.5,31.5,0,0,1,948.11-79a31.5,31.5,0,0,1,31.36,31.36A31.5,31.5,0,0,1,948.11-16.25Zm0-57a25.62,25.62,0,0,0-25.62,25.62A25.62,25.62,0,0,0,948.11-22a25.63,25.63,0,0,0,25.63-25.62A25.63,25.63,0,0,0,948.11-73.23Zm447.63-1067.34a31.5,31.5,0,0,1-31.36-31.36,31.5,31.5,0,0,1,31.36-31.36,31.5,31.5,0,0,1,31.36,31.36A31.5,31.5,0,0,1,1395.74-1140.57Zm0-57a25.63,25.63,0,0,0-25.62,25.63,25.62,25.62,0,0,0,25.62,25.62,25.62,25.62,0,0,0,25.62-25.62A25.63,25.63,0,0,0,1395.74-1197.56ZM1983-1416.49a31.5,31.5,0,0,1-31.36-31.36,31.5,31.5,0,0,1,31.36-31.36,31.5,31.5,0,0,1,31.36,31.36A31.5,31.5,0,0,1,1983-1416.49Zm0-57a25.62,25.62,0,0,0-25.62,25.62,25.62,25.62,0,0,0,25.62,25.62,25.62,25.62,0,0,0,25.62-25.62A25.62,25.62,0,0,0,1983-1473.47ZM1198.41,333.47a31.36,31.36,0,1,1,31.36-31.36A31.5,31.5,0,0,1,1198.41,333.47Zm0-57A25.63,25.63,0,1,0,1224,302.11,25.62,25.62,0,0,0,1198.41,276.49ZM1999.2-856.43a31.5,31.5,0,0,1-31.36-31.36,31.5,31.5,0,0,1,31.36-31.36,31.5,31.5,0,0,1,31.36,31.36A31.5,31.5,0,0,1,1999.2-856.43Zm0-57a25.63,25.63,0,0,0-25.62,25.63,25.62,25.62,0,0,0,25.62,25.62,25.62,25.62,0,0,0,25.62-25.62A25.63,25.63,0,0,0,1999.2-913.42ZM1720,351.45a31.36,31.36,0,1,1,31.36-31.36A31.49,31.49,0,0,1,1720,351.45Zm0-57a25.62,25.62,0,1,0,25.63,25.62A25.62,25.62,0,0,0,1720,294.47ZM1961,345a31.36,31.36,0,1,1,31.36-31.36A31.5,31.5,0,0,1,1961,345Zm0-57a25.63,25.63,0,1,0,25.62,25.63A25.63,25.63,0,0,0,1961,288ZM1033.59,640.37a27.16,27.16,0,1,1,27.15-27.15A27.26,27.26,0,0,1,1033.59,640.37Zm0-48.57A21.42,21.42,0,1,0,1055,613.21,21.38,21.38,0,0,0,1033.59,591.8Zm872.87,70.94a30.21,30.21,0,1,1,30.22-30.21A30.28,30.28,0,0,1,1906.46,662.74Zm0-54.5a24.48,24.48,0,1,0,24.48,24.48A24.52,24.52,0,0,0,1906.46,608.24Zm-397.14-4.59a22,22,0,1,1,22-22A22,22,0,0,1,1509.32,603.65Zm0-38.43a16.26,16.26,0,1,0,16.25,16.25A16.24,16.24,0,0,0,1509.32,565.22Zm139.39,99a18.36,18.36,0,1,1,18.36-18.36A18.36,18.36,0,0,1,1648.71,664.27Zm0-31a12.62,12.62,0,0,0,0,25.24,12.62,12.62,0,0,0,0-25.24ZM1511.42,314a18.36,18.36,0,1,1,18.36-18.36A18.36,18.36,0,0,1,1511.42,314Zm0-31A12.62,12.62,0,1,0,1524,295.61,12.61,12.61,0,0,0,1511.42,283Zm513.79-101.91a23.52,23.52,0,1,1,23.52-23.52A23.5,23.5,0,0,1,2025.21,181.08Zm0-41.11A17.78,17.78,0,1,0,2043,157.75,17.88,17.88,0,0,0,2025.21,140ZM1128.43-954.91a23.49,23.49,0,0,1-23.52-23.52,23.5,23.5,0,0,1,23.52-23.52A23.51,23.51,0,0,1,1152-978.43,23.5,23.5,0,0,1,1128.43-954.91Zm0-41.3a17.87,17.87,0,0,0-17.79,17.78,17.88,17.88,0,0,0,17.79,17.79,17.88,17.88,0,0,0,17.78-17.79A17.87,17.87,0,0,0,1128.43-996.21Zm856.62-262.72a23.51,23.51,0,0,1-23.52-23.52,23.5,23.5,0,0,1,23.52-23.52,23.49,23.49,0,0,1,23.52,23.52A23.5,23.5,0,0,1,1985.05-1258.93Zm0-41.11a17.87,17.87,0,0,0-17.78,17.78,17.87,17.87,0,0,0,17.78,17.78,17.88,17.88,0,0,0,17.79-17.78A17.88,17.88,0,0,0,1985.05-1300Zm357.76,66a23.5,23.5,0,0,1-23.52-23.52,23.5,23.5,0,0,1,23.52-23.51,23.5,23.5,0,0,1,23.52,23.51A23.5,23.5,0,0,1,2342.81-1234.08Zm0-41.11A17.87,17.87,0,0,0,2325-1257.4a17.87,17.87,0,0,0,17.78,17.78,17.87,17.87,0,0,0,17.78-17.78A17.87,17.87,0,0,0,2342.81-1275.19Zm421.43-369.23a23.5,23.5,0,0,1-23.52-23.51,23.5,23.5,0,0,1,23.52-23.52,23.5,23.5,0,0,1,23.52,23.52A23.62,23.62,0,0,1,2764.24-1644.42Zm0-41.11a17.87,17.87,0,0,0-17.78,17.79,17.87,17.87,0,0,0,17.78,17.78,17.87,17.87,0,0,0,17.78-17.78A17.87,17.87,0,0,0,2764.24-1685.53ZM2426.94,89.68a27.15,27.15,0,1,1,27.15-27.15A27.26,27.26,0,0,1,2426.94,89.68Zm0-48.38a21.42,21.42,0,1,0,21.42,21.42A21.38,21.38,0,0,0,2426.94,41.3ZM1050.79-1265.44a27.25,27.25,0,0,1-27.15-27.15,27.26,27.26,0,0,1,27.15-27.15,27.26,27.26,0,0,1,27.16,27.15A27.25,27.25,0,0,1,1050.79-1265.44Zm0-48.37a21.38,21.38,0,0,0-21.41,21.41,21.38,21.38,0,0,0,21.41,21.42,21.38,21.38,0,0,0,21.42-21.42A21.38,21.38,0,0,0,1050.79-1313.81ZM2647.22-741.13a55.7,55.7,0,0,1-55.65-55.65,55.82,55.82,0,0,1,55.65-55.64,55.7,55.7,0,0,1,55.64,55.64A55.7,55.7,0,0,1,2647.22-741.13Zm0-105.55a49.94,49.94,0,0,0-49.91,49.9,49.94,49.94,0,0,0,49.91,49.91,49.94,49.94,0,0,0,49.9-49.91A49.94,49.94,0,0,0,2647.22-846.68Zm-116.07-428.51a55.7,55.7,0,0,1-55.64-55.64,55.82,55.82,0,0,1,55.64-55.64,55.81,55.81,0,0,1,55.64,55.64A55.69,55.69,0,0,1,2531.15-1275.19Zm0-105.55a50,50,0,0,0-49.9,49.91,49.94,49.94,0,0,0,49.9,49.91,49.94,49.94,0,0,0,49.91-49.91A50,50,0,0,0,2531.15-1380.74ZM2775-383a40.15,40.15,0,0,1-40.16-40.15A40.15,40.15,0,0,1,2775-463.3a40.14,40.14,0,0,1,40.15,40.15A40.14,40.14,0,0,1,2775-383Zm0-74.38A34.52,34.52,0,0,0,2740.53-423,34.52,34.52,0,0,0,2775-388.54,34.51,34.51,0,0,0,2809.36-423,34.51,34.51,0,0,0,2775-457.38Zm72.27-97.13a18.77,18.77,0,0,1-18.73-18.74A18.76,18.76,0,0,1,2847.22-592,18.77,18.77,0,0,1,2866-573.25,18.65,18.65,0,0,1,2847.22-554.51Zm0-31.93a13,13,0,0,0-13,13,13.14,13.14,0,0,0,13,13,13.15,13.15,0,0,0,13-13A13,13,0,0,0,2847.22-586.44Zm-149.91-460.44a31.17,31.17,0,0,1-31.16-31.17,31.17,31.17,0,0,1,31.16-31.17,31,31,0,0,1,31,31.17A31.14,31.14,0,0,1,2697.31-1046.88Zm0-56.6a25.55,25.55,0,0,0-25.43,25.43,25.55,25.55,0,0,0,25.43,25.43,25.55,25.55,0,0,0,25.44-25.43,25.55,25.55,0,0,0-25.44-25.43Zm-45.69-453.17a31.18,31.18,0,0,1-31.17-31.17,31.17,31.17,0,0,1,31.17-31.16,31.17,31.17,0,0,1,31.16,31.16A31.17,31.17,0,0,1,2651.62-1556.65Zm0-56.41a25.55,25.55,0,0,0-25.44,25.43,25.56,25.56,0,0,0,25.44,25.44,25.55,25.55,0,0,0,25.43-25.44A25.55,25.55,0,0,0,2651.62-1613.06ZM2388.51-690.65A31.5,31.5,0,0,1,2357.15-722a31.5,31.5,0,0,1,31.36-31.36A31.5,31.5,0,0,1,2419.87-722,31.5,31.5,0,0,1,2388.51-690.65Zm0-57A25.63,25.63,0,0,0,2362.89-722a25.62,25.62,0,0,0,25.62,25.62A25.62,25.62,0,0,0,2414.13-722,25.63,25.63,0,0,0,2388.51-747.64Zm466-198.28a27.26,27.26,0,0,1-27.15-27.15,27.26,27.26,0,0,1,27.15-27.16,27.26,27.26,0,0,1,27.15,27.16A27.26,27.26,0,0,1,2854.49-945.92Zm0-48.38a21.39,21.39,0,0,0-21.42,21.42,21.39,21.39,0,0,0,21.42,21.41,21.38,21.38,0,0,0,21.42-21.41A21.38,21.38,0,0,0,2854.49-994.3Zm-434.62-454.89a27.25,27.25,0,0,1-27.15-27.15,27.25,27.25,0,0,1,27.15-27.15,27.25,27.25,0,0,1,27.15,27.15A27.26,27.26,0,0,1,2419.87-1449.19Zm0-48.57a21.38,21.38,0,0,0-21.42,21.42,21.38,21.38,0,0,0,21.42,21.41,21.38,21.38,0,0,0,21.41-21.41A21.38,21.38,0,0,0,2419.87-1497.76ZM2181.43-226.39a27.55,27.55,0,0,1-27.54-27.54,27.54,27.54,0,0,1,27.54-27.53A27.54,27.54,0,0,1,2209-253.93,27.54,27.54,0,0,1,2181.43-226.39Zm0-49.53a21.79,21.79,0,0,0-21.8,21.8,21.79,21.79,0,0,0,21.8,21.8,21.78,21.78,0,0,0,21.79-21.8A21.91,21.91,0,0,0,2181.43-275.92ZM2404-220.66a24.4,24.4,0,0,1-24.48-24.47A24.4,24.4,0,0,1,2404-269.61a24.4,24.4,0,0,1,24.47,24.48A24.52,24.52,0,0,1,2404-220.66Zm0-43.21a18.77,18.77,0,0,0-18.74,18.74A18.77,18.77,0,0,0,2404-226.39a18.78,18.78,0,0,0,18.74-18.74A18.77,18.77,0,0,0,2404-263.87Zm-356-65.2a16.24,16.24,0,0,1-16.25-16.26A16.24,16.24,0,0,1,2048-361.58a16.24,16.24,0,0,1,16.25,16.25A16.24,16.24,0,0,1,2048-329.07Zm0-26.58a10.61,10.61,0,0,0-10.52,10.51A10.61,10.61,0,0,0,2048-334.62a10.61,10.61,0,0,0,10.52-10.52A10.61,10.61,0,0,0,2048-355.65Zm927.38,595.43a22.37,22.37,0,1,1,22.37-22.37A22.4,22.4,0,0,1,2975.34,239.78Zm0-39A16.64,16.64,0,1,0,2992,217.41,16.65,16.65,0,0,0,2975.34,200.77ZM1623.85,215.69a23.52,23.52,0,1,1,23.52-23.52A23.5,23.5,0,0,1,1623.85,215.69Zm0-41.5A17.79,17.79,0,1,0,1641.64,192,17.88,17.88,0,0,0,1623.85,174.19ZM1495.17,483.38a41.88,41.88,0,1,1,41.88-41.87A41.86,41.86,0,0,1,1495.17,483.38Zm0-78a36.14,36.14,0,1,0,36.14,36.14A36.23,36.23,0,0,0,1495.17,405.37Zm255.65,220.47a50.29,50.29,0,1,1,50.29-50.29A50.35,50.35,0,0,1,1750.82,625.84Zm0-94.85a44.56,44.56,0,1,0,44.55,44.56A44.6,44.6,0,0,0,1750.82,531Zm61.76-1340a50.35,50.35,0,0,1-50.29-50.29,50.35,50.35,0,0,1,50.29-50.29,50.35,50.35,0,0,1,50.29,50.29A50.35,50.35,0,0,1,1812.58-809Zm0-94.84A44.59,44.59,0,0,0,1768-859.3a44.72,44.72,0,0,0,44.55,44.55,44.72,44.72,0,0,0,44.55-44.55A44.59,44.59,0,0,0,1812.58-903.85Zm-727-1020.69a50.35,50.35,0,0,1-50.29-50.29,50.35,50.35,0,0,1,50.29-50.29,50.35,50.35,0,0,1,50.28,50.29A50.34,50.34,0,0,1,1085.6-1924.54Zm0-95A44.6,44.6,0,0,0,1041-1975a44.6,44.6,0,0,0,44.56,44.55,44.59,44.59,0,0,0,44.55-44.55A44.72,44.72,0,0,0,1085.6-2019.57ZM1882-1167.34a50.35,50.35,0,0,1-50.29-50.29,50.35,50.35,0,0,1,50.29-50.29,50.35,50.35,0,0,1,50.29,50.29A50.35,50.35,0,0,1,1882-1167.34Zm0-94.84a44.59,44.59,0,0,0-44.55,44.55,44.6,44.6,0,0,0,44.55,44.55,44.59,44.59,0,0,0,44.55-44.55A44.59,44.59,0,0,0,1882-1262.18ZM2566.53-1426a50.35,50.35,0,0,1-50.29-50.29,50.35,50.35,0,0,1,50.29-50.29,50.34,50.34,0,0,1,50.28,50.29A50.35,50.35,0,0,1,2566.53-1426Zm0-94.84a44.6,44.6,0,0,0-44.56,44.55,44.73,44.73,0,0,0,44.56,44.55,44.6,44.6,0,0,0,44.55-44.55A44.59,44.59,0,0,0,2566.53-1520.89ZM1246.4,608.24a51.05,51.05,0,1,1,51.06-51A51.16,51.16,0,0,1,1246.4,608.24Zm0-96.18a45.32,45.32,0,1,0,45.32,45.32A45.41,45.41,0,0,0,1246.4,512.06Zm-269-809.58a21.79,21.79,0,0,1-21.8-21.8,21.79,21.79,0,0,1,21.8-21.8,21.79,21.79,0,0,1,21.8,21.8,21.79,21.79,0,0,1-21.8,21.8Zm0-38.05a16,16,0,0,0-16.06,16.06,16.16,16.16,0,0,0,16.06,16.06,16.16,16.16,0,0,0,16.06-16.06,16.15,16.15,0,0,0-16.06-16.06Zm76.87,351.44a17.06,17.06,0,0,1-17-17,17,17,0,0,1,17-17,17,17,0,0,1,17,17A17,17,0,0,1,1054.24,15.87Zm0-28.3A11.19,11.19,0,0,0,1043-1.15a11.2,11.2,0,0,0,11.29,11.29,11.19,11.19,0,0,0,11.28-11.29A11.3,11.3,0,0,0,1054.24-12.43Zm530.23-1389.91a17.06,17.06,0,0,1-17-17,17.06,17.06,0,0,1,17-17,17.06,17.06,0,0,1,17,17A17.06,17.06,0,0,1,1584.47-1402.34Zm0-28.3a11.31,11.31,0,0,0-11.29,11.28,11.19,11.19,0,0,0,11.29,11.28,11.18,11.18,0,0,0,11.28-11.28A11.31,11.31,0,0,0,1584.47-1430.64Zm-88.92,180.5a17.06,17.06,0,0,1-17-17,17,17,0,0,1,17-17,17,17,0,0,1,17,17A16.94,16.94,0,0,1,1495.55-1250.14Zm0-28.11a11.19,11.19,0,0,0-11.28,11.29,11.18,11.18,0,0,0,11.28,11.28,11.18,11.18,0,0,0,11.28-11.28A11.19,11.19,0,0,0,1495.55-1278.25Zm-80.5-602.5a17.06,17.06,0,0,1-17-17,17.06,17.06,0,0,1,17-17,17.06,17.06,0,0,1,17,17A17.06,17.06,0,0,1,1415.05-1880.75Zm0-28.3a11.18,11.18,0,0,0-11.28,11.28,11.18,11.18,0,0,0,11.28,11.28,11.18,11.18,0,0,0,11.28-11.28A11.18,11.18,0,0,0,1415.05-1909ZM2077-1328a17.06,17.06,0,0,1-17-17,17.06,17.06,0,0,1,17-17,17.06,17.06,0,0,1,17,17A17.06,17.06,0,0,1,2077-1328Zm0-28.3a11.31,11.31,0,0,0-11.29,11.28A11.19,11.19,0,0,0,2077-1333.7a11.18,11.18,0,0,0,11.28-11.28A11.18,11.18,0,0,0,2077-1356.26Zm164.44,80.69a17.06,17.06,0,0,1-17-17,17,17,0,0,1,17-17,17,17,0,0,1,17,17A17,17,0,0,1,2241.47-1275.57Zm0-28.3a11.3,11.3,0,0,0-11.28,11.28,11.18,11.18,0,0,0,11.28,11.28,11.18,11.18,0,0,0,11.28-11.28A11.3,11.3,0,0,0,2241.47-1303.87Zm348.58-407.47a17.06,17.06,0,0,1-17-17,17.06,17.06,0,0,1,17-17,17.06,17.06,0,0,1,17,17A16.93,16.93,0,0,1,2590.05-1711.34Zm0-28.3a11.31,11.31,0,0,0-11.29,11.28,11.19,11.19,0,0,0,11.29,11.28,11.18,11.18,0,0,0,11.28-11.28A11.18,11.18,0,0,0,2590.05-1739.64Zm-248,222.57a17,17,0,0,1-17-17,17,17,0,0,1,17-17,17,17,0,0,1,17,17A17.06,17.06,0,0,1,2342-1517.07Zm0-28.3a11.18,11.18,0,0,0-11.28,11.28,11.18,11.18,0,0,0,11.28,11.28,11.31,11.31,0,0,0,11.29-11.28A11.31,11.31,0,0,0,2342-1545.37Zm-559.67,42.45a17.06,17.06,0,0,1-17-17,17,17,0,0,1,17-17,17,17,0,0,1,17,17A17.06,17.06,0,0,1,1782.37-1502.92Zm0-28.3a11.18,11.18,0,0,0-11.28,11.28,11.18,11.18,0,0,0,11.28,11.28,11.3,11.3,0,0,0,11.28-11.28A11.3,11.3,0,0,0,1782.37-1531.22Zm-3.06,231.56a17.06,17.06,0,0,1-17-17,17.06,17.06,0,0,1,17-17,17.06,17.06,0,0,1,17,17A17.06,17.06,0,0,1,1779.31-1299.66Zm0-28.3a11.18,11.18,0,0,0-11.28,11.28,11.18,11.18,0,0,0,11.28,11.28,11.3,11.3,0,0,0,11.28-11.28A11.3,11.3,0,0,0,1779.31-1328ZM1132.63,183a17,17,0,1,1,17-17A17,17,0,0,1,1132.63,183Zm0-28.3A11.18,11.18,0,0,0,1121.35,166a11.3,11.3,0,0,0,11.28,11.28A11.18,11.18,0,0,0,1143.91,166,11.42,11.42,0,0,0,1132.63,154.69Zm992.2-1156.83a17.06,17.06,0,0,1-17-17,17.06,17.06,0,0,1,17-17,17.06,17.06,0,0,1,17,17A17.06,17.06,0,0,1,2124.83-1002.14Zm0-28.11a11.19,11.19,0,0,0-11.28,11.29,11.18,11.18,0,0,0,11.28,11.28,11.3,11.3,0,0,0,11.28-11.28A11.19,11.19,0,0,0,2124.83-1030.25ZM1142.77-273.62A31.78,31.78,0,0,1,1111-305.36a31.66,31.66,0,0,1,31.74-31.74,31.66,31.66,0,0,1,31.74,31.74A31.78,31.78,0,0,1,1142.77-273.62Zm0-57.75a26,26,0,0,0-26,26,26,26,0,0,0,26,26,26,26,0,0,0,26-26A26,26,0,0,0,1142.77-331.37Zm-10.14,198.29A41.86,41.86,0,0,1,1090.76-175a41.86,41.86,0,0,1,41.87-41.87A41.86,41.86,0,0,1,1174.51-175,42,42,0,0,1,1132.63-133.08Zm0-78A36.24,36.24,0,0,0,1096.49-175a36.24,36.24,0,0,0,36.14,36.14A36.23,36.23,0,0,0,1168.77-175,36.24,36.24,0,0,0,1132.63-211.1ZM35.27,263.49a31.36,31.36,0,1,1,31.36-31.36A31.5,31.5,0,0,1,35.27,263.49Zm0-57a25.62,25.62,0,1,0,25.62,25.62A25.62,25.62,0,0,0,35.27,206.51Zm300,169.79a17.59,17.59,0,1,1,17.59-17.59A17.54,17.54,0,0,1,335.28,376.3Zm0-29.63a11.86,11.86,0,1,0,11.86,11.85A11.91,11.91,0,0,0,335.28,346.67Zm261.39,41.87a23.9,23.9,0,1,1,23.9-23.9A23.91,23.91,0,0,1,596.67,388.54Zm0-41.87a18.17,18.17,0,1,0,18.16,18.16A18.16,18.16,0,0,0,596.67,346.67Zm198.09-66.74a31,31,0,1,1,31-31A31.09,31.09,0,0,1,794.76,279.93Zm0-56.21A25.24,25.24,0,1,0,820,249,25.21,25.21,0,0,0,794.76,223.72ZM1566.87-839.61a31.09,31.09,0,0,1-31-31,31.09,31.09,0,0,1,31-31,31.1,31.1,0,0,1,31,31A31.09,31.09,0,0,1,1566.87-839.61Zm0-56.21a25.22,25.22,0,0,0-25.24,25.24,25.23,25.23,0,0,0,25.24,25.24,25.22,25.22,0,0,0,25.24-25.24A25.34,25.34,0,0,0,1566.87-895.82ZM1030.14,366.36a23.52,23.52,0,1,1,23.52-23.52A23.5,23.5,0,0,1,1030.14,366.36Zm0-41.49a17.78,17.78,0,1,0,17.79,17.78A17.75,17.75,0,0,0,1030.14,324.87Zm673.07-1341.16a23.5,23.5,0,0,1-23.52-23.52,23.5,23.5,0,0,1,23.52-23.51,23.5,23.5,0,0,1,23.52,23.51A23.38,23.38,0,0,1,1703.21-1016.29Zm0-41.3a17.75,17.75,0,0,0-17.79,17.78,17.88,17.88,0,0,0,17.79,17.79,17.87,17.87,0,0,0,17.78-17.79A17.75,17.75,0,0,0,1703.21-1057.59ZM905.67,430.61a31,31,0,1,1,31-31A31.1,31.1,0,0,1,905.67,430.61Zm0-56.22a25.24,25.24,0,1,0,25.24,25.24A25.21,25.21,0,0,0,905.67,374.39Zm-397.92-1192a65.08,65.08,0,0,1-65-65,65.2,65.2,0,0,1,65-65,65.2,65.2,0,0,1,65,65A65.08,65.08,0,0,1,507.75-817.62Zm0-124.48a59.33,59.33,0,0,0-59.27,59.28,59.32,59.32,0,0,0,59.27,59.27A59.32,59.32,0,0,0,567-882.82,59.33,59.33,0,0,0,507.75-942.1Zm-258.7-21.79a31.5,31.5,0,0,1-31.36-31.36,31.5,31.5,0,0,1,31.36-31.36,31.49,31.49,0,0,1,31.35,31.36A31.49,31.49,0,0,1,249.05-963.89Zm0-57a25.64,25.64,0,0,0-25.63,25.63,25.63,25.63,0,0,0,25.63,25.62,25.62,25.62,0,0,0,25.62-25.62A25.63,25.63,0,0,0,249.05-1020.88Zm247.81,22.57a31.5,31.5,0,0,1-31.36-31.36A31.5,31.5,0,0,1,496.86-1061a31.5,31.5,0,0,1,31.35,31.36A31.37,31.37,0,0,1,496.86-998.31Zm0-57a25.63,25.63,0,0,0-25.63,25.62A25.63,25.63,0,0,0,496.86-1004a25.62,25.62,0,0,0,25.62-25.62A25.62,25.62,0,0,0,496.86-1055.29ZM603-966.19a17.06,17.06,0,0,1-17-17,17.06,17.06,0,0,1,17-17,17.06,17.06,0,0,1,17,17A17.06,17.06,0,0,1,603-966.19Zm0-28.3a11.18,11.18,0,0,0-11.28,11.28A11.18,11.18,0,0,0,603-971.93a11.18,11.18,0,0,0,11.28-11.28A11.18,11.18,0,0,0,603-994.49Zm-11.47-206.12a17.06,17.06,0,0,1-17-17,17.06,17.06,0,0,1,17-17,17.06,17.06,0,0,1,17,17A17.06,17.06,0,0,1,591.51-1200.61Zm0-28.3a11.19,11.19,0,0,0-11.29,11.28,11.19,11.19,0,0,0,11.29,11.28,11.18,11.18,0,0,0,11.28-11.28A11.18,11.18,0,0,0,591.51-1228.91ZM343.7-702.13a31.09,31.09,0,0,1-31-31,31.1,31.1,0,0,1,31-31,31.09,31.09,0,0,1,31,31A31.09,31.09,0,0,1,343.7-702.13Zm0-56.21a25.21,25.21,0,0,0-25.24,25.24,25.21,25.21,0,0,0,25.24,25.24,25.22,25.22,0,0,0,25.24-25.24A25.22,25.22,0,0,0,343.7-758.34ZM454.6-551.45a31.1,31.1,0,0,1-31-31,31.09,31.09,0,0,1,31-31,31.08,31.08,0,0,1,31,31A31.09,31.09,0,0,1,454.6-551.45Zm0-56.22a25.21,25.21,0,0,0-25.24,25.24,25.21,25.21,0,0,0,25.24,25.24,25.21,25.21,0,0,0,25.24-25.24A25.21,25.21,0,0,0,454.6-607.67ZM275.05,639.22a28.49,28.49,0,1,1,28.49-28.49A28.56,28.56,0,0,1,275.05,639.22Zm0-51.44a22.76,22.76,0,1,0,22.75,22.76A22.81,22.81,0,0,0,275.05,587.78ZM418.84,338.83A31.17,31.17,0,1,1,450,307.66,31.18,31.18,0,0,1,418.84,338.83Zm0-56.6a25.43,25.43,0,1,0,25.43,25.43A25.54,25.54,0,0,0,418.84,282.23ZM208.13-364.83a20.89,20.89,0,0,1-20.85-20.84,20.89,20.89,0,0,1,20.85-20.84A20.88,20.88,0,0,1,229-385.67,20.89,20.89,0,0,1,208.13-364.83Zm0-36.14A15.14,15.14,0,0,0,193-385.86a15.26,15.26,0,0,0,15.11,15.1,15.26,15.26,0,0,0,15.1-15.1A15.13,15.13,0,0,0,208.13-401Zm813-282.42a20.88,20.88,0,0,1-20.84-20.84,20.88,20.88,0,0,1,20.84-20.84A20.89,20.89,0,0,1,1042-704.23,20.89,20.89,0,0,1,1021.16-683.39Zm0-36.14a15.14,15.14,0,0,0-15.11,15.11,15.26,15.26,0,0,0,15.11,15.1,15.26,15.26,0,0,0,15.1-15.1A15.14,15.14,0,0,0,1021.16-719.53ZM812.93-639.22a20.89,20.89,0,0,1-20.84-20.84,20.89,20.89,0,0,1,20.84-20.84,20.89,20.89,0,0,1,20.84,20.84A20.89,20.89,0,0,1,812.93-639.22Zm0-36.14a15.14,15.14,0,0,0-15.11,15.11,15.14,15.14,0,0,0,15.11,15.1,15.26,15.26,0,0,0,15.1-15.1A15.26,15.26,0,0,0,812.93-675.36ZM424.2,195.8A100.2,100.2,0,1,1,524.39,95.61,100.29,100.29,0,0,1,424.2,195.8Zm0-194.65a94.46,94.46,0,1,0,94.45,94.46A94.66,94.66,0,0,0,424.2,1.15ZM701.26-275.34a47.82,47.82,0,0,1-47.8-47.81,47.82,47.82,0,0,1,47.8-47.8,47.82,47.82,0,0,1,47.8,47.8A47.82,47.82,0,0,1,701.26-275.34Zm0-90.06a42.19,42.19,0,0,0-42.07,42.06,42.19,42.19,0,0,0,42.07,42.07,42.19,42.19,0,0,0,42.07-42.07A42.19,42.19,0,0,0,701.26-365.4Zm-504,465.79a43,43,0,1,1,43-43A43.09,43.09,0,0,1,197.23,100.39Zm0-80.31a37.29,37.29,0,1,0,37.28,37.28A37.33,37.33,0,0,0,197.23,20.08ZM135.47,362.54a43,43,0,1,1,43-43A43.1,43.1,0,0,1,135.47,362.54Zm0-80.31a37.29,37.29,0,1,0,37.28,37.28A37.33,37.33,0,0,0,135.47,282.23ZM553.65,637.31a57.18,57.18,0,1,1,57.17-57.17A57.21,57.21,0,0,1,553.65,637.31Zm0-108.8a51.44,51.44,0,1,0,51.43,51.43A51.45,51.45,0,0,0,553.65,528.51ZM224.76-377.83l1.53-5.55L343.7-353l-1.53,5.55Zm-7.07,7.07,4.78-3.06,88.15,137.87-4.78,3.06ZM363-257.75l10.32-52,5.55,1.15-10.33,52ZM81.16-138.82l216.07-39,1,5.74-216.07,39Zm330.42-85.66,245.89-87.58,1.92,5.36-245.9,87.57ZM713.5-366.55,805.66-643l5.36,1.72L719-364.83ZM364-133.08l5.55-1.34L400.87,1l-5.55,1.33L364-133.08ZM237,69.79l.76-5.73,89.49,11.66-.76,5.74ZM139.86,279.55,186.71,96.94l5.55,1.34L145.41,280.89ZM52.1,255.65l3.63-4.4,49.14,41.88-3.63,4.39Zm293.7,91.78L393,319.51l2.87,5L348.67,352.4Zm70-155.45h5.74l.19,87.38H416Zm26.58,132.89,1.72-5.55,132.51,42.83-1.72,5.55L442.36,324.87ZM512.73,54.69,675.83.38l1.72,5.36L514.45,60Zm212-53.16,2.29-5.35,176.49,74-2.29,5.36Zm-204,103.06,376.11-3.82v5.73l-376.11,3.83Zm-22.95,55.26,3.06-5,378.22,228.5-3.06,5Zm-76.1,177.06,5.16-2.67L528.21,532.33,523.05,535,421.71,336.91ZM562.82,525.26l25.43-140.73,5.74,1L568.56,526.21ZM299.91,602.51l199.24-25.24.77,5.73L300.67,608.24l-.76-5.73ZM601.64,554.7,878.32,408l2.68,5.17L604.32,559.68l-2.68-5Zm204.6-279.36,4.58-3.63,81.46,102.87-4.59,3.64Zm106.69,97.71,32.32-211.86,5.73,1L918.67,374ZM815.41,230l95.8-90.83,4,4.21-95.8,90.82ZM726.5-285.67l4.21-3.82,198.09,221-4.2,3.82-198.1-221ZM945.25-18.93,951-19.5l5.74,56.21-5.74.58Zm26-10.52,2.1-5.35,67.88,25.43L1039.13-4,971.25-29.45Zm14.34-271.9,4-4.21,111.47,108.42-4,4.21Zm144,87.19,4.78-64.24,5.74.38-4.78,64.25Zm31.55,12.24L1286.37-292l3.44,4.59-125.24,90.06Zm219.13-92,1.34-5.55,279.17,63.87-1.34,5.54ZM1017,77.44,1661.71-186l2.11,5.36L1019.24,82.6,1017,77.44Zm3.63,18.93L1501.1-4.78l1.14,5.54L1021.73,101.92Zm17,227.16,86.81-145.89,5,2.86-86.81,145.9Zm102.68-142.07,5.16-2.68,47.62,94.46-5.17,2.68ZM999.36,147.23l3.82-4.4L1171.64,289.3l-3.82,4.4ZM764-1461.62a65.07,65.07,0,0,1-65-65,65.2,65.2,0,0,1,65-65,65.07,65.07,0,0,1,65,65A65.2,65.2,0,0,1,764-1461.62Zm0-124.48a59.33,59.33,0,0,0-59.28,59.28A59.32,59.32,0,0,0,764-1467.55a59.31,59.31,0,0,0,59.27-59.27A59.32,59.32,0,0,0,764-1586.1Zm-258.9-21.6a31.5,31.5,0,0,1-31.36-31.36,31.5,31.5,0,0,1,31.36-31.36,31.5,31.5,0,0,1,31.36,31.36A31.38,31.38,0,0,1,505.08-1607.7Zm0-57a25.63,25.63,0,0,0-25.62,25.63,25.62,25.62,0,0,0,25.62,25.62,25.62,25.62,0,0,0,25.62-25.62A25.63,25.63,0,0,0,505.08-1664.69Zm248,22.38a31.5,31.5,0,0,1-31.36-31.36A31.5,31.5,0,0,1,753.08-1705a31.5,31.5,0,0,1,31.36,31.36A31.5,31.5,0,0,1,753.08-1642.31Zm0-57a25.62,25.62,0,0,0-25.62,25.62A25.62,25.62,0,0,0,753.08-1648a25.62,25.62,0,0,0,25.62-25.62A25.62,25.62,0,0,0,753.08-1699.29Zm106.12,89.1a17.06,17.06,0,0,1-17-17,17.06,17.06,0,0,1,17-17,17.06,17.06,0,0,1,17,17A17.06,17.06,0,0,1,859.2-1610.19Zm0-28.3a11.18,11.18,0,0,0-11.28,11.28,11.18,11.18,0,0,0,11.28,11.28,11.18,11.18,0,0,0,11.28-11.28A11.3,11.3,0,0,0,859.2-1638.49Zm-567.51-4a17.06,17.06,0,0,1-17-17,17.06,17.06,0,0,1,17-17,17,17,0,0,1,17,17A17,17,0,0,1,291.69-1642.5Zm0-28.3a11.19,11.19,0,0,0-11.29,11.28,11.19,11.19,0,0,0,11.29,11.28A11.18,11.18,0,0,0,303-1659.52,11.3,11.3,0,0,0,291.69-1670.8ZM937.6-1443.07a17.06,17.06,0,0,1-17-17,17.06,17.06,0,0,1,17-17,17.06,17.06,0,0,1,17,17A17.06,17.06,0,0,1,937.6-1443.07Zm0-28.11a11.18,11.18,0,0,0-11.28,11.28,11.18,11.18,0,0,0,11.28,11.28,11.18,11.18,0,0,0,11.28-11.28A11.3,11.3,0,0,0,937.6-1471.18ZM529.94-1624.53l2.29-5.35,176.49,74-2.3,5.36ZM750.21-1645l5.74-.57,5.73,56.21-5.73.58Zm26-10.71,2.1-5.35,67.88,25.43-2.1,5.35ZM1214.85,278,1509.7,18l3.83,4.4L1218.68,282.42ZM1587.91-53.73l98.66-88.91,3.83,4.2-98.67,88.92-3.82-4.21ZM1195.35,331l5.55-1.15,38.62,179.74-5.54,1.14ZM1056,602.7l143.41-34.8,1.33,5.54-143.4,34.8Zm234.42-64.06L1457.31,453l2.68,5.16L1293.06,543.8Zm3.44,26.77.58-5.74,195.8,19.13-.58,5.73ZM1492.3,480.9l5.74-.77,10.32,82-5.73.77Zm25.24,82.79,182-223.53,4.4,3.64L1522.13,567.32ZM1717,348.77l5.74-.77,24.48,177.07-5.74.76ZM1660.38,635.2l52.2-32.31,3.06,5-52.2,32.31Zm134.8-43.59,2.1-5.36,85.47,32.51-2.1,5.35ZM1520.6,282.8l83.75-76.1,3.83,4.21L1524.42,287Zm110.52-70.56,4.4-3.63,71.89,85.09-4.39,3.63Zm9-5.73,1.91-5.36,293.7,98.29-1.91,5.35ZM1602.63-34.23l396.57-79.54,1.15,5.54L1603.78-28.68Zm.57,32.89.2-5.74,303.06,8.8-.19,5.74Zm172.09-109.37,5.74-.77,23.52,179-5.74.76-23.52-179ZM1596.7,17.78l3.06-4.78,144.94,94.27-3.06,4.78Zm258.9,61.76,60.43-57,4,4.21-60.42,57Zm96.56-47.8,5-2.68,60.42,109.57-5,2.67ZM1884.09,174l1.15-5.54L2168,229.64l-1.15,5.55Zm104.4,136.91,179.17-61.57,1.91,5.35-179.16,61.57Zm-14,28.87,3.44-4.59,342.27,251.45-3.45,4.58Zm387,238.44,47-103.63,5.16,2.29-47,103.64ZM1825.39-133.66l4-4L1928.07-40l-4,4-98.67-97.71Zm32.7-48.76,1.91-5.35,143.41,49.14-1.91,5.36Zm4.59-28.1.57-5.74,927.38,86-.58,5.74ZM1982.18-13l259.29-27.54.57,5.74L1982.76-7.27Zm76.49-58.51,5-2.68,140.35,262-5,2.68Zm-83.56,89.67,4-4.2,199.81,191.59-4,4.21ZM2230,186.62l29.07-201.34,5.73.76-29.06,201.35Zm62.34-212,3.25-4.78,110,76.67-3.25,4.78Zm5.16-19.89,492.18-76.29,1,5.74L2298.45-39.58ZM2264.6,211.1l529.85-321.24,3.06,5L2267.66,216.07Zm448.78-100.2,96.56-203.64,5.16,2.49-96.56,203.64Zm23.52,23.71,175.14-79,2.3,5.16-175.15,79Zm203.83-60.42,5.54-1.15,24.29,125.63-5.55,1.15Zm-233.09,109,5.35-1.72,44.94,136-5.36,1.72ZM2271.87,230l393.7-75,1.15,5.55L2273,235.57ZM2061-348.2l165.4-17.21.57,5.74-165.39,17.21Zm133.66,73.05,44.17-58.71,4.59,3.45-44.17,58.7ZM2296-336.53l3.83-4.21,89.87,79.35-3.83,4.21Zm126.78,79.92,118.55-37.09,1.72,5.54-118.55,37.1Zm-117.6-99.23,1-5.74,235,42.83-1,5.74Zm321.62,85.66,3.25-4.59L2801-153.54l-3.25,4.59ZM373.52-377.45l69.22-177.83,5.36,2.11L378.88-375.35ZM214.44-404,424.58-575.55l3.63,4.4L218.07-399.63Zm140-301.92,4.21-3.83,89.1,97.52-4.2,3.83ZM194.55-402.88,324-711.69l5.35,2.3L199.9-400.59ZM473-557.19l4-4L673.92-364.45l-4,4Zm9.18-36.71,312.25-69,1.15,5.55-312.25,69Zm66.93-241.31,3.06-4.78L806.24-680.52l-3.06,4.78Zm484.53,144.36,3.44-4.59,127.34,91.59-3.44,4.59Zm106.31,356,36.52-169.8,5.55,1.15-36.53,169.8ZM1234-502.5l5-2.87,75.14,135.57-5,2.87ZM615-1371.75A56.31,56.31,0,0,1,558.81-1428,56.3,56.3,0,0,1,615-1484.18,56.31,56.31,0,0,1,671.24-1428,56.31,56.31,0,0,1,615-1371.75Zm0-106.7A50.44,50.44,0,0,0,564.54-1428,50.43,50.43,0,0,0,615-1377.49,50.43,50.43,0,0,0,665.5-1428,50.43,50.43,0,0,0,615-1478.45Zm492.18-54.3A56.31,56.31,0,0,1,1051-1589a56.3,56.3,0,0,1,56.21-56.21,56.31,56.31,0,0,1,56.22,56.21A56.31,56.31,0,0,1,1107.2-1532.75Zm0-106.7a50.43,50.43,0,0,0-50.48,50.48,50.43,50.43,0,0,0,50.48,50.48,50.43,50.43,0,0,0,50.48-50.48,50.43,50.43,0,0,0-50.48-50.48ZM259.75-1406.36a21.78,21.78,0,0,1-21.79-21.8,21.79,21.79,0,0,1,21.79-21.8,21.79,21.79,0,0,1,21.8,21.8A21.79,21.79,0,0,1,259.75-1406.36Zm0-38.05a16,16,0,0,0-16.06,16.06,16.16,16.16,0,0,0,16.06,16.06,16.16,16.16,0,0,0,16.07-16.06A16,16,0,0,0,259.75-1444.41Zm165.4,61.76a31.78,31.78,0,0,1-31.74-31.74,31.78,31.78,0,0,1,31.74-31.74,31.66,31.66,0,0,1,31.74,31.74A31.66,31.66,0,0,1,425.15-1382.65Zm0-57.55a26,26,0,0,0-26,26,26,26,0,0,0,26,26,26,26,0,0,0,26-26A26,26,0,0,0,425.15-1440.2ZM415-1241.92a41.86,41.86,0,0,1-41.88-41.87A41.87,41.87,0,0,1,415-1325.67a41.86,41.86,0,0,1,41.87,41.88A41.86,41.86,0,0,1,415-1241.92Zm0-78a36.23,36.23,0,0,0-36.14,36.14A36.24,36.24,0,0,0,415-1247.65a36.24,36.24,0,0,0,36.14-36.14A36.24,36.24,0,0,0,415-1319.93Zm-146.85-90.44,4-4.21,111.48,108.42-4,4.2Zm144,87.38,4.78-64.25,5.74.38-4.78,64.25Zm31.36,12L568.75-1401l3.44,4.59L447-1306.36l-3.44-4.58Zm-148.57-332.9,5-2.68,114.53,207.85-5,2.67L294.94-1643.84Zm221.61,32.5,5-2.87,75.15,135.57-5,2.87ZM1269.92-556.23l.19-5.74,296.57,13.19-.19,5.74Zm-24.09-53.16L1542-856.82l3.63,4.4L1249.46-605Zm330.41-235.19,5.55-1.15L1628.06-622l-5.54,1.15Zm18.55-23.14.38-5.73,170.18,11.28-.38,5.73ZM1859.24-862,1970-890.47l1.33,5.54-110.71,28.49-1.33-5.54Zm-21.42,43.4,4.21-4,55.64,59.27-4.21,4ZM1952-659.3l5.55-1.72L2051-359.48l-5.54,1.72L1952-659.3ZM1757.89-316.84l154.69-351.63,5.17,2.29L1763.06-314.54l-5.17-2.3Zm-51.24-276.68,179.74-105.17,2.87,5L1709.52-588.55Zm299.63-131.74,354.88-8.42.2,5.74-354.89,8.41Zm398.1-20.46,272.86-312.06,4.39,3.82L2408.78-741.9ZM2659.26-848l35.19-202.11,5.73,1L2665-847.07Zm58.7-210,2.87-5,118.75,69.79-2.87,5Zm54.12,597.15,79.54-488.35,5.74.95-79.55,488.36Zm15.68,2.49,49.9-102.11,5.17,2.48-49.91,102.11ZM2624.85-339.78l111.47-64.82,2.87,5-111.48,64.82Zm147.23-45.51,5.73-1L2818-161l-5.74,1ZM2020.81-867.72l1.91-5.35,348.39,126.58-1.91,5.35Zm-313.4-149.91,4.78-3.06,78.4,120.08-4.78,3.06Zm301.93,101.92,103.82-95.42,3.83,4.21L2013.16-911.5Zm-1737-61.19,2.11-5.35,177.44,71.51-2.1,5.35Zm218.56,33.46,3.25-57.93,5.73.38L496.66-943l-5.73-.39Zm52,8.61,49.33-39.58L595.9-970l-49.33,39.59Zm-267.7-74,193.7-17.78.57,5.73-193.69,17.79Zm249.15-12.24,2.49-5.16,66.73,31.36-2.49,5.16Zm-24.28-37.86,82.79-147.23,5,2.87-82.79,147.23ZM810.44-679.37,899-860.45l5.17,2.48L815.6-676.89Zm174-258.9,122.38-42.84,1.91,5.36L986.36-932.92Zm-27.91-32.51,44.17-76.29,5,2.86-44.17,76.3-5-2.87Zm64.82-146.47,26.58-151.63,5.73,1-26.77,151.63-5.54-1Zm361.58,46.47,9.75-73.43,5.74.77-9.76,73.42Zm42.45,112,2.86-5,122,69-2.87,5Zm22.94-56.22,235.19-21,.58,5.73-235.19,21Zm-39-183.18,76.86-64.63,3.64,4.4L1413-1193.73Zm304.79,139.2,132.31-127.54,4,4.21-132.32,127.54ZM1787-1304.06l3.63-4.4,62.91,52-3.63,4.4Zm131.36,54.69,50.67-21.42,2.29,5.35L1920.61-1244l-2.29-5.35Zm83-45.51,65-41.69,3.06,4.78-65,41.69Zm-21.41-124.48,5.74-.19,2.1,116.44-5.74.2ZM1789.25-1327l166.93-109.37,3.06,4.78-166.93,109.37Zm5.36-185.28,1.72-5.55,165.39,49.53-1.72,5.54Zm-476.12-107.08a31.5,31.5,0,0,1-31.36-31.36,31.5,31.5,0,0,1,31.36-31.36,31.5,31.5,0,0,1,31.36,31.36A31.38,31.38,0,0,1,1318.49-1619.37Zm0-57a25.62,25.62,0,0,0-25.62,25.62,25.62,25.62,0,0,0,25.62,25.62,25.62,25.62,0,0,0,25.62-25.62A25.62,25.62,0,0,0,1318.49-1676.35Zm-108.23-126.2a31.5,31.5,0,0,1-31.35-31.36,31.5,31.5,0,0,1,31.35-31.36,31.5,31.5,0,0,1,31.36,31.36A31.5,31.5,0,0,1,1210.26-1802.55Zm0-57a25.62,25.62,0,0,0-25.62,25.62,25.62,25.62,0,0,0,25.62,25.62,25.63,25.63,0,0,0,25.63-25.62A25.63,25.63,0,0,0,1210.26-1859.53ZM1316.39-1462a23.5,23.5,0,0,1-23.52-23.52,23.5,23.5,0,0,1,23.52-23.52,23.51,23.51,0,0,1,23.52,23.52A23.64,23.64,0,0,1,1316.39-1462Zm0-41.11a17.87,17.87,0,0,0-17.79,17.78,17.87,17.87,0,0,0,17.79,17.78,17.87,17.87,0,0,0,17.78-17.78A17.87,17.87,0,0,0,1316.39-1503.11Zm-94.08-516.46a23.51,23.51,0,0,1-23.52-23.52,23.5,23.5,0,0,1,23.52-23.52,23.5,23.5,0,0,1,23.52,23.52A23.51,23.51,0,0,1,1222.31-2019.57Zm0-41.11a17.87,17.87,0,0,0-17.78,17.78,17.87,17.87,0,0,0,17.78,17.78,17.87,17.87,0,0,0,17.78-17.78A17.87,17.87,0,0,0,1222.31-2060.68Zm2.1,529.65a17,17,0,0,1-17-17,17,17,0,0,1,17-17,17,17,0,0,1,17,17A17.06,17.06,0,0,1,1224.41-1531Zm0-28.3a11.18,11.18,0,0,0-11.28,11.28,11.18,11.18,0,0,0,11.28,11.28A11.19,11.19,0,0,0,1235.7-1548,11.43,11.43,0,0,0,1224.41-1559.33Zm136.72-426.78a17.06,17.06,0,0,1-17-17,17.06,17.06,0,0,1,17-17,17.06,17.06,0,0,1,17,17A17.06,17.06,0,0,1,1361.13-1986.11Zm0-28.3a11.18,11.18,0,0,0-11.28,11.28,11.18,11.18,0,0,0,11.28,11.28,11.18,11.18,0,0,0,11.28-11.28A11.18,11.18,0,0,0,1361.13-2014.41ZM1519.07-1706a17.06,17.06,0,0,1-17-17,17.06,17.06,0,0,1,17-17,17.06,17.06,0,0,1,17,17A17.06,17.06,0,0,1,1519.07-1706Zm0-28.3a11.3,11.3,0,0,0-11.28,11.28,11.19,11.19,0,0,0,11.28,11.29,11.19,11.19,0,0,0,11.28-11.29A11.18,11.18,0,0,0,1519.07-1734.29Zm-188.53-29.25a17.06,17.06,0,0,1-17-17,17.06,17.06,0,0,1,17-17,17,17,0,0,1,17,17A17,17,0,0,1,1330.54-1763.54Zm0-28.11a11.19,11.19,0,0,0-11.29,11.28,11.19,11.19,0,0,0,11.29,11.28,11.18,11.18,0,0,0,11.28-11.28A11.31,11.31,0,0,0,1330.54-1791.65Zm191.59,288.92a17.06,17.06,0,0,1-17-17,17.06,17.06,0,0,1,17-17,17.06,17.06,0,0,1,17,17A17.06,17.06,0,0,1,1522.13-1502.73Zm0-28.3a11.18,11.18,0,0,0-11.28,11.28,11.18,11.18,0,0,0,11.28,11.28,11.3,11.3,0,0,0,11.28-11.28A11.3,11.3,0,0,0,1522.13-1531Zm3.25,27.15,4.78-3.25,50.1,73.81-4.78,3.25Zm-293.51-30.78,3.06-4.78,65,41.68-3.06,4.78Zm81.65,28.68,2.1-116.45,5.74.19-2.11,116.45ZM1342-1634.86l3.06-4.78L1512-1530.26l-3.06,4.78L1342-1634.86Zm-2.1-36.52,165.39-49.52,1.72,5.54-165.39,49.53Zm575,490.27.57-5.74,433.48,45.51-.58,5.74-433.47-45.51Zm470.76,430,31.36-278,5.73.57-31.35,278ZM569.71-885.5l294.84-28.68.58,5.73L570.28-879.76Zm1781.89-352,5-2.68,34.22,62.34-5,2.68Zm-98.85-45.89,1.53-5.55,70.55,19.89-1.53,5.55Zm109.75,23.14,123.14-44.94,1.92,5.36-123.14,44.93Zm66.93-192.94,4.39-3.63,66.36,83.37-4.4,3.63Zm111.86,72.86,13.95-49.53,5.55,1.53-14,49.53Zm-191-140.93,2.86-5,51.44,30-2.87,5Zm5.54-10.13.77-5.74,175,25.43-.76,5.74Zm232.13,12,44.36-47.8,4.21,3.83-44.36,47.8Zm5.36-194.84,5.16-2.29L2643.58-1615l-5.16,2.29ZM2671.12-1609l75.53-48.38,3.06,4.78-75.53,48.38Zm-331.94,89.1h5.73l.77,241.88h-5.74Zm14.15,246.28,48-184.71,5.54,1.53-48,184.71ZM778.89-1463.72l5.55-1.34L908.72-976.71l-5.54,1.34Zm39.58-31.74L820-1501l107.08,29.64-1.53,5.54Zm-162.14,32.88L712-1493l2.67,5L659-1457.6Zm-14,80.31,5-2.86L885.78-962.75l-5,2.87L642.37-1382.27Zm562.92,759.69,142.46-335.77,5.35,2.29L1210.65-620.29l-5.36-2.29Zm-81.84-914.95,5.17-2.49,223.91,480.71-5.17,2.48-223.91-480.7Zm30.6-78.4,135.18-32.31,1.34,5.54-135.18,32.32Zm-71.32-311.48,5.73-.19,13.39,288.35-5.74.19-13.38-288.35Zm28.68-6.88,3.82-4.21,83.37,77.44-3.82,4.21Zm11.09-71.52,79-33.84,2.29,5.35-79,33.85ZM1242-2040.22l2.1-5.36,104,39.77-2.11,5.36Zm-7.27,221.61,2.1-5.35,82.8,33.27-2.11,5.35Z"/></g><path class="cls-2" d="M2463.17,495.85c-23.61-2.9-17.76-49.25-15.6-65.86,3.43-26.41,1.64-63,22.53-81.42,19.09-16.88,75.15-43.88,99.44-27.8,14.59,9.65,11.56,27.72,15.35,41.9,3.31,12.38,13.33,20.14,17,34.58,3.48,13.7.6,27,2.45,41,2,15,4.2,24.85-1.31,39.57-5.3,14.17-8.79,8.77-15.61,20.8-2.3,4.06-2.83,18.53-4.56,23.75-5.12,15.41-13.05,32.06-5.91,50.5,7.57,19.53,38.82,36.85,58.74,46.49a63.27,63.27,0,0,1,14.77,1.69q6.4,3.78,12.42,8.14c6.36,2.49,13.75,5.26,19.56,7.84,11.16,5,24.93,14.12,27.41,27H1955.19c0-18.46,24.12-59.86,36.22-72.91,22.73-24.49,54.36-31.46,84.73-43.11,12-4.59,25.53-7.87,36-15.46,12.52-9.09,12.49-5.58,8.06-21.77-4.51-16.45-10-23.07-12.76-40-1.84-11.33-5.29-16-9.05-27.55-2.2-6.76-3.51-15.11-2.48-22.27.75-5.18,5.4,3.18,5.8-7,.74-18.59-11.54-33.47-3.37-54.13,7.12-18,26.67-42.37,45.33-48.62,11.1-3.71,60,5,60-10,2.88,0,25.07,16.09,27.72,19.4,6.11,7.64,3.56,13.54,6.08,21.72,1.32,4.28,3,6.49,4.57,11,5.7,16.05,2.55,28.29,4.07,43.65s3.19,28.41,3.54,45.43c.6,28.44,1.07,40.28-8.52,65.32-1.6,4.18-9.43,11.31-9.07,17,.59,9.3-2.33,3.79,7.83,10.22,8.59,5.44,22.83,9,32.35,12.53,34.76,12.92,65.58,17.76,85.11,52.28,2,3.51,7,20.74,10.77,22.15s18-6.22,21.93-7.31c14.14-4,22.15-7.56,34.72-14.62,20.82-11.69,42.2-11.85,46.59-37.46C2476,535.58,2464.55,520.93,2463.17,495.85Z"/><path class="cls-2" d="M943.8,282.41c0,8.19,25.15,12.34,30.65,14.54,10,4,13.46,7.57,20.34,15.28,8.08,9.06,10.23,18.8,16.62,28.65,2.54,3.93,10.65,10.58,11.88,15.53,4.26,17.27.68,24.36-1.51,41.52-1.54,12.07-12.77,80.73-23.16,77.26,0,8.38-3.77,17.14-4.37,25.9C993,519.83,997,517.6,1010.92,528c16.26,12.14,20.36,30.22,33.88,43.4,19,18.55,57.64,15.65,78.93,32.73,17.81,14.27,26.44,39.81,34.77,60.17h-413c0-21.87,22-36.3,37.52-46.38,11.49-7.44,22.17-15.1,33.94-21.85,13.4-7.67,16.72-14.16,25.63-27.32,11.89-17.55,40.09-32.64,40.14-52.13,0-7.72-1.93-23.15-5.23-30.43-5.79-12.75-7.19-6.12-13.58-14.47-7.28-9.5-7.63-29.41-10.15-40.4-2.07-9-1.09-15.61-2.47-23.15-1.4-7.7-7-16.21-9-23.44s-.78-14.41-2.29-21c-1.26-5.56-6.36-6.2-5-13.7.25-1.44,9.86-10.21,10.5-11.42,3.84-7.23,5.14-7.62,2.29-18.73-1.22-4.74-10.86-11.43-5.48-17.36,8.5-9.38,10.62,7.71,17.36,9.14,4.76-6.39,10.23-6.94,14.69-11,3-2.78,8.68-11.64,12.71-14.54-.95.69,24.6-7.25,25.69-7.48C925.58,275.83,931.21,281.85,943.8,282.41Z"/><path class="cls-2" d="M680.67,664.66H305.17c.11-12.87,13.79-35.57,19.19-47.51,6.84-15.15,15.4-27.14,23.35-38.74,7.14-10.43,12.65-22.1,19.59-33.44,7.1-11.62,3.48-27.17,3.65-40.2.08-5.61-3.1-17.25.92-26.49,1.55-3.57,2.08-2.09,2.74-6.4.29-1.94,5.08-2.83,5.48-5.48.27-1.82-5.12-5.47-4.84-9,1.94-24.08,1.36-44.62,11.23-67.77,6.63-15.53,21.09-37.38,36.35-51.61,16.47-15.36,26.05-17.94,47.83-18,12.28-.06,21.34-4.54,34.52-.34,29.67,9.45,58.17,49.68,67.78,77.94,4.44,13.05,8,26.33,11.78,40.47.74,2.73,1.35,11.26,1.77,14.36.51,3.77,3.5,5.44,3.84,9.9.42,5.41-3.89,9-3.73,13.9.45,14.65,8.66,24.13,13,37.34,3,9.16,1.83,15.26,7.92,23.63,4.25,5.82,10.34,9.67,15.49,16.22,5.72,7.29,7,17.4,12.41,23,6.12,6.37,16,10.26,22.54,17.34C679.05,616.65,680.67,634.56,680.67,664.66Z"/><path class="cls-3" d="M2063.91,392c0,4.34,3.69,13.85,2.22,23.82-1.6,10.91-2.12,25-2.22,34.65-.13,13.19-1.7,22.19-4.57,34.72-4.79,21-8.13,26.42,13.25,36.77,28.17,13.63,64.5,14.84,88.2,37.66,14.81,14.27,23.25,43.1,31,62.61,10-4.76,21.45-18.05,31.06-21,15.83-4.89,30.6-2.81,46.95-9.44,22.72-9.2,54.91-12.65,50.27-42.83-2.8-18.24-8.16-17.06-19.18-27.68-3.52-3.38-6.9-3.56-9.22-8.77-4.22-9.48,3.87-10.17,1.53-18.18-.27-1-10.61-13.45-11.45-14.83-9-14.85-2.62-21.58-3.16-37.25,0-1.32-6.14-12.14-6.64-16.1-.83-6.54,1.31-15,3.57-21,1.52-4,8.66-6.26,10.37-10.42,2.69-6.52.84-13.46,4.35-19.56,9.57-16.63,34.92-33.13,54-33.54,5.78-.12,9.19,4.64,13.84,4.67,6.41.05,10.87-4.5,17.36-3.65,12.13,1.58,29.32,13.88,37.81,21.83,16,15,31.13,52.21,28.89,75l-5.49,5.49a22.5,22.5,0,0,1,.15,14.63c-1.88,6.12-5.3,12-6.54,18.26-1.2,6,1.34,11-.92,17.36-2.1,5.93-9.19,9.14-11.87,15.53-1,2.39,4.32,8.9,3.28,12.25-1.63,5.24-7.33,7.71-9.62,13.86-4.81,12.94,1.4,6.22,3.14,17.57.16,1-2.32,11.07-2.28,11.14,8.47,15.57,43.7,25.87,59.38,31.06,12.22,4,27.22,6,39.29,11,4,1.62,13.39,13.85,19.18,11.88,1.41-.48,11.68-18.28,12.8-20.1,11.43-18.73,20.06-22.09,41.5-29.21,12.55-4.17,24.63-7.95,36.44-12.88,11.58-4.84,22.23-6.29,19.81-20.95-1.6-9.76-16.93-26.11-22.21-36.58-14.47-28.72-18.47-52.48-25.65-82.92-5.58-23.64,5.93-22.4,8.38-44.44,3.27-29.48,7.91-58.33,39.88-70.23,23.65-8.81,49-12,73,.24,27.92,14.23,39.56,45.26,41.6,74.35l.64,8.53q-3.71,11.14,6.77,9.44c3.72,9.89,5.24,14.39,3.22,24.56-2.31,11.67-8.55,44.92-25.15,39.39,0,22.8-6.26,38.41,11.88,55.73,8.77,8.38,12.94,8.74,21.76,12.35,5.44,2.22,10.68,6.08,16.82,8.67,37.28,15.72,88.34,22.14,92.07,72.32.85,11.43,3.67,33.72,0,44.47q5.57,17.47-12.73,11.11h-1133c3.57-29.87,29.94-84.25,52.21-103.61,12.88-11.19,31-12,46.46-18.81,17-7.48,32.79-13.59,50.38-19.6,17.34-5.92,21.58-8.52,27-26.54,3.52-11.74-.07-14.64-.63-25.13-1-18.54-21.42-70.08,0-74.91,0-21-4.31-46.82,3.51-68,4.16-11.25,14.82-24.77,24.22-31.18,5.15-3.52,12.45-4.33,18-7.27,4.53-2.4,12.76-9.65,16.5-11.11,12-4.71,2.69-.91,16.3,1.91,3.48.72,10.93,2.29,14.66,3.26,12.8,3.33,26.17,15.27,36,25.69,10.16,10.83,17.17,27.11,16.08,43.35-.5,7.63-4.35,13.54-3.6,21.41.47,5,6.6,11.4,4.56,19.19Z"/><path class="cls-3" d="M796.7,360c6.69,1.2,7.31,10.28,8.23,15.53a29.42,29.42,0,0,0-8.23.91c0,.1,2.34,14.76,1.65,16.41-1.79,4.29-7.42,1.74-10.78,6.43-4.13,5.79-4.63,13.7-7.31,20.1a13.61,13.61,0,0,0-3.66-1.82c-5.15,17.7-11.49,35.2-16.47,52.89-2.58,9.2-15.15,31.66-11.85,40.3,5.12,13.38,36.53,18.9,49,23.9,11.63,4.67,23.47,7.94,33.59,13.6,3.09,1.73,8.55,6.15,11.12,7s11.25-1,13.24.22c7.21,4.34,20.27,19.92,23.75,29.23.67.67,8.11,24.51,10.37,30,5.2,12.53,6,5.28,9.73,20.28,2.36,9.58,5,18.81,7.31,28.32H481.5c0-22.56,17.36-50.94,28.32-71.26,13.46-24.94,50.15-40.31,77.66-53,12.52-5.77,27.58-9.67,40.62-15.46q.93-9,10.55-6.47,10.94,2.93,8.21-6.36c3.18-6.48-1.69-21.41-3.93-27.88-10-29-28.38-47.45-29.93-79.54-1.33-27.57-2.44-59.6,11-82.65,13.56-23.21,47.79-39.45,74.81-43C726.63,274,756.9,292.42,775.73,315c-1.52-1.82,7.95,3.55,7.27,2.1,0,.1,2.72,11.54.07,8.5C793.32,337.28,795.68,341.55,796.7,360Z"/><path class="cls-3" d="M253.09,292.38c4.57,0,8-3.44,14-3.61,8.49-.24,17.94,5.87,24.33,10.24,5.22,3.56,14.87,8.25,19.2,13.47,3.47,4.18,3.89,9.14,6.76,12.94,1.77,2.34,6.29,3.6,7.74,6.32,10,18.72,13.92,40.4,15.2,62.05,1.23,20.94,14.87,42.54,5.31,64.84-4.63,10.78-14.83,13.49-19.23,21-3.93,6.76-9.34,37.09-4.81,44.77.54.93,11.27,4.23,13.77,7.15,3.42,4,3.73,10.63,5.78,15.34,4.1,9.45,8.1,16,15.58,21.82,17.82,13.94,44.21,26.8,64.32,38.55,17.31,10.11,49.29,34.32,53.12,56H101.43c.42-18.26,14.66-44.49,28.32-55.73,19.77-16.26,54-18,64.87-40.2,3.48-7.08,11.12-20.27,11.56-27.62.88-14.64-11.27-21.66-17.63-33.08-5.51-9.89-6.65-22.23-11.29-31.57-2.3-4.65-6.84-10.14-9.13-14.62-11.09-21.62-1.17-43.32-3-65.65-.61-7.51-1.89-11.71-.59-18.86,1-5.45,3.62-9.41,4.41-13,2.58-11.63,6.76-12.57,12-23.47,2.8-5.86,1.12-14.32,3.67-19.31,3.43-6.68,4.56-3.13,10.94-9.6,2.94-3,1.61-9.57,6.4-11.88,5.3-2.54,9.41,2.86,16.45,0,2.18-.88,6.78-10.57,14.05-11.87C236.36,286.19,253.09,289.08,253.09,292.38Z"/><path class="cls-3" d="M1318.39,663.31H952c-.19-17.25,8.3-40.86,17-52.94,3.21-4.47,11.86-10.17,14.43-12.52,1.15-1.05,8.43-8.29,10.62-9.45,10.86-5.75,25.9-4.1,34.14-17.68,6.34-10.42-2.24-28.64-3.21-40.57-1.89-23.38,5.55-38.76,12.3-60.28,5.5-17.53,1.86-35.95,2.45-50.5,1.44-35.31,47.18-69.91,79.72-74.23,32.26-4.28,71.46-.41,92,29.47,18.71,27.14,27.36,52.18,27.9,85.15.55,34,14.46,72.5,26.92,104,2,4.94-.47,10.12,2.74,14.62,6.53,9.11,19.11,13.22,26.5,21.92C1309.65,616.9,1316.77,642.14,1318.39,663.31Z"/><path class="cls-4" d="M1769.31,663.6s0-44-125.2-111.77c26.78-29.36,24.85-123.24,24.85-166.12,0-91.25-55.7-165.22-147-165.22s-146.94,74-146.94,165.22c0,42.88-1.94,136.76,24.85,166.12-126.7,67-116.07,111.77-116.07,111.77"/></svg>